%TF.GenerationSoftware,KiCad,Pcbnew,(6.0.0)*%
%TF.CreationDate,2022-01-17T22:08:50-08:00*%
%TF.ProjectId,encoder,656e636f-6465-4722-9e6b-696361645f70,1*%
%TF.SameCoordinates,Original*%
%TF.FileFunction,Copper,L1,Top*%
%TF.FilePolarity,Positive*%
%FSLAX46Y46*%
G04 Gerber Fmt 4.6, Leading zero omitted, Abs format (unit mm)*
G04 Created by KiCad (PCBNEW (6.0.0)) date 2022-01-17 22:08:50*
%MOMM*%
%LPD*%
G01*
G04 APERTURE LIST*
G04 Aperture macros list*
%AMRoundRect*
0 Rectangle with rounded corners*
0 $1 Rounding radius*
0 $2 $3 $4 $5 $6 $7 $8 $9 X,Y pos of 4 corners*
0 Add a 4 corners polygon primitive as box body*
4,1,4,$2,$3,$4,$5,$6,$7,$8,$9,$2,$3,0*
0 Add four circle primitives for the rounded corners*
1,1,$1+$1,$2,$3*
1,1,$1+$1,$4,$5*
1,1,$1+$1,$6,$7*
1,1,$1+$1,$8,$9*
0 Add four rect primitives between the rounded corners*
20,1,$1+$1,$2,$3,$4,$5,0*
20,1,$1+$1,$4,$5,$6,$7,0*
20,1,$1+$1,$6,$7,$8,$9,0*
20,1,$1+$1,$8,$9,$2,$3,0*%
G04 Aperture macros list end*
%TA.AperFunction,SMDPad,CuDef*%
%ADD10RoundRect,0.250000X0.650000X-0.325000X0.650000X0.325000X-0.650000X0.325000X-0.650000X-0.325000X0*%
%TD*%
%TA.AperFunction,SMDPad,CuDef*%
%ADD11RoundRect,0.100000X0.637500X0.100000X-0.637500X0.100000X-0.637500X-0.100000X0.637500X-0.100000X0*%
%TD*%
%TA.AperFunction,ComponentPad*%
%ADD12R,1.700000X1.700000*%
%TD*%
%TA.AperFunction,ComponentPad*%
%ADD13O,1.700000X1.700000*%
%TD*%
%TA.AperFunction,SMDPad,CuDef*%
%ADD14RoundRect,0.250000X-0.475000X0.250000X-0.475000X-0.250000X0.475000X-0.250000X0.475000X0.250000X0*%
%TD*%
%TA.AperFunction,ViaPad*%
%ADD15C,0.800000*%
%TD*%
%TA.AperFunction,Conductor*%
%ADD16C,1.000000*%
%TD*%
%TA.AperFunction,Conductor*%
%ADD17C,0.350000*%
%TD*%
G04 APERTURE END LIST*
D10*
%TO.P,C2,1*%
%TO.N,GND*%
X72000000Y-82975000D03*
%TO.P,C2,2*%
%TO.N,Net-(C2-Pad2)*%
X72000000Y-80025000D03*
%TD*%
D11*
%TO.P,U1,1,~{CSn}*%
%TO.N,Net-(J1-Pad5)*%
X82862500Y-81950000D03*
%TO.P,U1,2,CLK*%
%TO.N,Net-(J1-Pad4)*%
X82862500Y-81300000D03*
%TO.P,U1,3,MISO*%
%TO.N,Net-(J1-Pad3)*%
X82862500Y-80650000D03*
%TO.P,U1,4,MOSI*%
%TO.N,Net-(J1-Pad2)*%
X82862500Y-80000000D03*
%TO.P,U1,5,TEST*%
%TO.N,GND*%
X82862500Y-79350000D03*
%TO.P,U1,6,TEST*%
%TO.N,unconnected-(U1-Pad6)*%
X82862500Y-78700000D03*
%TO.P,U1,7,TEST*%
%TO.N,unconnected-(U1-Pad7)*%
X82862500Y-78050000D03*
%TO.P,U1,8,TEST*%
%TO.N,unconnected-(U1-Pad8)*%
X77137500Y-78050000D03*
%TO.P,U1,9,TEST*%
%TO.N,unconnected-(U1-Pad9)*%
X77137500Y-78700000D03*
%TO.P,U1,10,TEST*%
%TO.N,unconnected-(U1-Pad10)*%
X77137500Y-79350000D03*
%TO.P,U1,11,VDD5V*%
%TO.N,Net-(C2-Pad2)*%
X77137500Y-80000000D03*
%TO.P,U1,12,VDD3V*%
%TO.N,Net-(C1-Pad1)*%
X77137500Y-80650000D03*
%TO.P,U1,13,GND*%
%TO.N,GND*%
X77137500Y-81300000D03*
%TO.P,U1,14,PWM*%
%TO.N,Net-(J1-Pad6)*%
X77137500Y-81950000D03*
%TD*%
D12*
%TO.P,J1,1,Pin_1*%
%TO.N,Net-(C2-Pad2)*%
X98000000Y-72375000D03*
D13*
%TO.P,J1,2,Pin_2*%
%TO.N,Net-(J1-Pad2)*%
X98000000Y-74915000D03*
%TO.P,J1,3,Pin_3*%
%TO.N,Net-(J1-Pad3)*%
X98000000Y-77455000D03*
%TO.P,J1,4,Pin_4*%
%TO.N,Net-(J1-Pad4)*%
X98000000Y-79995000D03*
%TO.P,J1,5,Pin_5*%
%TO.N,Net-(J1-Pad5)*%
X98000000Y-82535000D03*
%TO.P,J1,6,Pin_6*%
%TO.N,Net-(J1-Pad6)*%
X98000000Y-85075000D03*
%TO.P,J1,7,Pin_7*%
%TO.N,GND*%
X98000000Y-87615000D03*
%TD*%
D14*
%TO.P,C1,1*%
%TO.N,Net-(C1-Pad1)*%
X74500000Y-81050000D03*
%TO.P,C1,2*%
%TO.N,GND*%
X74500000Y-82950000D03*
%TD*%
D15*
%TO.N,GND*%
X83000000Y-83500000D03*
X83500000Y-75000000D03*
X91440000Y-72390000D03*
%TO.N,Net-(C1-Pad1)*%
X79500000Y-81000000D03*
%TO.N,Net-(C2-Pad2)*%
X79500000Y-79850000D03*
%TD*%
D16*
%TO.N,Net-(J1-Pad2)*%
X92500000Y-79000000D02*
X85000000Y-79000000D01*
X96585000Y-74915000D02*
X92500000Y-79000000D01*
X98000000Y-74915000D02*
X96585000Y-74915000D01*
D17*
%TO.N,Net-(J1-Pad3)*%
X85850000Y-80650000D02*
X86000000Y-80500000D01*
D16*
X98000000Y-77455000D02*
X94955000Y-80500000D01*
D17*
X82862500Y-80650000D02*
X85850000Y-80650000D01*
D16*
X94955000Y-80500000D02*
X86000000Y-80500000D01*
%TO.N,Net-(J1-Pad4)*%
X98000000Y-79995000D02*
X95995000Y-82000000D01*
D17*
X85300000Y-81300000D02*
X86000001Y-82000001D01*
D16*
X95995000Y-82000000D02*
X86000001Y-82000001D01*
D17*
X82862500Y-81300000D02*
X85300000Y-81300000D01*
%TO.N,Net-(J1-Pad5)*%
X82862500Y-81950000D02*
X83950000Y-81950000D01*
D16*
X85385000Y-83385000D02*
X84500000Y-82500000D01*
D17*
X83950000Y-81950000D02*
X84500000Y-82500000D01*
D16*
X97150000Y-83385000D02*
X85385000Y-83385000D01*
X98000000Y-82535000D02*
X97150000Y-83385000D01*
D17*
%TO.N,GND*%
X81350000Y-79350000D02*
X81350000Y-76650000D01*
X81350000Y-76650000D02*
X83000000Y-75000000D01*
X82862500Y-79350000D02*
X81350000Y-79350000D01*
X83000000Y-75000000D02*
X83500000Y-75000000D01*
%TO.N,Net-(J1-Pad6)*%
X77137500Y-82637500D02*
X77500000Y-83000000D01*
X77137500Y-81950000D02*
X77137500Y-82637500D01*
%TO.N,Net-(J1-Pad2)*%
X84000000Y-80000000D02*
X85000000Y-79000000D01*
X82862500Y-80000000D02*
X84000000Y-80000000D01*
D16*
%TO.N,Net-(J1-Pad6)*%
X79575000Y-85075000D02*
X77500000Y-83000000D01*
X98000000Y-85075000D02*
X79575000Y-85075000D01*
%TO.N,Net-(C2-Pad2)*%
X79500000Y-76000000D02*
X79500000Y-79850000D01*
X84500000Y-71000000D02*
X79500000Y-76000000D01*
X91500000Y-71000000D02*
X84500000Y-71000000D01*
X92875000Y-72375000D02*
X91500000Y-71000000D01*
X98000000Y-72375000D02*
X92875000Y-72375000D01*
D17*
%TO.N,Net-(C1-Pad1)*%
X79500000Y-81000000D02*
X79413255Y-81000000D01*
X79063255Y-80650000D02*
X77137500Y-80650000D01*
X79413255Y-81000000D02*
X79063255Y-80650000D01*
%TO.N,Net-(C2-Pad2)*%
X79350000Y-80000000D02*
X79500000Y-79850000D01*
X77137500Y-80000000D02*
X79350000Y-80000000D01*
X77112500Y-80025000D02*
X77137500Y-80000000D01*
X72000000Y-80025000D02*
X77112500Y-80025000D01*
%TO.N,GND*%
X72025000Y-82950000D02*
X72000000Y-82975000D01*
X74500000Y-82950000D02*
X72025000Y-82950000D01*
%TO.N,Net-(C1-Pad1)*%
X74900000Y-80650000D02*
X74500000Y-81050000D01*
X77137500Y-80650000D02*
X74900000Y-80650000D01*
%TO.N,GND*%
X76150000Y-81300000D02*
X77137500Y-81300000D01*
X74500000Y-82950000D02*
X76150000Y-81300000D01*
%TD*%
%TA.AperFunction,Conductor*%
%TO.N,GND*%
G36*
X93582314Y-62028002D02*
G01*
X93628807Y-62081658D01*
X93638911Y-62151932D01*
X93609417Y-62216512D01*
X93575759Y-62243935D01*
X93334498Y-62379047D01*
X93334493Y-62379050D01*
X93331381Y-62380793D01*
X93328485Y-62382878D01*
X93328480Y-62382881D01*
X93181761Y-62488504D01*
X93045605Y-62586523D01*
X93042969Y-62588917D01*
X93042967Y-62588919D01*
X92865733Y-62749907D01*
X92784954Y-62823281D01*
X92552781Y-63088023D01*
X92352071Y-63377347D01*
X92185402Y-63687532D01*
X92054919Y-64014590D01*
X91962299Y-64354317D01*
X91908732Y-64702345D01*
X91908592Y-64705909D01*
X91895361Y-65042681D01*
X91894908Y-65054200D01*
X91921004Y-65405358D01*
X91986684Y-65751304D01*
X92091104Y-66087592D01*
X92092545Y-66090867D01*
X92220485Y-66381633D01*
X92232921Y-66409897D01*
X92410313Y-66714076D01*
X92620999Y-66996219D01*
X92623443Y-66998817D01*
X92623448Y-66998823D01*
X92859820Y-67250093D01*
X92862270Y-67252697D01*
X92864999Y-67255007D01*
X93054652Y-67415560D01*
X93131024Y-67480214D01*
X93423807Y-67675845D01*
X93426989Y-67677484D01*
X93426991Y-67677485D01*
X93733670Y-67835436D01*
X93733675Y-67835438D01*
X93736853Y-67837075D01*
X93740194Y-67838341D01*
X93740199Y-67838343D01*
X93971696Y-67926049D01*
X94066139Y-67961830D01*
X94069603Y-67962710D01*
X94069607Y-67962711D01*
X94403963Y-68047627D01*
X94403971Y-68047629D01*
X94407430Y-68048507D01*
X94579152Y-68071878D01*
X94753347Y-68095585D01*
X94753354Y-68095586D01*
X94756340Y-68095992D01*
X94871081Y-68100500D01*
X95089198Y-68100500D01*
X95230756Y-68092462D01*
X95347992Y-68085805D01*
X95347999Y-68085804D01*
X95351560Y-68085602D01*
X95489883Y-68061834D01*
X95695082Y-68026575D01*
X95695090Y-68026573D01*
X95698600Y-68025970D01*
X95702025Y-68024972D01*
X95702028Y-68024971D01*
X96033221Y-67928436D01*
X96036659Y-67927434D01*
X96361390Y-67791263D01*
X96564556Y-67677485D01*
X96665502Y-67620953D01*
X96665507Y-67620950D01*
X96668619Y-67619207D01*
X96671515Y-67617122D01*
X96671520Y-67617119D01*
X96818239Y-67511496D01*
X96954395Y-67413477D01*
X97128858Y-67255007D01*
X97212405Y-67179118D01*
X97212406Y-67179117D01*
X97215046Y-67176719D01*
X97447219Y-66911977D01*
X97647929Y-66622653D01*
X97755008Y-66423370D01*
X97804870Y-66372830D01*
X97874141Y-66357271D01*
X97940827Y-66381633D01*
X97983756Y-66438181D01*
X97992000Y-66483008D01*
X97992000Y-70491298D01*
X97991998Y-70492068D01*
X97991524Y-70569652D01*
X97993990Y-70578281D01*
X97993991Y-70578286D01*
X97999639Y-70598048D01*
X98003217Y-70614809D01*
X98006130Y-70635152D01*
X98006133Y-70635162D01*
X98007405Y-70644045D01*
X98018021Y-70667395D01*
X98024464Y-70684907D01*
X98031512Y-70709565D01*
X98047274Y-70734548D01*
X98055404Y-70749614D01*
X98067633Y-70776510D01*
X98084374Y-70795939D01*
X98095480Y-70810950D01*
X98103253Y-70823271D01*
X98122684Y-70891557D01*
X98102111Y-70959507D01*
X98048067Y-71005549D01*
X97996688Y-71016500D01*
X97101866Y-71016500D01*
X97039684Y-71023255D01*
X96903295Y-71074385D01*
X96786739Y-71161739D01*
X96699385Y-71278295D01*
X96696233Y-71286704D01*
X96691923Y-71294575D01*
X96690259Y-71293664D01*
X96654337Y-71341490D01*
X96587776Y-71366193D01*
X96578991Y-71366500D01*
X93344924Y-71366500D01*
X93276803Y-71346498D01*
X93255829Y-71329595D01*
X92256855Y-70330621D01*
X92247753Y-70320478D01*
X92227897Y-70295782D01*
X92224032Y-70290975D01*
X92185578Y-70258708D01*
X92181931Y-70255528D01*
X92180119Y-70253885D01*
X92177925Y-70251691D01*
X92144651Y-70224358D01*
X92143853Y-70223696D01*
X92072526Y-70163846D01*
X92067856Y-70161278D01*
X92063739Y-70157897D01*
X91981914Y-70114023D01*
X91980755Y-70113394D01*
X91904619Y-70071538D01*
X91904611Y-70071535D01*
X91899213Y-70068567D01*
X91894131Y-70066955D01*
X91889437Y-70064438D01*
X91800469Y-70037238D01*
X91799441Y-70036918D01*
X91710694Y-70008765D01*
X91705398Y-70008171D01*
X91700302Y-70006613D01*
X91607743Y-69997210D01*
X91606607Y-69997089D01*
X91572992Y-69993319D01*
X91560270Y-69991892D01*
X91560266Y-69991892D01*
X91556773Y-69991500D01*
X91553246Y-69991500D01*
X91552261Y-69991445D01*
X91546581Y-69990998D01*
X91517175Y-69988011D01*
X91509663Y-69987248D01*
X91509661Y-69987248D01*
X91503538Y-69986626D01*
X91461259Y-69990623D01*
X91457891Y-69990941D01*
X91446033Y-69991500D01*
X84561843Y-69991500D01*
X84548236Y-69990763D01*
X84516738Y-69987341D01*
X84516733Y-69987341D01*
X84510612Y-69986676D01*
X84484362Y-69988973D01*
X84460612Y-69991050D01*
X84455786Y-69991379D01*
X84453314Y-69991500D01*
X84450231Y-69991500D01*
X84440920Y-69992413D01*
X84407494Y-69995690D01*
X84406181Y-69995812D01*
X84361916Y-69999685D01*
X84313587Y-70003913D01*
X84308468Y-70005400D01*
X84303167Y-70005920D01*
X84214166Y-70032791D01*
X84213033Y-70033126D01*
X84129586Y-70057370D01*
X84129582Y-70057372D01*
X84123664Y-70059091D01*
X84118932Y-70061544D01*
X84113831Y-70063084D01*
X84108388Y-70065978D01*
X84031740Y-70106731D01*
X84030574Y-70107343D01*
X83963459Y-70142133D01*
X83948074Y-70150108D01*
X83943911Y-70153431D01*
X83939204Y-70155934D01*
X83934429Y-70159828D01*
X83934428Y-70159829D01*
X83867102Y-70214739D01*
X83866075Y-70215567D01*
X83829792Y-70244531D01*
X83829787Y-70244536D01*
X83827028Y-70246738D01*
X83824527Y-70249239D01*
X83823809Y-70249881D01*
X83819461Y-70253594D01*
X83785938Y-70280935D01*
X83782015Y-70285677D01*
X83782013Y-70285679D01*
X83756703Y-70316273D01*
X83748713Y-70325053D01*
X78830621Y-75243145D01*
X78820478Y-75252247D01*
X78790975Y-75275968D01*
X78769821Y-75301178D01*
X78758709Y-75314421D01*
X78755528Y-75318069D01*
X78753885Y-75319881D01*
X78751691Y-75322075D01*
X78724358Y-75355349D01*
X78723696Y-75356147D01*
X78663846Y-75427474D01*
X78661278Y-75432144D01*
X78657897Y-75436261D01*
X78626860Y-75494145D01*
X78614023Y-75518086D01*
X78613394Y-75519245D01*
X78571538Y-75595381D01*
X78571535Y-75595389D01*
X78568567Y-75600787D01*
X78566955Y-75605869D01*
X78564438Y-75610563D01*
X78537238Y-75699531D01*
X78536918Y-75700559D01*
X78508765Y-75789306D01*
X78508171Y-75794602D01*
X78506613Y-75799698D01*
X78505990Y-75805834D01*
X78497218Y-75892187D01*
X78497089Y-75893393D01*
X78491500Y-75943227D01*
X78491500Y-75946754D01*
X78491445Y-75947739D01*
X78490998Y-75953419D01*
X78486626Y-75996462D01*
X78487206Y-76002593D01*
X78490941Y-76042109D01*
X78491500Y-76053967D01*
X78491500Y-77513006D01*
X78471498Y-77581127D01*
X78417842Y-77627620D01*
X78347568Y-77637724D01*
X78282988Y-77608230D01*
X78265538Y-77589710D01*
X78214017Y-77522568D01*
X78214015Y-77522566D01*
X78208987Y-77516013D01*
X78202436Y-77510986D01*
X78202434Y-77510984D01*
X78145431Y-77467245D01*
X78081875Y-77418476D01*
X77933850Y-77357162D01*
X77925662Y-77356084D01*
X77818972Y-77342038D01*
X77818971Y-77342038D01*
X77814885Y-77341500D01*
X77137583Y-77341500D01*
X76460116Y-77341501D01*
X76456031Y-77342039D01*
X76456027Y-77342039D01*
X76349337Y-77356084D01*
X76349335Y-77356084D01*
X76341150Y-77357162D01*
X76267137Y-77387819D01*
X76200752Y-77415316D01*
X76200750Y-77415317D01*
X76193124Y-77418476D01*
X76186574Y-77423502D01*
X76110084Y-77482196D01*
X76066013Y-77516013D01*
X76060987Y-77522563D01*
X76060984Y-77522566D01*
X76017244Y-77579569D01*
X75968476Y-77643125D01*
X75907162Y-77791150D01*
X75891500Y-77910115D01*
X75891501Y-78189884D01*
X75892039Y-78193969D01*
X75892039Y-78193973D01*
X75903487Y-78280935D01*
X75907162Y-78308850D01*
X75910322Y-78316478D01*
X75914589Y-78326780D01*
X75922179Y-78397370D01*
X75914590Y-78423218D01*
X75907162Y-78441150D01*
X75891500Y-78560115D01*
X75891501Y-78839884D01*
X75907162Y-78958850D01*
X75910322Y-78966478D01*
X75914589Y-78976780D01*
X75922179Y-79047370D01*
X75914590Y-79073218D01*
X75907162Y-79091150D01*
X75906084Y-79099338D01*
X75905797Y-79101522D01*
X75891500Y-79210115D01*
X75891500Y-79215500D01*
X75891393Y-79215863D01*
X75891230Y-79218356D01*
X75890672Y-79218319D01*
X75871498Y-79283621D01*
X75817842Y-79330114D01*
X75765500Y-79341500D01*
X73390369Y-79341500D01*
X73322248Y-79321498D01*
X73283228Y-79281807D01*
X73248478Y-79225652D01*
X73123303Y-79100695D01*
X73107818Y-79091150D01*
X72978968Y-79011725D01*
X72978966Y-79011724D01*
X72972738Y-79007885D01*
X72847899Y-78966478D01*
X72811389Y-78954368D01*
X72811387Y-78954368D01*
X72804861Y-78952203D01*
X72798025Y-78951503D01*
X72798022Y-78951502D01*
X72754969Y-78947091D01*
X72700400Y-78941500D01*
X71299600Y-78941500D01*
X71296354Y-78941837D01*
X71296350Y-78941837D01*
X71200692Y-78951762D01*
X71200688Y-78951763D01*
X71193834Y-78952474D01*
X71187298Y-78954655D01*
X71187296Y-78954655D01*
X71055194Y-78998728D01*
X71026054Y-79008450D01*
X70875652Y-79101522D01*
X70750695Y-79226697D01*
X70746855Y-79232927D01*
X70746854Y-79232928D01*
X70674690Y-79350000D01*
X70657885Y-79377262D01*
X70602203Y-79545139D01*
X70601503Y-79551975D01*
X70601502Y-79551978D01*
X70599903Y-79567583D01*
X70591500Y-79649600D01*
X70591500Y-80400400D01*
X70591837Y-80403646D01*
X70591837Y-80403650D01*
X70593796Y-80422526D01*
X70602474Y-80506166D01*
X70604655Y-80512702D01*
X70604655Y-80512704D01*
X70641362Y-80622726D01*
X70658450Y-80673946D01*
X70751522Y-80824348D01*
X70876697Y-80949305D01*
X70882927Y-80953145D01*
X70882928Y-80953146D01*
X71020090Y-81037694D01*
X71027262Y-81042115D01*
X71049039Y-81049338D01*
X71188611Y-81095632D01*
X71188613Y-81095632D01*
X71195139Y-81097797D01*
X71201975Y-81098497D01*
X71201978Y-81098498D01*
X71245031Y-81102909D01*
X71299600Y-81108500D01*
X72700400Y-81108500D01*
X72703646Y-81108163D01*
X72703650Y-81108163D01*
X72799308Y-81098238D01*
X72799312Y-81098237D01*
X72806166Y-81097526D01*
X72812702Y-81095345D01*
X72812704Y-81095345D01*
X72950603Y-81049338D01*
X72973946Y-81041550D01*
X73051699Y-80993435D01*
X73074197Y-80979513D01*
X73142649Y-80960675D01*
X73210419Y-80981836D01*
X73255990Y-81036277D01*
X73266500Y-81086657D01*
X73266500Y-81350400D01*
X73266837Y-81353646D01*
X73266837Y-81353650D01*
X73276209Y-81443973D01*
X73277474Y-81456166D01*
X73279655Y-81462702D01*
X73279655Y-81462704D01*
X73306486Y-81543125D01*
X73333450Y-81623946D01*
X73426522Y-81774348D01*
X73551697Y-81899305D01*
X73556235Y-81902102D01*
X73596824Y-81959353D01*
X73600054Y-82030276D01*
X73564428Y-82091687D01*
X73555932Y-82099062D01*
X73545793Y-82107098D01*
X73448215Y-82204845D01*
X73385932Y-82238924D01*
X73315112Y-82233921D01*
X73258239Y-82191423D01*
X73251959Y-82182220D01*
X73242901Y-82170792D01*
X73128171Y-82056261D01*
X73116760Y-82047249D01*
X72978757Y-81962184D01*
X72965576Y-81956037D01*
X72811290Y-81904862D01*
X72797914Y-81901995D01*
X72703562Y-81892328D01*
X72697145Y-81892000D01*
X72272115Y-81892000D01*
X72256876Y-81896475D01*
X72255671Y-81897865D01*
X72254000Y-81905548D01*
X72254000Y-82702885D01*
X72258475Y-82718124D01*
X72259865Y-82719329D01*
X72267548Y-82721000D01*
X73208885Y-82721000D01*
X73253280Y-82707965D01*
X73263957Y-82701103D01*
X73299452Y-82696000D01*
X75714884Y-82696000D01*
X75730123Y-82691525D01*
X75731328Y-82690135D01*
X75732999Y-82682452D01*
X75732999Y-82652905D01*
X75732662Y-82646386D01*
X75722743Y-82550794D01*
X75719851Y-82537400D01*
X75668412Y-82383216D01*
X75662239Y-82370038D01*
X75576937Y-82232193D01*
X75567901Y-82220792D01*
X75453172Y-82106262D01*
X75444238Y-82099206D01*
X75403177Y-82041288D01*
X75399947Y-81970365D01*
X75435574Y-81908954D01*
X75443407Y-81902154D01*
X75449348Y-81898478D01*
X75574305Y-81773303D01*
X75667115Y-81622738D01*
X75669420Y-81615788D01*
X75669755Y-81615070D01*
X75716671Y-81561783D01*
X75784948Y-81542321D01*
X75852908Y-81562861D01*
X75898975Y-81616883D01*
X75908523Y-81687235D01*
X75908257Y-81688506D01*
X75907162Y-81691150D01*
X75897167Y-81767072D01*
X75893648Y-81793803D01*
X75891500Y-81810115D01*
X75891501Y-82089884D01*
X75892039Y-82093969D01*
X75892039Y-82093973D01*
X75904868Y-82191423D01*
X75907162Y-82208850D01*
X75968476Y-82356876D01*
X76066013Y-82483987D01*
X76072563Y-82489013D01*
X76072566Y-82489016D01*
X76129569Y-82532756D01*
X76193125Y-82581524D01*
X76341150Y-82642838D01*
X76353312Y-82644439D01*
X76354480Y-82644593D01*
X76419408Y-82673313D01*
X76458501Y-82732578D01*
X76463124Y-82754378D01*
X76468855Y-82801735D01*
X76471542Y-82808845D01*
X76472746Y-82813748D01*
X76475605Y-82824200D01*
X76477059Y-82829016D01*
X76478366Y-82836504D01*
X76484817Y-82851201D01*
X76494708Y-82915453D01*
X76486676Y-82989388D01*
X76503913Y-83186413D01*
X76505632Y-83192330D01*
X76505633Y-83192335D01*
X76543614Y-83323064D01*
X76559091Y-83376336D01*
X76650108Y-83551926D01*
X76653948Y-83556736D01*
X76744542Y-83670223D01*
X76744549Y-83670230D01*
X76746738Y-83672973D01*
X76749233Y-83675468D01*
X78818145Y-85744379D01*
X78827247Y-85754522D01*
X78850968Y-85784025D01*
X78855696Y-85787992D01*
X78889421Y-85816291D01*
X78893069Y-85819472D01*
X78894881Y-85821115D01*
X78897075Y-85823309D01*
X78930349Y-85850642D01*
X78931147Y-85851304D01*
X79002474Y-85911154D01*
X79007144Y-85913722D01*
X79011261Y-85917103D01*
X79069145Y-85948140D01*
X79093086Y-85960977D01*
X79094245Y-85961606D01*
X79170381Y-86003462D01*
X79170389Y-86003465D01*
X79175787Y-86006433D01*
X79180869Y-86008045D01*
X79185563Y-86010562D01*
X79274531Y-86037762D01*
X79275559Y-86038082D01*
X79364306Y-86066235D01*
X79369602Y-86066829D01*
X79374698Y-86068387D01*
X79467257Y-86077790D01*
X79468393Y-86077911D01*
X79502008Y-86081681D01*
X79514730Y-86083108D01*
X79514734Y-86083108D01*
X79518227Y-86083500D01*
X79521754Y-86083500D01*
X79522739Y-86083555D01*
X79528419Y-86084002D01*
X79557825Y-86086989D01*
X79565337Y-86087752D01*
X79565339Y-86087752D01*
X79571462Y-86088374D01*
X79617108Y-86084059D01*
X79628967Y-86083500D01*
X97042393Y-86083500D01*
X97110514Y-86103502D01*
X97122877Y-86112555D01*
X97218126Y-86191632D01*
X97291955Y-86234774D01*
X97340679Y-86286412D01*
X97353750Y-86356195D01*
X97327019Y-86421967D01*
X97286562Y-86455327D01*
X97278457Y-86459546D01*
X97269738Y-86465036D01*
X97099433Y-86592905D01*
X97091726Y-86599748D01*
X96944590Y-86753717D01*
X96938104Y-86761727D01*
X96818098Y-86937649D01*
X96813000Y-86946623D01*
X96723338Y-87139783D01*
X96719775Y-87149470D01*
X96664389Y-87349183D01*
X96665912Y-87357607D01*
X96678292Y-87361000D01*
X98128000Y-87361000D01*
X98196121Y-87381002D01*
X98242614Y-87434658D01*
X98254000Y-87487000D01*
X98254000Y-88933515D01*
X98256385Y-88941638D01*
X98256385Y-89012635D01*
X98217740Y-89072587D01*
X98204072Y-89084365D01*
X98189053Y-89095479D01*
X98167369Y-89109160D01*
X98161427Y-89115888D01*
X98147819Y-89131296D01*
X98135627Y-89143340D01*
X98113253Y-89162619D01*
X98108374Y-89170147D01*
X98108371Y-89170150D01*
X98099304Y-89184139D01*
X98088014Y-89199013D01*
X98071044Y-89218228D01*
X98058490Y-89244966D01*
X98050176Y-89259935D01*
X98034107Y-89284727D01*
X98031535Y-89293327D01*
X98026761Y-89309290D01*
X98020099Y-89326736D01*
X98009201Y-89349948D01*
X98007820Y-89358821D01*
X98004658Y-89379128D01*
X98000874Y-89395849D01*
X97994986Y-89415536D01*
X97994985Y-89415539D01*
X97992413Y-89424141D01*
X97992358Y-89433116D01*
X97992358Y-89433117D01*
X97992203Y-89458546D01*
X97992170Y-89459328D01*
X97992000Y-89460423D01*
X97992000Y-89491298D01*
X97991998Y-89492068D01*
X97991524Y-89569652D01*
X97991908Y-89570996D01*
X97992000Y-89572341D01*
X97992000Y-93509613D01*
X97971998Y-93577734D01*
X97918342Y-93624227D01*
X97848068Y-93634331D01*
X97783488Y-93604837D01*
X97757157Y-93573089D01*
X97661666Y-93409348D01*
X97589687Y-93285924D01*
X97379001Y-93003781D01*
X97376557Y-93001183D01*
X97376552Y-93001177D01*
X97140180Y-92749907D01*
X97140176Y-92749904D01*
X97137730Y-92747303D01*
X96986417Y-92619207D01*
X96871698Y-92522090D01*
X96871694Y-92522087D01*
X96868976Y-92519786D01*
X96812719Y-92482196D01*
X96579170Y-92326144D01*
X96579168Y-92326143D01*
X96576193Y-92324155D01*
X96573009Y-92322515D01*
X96266330Y-92164564D01*
X96266325Y-92164562D01*
X96263147Y-92162925D01*
X96259806Y-92161659D01*
X96259801Y-92161657D01*
X95937205Y-92039437D01*
X95937206Y-92039437D01*
X95933861Y-92038170D01*
X95930397Y-92037290D01*
X95930393Y-92037289D01*
X95596037Y-91952373D01*
X95596029Y-91952371D01*
X95592570Y-91951493D01*
X95420848Y-91928122D01*
X95246653Y-91904415D01*
X95246646Y-91904414D01*
X95243660Y-91904008D01*
X95128919Y-91899500D01*
X94910802Y-91899500D01*
X94769244Y-91907538D01*
X94652008Y-91914195D01*
X94652001Y-91914196D01*
X94648440Y-91914398D01*
X94510117Y-91938166D01*
X94304918Y-91973425D01*
X94304910Y-91973427D01*
X94301400Y-91974030D01*
X94297975Y-91975028D01*
X94297972Y-91975029D01*
X94084370Y-92037289D01*
X93963341Y-92072566D01*
X93638610Y-92208737D01*
X93560114Y-92252697D01*
X93334498Y-92379047D01*
X93334493Y-92379050D01*
X93331381Y-92380793D01*
X93328485Y-92382878D01*
X93328480Y-92382881D01*
X93196477Y-92477910D01*
X93045605Y-92586523D01*
X93042969Y-92588917D01*
X93042967Y-92588919D01*
X92787595Y-92820882D01*
X92784954Y-92823281D01*
X92782603Y-92825962D01*
X92606670Y-93026575D01*
X92552781Y-93088023D01*
X92550749Y-93090952D01*
X92550746Y-93090956D01*
X92547171Y-93096110D01*
X92352071Y-93377347D01*
X92185402Y-93687532D01*
X92054919Y-94014590D01*
X91962299Y-94354317D01*
X91908732Y-94702345D01*
X91908592Y-94705909D01*
X91896104Y-95023766D01*
X91894908Y-95054200D01*
X91895173Y-95057760D01*
X91918392Y-95370206D01*
X91921004Y-95405358D01*
X91986684Y-95751304D01*
X92091104Y-96087592D01*
X92232921Y-96409897D01*
X92410313Y-96714076D01*
X92620999Y-96996219D01*
X92623443Y-96998817D01*
X92623448Y-96998823D01*
X92859820Y-97250093D01*
X92862270Y-97252697D01*
X92864999Y-97255007D01*
X93054652Y-97415560D01*
X93131024Y-97480214D01*
X93423807Y-97675845D01*
X93426989Y-97677484D01*
X93426991Y-97677485D01*
X93575523Y-97753984D01*
X93626925Y-97802957D01*
X93643691Y-97871945D01*
X93620497Y-97939047D01*
X93564707Y-97982956D01*
X93517831Y-97992000D01*
X66485807Y-97992000D01*
X66417686Y-97971998D01*
X66371193Y-97918342D01*
X66361089Y-97848068D01*
X66390583Y-97783488D01*
X66424241Y-97756065D01*
X66665502Y-97620953D01*
X66665507Y-97620950D01*
X66668619Y-97619207D01*
X66671515Y-97617122D01*
X66671520Y-97617119D01*
X66818239Y-97511496D01*
X66954395Y-97413477D01*
X67128858Y-97255007D01*
X67212405Y-97179118D01*
X67212406Y-97179117D01*
X67215046Y-97176719D01*
X67447219Y-96911977D01*
X67647929Y-96622653D01*
X67814598Y-96312468D01*
X67945081Y-95985410D01*
X68037701Y-95645683D01*
X68091268Y-95297655D01*
X68100833Y-95054200D01*
X68104952Y-94949370D01*
X68104952Y-94949365D01*
X68105092Y-94945800D01*
X68078996Y-94594642D01*
X68013316Y-94248696D01*
X67908896Y-93912408D01*
X67782094Y-93624227D01*
X67768522Y-93593382D01*
X67768520Y-93593379D01*
X67767079Y-93590103D01*
X67589687Y-93285924D01*
X67379001Y-93003781D01*
X67376557Y-93001183D01*
X67376552Y-93001177D01*
X67140180Y-92749907D01*
X67140176Y-92749904D01*
X67137730Y-92747303D01*
X66986417Y-92619207D01*
X66871698Y-92522090D01*
X66871694Y-92522087D01*
X66868976Y-92519786D01*
X66812719Y-92482196D01*
X66579170Y-92326144D01*
X66579168Y-92326143D01*
X66576193Y-92324155D01*
X66573009Y-92322515D01*
X66266330Y-92164564D01*
X66266325Y-92164562D01*
X66263147Y-92162925D01*
X66259806Y-92161659D01*
X66259801Y-92161657D01*
X65937205Y-92039437D01*
X65937206Y-92039437D01*
X65933861Y-92038170D01*
X65930397Y-92037290D01*
X65930393Y-92037289D01*
X65596037Y-91952373D01*
X65596029Y-91952371D01*
X65592570Y-91951493D01*
X65420848Y-91928122D01*
X65246653Y-91904415D01*
X65246646Y-91904414D01*
X65243660Y-91904008D01*
X65128919Y-91899500D01*
X64910802Y-91899500D01*
X64769244Y-91907538D01*
X64652008Y-91914195D01*
X64652001Y-91914196D01*
X64648440Y-91914398D01*
X64510117Y-91938166D01*
X64304918Y-91973425D01*
X64304910Y-91973427D01*
X64301400Y-91974030D01*
X64297975Y-91975028D01*
X64297972Y-91975029D01*
X64084370Y-92037289D01*
X63963341Y-92072566D01*
X63638610Y-92208737D01*
X63560114Y-92252697D01*
X63334498Y-92379047D01*
X63334493Y-92379050D01*
X63331381Y-92380793D01*
X63328485Y-92382878D01*
X63328480Y-92382881D01*
X63196477Y-92477910D01*
X63045605Y-92586523D01*
X63042969Y-92588917D01*
X63042967Y-92588919D01*
X62787595Y-92820882D01*
X62784954Y-92823281D01*
X62782603Y-92825962D01*
X62606670Y-93026575D01*
X62552781Y-93088023D01*
X62550749Y-93090952D01*
X62550746Y-93090956D01*
X62547171Y-93096110D01*
X62352071Y-93377347D01*
X62350380Y-93380494D01*
X62350377Y-93380499D01*
X62244992Y-93576630D01*
X62195130Y-93627170D01*
X62125859Y-93642729D01*
X62059173Y-93618367D01*
X62016244Y-93561819D01*
X62008000Y-93516992D01*
X62008000Y-90054200D01*
X76894908Y-90054200D01*
X76921004Y-90405358D01*
X76986684Y-90751304D01*
X77091104Y-91087592D01*
X77232921Y-91409897D01*
X77410313Y-91714076D01*
X77620999Y-91996219D01*
X77623443Y-91998817D01*
X77623448Y-91998823D01*
X77819615Y-92207354D01*
X77862270Y-92252697D01*
X77864999Y-92255007D01*
X78054652Y-92415560D01*
X78131024Y-92480214D01*
X78133988Y-92482194D01*
X78133990Y-92482196D01*
X78290127Y-92586523D01*
X78423807Y-92675845D01*
X78426989Y-92677484D01*
X78426991Y-92677485D01*
X78733670Y-92835436D01*
X78733675Y-92835438D01*
X78736853Y-92837075D01*
X78740194Y-92838341D01*
X78740199Y-92838343D01*
X78971696Y-92926049D01*
X79066139Y-92961830D01*
X79069603Y-92962710D01*
X79069607Y-92962711D01*
X79403963Y-93047627D01*
X79403971Y-93047629D01*
X79407430Y-93048507D01*
X79579152Y-93071878D01*
X79753347Y-93095585D01*
X79753354Y-93095586D01*
X79756340Y-93095992D01*
X79871081Y-93100500D01*
X80089198Y-93100500D01*
X80230756Y-93092462D01*
X80347992Y-93085805D01*
X80347999Y-93085804D01*
X80351560Y-93085602D01*
X80489883Y-93061834D01*
X80695082Y-93026575D01*
X80695090Y-93026573D01*
X80698600Y-93025970D01*
X80702025Y-93024972D01*
X80702028Y-93024971D01*
X81033221Y-92928436D01*
X81036659Y-92927434D01*
X81361390Y-92791263D01*
X81564556Y-92677485D01*
X81665502Y-92620953D01*
X81665507Y-92620950D01*
X81668619Y-92619207D01*
X81671515Y-92617122D01*
X81671520Y-92617119D01*
X81818239Y-92511496D01*
X81954395Y-92413477D01*
X81990378Y-92380793D01*
X82212405Y-92179118D01*
X82212406Y-92179117D01*
X82215046Y-92176719D01*
X82392800Y-91974030D01*
X82444868Y-91914658D01*
X82444869Y-91914656D01*
X82447219Y-91911977D01*
X82452748Y-91904008D01*
X82586652Y-91710984D01*
X82647929Y-91622653D01*
X82814598Y-91312468D01*
X82945081Y-90985410D01*
X83037701Y-90645683D01*
X83091268Y-90297655D01*
X83100833Y-90054200D01*
X83104952Y-89949370D01*
X83104952Y-89949365D01*
X83105092Y-89945800D01*
X83083114Y-89650052D01*
X83079261Y-89598204D01*
X83079260Y-89598199D01*
X83078996Y-89594642D01*
X83013316Y-89248696D01*
X83003856Y-89218228D01*
X82958633Y-89072587D01*
X82908896Y-88912408D01*
X82767079Y-88590103D01*
X82589687Y-88285924D01*
X82379001Y-88003781D01*
X82376557Y-88001183D01*
X82376552Y-88001177D01*
X82265350Y-87882966D01*
X96668257Y-87882966D01*
X96698565Y-88017446D01*
X96701645Y-88027275D01*
X96781770Y-88224603D01*
X96786413Y-88233794D01*
X96897694Y-88415388D01*
X96903777Y-88423699D01*
X97043213Y-88584667D01*
X97050580Y-88591883D01*
X97214434Y-88727916D01*
X97222881Y-88733831D01*
X97406756Y-88841279D01*
X97416042Y-88845729D01*
X97615001Y-88921703D01*
X97624899Y-88924579D01*
X97728250Y-88945606D01*
X97742299Y-88944410D01*
X97746000Y-88934065D01*
X97746000Y-87887115D01*
X97741525Y-87871876D01*
X97740135Y-87870671D01*
X97732452Y-87869000D01*
X96683225Y-87869000D01*
X96669694Y-87872973D01*
X96668257Y-87882966D01*
X82265350Y-87882966D01*
X82140180Y-87749907D01*
X82140176Y-87749904D01*
X82137730Y-87747303D01*
X81947809Y-87586523D01*
X81871698Y-87522090D01*
X81871694Y-87522087D01*
X81868976Y-87519786D01*
X81576193Y-87324155D01*
X81573009Y-87322515D01*
X81266330Y-87164564D01*
X81266325Y-87164562D01*
X81263147Y-87162925D01*
X81259806Y-87161659D01*
X81259801Y-87161657D01*
X80937205Y-87039437D01*
X80937206Y-87039437D01*
X80933861Y-87038170D01*
X80930397Y-87037290D01*
X80930393Y-87037289D01*
X80596037Y-86952373D01*
X80596029Y-86952371D01*
X80592570Y-86951493D01*
X80420848Y-86928122D01*
X80246653Y-86904415D01*
X80246646Y-86904414D01*
X80243660Y-86904008D01*
X80128919Y-86899500D01*
X79910802Y-86899500D01*
X79769244Y-86907538D01*
X79652008Y-86914195D01*
X79652001Y-86914196D01*
X79648440Y-86914398D01*
X79513126Y-86937649D01*
X79304918Y-86973425D01*
X79304910Y-86973427D01*
X79301400Y-86974030D01*
X79297975Y-86975028D01*
X79297972Y-86975029D01*
X79084370Y-87037289D01*
X78963341Y-87072566D01*
X78638610Y-87208737D01*
X78484996Y-87294765D01*
X78334498Y-87379047D01*
X78334493Y-87379050D01*
X78331381Y-87380793D01*
X78328485Y-87382878D01*
X78328480Y-87382881D01*
X78256558Y-87434658D01*
X78045605Y-87586523D01*
X78042969Y-87588917D01*
X78042967Y-87588919D01*
X77865733Y-87749907D01*
X77784954Y-87823281D01*
X77743394Y-87870671D01*
X77614676Y-88017446D01*
X77552781Y-88088023D01*
X77352071Y-88377347D01*
X77350380Y-88380494D01*
X77350377Y-88380499D01*
X77327165Y-88423699D01*
X77185402Y-88687532D01*
X77054919Y-89014590D01*
X76962299Y-89354317D01*
X76955907Y-89395849D01*
X76911904Y-89681739D01*
X76908732Y-89702345D01*
X76908592Y-89705909D01*
X76897898Y-89978107D01*
X76894908Y-90054200D01*
X62008000Y-90054200D01*
X62008000Y-83347095D01*
X70592001Y-83347095D01*
X70592338Y-83353614D01*
X70602257Y-83449206D01*
X70605149Y-83462600D01*
X70656588Y-83616784D01*
X70662761Y-83629962D01*
X70748063Y-83767807D01*
X70757099Y-83779208D01*
X70871829Y-83893739D01*
X70883240Y-83902751D01*
X71021243Y-83987816D01*
X71034424Y-83993963D01*
X71188710Y-84045138D01*
X71202086Y-84048005D01*
X71296438Y-84057672D01*
X71302854Y-84058000D01*
X71727885Y-84058000D01*
X71743124Y-84053525D01*
X71744329Y-84052135D01*
X71746000Y-84044452D01*
X71746000Y-84039884D01*
X72254000Y-84039884D01*
X72258475Y-84055123D01*
X72259865Y-84056328D01*
X72267548Y-84057999D01*
X72697095Y-84057999D01*
X72703614Y-84057662D01*
X72799206Y-84047743D01*
X72812600Y-84044851D01*
X72966784Y-83993412D01*
X72979962Y-83987239D01*
X73117807Y-83901937D01*
X73129208Y-83892901D01*
X73243739Y-83778171D01*
X73252753Y-83766758D01*
X73270914Y-83737295D01*
X73323686Y-83689802D01*
X73393758Y-83678380D01*
X73458881Y-83706654D01*
X73467191Y-83714239D01*
X73546829Y-83793739D01*
X73558240Y-83802751D01*
X73696243Y-83887816D01*
X73709424Y-83893963D01*
X73863710Y-83945138D01*
X73877086Y-83948005D01*
X73971438Y-83957672D01*
X73977854Y-83958000D01*
X74227885Y-83958000D01*
X74243124Y-83953525D01*
X74244329Y-83952135D01*
X74246000Y-83944452D01*
X74246000Y-83939884D01*
X74754000Y-83939884D01*
X74758475Y-83955123D01*
X74759865Y-83956328D01*
X74767548Y-83957999D01*
X75022095Y-83957999D01*
X75028614Y-83957662D01*
X75124206Y-83947743D01*
X75137600Y-83944851D01*
X75291784Y-83893412D01*
X75304962Y-83887239D01*
X75442807Y-83801937D01*
X75454208Y-83792901D01*
X75568739Y-83678171D01*
X75577751Y-83666760D01*
X75662816Y-83528757D01*
X75668963Y-83515576D01*
X75720138Y-83361290D01*
X75723005Y-83347914D01*
X75732672Y-83253562D01*
X75733000Y-83247146D01*
X75733000Y-83222115D01*
X75728525Y-83206876D01*
X75727135Y-83205671D01*
X75719452Y-83204000D01*
X74772115Y-83204000D01*
X74756876Y-83208475D01*
X74755671Y-83209865D01*
X74754000Y-83217548D01*
X74754000Y-83939884D01*
X74246000Y-83939884D01*
X74246000Y-83222115D01*
X74241525Y-83206876D01*
X74240135Y-83205671D01*
X74232452Y-83204000D01*
X73466115Y-83204000D01*
X73421720Y-83217035D01*
X73411043Y-83223897D01*
X73375548Y-83229000D01*
X72272115Y-83229000D01*
X72256876Y-83233475D01*
X72255671Y-83234865D01*
X72254000Y-83242548D01*
X72254000Y-84039884D01*
X71746000Y-84039884D01*
X71746000Y-83247115D01*
X71741525Y-83231876D01*
X71740135Y-83230671D01*
X71732452Y-83229000D01*
X70610116Y-83229000D01*
X70594877Y-83233475D01*
X70593672Y-83234865D01*
X70592001Y-83242548D01*
X70592001Y-83347095D01*
X62008000Y-83347095D01*
X62008000Y-82702885D01*
X70592000Y-82702885D01*
X70596475Y-82718124D01*
X70597865Y-82719329D01*
X70605548Y-82721000D01*
X71727885Y-82721000D01*
X71743124Y-82716525D01*
X71744329Y-82715135D01*
X71746000Y-82707452D01*
X71746000Y-81910116D01*
X71741525Y-81894877D01*
X71740135Y-81893672D01*
X71732452Y-81892001D01*
X71302905Y-81892001D01*
X71296386Y-81892338D01*
X71200794Y-81902257D01*
X71187400Y-81905149D01*
X71033216Y-81956588D01*
X71020038Y-81962761D01*
X70882193Y-82048063D01*
X70870792Y-82057099D01*
X70756261Y-82171829D01*
X70747249Y-82183240D01*
X70662184Y-82321243D01*
X70656037Y-82334424D01*
X70604862Y-82488710D01*
X70601995Y-82502086D01*
X70592328Y-82596438D01*
X70592000Y-82602855D01*
X70592000Y-82702885D01*
X62008000Y-82702885D01*
X62008000Y-75054200D01*
X68234654Y-75054200D01*
X68234919Y-75057760D01*
X68257022Y-75355186D01*
X68260750Y-75405358D01*
X68326430Y-75751304D01*
X68327488Y-75754713D01*
X68327490Y-75754719D01*
X68343362Y-75805834D01*
X68430850Y-76087592D01*
X68432291Y-76090867D01*
X68532935Y-76319598D01*
X68572667Y-76409897D01*
X68750059Y-76714076D01*
X68960745Y-76996219D01*
X68963189Y-76998817D01*
X68963194Y-76998823D01*
X69199566Y-77250093D01*
X69202016Y-77252697D01*
X69204745Y-77255007D01*
X69403783Y-77423505D01*
X69470770Y-77480214D01*
X69473734Y-77482194D01*
X69473736Y-77482196D01*
X69726003Y-77650755D01*
X69763553Y-77675845D01*
X69766735Y-77677484D01*
X69766737Y-77677485D01*
X70073416Y-77835436D01*
X70073421Y-77835438D01*
X70076599Y-77837075D01*
X70079940Y-77838341D01*
X70079945Y-77838343D01*
X70258595Y-77906027D01*
X70405885Y-77961830D01*
X70409349Y-77962710D01*
X70409353Y-77962711D01*
X70743709Y-78047627D01*
X70743717Y-78047629D01*
X70747176Y-78048507D01*
X70875535Y-78065976D01*
X71093093Y-78095585D01*
X71093100Y-78095586D01*
X71096086Y-78095992D01*
X71210827Y-78100500D01*
X71428944Y-78100500D01*
X71570502Y-78092462D01*
X71687738Y-78085805D01*
X71687745Y-78085804D01*
X71691306Y-78085602D01*
X71832719Y-78061303D01*
X72034828Y-78026575D01*
X72034836Y-78026573D01*
X72038346Y-78025970D01*
X72041771Y-78024972D01*
X72041774Y-78024971D01*
X72372967Y-77928436D01*
X72376405Y-77927434D01*
X72701136Y-77791263D01*
X72904302Y-77677485D01*
X73005248Y-77620953D01*
X73005253Y-77620950D01*
X73008365Y-77619207D01*
X73011261Y-77617122D01*
X73011266Y-77617119D01*
X73158696Y-77510984D01*
X73294141Y-77413477D01*
X73298772Y-77409271D01*
X73552151Y-77179118D01*
X73552152Y-77179117D01*
X73554792Y-77176719D01*
X73786965Y-76911977D01*
X73987675Y-76622653D01*
X74154344Y-76312468D01*
X74284827Y-75985410D01*
X74377447Y-75645683D01*
X74409486Y-75437525D01*
X74430472Y-75301178D01*
X74430472Y-75301174D01*
X74431014Y-75297655D01*
X74440579Y-75054200D01*
X74444698Y-74949370D01*
X74444698Y-74949365D01*
X74444838Y-74945800D01*
X74418742Y-74594642D01*
X74353062Y-74248696D01*
X74350379Y-74240053D01*
X74297985Y-74071319D01*
X74248642Y-73912408D01*
X74194618Y-73789628D01*
X74108268Y-73593382D01*
X74108266Y-73593379D01*
X74106825Y-73590103D01*
X73929433Y-73285924D01*
X73718747Y-73003781D01*
X73716303Y-73001183D01*
X73716298Y-73001177D01*
X73479926Y-72749907D01*
X73479922Y-72749904D01*
X73477476Y-72747303D01*
X73287555Y-72586523D01*
X73211444Y-72522090D01*
X73211440Y-72522087D01*
X73208722Y-72519786D01*
X72915939Y-72324155D01*
X72912755Y-72322515D01*
X72606076Y-72164564D01*
X72606071Y-72164562D01*
X72602893Y-72162925D01*
X72599552Y-72161659D01*
X72599547Y-72161657D01*
X72335062Y-72061453D01*
X72273607Y-72038170D01*
X72270143Y-72037290D01*
X72270139Y-72037289D01*
X71935783Y-71952373D01*
X71935775Y-71952371D01*
X71932316Y-71951493D01*
X71760594Y-71928122D01*
X71586399Y-71904415D01*
X71586392Y-71904414D01*
X71583406Y-71904008D01*
X71468665Y-71899500D01*
X71250548Y-71899500D01*
X71108990Y-71907538D01*
X70991754Y-71914195D01*
X70991747Y-71914196D01*
X70988186Y-71914398D01*
X70849863Y-71938166D01*
X70644664Y-71973425D01*
X70644656Y-71973427D01*
X70641146Y-71974030D01*
X70637721Y-71975028D01*
X70637718Y-71975029D01*
X70424116Y-72037289D01*
X70303087Y-72072566D01*
X69978356Y-72208737D01*
X69910897Y-72246516D01*
X69674244Y-72379047D01*
X69674239Y-72379050D01*
X69671127Y-72380793D01*
X69668231Y-72382878D01*
X69668226Y-72382881D01*
X69521507Y-72488504D01*
X69385351Y-72586523D01*
X69382715Y-72588917D01*
X69382713Y-72588919D01*
X69205479Y-72749907D01*
X69124700Y-72823281D01*
X68892527Y-73088023D01*
X68691817Y-73377347D01*
X68690126Y-73380494D01*
X68690123Y-73380499D01*
X68685892Y-73388374D01*
X68525148Y-73687532D01*
X68394665Y-74014590D01*
X68302045Y-74354317D01*
X68301503Y-74357839D01*
X68250015Y-74692361D01*
X68248478Y-74702345D01*
X68248338Y-74705909D01*
X68238773Y-74949370D01*
X68234654Y-75054200D01*
X62008000Y-75054200D01*
X62008000Y-66490387D01*
X62028002Y-66422266D01*
X62081658Y-66375773D01*
X62151932Y-66365669D01*
X62216512Y-66395163D01*
X62242843Y-66426911D01*
X62275558Y-66483008D01*
X62410313Y-66714076D01*
X62620999Y-66996219D01*
X62623443Y-66998817D01*
X62623448Y-66998823D01*
X62859820Y-67250093D01*
X62862270Y-67252697D01*
X62864999Y-67255007D01*
X63054652Y-67415560D01*
X63131024Y-67480214D01*
X63423807Y-67675845D01*
X63426989Y-67677484D01*
X63426991Y-67677485D01*
X63733670Y-67835436D01*
X63733675Y-67835438D01*
X63736853Y-67837075D01*
X63740194Y-67838341D01*
X63740199Y-67838343D01*
X63971696Y-67926049D01*
X64066139Y-67961830D01*
X64069603Y-67962710D01*
X64069607Y-67962711D01*
X64403963Y-68047627D01*
X64403971Y-68047629D01*
X64407430Y-68048507D01*
X64579152Y-68071878D01*
X64753347Y-68095585D01*
X64753354Y-68095586D01*
X64756340Y-68095992D01*
X64871081Y-68100500D01*
X65089198Y-68100500D01*
X65230756Y-68092462D01*
X65347992Y-68085805D01*
X65347999Y-68085804D01*
X65351560Y-68085602D01*
X65489883Y-68061834D01*
X65695082Y-68026575D01*
X65695090Y-68026573D01*
X65698600Y-68025970D01*
X65702025Y-68024972D01*
X65702028Y-68024971D01*
X66033221Y-67928436D01*
X66036659Y-67927434D01*
X66361390Y-67791263D01*
X66564556Y-67677485D01*
X66665502Y-67620953D01*
X66665507Y-67620950D01*
X66668619Y-67619207D01*
X66671515Y-67617122D01*
X66671520Y-67617119D01*
X66818239Y-67511496D01*
X66954395Y-67413477D01*
X67128858Y-67255007D01*
X67212405Y-67179118D01*
X67212406Y-67179117D01*
X67215046Y-67176719D01*
X67447219Y-66911977D01*
X67647929Y-66622653D01*
X67814598Y-66312468D01*
X67945081Y-65985410D01*
X68037701Y-65645683D01*
X68091268Y-65297655D01*
X68100833Y-65054200D01*
X68104952Y-64949370D01*
X68104952Y-64949365D01*
X68105092Y-64945800D01*
X68086738Y-64698822D01*
X68079261Y-64598204D01*
X68079260Y-64598199D01*
X68078996Y-64594642D01*
X68013316Y-64248696D01*
X67908896Y-63912408D01*
X67767079Y-63590103D01*
X67589687Y-63285924D01*
X67379001Y-63003781D01*
X67376557Y-63001183D01*
X67376552Y-63001177D01*
X67140180Y-62749907D01*
X67140176Y-62749904D01*
X67137730Y-62747303D01*
X66947809Y-62586523D01*
X66871698Y-62522090D01*
X66871694Y-62522087D01*
X66868976Y-62519786D01*
X66576193Y-62324155D01*
X66424476Y-62246016D01*
X66373075Y-62197043D01*
X66356309Y-62128055D01*
X66379503Y-62060953D01*
X66435293Y-62017044D01*
X66482169Y-62008000D01*
X93514193Y-62008000D01*
X93582314Y-62028002D01*
G37*
%TD.AperFunction*%
%TA.AperFunction,Conductor*%
G36*
X87241675Y-72028502D02*
G01*
X87288168Y-72082158D01*
X87298272Y-72152432D01*
X87268778Y-72217012D01*
X87235120Y-72244435D01*
X86994752Y-72379047D01*
X86994747Y-72379050D01*
X86991635Y-72380793D01*
X86988739Y-72382878D01*
X86988734Y-72382881D01*
X86842015Y-72488504D01*
X86705859Y-72586523D01*
X86703223Y-72588917D01*
X86703221Y-72588919D01*
X86525987Y-72749907D01*
X86445208Y-72823281D01*
X86213035Y-73088023D01*
X86012325Y-73377347D01*
X86010634Y-73380494D01*
X86010631Y-73380499D01*
X86006400Y-73388374D01*
X85845656Y-73687532D01*
X85715173Y-74014590D01*
X85622553Y-74354317D01*
X85622011Y-74357839D01*
X85570523Y-74692361D01*
X85568986Y-74702345D01*
X85568846Y-74705909D01*
X85559281Y-74949370D01*
X85555162Y-75054200D01*
X85555427Y-75057760D01*
X85577530Y-75355186D01*
X85581258Y-75405358D01*
X85646938Y-75751304D01*
X85647996Y-75754713D01*
X85647998Y-75754719D01*
X85663870Y-75805834D01*
X85751358Y-76087592D01*
X85752799Y-76090867D01*
X85853443Y-76319598D01*
X85893175Y-76409897D01*
X86070567Y-76714076D01*
X86281253Y-76996219D01*
X86283697Y-76998817D01*
X86283702Y-76998823D01*
X86520074Y-77250093D01*
X86522524Y-77252697D01*
X86525253Y-77255007D01*
X86724291Y-77423505D01*
X86791278Y-77480214D01*
X86794242Y-77482194D01*
X86794244Y-77482196D01*
X87046511Y-77650755D01*
X87084061Y-77675845D01*
X87087243Y-77677484D01*
X87087245Y-77677485D01*
X87234806Y-77753484D01*
X87286208Y-77802457D01*
X87302974Y-77871446D01*
X87279779Y-77938547D01*
X87223990Y-77982456D01*
X87177114Y-77991500D01*
X84950231Y-77991500D01*
X84947175Y-77991800D01*
X84947168Y-77991800D01*
X84888660Y-77997537D01*
X84803167Y-78005920D01*
X84797266Y-78007702D01*
X84797264Y-78007702D01*
X84740067Y-78024971D01*
X84613831Y-78063084D01*
X84439204Y-78155934D01*
X84340323Y-78236580D01*
X84314136Y-78257937D01*
X84248704Y-78285491D01*
X84178763Y-78273296D01*
X84126518Y-78225223D01*
X84108500Y-78160295D01*
X84108499Y-77914239D01*
X84108499Y-77910116D01*
X84103409Y-77871446D01*
X84093916Y-77799337D01*
X84093916Y-77799335D01*
X84092838Y-77791150D01*
X84045757Y-77677485D01*
X84034684Y-77650752D01*
X84034683Y-77650750D01*
X84031524Y-77643124D01*
X84004749Y-77608230D01*
X83939014Y-77522564D01*
X83939013Y-77522563D01*
X83933987Y-77516013D01*
X83927436Y-77510986D01*
X83927434Y-77510984D01*
X83870431Y-77467245D01*
X83806875Y-77418476D01*
X83658850Y-77357162D01*
X83650662Y-77356084D01*
X83543972Y-77342038D01*
X83543971Y-77342038D01*
X83539885Y-77341500D01*
X82862583Y-77341500D01*
X82185116Y-77341501D01*
X82181031Y-77342039D01*
X82181027Y-77342039D01*
X82074337Y-77356084D01*
X82074335Y-77356084D01*
X82066150Y-77357162D01*
X81992137Y-77387819D01*
X81925752Y-77415316D01*
X81925750Y-77415317D01*
X81918124Y-77418476D01*
X81911574Y-77423502D01*
X81835084Y-77482196D01*
X81791013Y-77516013D01*
X81785987Y-77522563D01*
X81785984Y-77522566D01*
X81742244Y-77579569D01*
X81693476Y-77643125D01*
X81632162Y-77791150D01*
X81616500Y-77910115D01*
X81616501Y-78189884D01*
X81617039Y-78193969D01*
X81617039Y-78193973D01*
X81628487Y-78280935D01*
X81632162Y-78308850D01*
X81635322Y-78316478D01*
X81639589Y-78326780D01*
X81647179Y-78397370D01*
X81639590Y-78423218D01*
X81632162Y-78441150D01*
X81616500Y-78560115D01*
X81616501Y-78839884D01*
X81632162Y-78958850D01*
X81635322Y-78966478D01*
X81639860Y-78977434D01*
X81647450Y-79048023D01*
X81639860Y-79073874D01*
X81635811Y-79083649D01*
X81631572Y-79099469D01*
X81627284Y-79132040D01*
X81629495Y-79146222D01*
X81642652Y-79150000D01*
X81664431Y-79150000D01*
X81732552Y-79170002D01*
X81764391Y-79199294D01*
X81791013Y-79233987D01*
X81797562Y-79239012D01*
X81811932Y-79250039D01*
X81853798Y-79307378D01*
X81858018Y-79378249D01*
X81823253Y-79440152D01*
X81811930Y-79449962D01*
X81797567Y-79460983D01*
X81797563Y-79460987D01*
X81791013Y-79466013D01*
X81785987Y-79472563D01*
X81764393Y-79500705D01*
X81707054Y-79542572D01*
X81664431Y-79550000D01*
X81643035Y-79550000D01*
X81629264Y-79554044D01*
X81627235Y-79567583D01*
X81631572Y-79600533D01*
X81635810Y-79616348D01*
X81639860Y-79626126D01*
X81647450Y-79696715D01*
X81639861Y-79722564D01*
X81632162Y-79741150D01*
X81616500Y-79860115D01*
X81616501Y-80139884D01*
X81632162Y-80258850D01*
X81635322Y-80266478D01*
X81639589Y-80276780D01*
X81647179Y-80347370D01*
X81639590Y-80373218D01*
X81632162Y-80391150D01*
X81631084Y-80399338D01*
X81618252Y-80496811D01*
X81616500Y-80510115D01*
X81616501Y-80789884D01*
X81617039Y-80793969D01*
X81617039Y-80793973D01*
X81620218Y-80818120D01*
X81632162Y-80908850D01*
X81635322Y-80916478D01*
X81639589Y-80926780D01*
X81647179Y-80997370D01*
X81639590Y-81023218D01*
X81632162Y-81041150D01*
X81616500Y-81160115D01*
X81616501Y-81439884D01*
X81617039Y-81443969D01*
X81617039Y-81443973D01*
X81629278Y-81536944D01*
X81632162Y-81558850D01*
X81635322Y-81566478D01*
X81639589Y-81576780D01*
X81647179Y-81647370D01*
X81639590Y-81673218D01*
X81638163Y-81676661D01*
X81635322Y-81683520D01*
X81635321Y-81683523D01*
X81632162Y-81691150D01*
X81631084Y-81699337D01*
X81631084Y-81699338D01*
X81618648Y-81793803D01*
X81616500Y-81810115D01*
X81616501Y-82089884D01*
X81617039Y-82093969D01*
X81617039Y-82093973D01*
X81629868Y-82191423D01*
X81632162Y-82208850D01*
X81693476Y-82356876D01*
X81791013Y-82483987D01*
X81797563Y-82489013D01*
X81797566Y-82489016D01*
X81854569Y-82532756D01*
X81918125Y-82581524D01*
X82066150Y-82642838D01*
X82074338Y-82643916D01*
X82142617Y-82652905D01*
X82185115Y-82658500D01*
X82237092Y-82658500D01*
X83401200Y-82658499D01*
X83469321Y-82678501D01*
X83515814Y-82732157D01*
X83522196Y-82749344D01*
X83559091Y-82876336D01*
X83650108Y-83051926D01*
X83746738Y-83172973D01*
X84149939Y-83576173D01*
X84425170Y-83851404D01*
X84459195Y-83913717D01*
X84454131Y-83984532D01*
X84411584Y-84041368D01*
X84345064Y-84066179D01*
X84336075Y-84066500D01*
X80044925Y-84066500D01*
X79976804Y-84046498D01*
X79955830Y-84029595D01*
X79158111Y-83231876D01*
X78359198Y-82432964D01*
X78325173Y-82370652D01*
X78331884Y-82295651D01*
X78364678Y-82216480D01*
X78364679Y-82216477D01*
X78367838Y-82208850D01*
X78383500Y-82089885D01*
X78383499Y-81810116D01*
X78379472Y-81779521D01*
X78368916Y-81699337D01*
X78368916Y-81699335D01*
X78367838Y-81691150D01*
X78360140Y-81672565D01*
X78352550Y-81601977D01*
X78360140Y-81576126D01*
X78364190Y-81566350D01*
X78368428Y-81550532D01*
X78382578Y-81443053D01*
X78411301Y-81378126D01*
X78470566Y-81339035D01*
X78507500Y-81333500D01*
X78570755Y-81333500D01*
X78638876Y-81353502D01*
X78679874Y-81396500D01*
X78757658Y-81531226D01*
X78757661Y-81531231D01*
X78760960Y-81536944D01*
X78765378Y-81541851D01*
X78765379Y-81541852D01*
X78844906Y-81630176D01*
X78888747Y-81678866D01*
X79043248Y-81791118D01*
X79049276Y-81793802D01*
X79049278Y-81793803D01*
X79211681Y-81866109D01*
X79217712Y-81868794D01*
X79311113Y-81888647D01*
X79398056Y-81907128D01*
X79398061Y-81907128D01*
X79404513Y-81908500D01*
X79595487Y-81908500D01*
X79601939Y-81907128D01*
X79601944Y-81907128D01*
X79688887Y-81888647D01*
X79782288Y-81868794D01*
X79788319Y-81866109D01*
X79950722Y-81793803D01*
X79950724Y-81793802D01*
X79956752Y-81791118D01*
X80111253Y-81678866D01*
X80155094Y-81630176D01*
X80234621Y-81541852D01*
X80234622Y-81541851D01*
X80239040Y-81536944D01*
X80334527Y-81371556D01*
X80393542Y-81189928D01*
X80396676Y-81160115D01*
X80412814Y-81006565D01*
X80413504Y-81000000D01*
X80395586Y-80829521D01*
X80394232Y-80816635D01*
X80394232Y-80816633D01*
X80393542Y-80810072D01*
X80334527Y-80628444D01*
X80308874Y-80584013D01*
X80292137Y-80515019D01*
X80315357Y-80447927D01*
X80321473Y-80440022D01*
X80332195Y-80427244D01*
X80336154Y-80422526D01*
X80431433Y-80249213D01*
X80491235Y-80060694D01*
X80508500Y-79906773D01*
X80508500Y-76469925D01*
X80528502Y-76401804D01*
X80545405Y-76380830D01*
X84880829Y-72045405D01*
X84943141Y-72011379D01*
X84969924Y-72008500D01*
X87173554Y-72008500D01*
X87241675Y-72028502D01*
G37*
%TD.AperFunction*%
%TA.AperFunction,Conductor*%
G36*
X91098196Y-72028502D02*
G01*
X91119170Y-72045405D01*
X92118145Y-73044379D01*
X92127247Y-73054522D01*
X92150968Y-73084025D01*
X92155696Y-73087992D01*
X92189421Y-73116291D01*
X92193069Y-73119472D01*
X92194881Y-73121115D01*
X92197075Y-73123309D01*
X92230349Y-73150642D01*
X92231147Y-73151304D01*
X92302474Y-73211154D01*
X92307144Y-73213722D01*
X92311261Y-73217103D01*
X92393120Y-73260995D01*
X92394280Y-73261624D01*
X92470389Y-73303466D01*
X92470394Y-73303468D01*
X92475787Y-73306433D01*
X92480865Y-73308044D01*
X92485563Y-73310563D01*
X92574498Y-73337753D01*
X92575702Y-73338128D01*
X92664306Y-73366235D01*
X92669597Y-73366828D01*
X92674698Y-73368388D01*
X92767311Y-73377795D01*
X92768431Y-73377915D01*
X92818227Y-73383500D01*
X92821756Y-73383500D01*
X92822739Y-73383555D01*
X92828426Y-73384003D01*
X92848683Y-73386060D01*
X92865336Y-73387752D01*
X92865339Y-73387752D01*
X92871463Y-73388374D01*
X92917112Y-73384059D01*
X92928969Y-73383500D01*
X96578991Y-73383500D01*
X96647112Y-73403502D01*
X96693605Y-73457158D01*
X96695903Y-73462694D01*
X96696232Y-73463296D01*
X96699385Y-73471705D01*
X96786739Y-73588261D01*
X96793919Y-73593642D01*
X96903295Y-73675615D01*
X96902429Y-73676771D01*
X96945798Y-73720237D01*
X96960813Y-73789628D01*
X96935929Y-73856120D01*
X96879046Y-73898604D01*
X96835144Y-73906500D01*
X96646840Y-73906500D01*
X96633232Y-73905763D01*
X96601736Y-73902341D01*
X96601732Y-73902341D01*
X96595611Y-73901676D01*
X96577611Y-73903251D01*
X96545609Y-73906050D01*
X96540784Y-73906379D01*
X96538313Y-73906500D01*
X96535231Y-73906500D01*
X96512763Y-73908703D01*
X96492489Y-73910691D01*
X96491174Y-73910813D01*
X96458913Y-73913636D01*
X96398587Y-73918913D01*
X96393468Y-73920400D01*
X96388167Y-73920920D01*
X96299194Y-73947782D01*
X96298054Y-73948120D01*
X96208663Y-73974091D01*
X96203929Y-73976545D01*
X96198831Y-73978084D01*
X96193387Y-73980978D01*
X96193386Y-73980979D01*
X96116831Y-74021684D01*
X96115663Y-74022298D01*
X96033074Y-74065108D01*
X96028911Y-74068431D01*
X96024204Y-74070934D01*
X96019430Y-74074828D01*
X96019428Y-74074829D01*
X95952105Y-74129737D01*
X95951160Y-74130500D01*
X95912027Y-74161739D01*
X95909536Y-74164230D01*
X95908809Y-74164880D01*
X95904463Y-74168592D01*
X95885588Y-74183987D01*
X95870938Y-74195935D01*
X95867015Y-74200677D01*
X95867013Y-74200679D01*
X95841703Y-74231273D01*
X95833713Y-74240053D01*
X92119171Y-77954595D01*
X92056859Y-77988621D01*
X92030076Y-77991500D01*
X90146954Y-77991500D01*
X90078833Y-77971498D01*
X90032340Y-77917842D01*
X90022236Y-77847568D01*
X90051730Y-77782988D01*
X90085388Y-77755565D01*
X90325756Y-77620953D01*
X90325761Y-77620950D01*
X90328873Y-77619207D01*
X90331769Y-77617122D01*
X90331774Y-77617119D01*
X90479204Y-77510984D01*
X90614649Y-77413477D01*
X90619280Y-77409271D01*
X90872659Y-77179118D01*
X90872660Y-77179117D01*
X90875300Y-77176719D01*
X91107473Y-76911977D01*
X91308183Y-76622653D01*
X91474852Y-76312468D01*
X91605335Y-75985410D01*
X91697955Y-75645683D01*
X91729994Y-75437525D01*
X91750980Y-75301178D01*
X91750980Y-75301174D01*
X91751522Y-75297655D01*
X91761087Y-75054200D01*
X91765206Y-74949370D01*
X91765206Y-74949365D01*
X91765346Y-74945800D01*
X91739250Y-74594642D01*
X91673570Y-74248696D01*
X91670887Y-74240053D01*
X91618493Y-74071319D01*
X91569150Y-73912408D01*
X91515126Y-73789628D01*
X91428776Y-73593382D01*
X91428774Y-73593379D01*
X91427333Y-73590103D01*
X91249941Y-73285924D01*
X91039255Y-73003781D01*
X91036811Y-73001183D01*
X91036806Y-73001177D01*
X90800434Y-72749907D01*
X90800430Y-72749904D01*
X90797984Y-72747303D01*
X90608063Y-72586523D01*
X90531952Y-72522090D01*
X90531948Y-72522087D01*
X90529230Y-72519786D01*
X90236447Y-72324155D01*
X90085702Y-72246516D01*
X90034300Y-72197543D01*
X90017534Y-72128554D01*
X90040729Y-72061453D01*
X90096518Y-72017544D01*
X90143394Y-72008500D01*
X91030075Y-72008500D01*
X91098196Y-72028502D01*
G37*
%TD.AperFunction*%
%TD*%
M02*
