%TF.GenerationSoftware,KiCad,Pcbnew,7.0.1*%
%TF.CreationDate,2023-06-05T17:33:29-04:00*%
%TF.ProjectId,elevation-imu,656c6576-6174-4696-9f6e-2d696d752e6b,rev?*%
%TF.SameCoordinates,Original*%
%TF.FileFunction,Copper,L1,Top*%
%TF.FilePolarity,Positive*%
%FSLAX46Y46*%
G04 Gerber Fmt 4.6, Leading zero omitted, Abs format (unit mm)*
G04 Created by KiCad (PCBNEW 7.0.1) date 2023-06-05 17:33:29*
%MOMM*%
%LPD*%
G01*
G04 APERTURE LIST*
G04 Aperture macros list*
%AMRoundRect*
0 Rectangle with rounded corners*
0 $1 Rounding radius*
0 $2 $3 $4 $5 $6 $7 $8 $9 X,Y pos of 4 corners*
0 Add a 4 corners polygon primitive as box body*
4,1,4,$2,$3,$4,$5,$6,$7,$8,$9,$2,$3,0*
0 Add four circle primitives for the rounded corners*
1,1,$1+$1,$2,$3*
1,1,$1+$1,$4,$5*
1,1,$1+$1,$6,$7*
1,1,$1+$1,$8,$9*
0 Add four rect primitives between the rounded corners*
20,1,$1+$1,$2,$3,$4,$5,0*
20,1,$1+$1,$4,$5,$6,$7,0*
20,1,$1+$1,$6,$7,$8,$9,0*
20,1,$1+$1,$8,$9,$2,$3,0*%
G04 Aperture macros list end*
%TA.AperFunction,ComponentPad*%
%ADD10C,1.000000*%
%TD*%
%TA.AperFunction,SMDPad,CuDef*%
%ADD11R,5.080000X2.032000*%
%TD*%
%TA.AperFunction,SMDPad,CuDef*%
%ADD12R,1.000000X1.500000*%
%TD*%
%TA.AperFunction,SMDPad,CuDef*%
%ADD13RoundRect,0.250000X0.325000X0.650000X-0.325000X0.650000X-0.325000X-0.650000X0.325000X-0.650000X0*%
%TD*%
%TA.AperFunction,SMDPad,CuDef*%
%ADD14RoundRect,0.200000X-0.200000X-0.275000X0.200000X-0.275000X0.200000X0.275000X-0.200000X0.275000X0*%
%TD*%
%TA.AperFunction,SMDPad,CuDef*%
%ADD15RoundRect,0.200000X0.275000X-0.200000X0.275000X0.200000X-0.275000X0.200000X-0.275000X-0.200000X0*%
%TD*%
%TA.AperFunction,SMDPad,CuDef*%
%ADD16R,0.700000X0.450000*%
%TD*%
%TA.AperFunction,SMDPad,CuDef*%
%ADD17R,0.675000X0.250000*%
%TD*%
%TA.AperFunction,SMDPad,CuDef*%
%ADD18R,0.250000X0.675000*%
%TD*%
%TA.AperFunction,SMDPad,CuDef*%
%ADD19RoundRect,0.100000X-0.100000X0.637500X-0.100000X-0.637500X0.100000X-0.637500X0.100000X0.637500X0*%
%TD*%
%TA.AperFunction,SMDPad,CuDef*%
%ADD20RoundRect,0.225000X-0.225000X-0.250000X0.225000X-0.250000X0.225000X0.250000X-0.225000X0.250000X0*%
%TD*%
%TA.AperFunction,SMDPad,CuDef*%
%ADD21R,0.450000X0.700000*%
%TD*%
%TA.AperFunction,SMDPad,CuDef*%
%ADD22RoundRect,0.225000X0.250000X-0.225000X0.250000X0.225000X-0.250000X0.225000X-0.250000X-0.225000X0*%
%TD*%
%TA.AperFunction,SMDPad,CuDef*%
%ADD23RoundRect,0.200000X0.200000X0.275000X-0.200000X0.275000X-0.200000X-0.275000X0.200000X-0.275000X0*%
%TD*%
%TA.AperFunction,SMDPad,CuDef*%
%ADD24RoundRect,0.225000X-0.250000X0.225000X-0.250000X-0.225000X0.250000X-0.225000X0.250000X0.225000X0*%
%TD*%
%TA.AperFunction,SMDPad,CuDef*%
%ADD25RoundRect,0.200000X-0.275000X0.200000X-0.275000X-0.200000X0.275000X-0.200000X0.275000X0.200000X0*%
%TD*%
%TA.AperFunction,SMDPad,CuDef*%
%ADD26RoundRect,0.150000X0.150000X-0.512500X0.150000X0.512500X-0.150000X0.512500X-0.150000X-0.512500X0*%
%TD*%
%TA.AperFunction,SMDPad,CuDef*%
%ADD27RoundRect,0.250000X-0.650000X0.325000X-0.650000X-0.325000X0.650000X-0.325000X0.650000X0.325000X0*%
%TD*%
%TA.AperFunction,ViaPad*%
%ADD28C,0.600000*%
%TD*%
%TA.AperFunction,ViaPad*%
%ADD29C,0.800000*%
%TD*%
%TA.AperFunction,Conductor*%
%ADD30C,0.254000*%
%TD*%
%TA.AperFunction,Conductor*%
%ADD31C,0.250000*%
%TD*%
G04 APERTURE END LIST*
%TA.AperFunction,EtchedComponent*%
%TO.C,JP1*%
G36*
X117900000Y-122300000D02*
G01*
X117400000Y-122300000D01*
X117400000Y-121700000D01*
X117900000Y-121700000D01*
X117900000Y-122300000D01*
G37*
%TD.AperFunction*%
%TD*%
D10*
%TO.P,TP9,1,1*%
%TO.N,/SDO*%
X107000000Y-116800000D03*
%TD*%
%TO.P,TP8,1,1*%
%TO.N,GND*%
X138000000Y-120600000D03*
%TD*%
D11*
%TO.P,J1,1,Pin_1*%
%TO.N,+5V*%
X141875000Y-112190000D03*
%TO.P,J1,3,Pin_3*%
%TO.N,/INT_OUT*%
X141875000Y-114730000D03*
%TO.P,J1,5,Pin_5*%
%TO.N,GND*%
X141875000Y-117270000D03*
%TO.P,J1,7,Pin_7*%
X141875000Y-119810000D03*
%TD*%
D10*
%TO.P,TP7,1,1*%
%TO.N,/SDO_OUT*%
X137600000Y-118600000D03*
%TD*%
%TO.P,TP6,1,1*%
%TO.N,/CLK_IN*%
X138200000Y-116400000D03*
%TD*%
%TO.P,TP5,1,1*%
%TO.N,/~{CS}*%
X108800000Y-115600000D03*
%TD*%
%TO.P,TP4,1,1*%
%TO.N,/~{CS}_IN*%
X138200000Y-114200000D03*
%TD*%
%TO.P,TP3,1,1*%
%TO.N,/SCL*%
X106000000Y-115000000D03*
%TD*%
%TO.P,TP2,1,1*%
%TO.N,/SDI_IN*%
X138200000Y-112000000D03*
%TD*%
%TO.P,TP1,1,1*%
%TO.N,/SDI*%
X110400000Y-116800000D03*
%TD*%
D12*
%TO.P,JP1,1,A*%
%TO.N,Net-(JP1-A)*%
X118300000Y-122000000D03*
%TO.P,JP1,2,C*%
%TO.N,/INT*%
X117000000Y-122000000D03*
%TO.P,JP1,3,B*%
%TO.N,Net-(JP1-B)*%
X115700000Y-122000000D03*
%TD*%
D13*
%TO.P,C2,1*%
%TO.N,+3V3*%
X120475000Y-113500000D03*
%TO.P,C2,2*%
%TO.N,GND*%
X117525000Y-113500000D03*
%TD*%
D14*
%TO.P,R5,1*%
%TO.N,+3V3*%
X112175000Y-118500000D03*
%TO.P,R5,2*%
%TO.N,/~{CS}*%
X113825000Y-118500000D03*
%TD*%
D15*
%TO.P,R3,1*%
%TO.N,+3V3*%
X118400000Y-110825000D03*
%TO.P,R3,2*%
%TO.N,/SCL*%
X118400000Y-109175000D03*
%TD*%
D16*
%TO.P,Q1,1,G*%
%TO.N,+3V3*%
X124050000Y-109300000D03*
%TO.P,Q1,2,S*%
%TO.N,/SDI*%
X124050000Y-110600000D03*
%TO.P,Q1,3,D*%
%TO.N,/SDI_HV*%
X126050000Y-109950000D03*
%TD*%
D15*
%TO.P,R4,1*%
%TO.N,+5V*%
X113400000Y-110825000D03*
%TO.P,R4,2*%
%TO.N,/CLK_HV*%
X113400000Y-109175000D03*
%TD*%
D17*
%TO.P,U1,1,SDO/SA0*%
%TO.N,/SDO*%
X120262500Y-117250000D03*
%TO.P,U1,2,SDx*%
%TO.N,GND*%
X120262500Y-116750000D03*
%TO.P,U1,3,SCx*%
X120262500Y-116250000D03*
%TO.P,U1,4,INT1*%
%TO.N,Net-(JP1-A)*%
X120262500Y-115750000D03*
D18*
%TO.P,U1,5,VDDIO*%
%TO.N,+3V3*%
X119500000Y-115487500D03*
%TO.P,U1,6,GND*%
%TO.N,GND*%
X119000000Y-115487500D03*
%TO.P,U1,7,GND*%
X118500000Y-115487500D03*
D17*
%TO.P,U1,8,VDD*%
%TO.N,+3V3*%
X117737500Y-115750000D03*
%TO.P,U1,9,INT2*%
%TO.N,Net-(JP1-B)*%
X117737500Y-116250000D03*
%TO.P,U1,10,NC*%
%TO.N,unconnected-(U1-NC-Pad10)*%
X117737500Y-116750000D03*
%TO.P,U1,11,NC*%
%TO.N,unconnected-(U1-NC-Pad11)*%
X117737500Y-117250000D03*
D18*
%TO.P,U1,12,CS*%
%TO.N,/~{CS}*%
X118500000Y-117512500D03*
%TO.P,U1,13,SCL*%
%TO.N,/SCL*%
X119000000Y-117512500D03*
%TO.P,U1,14,SDI*%
%TO.N,/SDI*%
X119500000Y-117512500D03*
%TD*%
D19*
%TO.P,U2,1,G1*%
%TO.N,GND*%
X127925000Y-112637500D03*
%TO.P,U2,2,A0*%
%TO.N,/INT*%
X127275000Y-112637500D03*
%TO.P,U2,3,A1*%
%TO.N,/SDI_IN*%
X126625000Y-112637500D03*
%TO.P,U2,4,A2*%
%TO.N,/CLK_IN*%
X125975000Y-112637500D03*
%TO.P,U2,5,A3*%
%TO.N,/~{CS}_IN*%
X125325000Y-112637500D03*
%TO.P,U2,6,A4*%
%TO.N,/SDO*%
X124675000Y-112637500D03*
%TO.P,U2,7,A5*%
%TO.N,GND*%
X124025000Y-112637500D03*
%TO.P,U2,8,A6*%
X123375000Y-112637500D03*
%TO.P,U2,9,A7*%
X122725000Y-112637500D03*
%TO.P,U2,10,GND*%
X122075000Y-112637500D03*
%TO.P,U2,11,Y7*%
%TO.N,unconnected-(U2-Y7-Pad11)*%
X122075000Y-118362500D03*
%TO.P,U2,12,Y6*%
%TO.N,unconnected-(U2-Y6-Pad12)*%
X122725000Y-118362500D03*
%TO.P,U2,13,Y5*%
%TO.N,unconnected-(U2-Y5-Pad13)*%
X123375000Y-118362500D03*
%TO.P,U2,14,Y4*%
%TO.N,/SDO_OUT*%
X124025000Y-118362500D03*
%TO.P,U2,15,Y3*%
%TO.N,/~{CS}_HV*%
X124675000Y-118362500D03*
%TO.P,U2,16,Y2*%
%TO.N,/CLK_HV*%
X125325000Y-118362500D03*
%TO.P,U2,17,Y1*%
%TO.N,/SDI_HV*%
X125975000Y-118362500D03*
%TO.P,U2,18,Y0*%
%TO.N,/INT_OUT*%
X126625000Y-118362500D03*
%TO.P,U2,19,G2*%
%TO.N,GND*%
X127275000Y-118362500D03*
%TO.P,U2,20,VCC*%
%TO.N,+5V*%
X127925000Y-118362500D03*
%TD*%
D20*
%TO.P,C5,1*%
%TO.N,+5V*%
X127225000Y-122500000D03*
%TO.P,C5,2*%
%TO.N,GND*%
X128775000Y-122500000D03*
%TD*%
D21*
%TO.P,Q3,1,G*%
%TO.N,+3V3*%
X112350000Y-117000000D03*
%TO.P,Q3,2,S*%
%TO.N,/~{CS}*%
X113650000Y-117000000D03*
%TO.P,Q3,3,D*%
%TO.N,/~{CS}_HV*%
X113000000Y-115000000D03*
%TD*%
D13*
%TO.P,C3,1*%
%TO.N,+5V*%
X134475000Y-116000000D03*
%TO.P,C3,2*%
%TO.N,GND*%
X131525000Y-116000000D03*
%TD*%
D22*
%TO.P,C4,1*%
%TO.N,+5V*%
X129500000Y-118775000D03*
%TO.P,C4,2*%
%TO.N,GND*%
X129500000Y-117225000D03*
%TD*%
D23*
%TO.P,R6,1*%
%TO.N,+5V*%
X114325000Y-113000000D03*
%TO.P,R6,2*%
%TO.N,/~{CS}_HV*%
X112675000Y-113000000D03*
%TD*%
D24*
%TO.P,C7,1*%
%TO.N,+3V3*%
X122000000Y-121725000D03*
%TO.P,C7,2*%
%TO.N,GND*%
X122000000Y-123275000D03*
%TD*%
D25*
%TO.P,R2,1*%
%TO.N,+5V*%
X127550000Y-109125000D03*
%TO.P,R2,2*%
%TO.N,/SDI_HV*%
X127550000Y-110775000D03*
%TD*%
%TO.P,R1,1*%
%TO.N,+3V3*%
X122550000Y-109125000D03*
%TO.P,R1,2*%
%TO.N,/SDI*%
X122550000Y-110775000D03*
%TD*%
D16*
%TO.P,Q2,1,G*%
%TO.N,+3V3*%
X116900000Y-110650000D03*
%TO.P,Q2,2,S*%
%TO.N,/SCL*%
X116900000Y-109350000D03*
%TO.P,Q2,3,D*%
%TO.N,/CLK_HV*%
X114900000Y-110000000D03*
%TD*%
D26*
%TO.P,U3,1,VIN*%
%TO.N,+5V*%
X123550000Y-122637500D03*
%TO.P,U3,2,GND*%
%TO.N,GND*%
X124500000Y-122637500D03*
%TO.P,U3,3,ON/~{OFF}*%
%TO.N,+5V*%
X125450000Y-122637500D03*
%TO.P,U3,4,BP*%
%TO.N,Net-(U3-BP)*%
X125450000Y-120362500D03*
%TO.P,U3,5,VOUT*%
%TO.N,+3V3*%
X123550000Y-120362500D03*
%TD*%
D27*
%TO.P,C1,1*%
%TO.N,+3V3*%
X116000000Y-115525000D03*
%TO.P,C1,2*%
%TO.N,GND*%
X116000000Y-118475000D03*
%TD*%
D20*
%TO.P,C6,1*%
%TO.N,Net-(U3-BP)*%
X127225000Y-121000000D03*
%TO.P,C6,2*%
%TO.N,GND*%
X128775000Y-121000000D03*
%TD*%
D28*
%TO.N,GND*%
X111200000Y-113800000D03*
X110800000Y-109400000D03*
X116000000Y-118800000D03*
%TO.N,/SCL*%
X120000000Y-110600000D03*
%TO.N,/SDO*%
X122000000Y-116600000D03*
%TO.N,+3V3*%
X119200000Y-120600000D03*
%TO.N,/~{CS}*%
X113800000Y-116200000D03*
%TO.N,/INT_OUT*%
X136029447Y-116120890D03*
X128674876Y-116319753D03*
%TO.N,/CLK_IN*%
X126000000Y-114400000D03*
%TO.N,/SDI_IN*%
X126624500Y-111473474D03*
D29*
%TO.N,GND*%
X136200000Y-118000000D03*
D28*
%TO.N,+3V3*%
X119500000Y-113000000D03*
X116000000Y-114500000D03*
%TO.N,GND*%
X127845169Y-115274001D03*
X122750000Y-114000000D03*
X122750000Y-123000000D03*
X130000000Y-109500000D03*
X113887018Y-121998987D03*
X124250000Y-111324502D03*
X129868541Y-116123502D03*
X116750000Y-113000000D03*
X128200000Y-121750000D03*
X122618003Y-120868003D03*
X116500000Y-117500000D03*
%TO.N,+5V*%
X114150000Y-111650000D03*
X126000000Y-108500000D03*
%TO.N,/SDO_OUT*%
X124500000Y-119750000D03*
%TO.N,/~{CS}_IN*%
X126049001Y-110849001D03*
%TO.N,Net-(JP1-A)*%
X119600000Y-122600000D03*
X123214221Y-116123499D03*
%TO.N,/INT*%
X126000000Y-115653000D03*
X117000000Y-122000000D03*
%TO.N,Net-(JP1-B)*%
X114686115Y-122024461D03*
X115207346Y-117244661D03*
%TO.N,/SDI*%
X121384434Y-111701571D03*
X120606246Y-118104906D03*
%TO.N,/SCL*%
X119958462Y-118573500D03*
%TO.N,/CLK_HV*%
X124750000Y-114750000D03*
X117400000Y-111800000D03*
%TD*%
D30*
%TO.N,/~{CS}*%
X114751500Y-119426500D02*
X113825000Y-118500000D01*
%TO.N,GND*%
X116000000Y-118475000D02*
X116000000Y-118800000D01*
%TO.N,/~{CS}*%
X117773500Y-119426500D02*
X114751500Y-119426500D01*
X118500000Y-118700000D02*
X117773500Y-119426500D01*
X118500000Y-117512500D02*
X118500000Y-118700000D01*
%TO.N,/SDI*%
X117800000Y-120219894D02*
X112674603Y-120219894D01*
X117800000Y-120200000D02*
X117800000Y-120219894D01*
X120286712Y-119200000D02*
X118800000Y-119200000D01*
X120606246Y-118880466D02*
X120286712Y-119200000D01*
X120606246Y-118104906D02*
X120606246Y-118880466D01*
%TO.N,/~{CS}_HV*%
X124301670Y-117298480D02*
X124675000Y-117671810D01*
X121797651Y-117298480D02*
X124301670Y-117298480D01*
X124675000Y-117671810D02*
X124675000Y-118362500D01*
X121548000Y-117548131D02*
X121797651Y-117298480D01*
%TO.N,/SDI*%
X110400000Y-117945291D02*
X110400000Y-116800000D01*
%TO.N,/~{CS}_HV*%
X121548000Y-118866737D02*
X121548000Y-117548131D01*
%TO.N,/SDI*%
X112674603Y-120219894D02*
X110400000Y-117945291D01*
%TO.N,/~{CS}_HV*%
X119000000Y-119800000D02*
X120614738Y-119800000D01*
X109400000Y-117586638D02*
X112693863Y-120880501D01*
X112693863Y-120880501D02*
X117919499Y-120880501D01*
X117919499Y-120880501D02*
X119000000Y-119800000D01*
X111030445Y-115000000D02*
X109400000Y-116630445D01*
%TO.N,/SDI*%
X118800000Y-119200000D02*
X117800000Y-120200000D01*
%TO.N,/~{CS}_HV*%
X113000000Y-115000000D02*
X111030445Y-115000000D01*
X109400000Y-116630445D02*
X109400000Y-117586638D01*
X120614738Y-119800000D02*
X121548000Y-118866737D01*
%TO.N,+3V3*%
X120875000Y-120600000D02*
X122000000Y-121725000D01*
X119200000Y-120600000D02*
X120875000Y-120600000D01*
X123550000Y-120822011D02*
X123550000Y-120362500D01*
X122647011Y-121725000D02*
X123550000Y-120822011D01*
X122000000Y-121725000D02*
X122647011Y-121725000D01*
%TO.N,Net-(JP1-A)*%
X119000000Y-122000000D02*
X119600000Y-122600000D01*
X118300000Y-122000000D02*
X119000000Y-122000000D01*
%TO.N,/SDI*%
X120448340Y-117947000D02*
X120606246Y-118104906D01*
X119500000Y-117512500D02*
X119934500Y-117947000D01*
X119934500Y-117947000D02*
X120448340Y-117947000D01*
%TO.N,/SCL*%
X119000000Y-118217048D02*
X119356452Y-118573500D01*
X119000000Y-117512500D02*
X119000000Y-118217048D01*
X119356452Y-118573500D02*
X119958462Y-118573500D01*
%TO.N,/SDO*%
X123480988Y-115504261D02*
X123480988Y-114593439D01*
X123840721Y-115863994D02*
X123480988Y-115504261D01*
X120854000Y-117250000D02*
X121354001Y-116749999D01*
X120262500Y-117250000D02*
X120854000Y-117250000D01*
%TO.N,Net-(JP1-A)*%
X122840722Y-115750000D02*
X123214221Y-116123499D01*
%TO.N,/SDO*%
X124675000Y-113399427D02*
X124675000Y-112637500D01*
%TO.N,Net-(JP1-A)*%
X120262500Y-115750000D02*
X122840722Y-115750000D01*
%TO.N,/SDO*%
X123480988Y-114593439D02*
X124675000Y-113399427D01*
X121354001Y-116749999D02*
X123473726Y-116749999D01*
X123840721Y-116383004D02*
X123840721Y-115863994D01*
%TO.N,Net-(JP1-B)*%
X117065322Y-116250000D02*
X116441823Y-116873499D01*
X117737500Y-116250000D02*
X117065322Y-116250000D01*
%TO.N,/SDO*%
X123473726Y-116749999D02*
X123840721Y-116383004D01*
%TO.N,Net-(JP1-B)*%
X115578508Y-116873499D02*
X115207346Y-117244661D01*
X116441823Y-116873499D02*
X115578508Y-116873499D01*
X115700000Y-122000000D02*
X114710576Y-122000000D01*
X114710576Y-122000000D02*
X114686115Y-122024461D01*
D31*
%TO.N,/SCL*%
X116000000Y-108450000D02*
X116900000Y-109350000D01*
X112550000Y-108450000D02*
X116000000Y-108450000D01*
X112400000Y-108600000D02*
X112550000Y-108450000D01*
X112400000Y-111000000D02*
X112400000Y-108600000D01*
X109200000Y-114200000D02*
X112400000Y-111000000D01*
X106800000Y-114200000D02*
X109200000Y-114200000D01*
X106000000Y-115000000D02*
X106800000Y-114200000D01*
D30*
%TO.N,/INT_OUT*%
X126905501Y-116844499D02*
X128150130Y-116844499D01*
X126625000Y-118362500D02*
X126625000Y-117125000D01*
D31*
X136550337Y-115600000D02*
X136029447Y-116120890D01*
X137966727Y-115600000D02*
X136550337Y-115600000D01*
D30*
%TO.N,GND*%
X131525000Y-116000000D02*
X129992043Y-116000000D01*
%TO.N,/INT_OUT*%
X126625000Y-117125000D02*
X126905501Y-116844499D01*
%TO.N,GND*%
X129992043Y-116000000D02*
X129868541Y-116123502D01*
D31*
%TO.N,/INT_OUT*%
X141875000Y-114730000D02*
X138836727Y-114730000D01*
X138836727Y-114730000D02*
X137966727Y-115600000D01*
D30*
X128150130Y-116844499D02*
X128674876Y-116319753D01*
D31*
%TO.N,GND*%
X138000000Y-120600000D02*
X141085000Y-120600000D01*
X141085000Y-120600000D02*
X141875000Y-119810000D01*
%TO.N,/~{CS}*%
X113800000Y-116850000D02*
X113650000Y-117000000D01*
X113800000Y-116200000D02*
X113800000Y-116850000D01*
D30*
%TO.N,+3V3*%
X112350000Y-116763995D02*
X112350000Y-117000000D01*
X116000000Y-115525000D02*
X113588995Y-115525000D01*
X113588995Y-115525000D02*
X112350000Y-116763995D01*
D31*
%TO.N,/CLK_HV*%
X116825000Y-111800000D02*
X117400000Y-111800000D01*
X115025000Y-110000000D02*
X116825000Y-111800000D01*
D30*
%TO.N,+5V*%
X114150000Y-111300000D02*
X114150000Y-111650000D01*
X113675000Y-110825000D02*
X114150000Y-111300000D01*
X114325000Y-113000000D02*
X114325000Y-111825000D01*
X114325000Y-111825000D02*
X114150000Y-111650000D01*
D31*
%TO.N,/CLK_HV*%
X114075000Y-109175000D02*
X114900000Y-110000000D01*
X113400000Y-109175000D02*
X114075000Y-109175000D01*
%TO.N,+3V3*%
X117075000Y-110825000D02*
X116900000Y-110650000D01*
X118400000Y-110825000D02*
X117075000Y-110825000D01*
%TO.N,/SCL*%
X118400000Y-109175000D02*
X117075000Y-109175000D01*
X117075000Y-109175000D02*
X116900000Y-109350000D01*
D30*
X119825000Y-109350000D02*
X120000000Y-109525000D01*
X120000000Y-109525000D02*
X120000000Y-110600000D01*
X118500000Y-109350000D02*
X119825000Y-109350000D01*
%TO.N,+3V3*%
X120000000Y-112150000D02*
X118500000Y-110650000D01*
X120000000Y-112200000D02*
X120000000Y-112150000D01*
X121626501Y-110048499D02*
X122550000Y-109125000D01*
X121626501Y-110776797D02*
X121626501Y-110048499D01*
X121333303Y-111069995D02*
X121626501Y-110776797D01*
X121130005Y-111069995D02*
X121333303Y-111069995D01*
X120000000Y-112200000D02*
X121130005Y-111069995D01*
%TO.N,/SDI*%
X122311005Y-110775000D02*
X121384434Y-111701571D01*
X122550000Y-110775000D02*
X122311005Y-110775000D01*
%TO.N,+3V3*%
X120475000Y-113500000D02*
X120000000Y-113025000D01*
X120000000Y-113025000D02*
X120000000Y-112200000D01*
D31*
%TO.N,+5V*%
X141065000Y-113000000D02*
X137400000Y-113000000D01*
X141875000Y-112190000D02*
X141065000Y-113000000D01*
D30*
X134475000Y-114725000D02*
X136200000Y-113000000D01*
X134475000Y-116000000D02*
X134475000Y-114725000D01*
X136200000Y-113000000D02*
X137400000Y-113000000D01*
%TO.N,GND*%
X136930000Y-117270000D02*
X136200000Y-118000000D01*
X141875000Y-117270000D02*
X136930000Y-117270000D01*
X127648810Y-117298000D02*
X127275000Y-117671810D01*
X129427000Y-117298000D02*
X127648810Y-117298000D01*
X127275000Y-117671810D02*
X127275000Y-118362500D01*
X129500000Y-117225000D02*
X129427000Y-117298000D01*
D31*
%TO.N,/SDI_IN*%
X126625000Y-111473974D02*
X126624500Y-111473474D01*
X126625000Y-112637500D02*
X126625000Y-111473974D01*
D30*
%TO.N,/SDI_HV*%
X128104674Y-115900501D02*
X128601500Y-115403675D01*
X126841494Y-115900501D02*
X128104674Y-115900501D01*
X125975000Y-118362500D02*
X125975000Y-116766995D01*
X128601500Y-111826500D02*
X127550000Y-110775000D01*
X128601500Y-115403675D02*
X128601500Y-111826500D01*
%TO.N,GND*%
X127925000Y-115194170D02*
X127845169Y-115274001D01*
X127925000Y-112637500D02*
X127925000Y-115194170D01*
%TO.N,/SDI_HV*%
X125975000Y-116766995D02*
X126841494Y-115900501D01*
D31*
%TO.N,/CLK_IN*%
X125975000Y-114375000D02*
X126000000Y-114400000D01*
X125975000Y-112637500D02*
X125975000Y-114375000D01*
D30*
%TO.N,/INT*%
X127275000Y-114378000D02*
X126000000Y-115653000D01*
X127275000Y-112637500D02*
X127275000Y-114378000D01*
%TO.N,/~{CS}_IN*%
X125325000Y-111573002D02*
X126049001Y-110849001D01*
X125325000Y-112637500D02*
X125325000Y-111573002D01*
D31*
%TO.N,GND*%
X141875000Y-119810000D02*
X141875000Y-117270000D01*
D30*
%TO.N,+3V3*%
X112175000Y-117175000D02*
X112350000Y-117000000D01*
X120000000Y-113500000D02*
X119500000Y-113000000D01*
X116000000Y-114500000D02*
X116000000Y-115525000D01*
X116225000Y-115750000D02*
X116000000Y-115525000D01*
X119500000Y-114475000D02*
X120475000Y-113500000D01*
X112175000Y-118500000D02*
X112175000Y-117175000D01*
X122550000Y-109125000D02*
X123875000Y-109125000D01*
X117737500Y-115750000D02*
X116225000Y-115750000D01*
X119500000Y-115487500D02*
X119500000Y-114475000D01*
X120475000Y-113500000D02*
X120000000Y-113500000D01*
X123875000Y-109125000D02*
X124050000Y-109300000D01*
%TO.N,GND*%
X122275000Y-123000000D02*
X122000000Y-123275000D01*
X130725000Y-116000000D02*
X129500000Y-117225000D01*
X120262500Y-116750000D02*
X120262500Y-116250000D01*
X118500000Y-114475000D02*
X117525000Y-113500000D01*
X122351520Y-123626520D02*
X122000000Y-123275000D01*
X128775000Y-122500000D02*
X128775000Y-122275000D01*
X119000000Y-115487500D02*
X118500000Y-115487500D01*
X116750000Y-113000000D02*
X117025000Y-113000000D01*
X131525000Y-116000000D02*
X130725000Y-116000000D01*
X122075000Y-112637500D02*
X124025000Y-112637500D01*
X127275000Y-119500000D02*
X127275000Y-118362500D01*
X116000000Y-118000000D02*
X116500000Y-117500000D01*
X124500000Y-122637500D02*
X124500000Y-123023901D01*
X124025000Y-111549502D02*
X124250000Y-111324502D01*
X119146978Y-116250000D02*
X119000000Y-116103022D01*
X120262500Y-116250000D02*
X119146978Y-116250000D01*
X116000000Y-118475000D02*
X116000000Y-118000000D01*
X117025000Y-113000000D02*
X117525000Y-113500000D01*
X128775000Y-121000000D02*
X127275000Y-119500000D01*
X128775000Y-122500000D02*
X128775000Y-121000000D01*
X122750000Y-123000000D02*
X122275000Y-123000000D01*
X118500000Y-115487500D02*
X118500000Y-114475000D01*
X128775000Y-122275000D02*
X128250000Y-121750000D01*
X119000000Y-116103022D02*
X119000000Y-115487500D01*
X123897381Y-123626520D02*
X122351520Y-123626520D01*
X124025000Y-112637500D02*
X124025000Y-111549502D01*
X124500000Y-123023901D02*
X123897381Y-123626520D01*
%TO.N,+5V*%
X125587500Y-122500000D02*
X125450000Y-122637500D01*
X129551520Y-118826520D02*
X129551520Y-122978447D01*
X127225000Y-122500000D02*
X125587500Y-122500000D01*
X125450000Y-122251099D02*
X125450000Y-122637500D01*
X128026520Y-123301520D02*
X127225000Y-122500000D01*
X129580021Y-112330021D02*
X129580021Y-111155021D01*
X124301099Y-121500000D02*
X124698901Y-121500000D01*
X129580021Y-111155021D02*
X127550000Y-109125000D01*
X129500000Y-118775000D02*
X129551520Y-118826520D01*
X128337500Y-118775000D02*
X127925000Y-118362500D01*
X127550000Y-109125000D02*
X126625000Y-109125000D01*
X123550000Y-122251099D02*
X124301099Y-121500000D01*
X134475000Y-116000000D02*
X133225000Y-117250000D01*
X123550000Y-122637500D02*
X123550000Y-122251099D01*
X129551520Y-122978447D02*
X129228447Y-123301520D01*
X133225000Y-117250000D02*
X131025000Y-117250000D01*
X129500000Y-118775000D02*
X128337500Y-118775000D01*
X134475000Y-116000000D02*
X132725000Y-114250000D01*
X131500000Y-114250000D02*
X129580021Y-112330021D01*
X132725000Y-114250000D02*
X131500000Y-114250000D01*
X124698901Y-121500000D02*
X125450000Y-122251099D01*
X126625000Y-109125000D02*
X126000000Y-108500000D01*
X131025000Y-117250000D02*
X129500000Y-118775000D01*
X129228447Y-123301520D02*
X128026520Y-123301520D01*
%TO.N,Net-(U3-BP)*%
X125450000Y-120362500D02*
X126587500Y-120362500D01*
X126587500Y-120362500D02*
X127225000Y-121000000D01*
%TO.N,/SDO_OUT*%
X124025000Y-118362500D02*
X124025000Y-119275000D01*
X124025000Y-119275000D02*
X124500000Y-119750000D01*
%TO.N,/SDI*%
X123875000Y-110775000D02*
X124050000Y-110600000D01*
X122550000Y-110775000D02*
X123875000Y-110775000D01*
%TO.N,/SDI_HV*%
X126050000Y-109950000D02*
X126725000Y-109950000D01*
X126725000Y-109950000D02*
X127550000Y-110775000D01*
%TO.N,/~{CS}*%
X113825000Y-117175000D02*
X113650000Y-117000000D01*
X113825000Y-118500000D02*
X113825000Y-117175000D01*
%TO.N,/~{CS}_HV*%
X113000000Y-113325000D02*
X112675000Y-113000000D01*
X113000000Y-115000000D02*
X113000000Y-113325000D01*
D31*
%TO.N,/CLK_HV*%
X125325000Y-118362500D02*
X125325000Y-115325000D01*
X125325000Y-115325000D02*
X124750000Y-114750000D01*
%TD*%
%TA.AperFunction,Conductor*%
%TO.N,GND*%
G36*
X137130536Y-116252501D02*
G01*
X137177005Y-116303772D01*
X137189392Y-116371850D01*
X137186619Y-116400000D01*
X137206091Y-116597701D01*
X137263758Y-116787802D01*
X137357406Y-116963007D01*
X137483431Y-117116568D01*
X137636992Y-117242593D01*
X137636996Y-117242595D01*
X137812196Y-117336241D01*
X137884694Y-117358233D01*
X138002298Y-117393908D01*
X138200000Y-117413380D01*
X138397701Y-117393908D01*
X138587804Y-117336241D01*
X138641605Y-117307483D01*
X138704092Y-117292644D01*
X138765777Y-117310532D01*
X138810631Y-117356501D01*
X138827000Y-117418606D01*
X138827000Y-118321277D01*
X138807119Y-118389208D01*
X138753751Y-118435703D01*
X138683737Y-118446089D01*
X138619170Y-118417088D01*
X138580426Y-118357853D01*
X138544032Y-118237881D01*
X138536241Y-118212196D01*
X138451371Y-118053415D01*
X138442593Y-118036992D01*
X138316568Y-117883431D01*
X138163007Y-117757406D01*
X137987802Y-117663758D01*
X137797701Y-117606091D01*
X137600000Y-117586619D01*
X137402298Y-117606091D01*
X137212197Y-117663758D01*
X137036992Y-117757406D01*
X136883431Y-117883431D01*
X136757406Y-118036992D01*
X136663758Y-118212197D01*
X136606091Y-118402298D01*
X136586619Y-118600000D01*
X136606091Y-118797701D01*
X136663758Y-118987802D01*
X136757406Y-119163007D01*
X136883431Y-119316568D01*
X137036992Y-119442593D01*
X137055634Y-119452557D01*
X137212196Y-119536241D01*
X137224209Y-119539885D01*
X137400823Y-119593461D01*
X137451872Y-119623493D01*
X137483560Y-119673532D01*
X137488601Y-119729391D01*
X138000000Y-120240789D01*
X138000001Y-120240790D01*
X138880761Y-121121551D01*
X138901346Y-121124067D01*
X138954256Y-121165074D01*
X138972095Y-121188904D01*
X139089037Y-121276445D01*
X139225906Y-121327494D01*
X139286411Y-121334000D01*
X139991790Y-121334000D01*
X139991791Y-121333999D01*
X140710209Y-121333999D01*
X140710210Y-121334000D01*
X143039790Y-121334000D01*
X143039790Y-121333999D01*
X141875001Y-120169210D01*
X141874999Y-120169210D01*
X140710209Y-121333999D01*
X139991791Y-121333999D01*
X141785905Y-119539885D01*
X141842389Y-119507273D01*
X141907611Y-119507273D01*
X141964095Y-119539885D01*
X143758208Y-121333999D01*
X143758210Y-121334000D01*
X144373500Y-121334000D01*
X144436500Y-121350881D01*
X144482619Y-121397000D01*
X144499500Y-121460000D01*
X144499500Y-121623500D01*
X144482619Y-121686500D01*
X144436500Y-121732619D01*
X144373500Y-121749500D01*
X138490781Y-121749500D01*
X138427068Y-121732205D01*
X138380847Y-121685067D01*
X138364805Y-121621027D01*
X138383348Y-121557666D01*
X138431384Y-121512378D01*
X138510747Y-121469956D01*
X138000001Y-120959210D01*
X138000000Y-120959210D01*
X137489252Y-121469956D01*
X137568616Y-121512378D01*
X137616652Y-121557666D01*
X137635195Y-121621027D01*
X137619153Y-121685067D01*
X137572932Y-121732205D01*
X137509219Y-121749500D01*
X136897730Y-121749500D01*
X136885649Y-121748204D01*
X136882578Y-121750179D01*
X136880752Y-121756057D01*
X136879468Y-121765737D01*
X136861965Y-121831629D01*
X136861772Y-121832346D01*
X136798015Y-122066788D01*
X136794715Y-122077138D01*
X136747756Y-122205079D01*
X136746989Y-122207115D01*
X136678473Y-122384268D01*
X136674745Y-122392929D01*
X136611472Y-122525981D01*
X136609867Y-122529233D01*
X136528307Y-122688735D01*
X136524451Y-122695722D01*
X136447229Y-122825718D01*
X136444548Y-122830030D01*
X136348745Y-122977435D01*
X136345047Y-122982815D01*
X136255598Y-123105976D01*
X136251626Y-123111157D01*
X136141070Y-123247882D01*
X136137799Y-123251766D01*
X136038074Y-123365408D01*
X136032623Y-123371236D01*
X135906173Y-123498140D01*
X135903577Y-123500671D01*
X135796624Y-123602002D01*
X135789540Y-123608227D01*
X135642326Y-123728140D01*
X135640627Y-123729500D01*
X135533467Y-123813751D01*
X135524633Y-123820099D01*
X135316652Y-123956336D01*
X135316045Y-123956731D01*
X135281166Y-123979293D01*
X135248409Y-123994341D01*
X135212731Y-123999498D01*
X129736728Y-123999498D01*
X129676026Y-123983912D01*
X129630342Y-123941011D01*
X129610976Y-123881407D01*
X129622721Y-123819847D01*
X129662668Y-123771561D01*
X129666934Y-123768462D01*
X129695235Y-123734249D01*
X129703204Y-123725493D01*
X129941435Y-123487262D01*
X129957804Y-123474149D01*
X129959820Y-123472001D01*
X129959823Y-123472000D01*
X130006638Y-123422145D01*
X130009329Y-123419368D01*
X130029158Y-123399541D01*
X130031649Y-123396329D01*
X130039338Y-123387324D01*
X130069737Y-123354953D01*
X130079545Y-123337111D01*
X130090392Y-123320597D01*
X130102869Y-123304514D01*
X130120500Y-123263769D01*
X130125697Y-123253159D01*
X130147089Y-123214250D01*
X130152151Y-123194530D01*
X130158553Y-123175834D01*
X130166637Y-123157155D01*
X130173577Y-123113330D01*
X130175982Y-123101712D01*
X130187020Y-123058729D01*
X130187020Y-123038381D01*
X130188571Y-123018670D01*
X130191755Y-122998568D01*
X130187579Y-122954391D01*
X130187020Y-122942533D01*
X130187020Y-121067766D01*
X131645787Y-121067766D01*
X131675413Y-121337015D01*
X131678760Y-121349817D01*
X131743928Y-121599088D01*
X131808271Y-121750500D01*
X131829266Y-121799906D01*
X131849870Y-121848390D01*
X131990982Y-122079610D01*
X132164255Y-122287820D01*
X132164256Y-122287821D01*
X132164258Y-122287823D01*
X132365993Y-122468578D01*
X132365995Y-122468579D01*
X132365998Y-122468582D01*
X132591910Y-122618044D01*
X132683247Y-122660861D01*
X132837171Y-122733018D01*
X132837173Y-122733018D01*
X132837176Y-122733020D01*
X133096569Y-122811060D01*
X133096572Y-122811060D01*
X133096574Y-122811061D01*
X133364558Y-122850500D01*
X133364561Y-122850500D01*
X133567630Y-122850500D01*
X133567631Y-122850500D01*
X133770156Y-122835677D01*
X134034553Y-122776780D01*
X134287558Y-122680014D01*
X134523777Y-122547441D01*
X134738177Y-122381888D01*
X134926186Y-122186881D01*
X135083799Y-121966579D01*
X135207656Y-121725675D01*
X135295118Y-121469305D01*
X135344319Y-121202933D01*
X135354212Y-120932235D01*
X135324586Y-120662982D01*
X135308120Y-120600000D01*
X136987122Y-120600000D01*
X137006584Y-120797603D01*
X137064222Y-120987607D01*
X137130042Y-121110746D01*
X137640790Y-120600000D01*
X137640790Y-120599999D01*
X137130042Y-120089251D01*
X137130041Y-120089252D01*
X137064223Y-120212390D01*
X137006584Y-120402396D01*
X136987122Y-120600000D01*
X135308120Y-120600000D01*
X135256072Y-120400912D01*
X135150130Y-120151610D01*
X135009018Y-119920390D01*
X134835745Y-119712180D01*
X134835741Y-119712176D01*
X134634006Y-119531421D01*
X134634003Y-119531419D01*
X134634002Y-119531418D01*
X134408090Y-119381956D01*
X134375448Y-119366654D01*
X134162828Y-119266981D01*
X133903425Y-119188938D01*
X133635442Y-119149500D01*
X133635439Y-119149500D01*
X133432369Y-119149500D01*
X133398614Y-119151970D01*
X133229839Y-119164323D01*
X132965449Y-119223219D01*
X132712441Y-119319985D01*
X132476225Y-119452557D01*
X132261820Y-119618114D01*
X132073815Y-119813117D01*
X131916200Y-120033422D01*
X131792342Y-120274328D01*
X131704882Y-120530693D01*
X131655681Y-120797065D01*
X131645787Y-121067766D01*
X130187020Y-121067766D01*
X130187020Y-119652496D01*
X130196611Y-119604278D01*
X130223925Y-119563401D01*
X130329282Y-119458043D01*
X130329281Y-119458043D01*
X130329285Y-119458040D01*
X130419302Y-119312101D01*
X130473236Y-119149336D01*
X130483500Y-119048872D01*
X130483500Y-118742423D01*
X130493091Y-118694205D01*
X130520405Y-118653327D01*
X131251329Y-117922404D01*
X131292206Y-117895091D01*
X131340424Y-117885500D01*
X133140931Y-117885500D01*
X133161769Y-117887800D01*
X133164716Y-117887707D01*
X133164719Y-117887708D01*
X133233012Y-117885561D01*
X133236969Y-117885500D01*
X133264978Y-117885500D01*
X133264983Y-117885500D01*
X133269029Y-117884988D01*
X133280848Y-117884058D01*
X133325205Y-117882665D01*
X133344744Y-117876987D01*
X133364102Y-117872978D01*
X133384299Y-117870427D01*
X133425555Y-117854092D01*
X133436765Y-117850253D01*
X133479393Y-117837869D01*
X133496907Y-117827510D01*
X133514667Y-117818810D01*
X133533586Y-117811320D01*
X133533586Y-117811319D01*
X133533588Y-117811319D01*
X133569499Y-117785227D01*
X133579399Y-117778724D01*
X133617598Y-117756134D01*
X133631986Y-117741745D01*
X133647021Y-117728904D01*
X133663487Y-117716942D01*
X133691787Y-117682731D01*
X133699757Y-117673973D01*
X133935336Y-117438394D01*
X133982197Y-117408779D01*
X134037233Y-117402143D01*
X134099455Y-117408500D01*
X134850544Y-117408499D01*
X134954426Y-117397887D01*
X135122738Y-117342115D01*
X135273652Y-117249030D01*
X135399030Y-117123652D01*
X135492115Y-116972738D01*
X135506246Y-116930090D01*
X135542608Y-116875137D01*
X135601739Y-116846052D01*
X135667465Y-116850795D01*
X135676430Y-116853932D01*
X135676432Y-116853933D01*
X135848400Y-116914107D01*
X136029447Y-116934506D01*
X136210494Y-116914107D01*
X136382462Y-116853933D01*
X136536728Y-116757001D01*
X136665558Y-116628171D01*
X136762490Y-116473905D01*
X136796402Y-116376989D01*
X136817084Y-116317885D01*
X136843649Y-116273798D01*
X136885627Y-116244013D01*
X136936013Y-116233500D01*
X137063999Y-116233500D01*
X137130536Y-116252501D01*
G37*
%TD.AperFunction*%
%TA.AperFunction,Conductor*%
G36*
X105174718Y-115607553D02*
G01*
X105223899Y-115644028D01*
X105283433Y-115716570D01*
X105436992Y-115842593D01*
X105436996Y-115842595D01*
X105612196Y-115936241D01*
X105694993Y-115961357D01*
X105802298Y-115993908D01*
X105999998Y-116013380D01*
X105999998Y-116013379D01*
X106000000Y-116013380D01*
X106068175Y-116006665D01*
X106126447Y-116014724D01*
X106174710Y-116048361D01*
X106202442Y-116100242D01*
X106203598Y-116159059D01*
X106177926Y-116211990D01*
X106157404Y-116236996D01*
X106063758Y-116412197D01*
X106006091Y-116602298D01*
X105986619Y-116800000D01*
X106006091Y-116997701D01*
X106063758Y-117187802D01*
X106157406Y-117363007D01*
X106283431Y-117516568D01*
X106436992Y-117642593D01*
X106470251Y-117660370D01*
X106612196Y-117736241D01*
X106681968Y-117757406D01*
X106802298Y-117793908D01*
X107000000Y-117813380D01*
X107197701Y-117793908D01*
X107387804Y-117736241D01*
X107563004Y-117642595D01*
X107563005Y-117642593D01*
X107563007Y-117642593D01*
X107716568Y-117516568D01*
X107842593Y-117363007D01*
X107845145Y-117358233D01*
X107936241Y-117187804D01*
X107993908Y-116997701D01*
X108013380Y-116800000D01*
X107993908Y-116602299D01*
X107969401Y-116521513D01*
X107966903Y-116457936D01*
X107995790Y-116401242D01*
X108048694Y-116365893D01*
X108112126Y-116360900D01*
X108169910Y-116387539D01*
X108236995Y-116442595D01*
X108275706Y-116463286D01*
X108412196Y-116536241D01*
X108496163Y-116561712D01*
X108602298Y-116593908D01*
X108650850Y-116598690D01*
X108708502Y-116619318D01*
X108749622Y-116664687D01*
X108764500Y-116724083D01*
X108764500Y-117502569D01*
X108762199Y-117523407D01*
X108764438Y-117594649D01*
X108764500Y-117598607D01*
X108764500Y-117626621D01*
X108765011Y-117630670D01*
X108765940Y-117642486D01*
X108767334Y-117686843D01*
X108773014Y-117706393D01*
X108777022Y-117725748D01*
X108779572Y-117745934D01*
X108779572Y-117745936D01*
X108779573Y-117745937D01*
X108794977Y-117784845D01*
X108795906Y-117787190D01*
X108799749Y-117798417D01*
X108812130Y-117841030D01*
X108822492Y-117858552D01*
X108831189Y-117876305D01*
X108838680Y-117895225D01*
X108864764Y-117931127D01*
X108871275Y-117941039D01*
X108893866Y-117979236D01*
X108908254Y-117993624D01*
X108921092Y-118008655D01*
X108933058Y-118025125D01*
X108967255Y-118053415D01*
X108976035Y-118061405D01*
X112185047Y-121270418D01*
X112198161Y-121286786D01*
X112250128Y-121335586D01*
X112252970Y-121338341D01*
X112272769Y-121358140D01*
X112275994Y-121360642D01*
X112285013Y-121368345D01*
X112317357Y-121398718D01*
X112335188Y-121408521D01*
X112351712Y-121419375D01*
X112367796Y-121431851D01*
X112408537Y-121449481D01*
X112419176Y-121454694D01*
X112458055Y-121476068D01*
X112458057Y-121476068D01*
X112458060Y-121476070D01*
X112477775Y-121481131D01*
X112496477Y-121487535D01*
X112511481Y-121494028D01*
X112515155Y-121495618D01*
X112558977Y-121502558D01*
X112570604Y-121504966D01*
X112613580Y-121516001D01*
X112613581Y-121516001D01*
X112633929Y-121516001D01*
X112653638Y-121517551D01*
X112673742Y-121520736D01*
X112717918Y-121516560D01*
X112729777Y-121516001D01*
X113829885Y-121516001D01*
X113887717Y-121530057D01*
X113932646Y-121569089D01*
X113954648Y-121624388D01*
X113948814Y-121683614D01*
X113940267Y-121708040D01*
X113892898Y-121843411D01*
X113872499Y-122024460D01*
X113892898Y-122205510D01*
X113953071Y-122377475D01*
X114050004Y-122531743D01*
X114178832Y-122660571D01*
X114333100Y-122757504D01*
X114473494Y-122806630D01*
X114505068Y-122817678D01*
X114613405Y-122829884D01*
X114676848Y-122855785D01*
X114717352Y-122911059D01*
X114749109Y-122996203D01*
X114836738Y-123113261D01*
X114953794Y-123200888D01*
X114953795Y-123200888D01*
X114953796Y-123200889D01*
X115090799Y-123251989D01*
X115151362Y-123258500D01*
X116248638Y-123258500D01*
X116248639Y-123258500D01*
X116256758Y-123257626D01*
X116309201Y-123251989D01*
X116309203Y-123251988D01*
X116317751Y-123251069D01*
X116350000Y-123245250D01*
X116382248Y-123251069D01*
X116390796Y-123251988D01*
X116390799Y-123251989D01*
X116442160Y-123257510D01*
X116451361Y-123258500D01*
X116451362Y-123258500D01*
X117548638Y-123258500D01*
X117548639Y-123258500D01*
X117556758Y-123257626D01*
X117609201Y-123251989D01*
X117609203Y-123251988D01*
X117617751Y-123251069D01*
X117650000Y-123245250D01*
X117682248Y-123251069D01*
X117690796Y-123251988D01*
X117690799Y-123251989D01*
X117742160Y-123257510D01*
X117751361Y-123258500D01*
X117751362Y-123258500D01*
X118848638Y-123258500D01*
X118909201Y-123251989D01*
X118981874Y-123224882D01*
X119038735Y-123217593D01*
X119092941Y-123236250D01*
X119246985Y-123333043D01*
X119418953Y-123393217D01*
X119600000Y-123413616D01*
X119781047Y-123393217D01*
X119953015Y-123333043D01*
X120107281Y-123236111D01*
X120236111Y-123107281D01*
X120333043Y-122953015D01*
X120393217Y-122781047D01*
X120413616Y-122600000D01*
X120393217Y-122418953D01*
X120333043Y-122246985D01*
X120307991Y-122207115D01*
X120236110Y-122092717D01*
X120107282Y-121963889D01*
X119953014Y-121866956D01*
X119781049Y-121806783D01*
X119739734Y-121802128D01*
X119699173Y-121790442D01*
X119664748Y-121766015D01*
X119508816Y-121610083D01*
X119495705Y-121593717D01*
X119460436Y-121560598D01*
X119426468Y-121506472D01*
X119423422Y-121442642D01*
X119452081Y-121385528D01*
X119505070Y-121349819D01*
X119553015Y-121333043D01*
X119677517Y-121254812D01*
X119744553Y-121235500D01*
X120559578Y-121235500D01*
X120607796Y-121245091D01*
X120648673Y-121272405D01*
X120979595Y-121603327D01*
X121006909Y-121644204D01*
X121016500Y-121692422D01*
X121016500Y-121998872D01*
X121026764Y-122099336D01*
X121080698Y-122262101D01*
X121170715Y-122408040D01*
X121173930Y-122411255D01*
X121206542Y-122467736D01*
X121206545Y-122532959D01*
X121173936Y-122589444D01*
X121171111Y-122592269D01*
X121081152Y-122738114D01*
X121027256Y-122900760D01*
X121017000Y-123001161D01*
X121017000Y-123021000D01*
X122128000Y-123021000D01*
X122191000Y-123037881D01*
X122237119Y-123084000D01*
X122254000Y-123147000D01*
X122254000Y-123403000D01*
X122237119Y-123466000D01*
X122191000Y-123512119D01*
X122128000Y-123529000D01*
X121017000Y-123529000D01*
X121017000Y-123548839D01*
X121027256Y-123649239D01*
X121085786Y-123825867D01*
X121084000Y-123826458D01*
X121097085Y-123870751D01*
X121081138Y-123934906D01*
X121034906Y-123982157D01*
X120971115Y-123999498D01*
X106773448Y-123999498D01*
X106705551Y-123979640D01*
X106705009Y-123979293D01*
X106649008Y-123943470D01*
X106648670Y-123943252D01*
X106480544Y-123834564D01*
X106454184Y-123817523D01*
X106444914Y-123810917D01*
X106328612Y-123719814D01*
X106327272Y-123718748D01*
X106293414Y-123691435D01*
X106182122Y-123601657D01*
X106174459Y-123594945D01*
X106060940Y-123487073D01*
X106058813Y-123485002D01*
X105933021Y-123359624D01*
X105926869Y-123353037D01*
X105821897Y-123232260D01*
X105819190Y-123229039D01*
X105802581Y-123208589D01*
X105709321Y-123093758D01*
X105704587Y-123087545D01*
X105651404Y-123013066D01*
X105610730Y-122956104D01*
X105607689Y-122951646D01*
X105513264Y-122806630D01*
X105509822Y-122801027D01*
X105444825Y-122688735D01*
X105428691Y-122660861D01*
X105425531Y-122655056D01*
X105366773Y-122540020D01*
X105346802Y-122500920D01*
X105344458Y-122496075D01*
X105277240Y-122349238D01*
X105274210Y-122342038D01*
X105253351Y-122287823D01*
X105211607Y-122179326D01*
X105210175Y-122175409D01*
X105157748Y-122024271D01*
X105155100Y-122015657D01*
X105141198Y-121963889D01*
X105109002Y-121843997D01*
X105108293Y-121841221D01*
X105071296Y-121689048D01*
X105069301Y-121679102D01*
X105040056Y-121494855D01*
X105039796Y-121493135D01*
X105018740Y-121347003D01*
X105017628Y-121335667D01*
X105005393Y-121102702D01*
X105003725Y-121067766D01*
X106645787Y-121067766D01*
X106675413Y-121337015D01*
X106678760Y-121349817D01*
X106743928Y-121599088D01*
X106808271Y-121750500D01*
X106829266Y-121799906D01*
X106849870Y-121848390D01*
X106990982Y-122079610D01*
X107164255Y-122287820D01*
X107164256Y-122287821D01*
X107164258Y-122287823D01*
X107365993Y-122468578D01*
X107365995Y-122468579D01*
X107365998Y-122468582D01*
X107591910Y-122618044D01*
X107683247Y-122660861D01*
X107837171Y-122733018D01*
X107837173Y-122733018D01*
X107837176Y-122733020D01*
X108096569Y-122811060D01*
X108096572Y-122811060D01*
X108096574Y-122811061D01*
X108364558Y-122850500D01*
X108364561Y-122850500D01*
X108567630Y-122850500D01*
X108567631Y-122850500D01*
X108770156Y-122835677D01*
X109034553Y-122776780D01*
X109287558Y-122680014D01*
X109523777Y-122547441D01*
X109738177Y-122381888D01*
X109926186Y-122186881D01*
X110083799Y-121966579D01*
X110207656Y-121725675D01*
X110295118Y-121469305D01*
X110344319Y-121202933D01*
X110354212Y-120932235D01*
X110324586Y-120662982D01*
X110256072Y-120400912D01*
X110150130Y-120151610D01*
X110009018Y-119920390D01*
X109835745Y-119712180D01*
X109835741Y-119712176D01*
X109634006Y-119531421D01*
X109634003Y-119531419D01*
X109634002Y-119531418D01*
X109408090Y-119381956D01*
X109375448Y-119366654D01*
X109162828Y-119266981D01*
X108903425Y-119188938D01*
X108635442Y-119149500D01*
X108635439Y-119149500D01*
X108432369Y-119149500D01*
X108398614Y-119151970D01*
X108229839Y-119164323D01*
X107965449Y-119223219D01*
X107712441Y-119319985D01*
X107476225Y-119452557D01*
X107261820Y-119618114D01*
X107073815Y-119813117D01*
X106916200Y-120033422D01*
X106792342Y-120274328D01*
X106704882Y-120530693D01*
X106655681Y-120797065D01*
X106645787Y-121067766D01*
X105003725Y-121067766D01*
X105000642Y-121003186D01*
X105000500Y-120997181D01*
X105000500Y-115723962D01*
X105015378Y-115664566D01*
X105056498Y-115619197D01*
X105114150Y-115598569D01*
X105174718Y-115607553D01*
G37*
%TD.AperFunction*%
%TA.AperFunction,Conductor*%
G36*
X127330725Y-119376766D02*
G01*
X127374960Y-119413067D01*
X127391013Y-119433987D01*
X127425706Y-119460608D01*
X127462006Y-119504841D01*
X127475000Y-119560569D01*
X127475000Y-119600080D01*
X127533718Y-119592350D01*
X127551125Y-119585140D01*
X127599344Y-119575548D01*
X127647562Y-119585139D01*
X127666149Y-119592838D01*
X127674277Y-119593908D01*
X127785115Y-119608500D01*
X128064884Y-119608499D01*
X128064885Y-119608499D01*
X128125343Y-119600540D01*
X128183850Y-119592838D01*
X128331876Y-119531524D01*
X128331876Y-119531523D01*
X128331878Y-119531523D01*
X128455664Y-119436538D01*
X128491866Y-119417187D01*
X128532368Y-119410500D01*
X128571069Y-119410500D01*
X128632463Y-119426469D01*
X128657499Y-119450428D01*
X128660301Y-119447627D01*
X128791956Y-119579282D01*
X128791958Y-119579283D01*
X128791960Y-119579285D01*
X128856168Y-119618889D01*
X128900044Y-119664723D01*
X128916020Y-119726129D01*
X128916020Y-122540020D01*
X128899139Y-122603020D01*
X128853020Y-122649139D01*
X128790020Y-122666020D01*
X128647000Y-122666020D01*
X128584000Y-122649139D01*
X128537881Y-122603020D01*
X128521000Y-122540020D01*
X128521000Y-120017000D01*
X128501161Y-120017000D01*
X128400760Y-120027256D01*
X128238114Y-120081152D01*
X128092269Y-120171111D01*
X128089444Y-120173936D01*
X128032959Y-120206545D01*
X127967736Y-120206542D01*
X127911255Y-120173930D01*
X127908040Y-120170715D01*
X127762101Y-120080698D01*
X127599336Y-120026764D01*
X127498872Y-120016500D01*
X127498868Y-120016500D01*
X127192423Y-120016500D01*
X127144205Y-120006909D01*
X127103328Y-119979595D01*
X127096316Y-119972583D01*
X127083205Y-119956217D01*
X127031235Y-119907415D01*
X127028422Y-119904689D01*
X127008594Y-119884861D01*
X127008056Y-119884444D01*
X127005373Y-119882362D01*
X126996349Y-119874655D01*
X126964006Y-119844283D01*
X126964003Y-119844281D01*
X126946172Y-119834478D01*
X126929648Y-119823624D01*
X126920540Y-119816559D01*
X126881157Y-119764729D01*
X126872897Y-119700161D01*
X126897966Y-119640086D01*
X126949671Y-119600540D01*
X127014214Y-119592078D01*
X127074999Y-119600080D01*
X127075000Y-119600081D01*
X127075000Y-119560569D01*
X127087994Y-119504841D01*
X127124293Y-119460608D01*
X127158987Y-119433987D01*
X127175039Y-119413067D01*
X127219269Y-119376768D01*
X127274997Y-119363773D01*
X127330725Y-119376766D01*
G37*
%TD.AperFunction*%
%TA.AperFunction,Conductor*%
G36*
X122448217Y-119585409D02*
G01*
X122466150Y-119592838D01*
X122585115Y-119608500D01*
X122618965Y-119608499D01*
X122684799Y-119627065D01*
X122731232Y-119677294D01*
X122744578Y-119744383D01*
X122741500Y-119783500D01*
X122741500Y-120679587D01*
X122731908Y-120727806D01*
X122704594Y-120768684D01*
X122677502Y-120795775D01*
X122617465Y-120829282D01*
X122548777Y-120826283D01*
X122460608Y-120797067D01*
X122399337Y-120776764D01*
X122379243Y-120774711D01*
X122298872Y-120766500D01*
X122298868Y-120766500D01*
X121992423Y-120766500D01*
X121944205Y-120756909D01*
X121903328Y-120729595D01*
X121383816Y-120210083D01*
X121370704Y-120193716D01*
X121336066Y-120161189D01*
X121301322Y-120104492D01*
X121300277Y-120038004D01*
X121333222Y-119980246D01*
X121689078Y-119624390D01*
X121729951Y-119597079D01*
X121778169Y-119587488D01*
X121799562Y-119591742D01*
X121799703Y-119590673D01*
X121824277Y-119593908D01*
X121935115Y-119608500D01*
X122214884Y-119608499D01*
X122214885Y-119608499D01*
X122246948Y-119604278D01*
X122333850Y-119592838D01*
X122351782Y-119585409D01*
X122400000Y-119575818D01*
X122448217Y-119585409D01*
G37*
%TD.AperFunction*%
%TA.AperFunction,Conductor*%
G36*
X117801500Y-117900381D02*
G01*
X117847619Y-117946500D01*
X117864500Y-118009500D01*
X117864500Y-118384577D01*
X117854909Y-118432795D01*
X117827595Y-118473672D01*
X117579229Y-118722038D01*
X117522745Y-118754650D01*
X117457523Y-118754650D01*
X117413097Y-118729000D01*
X115872000Y-118729000D01*
X115809000Y-118712119D01*
X115762881Y-118666000D01*
X115746000Y-118603000D01*
X115746000Y-118347000D01*
X115762881Y-118284000D01*
X115809000Y-118237881D01*
X115872000Y-118221000D01*
X117408000Y-118221000D01*
X117408000Y-118099497D01*
X117400114Y-118022306D01*
X117412321Y-117954046D01*
X117458796Y-117902581D01*
X117525462Y-117883500D01*
X117738500Y-117883500D01*
X117801500Y-117900381D01*
G37*
%TD.AperFunction*%
%TA.AperFunction,Conductor*%
G36*
X118826412Y-116333000D02*
G01*
X119173588Y-116333000D01*
X119234178Y-116326485D01*
X119261119Y-116326485D01*
X119265795Y-116326987D01*
X119265799Y-116326989D01*
X119307307Y-116331451D01*
X119360691Y-116349928D01*
X119400637Y-116389875D01*
X119419114Y-116443261D01*
X119423766Y-116486532D01*
X119423766Y-116513469D01*
X119419114Y-116556739D01*
X119400637Y-116610124D01*
X119360691Y-116650071D01*
X119307305Y-116668548D01*
X119263469Y-116673261D01*
X119236532Y-116673261D01*
X119173640Y-116666500D01*
X119173638Y-116666500D01*
X118826362Y-116666500D01*
X118826360Y-116666500D01*
X118763468Y-116673261D01*
X118736531Y-116673261D01*
X118693205Y-116668603D01*
X118639820Y-116650126D01*
X118599873Y-116610180D01*
X118581396Y-116556794D01*
X118580827Y-116551500D01*
X118576989Y-116515799D01*
X118576988Y-116515797D01*
X118576738Y-116513469D01*
X118576738Y-116486531D01*
X118578096Y-116473905D01*
X118581451Y-116442692D01*
X118599928Y-116389309D01*
X118639873Y-116349363D01*
X118693258Y-116330885D01*
X118736529Y-116326232D01*
X118763471Y-116326232D01*
X118826412Y-116333000D01*
G37*
%TD.AperFunction*%
%TA.AperFunction,Conductor*%
G36*
X129401936Y-113070089D02*
G01*
X129452095Y-113100827D01*
X130846521Y-114495253D01*
X130876442Y-114542980D01*
X130882574Y-114598976D01*
X130863693Y-114652048D01*
X130823573Y-114691589D01*
X130726657Y-114751367D01*
X130601367Y-114876657D01*
X130508340Y-115027477D01*
X130452606Y-115195671D01*
X130442000Y-115299497D01*
X130442000Y-115746000D01*
X132608000Y-115746000D01*
X132608000Y-115335923D01*
X132621733Y-115278720D01*
X132659939Y-115233987D01*
X132714289Y-115211474D01*
X132772936Y-115216090D01*
X132823094Y-115246827D01*
X133090968Y-115514701D01*
X133354596Y-115778329D01*
X133381909Y-115819206D01*
X133391500Y-115867424D01*
X133391500Y-116132575D01*
X133381909Y-116180793D01*
X133354596Y-116221670D01*
X132998672Y-116577595D01*
X132957794Y-116604909D01*
X132909576Y-116614500D01*
X132734000Y-116614500D01*
X132671000Y-116597619D01*
X132624881Y-116551500D01*
X132608000Y-116488500D01*
X132608000Y-116254000D01*
X130442000Y-116254000D01*
X130442000Y-116351190D01*
X130428267Y-116408393D01*
X130390061Y-116453126D01*
X130335711Y-116475639D01*
X130277064Y-116471023D01*
X130226905Y-116440285D01*
X130207731Y-116421111D01*
X130061885Y-116331152D01*
X129899239Y-116277256D01*
X129798839Y-116267000D01*
X129595149Y-116267000D01*
X129536274Y-116252399D01*
X129491044Y-116211979D01*
X129469941Y-116155109D01*
X129468443Y-116141813D01*
X129468093Y-116138706D01*
X129407919Y-115966738D01*
X129343212Y-115863758D01*
X129310986Y-115812470D01*
X129236174Y-115737658D01*
X129208609Y-115696170D01*
X129199276Y-115647241D01*
X129209631Y-115598524D01*
X129216617Y-115582383D01*
X129223557Y-115538558D01*
X129225962Y-115526940D01*
X129237000Y-115483957D01*
X129237000Y-115463609D01*
X129238551Y-115443898D01*
X129241735Y-115423796D01*
X129237559Y-115379619D01*
X129237000Y-115367761D01*
X129237000Y-113189922D01*
X129250733Y-113132719D01*
X129288939Y-113087986D01*
X129343289Y-113065473D01*
X129401936Y-113070089D01*
G37*
%TD.AperFunction*%
%TA.AperFunction,Conductor*%
G36*
X127914063Y-114787988D02*
G01*
X127952267Y-114832721D01*
X127966000Y-114889923D01*
X127966000Y-115088252D01*
X127956409Y-115136471D01*
X127929095Y-115177348D01*
X127878345Y-115228097D01*
X127837468Y-115255410D01*
X127789250Y-115265001D01*
X127590921Y-115265001D01*
X127533718Y-115251268D01*
X127488985Y-115213062D01*
X127466472Y-115158712D01*
X127471088Y-115100065D01*
X127501825Y-115049906D01*
X127582406Y-114969325D01*
X127664917Y-114886813D01*
X127681281Y-114873706D01*
X127685799Y-114868895D01*
X127730118Y-114821698D01*
X127732810Y-114818920D01*
X127750908Y-114800823D01*
X127801069Y-114770088D01*
X127859715Y-114765475D01*
X127914063Y-114787988D01*
G37*
%TD.AperFunction*%
%TA.AperFunction,Conductor*%
G36*
X111714561Y-112731656D02*
G01*
X111752767Y-112776389D01*
X111766500Y-112833592D01*
X111766500Y-113332264D01*
X111772986Y-113403647D01*
X111772987Y-113403649D01*
X111824173Y-113567913D01*
X111876475Y-113654431D01*
X111913185Y-113715157D01*
X112034842Y-113836814D01*
X112034844Y-113836815D01*
X112034845Y-113836816D01*
X112182087Y-113925827D01*
X112275986Y-113955086D01*
X112322053Y-113981068D01*
X112353399Y-114023669D01*
X112364500Y-114075381D01*
X112364500Y-114238500D01*
X112347619Y-114301500D01*
X112301500Y-114347619D01*
X112238500Y-114364500D01*
X111114514Y-114364500D01*
X111093676Y-114362199D01*
X111022447Y-114364438D01*
X111018489Y-114364500D01*
X110990460Y-114364500D01*
X110986402Y-114365012D01*
X110974589Y-114365941D01*
X110930237Y-114367335D01*
X110910697Y-114373012D01*
X110891347Y-114377020D01*
X110871147Y-114379572D01*
X110829882Y-114395910D01*
X110818655Y-114399753D01*
X110776053Y-114412130D01*
X110758536Y-114422490D01*
X110740789Y-114431184D01*
X110721856Y-114438680D01*
X110685958Y-114464762D01*
X110676040Y-114471277D01*
X110637845Y-114493865D01*
X110623448Y-114508262D01*
X110608423Y-114521094D01*
X110591958Y-114533057D01*
X110563665Y-114567256D01*
X110555678Y-114576032D01*
X109920211Y-115211499D01*
X109870640Y-115242045D01*
X109812628Y-115247040D01*
X109758564Y-115225420D01*
X109719994Y-115181800D01*
X109642595Y-115036996D01*
X109589131Y-114971850D01*
X109535385Y-114906361D01*
X109510899Y-114858361D01*
X109508704Y-114804519D01*
X109529205Y-114754684D01*
X109568646Y-114717975D01*
X109591362Y-114704542D01*
X109605691Y-114690212D01*
X109620719Y-114677377D01*
X109637107Y-114665472D01*
X109665303Y-114631386D01*
X109673272Y-114622630D01*
X111551407Y-112744495D01*
X111601564Y-112713759D01*
X111660211Y-112709143D01*
X111714561Y-112731656D01*
G37*
%TD.AperFunction*%
%TA.AperFunction,Conductor*%
G36*
X123903500Y-112454381D02*
G01*
X123949619Y-112500500D01*
X123966500Y-112563500D01*
X123966500Y-112711500D01*
X123949619Y-112774500D01*
X123903500Y-112820619D01*
X123840500Y-112837500D01*
X122925000Y-112837500D01*
X122925000Y-113875079D01*
X122989552Y-113866582D01*
X123051152Y-113873873D01*
X123101809Y-113909674D01*
X123129244Y-113965308D01*
X123126808Y-114027290D01*
X123095092Y-114080599D01*
X123091063Y-114084628D01*
X123074703Y-114097736D01*
X123025916Y-114149688D01*
X123023166Y-114152526D01*
X123003344Y-114172348D01*
X123000840Y-114175577D01*
X122993145Y-114184586D01*
X122962768Y-114216935D01*
X122952962Y-114234772D01*
X122942113Y-114251288D01*
X122929637Y-114267372D01*
X122912010Y-114308103D01*
X122906792Y-114318755D01*
X122885418Y-114357636D01*
X122880358Y-114377345D01*
X122873955Y-114396047D01*
X122865871Y-114414728D01*
X122858929Y-114458558D01*
X122856522Y-114470179D01*
X122845488Y-114513157D01*
X122845488Y-114533505D01*
X122843937Y-114553216D01*
X122840753Y-114573318D01*
X122844929Y-114617495D01*
X122845488Y-114629353D01*
X122845488Y-114988500D01*
X122828607Y-115051500D01*
X122782488Y-115097619D01*
X122719488Y-115114500D01*
X121081550Y-115114500D01*
X121014160Y-115094964D01*
X120967667Y-115042413D01*
X120956489Y-114973144D01*
X120984093Y-114908637D01*
X121041916Y-114868896D01*
X121122738Y-114842115D01*
X121273652Y-114749030D01*
X121399030Y-114623652D01*
X121492115Y-114472738D01*
X121547887Y-114304426D01*
X121558500Y-114200545D01*
X121558499Y-113949142D01*
X121573377Y-113889750D01*
X121614497Y-113844381D01*
X121672149Y-113823753D01*
X121732717Y-113832737D01*
X121816280Y-113867350D01*
X121874999Y-113875080D01*
X121875000Y-113875081D01*
X121875000Y-112837500D01*
X122275000Y-112837500D01*
X122275000Y-113875080D01*
X122333718Y-113867350D01*
X122351779Y-113859869D01*
X122399998Y-113850277D01*
X122448218Y-113859868D01*
X122466281Y-113867350D01*
X122524999Y-113875080D01*
X122525000Y-113875081D01*
X122525000Y-112837500D01*
X122275000Y-112837500D01*
X121875000Y-112837500D01*
X121875000Y-112563500D01*
X121891881Y-112500500D01*
X121938000Y-112454381D01*
X122001000Y-112437500D01*
X123840500Y-112437500D01*
X123903500Y-112454381D01*
G37*
%TD.AperFunction*%
%TA.AperFunction,Conductor*%
G36*
X114858624Y-110743091D02*
G01*
X114899501Y-110770405D01*
X116317751Y-112188655D01*
X116330834Y-112204985D01*
X116382665Y-112253656D01*
X116385477Y-112256381D01*
X116405230Y-112276134D01*
X116407183Y-112277649D01*
X116408424Y-112278612D01*
X116417444Y-112286316D01*
X116449679Y-112316586D01*
X116467435Y-112326347D01*
X116483957Y-112337200D01*
X116490409Y-112342205D01*
X116528062Y-112390024D01*
X116538908Y-112449914D01*
X116520415Y-112507901D01*
X116508341Y-112527476D01*
X116452606Y-112695671D01*
X116442000Y-112799497D01*
X116442000Y-113246000D01*
X118640110Y-113246000D01*
X118690497Y-113256513D01*
X118732475Y-113286299D01*
X118759037Y-113330381D01*
X118766957Y-113353015D01*
X118766958Y-113353017D01*
X118863889Y-113507282D01*
X118992714Y-113636107D01*
X118992716Y-113636108D01*
X118992719Y-113636111D01*
X119133722Y-113724709D01*
X119173369Y-113764357D01*
X119191890Y-113817285D01*
X119185611Y-113873008D01*
X119155777Y-113920488D01*
X119110078Y-113966187D01*
X119093711Y-113979301D01*
X119044928Y-114031249D01*
X119042178Y-114034087D01*
X119022356Y-114053909D01*
X119019852Y-114057138D01*
X119012157Y-114066147D01*
X118981780Y-114098496D01*
X118971974Y-114116333D01*
X118961125Y-114132849D01*
X118948649Y-114148933D01*
X118931022Y-114189664D01*
X118925804Y-114200316D01*
X118904430Y-114239197D01*
X118899370Y-114258906D01*
X118892967Y-114277608D01*
X118884883Y-114296289D01*
X118877941Y-114340119D01*
X118875534Y-114351740D01*
X118864500Y-114394718D01*
X118864500Y-114415066D01*
X118862949Y-114434775D01*
X118862351Y-114438554D01*
X118859765Y-114454879D01*
X118863941Y-114499056D01*
X118864500Y-114510914D01*
X118864500Y-114522252D01*
X118845301Y-114589106D01*
X118793556Y-114635587D01*
X118725032Y-114647530D01*
X118673592Y-114642000D01*
X118659989Y-114642000D01*
X118602623Y-114628183D01*
X118557838Y-114589764D01*
X118535455Y-114535167D01*
X118540385Y-114476367D01*
X118597393Y-114304328D01*
X118608000Y-114200503D01*
X118608000Y-113754000D01*
X116423126Y-113754000D01*
X116404258Y-113764427D01*
X116334607Y-113760515D01*
X116181049Y-113706783D01*
X116000000Y-113686384D01*
X115818950Y-113706783D01*
X115646985Y-113766956D01*
X115492717Y-113863889D01*
X115363889Y-113992717D01*
X115266956Y-114146985D01*
X115206783Y-114318950D01*
X115200661Y-114373287D01*
X115173307Y-114438554D01*
X115115087Y-114478782D01*
X115027264Y-114507884D01*
X115027262Y-114507884D01*
X115027262Y-114507885D01*
X115018715Y-114513157D01*
X114876344Y-114600972D01*
X114750972Y-114726344D01*
X114735538Y-114751367D01*
X114687253Y-114829648D01*
X114641420Y-114873524D01*
X114580014Y-114889500D01*
X113859500Y-114889500D01*
X113796500Y-114872619D01*
X113750381Y-114826500D01*
X113733500Y-114763500D01*
X113733500Y-114601362D01*
X113732042Y-114587802D01*
X113726989Y-114540799D01*
X113675889Y-114403796D01*
X113660632Y-114383415D01*
X113641948Y-114347698D01*
X113635500Y-114307906D01*
X113635500Y-114030389D01*
X113652700Y-113966840D01*
X113699603Y-113920641D01*
X113763404Y-113904403D01*
X113826686Y-113922562D01*
X113832087Y-113925827D01*
X113996351Y-113977013D01*
X114067735Y-113983500D01*
X114582264Y-113983499D01*
X114653649Y-113977013D01*
X114817913Y-113925827D01*
X114965155Y-113836816D01*
X115086816Y-113715155D01*
X115175827Y-113567913D01*
X115227013Y-113403649D01*
X115233500Y-113332265D01*
X115233499Y-112667736D01*
X115227013Y-112596351D01*
X115175827Y-112432087D01*
X115086816Y-112284845D01*
X115086815Y-112284844D01*
X115086814Y-112284842D01*
X114997405Y-112195433D01*
X114970091Y-112154556D01*
X114960500Y-112106338D01*
X114960500Y-111909069D01*
X114962800Y-111888231D01*
X114962707Y-111885283D01*
X114962708Y-111885281D01*
X114960561Y-111817001D01*
X114960500Y-111813044D01*
X114960500Y-111785021D01*
X114960500Y-111785017D01*
X114959988Y-111780966D01*
X114959057Y-111769137D01*
X114958396Y-111748100D01*
X114957664Y-111724795D01*
X114957663Y-111724792D01*
X114957408Y-111716673D01*
X114958137Y-111698621D01*
X114963616Y-111650000D01*
X114943217Y-111468953D01*
X114922763Y-111410500D01*
X114883043Y-111296985D01*
X114786112Y-111142721D01*
X114786111Y-111142719D01*
X114780755Y-111137363D01*
X114748854Y-111083423D01*
X114737868Y-111045607D01*
X114727508Y-111028090D01*
X114718811Y-111010336D01*
X114711319Y-110991412D01*
X114685237Y-110955513D01*
X114678721Y-110945592D01*
X114665738Y-110923639D01*
X114648195Y-110860490D01*
X114664743Y-110797072D01*
X114710906Y-110750546D01*
X114774191Y-110733500D01*
X114810406Y-110733500D01*
X114858624Y-110743091D01*
G37*
%TD.AperFunction*%
%TA.AperFunction,Conductor*%
G36*
X135248327Y-108005657D02*
G01*
X135281084Y-108020704D01*
X135323831Y-108048355D01*
X135324426Y-108048742D01*
X135523816Y-108179316D01*
X135532663Y-108185673D01*
X135644653Y-108273721D01*
X135646352Y-108275081D01*
X135788666Y-108391003D01*
X135795720Y-108397202D01*
X135893141Y-108489500D01*
X135905799Y-108501493D01*
X135908364Y-108503994D01*
X136031683Y-108627757D01*
X136037111Y-108633561D01*
X136138737Y-108749368D01*
X136139223Y-108749922D01*
X136142493Y-108753803D01*
X136154094Y-108768150D01*
X136250570Y-108887463D01*
X136254542Y-108892644D01*
X136346016Y-109018593D01*
X136349715Y-109023973D01*
X136443386Y-109168100D01*
X136446066Y-109172412D01*
X136525134Y-109305515D01*
X136528990Y-109312501D01*
X136608491Y-109467976D01*
X136610095Y-109471228D01*
X136675215Y-109608162D01*
X136678944Y-109616824D01*
X136745168Y-109788052D01*
X136745935Y-109790088D01*
X136795015Y-109923807D01*
X136798319Y-109934172D01*
X136859234Y-110158276D01*
X136859423Y-110158977D01*
X136883144Y-110248273D01*
X136883689Y-110250534D01*
X136885646Y-110251793D01*
X136897730Y-110250500D01*
X144373500Y-110250500D01*
X144436500Y-110267381D01*
X144482619Y-110313500D01*
X144499500Y-110376500D01*
X144499500Y-110539500D01*
X144482619Y-110602500D01*
X144436500Y-110648619D01*
X144373500Y-110665500D01*
X139286362Y-110665500D01*
X139225799Y-110672011D01*
X139088794Y-110723111D01*
X138971738Y-110810738D01*
X138884111Y-110927793D01*
X138842936Y-111038190D01*
X138800689Y-111094800D01*
X138734617Y-111119780D01*
X138665485Y-111105280D01*
X138617158Y-111079449D01*
X138587804Y-111063759D01*
X138587803Y-111063758D01*
X138587800Y-111063757D01*
X138397701Y-111006091D01*
X138200000Y-110986619D01*
X138002298Y-111006091D01*
X137812197Y-111063758D01*
X137636992Y-111157406D01*
X137483431Y-111283431D01*
X137357406Y-111436992D01*
X137263758Y-111612197D01*
X137206091Y-111802298D01*
X137186619Y-111999999D01*
X137206091Y-112197695D01*
X137206092Y-112197701D01*
X137207373Y-112201924D01*
X137210944Y-112260039D01*
X137188004Y-112313557D01*
X137143451Y-112351046D01*
X137086799Y-112364500D01*
X136284069Y-112364500D01*
X136263231Y-112362199D01*
X136192002Y-112364438D01*
X136188044Y-112364500D01*
X136160015Y-112364500D01*
X136155957Y-112365012D01*
X136144144Y-112365941D01*
X136099792Y-112367335D01*
X136080252Y-112373012D01*
X136060902Y-112377020D01*
X136040702Y-112379572D01*
X135999437Y-112395910D01*
X135988210Y-112399753D01*
X135945608Y-112412130D01*
X135928091Y-112422490D01*
X135910344Y-112431184D01*
X135891411Y-112438680D01*
X135855513Y-112464762D01*
X135845595Y-112471277D01*
X135807400Y-112493865D01*
X135793003Y-112508262D01*
X135777978Y-112521094D01*
X135761513Y-112533057D01*
X135733220Y-112567256D01*
X135725233Y-112576032D01*
X134085078Y-114216187D01*
X134068711Y-114229301D01*
X134019928Y-114281249D01*
X134017178Y-114284087D01*
X133997356Y-114303909D01*
X133994852Y-114307138D01*
X133987157Y-114316147D01*
X133956781Y-114348495D01*
X133954419Y-114352793D01*
X133915642Y-114395741D01*
X133861758Y-114416829D01*
X133804130Y-114411608D01*
X133754912Y-114381180D01*
X133549309Y-114175577D01*
X133233813Y-113860080D01*
X133220705Y-113843717D01*
X133168735Y-113794915D01*
X133165922Y-113792189D01*
X133146094Y-113772361D01*
X133145556Y-113771944D01*
X133142873Y-113769862D01*
X133133849Y-113762155D01*
X133125165Y-113754000D01*
X133101506Y-113731783D01*
X133101503Y-113731781D01*
X133083672Y-113721978D01*
X133067154Y-113711128D01*
X133051067Y-113698650D01*
X133043688Y-113695457D01*
X133010336Y-113681024D01*
X132999678Y-113675802D01*
X132960802Y-113654430D01*
X132941086Y-113649368D01*
X132922380Y-113642963D01*
X132903709Y-113634883D01*
X132859873Y-113627940D01*
X132848250Y-113625532D01*
X132805284Y-113614500D01*
X132805282Y-113614500D01*
X132784934Y-113614500D01*
X132765224Y-113612949D01*
X132745121Y-113609765D01*
X132745120Y-113609765D01*
X132700944Y-113613941D01*
X132689086Y-113614500D01*
X131815423Y-113614500D01*
X131767205Y-113604909D01*
X131726328Y-113577595D01*
X130252426Y-112103693D01*
X130225112Y-112062816D01*
X130215521Y-112014598D01*
X130215521Y-111239090D01*
X130217821Y-111218251D01*
X130217728Y-111215304D01*
X130217729Y-111215302D01*
X130215582Y-111147008D01*
X130215521Y-111143052D01*
X130215521Y-111115044D01*
X130215521Y-111115038D01*
X130215009Y-111110989D01*
X130214079Y-111099166D01*
X130213914Y-111093913D01*
X130213093Y-111067766D01*
X131645787Y-111067766D01*
X131675413Y-111337015D01*
X131694297Y-111409245D01*
X131743928Y-111599088D01*
X131772257Y-111665751D01*
X131836531Y-111817002D01*
X131849870Y-111848390D01*
X131990982Y-112079610D01*
X132164255Y-112287820D01*
X132164256Y-112287821D01*
X132164258Y-112287823D01*
X132365993Y-112468578D01*
X132365995Y-112468579D01*
X132365998Y-112468582D01*
X132591910Y-112618044D01*
X132697913Y-112667736D01*
X132837171Y-112733018D01*
X132837173Y-112733018D01*
X132837176Y-112733020D01*
X133096569Y-112811060D01*
X133096572Y-112811060D01*
X133096574Y-112811061D01*
X133364558Y-112850500D01*
X133364561Y-112850500D01*
X133567630Y-112850500D01*
X133567631Y-112850500D01*
X133770156Y-112835677D01*
X134034553Y-112776780D01*
X134287558Y-112680014D01*
X134523777Y-112547441D01*
X134738177Y-112381888D01*
X134926186Y-112186881D01*
X135083799Y-111966579D01*
X135207656Y-111725675D01*
X135295118Y-111469305D01*
X135344319Y-111202933D01*
X135354212Y-110932235D01*
X135351878Y-110911027D01*
X135336406Y-110770405D01*
X135324586Y-110662982D01*
X135256072Y-110400912D01*
X135150130Y-110151610D01*
X135009018Y-109920390D01*
X134835745Y-109712180D01*
X134835291Y-109711773D01*
X134634006Y-109531421D01*
X134634003Y-109531419D01*
X134634002Y-109531418D01*
X134408090Y-109381956D01*
X134408086Y-109381954D01*
X134162828Y-109266981D01*
X133903425Y-109188938D01*
X133635442Y-109149500D01*
X133635439Y-109149500D01*
X133432369Y-109149500D01*
X133398614Y-109151970D01*
X133229839Y-109164323D01*
X132965449Y-109223219D01*
X132712441Y-109319985D01*
X132476225Y-109452557D01*
X132261820Y-109618114D01*
X132073815Y-109813117D01*
X131916200Y-110033422D01*
X131792342Y-110274328D01*
X131704882Y-110530693D01*
X131655681Y-110797065D01*
X131645787Y-111067766D01*
X130213093Y-111067766D01*
X130212686Y-111054816D01*
X130207008Y-111035272D01*
X130202998Y-111015910D01*
X130202294Y-111010336D01*
X130200448Y-110995722D01*
X130184113Y-110954464D01*
X130180269Y-110943237D01*
X130177644Y-110934201D01*
X130167890Y-110900628D01*
X130157525Y-110883103D01*
X130148836Y-110865367D01*
X130141340Y-110846433D01*
X130115260Y-110810537D01*
X130108744Y-110800617D01*
X130086156Y-110762423D01*
X130086155Y-110762422D01*
X130071761Y-110748028D01*
X130058925Y-110732998D01*
X130046964Y-110716535D01*
X130012769Y-110688246D01*
X130003990Y-110680257D01*
X128570404Y-109246671D01*
X128543090Y-109205794D01*
X128533499Y-109157576D01*
X128533499Y-108867735D01*
X128527013Y-108796352D01*
X128521502Y-108778666D01*
X128475827Y-108632087D01*
X128386816Y-108484845D01*
X128386815Y-108484844D01*
X128386814Y-108484842D01*
X128265157Y-108363185D01*
X128191983Y-108318950D01*
X128117913Y-108274173D01*
X128030051Y-108246794D01*
X127971233Y-108207750D01*
X127942648Y-108143198D01*
X127953271Y-108073404D01*
X127999766Y-108020278D01*
X128067537Y-108000500D01*
X135212650Y-108000500D01*
X135248327Y-108005657D01*
G37*
%TD.AperFunction*%
%TA.AperFunction,Conductor*%
G36*
X111859258Y-108013876D02*
G01*
X111903759Y-108051163D01*
X111926817Y-108104445D01*
X111923536Y-108162410D01*
X111894614Y-108212751D01*
X111883413Y-108224678D01*
X111873652Y-108242434D01*
X111862801Y-108258952D01*
X111850385Y-108274959D01*
X111832824Y-108315539D01*
X111827604Y-108326195D01*
X111806304Y-108364940D01*
X111801267Y-108384559D01*
X111794864Y-108403261D01*
X111786818Y-108421855D01*
X111779901Y-108465524D01*
X111777495Y-108477144D01*
X111766500Y-108519970D01*
X111766500Y-108540224D01*
X111764949Y-108559934D01*
X111761779Y-108579942D01*
X111765941Y-108623961D01*
X111766500Y-108635819D01*
X111766500Y-110685405D01*
X111756909Y-110733623D01*
X111729595Y-110774500D01*
X108974500Y-113529595D01*
X108933623Y-113556909D01*
X108885405Y-113566500D01*
X106883853Y-113566500D01*
X106863063Y-113564204D01*
X106792001Y-113566438D01*
X106788043Y-113566500D01*
X106760142Y-113566500D01*
X106756134Y-113567006D01*
X106744313Y-113567936D01*
X106700108Y-113569325D01*
X106680651Y-113574978D01*
X106661301Y-113578986D01*
X106641202Y-113581525D01*
X106600093Y-113597802D01*
X106588865Y-113601646D01*
X106546408Y-113613981D01*
X106528964Y-113624297D01*
X106511217Y-113632990D01*
X106492384Y-113640446D01*
X106456611Y-113666437D01*
X106446693Y-113672951D01*
X106408639Y-113695457D01*
X106394312Y-113709783D01*
X106379283Y-113722618D01*
X106362894Y-113734525D01*
X106334701Y-113768604D01*
X106326713Y-113777381D01*
X106149081Y-113955013D01*
X106102434Y-113984553D01*
X106047636Y-113991311D01*
X106000000Y-113986619D01*
X105802298Y-114006091D01*
X105612197Y-114063758D01*
X105436992Y-114157406D01*
X105283433Y-114283429D01*
X105223899Y-114355972D01*
X105174718Y-114392447D01*
X105114150Y-114401431D01*
X105056498Y-114380803D01*
X105015378Y-114335434D01*
X105000500Y-114276038D01*
X105000500Y-111067766D01*
X106645787Y-111067766D01*
X106675413Y-111337015D01*
X106694297Y-111409245D01*
X106743928Y-111599088D01*
X106772257Y-111665751D01*
X106836531Y-111817002D01*
X106849870Y-111848390D01*
X106990982Y-112079610D01*
X107164255Y-112287820D01*
X107164256Y-112287821D01*
X107164258Y-112287823D01*
X107365993Y-112468578D01*
X107365995Y-112468579D01*
X107365998Y-112468582D01*
X107591910Y-112618044D01*
X107697913Y-112667736D01*
X107837171Y-112733018D01*
X107837173Y-112733018D01*
X107837176Y-112733020D01*
X108096569Y-112811060D01*
X108096572Y-112811060D01*
X108096574Y-112811061D01*
X108364558Y-112850500D01*
X108364561Y-112850500D01*
X108567630Y-112850500D01*
X108567631Y-112850500D01*
X108770156Y-112835677D01*
X109034553Y-112776780D01*
X109287558Y-112680014D01*
X109523777Y-112547441D01*
X109738177Y-112381888D01*
X109926186Y-112186881D01*
X110083799Y-111966579D01*
X110207656Y-111725675D01*
X110295118Y-111469305D01*
X110344319Y-111202933D01*
X110354212Y-110932235D01*
X110351878Y-110911027D01*
X110336406Y-110770405D01*
X110324586Y-110662982D01*
X110256072Y-110400912D01*
X110150130Y-110151610D01*
X110009018Y-109920390D01*
X109835745Y-109712180D01*
X109835291Y-109711773D01*
X109634006Y-109531421D01*
X109634003Y-109531419D01*
X109634002Y-109531418D01*
X109408090Y-109381956D01*
X109408086Y-109381954D01*
X109162828Y-109266981D01*
X108903425Y-109188938D01*
X108635442Y-109149500D01*
X108635439Y-109149500D01*
X108432369Y-109149500D01*
X108398614Y-109151970D01*
X108229839Y-109164323D01*
X107965449Y-109223219D01*
X107712441Y-109319985D01*
X107476225Y-109452557D01*
X107261820Y-109618114D01*
X107073815Y-109813117D01*
X106916200Y-110033422D01*
X106792342Y-110274328D01*
X106704882Y-110530693D01*
X106655681Y-110797065D01*
X106645787Y-111067766D01*
X105000500Y-111067766D01*
X105000500Y-111003011D01*
X105000643Y-110997004D01*
X105001139Y-110986619D01*
X105005521Y-110894801D01*
X105017610Y-110664516D01*
X105018720Y-110653200D01*
X105040004Y-110505486D01*
X105040235Y-110503962D01*
X105069255Y-110321127D01*
X105071255Y-110311157D01*
X105108484Y-110158032D01*
X105109202Y-110155222D01*
X105155025Y-109984583D01*
X105157669Y-109975983D01*
X105166534Y-109950427D01*
X105210398Y-109823977D01*
X105211770Y-109820222D01*
X105274117Y-109658178D01*
X105277104Y-109651079D01*
X105344680Y-109503461D01*
X105346960Y-109498750D01*
X105425397Y-109345184D01*
X105428501Y-109339483D01*
X105509995Y-109198689D01*
X105513446Y-109193074D01*
X105526900Y-109172412D01*
X105607469Y-109048674D01*
X105610483Y-109044256D01*
X105704783Y-108912194D01*
X105709458Y-108906057D01*
X105818902Y-108771299D01*
X105821520Y-108768185D01*
X105927066Y-108646747D01*
X105933156Y-108640227D01*
X106058376Y-108515420D01*
X106060346Y-108513503D01*
X106174649Y-108404887D01*
X106182257Y-108398222D01*
X106326516Y-108281850D01*
X106327459Y-108281100D01*
X106445070Y-108188972D01*
X106454332Y-108182371D01*
X106646887Y-108057896D01*
X106705571Y-108020356D01*
X106773464Y-108000500D01*
X111802762Y-108000500D01*
X111859258Y-108013876D01*
G37*
%TD.AperFunction*%
%TD*%
M02*
