%TF.GenerationSoftware,KiCad,Pcbnew,7.0.1*%
%TF.CreationDate,2023-06-05T17:33:29-04:00*%
%TF.ProjectId,elevation-imu,656c6576-6174-4696-9f6e-2d696d752e6b,rev?*%
%TF.SameCoordinates,Original*%
%TF.FileFunction,Copper,L2,Bot*%
%TF.FilePolarity,Positive*%
%FSLAX46Y46*%
G04 Gerber Fmt 4.6, Leading zero omitted, Abs format (unit mm)*
G04 Created by KiCad (PCBNEW 7.0.1) date 2023-06-05 17:33:29*
%MOMM*%
%LPD*%
G01*
G04 APERTURE LIST*
%TA.AperFunction,ComponentPad*%
%ADD10C,1.000000*%
%TD*%
%TA.AperFunction,SMDPad,CuDef*%
%ADD11R,5.080000X2.032000*%
%TD*%
%TA.AperFunction,ViaPad*%
%ADD12C,0.600000*%
%TD*%
%TA.AperFunction,ViaPad*%
%ADD13C,0.800000*%
%TD*%
%TA.AperFunction,Conductor*%
%ADD14C,0.250000*%
%TD*%
%TA.AperFunction,Conductor*%
%ADD15C,0.254000*%
%TD*%
G04 APERTURE END LIST*
D10*
%TO.P,TP9,1,1*%
%TO.N,/SDO*%
X107000000Y-116800000D03*
%TD*%
%TO.P,TP8,1,1*%
%TO.N,GND*%
X138000000Y-120600000D03*
%TD*%
D11*
%TO.P,J1,2,Pin_2*%
%TO.N,/SDI_IN*%
X141875000Y-112190000D03*
%TO.P,J1,4,Pin_4*%
%TO.N,/~{CS}_IN*%
X141875000Y-114730000D03*
%TO.P,J1,6,Pin_6*%
%TO.N,/CLK_IN*%
X141875000Y-117270000D03*
%TO.P,J1,8,Pin_8*%
%TO.N,/SDO_OUT*%
X141875000Y-119810000D03*
%TD*%
D10*
%TO.P,TP7,1,1*%
%TO.N,/SDO_OUT*%
X137600000Y-118600000D03*
%TD*%
%TO.P,TP6,1,1*%
%TO.N,/CLK_IN*%
X138200000Y-116400000D03*
%TD*%
%TO.P,TP5,1,1*%
%TO.N,/~{CS}*%
X108800000Y-115600000D03*
%TD*%
%TO.P,TP4,1,1*%
%TO.N,/~{CS}_IN*%
X138200000Y-114200000D03*
%TD*%
%TO.P,TP3,1,1*%
%TO.N,/SCL*%
X106000000Y-115000000D03*
%TD*%
%TO.P,TP2,1,1*%
%TO.N,/SDI_IN*%
X138200000Y-112000000D03*
%TD*%
%TO.P,TP1,1,1*%
%TO.N,/SDI*%
X110400000Y-116800000D03*
%TD*%
D12*
%TO.N,GND*%
X111200000Y-113800000D03*
X110800000Y-109400000D03*
X116000000Y-118800000D03*
%TO.N,/SCL*%
X120000000Y-110600000D03*
%TO.N,/SDO*%
X122000000Y-116600000D03*
%TO.N,+3V3*%
X119200000Y-120600000D03*
%TO.N,/~{CS}*%
X113800000Y-116200000D03*
%TO.N,/INT_OUT*%
X136029447Y-116120890D03*
X128674876Y-116319753D03*
%TO.N,/CLK_IN*%
X126000000Y-114400000D03*
%TO.N,/SDI_IN*%
X126624500Y-111473474D03*
D13*
%TO.N,GND*%
X136200000Y-118000000D03*
D12*
%TO.N,+3V3*%
X119500000Y-113000000D03*
X116000000Y-114500000D03*
%TO.N,GND*%
X127845169Y-115274001D03*
X122750000Y-114000000D03*
X122750000Y-123000000D03*
X130000000Y-109500000D03*
X113887018Y-121998987D03*
X124250000Y-111324502D03*
X129868541Y-116123502D03*
X116750000Y-113000000D03*
X128200000Y-121750000D03*
X122618003Y-120868003D03*
X116500000Y-117500000D03*
%TO.N,+5V*%
X114150000Y-111650000D03*
X126000000Y-108500000D03*
%TO.N,/SDO_OUT*%
X124500000Y-119750000D03*
%TO.N,/~{CS}_IN*%
X126049001Y-110849001D03*
%TO.N,Net-(JP1-A)*%
X119600000Y-122600000D03*
X123214221Y-116123499D03*
%TO.N,/INT*%
X126000000Y-115653000D03*
X117000000Y-122000000D03*
%TO.N,Net-(JP1-B)*%
X114686115Y-122024461D03*
X115207346Y-117244661D03*
%TO.N,/SDI*%
X121384434Y-111701571D03*
X120606246Y-118104906D03*
%TO.N,/SCL*%
X119958462Y-118573500D03*
%TO.N,/CLK_HV*%
X124750000Y-114750000D03*
X117400000Y-111800000D03*
%TD*%
D14*
%TO.N,/CLK_IN*%
X136071380Y-115400000D02*
X135972378Y-115499002D01*
X137200000Y-115400000D02*
X136071380Y-115400000D01*
X138200000Y-116400000D02*
X137200000Y-115400000D01*
X127564310Y-114400000D02*
X126000000Y-114400000D01*
X127813811Y-114649501D02*
X127564310Y-114400000D01*
X135972378Y-115499002D02*
X129378648Y-115499002D01*
X128529147Y-114649501D02*
X127813811Y-114649501D01*
X129378648Y-115499002D02*
X128529147Y-114649501D01*
X141005000Y-116400000D02*
X141875000Y-117270000D01*
X138200000Y-116400000D02*
X141005000Y-116400000D01*
%TO.N,/SDO_OUT*%
X138470500Y-117929500D02*
X138293810Y-117929500D01*
X130962982Y-116748499D02*
X130509978Y-117201503D01*
X138293810Y-117929500D02*
X137112809Y-116748499D01*
X130509978Y-117201503D02*
X126737492Y-117201503D01*
X137112809Y-116748499D02*
X130962982Y-116748499D01*
%TO.N,/~{CS}*%
X113200000Y-115600000D02*
X108800000Y-115600000D01*
X113800000Y-116200000D02*
X113200000Y-115600000D01*
%TO.N,/SDO*%
X116200000Y-116200000D02*
X115600000Y-116200000D01*
X114175000Y-114775000D02*
X108025000Y-114775000D01*
X107000000Y-115800000D02*
X107000000Y-116800000D01*
X108025000Y-114775000D02*
X107000000Y-115800000D01*
X115600000Y-116200000D02*
X114175000Y-114775000D01*
X122000000Y-118683177D02*
X119458677Y-121224500D01*
X122000000Y-116600000D02*
X122000000Y-118683177D01*
X119458677Y-121224500D02*
X118224500Y-121224500D01*
X118224500Y-121224500D02*
X117400000Y-120400000D01*
X117400000Y-117400000D02*
X116200000Y-116200000D01*
X117400000Y-120400000D02*
X117400000Y-117400000D01*
D15*
%TO.N,+3V3*%
X119000000Y-120400000D02*
X119200000Y-120600000D01*
X119000000Y-119400000D02*
X119000000Y-120400000D01*
%TO.N,/INT*%
X125843999Y-115496999D02*
X126000000Y-115653000D01*
X122496999Y-116210994D02*
X122496999Y-115496999D01*
X122626500Y-116340495D02*
X122496999Y-116210994D01*
X122626500Y-116859505D02*
X122626500Y-116340495D01*
X122451501Y-117034504D02*
X122626500Y-116859505D01*
X119400000Y-122000000D02*
X122451501Y-118948499D01*
X122451501Y-118948499D02*
X122451501Y-117034504D01*
X122496999Y-115496999D02*
X125843999Y-115496999D01*
X117000000Y-122000000D02*
X119400000Y-122000000D01*
%TO.N,Net-(JP1-A)*%
X123214221Y-116123499D02*
X123214221Y-119385779D01*
X123214221Y-119385779D02*
X120000000Y-122600000D01*
X120000000Y-122600000D02*
X119600000Y-122600000D01*
%TO.N,GND*%
X116976500Y-123226500D02*
X122523500Y-123226500D01*
X115250000Y-121500000D02*
X116976500Y-123226500D01*
X115250000Y-118750000D02*
X115250000Y-121500000D01*
X116500000Y-117500000D02*
X115250000Y-118750000D01*
X122523500Y-123226500D02*
X122750000Y-123000000D01*
%TO.N,/SDI*%
X121348499Y-117362653D02*
X120606246Y-118104906D01*
X121348499Y-111737506D02*
X121348499Y-117362653D01*
X121384434Y-111701571D02*
X121348499Y-111737506D01*
%TO.N,/SCL*%
X120745319Y-116004681D02*
X119958462Y-116791538D01*
X120745319Y-111345319D02*
X120745319Y-116004681D01*
X119958462Y-116791538D02*
X119958462Y-118573500D01*
X120000000Y-110600000D02*
X120745319Y-111345319D01*
%TO.N,+3V3*%
X119000000Y-119200000D02*
X119000000Y-119400000D01*
X118600000Y-118800000D02*
X119000000Y-119200000D01*
X118600000Y-118000000D02*
X118600000Y-118800000D01*
X118600000Y-117486005D02*
X118600000Y-118000000D01*
X116000000Y-114886005D02*
X118600000Y-117486005D01*
%TO.N,Net-(JP1-B)*%
X114686115Y-117765892D02*
X115207346Y-117244661D01*
X114686115Y-122024461D02*
X114686115Y-117765892D01*
%TO.N,+3V3*%
X116000000Y-114500000D02*
X116000000Y-114886005D01*
%TO.N,/SDO_OUT*%
X126735989Y-117200000D02*
X126737492Y-117201503D01*
X125663993Y-117200000D02*
X126735989Y-117200000D01*
X124500000Y-118363993D02*
X125663993Y-117200000D01*
X124500000Y-119750000D02*
X124500000Y-118363993D01*
%TO.N,GND*%
X135400000Y-117200000D02*
X136200000Y-118000000D01*
X131150000Y-117200000D02*
X135400000Y-117200000D01*
X128250000Y-120100000D02*
X131150000Y-117200000D01*
X128250000Y-121750000D02*
X128250000Y-120100000D01*
%TO.N,/INT_OUT*%
X129105125Y-116750002D02*
X128674876Y-116319753D01*
X130952073Y-116120890D02*
X130322961Y-116750002D01*
X130322961Y-116750002D02*
X129105125Y-116750002D01*
X136029447Y-116120890D02*
X130952073Y-116120890D01*
D14*
%TO.N,/SDI_IN*%
X138200000Y-112000000D02*
X135600000Y-114600000D01*
D15*
%TO.N,GND*%
X129695542Y-115950503D02*
X129868541Y-116123502D01*
X129191631Y-115950503D02*
X129695542Y-115950503D01*
X128515129Y-115274001D02*
X129191631Y-115950503D01*
X127845169Y-115274001D02*
X128515129Y-115274001D01*
D14*
%TO.N,/~{CS}_IN*%
X126000000Y-112200000D02*
X126000000Y-110898002D01*
X128000000Y-114200000D02*
X126000000Y-112200000D01*
X128715336Y-114200000D02*
X128000000Y-114200000D01*
X135786189Y-115049501D02*
X129564837Y-115049501D01*
X136386189Y-114449501D02*
X135786189Y-115049501D01*
X141594501Y-114449501D02*
X136386189Y-114449501D01*
X141875000Y-114730000D02*
X141594501Y-114449501D01*
X129564837Y-115049501D02*
X128715336Y-114200000D01*
%TO.N,/SDI_IN*%
X135600000Y-114600000D02*
X129751026Y-114600000D01*
%TO.N,/~{CS}_IN*%
X126000000Y-110898002D02*
X126049001Y-110849001D01*
%TO.N,/SDI_IN*%
X129751026Y-114600000D02*
X126624500Y-111473474D01*
%TO.N,/SDO_OUT*%
X138270500Y-117929500D02*
X137600000Y-118600000D01*
X140351000Y-119810000D02*
X138470500Y-117929500D01*
X138470500Y-117929500D02*
X138270500Y-117929500D01*
%TO.N,/CLK_HV*%
X119700000Y-109500000D02*
X117400000Y-111800000D01*
X121261482Y-109500000D02*
X119700000Y-109500000D01*
X124750000Y-114750000D02*
X123798499Y-113798499D01*
X123798499Y-113798499D02*
X123798499Y-112037017D01*
X123798499Y-112037017D02*
X121261482Y-109500000D01*
D15*
%TO.N,+5V*%
X114150000Y-110350000D02*
X114150000Y-111650000D01*
X116000000Y-108500000D02*
X114150000Y-110350000D01*
X126000000Y-108500000D02*
X116000000Y-108500000D01*
D14*
%TO.N,/SDI_IN*%
X138390000Y-112190000D02*
X138200000Y-112000000D01*
X141875000Y-112190000D02*
X138390000Y-112190000D01*
%TO.N,/SDO_OUT*%
X141875000Y-119810000D02*
X140351000Y-119810000D01*
D15*
%TO.N,GND*%
X127799793Y-115274001D02*
X127845169Y-115274001D01*
X127552292Y-115026500D02*
X127799793Y-115274001D01*
X125740495Y-115026500D02*
X127552292Y-115026500D01*
X124250000Y-112450000D02*
X125373500Y-113573500D01*
X125373500Y-114659505D02*
X125740495Y-115026500D01*
X125373500Y-113573500D02*
X125373500Y-114659505D01*
X124250000Y-111324502D02*
X124250000Y-112450000D01*
%TO.N,+3V3*%
X119500000Y-113000000D02*
X118000000Y-114500000D01*
X118000000Y-114500000D02*
X116000000Y-114500000D01*
%TO.N,GND*%
X121973987Y-109048489D02*
X119065504Y-109048489D01*
X128250000Y-121750000D02*
X124000000Y-121750000D01*
X119065504Y-109048489D02*
X116750000Y-111363993D01*
X124250000Y-111324502D02*
X121973987Y-109048489D01*
X124000000Y-121750000D02*
X122750000Y-123000000D01*
X116750000Y-111363993D02*
X116750000Y-113000000D01*
%TD*%
%TA.AperFunction,Conductor*%
%TO.N,GND*%
G36*
X105174718Y-115607553D02*
G01*
X105223899Y-115644028D01*
X105283433Y-115716570D01*
X105436992Y-115842593D01*
X105436996Y-115842595D01*
X105612196Y-115936241D01*
X105707247Y-115965074D01*
X105802298Y-115993908D01*
X105999998Y-116013380D01*
X105999998Y-116013379D01*
X106000000Y-116013380D01*
X106068175Y-116006665D01*
X106126447Y-116014724D01*
X106174710Y-116048361D01*
X106202442Y-116100242D01*
X106203598Y-116159059D01*
X106177926Y-116211990D01*
X106157404Y-116236996D01*
X106063758Y-116412197D01*
X106006091Y-116602298D01*
X105986619Y-116800000D01*
X106006091Y-116997701D01*
X106063758Y-117187802D01*
X106157406Y-117363007D01*
X106283431Y-117516568D01*
X106436992Y-117642593D01*
X106436996Y-117642595D01*
X106612196Y-117736241D01*
X106692128Y-117760488D01*
X106802298Y-117793908D01*
X107000000Y-117813380D01*
X107197701Y-117793908D01*
X107387804Y-117736241D01*
X107563004Y-117642595D01*
X107563005Y-117642593D01*
X107563007Y-117642593D01*
X107716568Y-117516568D01*
X107842593Y-117363007D01*
X107845783Y-117357039D01*
X107936241Y-117187804D01*
X107993908Y-116997701D01*
X108013380Y-116800000D01*
X107993908Y-116602299D01*
X107969401Y-116521513D01*
X107966903Y-116457936D01*
X107995790Y-116401242D01*
X108048694Y-116365893D01*
X108112126Y-116360900D01*
X108169910Y-116387539D01*
X108236995Y-116442595D01*
X108279794Y-116465471D01*
X108412196Y-116536241D01*
X108498072Y-116562291D01*
X108602298Y-116593908D01*
X108800000Y-116613380D01*
X108997701Y-116593908D01*
X109187804Y-116536241D01*
X109217195Y-116520530D01*
X109282774Y-116505805D01*
X109346593Y-116526888D01*
X109390494Y-116577781D01*
X109401984Y-116644003D01*
X109386619Y-116799999D01*
X109406091Y-116997701D01*
X109463758Y-117187802D01*
X109557406Y-117363007D01*
X109683431Y-117516568D01*
X109836992Y-117642593D01*
X109836996Y-117642595D01*
X110012196Y-117736241D01*
X110092128Y-117760488D01*
X110202298Y-117793908D01*
X110400000Y-117813380D01*
X110597701Y-117793908D01*
X110787804Y-117736241D01*
X110963004Y-117642595D01*
X110963005Y-117642593D01*
X110963007Y-117642593D01*
X111116568Y-117516568D01*
X111242593Y-117363007D01*
X111245783Y-117357039D01*
X111336241Y-117187804D01*
X111393908Y-116997701D01*
X111413380Y-116800000D01*
X111405608Y-116721094D01*
X111393908Y-116602298D01*
X111332639Y-116400321D01*
X111335224Y-116399536D01*
X111324982Y-116356408D01*
X111342870Y-116294723D01*
X111388839Y-116249869D01*
X111450944Y-116233500D01*
X112877558Y-116233500D01*
X112936434Y-116248101D01*
X112981664Y-116288521D01*
X113002765Y-116345389D01*
X113005588Y-116370444D01*
X113006783Y-116381049D01*
X113066956Y-116553014D01*
X113163889Y-116707282D01*
X113292717Y-116836110D01*
X113446984Y-116933042D01*
X113446985Y-116933043D01*
X113618953Y-116993217D01*
X113800000Y-117013616D01*
X113981047Y-116993217D01*
X114153015Y-116933043D01*
X114241390Y-116877512D01*
X114299950Y-116858485D01*
X114360534Y-116869480D01*
X114408674Y-116907870D01*
X114432875Y-116964489D01*
X114427356Y-117025812D01*
X114419761Y-117047518D01*
X114414127Y-117063619D01*
X114409473Y-117104926D01*
X114397787Y-117145487D01*
X114373361Y-117179912D01*
X114296191Y-117257081D01*
X114279826Y-117270193D01*
X114231043Y-117322141D01*
X114228293Y-117324979D01*
X114208471Y-117344801D01*
X114205967Y-117348030D01*
X114198272Y-117357039D01*
X114167895Y-117389388D01*
X114158089Y-117407225D01*
X114147240Y-117423741D01*
X114134764Y-117439825D01*
X114117137Y-117480556D01*
X114111919Y-117491208D01*
X114090545Y-117530089D01*
X114085485Y-117549798D01*
X114079082Y-117568500D01*
X114070998Y-117587181D01*
X114064056Y-117631011D01*
X114061649Y-117642632D01*
X114050615Y-117685610D01*
X114050615Y-117705958D01*
X114049064Y-117725667D01*
X114047575Y-117735069D01*
X114045880Y-117745771D01*
X114050056Y-117789948D01*
X114050615Y-117801806D01*
X114050615Y-121479908D01*
X114031302Y-121546944D01*
X113953071Y-121671446D01*
X113892898Y-121843411D01*
X113872499Y-122024460D01*
X113892898Y-122205510D01*
X113953071Y-122377475D01*
X114050004Y-122531743D01*
X114178832Y-122660571D01*
X114333100Y-122757504D01*
X114493456Y-122813615D01*
X114505068Y-122817678D01*
X114686115Y-122838077D01*
X114867162Y-122817678D01*
X115039130Y-122757504D01*
X115193396Y-122660572D01*
X115322226Y-122531742D01*
X115419158Y-122377476D01*
X115479332Y-122205508D01*
X115499731Y-122024461D01*
X115479332Y-121843414D01*
X115446610Y-121749901D01*
X115419158Y-121671446D01*
X115340928Y-121546944D01*
X115321615Y-121479908D01*
X115321615Y-118150646D01*
X115332128Y-118100260D01*
X115361913Y-118058281D01*
X115406000Y-118031717D01*
X115560361Y-117977704D01*
X115714627Y-117880772D01*
X115843457Y-117751942D01*
X115940389Y-117597676D01*
X116000563Y-117425708D01*
X116020962Y-117244661D01*
X116019655Y-117233064D01*
X116027918Y-117172050D01*
X116064110Y-117122234D01*
X116119586Y-117095517D01*
X116181099Y-117098279D01*
X116233957Y-117129861D01*
X116729595Y-117625499D01*
X116756909Y-117666376D01*
X116766500Y-117714594D01*
X116766500Y-120316147D01*
X116764204Y-120336935D01*
X116766438Y-120407986D01*
X116766500Y-120411945D01*
X116766500Y-120439857D01*
X116767007Y-120443873D01*
X116767937Y-120455696D01*
X116769326Y-120499892D01*
X116774977Y-120519341D01*
X116778986Y-120538696D01*
X116781525Y-120558794D01*
X116797801Y-120599903D01*
X116801644Y-120611130D01*
X116813980Y-120653590D01*
X116824294Y-120671030D01*
X116832987Y-120688774D01*
X116840448Y-120707617D01*
X116840449Y-120707619D01*
X116866431Y-120743380D01*
X116872948Y-120753301D01*
X116895458Y-120791363D01*
X116909778Y-120805683D01*
X116922618Y-120820716D01*
X116934526Y-120837105D01*
X116968592Y-120865287D01*
X116977373Y-120873277D01*
X117076056Y-120971961D01*
X117109801Y-121033019D01*
X117105889Y-121102671D01*
X117065520Y-121159567D01*
X117001068Y-121186264D01*
X117000001Y-121186384D01*
X116910536Y-121196464D01*
X116818950Y-121206783D01*
X116646985Y-121266956D01*
X116492717Y-121363889D01*
X116363889Y-121492717D01*
X116266956Y-121646985D01*
X116206783Y-121818950D01*
X116186384Y-122000000D01*
X116206783Y-122181049D01*
X116266956Y-122353014D01*
X116363889Y-122507282D01*
X116492717Y-122636110D01*
X116646985Y-122733043D01*
X116771978Y-122776780D01*
X116818953Y-122793217D01*
X117000000Y-122813616D01*
X117181047Y-122793217D01*
X117353015Y-122733043D01*
X117477517Y-122654812D01*
X117544553Y-122635500D01*
X118677783Y-122635500D01*
X118736658Y-122650101D01*
X118781889Y-122690521D01*
X118802991Y-122747391D01*
X118806783Y-122781049D01*
X118866956Y-122953014D01*
X118963889Y-123107282D01*
X119092717Y-123236110D01*
X119150560Y-123272455D01*
X119246985Y-123333043D01*
X119418953Y-123393217D01*
X119600000Y-123413616D01*
X119781047Y-123393217D01*
X119953015Y-123333043D01*
X120101837Y-123239531D01*
X120153082Y-123221212D01*
X120159299Y-123220427D01*
X120200555Y-123204092D01*
X120211765Y-123200253D01*
X120254393Y-123187869D01*
X120271907Y-123177510D01*
X120289667Y-123168810D01*
X120308586Y-123161320D01*
X120308586Y-123161319D01*
X120308588Y-123161319D01*
X120344499Y-123135227D01*
X120354399Y-123128724D01*
X120392598Y-123106134D01*
X120406986Y-123091745D01*
X120422021Y-123078904D01*
X120438487Y-123066942D01*
X120466788Y-123032729D01*
X120474757Y-123023973D01*
X122430965Y-121067766D01*
X131645787Y-121067766D01*
X131675413Y-121337015D01*
X131679169Y-121351381D01*
X131743928Y-121599088D01*
X131849870Y-121848390D01*
X131990982Y-122079610D01*
X132164255Y-122287820D01*
X132164256Y-122287821D01*
X132164258Y-122287823D01*
X132365993Y-122468578D01*
X132365995Y-122468579D01*
X132365998Y-122468582D01*
X132591910Y-122618044D01*
X132683247Y-122660861D01*
X132837171Y-122733018D01*
X132837173Y-122733018D01*
X132837176Y-122733020D01*
X133096569Y-122811060D01*
X133096572Y-122811060D01*
X133096574Y-122811061D01*
X133364558Y-122850500D01*
X133364561Y-122850500D01*
X133567630Y-122850500D01*
X133567631Y-122850500D01*
X133770156Y-122835677D01*
X134034553Y-122776780D01*
X134287558Y-122680014D01*
X134523777Y-122547441D01*
X134738177Y-122381888D01*
X134926186Y-122186881D01*
X135083799Y-121966579D01*
X135207656Y-121725675D01*
X135295118Y-121469305D01*
X135344319Y-121202933D01*
X135354212Y-120932235D01*
X135324586Y-120662982D01*
X135308120Y-120600000D01*
X136987122Y-120600000D01*
X137006584Y-120797603D01*
X137064222Y-120987607D01*
X137130042Y-121110746D01*
X137640790Y-120600000D01*
X137640790Y-120599999D01*
X137130042Y-120089251D01*
X137130041Y-120089252D01*
X137064223Y-120212390D01*
X137006584Y-120402396D01*
X136987122Y-120600000D01*
X135308120Y-120600000D01*
X135256072Y-120400912D01*
X135150130Y-120151610D01*
X135009018Y-119920390D01*
X134835745Y-119712180D01*
X134830962Y-119707894D01*
X134634006Y-119531421D01*
X134634003Y-119531419D01*
X134634002Y-119531418D01*
X134408090Y-119381956D01*
X134403088Y-119379611D01*
X134162828Y-119266981D01*
X133903425Y-119188938D01*
X133635442Y-119149500D01*
X133635439Y-119149500D01*
X133432369Y-119149500D01*
X133398614Y-119151970D01*
X133229839Y-119164323D01*
X132965449Y-119223219D01*
X132712441Y-119319985D01*
X132476225Y-119452557D01*
X132261820Y-119618114D01*
X132073815Y-119813117D01*
X131916200Y-120033422D01*
X131792342Y-120274328D01*
X131704882Y-120530693D01*
X131655681Y-120797065D01*
X131645787Y-121067766D01*
X122430965Y-121067766D01*
X123528934Y-119969797D01*
X123583146Y-119937818D01*
X123646064Y-119936053D01*
X123701986Y-119964943D01*
X123736956Y-120017278D01*
X123766957Y-120103015D01*
X123863889Y-120257282D01*
X123992717Y-120386110D01*
X124127018Y-120470497D01*
X124146985Y-120483043D01*
X124318953Y-120543217D01*
X124500000Y-120563616D01*
X124681047Y-120543217D01*
X124853015Y-120483043D01*
X125007281Y-120386111D01*
X125136111Y-120257281D01*
X125233043Y-120103015D01*
X125293217Y-119931047D01*
X125313616Y-119750000D01*
X125293217Y-119568953D01*
X125233043Y-119396985D01*
X125154812Y-119272482D01*
X125135500Y-119205447D01*
X125135500Y-118679416D01*
X125145091Y-118631198D01*
X125172405Y-118590320D01*
X125890322Y-117872404D01*
X125931199Y-117845091D01*
X125979417Y-117835500D01*
X126668069Y-117835500D01*
X126687779Y-117837050D01*
X126717372Y-117841738D01*
X126782704Y-117835562D01*
X126794563Y-117835003D01*
X130426125Y-117835003D01*
X130446913Y-117837298D01*
X130449885Y-117837204D01*
X130449887Y-117837205D01*
X130517963Y-117835065D01*
X130521923Y-117835003D01*
X130549830Y-117835003D01*
X130549834Y-117835003D01*
X130553843Y-117834496D01*
X130565677Y-117833564D01*
X130609867Y-117832176D01*
X130629316Y-117826524D01*
X130648676Y-117822515D01*
X130668775Y-117819977D01*
X130709893Y-117803696D01*
X130721095Y-117799860D01*
X130763571Y-117787521D01*
X130781017Y-117777202D01*
X130798758Y-117768512D01*
X130817595Y-117761055D01*
X130853370Y-117735061D01*
X130863281Y-117728551D01*
X130901340Y-117706045D01*
X130915669Y-117691715D01*
X130930697Y-117678880D01*
X130947085Y-117666975D01*
X130975276Y-117632896D01*
X130983246Y-117624137D01*
X131188481Y-117418903D01*
X131229359Y-117391590D01*
X131277577Y-117381999D01*
X136798215Y-117381999D01*
X136846433Y-117391590D01*
X136887310Y-117418904D01*
X137042400Y-117573994D01*
X137076014Y-117634477D01*
X137072618Y-117703590D01*
X137033238Y-117760488D01*
X136883431Y-117883431D01*
X136757406Y-118036992D01*
X136663758Y-118212197D01*
X136606091Y-118402298D01*
X136586619Y-118600000D01*
X136606091Y-118797701D01*
X136663758Y-118987802D01*
X136757406Y-119163007D01*
X136883431Y-119316568D01*
X137036992Y-119442593D01*
X137036996Y-119442595D01*
X137212196Y-119536241D01*
X137267101Y-119552896D01*
X137400823Y-119593461D01*
X137451872Y-119623493D01*
X137483560Y-119673532D01*
X137488601Y-119729391D01*
X138000000Y-120240789D01*
X138000001Y-120240790D01*
X138880933Y-121121723D01*
X138900783Y-121124149D01*
X138953694Y-121165157D01*
X138971738Y-121189261D01*
X139088794Y-121276888D01*
X139088795Y-121276888D01*
X139088796Y-121276889D01*
X139225799Y-121327989D01*
X139286362Y-121334500D01*
X144373500Y-121334500D01*
X144436500Y-121351381D01*
X144482619Y-121397500D01*
X144499500Y-121460500D01*
X144499500Y-121623500D01*
X144482619Y-121686500D01*
X144436500Y-121732619D01*
X144373500Y-121749500D01*
X138490781Y-121749500D01*
X138427068Y-121732205D01*
X138380847Y-121685067D01*
X138364805Y-121621027D01*
X138383348Y-121557666D01*
X138431384Y-121512378D01*
X138510747Y-121469956D01*
X138000001Y-120959210D01*
X138000000Y-120959210D01*
X137489252Y-121469956D01*
X137568616Y-121512378D01*
X137616652Y-121557666D01*
X137635195Y-121621027D01*
X137619153Y-121685067D01*
X137572932Y-121732205D01*
X137509219Y-121749500D01*
X136897730Y-121749500D01*
X136885649Y-121748204D01*
X136882578Y-121750179D01*
X136880752Y-121756057D01*
X136879468Y-121765737D01*
X136861965Y-121831629D01*
X136861772Y-121832346D01*
X136798015Y-122066788D01*
X136794715Y-122077138D01*
X136747756Y-122205079D01*
X136746989Y-122207115D01*
X136678473Y-122384268D01*
X136674745Y-122392929D01*
X136611472Y-122525981D01*
X136609867Y-122529233D01*
X136528307Y-122688735D01*
X136524451Y-122695722D01*
X136447229Y-122825718D01*
X136444548Y-122830030D01*
X136348745Y-122977435D01*
X136345047Y-122982815D01*
X136255598Y-123105976D01*
X136251626Y-123111157D01*
X136141070Y-123247882D01*
X136137799Y-123251766D01*
X136038074Y-123365408D01*
X136032623Y-123371236D01*
X135906173Y-123498140D01*
X135903577Y-123500671D01*
X135796624Y-123602002D01*
X135789540Y-123608227D01*
X135642326Y-123728140D01*
X135640627Y-123729500D01*
X135533467Y-123813751D01*
X135524633Y-123820099D01*
X135316652Y-123956336D01*
X135316045Y-123956731D01*
X135281166Y-123979293D01*
X135248409Y-123994341D01*
X135212731Y-123999498D01*
X106773448Y-123999498D01*
X106705551Y-123979640D01*
X106705009Y-123979293D01*
X106649008Y-123943470D01*
X106648670Y-123943252D01*
X106458169Y-123820099D01*
X106454184Y-123817523D01*
X106444914Y-123810917D01*
X106328612Y-123719814D01*
X106327272Y-123718748D01*
X106182122Y-123601657D01*
X106174459Y-123594945D01*
X106060940Y-123487073D01*
X106058813Y-123485002D01*
X105933021Y-123359624D01*
X105926869Y-123353037D01*
X105821897Y-123232260D01*
X105819190Y-123229039D01*
X105709321Y-123093758D01*
X105704587Y-123087545D01*
X105610737Y-122956114D01*
X105607689Y-122951646D01*
X105513264Y-122806630D01*
X105509822Y-122801027D01*
X105448869Y-122695722D01*
X105428691Y-122660861D01*
X105425531Y-122655056D01*
X105350051Y-122507282D01*
X105346802Y-122500920D01*
X105344458Y-122496075D01*
X105277240Y-122349238D01*
X105274210Y-122342038D01*
X105253351Y-122287823D01*
X105211607Y-122179326D01*
X105210175Y-122175409D01*
X105157748Y-122024271D01*
X105155100Y-122015657D01*
X105141920Y-121966577D01*
X105109002Y-121843997D01*
X105108293Y-121841221D01*
X105071296Y-121689048D01*
X105069301Y-121679102D01*
X105040056Y-121494855D01*
X105039796Y-121493135D01*
X105018740Y-121347003D01*
X105017628Y-121335667D01*
X105005392Y-121102671D01*
X105003725Y-121067766D01*
X106645787Y-121067766D01*
X106675413Y-121337015D01*
X106679169Y-121351381D01*
X106743928Y-121599088D01*
X106849870Y-121848390D01*
X106990982Y-122079610D01*
X107164255Y-122287820D01*
X107164256Y-122287821D01*
X107164258Y-122287823D01*
X107365993Y-122468578D01*
X107365995Y-122468579D01*
X107365998Y-122468582D01*
X107591910Y-122618044D01*
X107683247Y-122660861D01*
X107837171Y-122733018D01*
X107837173Y-122733018D01*
X107837176Y-122733020D01*
X108096569Y-122811060D01*
X108096572Y-122811060D01*
X108096574Y-122811061D01*
X108364558Y-122850500D01*
X108364561Y-122850500D01*
X108567630Y-122850500D01*
X108567631Y-122850500D01*
X108770156Y-122835677D01*
X109034553Y-122776780D01*
X109287558Y-122680014D01*
X109523777Y-122547441D01*
X109738177Y-122381888D01*
X109926186Y-122186881D01*
X110083799Y-121966579D01*
X110207656Y-121725675D01*
X110295118Y-121469305D01*
X110344319Y-121202933D01*
X110354212Y-120932235D01*
X110324586Y-120662982D01*
X110256072Y-120400912D01*
X110150130Y-120151610D01*
X110009018Y-119920390D01*
X109835745Y-119712180D01*
X109830962Y-119707894D01*
X109634006Y-119531421D01*
X109634003Y-119531419D01*
X109634002Y-119531418D01*
X109408090Y-119381956D01*
X109403088Y-119379611D01*
X109162828Y-119266981D01*
X108903425Y-119188938D01*
X108635442Y-119149500D01*
X108635439Y-119149500D01*
X108432369Y-119149500D01*
X108398614Y-119151970D01*
X108229839Y-119164323D01*
X107965449Y-119223219D01*
X107712441Y-119319985D01*
X107476225Y-119452557D01*
X107261820Y-119618114D01*
X107073815Y-119813117D01*
X106916200Y-120033422D01*
X106792342Y-120274328D01*
X106704882Y-120530693D01*
X106655681Y-120797065D01*
X106645787Y-121067766D01*
X105003725Y-121067766D01*
X105000642Y-121003186D01*
X105000500Y-120997181D01*
X105000500Y-115723962D01*
X105015378Y-115664566D01*
X105056498Y-115619197D01*
X105114150Y-115598569D01*
X105174718Y-115607553D01*
G37*
%TD.AperFunction*%
%TA.AperFunction,Conductor*%
G36*
X127293794Y-115042348D02*
G01*
X127333663Y-115067649D01*
X127371477Y-115103158D01*
X127374320Y-115105914D01*
X127394041Y-115125635D01*
X127397229Y-115128108D01*
X127406254Y-115135815D01*
X127438490Y-115166087D01*
X127456238Y-115175843D01*
X127472760Y-115186696D01*
X127488770Y-115199115D01*
X127529353Y-115216676D01*
X127540004Y-115221894D01*
X127578751Y-115243196D01*
X127598371Y-115248233D01*
X127617078Y-115254638D01*
X127623691Y-115257499D01*
X127635665Y-115262682D01*
X127646316Y-115264368D01*
X127679341Y-115269599D01*
X127690936Y-115271999D01*
X127733781Y-115283001D01*
X127754035Y-115283001D01*
X127773745Y-115284552D01*
X127793753Y-115287721D01*
X127793753Y-115287720D01*
X127793754Y-115287721D01*
X127837772Y-115283559D01*
X127849630Y-115283001D01*
X128214552Y-115283001D01*
X128262771Y-115292592D01*
X128303648Y-115319906D01*
X128364219Y-115380478D01*
X128396198Y-115434690D01*
X128397965Y-115497606D01*
X128369079Y-115553527D01*
X128332948Y-115577672D01*
X128333882Y-115579157D01*
X128167593Y-115683642D01*
X128038765Y-115812470D01*
X127941832Y-115966738D01*
X127881659Y-116138703D01*
X127864324Y-116292560D01*
X127861260Y-116319753D01*
X127871995Y-116415032D01*
X127873445Y-116427896D01*
X127861759Y-116496673D01*
X127815273Y-116548690D01*
X127748237Y-116568003D01*
X126845832Y-116568003D01*
X126818105Y-116564500D01*
X126816271Y-116564500D01*
X126795923Y-116564500D01*
X126776213Y-116562949D01*
X126756110Y-116559765D01*
X126756109Y-116559765D01*
X126711933Y-116563941D01*
X126700075Y-116564500D01*
X126506357Y-116564500D01*
X126444175Y-116548087D01*
X126398192Y-116503125D01*
X126380389Y-116441327D01*
X126395402Y-116378792D01*
X126439321Y-116331813D01*
X126507281Y-116289111D01*
X126636111Y-116160281D01*
X126733043Y-116006015D01*
X126793217Y-115834047D01*
X126813616Y-115653000D01*
X126793217Y-115471953D01*
X126733043Y-115299985D01*
X126723346Y-115284552D01*
X126686892Y-115226536D01*
X126667629Y-115163034D01*
X126683301Y-115098551D01*
X126729562Y-115050975D01*
X126793579Y-115033500D01*
X127247411Y-115033500D01*
X127293794Y-115042348D01*
G37*
%TD.AperFunction*%
%TA.AperFunction,Conductor*%
G36*
X122352944Y-111508641D02*
G01*
X122405797Y-111540220D01*
X123128096Y-112262519D01*
X123155408Y-112303394D01*
X123164999Y-112351612D01*
X123164999Y-113714646D01*
X123162703Y-113735434D01*
X123164937Y-113806485D01*
X123164999Y-113810444D01*
X123164999Y-113838356D01*
X123165506Y-113842372D01*
X123166436Y-113854195D01*
X123167825Y-113898391D01*
X123173476Y-113917840D01*
X123177485Y-113937195D01*
X123180024Y-113957293D01*
X123196300Y-113998402D01*
X123200143Y-114009629D01*
X123212479Y-114052089D01*
X123222793Y-114069529D01*
X123231486Y-114087273D01*
X123238947Y-114106116D01*
X123238948Y-114106118D01*
X123264930Y-114141879D01*
X123271447Y-114151800D01*
X123293957Y-114189862D01*
X123308277Y-114204182D01*
X123321117Y-114219215D01*
X123333025Y-114235604D01*
X123333026Y-114235605D01*
X123333027Y-114235606D01*
X123344294Y-114244927D01*
X123367097Y-114263791D01*
X123375877Y-114271781D01*
X123750500Y-114646404D01*
X123781238Y-114696563D01*
X123785854Y-114755210D01*
X123763341Y-114809560D01*
X123718608Y-114847766D01*
X123661405Y-114861499D01*
X122568982Y-114861499D01*
X122545373Y-114859267D01*
X122542057Y-114858634D01*
X122537217Y-114857711D01*
X122480985Y-114861250D01*
X122473073Y-114861499D01*
X122457016Y-114861499D01*
X122441077Y-114863512D01*
X122433201Y-114864256D01*
X122376971Y-114867793D01*
X122369071Y-114870360D01*
X122345943Y-114875530D01*
X122337698Y-114876571D01*
X122285304Y-114897316D01*
X122277860Y-114899996D01*
X122224264Y-114917411D01*
X122217249Y-114921863D01*
X122196134Y-114932621D01*
X122188414Y-114935677D01*
X122185636Y-114937695D01*
X122184056Y-114938843D01*
X122119883Y-114962517D01*
X122052795Y-114949171D01*
X122002566Y-114902739D01*
X121983999Y-114836905D01*
X121983999Y-112297589D01*
X121993590Y-112249371D01*
X122018661Y-112211850D01*
X122021845Y-112206783D01*
X122117477Y-112054586D01*
X122177651Y-111882618D01*
X122198050Y-111701571D01*
X122191498Y-111643423D01*
X122199763Y-111582409D01*
X122235956Y-111532595D01*
X122291432Y-111505879D01*
X122352944Y-111508641D01*
G37*
%TD.AperFunction*%
%TA.AperFunction,Conductor*%
G36*
X115353780Y-108014233D02*
G01*
X115398513Y-108052439D01*
X115421026Y-108106789D01*
X115416410Y-108165436D01*
X115385673Y-108215593D01*
X114148709Y-109452557D01*
X113760078Y-109841188D01*
X113743710Y-109854302D01*
X113694928Y-109906249D01*
X113692178Y-109909087D01*
X113672356Y-109928909D01*
X113669852Y-109932138D01*
X113662157Y-109941147D01*
X113631780Y-109973496D01*
X113621974Y-109991333D01*
X113611125Y-110007849D01*
X113598649Y-110023933D01*
X113581022Y-110064664D01*
X113575804Y-110075316D01*
X113554430Y-110114197D01*
X113549370Y-110133906D01*
X113542967Y-110152608D01*
X113534883Y-110171289D01*
X113527941Y-110215119D01*
X113525534Y-110226740D01*
X113514500Y-110269718D01*
X113514500Y-110290066D01*
X113512949Y-110309777D01*
X113509765Y-110329879D01*
X113513941Y-110374056D01*
X113514500Y-110385914D01*
X113514500Y-111105447D01*
X113495187Y-111172483D01*
X113416956Y-111296985D01*
X113356783Y-111468950D01*
X113336384Y-111650000D01*
X113356783Y-111831049D01*
X113416956Y-112003014D01*
X113513889Y-112157282D01*
X113642717Y-112286110D01*
X113676412Y-112307282D01*
X113796985Y-112383043D01*
X113968953Y-112443217D01*
X114150000Y-112463616D01*
X114331047Y-112443217D01*
X114503015Y-112383043D01*
X114657281Y-112286111D01*
X114786111Y-112157281D01*
X114883043Y-112003015D01*
X114943217Y-111831047D01*
X114963616Y-111650000D01*
X114943217Y-111468953D01*
X114883043Y-111296985D01*
X114804812Y-111172482D01*
X114785500Y-111105447D01*
X114785500Y-110665422D01*
X114795091Y-110617204D01*
X114822405Y-110576327D01*
X116226328Y-109172405D01*
X116267205Y-109145091D01*
X116315423Y-109135500D01*
X118864405Y-109135500D01*
X118921608Y-109149233D01*
X118966341Y-109187439D01*
X118988854Y-109241789D01*
X118984238Y-109300436D01*
X118953501Y-109350593D01*
X117727767Y-110576327D01*
X117338437Y-110965657D01*
X117304012Y-110990083D01*
X117263451Y-111001769D01*
X117218950Y-111006783D01*
X117046985Y-111066956D01*
X116892717Y-111163889D01*
X116763889Y-111292717D01*
X116666956Y-111446985D01*
X116606783Y-111618950D01*
X116586384Y-111800000D01*
X116606783Y-111981049D01*
X116666956Y-112153014D01*
X116763889Y-112307282D01*
X116892717Y-112436110D01*
X117046985Y-112533043D01*
X117213654Y-112591363D01*
X117218953Y-112593217D01*
X117400000Y-112613616D01*
X117581047Y-112593217D01*
X117753015Y-112533043D01*
X117907281Y-112436111D01*
X118036111Y-112307281D01*
X118133043Y-112153015D01*
X118193217Y-111981047D01*
X118198231Y-111936543D01*
X118209916Y-111895985D01*
X118234340Y-111861562D01*
X119107361Y-110988541D01*
X119154839Y-110958709D01*
X119210561Y-110952430D01*
X119263490Y-110970951D01*
X119303141Y-111010602D01*
X119363889Y-111107282D01*
X119492717Y-111236110D01*
X119646985Y-111333043D01*
X119773990Y-111377484D01*
X119818953Y-111393217D01*
X119860267Y-111397871D01*
X119900826Y-111409557D01*
X119935252Y-111433984D01*
X120072914Y-111571646D01*
X120100228Y-111612523D01*
X120109819Y-111660741D01*
X120109819Y-112200338D01*
X120092344Y-112264355D01*
X120044768Y-112310616D01*
X119980286Y-112326288D01*
X119916783Y-112307025D01*
X119883498Y-112286111D01*
X119853015Y-112266957D01*
X119791403Y-112245398D01*
X119681049Y-112206783D01*
X119500000Y-112186384D01*
X119318950Y-112206783D01*
X119146985Y-112266956D01*
X118992717Y-112363889D01*
X118863889Y-112492717D01*
X118766956Y-112646985D01*
X118706782Y-112818954D01*
X118702127Y-112860264D01*
X118690442Y-112900824D01*
X118666016Y-112935249D01*
X117773672Y-113827595D01*
X117732794Y-113854909D01*
X117684576Y-113864500D01*
X116544553Y-113864500D01*
X116477517Y-113845187D01*
X116353014Y-113766956D01*
X116181049Y-113706783D01*
X116000000Y-113686384D01*
X115818950Y-113706783D01*
X115646985Y-113766956D01*
X115492717Y-113863889D01*
X115363889Y-113992717D01*
X115266956Y-114146985D01*
X115206783Y-114318950D01*
X115186384Y-114500000D01*
X115195650Y-114582240D01*
X115187384Y-114643257D01*
X115151192Y-114693071D01*
X115095716Y-114719786D01*
X115034204Y-114717024D01*
X114981347Y-114685442D01*
X114682244Y-114386339D01*
X114669171Y-114370021D01*
X114654210Y-114355972D01*
X114617348Y-114321356D01*
X114614537Y-114318632D01*
X114594770Y-114298865D01*
X114591575Y-114296386D01*
X114582553Y-114288681D01*
X114550320Y-114258413D01*
X114532567Y-114248653D01*
X114516041Y-114237797D01*
X114513216Y-114235606D01*
X114500041Y-114225386D01*
X114459465Y-114207827D01*
X114448804Y-114202604D01*
X114410063Y-114181305D01*
X114391914Y-114176646D01*
X114390437Y-114176266D01*
X114371731Y-114169862D01*
X114353145Y-114161819D01*
X114309475Y-114154902D01*
X114297853Y-114152495D01*
X114255030Y-114141500D01*
X114255029Y-114141500D01*
X114234776Y-114141500D01*
X114215066Y-114139949D01*
X114195057Y-114136779D01*
X114151039Y-114140941D01*
X114139181Y-114141500D01*
X108108853Y-114141500D01*
X108088063Y-114139204D01*
X108017001Y-114141438D01*
X108013043Y-114141500D01*
X107985142Y-114141500D01*
X107981134Y-114142006D01*
X107969313Y-114142936D01*
X107925108Y-114144325D01*
X107905651Y-114149978D01*
X107886301Y-114153986D01*
X107866202Y-114156525D01*
X107825093Y-114172802D01*
X107813865Y-114176646D01*
X107771408Y-114188981D01*
X107753964Y-114199297D01*
X107736217Y-114207990D01*
X107717384Y-114215446D01*
X107681611Y-114241437D01*
X107671693Y-114247951D01*
X107633639Y-114270457D01*
X107619312Y-114284783D01*
X107604283Y-114297618D01*
X107587894Y-114309525D01*
X107559701Y-114343604D01*
X107551713Y-114352381D01*
X107167664Y-114736430D01*
X107112175Y-114768771D01*
X107047953Y-114769559D01*
X106991686Y-114738590D01*
X106957996Y-114683913D01*
X106936241Y-114612196D01*
X106842595Y-114436996D01*
X106842593Y-114436992D01*
X106716568Y-114283431D01*
X106563007Y-114157406D01*
X106387802Y-114063758D01*
X106197701Y-114006091D01*
X106000000Y-113986619D01*
X105802298Y-114006091D01*
X105612197Y-114063758D01*
X105436992Y-114157406D01*
X105283433Y-114283429D01*
X105223899Y-114355972D01*
X105174718Y-114392447D01*
X105114150Y-114401431D01*
X105056498Y-114380803D01*
X105015378Y-114335434D01*
X105000500Y-114276038D01*
X105000500Y-111067766D01*
X106645787Y-111067766D01*
X106675413Y-111337015D01*
X106700764Y-111433984D01*
X106743928Y-111599088D01*
X106822217Y-111783318D01*
X106840305Y-111825883D01*
X106849870Y-111848390D01*
X106990982Y-112079610D01*
X107164255Y-112287820D01*
X107164256Y-112287821D01*
X107164258Y-112287823D01*
X107365993Y-112468578D01*
X107365995Y-112468579D01*
X107365998Y-112468582D01*
X107591910Y-112618044D01*
X107653647Y-112646985D01*
X107837171Y-112733018D01*
X107837173Y-112733018D01*
X107837176Y-112733020D01*
X108096569Y-112811060D01*
X108096572Y-112811060D01*
X108096574Y-112811061D01*
X108364558Y-112850500D01*
X108364561Y-112850500D01*
X108567630Y-112850500D01*
X108567631Y-112850500D01*
X108770156Y-112835677D01*
X109034553Y-112776780D01*
X109287558Y-112680014D01*
X109523777Y-112547441D01*
X109738177Y-112381888D01*
X109926186Y-112186881D01*
X110083799Y-111966579D01*
X110207656Y-111725675D01*
X110295118Y-111469305D01*
X110344319Y-111202933D01*
X110354212Y-110932235D01*
X110351584Y-110908354D01*
X110331202Y-110723111D01*
X110324586Y-110662982D01*
X110256072Y-110400912D01*
X110150130Y-110151610D01*
X110009018Y-109920390D01*
X109835745Y-109712180D01*
X109835291Y-109711773D01*
X109634006Y-109531421D01*
X109634003Y-109531419D01*
X109634002Y-109531418D01*
X109408090Y-109381956D01*
X109355889Y-109357485D01*
X109162828Y-109266981D01*
X108903425Y-109188938D01*
X108635442Y-109149500D01*
X108635439Y-109149500D01*
X108432369Y-109149500D01*
X108398614Y-109151970D01*
X108229839Y-109164323D01*
X107965449Y-109223219D01*
X107712441Y-109319985D01*
X107476225Y-109452557D01*
X107261820Y-109618114D01*
X107073815Y-109813117D01*
X106916200Y-110033422D01*
X106792342Y-110274328D01*
X106704882Y-110530693D01*
X106655681Y-110797065D01*
X106645787Y-111067766D01*
X105000500Y-111067766D01*
X105000500Y-111003011D01*
X105000643Y-110997004D01*
X105001139Y-110986619D01*
X105005521Y-110894801D01*
X105017610Y-110664516D01*
X105018720Y-110653200D01*
X105040004Y-110505486D01*
X105040235Y-110503962D01*
X105069255Y-110321127D01*
X105071255Y-110311157D01*
X105108484Y-110158032D01*
X105109202Y-110155222D01*
X105155025Y-109984583D01*
X105157669Y-109975983D01*
X105158532Y-109973496D01*
X105210398Y-109823977D01*
X105211770Y-109820222D01*
X105274117Y-109658178D01*
X105277104Y-109651079D01*
X105344680Y-109503461D01*
X105346960Y-109498750D01*
X105425397Y-109345184D01*
X105428501Y-109339483D01*
X105509995Y-109198689D01*
X105513446Y-109193074D01*
X105516139Y-109188938D01*
X105607469Y-109048674D01*
X105610483Y-109044256D01*
X105704783Y-108912194D01*
X105709458Y-108906057D01*
X105818902Y-108771299D01*
X105821520Y-108768185D01*
X105927066Y-108646747D01*
X105933156Y-108640227D01*
X106058376Y-108515420D01*
X106060346Y-108513503D01*
X106174649Y-108404887D01*
X106182257Y-108398222D01*
X106326516Y-108281850D01*
X106327459Y-108281100D01*
X106445070Y-108188972D01*
X106454332Y-108182371D01*
X106646887Y-108057896D01*
X106705571Y-108020356D01*
X106773464Y-108000500D01*
X115296577Y-108000500D01*
X115353780Y-108014233D01*
G37*
%TD.AperFunction*%
%TA.AperFunction,Conductor*%
G36*
X135248327Y-108005657D02*
G01*
X135281084Y-108020704D01*
X135323831Y-108048355D01*
X135324426Y-108048742D01*
X135523816Y-108179316D01*
X135532663Y-108185673D01*
X135644653Y-108273721D01*
X135646352Y-108275081D01*
X135788666Y-108391003D01*
X135795720Y-108397202D01*
X135875475Y-108472763D01*
X135905799Y-108501493D01*
X135908364Y-108503994D01*
X136031683Y-108627757D01*
X136037111Y-108633561D01*
X136139223Y-108749922D01*
X136142495Y-108753806D01*
X136250570Y-108887463D01*
X136254542Y-108892644D01*
X136346016Y-109018593D01*
X136349715Y-109023973D01*
X136443386Y-109168100D01*
X136446066Y-109172412D01*
X136525134Y-109305515D01*
X136528990Y-109312501D01*
X136608491Y-109467976D01*
X136610095Y-109471228D01*
X136675215Y-109608162D01*
X136678944Y-109616824D01*
X136745168Y-109788052D01*
X136745935Y-109790088D01*
X136795015Y-109923807D01*
X136798319Y-109934172D01*
X136859234Y-110158276D01*
X136859423Y-110158977D01*
X136883144Y-110248273D01*
X136883689Y-110250534D01*
X136885646Y-110251793D01*
X136897730Y-110250500D01*
X144373500Y-110250500D01*
X144436500Y-110267381D01*
X144482619Y-110313500D01*
X144499500Y-110376500D01*
X144499500Y-110539500D01*
X144482619Y-110602500D01*
X144436500Y-110648619D01*
X144373500Y-110665500D01*
X139286362Y-110665500D01*
X139225799Y-110672011D01*
X139088794Y-110723111D01*
X138971738Y-110810738D01*
X138884111Y-110927793D01*
X138842936Y-111038190D01*
X138800689Y-111094800D01*
X138734617Y-111119780D01*
X138665485Y-111105280D01*
X138619159Y-111080518D01*
X138587804Y-111063759D01*
X138587803Y-111063758D01*
X138587800Y-111063757D01*
X138397701Y-111006091D01*
X138200000Y-110986619D01*
X138002298Y-111006091D01*
X137812197Y-111063758D01*
X137636992Y-111157406D01*
X137483431Y-111283431D01*
X137357406Y-111436992D01*
X137263758Y-111612197D01*
X137206091Y-111802298D01*
X137186619Y-111999999D01*
X137191311Y-112047635D01*
X137184553Y-112102433D01*
X137155013Y-112149080D01*
X135374497Y-113929597D01*
X135333623Y-113956909D01*
X135285405Y-113966500D01*
X130065621Y-113966500D01*
X130017403Y-113956909D01*
X129976526Y-113929595D01*
X127458842Y-111411911D01*
X127434414Y-111377484D01*
X127422730Y-111336925D01*
X127417717Y-111292427D01*
X127357543Y-111120459D01*
X127324434Y-111067766D01*
X131645787Y-111067766D01*
X131675413Y-111337015D01*
X131700764Y-111433984D01*
X131743928Y-111599088D01*
X131822217Y-111783318D01*
X131840305Y-111825883D01*
X131849870Y-111848390D01*
X131990982Y-112079610D01*
X132164255Y-112287820D01*
X132164256Y-112287821D01*
X132164258Y-112287823D01*
X132365993Y-112468578D01*
X132365995Y-112468579D01*
X132365998Y-112468582D01*
X132591910Y-112618044D01*
X132653647Y-112646985D01*
X132837171Y-112733018D01*
X132837173Y-112733018D01*
X132837176Y-112733020D01*
X133096569Y-112811060D01*
X133096572Y-112811060D01*
X133096574Y-112811061D01*
X133364558Y-112850500D01*
X133364561Y-112850500D01*
X133567630Y-112850500D01*
X133567631Y-112850500D01*
X133770156Y-112835677D01*
X134034553Y-112776780D01*
X134287558Y-112680014D01*
X134523777Y-112547441D01*
X134738177Y-112381888D01*
X134926186Y-112186881D01*
X135083799Y-111966579D01*
X135207656Y-111725675D01*
X135295118Y-111469305D01*
X135344319Y-111202933D01*
X135354212Y-110932235D01*
X135351584Y-110908354D01*
X135331202Y-110723111D01*
X135324586Y-110662982D01*
X135256072Y-110400912D01*
X135150130Y-110151610D01*
X135009018Y-109920390D01*
X134835745Y-109712180D01*
X134835291Y-109711773D01*
X134634006Y-109531421D01*
X134634003Y-109531419D01*
X134634002Y-109531418D01*
X134408090Y-109381956D01*
X134355889Y-109357485D01*
X134162828Y-109266981D01*
X133903425Y-109188938D01*
X133635442Y-109149500D01*
X133635439Y-109149500D01*
X133432369Y-109149500D01*
X133398614Y-109151970D01*
X133229839Y-109164323D01*
X132965449Y-109223219D01*
X132712441Y-109319985D01*
X132476225Y-109452557D01*
X132261820Y-109618114D01*
X132073815Y-109813117D01*
X131916200Y-110033422D01*
X131792342Y-110274328D01*
X131704882Y-110530693D01*
X131655681Y-110797065D01*
X131645787Y-111067766D01*
X127324434Y-111067766D01*
X127275622Y-110990083D01*
X127260610Y-110966191D01*
X127131782Y-110837363D01*
X126977514Y-110740430D01*
X126909513Y-110716636D01*
X126862032Y-110686802D01*
X126832199Y-110639322D01*
X126782044Y-110495986D01*
X126685112Y-110341720D01*
X126685111Y-110341718D01*
X126556283Y-110212890D01*
X126402015Y-110115957D01*
X126230050Y-110055784D01*
X126049001Y-110035385D01*
X125867951Y-110055784D01*
X125695986Y-110115957D01*
X125541718Y-110212890D01*
X125412890Y-110341718D01*
X125315957Y-110495986D01*
X125255784Y-110667951D01*
X125235385Y-110849001D01*
X125255784Y-111030050D01*
X125315957Y-111202015D01*
X125347187Y-111251716D01*
X125366500Y-111318752D01*
X125366500Y-112116147D01*
X125364204Y-112136935D01*
X125366438Y-112207986D01*
X125366500Y-112211945D01*
X125366500Y-112239857D01*
X125367007Y-112243873D01*
X125367937Y-112255696D01*
X125369326Y-112299892D01*
X125374977Y-112319341D01*
X125378986Y-112338696D01*
X125381525Y-112358794D01*
X125397801Y-112399903D01*
X125401644Y-112411130D01*
X125413980Y-112453590D01*
X125424294Y-112471030D01*
X125432987Y-112488774D01*
X125440448Y-112507617D01*
X125440449Y-112507619D01*
X125466431Y-112543380D01*
X125472948Y-112553301D01*
X125495458Y-112591363D01*
X125509778Y-112605683D01*
X125522618Y-112620716D01*
X125534526Y-112637105D01*
X125534527Y-112637106D01*
X125534528Y-112637107D01*
X125568598Y-112665292D01*
X125577377Y-112673281D01*
X126298141Y-113394046D01*
X126329723Y-113446902D01*
X126332485Y-113508414D01*
X126305769Y-113563890D01*
X126255955Y-113600082D01*
X126194939Y-113608348D01*
X126000000Y-113586384D01*
X125818950Y-113606783D01*
X125646985Y-113666956D01*
X125492717Y-113763889D01*
X125363891Y-113892715D01*
X125301114Y-113992624D01*
X125253302Y-114036986D01*
X125189715Y-114051499D01*
X125127393Y-114032275D01*
X125103015Y-114016957D01*
X125103013Y-114016956D01*
X125103011Y-114016955D01*
X124931046Y-113956782D01*
X124886544Y-113951767D01*
X124845984Y-113940081D01*
X124811560Y-113915655D01*
X124468904Y-113572999D01*
X124441590Y-113532122D01*
X124431999Y-113483904D01*
X124431999Y-112120870D01*
X124434294Y-112100080D01*
X124432864Y-112054586D01*
X124432060Y-112029017D01*
X124431999Y-112025060D01*
X124431999Y-111997166D01*
X124431999Y-111997161D01*
X124431492Y-111993155D01*
X124430561Y-111981322D01*
X124429173Y-111937128D01*
X124423519Y-111917669D01*
X124419512Y-111898323D01*
X124416973Y-111878220D01*
X124400693Y-111837103D01*
X124396852Y-111825883D01*
X124384517Y-111783424D01*
X124374205Y-111765987D01*
X124365507Y-111748232D01*
X124358051Y-111729400D01*
X124332064Y-111693633D01*
X124325546Y-111683710D01*
X124303041Y-111645655D01*
X124288711Y-111631325D01*
X124275877Y-111616298D01*
X124263971Y-111599910D01*
X124263970Y-111599909D01*
X124229893Y-111571717D01*
X124221115Y-111563729D01*
X122007982Y-109350595D01*
X121977244Y-109300436D01*
X121972628Y-109241789D01*
X121995141Y-109187439D01*
X122039874Y-109149233D01*
X122097077Y-109135500D01*
X125455447Y-109135500D01*
X125522483Y-109154813D01*
X125646985Y-109233043D01*
X125743974Y-109266981D01*
X125818953Y-109293217D01*
X126000000Y-109313616D01*
X126181047Y-109293217D01*
X126353015Y-109233043D01*
X126507281Y-109136111D01*
X126636111Y-109007281D01*
X126733043Y-108853015D01*
X126793217Y-108681047D01*
X126813616Y-108500000D01*
X126793217Y-108318953D01*
X126757051Y-108215596D01*
X126740437Y-108168115D01*
X126734603Y-108108886D01*
X126756605Y-108053587D01*
X126801534Y-108014556D01*
X126859366Y-108000500D01*
X135212650Y-108000500D01*
X135248327Y-108005657D01*
G37*
%TD.AperFunction*%
%TD*%
M02*
