M48
; DRILL file {KiCad (6.0.0)} date Thu Feb 10 21:19:43 2022
; FORMAT={-:-/ absolute / inch / decimal}
; #@! TF.CreationDate,2022-02-10T21:19:43-08:00
; #@! TF.GenerationSoftware,Kicad,Pcbnew,(6.0.0)
; #@! TF.FileFunction,MixedPlating,1,2
FMAT,2
INCH
; #@! TA.AperFunction,Plated,PTH,ViaDrill
T1C0.0118
; #@! TA.AperFunction,Plated,PTH,ComponentDrill
T2C0.0394
; #@! TA.AperFunction,NonPlated,NPTH,ComponentDrill
T3C0.1260
%
G90
G05
T1
X4.2815Y-4.5669
X4.4291Y-4.7539
X4.4685Y-4.3701
X4.4685Y-4.7933
X4.5047Y-4.8031
X4.5079Y-4.626
X4.5669Y-4.5079
X4.5866Y-4.626
X4.5965Y-4.4488
X4.6063Y-4.8031
X4.626Y-4.3898
X4.6654Y-4.685
X4.7023Y-4.6718
X4.7047Y-4.4488
X4.7047Y-4.8031
X4.7638Y-4.3406
X4.7787Y-4.3974
X4.813Y-4.7441
X4.8327Y-4.4882
X4.8327Y-4.8425
X4.8368Y-4.5755
X4.8917Y-4.3829
X4.9016Y-4.7146
X4.9114Y-4.5177
X4.9409Y-4.3582
X4.9606Y-4.2717
X4.9693Y-4.5398
X4.9705Y-4.5079
X4.9902Y-4.6063
X5.0198Y-4.4884
X5.0492Y-4.7933
X5.0591Y-4.4587
X5.1083Y-4.4882
X5.1181Y-4.311
X5.3642Y-4.5472
X5.4134Y-4.5079
T2
X5.5148Y-4.4173
X5.5148Y-4.5173
X5.5148Y-4.6173
X5.5148Y-4.7173
X5.6148Y-4.4173
X5.6148Y-4.5173
X5.6148Y-4.6173
X5.6148Y-4.7173
T3
X4.2717Y-4.3701
X4.2717Y-4.7638
X5.2559Y-4.3701
X5.2559Y-4.7638
T0
M30
