%TF.GenerationSoftware,KiCad,Pcbnew,(6.0.0)*%
%TF.CreationDate,2022-01-22T14:10:52-08:00*%
%TF.ProjectId,elevation-imu,656c6576-6174-4696-9f6e-2d696d752e6b,rev?*%
%TF.SameCoordinates,Original*%
%TF.FileFunction,Copper,L1,Top*%
%TF.FilePolarity,Positive*%
%FSLAX46Y46*%
G04 Gerber Fmt 4.6, Leading zero omitted, Abs format (unit mm)*
G04 Created by KiCad (PCBNEW (6.0.0)) date 2022-01-22 14:10:52*
%MOMM*%
%LPD*%
G01*
G04 APERTURE LIST*
G04 Aperture macros list*
%AMRoundRect*
0 Rectangle with rounded corners*
0 $1 Rounding radius*
0 $2 $3 $4 $5 $6 $7 $8 $9 X,Y pos of 4 corners*
0 Add a 4 corners polygon primitive as box body*
4,1,4,$2,$3,$4,$5,$6,$7,$8,$9,$2,$3,0*
0 Add four circle primitives for the rounded corners*
1,1,$1+$1,$2,$3*
1,1,$1+$1,$4,$5*
1,1,$1+$1,$6,$7*
1,1,$1+$1,$8,$9*
0 Add four rect primitives between the rounded corners*
20,1,$1+$1,$2,$3,$4,$5,0*
20,1,$1+$1,$4,$5,$6,$7,0*
20,1,$1+$1,$6,$7,$8,$9,0*
20,1,$1+$1,$8,$9,$2,$3,0*%
G04 Aperture macros list end*
%TA.AperFunction,SMDPad,CuDef*%
%ADD10R,1.000000X1.500000*%
%TD*%
%TA.AperFunction,SMDPad,CuDef*%
%ADD11RoundRect,0.150000X0.150000X-0.512500X0.150000X0.512500X-0.150000X0.512500X-0.150000X-0.512500X0*%
%TD*%
%TA.AperFunction,SMDPad,CuDef*%
%ADD12RoundRect,0.100000X-0.100000X0.637500X-0.100000X-0.637500X0.100000X-0.637500X0.100000X0.637500X0*%
%TD*%
%TA.AperFunction,SMDPad,CuDef*%
%ADD13R,0.250000X0.675000*%
%TD*%
%TA.AperFunction,SMDPad,CuDef*%
%ADD14R,0.675000X0.250000*%
%TD*%
%TA.AperFunction,SMDPad,CuDef*%
%ADD15RoundRect,0.200000X0.200000X0.275000X-0.200000X0.275000X-0.200000X-0.275000X0.200000X-0.275000X0*%
%TD*%
%TA.AperFunction,SMDPad,CuDef*%
%ADD16RoundRect,0.200000X-0.200000X-0.275000X0.200000X-0.275000X0.200000X0.275000X-0.200000X0.275000X0*%
%TD*%
%TA.AperFunction,SMDPad,CuDef*%
%ADD17RoundRect,0.200000X0.275000X-0.200000X0.275000X0.200000X-0.275000X0.200000X-0.275000X-0.200000X0*%
%TD*%
%TA.AperFunction,SMDPad,CuDef*%
%ADD18RoundRect,0.200000X-0.275000X0.200000X-0.275000X-0.200000X0.275000X-0.200000X0.275000X0.200000X0*%
%TD*%
%TA.AperFunction,SMDPad,CuDef*%
%ADD19R,0.450000X0.700000*%
%TD*%
%TA.AperFunction,SMDPad,CuDef*%
%ADD20R,0.700000X0.450000*%
%TD*%
%TA.AperFunction,ComponentPad*%
%ADD21R,1.700000X1.700000*%
%TD*%
%TA.AperFunction,ComponentPad*%
%ADD22O,1.700000X1.700000*%
%TD*%
%TA.AperFunction,SMDPad,CuDef*%
%ADD23RoundRect,0.225000X-0.250000X0.225000X-0.250000X-0.225000X0.250000X-0.225000X0.250000X0.225000X0*%
%TD*%
%TA.AperFunction,SMDPad,CuDef*%
%ADD24RoundRect,0.225000X-0.225000X-0.250000X0.225000X-0.250000X0.225000X0.250000X-0.225000X0.250000X0*%
%TD*%
%TA.AperFunction,SMDPad,CuDef*%
%ADD25RoundRect,0.225000X0.250000X-0.225000X0.250000X0.225000X-0.250000X0.225000X-0.250000X-0.225000X0*%
%TD*%
%TA.AperFunction,SMDPad,CuDef*%
%ADD26RoundRect,0.250000X0.325000X0.650000X-0.325000X0.650000X-0.325000X-0.650000X0.325000X-0.650000X0*%
%TD*%
%TA.AperFunction,SMDPad,CuDef*%
%ADD27RoundRect,0.250000X-0.650000X0.325000X-0.650000X-0.325000X0.650000X-0.325000X0.650000X0.325000X0*%
%TD*%
%TA.AperFunction,ViaPad*%
%ADD28C,0.600000*%
%TD*%
%TA.AperFunction,Conductor*%
%ADD29C,0.254000*%
%TD*%
G04 APERTURE END LIST*
%TO.C,JP1*%
G36*
X117900000Y-122300000D02*
G01*
X117400000Y-122300000D01*
X117400000Y-121700000D01*
X117900000Y-121700000D01*
X117900000Y-122300000D01*
G37*
%TD*%
D10*
%TO.P,JP1,1,A*%
%TO.N,Net-(U1-Pad4)*%
X118300000Y-122000000D03*
%TO.P,JP1,3,B*%
%TO.N,Net-(U1-Pad9)*%
X115700000Y-122000000D03*
%TO.P,JP1,2,C*%
%TO.N,/INT*%
X117000000Y-122000000D03*
%TD*%
D11*
%TO.P,U3,1,VIN*%
%TO.N,+5V*%
X123550000Y-122637500D03*
%TO.P,U3,2,GND*%
%TO.N,GND*%
X124500000Y-122637500D03*
%TO.P,U3,3,ON/~{OFF}*%
%TO.N,+5V*%
X125450000Y-122637500D03*
%TO.P,U3,4,BP*%
%TO.N,Net-(C6-Pad1)*%
X125450000Y-120362500D03*
%TO.P,U3,5,VOUT*%
%TO.N,+3V3*%
X123550000Y-120362500D03*
%TD*%
D12*
%TO.P,U2,1,G1*%
%TO.N,GND*%
X127925000Y-112637500D03*
%TO.P,U2,2,A0*%
%TO.N,/INT*%
X127275000Y-112637500D03*
%TO.P,U2,3,A1*%
%TO.N,/SDI_IN*%
X126625000Y-112637500D03*
%TO.P,U2,4,A2*%
%TO.N,/CLK_IN*%
X125975000Y-112637500D03*
%TO.P,U2,5,A3*%
%TO.N,/~{CS}_IN*%
X125325000Y-112637500D03*
%TO.P,U2,6,A4*%
%TO.N,/SDO*%
X124675000Y-112637500D03*
%TO.P,U2,7,A5*%
%TO.N,GND*%
X124025000Y-112637500D03*
%TO.P,U2,8,A6*%
X123375000Y-112637500D03*
%TO.P,U2,9,A7*%
X122725000Y-112637500D03*
%TO.P,U2,10,GND*%
X122075000Y-112637500D03*
%TO.P,U2,11,Y7*%
%TO.N,unconnected-(U2-Pad11)*%
X122075000Y-118362500D03*
%TO.P,U2,12,Y6*%
%TO.N,unconnected-(U2-Pad12)*%
X122725000Y-118362500D03*
%TO.P,U2,13,Y5*%
%TO.N,unconnected-(U2-Pad13)*%
X123375000Y-118362500D03*
%TO.P,U2,14,Y4*%
%TO.N,/SDO_OUT*%
X124025000Y-118362500D03*
%TO.P,U2,15,Y3*%
%TO.N,/~{CS}_HV*%
X124675000Y-118362500D03*
%TO.P,U2,16,Y2*%
%TO.N,/CLK_HV*%
X125325000Y-118362500D03*
%TO.P,U2,17,Y1*%
%TO.N,/SDI_HV*%
X125975000Y-118362500D03*
%TO.P,U2,18,Y0*%
%TO.N,/INT_OUT*%
X126625000Y-118362500D03*
%TO.P,U2,19,G2*%
%TO.N,GND*%
X127275000Y-118362500D03*
%TO.P,U2,20,VCC*%
%TO.N,+5V*%
X127925000Y-118362500D03*
%TD*%
D13*
%TO.P,U1,13,SCL*%
%TO.N,/SCL*%
X119000000Y-117512500D03*
%TO.P,U1,14,SDI*%
%TO.N,/SDI*%
X119500000Y-117512500D03*
%TO.P,U1,12,CS*%
%TO.N,/~{CS}*%
X118500000Y-117512500D03*
%TO.P,U1,5,VDDIO*%
%TO.N,+3V3*%
X119500000Y-115487500D03*
%TO.P,U1,6,GND*%
%TO.N,GND*%
X119000000Y-115487500D03*
%TO.P,U1,7,GND*%
X118500000Y-115487500D03*
D14*
%TO.P,U1,1,SDO/SA0*%
%TO.N,/SDO*%
X120262500Y-117250000D03*
%TO.P,U1,2,SDx*%
%TO.N,GND*%
X120262500Y-116750000D03*
%TO.P,U1,3,SCx*%
X120262500Y-116250000D03*
%TO.P,U1,4,INT1*%
%TO.N,Net-(U1-Pad4)*%
X120262500Y-115750000D03*
%TO.P,U1,8,VDD*%
%TO.N,+3V3*%
X117737500Y-115750000D03*
%TO.P,U1,9,INT2*%
%TO.N,Net-(U1-Pad9)*%
X117737500Y-116250000D03*
%TO.P,U1,10,NC*%
%TO.N,unconnected-(U1-Pad10)*%
X117737500Y-116750000D03*
%TO.P,U1,11,NC*%
%TO.N,unconnected-(U1-Pad11)*%
X117737500Y-117250000D03*
%TD*%
D15*
%TO.P,R6,1*%
%TO.N,+5V*%
X114325000Y-113000000D03*
%TO.P,R6,2*%
%TO.N,/~{CS}_HV*%
X112675000Y-113000000D03*
%TD*%
D16*
%TO.P,R5,1*%
%TO.N,+3V3*%
X112175000Y-118500000D03*
%TO.P,R5,2*%
%TO.N,/~{CS}*%
X113825000Y-118500000D03*
%TD*%
D17*
%TO.P,R4,2*%
%TO.N,/SCL_HV*%
X115000000Y-109175000D03*
%TO.P,R4,1*%
%TO.N,+5V*%
X115000000Y-110825000D03*
%TD*%
%TO.P,R3,1*%
%TO.N,+3V3*%
X120000000Y-110825000D03*
%TO.P,R3,2*%
%TO.N,/SCL*%
X120000000Y-109175000D03*
%TD*%
D18*
%TO.P,R2,1*%
%TO.N,+5V*%
X127550000Y-109125000D03*
%TO.P,R2,2*%
%TO.N,/SDI_HV*%
X127550000Y-110775000D03*
%TD*%
%TO.P,R1,2*%
%TO.N,/SDI*%
X122550000Y-110775000D03*
%TO.P,R1,1*%
%TO.N,+3V3*%
X122550000Y-109125000D03*
%TD*%
D19*
%TO.P,Q3,1,G*%
%TO.N,+3V3*%
X112350000Y-117000000D03*
%TO.P,Q3,2,S*%
%TO.N,/~{CS}*%
X113650000Y-117000000D03*
%TO.P,Q3,3,D*%
%TO.N,/~{CS}_HV*%
X113000000Y-115000000D03*
%TD*%
D20*
%TO.P,Q2,3,D*%
%TO.N,/SCL_HV*%
X116500000Y-110000000D03*
%TO.P,Q2,2,S*%
%TO.N,/SCL*%
X118500000Y-109350000D03*
%TO.P,Q2,1,G*%
%TO.N,+3V3*%
X118500000Y-110650000D03*
%TD*%
%TO.P,Q1,1,G*%
%TO.N,+3V3*%
X124050000Y-109300000D03*
%TO.P,Q1,2,S*%
%TO.N,/SDI*%
X124050000Y-110600000D03*
%TO.P,Q1,3,D*%
%TO.N,/SDI_HV*%
X126050000Y-109950000D03*
%TD*%
D21*
%TO.P,J1,1,Pin_1*%
%TO.N,+5V*%
X140075000Y-112200000D03*
D22*
%TO.P,J1,2,Pin_2*%
%TO.N,/SDI_IN*%
X142615000Y-112200000D03*
%TO.P,J1,3,Pin_3*%
%TO.N,/SDO_OUT*%
X140075000Y-114740000D03*
%TO.P,J1,4,Pin_4*%
%TO.N,/CLK_IN*%
X142615000Y-114740000D03*
%TO.P,J1,5,Pin_5*%
%TO.N,/~{CS}_IN*%
X140075000Y-117280000D03*
%TO.P,J1,6,Pin_6*%
%TO.N,/INT_OUT*%
X142615000Y-117280000D03*
%TO.P,J1,7,Pin_7*%
%TO.N,GND*%
X140075000Y-119820000D03*
%TO.P,J1,8,Pin_8*%
X142615000Y-119820000D03*
%TD*%
D23*
%TO.P,C7,1*%
%TO.N,+3V3*%
X122000000Y-121725000D03*
%TO.P,C7,2*%
%TO.N,GND*%
X122000000Y-123275000D03*
%TD*%
D24*
%TO.P,C6,1*%
%TO.N,Net-(C6-Pad1)*%
X127225000Y-121000000D03*
%TO.P,C6,2*%
%TO.N,GND*%
X128775000Y-121000000D03*
%TD*%
%TO.P,C5,1*%
%TO.N,+5V*%
X127225000Y-122500000D03*
%TO.P,C5,2*%
%TO.N,GND*%
X128775000Y-122500000D03*
%TD*%
D25*
%TO.P,C4,1*%
%TO.N,+5V*%
X129500000Y-118775000D03*
%TO.P,C4,2*%
%TO.N,GND*%
X129500000Y-117225000D03*
%TD*%
D26*
%TO.P,C3,1*%
%TO.N,+5V*%
X134475000Y-116000000D03*
%TO.P,C3,2*%
%TO.N,GND*%
X131525000Y-116000000D03*
%TD*%
%TO.P,C2,1*%
%TO.N,+3V3*%
X120475000Y-113500000D03*
%TO.P,C2,2*%
%TO.N,GND*%
X117525000Y-113500000D03*
%TD*%
D27*
%TO.P,C1,2*%
%TO.N,GND*%
X116000000Y-118475000D03*
%TO.P,C1,1*%
%TO.N,+3V3*%
X116000000Y-115525000D03*
%TD*%
D28*
%TO.N,GND*%
X113500000Y-121750000D03*
X122250000Y-120500000D03*
%TO.N,/INT*%
X117000000Y-122000000D03*
%TO.N,Net-(U1-Pad9)*%
X114420000Y-122000000D03*
%TO.N,Net-(U1-Pad4)*%
X119500000Y-122000000D03*
%TO.N,GND*%
X108750000Y-116000000D03*
X130000000Y-109500000D03*
X129750000Y-114000000D03*
X116500000Y-117500000D03*
X116750000Y-113000000D03*
%TO.N,Net-(U1-Pad4)*%
X123750000Y-115750000D03*
%TO.N,/SCL*%
X119250000Y-110000000D03*
X118500000Y-119000000D03*
%TO.N,/SDI_IN*%
X136250000Y-115500000D03*
X126250000Y-115250000D03*
%TO.N,GND*%
X128500000Y-113250000D03*
%TO.N,/INT_OUT*%
X126750000Y-117000000D03*
%TO.N,/CLK_IN*%
X125939640Y-114030180D03*
%TO.N,/~{CS}_IN*%
X137500000Y-114500000D03*
X125500000Y-110698002D03*
%TO.N,GND*%
X124250000Y-111324502D03*
%TO.N,/SDI*%
X121500000Y-111250000D03*
X119439233Y-118663822D03*
%TO.N,GND*%
X122750000Y-123000000D03*
X128250000Y-121750000D03*
%TO.N,+3V3*%
X112500000Y-120750000D03*
%TO.N,/SDO_OUT*%
X124500000Y-119750000D03*
%TO.N,+3V3*%
X116000000Y-114500000D03*
X119500000Y-113000000D03*
%TO.N,/INT*%
X127251500Y-114000000D03*
%TO.N,Net-(U1-Pad9)*%
X114500000Y-117500000D03*
%TO.N,+5V*%
X113500000Y-111000000D03*
X126000000Y-108500000D03*
%TD*%
D29*
%TO.N,Net-(U1-Pad9)*%
X115700000Y-122000000D02*
X114420000Y-122000000D01*
%TO.N,Net-(U1-Pad4)*%
X118300000Y-122000000D02*
X119500000Y-122000000D01*
X120262500Y-115750000D02*
X123750000Y-115750000D01*
%TO.N,/SCL*%
X118812732Y-118687268D02*
X118500000Y-119000000D01*
X118812732Y-118404316D02*
X118812732Y-118687268D01*
X119000000Y-118217048D02*
X118812732Y-118404316D01*
X119000000Y-117512500D02*
X119000000Y-118217048D01*
%TO.N,/SDI*%
X119500000Y-118603055D02*
X119439233Y-118663822D01*
X119500000Y-117512500D02*
X119500000Y-118603055D01*
%TO.N,+3V3*%
X112500000Y-122250000D02*
X112500000Y-120750000D01*
X120475000Y-123250000D02*
X113500000Y-123250000D01*
X113500000Y-123250000D02*
X112500000Y-122250000D01*
X122000000Y-121725000D02*
X120475000Y-123250000D01*
%TO.N,/SDI_IN*%
X138442259Y-113420281D02*
X137490494Y-113420281D01*
X137490494Y-113420281D02*
X136250000Y-114660775D01*
X138585467Y-113563489D02*
X138442259Y-113420281D01*
X136250000Y-114660775D02*
X136250000Y-115500000D01*
X141751511Y-113563489D02*
X138585467Y-113563489D01*
X142615000Y-112700000D02*
X141751511Y-113563489D01*
%TO.N,GND*%
X129750000Y-114225000D02*
X129750000Y-114000000D01*
X131525000Y-116000000D02*
X129750000Y-114225000D01*
X116000000Y-118000000D02*
X116500000Y-117500000D01*
X116000000Y-118475000D02*
X116000000Y-118000000D01*
%TO.N,Net-(U1-Pad9)*%
X116441823Y-116873499D02*
X115126501Y-116873499D01*
X117065322Y-116250000D02*
X116441823Y-116873499D01*
X115126501Y-116873499D02*
X114500000Y-117500000D01*
X117737500Y-116250000D02*
X117065322Y-116250000D01*
%TO.N,GND*%
X117025000Y-113000000D02*
X117525000Y-113500000D01*
X116750000Y-113000000D02*
X117025000Y-113000000D01*
%TO.N,/SDO*%
X121900489Y-116203511D02*
X120854000Y-117250000D01*
X123317504Y-116203511D02*
X121900489Y-116203511D01*
X123490494Y-116376501D02*
X123317504Y-116203511D01*
X124009506Y-116376501D02*
X123490494Y-116376501D01*
X124675000Y-115711007D02*
X124009506Y-116376501D01*
X124675000Y-112637500D02*
X124675000Y-115711007D01*
X120854000Y-117250000D02*
X120262500Y-117250000D01*
%TO.N,/SCL*%
X119250000Y-109450000D02*
X119150000Y-109350000D01*
X119150000Y-109350000D02*
X119825000Y-109350000D01*
X118500000Y-109350000D02*
X119150000Y-109350000D01*
%TO.N,/~{CS}_HV*%
X124003190Y-117000000D02*
X124675000Y-117671810D01*
X121772013Y-117000000D02*
X124003190Y-117000000D01*
X120185263Y-118586750D02*
X121772013Y-117000000D01*
X120185263Y-119042857D02*
X120185263Y-118586750D01*
X119362161Y-119409852D02*
X119818268Y-119409852D01*
X112455389Y-120000000D02*
X118772013Y-120000000D01*
X124675000Y-117671810D02*
X124675000Y-118362500D01*
X111448480Y-118993091D02*
X112455389Y-120000000D01*
X118772013Y-120000000D02*
X119362161Y-119409852D01*
X111448480Y-116551520D02*
X111448480Y-118993091D01*
X119818268Y-119409852D02*
X120185263Y-119042857D01*
X113000000Y-115000000D02*
X111448480Y-116551520D01*
%TO.N,/~{CS}*%
X118500000Y-117858638D02*
X118500000Y-117512500D01*
X118296489Y-118062149D02*
X118500000Y-117858638D01*
X117104000Y-119500000D02*
X118296489Y-118307511D01*
X118296489Y-118307511D02*
X118296489Y-118062149D01*
%TO.N,/SCL*%
X119250000Y-110000000D02*
X119250000Y-109450000D01*
%TO.N,/~{CS}*%
X113825000Y-118500000D02*
X114825000Y-119500000D01*
X114825000Y-119500000D02*
X117104000Y-119500000D01*
%TO.N,GND*%
X119000000Y-116103022D02*
X119000000Y-115487500D01*
X119146978Y-116250000D02*
X119000000Y-116103022D01*
X120262500Y-116250000D02*
X119146978Y-116250000D01*
X120262500Y-116750000D02*
X120262500Y-116250000D01*
X119000000Y-115487500D02*
X118500000Y-115487500D01*
%TO.N,/~{CS}_IN*%
X140075000Y-117780000D02*
X137500000Y-115205000D01*
X137500000Y-115205000D02*
X137500000Y-114500000D01*
%TO.N,+5V*%
X134475000Y-115633639D02*
X134475000Y-116000000D01*
X140075000Y-112700000D02*
X137408639Y-112700000D01*
X137408639Y-112700000D02*
X134475000Y-115633639D01*
%TO.N,/SDI_IN*%
X126625000Y-114875000D02*
X126250000Y-115250000D01*
X126625000Y-112637500D02*
X126625000Y-114875000D01*
%TO.N,/INT*%
X127251500Y-112661000D02*
X127251500Y-114000000D01*
%TO.N,/CLK_IN*%
X125975000Y-113994820D02*
X125939640Y-114030180D01*
X125975000Y-112637500D02*
X125975000Y-113994820D01*
%TO.N,/INT*%
X127275000Y-112637500D02*
X127251500Y-112661000D01*
%TO.N,GND*%
X142615000Y-120320000D02*
X140075000Y-120320000D01*
%TO.N,+5V*%
X133225000Y-117250000D02*
X131025000Y-117250000D01*
X131025000Y-117250000D02*
X129500000Y-118775000D01*
X134475000Y-116000000D02*
X133225000Y-117250000D01*
X129580021Y-111155021D02*
X127550000Y-109125000D01*
X129580021Y-112330021D02*
X129580021Y-111155021D01*
X131500000Y-114250000D02*
X129580021Y-112330021D01*
X132725000Y-114250000D02*
X131500000Y-114250000D01*
X134475000Y-116000000D02*
X132725000Y-114250000D01*
%TO.N,GND*%
X127275000Y-117671810D02*
X127275000Y-118362500D01*
X129500000Y-117225000D02*
X127721810Y-117225000D01*
X127721810Y-117225000D02*
X127275000Y-117671810D01*
%TO.N,/~{CS}_IN*%
X125325000Y-112637500D02*
X125325000Y-110873002D01*
X125325000Y-110873002D02*
X125500000Y-110698002D01*
%TO.N,/SDI_HV*%
X129126501Y-112351501D02*
X127550000Y-110775000D01*
X129126501Y-113509506D02*
X129126501Y-112351501D01*
%TO.N,GND*%
X127925000Y-112637500D02*
X127925000Y-112675000D01*
X127925000Y-112675000D02*
X128500000Y-113250000D01*
%TO.N,/SDI_HV*%
X125975000Y-116661007D02*
X129126501Y-113509506D01*
X125975000Y-118362500D02*
X125975000Y-116661007D01*
%TO.N,GND*%
X130725000Y-116000000D02*
X129500000Y-117225000D01*
X131525000Y-116000000D02*
X130725000Y-116000000D01*
%TO.N,/INT_OUT*%
X126625000Y-117125000D02*
X126625000Y-118362500D01*
X126750000Y-117000000D02*
X126625000Y-117125000D01*
%TO.N,GND*%
X124025000Y-111549502D02*
X124250000Y-111324502D01*
X124025000Y-112637500D02*
X124025000Y-111549502D01*
X122075000Y-112637500D02*
X124025000Y-112637500D01*
%TO.N,/SDI*%
X122550000Y-110775000D02*
X123875000Y-110775000D01*
X123875000Y-110775000D02*
X124050000Y-110600000D01*
X121975000Y-110775000D02*
X121500000Y-111250000D01*
X122550000Y-110775000D02*
X121975000Y-110775000D01*
%TO.N,GND*%
X122275000Y-123000000D02*
X122000000Y-123275000D01*
X128775000Y-122275000D02*
X128250000Y-121750000D01*
X128775000Y-122500000D02*
X128775000Y-122275000D01*
X122750000Y-123000000D02*
X122275000Y-123000000D01*
%TO.N,+5V*%
X128026520Y-123301520D02*
X127225000Y-122500000D01*
X129551520Y-118826520D02*
X129551520Y-122978447D01*
X129551520Y-122978447D02*
X129228447Y-123301520D01*
X129228447Y-123301520D02*
X128026520Y-123301520D01*
X129500000Y-118775000D02*
X129551520Y-118826520D01*
%TO.N,GND*%
X127275000Y-119500000D02*
X127275000Y-118362500D01*
X128775000Y-121000000D02*
X127275000Y-119500000D01*
X128775000Y-122500000D02*
X128775000Y-121000000D01*
%TO.N,/SDO_OUT*%
X124025000Y-118362500D02*
X124025000Y-119275000D01*
X124025000Y-119275000D02*
X124500000Y-119750000D01*
%TO.N,+3V3*%
X113825000Y-115525000D02*
X112350000Y-117000000D01*
X116000000Y-115525000D02*
X113825000Y-115525000D01*
X120850000Y-110825000D02*
X122550000Y-109125000D01*
X120000000Y-110825000D02*
X120850000Y-110825000D01*
X120000000Y-113025000D02*
X120475000Y-113500000D01*
X120000000Y-110825000D02*
X120000000Y-113025000D01*
X116000000Y-114500000D02*
X116000000Y-115525000D01*
X120000000Y-113500000D02*
X119500000Y-113000000D01*
X120475000Y-113500000D02*
X120000000Y-113500000D01*
X122187500Y-121725000D02*
X123550000Y-120362500D01*
X122000000Y-121725000D02*
X122187500Y-121725000D01*
%TO.N,/~{CS}*%
X113825000Y-117175000D02*
X113650000Y-117000000D01*
X113825000Y-118500000D02*
X113825000Y-117175000D01*
%TO.N,+5V*%
X114325000Y-111825000D02*
X113500000Y-111000000D01*
X114325000Y-113000000D02*
X114325000Y-111825000D01*
X113675000Y-110825000D02*
X113500000Y-111000000D01*
X115000000Y-110825000D02*
X113675000Y-110825000D01*
X126625000Y-109125000D02*
X126000000Y-108500000D01*
X127550000Y-109125000D02*
X126625000Y-109125000D01*
%TO.N,/SDI_HV*%
X126725000Y-109950000D02*
X127550000Y-110775000D01*
X126050000Y-109950000D02*
X126725000Y-109950000D01*
%TO.N,+3V3*%
X122550000Y-109125000D02*
X123875000Y-109125000D01*
X123875000Y-109125000D02*
X124050000Y-109300000D01*
X118675000Y-110825000D02*
X118500000Y-110650000D01*
X120000000Y-110825000D02*
X118675000Y-110825000D01*
%TO.N,/SCL*%
X119825000Y-109350000D02*
X120000000Y-109175000D01*
%TO.N,/SCL_HV*%
X115675000Y-109175000D02*
X116500000Y-110000000D01*
X115000000Y-109175000D02*
X115675000Y-109175000D01*
%TO.N,/~{CS}_HV*%
X113000000Y-113325000D02*
X112675000Y-113000000D01*
X113000000Y-115000000D02*
X113000000Y-113325000D01*
%TO.N,+3V3*%
X112175000Y-117175000D02*
X112350000Y-117000000D01*
X112175000Y-118500000D02*
X112175000Y-117175000D01*
X116225000Y-115750000D02*
X116000000Y-115525000D01*
X117737500Y-115750000D02*
X116225000Y-115750000D01*
X119500000Y-114475000D02*
X120475000Y-113500000D01*
X119500000Y-115487500D02*
X119500000Y-114475000D01*
%TO.N,GND*%
X118500000Y-114475000D02*
X117525000Y-113500000D01*
X118500000Y-115487500D02*
X118500000Y-114475000D01*
%TO.N,+5V*%
X128337500Y-118775000D02*
X127925000Y-118362500D01*
X129500000Y-118775000D02*
X128337500Y-118775000D01*
%TO.N,GND*%
X122351520Y-123626520D02*
X122000000Y-123275000D01*
X123897381Y-123626520D02*
X122351520Y-123626520D01*
X124500000Y-123023901D02*
X123897381Y-123626520D01*
X124500000Y-122637500D02*
X124500000Y-123023901D01*
%TO.N,+5V*%
X124698901Y-121500000D02*
X125450000Y-122251099D01*
X125450000Y-122251099D02*
X125450000Y-122637500D01*
X124301099Y-121500000D02*
X124698901Y-121500000D01*
X123550000Y-122251099D02*
X124301099Y-121500000D01*
X123550000Y-122637500D02*
X123550000Y-122251099D01*
X125587500Y-122500000D02*
X125450000Y-122637500D01*
X127225000Y-122500000D02*
X125587500Y-122500000D01*
%TO.N,Net-(C6-Pad1)*%
X126587500Y-120362500D02*
X127225000Y-121000000D01*
X125450000Y-120362500D02*
X126587500Y-120362500D01*
%TD*%
%TA.AperFunction,Conductor*%
%TO.N,GND*%
G36*
X114026759Y-108528002D02*
G01*
X114073252Y-108581658D01*
X114083356Y-108651932D01*
X114075054Y-108680433D01*
X114074528Y-108681301D01*
X114072257Y-108688548D01*
X114072256Y-108688550D01*
X114064989Y-108711739D01*
X114023247Y-108844938D01*
X114016500Y-108918365D01*
X114016501Y-109431634D01*
X114023247Y-109505062D01*
X114025246Y-109511440D01*
X114025246Y-109511441D01*
X114060249Y-109623134D01*
X114074528Y-109668699D01*
X114163361Y-109815381D01*
X114258885Y-109910905D01*
X114292911Y-109973217D01*
X114287846Y-110044032D01*
X114258885Y-110089095D01*
X114195385Y-110152595D01*
X114133073Y-110186621D01*
X114106290Y-110189500D01*
X113754020Y-110189500D01*
X113742791Y-110188971D01*
X113735281Y-110187292D01*
X113727355Y-110187541D01*
X113727354Y-110187541D01*
X113667002Y-110189438D01*
X113663044Y-110189500D01*
X113635017Y-110189500D01*
X113630971Y-110190011D01*
X113619143Y-110190942D01*
X113578790Y-110192210D01*
X113574794Y-110192336D01*
X113574771Y-110191594D01*
X113552742Y-110192015D01*
X113512675Y-110187238D01*
X113512674Y-110187238D01*
X113505680Y-110186404D01*
X113498677Y-110187140D01*
X113498676Y-110187140D01*
X113332288Y-110204628D01*
X113332286Y-110204629D01*
X113325288Y-110205364D01*
X113153579Y-110263818D01*
X113120608Y-110284102D01*
X113005095Y-110355166D01*
X113005092Y-110355168D01*
X112999088Y-110358862D01*
X112994053Y-110363793D01*
X112994050Y-110363795D01*
X112874525Y-110480843D01*
X112869493Y-110485771D01*
X112771235Y-110638238D01*
X112768826Y-110644858D01*
X112768824Y-110644861D01*
X112715283Y-110791964D01*
X112709197Y-110808685D01*
X112686463Y-110988640D01*
X112704163Y-111169160D01*
X112761418Y-111341273D01*
X112765065Y-111347295D01*
X112765066Y-111347297D01*
X112839836Y-111470757D01*
X112855380Y-111496424D01*
X112860269Y-111501487D01*
X112860270Y-111501488D01*
X112912758Y-111555840D01*
X112981382Y-111626902D01*
X113055605Y-111675472D01*
X113116203Y-111715126D01*
X113133159Y-111726222D01*
X113139763Y-111728678D01*
X113139765Y-111728679D01*
X113218164Y-111757835D01*
X113303168Y-111789448D01*
X113310151Y-111790380D01*
X113310152Y-111790380D01*
X113361924Y-111797288D01*
X113426801Y-111826124D01*
X113434354Y-111833086D01*
X113635529Y-112034261D01*
X113669555Y-112096573D01*
X113664490Y-112167388D01*
X113635529Y-112212451D01*
X113589095Y-112258885D01*
X113526783Y-112292911D01*
X113455968Y-112287846D01*
X113410905Y-112258885D01*
X113315381Y-112163361D01*
X113168699Y-112074528D01*
X113161452Y-112072257D01*
X113161450Y-112072256D01*
X113056759Y-112039448D01*
X113005062Y-112023247D01*
X112931635Y-112016500D01*
X112928737Y-112016500D01*
X112674335Y-112016501D01*
X112418366Y-112016501D01*
X112415508Y-112016764D01*
X112415499Y-112016764D01*
X112379996Y-112020026D01*
X112344938Y-112023247D01*
X112338560Y-112025246D01*
X112338559Y-112025246D01*
X112188550Y-112072256D01*
X112188548Y-112072257D01*
X112181301Y-112074528D01*
X112034619Y-112163361D01*
X111913361Y-112284619D01*
X111824528Y-112431301D01*
X111822257Y-112438548D01*
X111822256Y-112438550D01*
X111819017Y-112448886D01*
X111773247Y-112594938D01*
X111766500Y-112668365D01*
X111766501Y-113331634D01*
X111766764Y-113334492D01*
X111766764Y-113334501D01*
X111767940Y-113347297D01*
X111773247Y-113405062D01*
X111775246Y-113411440D01*
X111775246Y-113411441D01*
X111812284Y-113529627D01*
X111824528Y-113568699D01*
X111913361Y-113715381D01*
X112034619Y-113836639D01*
X112181301Y-113925472D01*
X112188548Y-113927743D01*
X112188550Y-113927744D01*
X112250322Y-113947102D01*
X112269861Y-113953225D01*
X112276179Y-113955205D01*
X112335201Y-113994662D01*
X112363521Y-114059766D01*
X112364500Y-114075439D01*
X112364500Y-114307794D01*
X112344498Y-114375915D01*
X112339327Y-114383358D01*
X112329770Y-114396109D01*
X112329768Y-114396112D01*
X112324385Y-114403295D01*
X112273255Y-114539684D01*
X112266500Y-114601866D01*
X112266500Y-114782577D01*
X112246498Y-114850698D01*
X112229595Y-114871672D01*
X111054997Y-116046270D01*
X111046671Y-116053846D01*
X111040177Y-116057967D01*
X111034754Y-116063742D01*
X110993395Y-116107785D01*
X110990640Y-116110627D01*
X110970841Y-116130426D01*
X110968417Y-116133551D01*
X110968409Y-116133560D01*
X110968343Y-116133646D01*
X110960635Y-116142671D01*
X110930263Y-116175014D01*
X110926445Y-116181958D01*
X110926444Y-116181960D01*
X110920458Y-116192849D01*
X110909607Y-116209367D01*
X110897130Y-116225453D01*
X110879504Y-116266186D01*
X110874287Y-116276834D01*
X110872663Y-116279788D01*
X110852911Y-116315717D01*
X110850940Y-116323392D01*
X110850938Y-116323398D01*
X110847849Y-116335431D01*
X110841446Y-116354133D01*
X110833363Y-116372812D01*
X110830836Y-116388767D01*
X110826420Y-116416647D01*
X110824015Y-116428260D01*
X110812980Y-116471238D01*
X110812980Y-116491585D01*
X110811429Y-116511296D01*
X110810893Y-116514683D01*
X110808245Y-116531399D01*
X110808991Y-116539291D01*
X110812421Y-116575576D01*
X110812980Y-116587434D01*
X110812980Y-118914071D01*
X110812450Y-118925305D01*
X110810772Y-118932810D01*
X110811838Y-118966727D01*
X110812918Y-119001103D01*
X110812980Y-119005060D01*
X110812980Y-119033074D01*
X110813476Y-119036999D01*
X110813476Y-119037000D01*
X110813488Y-119037095D01*
X110814421Y-119048940D01*
X110815815Y-119093296D01*
X110818027Y-119100908D01*
X110821493Y-119112839D01*
X110825503Y-119132203D01*
X110826857Y-119142918D01*
X110828053Y-119152390D01*
X110830969Y-119159754D01*
X110830970Y-119159759D01*
X110844387Y-119193647D01*
X110848232Y-119204876D01*
X110860611Y-119247484D01*
X110864649Y-119254311D01*
X110864650Y-119254314D01*
X110870968Y-119264997D01*
X110879668Y-119282755D01*
X110884241Y-119294306D01*
X110884245Y-119294312D01*
X110887161Y-119301679D01*
X110891819Y-119308090D01*
X110891820Y-119308092D01*
X110913244Y-119337579D01*
X110919761Y-119347501D01*
X110938306Y-119378859D01*
X110938309Y-119378863D01*
X110942346Y-119385689D01*
X110956730Y-119400073D01*
X110969571Y-119415107D01*
X110981538Y-119431578D01*
X111011113Y-119456044D01*
X111015735Y-119459868D01*
X111024515Y-119467858D01*
X111767401Y-120210744D01*
X111801427Y-120273056D01*
X111796362Y-120343871D01*
X111784219Y-120368091D01*
X111771235Y-120388238D01*
X111756179Y-120429603D01*
X111713512Y-120546831D01*
X111709197Y-120558685D01*
X111686463Y-120738640D01*
X111704163Y-120919160D01*
X111761418Y-121091273D01*
X111765065Y-121097295D01*
X111765066Y-121097297D01*
X111776393Y-121116000D01*
X111833975Y-121211079D01*
X111846276Y-121231391D01*
X111864500Y-121296662D01*
X111864500Y-122170980D01*
X111863970Y-122182214D01*
X111862292Y-122189719D01*
X111862541Y-122197638D01*
X111864438Y-122258012D01*
X111864500Y-122261969D01*
X111864500Y-122289983D01*
X111864996Y-122293908D01*
X111864996Y-122293909D01*
X111865008Y-122294004D01*
X111865941Y-122305849D01*
X111867335Y-122350205D01*
X111871250Y-122363680D01*
X111873013Y-122369748D01*
X111877023Y-122389112D01*
X111879573Y-122409299D01*
X111882489Y-122416663D01*
X111882490Y-122416668D01*
X111895907Y-122450556D01*
X111899752Y-122461785D01*
X111912131Y-122504393D01*
X111916169Y-122511220D01*
X111916170Y-122511223D01*
X111922488Y-122521906D01*
X111931188Y-122539664D01*
X111935761Y-122551215D01*
X111935765Y-122551221D01*
X111938681Y-122558588D01*
X111943339Y-122564999D01*
X111943340Y-122565001D01*
X111964764Y-122594488D01*
X111971281Y-122604410D01*
X111989826Y-122635768D01*
X111989829Y-122635772D01*
X111993866Y-122642598D01*
X112008250Y-122656982D01*
X112021091Y-122672016D01*
X112033058Y-122688487D01*
X112065264Y-122715130D01*
X112067250Y-122716773D01*
X112076031Y-122724763D01*
X112628172Y-123276905D01*
X112662197Y-123339217D01*
X112657132Y-123410033D01*
X112614585Y-123466868D01*
X112548065Y-123491679D01*
X112539076Y-123492000D01*
X106922242Y-123492000D01*
X106853840Y-123471816D01*
X106735026Y-123395009D01*
X106724320Y-123387263D01*
X106493628Y-123201165D01*
X106483814Y-123192358D01*
X106273892Y-122983128D01*
X106265037Y-122973324D01*
X106249661Y-122954391D01*
X106078184Y-122743252D01*
X106070412Y-122732584D01*
X105908692Y-122484215D01*
X105902072Y-122472779D01*
X105887077Y-122443421D01*
X105767253Y-122208828D01*
X105761877Y-122196782D01*
X105655444Y-121920150D01*
X105651356Y-121907596D01*
X105636961Y-121853990D01*
X105574487Y-121621350D01*
X105571735Y-121608427D01*
X105567365Y-121580896D01*
X105525277Y-121315721D01*
X105523892Y-121302581D01*
X105521520Y-121257405D01*
X105514971Y-121132703D01*
X106390743Y-121132703D01*
X106391302Y-121136947D01*
X106391302Y-121136951D01*
X106404248Y-121235284D01*
X106428268Y-121417734D01*
X106429401Y-121421874D01*
X106429401Y-121421876D01*
X106445533Y-121480843D01*
X106504129Y-121695036D01*
X106505813Y-121698984D01*
X106606303Y-121934577D01*
X106616923Y-121959476D01*
X106652402Y-122018757D01*
X106761633Y-122201268D01*
X106764561Y-122206161D01*
X106944313Y-122430528D01*
X107041739Y-122522982D01*
X107127547Y-122604410D01*
X107152851Y-122628423D01*
X107386317Y-122796186D01*
X107390112Y-122798195D01*
X107390113Y-122798196D01*
X107411869Y-122809715D01*
X107640392Y-122930712D01*
X107910373Y-123029511D01*
X108191264Y-123090755D01*
X108219841Y-123093004D01*
X108414282Y-123108307D01*
X108414291Y-123108307D01*
X108416739Y-123108500D01*
X108572271Y-123108500D01*
X108574407Y-123108354D01*
X108574418Y-123108354D01*
X108782548Y-123094165D01*
X108782554Y-123094164D01*
X108786825Y-123093873D01*
X108791020Y-123093004D01*
X108791022Y-123093004D01*
X108994808Y-123050802D01*
X109068342Y-123035574D01*
X109339343Y-122939607D01*
X109447433Y-122883818D01*
X109591005Y-122809715D01*
X109591006Y-122809715D01*
X109594812Y-122807750D01*
X109598313Y-122805289D01*
X109598317Y-122805287D01*
X109773632Y-122682073D01*
X109830023Y-122642441D01*
X109978580Y-122504393D01*
X110037479Y-122449661D01*
X110037481Y-122449658D01*
X110040622Y-122446740D01*
X110222713Y-122224268D01*
X110372927Y-121979142D01*
X110391596Y-121936614D01*
X110486757Y-121719830D01*
X110488483Y-121715898D01*
X110504392Y-121660051D01*
X110540091Y-121534727D01*
X110567244Y-121439406D01*
X110604207Y-121179688D01*
X110607146Y-121159036D01*
X110607146Y-121159034D01*
X110607751Y-121154784D01*
X110607831Y-121139684D01*
X110609235Y-120871583D01*
X110609235Y-120871576D01*
X110609257Y-120867297D01*
X110606256Y-120844498D01*
X110576998Y-120622265D01*
X110571732Y-120582266D01*
X110569498Y-120574098D01*
X110532483Y-120438794D01*
X110495871Y-120304964D01*
X110459663Y-120220077D01*
X110384763Y-120044476D01*
X110384761Y-120044472D01*
X110383077Y-120040524D01*
X110299934Y-119901602D01*
X110237643Y-119797521D01*
X110237640Y-119797517D01*
X110235439Y-119793839D01*
X110055687Y-119569472D01*
X109915604Y-119436538D01*
X109850258Y-119374527D01*
X109850255Y-119374525D01*
X109847149Y-119371577D01*
X109629780Y-119215381D01*
X109617172Y-119206321D01*
X109617171Y-119206320D01*
X109613683Y-119203814D01*
X109591843Y-119192250D01*
X109528761Y-119158850D01*
X109359608Y-119069288D01*
X109089627Y-118970489D01*
X108808736Y-118909245D01*
X108777685Y-118906801D01*
X108585718Y-118891693D01*
X108585709Y-118891693D01*
X108583261Y-118891500D01*
X108427729Y-118891500D01*
X108425593Y-118891646D01*
X108425582Y-118891646D01*
X108217452Y-118905835D01*
X108217446Y-118905836D01*
X108213175Y-118906127D01*
X108208980Y-118906996D01*
X108208978Y-118906996D01*
X108084327Y-118932810D01*
X107931658Y-118964426D01*
X107660657Y-119060393D01*
X107656848Y-119062359D01*
X107469900Y-119158850D01*
X107405188Y-119192250D01*
X107401687Y-119194711D01*
X107401683Y-119194713D01*
X107188155Y-119344783D01*
X107169977Y-119357559D01*
X107132012Y-119392838D01*
X106971672Y-119541836D01*
X106959378Y-119553260D01*
X106777287Y-119775732D01*
X106647598Y-119987364D01*
X106632650Y-120011758D01*
X106627073Y-120020858D01*
X106625347Y-120024791D01*
X106625346Y-120024792D01*
X106621818Y-120032829D01*
X106511517Y-120284102D01*
X106432756Y-120560594D01*
X106392249Y-120845216D01*
X106392227Y-120849505D01*
X106392226Y-120849512D01*
X106390765Y-121128417D01*
X106390743Y-121132703D01*
X105514971Y-121132703D01*
X105510436Y-121046364D01*
X105512009Y-121018850D01*
X105512265Y-121017330D01*
X105512265Y-121017329D01*
X105513071Y-121012539D01*
X105513224Y-121000000D01*
X105509273Y-120972412D01*
X105508000Y-120954549D01*
X105508000Y-111132703D01*
X106390743Y-111132703D01*
X106391302Y-111136947D01*
X106391302Y-111136951D01*
X106397053Y-111180635D01*
X106428268Y-111417734D01*
X106429401Y-111421874D01*
X106429401Y-111421876D01*
X106441059Y-111464489D01*
X106504129Y-111695036D01*
X106505813Y-111698984D01*
X106604929Y-111931356D01*
X106616923Y-111959476D01*
X106684874Y-112073013D01*
X106761618Y-112201243D01*
X106764561Y-112206161D01*
X106944313Y-112430528D01*
X107052526Y-112533218D01*
X107138426Y-112614734D01*
X107152851Y-112628423D01*
X107386317Y-112796186D01*
X107390112Y-112798195D01*
X107390113Y-112798196D01*
X107409923Y-112808685D01*
X107640392Y-112930712D01*
X107910373Y-113029511D01*
X108191264Y-113090755D01*
X108219841Y-113093004D01*
X108414282Y-113108307D01*
X108414291Y-113108307D01*
X108416739Y-113108500D01*
X108572271Y-113108500D01*
X108574407Y-113108354D01*
X108574418Y-113108354D01*
X108782548Y-113094165D01*
X108782554Y-113094164D01*
X108786825Y-113093873D01*
X108791020Y-113093004D01*
X108791022Y-113093004D01*
X108927583Y-113064724D01*
X109068342Y-113035574D01*
X109339343Y-112939607D01*
X109594812Y-112807750D01*
X109598313Y-112805289D01*
X109598317Y-112805287D01*
X109793137Y-112668365D01*
X109830023Y-112642441D01*
X109908403Y-112569606D01*
X110037479Y-112449661D01*
X110037481Y-112449658D01*
X110040622Y-112446740D01*
X110222713Y-112224268D01*
X110372927Y-111979142D01*
X110378916Y-111965500D01*
X110486757Y-111719830D01*
X110488483Y-111715898D01*
X110499352Y-111677744D01*
X110549559Y-111501488D01*
X110567244Y-111439406D01*
X110607751Y-111154784D01*
X110607785Y-111148399D01*
X110609235Y-110871583D01*
X110609235Y-110871576D01*
X110609257Y-110867297D01*
X110607923Y-110857160D01*
X110589690Y-110718671D01*
X110571732Y-110582266D01*
X110495871Y-110304964D01*
X110477352Y-110261547D01*
X110384763Y-110044476D01*
X110384761Y-110044472D01*
X110383077Y-110040524D01*
X110292796Y-109889675D01*
X110237643Y-109797521D01*
X110237640Y-109797517D01*
X110235439Y-109793839D01*
X110055687Y-109569472D01*
X109847149Y-109371577D01*
X109635689Y-109219627D01*
X109617172Y-109206321D01*
X109617171Y-109206320D01*
X109613683Y-109203814D01*
X109591843Y-109192250D01*
X109568654Y-109179972D01*
X109359608Y-109069288D01*
X109190177Y-109007285D01*
X109093658Y-108971964D01*
X109093656Y-108971963D01*
X109089627Y-108970489D01*
X108808736Y-108909245D01*
X108777685Y-108906801D01*
X108585718Y-108891693D01*
X108585709Y-108891693D01*
X108583261Y-108891500D01*
X108427729Y-108891500D01*
X108425593Y-108891646D01*
X108425582Y-108891646D01*
X108217452Y-108905835D01*
X108217446Y-108905836D01*
X108213175Y-108906127D01*
X108208980Y-108906996D01*
X108208978Y-108906996D01*
X108072417Y-108935276D01*
X107931658Y-108964426D01*
X107660657Y-109060393D01*
X107405188Y-109192250D01*
X107401687Y-109194711D01*
X107401683Y-109194713D01*
X107288322Y-109274385D01*
X107169977Y-109357559D01*
X107103946Y-109418919D01*
X106993738Y-109521331D01*
X106959378Y-109553260D01*
X106777287Y-109775732D01*
X106627073Y-110020858D01*
X106625347Y-110024791D01*
X106625346Y-110024792D01*
X106527938Y-110246694D01*
X106511517Y-110284102D01*
X106510342Y-110288229D01*
X106510341Y-110288230D01*
X106499166Y-110327460D01*
X106432756Y-110560594D01*
X106403061Y-110769245D01*
X106394179Y-110831658D01*
X106392249Y-110845216D01*
X106392227Y-110849505D01*
X106392226Y-110849512D01*
X106390765Y-111128417D01*
X106390743Y-111132703D01*
X105508000Y-111132703D01*
X105508000Y-111053207D01*
X105509746Y-111032303D01*
X105512264Y-111017335D01*
X105513071Y-111012539D01*
X105513224Y-111000000D01*
X105512535Y-110995185D01*
X105512534Y-110995177D01*
X105511147Y-110985494D01*
X105510047Y-110961022D01*
X105510278Y-110956638D01*
X105523891Y-110697415D01*
X105525276Y-110684275D01*
X105525914Y-110680259D01*
X105571734Y-110391571D01*
X105574487Y-110378647D01*
X105578476Y-110363795D01*
X105651356Y-110092401D01*
X105655448Y-110079836D01*
X105669053Y-110044476D01*
X105761872Y-109803227D01*
X105767255Y-109791165D01*
X105770860Y-109784107D01*
X105902072Y-109527217D01*
X105908685Y-109515793D01*
X106064803Y-109276029D01*
X106070410Y-109267418D01*
X106078192Y-109256737D01*
X106156408Y-109160429D01*
X106265040Y-109026670D01*
X106273895Y-109016867D01*
X106483813Y-108807641D01*
X106493639Y-108798825D01*
X106724311Y-108612742D01*
X106735020Y-108604994D01*
X106853840Y-108528184D01*
X106922243Y-108508000D01*
X113958638Y-108508000D01*
X114026759Y-108528002D01*
G37*
%TD.AperFunction*%
%TA.AperFunction,Conductor*%
G36*
X137164399Y-115775049D02*
G01*
X137192444Y-115796176D01*
X138682557Y-117286289D01*
X138716583Y-117348601D01*
X138719253Y-117368131D01*
X138723740Y-117445960D01*
X138725110Y-117469715D01*
X138726247Y-117474761D01*
X138726248Y-117474767D01*
X138746843Y-117566150D01*
X138774222Y-117687639D01*
X138828967Y-117822461D01*
X138854590Y-117885562D01*
X138858266Y-117894616D01*
X138898029Y-117959504D01*
X138972291Y-118080688D01*
X138974987Y-118085088D01*
X138978367Y-118088990D01*
X138989352Y-118101671D01*
X139121250Y-118253938D01*
X139293126Y-118396632D01*
X139366955Y-118439774D01*
X139415679Y-118491412D01*
X139428750Y-118561195D01*
X139402019Y-118626967D01*
X139361562Y-118660327D01*
X139353457Y-118664546D01*
X139344738Y-118670036D01*
X139174433Y-118797905D01*
X139166726Y-118804748D01*
X139019590Y-118958717D01*
X139013104Y-118966727D01*
X138893098Y-119142649D01*
X138888000Y-119151623D01*
X138798338Y-119344783D01*
X138794775Y-119354470D01*
X138739389Y-119554183D01*
X138740912Y-119562607D01*
X138753292Y-119566000D01*
X142743000Y-119566000D01*
X142811121Y-119586002D01*
X142857614Y-119639658D01*
X142869000Y-119692000D01*
X142869000Y-119948000D01*
X142848998Y-120016121D01*
X142795342Y-120062614D01*
X142743000Y-120074000D01*
X138758225Y-120074000D01*
X138744694Y-120077973D01*
X138743257Y-120087966D01*
X138773565Y-120222446D01*
X138776645Y-120232275D01*
X138856770Y-120429603D01*
X138861413Y-120438794D01*
X138972694Y-120620388D01*
X138978777Y-120628699D01*
X139118213Y-120789667D01*
X139125580Y-120796883D01*
X139289434Y-120932916D01*
X139297881Y-120938831D01*
X139414901Y-121007212D01*
X139463625Y-121058850D01*
X139476696Y-121128633D01*
X139449965Y-121194405D01*
X139391918Y-121235284D01*
X139351331Y-121242000D01*
X136954280Y-121242000D01*
X136941618Y-121240604D01*
X136941590Y-121240966D01*
X136932643Y-121240271D01*
X136923882Y-121238315D01*
X136914926Y-121238896D01*
X136871153Y-121241736D01*
X136862995Y-121242000D01*
X136847690Y-121242000D01*
X136843252Y-121242635D01*
X136843244Y-121242636D01*
X136836466Y-121243607D01*
X136826768Y-121244615D01*
X136778673Y-121247736D01*
X136770238Y-121250808D01*
X136764791Y-121251952D01*
X136754340Y-121254574D01*
X136749012Y-121256132D01*
X136740122Y-121257405D01*
X136731953Y-121261119D01*
X136731947Y-121261121D01*
X136696257Y-121277349D01*
X136687224Y-121281041D01*
X136641944Y-121297532D01*
X136634712Y-121302847D01*
X136629806Y-121305473D01*
X136620538Y-121310906D01*
X136615830Y-121313917D01*
X136607657Y-121317633D01*
X136600855Y-121323494D01*
X136571148Y-121349091D01*
X136563516Y-121355168D01*
X136542089Y-121370915D01*
X136524688Y-121383703D01*
X136519235Y-121390838D01*
X136515260Y-121394739D01*
X136507880Y-121402564D01*
X136504220Y-121406760D01*
X136497420Y-121412619D01*
X136492537Y-121420153D01*
X136492536Y-121420154D01*
X136471211Y-121453054D01*
X136465591Y-121461031D01*
X136436329Y-121499320D01*
X136433099Y-121507695D01*
X136430378Y-121512556D01*
X136425501Y-121522119D01*
X136423155Y-121527196D01*
X136418274Y-121534727D01*
X136415702Y-121543327D01*
X136404466Y-121580896D01*
X136401316Y-121590114D01*
X136383972Y-121635089D01*
X136383222Y-121644039D01*
X136381975Y-121649467D01*
X136379972Y-121660051D01*
X136379151Y-121665543D01*
X136376580Y-121674141D01*
X136376537Y-121681180D01*
X136374474Y-121691014D01*
X136337819Y-121825859D01*
X136309426Y-121930309D01*
X136305354Y-121942709D01*
X136281663Y-122003962D01*
X136203458Y-122206161D01*
X136200054Y-122214961D01*
X136194725Y-122226866D01*
X136061818Y-122486774D01*
X136055284Y-122498067D01*
X135907943Y-122724763D01*
X135896206Y-122742822D01*
X135888536Y-122753383D01*
X135704990Y-122980368D01*
X135696268Y-122990079D01*
X135652360Y-123034144D01*
X135492540Y-123194534D01*
X135490223Y-123196859D01*
X135480547Y-123205612D01*
X135368058Y-123297237D01*
X135254223Y-123389959D01*
X135243693Y-123397665D01*
X135138043Y-123466868D01*
X135131124Y-123471400D01*
X135062084Y-123491998D01*
X130211739Y-123491998D01*
X130143618Y-123471996D01*
X130097125Y-123418340D01*
X130087021Y-123348066D01*
X130101919Y-123305738D01*
X130102869Y-123304514D01*
X130120489Y-123263797D01*
X130125712Y-123253136D01*
X130143269Y-123221200D01*
X130143271Y-123221195D01*
X130147089Y-123214250D01*
X130149059Y-123206576D01*
X130149062Y-123206569D01*
X130152152Y-123194534D01*
X130158556Y-123175829D01*
X130163487Y-123164434D01*
X130166637Y-123157155D01*
X130173580Y-123113320D01*
X130175987Y-123101698D01*
X130187020Y-123058729D01*
X130187020Y-123038382D01*
X130188571Y-123018671D01*
X130190515Y-123006397D01*
X130191755Y-122998568D01*
X130187579Y-122954391D01*
X130187020Y-122942533D01*
X130187020Y-121132703D01*
X131390743Y-121132703D01*
X131391302Y-121136947D01*
X131391302Y-121136951D01*
X131404248Y-121235284D01*
X131428268Y-121417734D01*
X131429401Y-121421874D01*
X131429401Y-121421876D01*
X131445533Y-121480843D01*
X131504129Y-121695036D01*
X131505813Y-121698984D01*
X131606303Y-121934577D01*
X131616923Y-121959476D01*
X131652402Y-122018757D01*
X131761633Y-122201268D01*
X131764561Y-122206161D01*
X131944313Y-122430528D01*
X132041739Y-122522982D01*
X132127547Y-122604410D01*
X132152851Y-122628423D01*
X132386317Y-122796186D01*
X132390112Y-122798195D01*
X132390113Y-122798196D01*
X132411869Y-122809715D01*
X132640392Y-122930712D01*
X132910373Y-123029511D01*
X133191264Y-123090755D01*
X133219841Y-123093004D01*
X133414282Y-123108307D01*
X133414291Y-123108307D01*
X133416739Y-123108500D01*
X133572271Y-123108500D01*
X133574407Y-123108354D01*
X133574418Y-123108354D01*
X133782548Y-123094165D01*
X133782554Y-123094164D01*
X133786825Y-123093873D01*
X133791020Y-123093004D01*
X133791022Y-123093004D01*
X133994808Y-123050802D01*
X134068342Y-123035574D01*
X134339343Y-122939607D01*
X134447433Y-122883818D01*
X134591005Y-122809715D01*
X134591006Y-122809715D01*
X134594812Y-122807750D01*
X134598313Y-122805289D01*
X134598317Y-122805287D01*
X134773632Y-122682073D01*
X134830023Y-122642441D01*
X134978580Y-122504393D01*
X135037479Y-122449661D01*
X135037481Y-122449658D01*
X135040622Y-122446740D01*
X135222713Y-122224268D01*
X135372927Y-121979142D01*
X135391596Y-121936614D01*
X135486757Y-121719830D01*
X135488483Y-121715898D01*
X135504392Y-121660051D01*
X135540091Y-121534727D01*
X135567244Y-121439406D01*
X135604207Y-121179688D01*
X135607146Y-121159036D01*
X135607146Y-121159034D01*
X135607751Y-121154784D01*
X135607831Y-121139684D01*
X135609235Y-120871583D01*
X135609235Y-120871576D01*
X135609257Y-120867297D01*
X135606256Y-120844498D01*
X135576998Y-120622265D01*
X135571732Y-120582266D01*
X135569498Y-120574098D01*
X135532483Y-120438794D01*
X135495871Y-120304964D01*
X135459663Y-120220077D01*
X135384763Y-120044476D01*
X135384761Y-120044472D01*
X135383077Y-120040524D01*
X135299934Y-119901602D01*
X135237643Y-119797521D01*
X135237640Y-119797517D01*
X135235439Y-119793839D01*
X135055687Y-119569472D01*
X134915604Y-119436538D01*
X134850258Y-119374527D01*
X134850255Y-119374525D01*
X134847149Y-119371577D01*
X134629780Y-119215381D01*
X134617172Y-119206321D01*
X134617171Y-119206320D01*
X134613683Y-119203814D01*
X134591843Y-119192250D01*
X134528761Y-119158850D01*
X134359608Y-119069288D01*
X134089627Y-118970489D01*
X133808736Y-118909245D01*
X133777685Y-118906801D01*
X133585718Y-118891693D01*
X133585709Y-118891693D01*
X133583261Y-118891500D01*
X133427729Y-118891500D01*
X133425593Y-118891646D01*
X133425582Y-118891646D01*
X133217452Y-118905835D01*
X133217446Y-118905836D01*
X133213175Y-118906127D01*
X133208980Y-118906996D01*
X133208978Y-118906996D01*
X133084327Y-118932810D01*
X132931658Y-118964426D01*
X132660657Y-119060393D01*
X132656848Y-119062359D01*
X132469900Y-119158850D01*
X132405188Y-119192250D01*
X132401687Y-119194711D01*
X132401683Y-119194713D01*
X132188155Y-119344783D01*
X132169977Y-119357559D01*
X132132012Y-119392838D01*
X131971672Y-119541836D01*
X131959378Y-119553260D01*
X131777287Y-119775732D01*
X131647598Y-119987364D01*
X131632650Y-120011758D01*
X131627073Y-120020858D01*
X131625347Y-120024791D01*
X131625346Y-120024792D01*
X131621818Y-120032829D01*
X131511517Y-120284102D01*
X131432756Y-120560594D01*
X131392249Y-120845216D01*
X131392227Y-120849505D01*
X131392226Y-120849512D01*
X131390765Y-121128417D01*
X131390743Y-121132703D01*
X130187020Y-121132703D01*
X130187020Y-119652610D01*
X130207022Y-119584489D01*
X130223847Y-119563592D01*
X130324381Y-119462883D01*
X130324385Y-119462878D01*
X130329552Y-119457702D01*
X130341074Y-119439010D01*
X130415462Y-119318331D01*
X130415463Y-119318329D01*
X130419302Y-119312101D01*
X130473149Y-119149757D01*
X130473878Y-119142649D01*
X130478977Y-119092873D01*
X130483500Y-119048732D01*
X130483500Y-118742423D01*
X130503502Y-118674302D01*
X130520405Y-118653327D01*
X131251329Y-117922404D01*
X131313641Y-117888379D01*
X131340424Y-117885500D01*
X133145980Y-117885500D01*
X133157214Y-117886030D01*
X133164719Y-117887708D01*
X133233012Y-117885562D01*
X133236969Y-117885500D01*
X133264983Y-117885500D01*
X133268908Y-117885004D01*
X133268909Y-117885004D01*
X133269004Y-117884992D01*
X133280849Y-117884059D01*
X133310670Y-117883122D01*
X133317282Y-117882914D01*
X133317283Y-117882914D01*
X133325205Y-117882665D01*
X133344749Y-117876987D01*
X133364112Y-117872977D01*
X133376440Y-117871420D01*
X133376442Y-117871420D01*
X133384299Y-117870427D01*
X133391663Y-117867511D01*
X133391668Y-117867510D01*
X133425556Y-117854093D01*
X133436785Y-117850248D01*
X133453465Y-117845402D01*
X133479393Y-117837869D01*
X133486220Y-117833831D01*
X133486223Y-117833830D01*
X133496906Y-117827512D01*
X133514664Y-117818812D01*
X133526215Y-117814239D01*
X133526221Y-117814235D01*
X133533588Y-117811319D01*
X133569491Y-117785234D01*
X133579410Y-117778719D01*
X133610768Y-117760174D01*
X133610772Y-117760171D01*
X133617598Y-117756134D01*
X133631982Y-117741750D01*
X133647016Y-117728909D01*
X133657073Y-117721602D01*
X133663487Y-117716942D01*
X133691778Y-117682744D01*
X133699767Y-117673965D01*
X133935366Y-117438366D01*
X133997678Y-117404340D01*
X134037303Y-117402117D01*
X134099600Y-117408500D01*
X134850400Y-117408500D01*
X134853646Y-117408163D01*
X134853650Y-117408163D01*
X134949308Y-117398238D01*
X134949312Y-117398237D01*
X134956166Y-117397526D01*
X134962702Y-117395345D01*
X134962704Y-117395345D01*
X135116998Y-117343868D01*
X135123946Y-117341550D01*
X135274348Y-117248478D01*
X135399305Y-117123303D01*
X135403498Y-117116501D01*
X135488275Y-116978968D01*
X135488276Y-116978966D01*
X135492115Y-116972738D01*
X135547797Y-116804861D01*
X135558500Y-116700400D01*
X135558500Y-116246803D01*
X135578502Y-116178682D01*
X135632158Y-116132189D01*
X135702432Y-116122085D01*
X135753493Y-116141371D01*
X135873952Y-116220197D01*
X135883159Y-116226222D01*
X135889763Y-116228678D01*
X135889765Y-116228679D01*
X136046558Y-116286990D01*
X136046560Y-116286990D01*
X136053168Y-116289448D01*
X136136995Y-116300633D01*
X136225980Y-116312507D01*
X136225984Y-116312507D01*
X136232961Y-116313438D01*
X136239972Y-116312800D01*
X136239976Y-116312800D01*
X136382459Y-116299832D01*
X136413600Y-116296998D01*
X136420302Y-116294820D01*
X136420304Y-116294820D01*
X136579409Y-116243124D01*
X136579412Y-116243123D01*
X136586108Y-116240947D01*
X136695148Y-116175946D01*
X136735860Y-116151677D01*
X136735862Y-116151676D01*
X136741912Y-116148069D01*
X136873266Y-116022982D01*
X136973643Y-115871902D01*
X136976144Y-115865317D01*
X136976147Y-115865312D01*
X136985561Y-115840528D01*
X137028449Y-115783950D01*
X137095117Y-115759540D01*
X137164399Y-115775049D01*
G37*
%TD.AperFunction*%
%TA.AperFunction,Conductor*%
G36*
X127365152Y-119401747D02*
G01*
X127374962Y-119413070D01*
X127385983Y-119427433D01*
X127385986Y-119427436D01*
X127391013Y-119433987D01*
X127423237Y-119458713D01*
X127425705Y-119460607D01*
X127467572Y-119517946D01*
X127475000Y-119560569D01*
X127475000Y-119581965D01*
X127479044Y-119595736D01*
X127492583Y-119597765D01*
X127525533Y-119593428D01*
X127541348Y-119589190D01*
X127551126Y-119585140D01*
X127621715Y-119577550D01*
X127647564Y-119585139D01*
X127666150Y-119592838D01*
X127674338Y-119593916D01*
X127781021Y-119607961D01*
X127785115Y-119608500D01*
X127924983Y-119608500D01*
X128064884Y-119608499D01*
X128068969Y-119607961D01*
X128068973Y-119607961D01*
X128175663Y-119593916D01*
X128175665Y-119593916D01*
X128183850Y-119592838D01*
X128277172Y-119554183D01*
X128324248Y-119534684D01*
X128324250Y-119534683D01*
X128331876Y-119531524D01*
X128338424Y-119526499D01*
X128338430Y-119526496D01*
X128455664Y-119436538D01*
X128521884Y-119410937D01*
X128532368Y-119410500D01*
X128573206Y-119410500D01*
X128641327Y-119430502D01*
X128669681Y-119456180D01*
X128671248Y-119458713D01*
X128792298Y-119579552D01*
X128798530Y-119583394D01*
X128798532Y-119583395D01*
X128856137Y-119618904D01*
X128903630Y-119671676D01*
X128916020Y-119726163D01*
X128916020Y-122540020D01*
X128896018Y-122608141D01*
X128842362Y-122654634D01*
X128790020Y-122666020D01*
X128647000Y-122666020D01*
X128578879Y-122646018D01*
X128532386Y-122592362D01*
X128521000Y-122540020D01*
X128521000Y-120035115D01*
X128516525Y-120019876D01*
X128515135Y-120018671D01*
X128507452Y-120017000D01*
X128504562Y-120017000D01*
X128498047Y-120017337D01*
X128405943Y-120026894D01*
X128392544Y-120029788D01*
X128243893Y-120079381D01*
X128230714Y-120085555D01*
X128097827Y-120167788D01*
X128080689Y-120181371D01*
X128079159Y-120179441D01*
X128027120Y-120207903D01*
X127956301Y-120202887D01*
X127919383Y-120179201D01*
X127918628Y-120180157D01*
X127912882Y-120175619D01*
X127907702Y-120170448D01*
X127773892Y-120087966D01*
X127768331Y-120084538D01*
X127768329Y-120084537D01*
X127762101Y-120080698D01*
X127599757Y-120026851D01*
X127592920Y-120026151D01*
X127592918Y-120026150D01*
X127551599Y-120021917D01*
X127498732Y-120016500D01*
X127192423Y-120016500D01*
X127124302Y-119996498D01*
X127103328Y-119979595D01*
X127092750Y-119969017D01*
X127085174Y-119960691D01*
X127081053Y-119954197D01*
X127031234Y-119907414D01*
X127028393Y-119904660D01*
X127008594Y-119884861D01*
X127005469Y-119882437D01*
X127005460Y-119882429D01*
X127005374Y-119882363D01*
X126996349Y-119874655D01*
X126969785Y-119849710D01*
X126964006Y-119844283D01*
X126952620Y-119838023D01*
X126946171Y-119834478D01*
X126929656Y-119823629D01*
X126919984Y-119816128D01*
X126878419Y-119758574D01*
X126874568Y-119687682D01*
X126909656Y-119625961D01*
X126972542Y-119593009D01*
X127016008Y-119594414D01*
X127016280Y-119592350D01*
X127057040Y-119597716D01*
X127071222Y-119595505D01*
X127075000Y-119582348D01*
X127075000Y-119560569D01*
X127095002Y-119492448D01*
X127124294Y-119460609D01*
X127158987Y-119433987D01*
X127175039Y-119413068D01*
X127232378Y-119371202D01*
X127303249Y-119366982D01*
X127365152Y-119401747D01*
G37*
%TD.AperFunction*%
%TA.AperFunction,Conductor*%
G36*
X121284532Y-118490379D02*
G01*
X121341368Y-118532926D01*
X121366179Y-118599446D01*
X121366500Y-118608435D01*
X121366501Y-118827240D01*
X121366501Y-119039884D01*
X121367039Y-119043969D01*
X121367039Y-119043973D01*
X121380277Y-119144531D01*
X121382162Y-119158850D01*
X121401825Y-119206321D01*
X121431789Y-119278660D01*
X121443476Y-119306876D01*
X121448502Y-119313426D01*
X121534227Y-119425143D01*
X121541013Y-119433987D01*
X121547563Y-119439013D01*
X121547566Y-119439016D01*
X121583726Y-119466762D01*
X121668125Y-119531524D01*
X121816150Y-119592838D01*
X121824338Y-119593916D01*
X121931021Y-119607961D01*
X121935115Y-119608500D01*
X122074983Y-119608500D01*
X122214884Y-119608499D01*
X122218969Y-119607961D01*
X122218973Y-119607961D01*
X122325663Y-119593916D01*
X122325665Y-119593916D01*
X122333850Y-119592838D01*
X122351781Y-119585411D01*
X122422370Y-119577821D01*
X122448218Y-119585410D01*
X122451661Y-119586837D01*
X122458520Y-119589678D01*
X122458523Y-119589679D01*
X122466150Y-119592838D01*
X122474338Y-119593916D01*
X122581021Y-119607961D01*
X122585115Y-119608500D01*
X122619152Y-119608500D01*
X122687273Y-119628502D01*
X122733766Y-119682158D01*
X122741703Y-119745954D01*
X122744438Y-119746169D01*
X122741824Y-119779386D01*
X122741500Y-119783498D01*
X122741500Y-120220077D01*
X122721498Y-120288198D01*
X122704595Y-120309173D01*
X122284171Y-120729596D01*
X122221859Y-120763621D01*
X122195076Y-120766500D01*
X121701268Y-120766500D01*
X121698022Y-120766837D01*
X121698018Y-120766837D01*
X121663917Y-120770375D01*
X121598981Y-120777113D01*
X121592440Y-120779295D01*
X121592441Y-120779295D01*
X121443676Y-120828927D01*
X121443674Y-120828928D01*
X121436732Y-120831244D01*
X121430508Y-120835096D01*
X121430507Y-120835096D01*
X121347053Y-120886739D01*
X121291287Y-120921248D01*
X121170448Y-121042298D01*
X121166608Y-121048528D01*
X121166607Y-121048529D01*
X121103759Y-121150488D01*
X121080698Y-121187899D01*
X121026851Y-121350243D01*
X121026151Y-121357080D01*
X121026150Y-121357082D01*
X121025462Y-121363795D01*
X121016500Y-121451268D01*
X121016500Y-121757577D01*
X120996498Y-121825698D01*
X120979595Y-121846672D01*
X120496613Y-122329654D01*
X120434301Y-122363680D01*
X120363486Y-122358615D01*
X120306650Y-122316068D01*
X120281839Y-122249548D01*
X120285477Y-122209224D01*
X120285556Y-122208917D01*
X120288055Y-122202338D01*
X120289829Y-122189719D01*
X120312748Y-122026639D01*
X120312748Y-122026636D01*
X120313299Y-122022717D01*
X120313616Y-122000000D01*
X120293397Y-121819745D01*
X120289922Y-121809767D01*
X120236064Y-121655106D01*
X120236062Y-121655103D01*
X120233745Y-121648448D01*
X120227365Y-121638238D01*
X120141359Y-121500598D01*
X120137626Y-121494624D01*
X120123941Y-121480843D01*
X120014778Y-121370915D01*
X120014774Y-121370912D01*
X120009815Y-121365918D01*
X119998697Y-121358862D01*
X119923746Y-121311297D01*
X119856666Y-121268727D01*
X119809556Y-121251952D01*
X119692425Y-121210243D01*
X119692420Y-121210242D01*
X119685790Y-121207881D01*
X119678802Y-121207048D01*
X119678799Y-121207047D01*
X119555698Y-121192368D01*
X119505680Y-121186404D01*
X119498677Y-121187140D01*
X119498675Y-121187140D01*
X119423263Y-121195066D01*
X119353425Y-121182294D01*
X119301578Y-121133792D01*
X119292111Y-121113985D01*
X119253768Y-121011705D01*
X119253767Y-121011703D01*
X119250615Y-121003295D01*
X119163261Y-120886739D01*
X119046705Y-120799385D01*
X119041941Y-120797599D01*
X118993176Y-120748724D01*
X118978163Y-120679333D01*
X119003049Y-120612841D01*
X119039701Y-120580006D01*
X119043929Y-120577506D01*
X119061677Y-120568812D01*
X119073228Y-120564239D01*
X119073234Y-120564235D01*
X119080601Y-120561319D01*
X119116504Y-120535234D01*
X119126423Y-120528719D01*
X119157781Y-120510174D01*
X119157785Y-120510171D01*
X119164611Y-120506134D01*
X119178995Y-120491750D01*
X119194029Y-120478909D01*
X119204086Y-120471602D01*
X119210500Y-120466942D01*
X119238791Y-120432744D01*
X119246780Y-120423965D01*
X119588488Y-120082257D01*
X119650800Y-120048231D01*
X119677583Y-120045352D01*
X119739248Y-120045352D01*
X119750482Y-120045882D01*
X119757987Y-120047560D01*
X119826280Y-120045414D01*
X119830237Y-120045352D01*
X119858251Y-120045352D01*
X119862176Y-120044856D01*
X119862177Y-120044856D01*
X119862272Y-120044844D01*
X119874117Y-120043911D01*
X119903938Y-120042974D01*
X119910550Y-120042766D01*
X119910551Y-120042766D01*
X119918473Y-120042517D01*
X119938017Y-120036839D01*
X119957380Y-120032829D01*
X119969708Y-120031272D01*
X119969710Y-120031272D01*
X119977567Y-120030279D01*
X119984931Y-120027363D01*
X119984936Y-120027362D01*
X120018824Y-120013945D01*
X120030053Y-120010100D01*
X120046733Y-120005254D01*
X120072661Y-119997721D01*
X120079488Y-119993683D01*
X120079491Y-119993682D01*
X120090174Y-119987364D01*
X120107932Y-119978664D01*
X120119483Y-119974091D01*
X120119489Y-119974087D01*
X120126856Y-119971171D01*
X120162759Y-119945086D01*
X120172678Y-119938571D01*
X120204036Y-119920026D01*
X120204040Y-119920023D01*
X120210866Y-119915986D01*
X120225250Y-119901602D01*
X120240284Y-119888761D01*
X120250341Y-119881454D01*
X120256755Y-119876794D01*
X120285046Y-119842596D01*
X120293035Y-119833817D01*
X120578740Y-119548112D01*
X120587066Y-119540535D01*
X120593566Y-119536410D01*
X120640364Y-119486575D01*
X120643118Y-119483734D01*
X120662901Y-119463951D01*
X120665392Y-119460740D01*
X120673101Y-119451713D01*
X120698052Y-119425143D01*
X120703480Y-119419363D01*
X120710228Y-119407088D01*
X120713285Y-119401528D01*
X120724139Y-119385004D01*
X120731754Y-119375187D01*
X120731755Y-119375186D01*
X120736612Y-119368924D01*
X120754232Y-119328207D01*
X120759455Y-119317546D01*
X120777012Y-119285610D01*
X120777014Y-119285605D01*
X120780832Y-119278660D01*
X120782802Y-119270986D01*
X120782805Y-119270979D01*
X120785895Y-119258944D01*
X120792299Y-119240239D01*
X120797230Y-119228844D01*
X120800380Y-119221565D01*
X120807323Y-119177730D01*
X120809730Y-119166108D01*
X120809880Y-119165524D01*
X120820763Y-119123139D01*
X120820763Y-119102792D01*
X120822314Y-119083081D01*
X120824258Y-119070807D01*
X120825498Y-119062978D01*
X120821322Y-119018801D01*
X120820763Y-119006943D01*
X120820763Y-118902172D01*
X120840765Y-118834051D01*
X120857668Y-118813077D01*
X121151405Y-118519340D01*
X121213717Y-118485314D01*
X121284532Y-118490379D01*
G37*
%TD.AperFunction*%
%TA.AperFunction,Conductor*%
G36*
X114861869Y-120655502D02*
G01*
X114908362Y-120709158D01*
X114918466Y-120779432D01*
X114888972Y-120844012D01*
X114869313Y-120862326D01*
X114856962Y-120871583D01*
X114836739Y-120886739D01*
X114749385Y-121003295D01*
X114746233Y-121011703D01*
X114704538Y-121122924D01*
X114661896Y-121179688D01*
X114595335Y-121204388D01*
X114571637Y-121203808D01*
X114462611Y-121190808D01*
X114425680Y-121186404D01*
X114418677Y-121187140D01*
X114418676Y-121187140D01*
X114252288Y-121204628D01*
X114252286Y-121204629D01*
X114245288Y-121205364D01*
X114073579Y-121263818D01*
X114020192Y-121296662D01*
X113925095Y-121355166D01*
X113925092Y-121355168D01*
X113919088Y-121358862D01*
X113914053Y-121363793D01*
X113914050Y-121363795D01*
X113804462Y-121471112D01*
X113789493Y-121485771D01*
X113691235Y-121638238D01*
X113688826Y-121644858D01*
X113688824Y-121644861D01*
X113636152Y-121789577D01*
X113629197Y-121808685D01*
X113606463Y-121988640D01*
X113616145Y-122087381D01*
X113623118Y-122158501D01*
X113609858Y-122228248D01*
X113560996Y-122279755D01*
X113492043Y-122296668D01*
X113424893Y-122273618D01*
X113408624Y-122259891D01*
X113172405Y-122023672D01*
X113138379Y-121961360D01*
X113135500Y-121934577D01*
X113135500Y-121292609D01*
X113156552Y-121222882D01*
X113166519Y-121207881D01*
X113223643Y-121121902D01*
X113269950Y-121000000D01*
X113285555Y-120958920D01*
X113285556Y-120958918D01*
X113288055Y-120952338D01*
X113291696Y-120926430D01*
X113312748Y-120776639D01*
X113312748Y-120776636D01*
X113313299Y-120772717D01*
X113313480Y-120759742D01*
X113334431Y-120691907D01*
X113388729Y-120646167D01*
X113439468Y-120635500D01*
X114793748Y-120635500D01*
X114861869Y-120655502D01*
G37*
%TD.AperFunction*%
%TA.AperFunction,Conductor*%
G36*
X129905328Y-113574654D02*
G01*
X129957204Y-113605936D01*
X130846476Y-114495208D01*
X130880502Y-114557520D01*
X130875437Y-114628335D01*
X130832890Y-114685171D01*
X130823684Y-114691448D01*
X130732187Y-114748068D01*
X130720792Y-114757099D01*
X130606261Y-114871829D01*
X130597249Y-114883240D01*
X130512184Y-115021243D01*
X130506037Y-115034424D01*
X130454862Y-115188710D01*
X130451995Y-115202086D01*
X130442328Y-115296438D01*
X130442000Y-115302855D01*
X130442000Y-115727885D01*
X130446475Y-115743124D01*
X130447865Y-115744329D01*
X130455548Y-115746000D01*
X132589884Y-115746000D01*
X132605123Y-115741525D01*
X132606328Y-115740135D01*
X132607999Y-115732452D01*
X132607999Y-115335922D01*
X132628001Y-115267801D01*
X132681657Y-115221308D01*
X132751931Y-115211204D01*
X132816511Y-115240698D01*
X132823089Y-115246822D01*
X133354596Y-115778329D01*
X133388621Y-115840641D01*
X133391500Y-115867424D01*
X133391500Y-116132577D01*
X133371498Y-116200698D01*
X133354595Y-116221672D01*
X132998672Y-116577595D01*
X132936360Y-116611621D01*
X132909577Y-116614500D01*
X132734000Y-116614500D01*
X132665879Y-116594498D01*
X132619386Y-116540842D01*
X132608000Y-116488500D01*
X132608000Y-116272115D01*
X132603525Y-116256876D01*
X132602135Y-116255671D01*
X132594452Y-116254000D01*
X130460116Y-116254000D01*
X130444877Y-116258475D01*
X130443672Y-116259865D01*
X130442001Y-116267548D01*
X130442001Y-116351228D01*
X130421999Y-116419349D01*
X130368343Y-116465842D01*
X130298069Y-116475946D01*
X130233489Y-116446452D01*
X130226983Y-116440401D01*
X130212571Y-116426014D01*
X130201160Y-116417002D01*
X130068120Y-116334996D01*
X130054939Y-116328849D01*
X129906186Y-116279509D01*
X129892810Y-116276642D01*
X129801903Y-116267328D01*
X129795486Y-116267000D01*
X129772115Y-116267000D01*
X129756876Y-116271475D01*
X129755671Y-116272865D01*
X129754000Y-116280548D01*
X129754000Y-117353000D01*
X129733998Y-117421121D01*
X129680342Y-117467614D01*
X129628000Y-117479000D01*
X129372000Y-117479000D01*
X129303879Y-117458998D01*
X129257386Y-117405342D01*
X129246000Y-117353000D01*
X129246000Y-116285115D01*
X129241525Y-116269876D01*
X129240135Y-116268671D01*
X129232452Y-116267000D01*
X129204562Y-116267000D01*
X129198047Y-116267337D01*
X129105943Y-116276894D01*
X129092544Y-116279788D01*
X128943893Y-116329381D01*
X128930714Y-116335555D01*
X128797827Y-116417788D01*
X128786426Y-116426824D01*
X128676014Y-116537429D01*
X128667002Y-116548840D01*
X128584996Y-116681880D01*
X128578849Y-116695061D01*
X128529509Y-116843814D01*
X128526642Y-116857190D01*
X128517328Y-116948097D01*
X128517000Y-116954514D01*
X128517000Y-117083364D01*
X128496998Y-117151485D01*
X128443342Y-117197978D01*
X128373068Y-117208082D01*
X128332703Y-117194111D01*
X128331875Y-117193476D01*
X128183850Y-117132162D01*
X128069230Y-117117072D01*
X128068972Y-117117038D01*
X128068971Y-117117038D01*
X128064885Y-117116500D01*
X127925017Y-117116500D01*
X127785116Y-117116501D01*
X127781031Y-117117039D01*
X127781027Y-117117039D01*
X127706046Y-117126910D01*
X127635897Y-117115970D01*
X127582799Y-117068842D01*
X127565705Y-117007819D01*
X127563754Y-117007914D01*
X127563561Y-117003964D01*
X127563616Y-117000000D01*
X127543397Y-116819745D01*
X127535832Y-116798022D01*
X127486064Y-116655106D01*
X127486062Y-116655103D01*
X127483745Y-116648448D01*
X127460733Y-116611621D01*
X127391359Y-116500598D01*
X127387626Y-116494624D01*
X127378275Y-116485207D01*
X127302951Y-116409356D01*
X127269144Y-116346925D01*
X127274456Y-116276128D01*
X127303262Y-116231477D01*
X129519978Y-114014761D01*
X129528304Y-114007184D01*
X129534804Y-114003059D01*
X129551039Y-113985771D01*
X129581601Y-113953225D01*
X129584356Y-113950383D01*
X129604139Y-113930600D01*
X129606630Y-113927389D01*
X129614339Y-113918362D01*
X129644718Y-113886012D01*
X129650850Y-113874858D01*
X129654523Y-113868177D01*
X129665377Y-113851653D01*
X129672992Y-113841836D01*
X129672993Y-113841835D01*
X129677850Y-113835573D01*
X129695470Y-113794856D01*
X129700693Y-113784195D01*
X129718250Y-113752259D01*
X129718252Y-113752254D01*
X129722070Y-113745309D01*
X129724040Y-113737635D01*
X129724043Y-113737628D01*
X129727133Y-113725593D01*
X129733537Y-113706888D01*
X129738468Y-113695493D01*
X129741618Y-113688214D01*
X129742858Y-113680386D01*
X129742859Y-113680382D01*
X129743660Y-113675322D01*
X129774071Y-113611169D01*
X129834339Y-113573641D01*
X129905328Y-113574654D01*
G37*
%TD.AperFunction*%
%TA.AperFunction,Conductor*%
G36*
X119235505Y-116328998D02*
G01*
X119264446Y-116328940D01*
X119264684Y-116326745D01*
X119307515Y-116331398D01*
X119373077Y-116358640D01*
X119413503Y-116417003D01*
X119419170Y-116443056D01*
X119423748Y-116485207D01*
X119421353Y-116485467D01*
X119421351Y-116514532D01*
X119423748Y-116514792D01*
X119419169Y-116556946D01*
X119391928Y-116622508D01*
X119333565Y-116662935D01*
X119307514Y-116668602D01*
X119264684Y-116673255D01*
X119264420Y-116670826D01*
X119235580Y-116670826D01*
X119235316Y-116673255D01*
X119176531Y-116666869D01*
X119173134Y-116666500D01*
X118826866Y-116666500D01*
X118764684Y-116673255D01*
X118764420Y-116670826D01*
X118735581Y-116670826D01*
X118735317Y-116673255D01*
X118712956Y-116670826D01*
X118692998Y-116668658D01*
X118627436Y-116641417D01*
X118587009Y-116583054D01*
X118581342Y-116557002D01*
X118576745Y-116514683D01*
X118579174Y-116514419D01*
X118579174Y-116485580D01*
X118576745Y-116485316D01*
X118581398Y-116442485D01*
X118608640Y-116376923D01*
X118667003Y-116336497D01*
X118693056Y-116330830D01*
X118735207Y-116326252D01*
X118735467Y-116328647D01*
X118764533Y-116328649D01*
X118764793Y-116326252D01*
X118823514Y-116332631D01*
X118830327Y-116333000D01*
X119169668Y-116332999D01*
X119176490Y-116332629D01*
X119235207Y-116326252D01*
X119235505Y-116328998D01*
G37*
%TD.AperFunction*%
%TA.AperFunction,Conductor*%
G36*
X123908621Y-112457502D02*
G01*
X123955114Y-112511158D01*
X123966500Y-112563499D01*
X123966501Y-112711499D01*
X123946499Y-112779620D01*
X123892844Y-112826113D01*
X123840501Y-112837500D01*
X123593115Y-112837500D01*
X123577876Y-112841975D01*
X123576671Y-112843365D01*
X123575000Y-112851048D01*
X123575000Y-113856965D01*
X123579044Y-113870736D01*
X123592583Y-113872765D01*
X123625533Y-113868428D01*
X123641345Y-113864191D01*
X123651779Y-113859869D01*
X123722369Y-113852278D01*
X123748221Y-113859869D01*
X123758654Y-113864191D01*
X123774468Y-113868428D01*
X123881066Y-113882462D01*
X123889276Y-113883000D01*
X123913500Y-113883000D01*
X123981621Y-113903002D01*
X124028114Y-113956658D01*
X124039500Y-114009000D01*
X124039500Y-114828330D01*
X124019498Y-114896451D01*
X123965842Y-114942944D01*
X123898581Y-114953444D01*
X123755680Y-114936404D01*
X123748677Y-114937140D01*
X123748676Y-114937140D01*
X123582288Y-114954628D01*
X123582286Y-114954629D01*
X123575288Y-114955364D01*
X123403579Y-115013818D01*
X123354789Y-115043834D01*
X123270292Y-115095817D01*
X123204270Y-115114500D01*
X121081617Y-115114500D01*
X121013496Y-115094498D01*
X120967003Y-115040842D01*
X120956899Y-114970568D01*
X120986393Y-114905988D01*
X121041740Y-114868977D01*
X121116993Y-114843870D01*
X121116995Y-114843869D01*
X121123946Y-114841550D01*
X121274348Y-114748478D01*
X121399305Y-114623303D01*
X121418909Y-114591500D01*
X121488275Y-114478968D01*
X121488276Y-114478966D01*
X121492115Y-114472738D01*
X121524598Y-114374805D01*
X121545632Y-114311389D01*
X121545632Y-114311387D01*
X121547797Y-114304861D01*
X121558500Y-114200400D01*
X121558500Y-113949147D01*
X121578502Y-113881026D01*
X121632158Y-113834533D01*
X121702432Y-113824429D01*
X121732718Y-113832738D01*
X121808649Y-113864189D01*
X121824469Y-113868428D01*
X121857040Y-113872716D01*
X121871222Y-113870505D01*
X121875000Y-113857348D01*
X121875000Y-113856965D01*
X122275000Y-113856965D01*
X122279044Y-113870736D01*
X122292583Y-113872765D01*
X122325533Y-113868428D01*
X122341345Y-113864191D01*
X122351779Y-113859869D01*
X122422369Y-113852278D01*
X122448221Y-113859869D01*
X122458652Y-113864190D01*
X122474469Y-113868428D01*
X122507040Y-113872716D01*
X122521222Y-113870505D01*
X122525000Y-113857348D01*
X122525000Y-113856965D01*
X122925000Y-113856965D01*
X122929044Y-113870736D01*
X122942583Y-113872765D01*
X122975533Y-113868428D01*
X122991345Y-113864191D01*
X123001779Y-113859869D01*
X123072369Y-113852278D01*
X123098221Y-113859869D01*
X123108652Y-113864190D01*
X123124469Y-113868428D01*
X123157040Y-113872716D01*
X123171222Y-113870505D01*
X123175000Y-113857348D01*
X123175000Y-112855615D01*
X123170525Y-112840376D01*
X123169135Y-112839171D01*
X123161452Y-112837500D01*
X122943115Y-112837500D01*
X122927876Y-112841975D01*
X122926671Y-112843365D01*
X122925000Y-112851048D01*
X122925000Y-113856965D01*
X122525000Y-113856965D01*
X122525000Y-112855615D01*
X122520525Y-112840376D01*
X122519135Y-112839171D01*
X122511452Y-112837500D01*
X122293115Y-112837500D01*
X122277876Y-112841975D01*
X122276671Y-112843365D01*
X122275000Y-112851048D01*
X122275000Y-113856965D01*
X121875000Y-113856965D01*
X121875000Y-112563500D01*
X121895002Y-112495379D01*
X121948658Y-112448886D01*
X122001000Y-112437500D01*
X123840500Y-112437500D01*
X123908621Y-112457502D01*
G37*
%TD.AperFunction*%
%TA.AperFunction,Conductor*%
G36*
X117815205Y-108528002D02*
G01*
X117861698Y-108581658D01*
X117871802Y-108651932D01*
X117842308Y-108716512D01*
X117822649Y-108734826D01*
X117786739Y-108761739D01*
X117699385Y-108878295D01*
X117648255Y-109014684D01*
X117641500Y-109076866D01*
X117641500Y-109623134D01*
X117648255Y-109685316D01*
X117699385Y-109821705D01*
X117749266Y-109888261D01*
X117776377Y-109924435D01*
X117801225Y-109990941D01*
X117786172Y-110060324D01*
X117776377Y-110075565D01*
X117699385Y-110178295D01*
X117648255Y-110314684D01*
X117641500Y-110376866D01*
X117641500Y-110923134D01*
X117648255Y-110985316D01*
X117699385Y-111121705D01*
X117786739Y-111238261D01*
X117903295Y-111325615D01*
X118039684Y-111376745D01*
X118101866Y-111383500D01*
X118339364Y-111383500D01*
X118389396Y-111393859D01*
X118389641Y-111393965D01*
X118400309Y-111399191D01*
X118432249Y-111416750D01*
X118432253Y-111416752D01*
X118439197Y-111420569D01*
X118446871Y-111422539D01*
X118446878Y-111422542D01*
X118458913Y-111425632D01*
X118477618Y-111432036D01*
X118484835Y-111435159D01*
X118496292Y-111440117D01*
X118517866Y-111443534D01*
X118540127Y-111447060D01*
X118551740Y-111449465D01*
X118594718Y-111460500D01*
X118615065Y-111460500D01*
X118634777Y-111462051D01*
X118654879Y-111465235D01*
X118662771Y-111464489D01*
X118699056Y-111461059D01*
X118710914Y-111460500D01*
X119106290Y-111460500D01*
X119174411Y-111480502D01*
X119195385Y-111497405D01*
X119284619Y-111586639D01*
X119303773Y-111598239D01*
X119351678Y-111650636D01*
X119364500Y-111706014D01*
X119364500Y-112101808D01*
X119344498Y-112169929D01*
X119290842Y-112216422D01*
X119279108Y-112221085D01*
X119153579Y-112263818D01*
X119106289Y-112292911D01*
X119005095Y-112355166D01*
X119005092Y-112355168D01*
X118999088Y-112358862D01*
X118994053Y-112363793D01*
X118994050Y-112363795D01*
X118906367Y-112449661D01*
X118869493Y-112485771D01*
X118819401Y-112563499D01*
X118786509Y-112614537D01*
X118732795Y-112660962D01*
X118662508Y-112670977D01*
X118597965Y-112641402D01*
X118561074Y-112586157D01*
X118543413Y-112533218D01*
X118537239Y-112520038D01*
X118451937Y-112382193D01*
X118442901Y-112370792D01*
X118328171Y-112256261D01*
X118316760Y-112247249D01*
X118178757Y-112162184D01*
X118165576Y-112156037D01*
X118011290Y-112104862D01*
X117997914Y-112101995D01*
X117903562Y-112092328D01*
X117897145Y-112092000D01*
X117797115Y-112092000D01*
X117781876Y-112096475D01*
X117780671Y-112097865D01*
X117779000Y-112105548D01*
X117779000Y-113227885D01*
X117783475Y-113243124D01*
X117784865Y-113244329D01*
X117792548Y-113246000D01*
X118589884Y-113246000D01*
X118600608Y-113242851D01*
X118671604Y-113242851D01*
X118731330Y-113281234D01*
X118755663Y-113323974D01*
X118761418Y-113341273D01*
X118765065Y-113347295D01*
X118765066Y-113347297D01*
X118800050Y-113405062D01*
X118855380Y-113496424D01*
X118981382Y-113626902D01*
X119073585Y-113687238D01*
X119133159Y-113726222D01*
X119131637Y-113728548D01*
X119174238Y-113768472D01*
X119191570Y-113837321D01*
X119168929Y-113904610D01*
X119154761Y-113921506D01*
X119106517Y-113969750D01*
X119098191Y-113977326D01*
X119091697Y-113981447D01*
X119086274Y-113987222D01*
X119044915Y-114031265D01*
X119042160Y-114034107D01*
X119022361Y-114053906D01*
X119019937Y-114057031D01*
X119019929Y-114057040D01*
X119019863Y-114057126D01*
X119012155Y-114066151D01*
X118981783Y-114098494D01*
X118977965Y-114105438D01*
X118977964Y-114105440D01*
X118971978Y-114116329D01*
X118961127Y-114132847D01*
X118948650Y-114148933D01*
X118931024Y-114189666D01*
X118925807Y-114200314D01*
X118919415Y-114211942D01*
X118904431Y-114239197D01*
X118902460Y-114246872D01*
X118902458Y-114246878D01*
X118899369Y-114258911D01*
X118892966Y-114277613D01*
X118884883Y-114296292D01*
X118880789Y-114322142D01*
X118877940Y-114340127D01*
X118875535Y-114351740D01*
X118864500Y-114394718D01*
X118864500Y-114415065D01*
X118862949Y-114434776D01*
X118859765Y-114454879D01*
X118860511Y-114462771D01*
X118863941Y-114499056D01*
X118864500Y-114510914D01*
X118864500Y-114522364D01*
X118844498Y-114590485D01*
X118790842Y-114636978D01*
X118724894Y-114647627D01*
X118676491Y-114642369D01*
X118669672Y-114642000D01*
X118659476Y-114642000D01*
X118591355Y-114621998D01*
X118544862Y-114568342D01*
X118534758Y-114498068D01*
X118542304Y-114472739D01*
X118541658Y-114472525D01*
X118595138Y-114311290D01*
X118598005Y-114297914D01*
X118607672Y-114203562D01*
X118608000Y-114197146D01*
X118608000Y-113772115D01*
X118603525Y-113756876D01*
X118602135Y-113755671D01*
X118594452Y-113754000D01*
X116460116Y-113754000D01*
X116419990Y-113765782D01*
X116342226Y-113763585D01*
X116295284Y-113746870D01*
X116192425Y-113710243D01*
X116192420Y-113710242D01*
X116185790Y-113707881D01*
X116178802Y-113707048D01*
X116178799Y-113707047D01*
X116055698Y-113692368D01*
X116005680Y-113686404D01*
X115998677Y-113687140D01*
X115998676Y-113687140D01*
X115832288Y-113704628D01*
X115832286Y-113704629D01*
X115825288Y-113705364D01*
X115653579Y-113763818D01*
X115615052Y-113787520D01*
X115505095Y-113855166D01*
X115505092Y-113855168D01*
X115499088Y-113858862D01*
X115494053Y-113863793D01*
X115494050Y-113863795D01*
X115400706Y-113955205D01*
X115369493Y-113985771D01*
X115271235Y-114138238D01*
X115268826Y-114144858D01*
X115268824Y-114144861D01*
X115211606Y-114302066D01*
X115209197Y-114308685D01*
X115208314Y-114315675D01*
X115200844Y-114374805D01*
X115172462Y-114439882D01*
X115115714Y-114478537D01*
X115026054Y-114508450D01*
X114875652Y-114601522D01*
X114750695Y-114726697D01*
X114746855Y-114732927D01*
X114746854Y-114732928D01*
X114742495Y-114740000D01*
X114688048Y-114828330D01*
X114687255Y-114829616D01*
X114634483Y-114877109D01*
X114579995Y-114889500D01*
X113904020Y-114889500D01*
X113892786Y-114888970D01*
X113885281Y-114887292D01*
X113863458Y-114887978D01*
X113794743Y-114870126D01*
X113746587Y-114817957D01*
X113733500Y-114762040D01*
X113733500Y-114601866D01*
X113726745Y-114539684D01*
X113675615Y-114403295D01*
X113670232Y-114396112D01*
X113670230Y-114396109D01*
X113660673Y-114383358D01*
X113635826Y-114316852D01*
X113635500Y-114307794D01*
X113635500Y-114030505D01*
X113655502Y-113962384D01*
X113709158Y-113915891D01*
X113779432Y-113905787D01*
X113817439Y-113919388D01*
X113817880Y-113918411D01*
X113824804Y-113921537D01*
X113831301Y-113925472D01*
X113838548Y-113927743D01*
X113838550Y-113927744D01*
X113904836Y-113948517D01*
X113994938Y-113976753D01*
X114068365Y-113983500D01*
X114071263Y-113983500D01*
X114325665Y-113983499D01*
X114581634Y-113983499D01*
X114584492Y-113983236D01*
X114584501Y-113983236D01*
X114620004Y-113979974D01*
X114655062Y-113976753D01*
X114661447Y-113974752D01*
X114811450Y-113927744D01*
X114811452Y-113927743D01*
X114818699Y-113925472D01*
X114965381Y-113836639D01*
X115086639Y-113715381D01*
X115175472Y-113568699D01*
X115187717Y-113529627D01*
X115224752Y-113411446D01*
X115226753Y-113405062D01*
X115233500Y-113331635D01*
X115233500Y-113227885D01*
X116442000Y-113227885D01*
X116446475Y-113243124D01*
X116447865Y-113244329D01*
X116455548Y-113246000D01*
X117252885Y-113246000D01*
X117268124Y-113241525D01*
X117269329Y-113240135D01*
X117271000Y-113232452D01*
X117271000Y-112110116D01*
X117266525Y-112094877D01*
X117265135Y-112093672D01*
X117257452Y-112092001D01*
X117152905Y-112092001D01*
X117146386Y-112092338D01*
X117050794Y-112102257D01*
X117037400Y-112105149D01*
X116883216Y-112156588D01*
X116870038Y-112162761D01*
X116732193Y-112248063D01*
X116720792Y-112257099D01*
X116606261Y-112371829D01*
X116597249Y-112383240D01*
X116512184Y-112521243D01*
X116506037Y-112534424D01*
X116454862Y-112688710D01*
X116451995Y-112702086D01*
X116442328Y-112796438D01*
X116442000Y-112802855D01*
X116442000Y-113227885D01*
X115233500Y-113227885D01*
X115233499Y-112668366D01*
X115233234Y-112665474D01*
X115228572Y-112614734D01*
X115226753Y-112594938D01*
X115180983Y-112448886D01*
X115177744Y-112438550D01*
X115177743Y-112438548D01*
X115175472Y-112431301D01*
X115086639Y-112284619D01*
X114997405Y-112195385D01*
X114963379Y-112133073D01*
X114960500Y-112106290D01*
X114960500Y-111904020D01*
X114961030Y-111892786D01*
X114962708Y-111885281D01*
X114962022Y-111863458D01*
X114979874Y-111794743D01*
X115032043Y-111746587D01*
X115087959Y-111733500D01*
X115323525Y-111733499D01*
X115331634Y-111733499D01*
X115334492Y-111733236D01*
X115334501Y-111733236D01*
X115370004Y-111729974D01*
X115405062Y-111726753D01*
X115427153Y-111719830D01*
X115561450Y-111677744D01*
X115561452Y-111677743D01*
X115568699Y-111675472D01*
X115715381Y-111586639D01*
X115836639Y-111465381D01*
X115925472Y-111318699D01*
X115929677Y-111305283D01*
X115959373Y-111210521D01*
X115976753Y-111155062D01*
X115983500Y-111081635D01*
X115983499Y-110859500D01*
X116003501Y-110791380D01*
X116057156Y-110744887D01*
X116109499Y-110733500D01*
X116898134Y-110733500D01*
X116902728Y-110733001D01*
X116904440Y-110732815D01*
X116960316Y-110726745D01*
X117096705Y-110675615D01*
X117213261Y-110588261D01*
X117300615Y-110471705D01*
X117351745Y-110335316D01*
X117358500Y-110273134D01*
X117358500Y-109726866D01*
X117351745Y-109664684D01*
X117300615Y-109528295D01*
X117213261Y-109411739D01*
X117096705Y-109324385D01*
X116960316Y-109273255D01*
X116898134Y-109266500D01*
X116717423Y-109266500D01*
X116649302Y-109246498D01*
X116628328Y-109229595D01*
X116180250Y-108781517D01*
X116172674Y-108773191D01*
X116168553Y-108766697D01*
X116125055Y-108725850D01*
X116089090Y-108664638D01*
X116091927Y-108593698D01*
X116132668Y-108535554D01*
X116198376Y-108508665D01*
X116211308Y-108508000D01*
X117747084Y-108508000D01*
X117815205Y-108528002D01*
G37*
%TD.AperFunction*%
%TA.AperFunction,Conductor*%
G36*
X135131124Y-108528600D02*
G01*
X135243687Y-108602331D01*
X135254212Y-108610032D01*
X135473384Y-108788554D01*
X135480543Y-108794385D01*
X135490219Y-108803137D01*
X135525510Y-108838554D01*
X135696268Y-109009921D01*
X135704990Y-109019632D01*
X135888536Y-109246617D01*
X135896206Y-109257178D01*
X136045386Y-109486703D01*
X136055281Y-109501928D01*
X136061815Y-109513220D01*
X136194725Y-109773134D01*
X136200052Y-109785036D01*
X136204702Y-109797057D01*
X136305354Y-110057291D01*
X136309426Y-110069692D01*
X136374433Y-110308838D01*
X136375719Y-110315154D01*
X136375691Y-110319652D01*
X136378158Y-110328285D01*
X136379223Y-110336056D01*
X136380783Y-110343699D01*
X136381314Y-110352656D01*
X136384337Y-110361103D01*
X136384338Y-110361110D01*
X136398862Y-110401698D01*
X136401370Y-110409499D01*
X136415679Y-110459565D01*
X136420470Y-110467158D01*
X136423668Y-110474308D01*
X136427315Y-110481214D01*
X136430338Y-110489663D01*
X136460941Y-110531803D01*
X136465538Y-110538589D01*
X136482102Y-110564841D01*
X136493327Y-110582631D01*
X136500052Y-110588570D01*
X136505113Y-110594517D01*
X136510570Y-110600141D01*
X136515845Y-110607404D01*
X136522948Y-110612896D01*
X136557028Y-110639247D01*
X136563364Y-110644485D01*
X136602395Y-110678956D01*
X136610521Y-110682771D01*
X136617047Y-110687058D01*
X136623860Y-110690923D01*
X136630962Y-110696414D01*
X136639316Y-110699690D01*
X136639318Y-110699691D01*
X136654597Y-110705682D01*
X136679441Y-110715424D01*
X136686968Y-110718663D01*
X136734115Y-110740799D01*
X136742982Y-110742179D01*
X136750454Y-110744464D01*
X136758076Y-110746260D01*
X136766432Y-110749537D01*
X136818283Y-110754175D01*
X136826442Y-110755174D01*
X136839778Y-110757251D01*
X136839782Y-110757251D01*
X136844590Y-110758000D01*
X136855406Y-110758000D01*
X136866633Y-110758501D01*
X136911368Y-110762503D01*
X136920168Y-110760762D01*
X136920177Y-110760762D01*
X136922030Y-110760395D01*
X136946478Y-110758000D01*
X138788727Y-110758000D01*
X138856848Y-110778002D01*
X138903341Y-110831658D01*
X138913445Y-110901932D01*
X138883951Y-110966512D01*
X138875057Y-110974796D01*
X138875269Y-110975008D01*
X138868919Y-110981358D01*
X138861739Y-110986739D01*
X138774385Y-111103295D01*
X138723255Y-111239684D01*
X138716500Y-111301866D01*
X138716500Y-111938500D01*
X138696498Y-112006621D01*
X138642842Y-112053114D01*
X138590500Y-112064500D01*
X137487659Y-112064500D01*
X137476425Y-112063970D01*
X137468920Y-112062292D01*
X137401210Y-112064420D01*
X137400627Y-112064438D01*
X137396670Y-112064500D01*
X137368656Y-112064500D01*
X137364731Y-112064996D01*
X137364730Y-112064996D01*
X137364635Y-112065008D01*
X137352790Y-112065941D01*
X137322969Y-112066878D01*
X137316357Y-112067086D01*
X137316356Y-112067086D01*
X137308434Y-112067335D01*
X137288891Y-112073013D01*
X137269527Y-112077023D01*
X137257199Y-112078580D01*
X137257197Y-112078580D01*
X137249340Y-112079573D01*
X137241976Y-112082489D01*
X137241971Y-112082490D01*
X137208083Y-112095907D01*
X137196854Y-112099752D01*
X137183290Y-112103693D01*
X137154246Y-112112131D01*
X137147419Y-112116169D01*
X137147416Y-112116170D01*
X137136733Y-112122488D01*
X137118975Y-112131188D01*
X137107424Y-112135761D01*
X137107418Y-112135765D01*
X137100051Y-112138681D01*
X137070151Y-112160405D01*
X137064151Y-112164764D01*
X137054229Y-112171281D01*
X137022871Y-112189826D01*
X137022867Y-112189829D01*
X137016041Y-112193866D01*
X137001657Y-112208250D01*
X136986623Y-112221091D01*
X136970152Y-112233058D01*
X136965099Y-112239166D01*
X136941862Y-112267255D01*
X136933872Y-112276035D01*
X134655311Y-114554595D01*
X134592999Y-114588621D01*
X134566216Y-114591500D01*
X134099600Y-114591500D01*
X134096356Y-114591837D01*
X134096348Y-114591837D01*
X134037538Y-114597939D01*
X133967717Y-114585074D01*
X133935439Y-114561707D01*
X133592724Y-114218991D01*
X133230245Y-113856512D01*
X133222675Y-113848193D01*
X133218553Y-113841697D01*
X133200165Y-113824429D01*
X133168735Y-113794915D01*
X133165893Y-113792160D01*
X133146094Y-113772361D01*
X133142969Y-113769937D01*
X133142960Y-113769929D01*
X133142874Y-113769863D01*
X133133849Y-113762155D01*
X133107285Y-113737210D01*
X133101506Y-113731783D01*
X133083669Y-113721977D01*
X133067153Y-113711127D01*
X133051067Y-113698650D01*
X133010334Y-113681024D01*
X132999686Y-113675807D01*
X132988058Y-113669415D01*
X132960803Y-113654431D01*
X132953128Y-113652460D01*
X132953122Y-113652458D01*
X132941089Y-113649369D01*
X132922387Y-113642966D01*
X132903708Y-113634883D01*
X132869872Y-113629524D01*
X132859873Y-113627940D01*
X132848260Y-113625535D01*
X132805282Y-113614500D01*
X132784935Y-113614500D01*
X132765224Y-113612949D01*
X132752950Y-113611005D01*
X132745121Y-113609765D01*
X132737229Y-113610511D01*
X132700944Y-113613941D01*
X132689086Y-113614500D01*
X131815423Y-113614500D01*
X131747302Y-113594498D01*
X131726328Y-113577595D01*
X130252426Y-112103693D01*
X130218400Y-112041381D01*
X130215521Y-112014598D01*
X130215521Y-111234041D01*
X130216051Y-111222807D01*
X130217729Y-111215302D01*
X130215583Y-111147009D01*
X130215521Y-111143052D01*
X130215521Y-111132703D01*
X131390743Y-111132703D01*
X131391302Y-111136947D01*
X131391302Y-111136951D01*
X131397053Y-111180635D01*
X131428268Y-111417734D01*
X131429401Y-111421874D01*
X131429401Y-111421876D01*
X131441059Y-111464489D01*
X131504129Y-111695036D01*
X131505813Y-111698984D01*
X131604929Y-111931356D01*
X131616923Y-111959476D01*
X131684874Y-112073013D01*
X131761618Y-112201243D01*
X131764561Y-112206161D01*
X131944313Y-112430528D01*
X132052526Y-112533218D01*
X132138426Y-112614734D01*
X132152851Y-112628423D01*
X132386317Y-112796186D01*
X132390112Y-112798195D01*
X132390113Y-112798196D01*
X132409923Y-112808685D01*
X132640392Y-112930712D01*
X132910373Y-113029511D01*
X133191264Y-113090755D01*
X133219841Y-113093004D01*
X133414282Y-113108307D01*
X133414291Y-113108307D01*
X133416739Y-113108500D01*
X133572271Y-113108500D01*
X133574407Y-113108354D01*
X133574418Y-113108354D01*
X133782548Y-113094165D01*
X133782554Y-113094164D01*
X133786825Y-113093873D01*
X133791020Y-113093004D01*
X133791022Y-113093004D01*
X133927583Y-113064724D01*
X134068342Y-113035574D01*
X134339343Y-112939607D01*
X134594812Y-112807750D01*
X134598313Y-112805289D01*
X134598317Y-112805287D01*
X134793137Y-112668365D01*
X134830023Y-112642441D01*
X134908403Y-112569606D01*
X135037479Y-112449661D01*
X135037481Y-112449658D01*
X135040622Y-112446740D01*
X135222713Y-112224268D01*
X135372927Y-111979142D01*
X135378916Y-111965500D01*
X135486757Y-111719830D01*
X135488483Y-111715898D01*
X135499352Y-111677744D01*
X135549559Y-111501488D01*
X135567244Y-111439406D01*
X135607751Y-111154784D01*
X135607785Y-111148399D01*
X135609235Y-110871583D01*
X135609235Y-110871576D01*
X135609257Y-110867297D01*
X135607923Y-110857160D01*
X135589690Y-110718671D01*
X135571732Y-110582266D01*
X135495871Y-110304964D01*
X135477352Y-110261547D01*
X135384763Y-110044476D01*
X135384761Y-110044472D01*
X135383077Y-110040524D01*
X135292796Y-109889675D01*
X135237643Y-109797521D01*
X135237640Y-109797517D01*
X135235439Y-109793839D01*
X135055687Y-109569472D01*
X134847149Y-109371577D01*
X134635689Y-109219627D01*
X134617172Y-109206321D01*
X134617171Y-109206320D01*
X134613683Y-109203814D01*
X134591843Y-109192250D01*
X134568654Y-109179972D01*
X134359608Y-109069288D01*
X134190177Y-109007285D01*
X134093658Y-108971964D01*
X134093656Y-108971963D01*
X134089627Y-108970489D01*
X133808736Y-108909245D01*
X133777685Y-108906801D01*
X133585718Y-108891693D01*
X133585709Y-108891693D01*
X133583261Y-108891500D01*
X133427729Y-108891500D01*
X133425593Y-108891646D01*
X133425582Y-108891646D01*
X133217452Y-108905835D01*
X133217446Y-108905836D01*
X133213175Y-108906127D01*
X133208980Y-108906996D01*
X133208978Y-108906996D01*
X133072417Y-108935276D01*
X132931658Y-108964426D01*
X132660657Y-109060393D01*
X132405188Y-109192250D01*
X132401687Y-109194711D01*
X132401683Y-109194713D01*
X132288322Y-109274385D01*
X132169977Y-109357559D01*
X132103946Y-109418919D01*
X131993738Y-109521331D01*
X131959378Y-109553260D01*
X131777287Y-109775732D01*
X131627073Y-110020858D01*
X131625347Y-110024791D01*
X131625346Y-110024792D01*
X131527938Y-110246694D01*
X131511517Y-110284102D01*
X131510342Y-110288229D01*
X131510341Y-110288230D01*
X131499166Y-110327460D01*
X131432756Y-110560594D01*
X131403061Y-110769245D01*
X131394179Y-110831658D01*
X131392249Y-110845216D01*
X131392227Y-110849505D01*
X131392226Y-110849512D01*
X131390765Y-111128417D01*
X131390743Y-111132703D01*
X130215521Y-111132703D01*
X130215521Y-111115038D01*
X130215013Y-111111017D01*
X130214079Y-111099165D01*
X130214056Y-111098408D01*
X130212686Y-111054816D01*
X130207008Y-111035272D01*
X130202998Y-111015909D01*
X130201441Y-111003581D01*
X130201441Y-111003579D01*
X130200448Y-110995722D01*
X130197532Y-110988358D01*
X130197531Y-110988353D01*
X130184114Y-110954465D01*
X130180269Y-110943236D01*
X130175415Y-110926531D01*
X130167890Y-110900628D01*
X130157531Y-110883112D01*
X130148834Y-110865362D01*
X130141340Y-110846433D01*
X130115261Y-110810538D01*
X130108743Y-110800616D01*
X130090191Y-110769245D01*
X130090187Y-110769240D01*
X130086155Y-110762422D01*
X130071768Y-110748035D01*
X130058927Y-110733001D01*
X130051623Y-110722948D01*
X130046963Y-110716534D01*
X130012771Y-110688248D01*
X130003992Y-110680259D01*
X128570405Y-109246672D01*
X128536379Y-109184360D01*
X128533500Y-109157577D01*
X128533499Y-108871249D01*
X128533499Y-108868366D01*
X128533234Y-108865474D01*
X128529157Y-108821109D01*
X128526753Y-108794938D01*
X128488126Y-108671680D01*
X128486842Y-108600695D01*
X128524139Y-108540285D01*
X128588175Y-108509628D01*
X128608360Y-108508001D01*
X135062085Y-108508001D01*
X135131124Y-108528600D01*
G37*
%TD.AperFunction*%
%TD*%
M02*
