M48
; DRILL file {KiCad 7.0.1} date Mon Jun  5 17:35:43 2023
; FORMAT={-:-/ absolute / inch / decimal}
; #@! TF.CreationDate,2023-06-05T17:35:43-04:00
; #@! TF.GenerationSoftware,Kicad,Pcbnew,7.0.1
; #@! TF.FileFunction,MixedPlating,1,2
FMAT,2
INCH
; #@! TA.AperFunction,Plated,PTH,ViaDrill
T1C0.0118
; #@! TA.AperFunction,Plated,PTH,ViaDrill
T2C0.0157
; #@! TA.AperFunction,Plated,PTH,ComponentDrill
T3C0.0197
; #@! TA.AperFunction,NonPlated,NPTH,ComponentDrill
T4C0.1260
%
G90
G05
T1
X4.3622Y-4.3071
X4.378Y-4.4803
X4.4803Y-4.5748
X4.4837Y-4.8031
X4.4941Y-4.3957
X4.5152Y-4.8041
X4.5357Y-4.6159
X4.5669Y-4.5079
X4.5669Y-4.6772
X4.5866Y-4.626
X4.5965Y-4.4488
X4.6063Y-4.8031
X4.622Y-4.4016
X4.6929Y-4.748
X4.7047Y-4.4488
X4.7087Y-4.8268
X4.7228Y-4.6682
X4.7244Y-4.3543
X4.7483Y-4.6498
X4.7789Y-4.3977
X4.8031Y-4.5906
X4.8275Y-4.7586
X4.8327Y-4.4882
X4.8327Y-4.8425
X4.851Y-4.5718
X4.8917Y-4.3829
X4.9016Y-4.7146
X4.9114Y-4.5177
X4.9606Y-4.2717
X4.9606Y-4.5039
X4.9606Y-4.5533
X4.9626Y-4.3641
X4.9852Y-4.3887
X5.0333Y-4.5383
X5.0472Y-4.7933
X5.0659Y-4.5795
X5.1129Y-4.5718
X5.1181Y-4.311
X5.3555Y-4.5717
T2
X5.3622Y-4.6457
T3
X4.1732Y-4.5276
X4.2126Y-4.5984
X4.2835Y-4.5512
X4.3465Y-4.5984
X5.4173Y-4.6693
X5.4331Y-4.748
X5.4409Y-4.4094
X5.4409Y-4.4961
X5.4409Y-4.5827
T4
X4.2717Y-4.3701
X4.2717Y-4.7638
X5.2559Y-4.3701
X5.2559Y-4.7638
T0
M30
