%TF.GenerationSoftware,KiCad,Pcbnew,(6.0.0)*%
%TF.CreationDate,2022-02-10T21:19:41-08:00*%
%TF.ProjectId,elevation-imu,656c6576-6174-4696-9f6e-2d696d752e6b,rev?*%
%TF.SameCoordinates,Original*%
%TF.FileFunction,Copper,L2,Bot*%
%TF.FilePolarity,Positive*%
%FSLAX46Y46*%
G04 Gerber Fmt 4.6, Leading zero omitted, Abs format (unit mm)*
G04 Created by KiCad (PCBNEW (6.0.0)) date 2022-02-10 21:19:41*
%MOMM*%
%LPD*%
G01*
G04 APERTURE LIST*
%TA.AperFunction,ComponentPad*%
%ADD10R,1.700000X1.700000*%
%TD*%
%TA.AperFunction,ComponentPad*%
%ADD11O,1.700000X1.700000*%
%TD*%
%TA.AperFunction,ViaPad*%
%ADD12C,0.600000*%
%TD*%
%TA.AperFunction,Conductor*%
%ADD13C,0.254000*%
%TD*%
%TA.AperFunction,Conductor*%
%ADD14C,0.250000*%
%TD*%
G04 APERTURE END LIST*
D10*
%TO.P,J1,1,Pin_1*%
%TO.N,+5V*%
X140075000Y-112200000D03*
D11*
%TO.P,J1,2,Pin_2*%
%TO.N,/SDI_IN*%
X142615000Y-112200000D03*
%TO.P,J1,3,Pin_3*%
%TO.N,/SDO_OUT*%
X140075000Y-114740000D03*
%TO.P,J1,4,Pin_4*%
%TO.N,/CLK_IN*%
X142615000Y-114740000D03*
%TO.P,J1,5,Pin_5*%
%TO.N,/~{CS}_IN*%
X140075000Y-117280000D03*
%TO.P,J1,6,Pin_6*%
%TO.N,/INT_OUT*%
X142615000Y-117280000D03*
%TO.P,J1,7,Pin_7*%
%TO.N,GND*%
X140075000Y-119820000D03*
%TO.P,J1,8,Pin_8*%
X142615000Y-119820000D03*
%TD*%
D12*
%TO.N,GND*%
X122750000Y-114000000D03*
%TO.N,/CLK_HV*%
X117500000Y-111500000D03*
%TO.N,/SCL*%
X121000000Y-110250000D03*
%TO.N,/CLK_HV*%
X124750000Y-114750000D03*
%TO.N,+3V3*%
X119500000Y-113000000D03*
X116000000Y-114500000D03*
X112500000Y-120750000D03*
%TO.N,GND*%
X128500000Y-113250000D03*
X122750000Y-123000000D03*
X130000000Y-109500000D03*
X113500000Y-121750000D03*
X124250000Y-111324502D03*
X129750000Y-114000000D03*
X108750000Y-116000000D03*
X116750000Y-113000000D03*
X128250000Y-121750000D03*
X122250000Y-120500000D03*
X116500000Y-117500000D03*
%TO.N,+5V*%
X113500000Y-111000000D03*
X126000000Y-108500000D03*
%TO.N,/SDI_IN*%
X126219820Y-115310360D03*
X136250000Y-115500000D03*
%TO.N,/SDO_OUT*%
X124500000Y-119750000D03*
%TO.N,/CLK_IN*%
X126250000Y-114500000D03*
%TO.N,/~{CS}_IN*%
X125500000Y-110698002D03*
X137500000Y-114500000D03*
%TO.N,/INT_OUT*%
X126750000Y-117000000D03*
%TO.N,Net-(JP1-Pad1)*%
X119500000Y-122000000D03*
X122854487Y-116218447D03*
%TO.N,/INT*%
X127503001Y-114006344D03*
X117000000Y-122000000D03*
%TO.N,Net-(JP1-Pad3)*%
X114420000Y-122000000D03*
X114500000Y-117500000D03*
%TO.N,/SDI*%
X121377778Y-111694915D03*
X119439233Y-118663822D03*
%TO.N,/SCL*%
X118500000Y-119000000D03*
%TD*%
D13*
%TO.N,/INT*%
X127246657Y-113750000D02*
X127503001Y-114006344D01*
X126000000Y-113750000D02*
X127246657Y-113750000D01*
X125376501Y-115009506D02*
X125376501Y-114373499D01*
X125376501Y-114373499D02*
X126000000Y-113750000D01*
X122496999Y-115496999D02*
X124889008Y-115496999D01*
X122496999Y-115503001D02*
X122496999Y-115496999D01*
X124889008Y-115496999D02*
X125376501Y-115009506D01*
X122227987Y-115772013D02*
X122496999Y-115503001D01*
X122227987Y-116772013D02*
X122227987Y-115772013D01*
X117000000Y-122000000D02*
X122227987Y-116772013D01*
%TO.N,/CLK_IN*%
X126500000Y-114750000D02*
X126250000Y-114500000D01*
X136863993Y-114750000D02*
X126500000Y-114750000D01*
X137240494Y-115126501D02*
X136863993Y-114750000D01*
X140938489Y-113563489D02*
X139587672Y-113563489D01*
X138024660Y-115126501D02*
X137240494Y-115126501D01*
X139587672Y-113563489D02*
X138024660Y-115126501D01*
%TO.N,/SDI_IN*%
X126409460Y-115500000D02*
X126219820Y-115310360D01*
X136250000Y-115500000D02*
X126409460Y-115500000D01*
%TO.N,/CLK_IN*%
X142615000Y-115240000D02*
X140938489Y-113563489D01*
%TO.N,Net-(JP1-Pad1)*%
X122854487Y-118645513D02*
X122854487Y-116218447D01*
X119500000Y-122000000D02*
X122854487Y-118645513D01*
%TO.N,/SDI*%
X121377778Y-116725277D02*
X121377778Y-111694915D01*
X119439233Y-118663822D02*
X121377778Y-116725277D01*
D14*
%TO.N,/CLK_HV*%
X124750000Y-112750000D02*
X124750000Y-114750000D01*
X119500000Y-109500000D02*
X121500000Y-109500000D01*
X117500000Y-111500000D02*
X119500000Y-109500000D01*
X121500000Y-109500000D02*
X124750000Y-112750000D01*
D13*
%TO.N,/SCL*%
X120745319Y-116004681D02*
X120745319Y-110504681D01*
X118500000Y-118250000D02*
X120745319Y-116004681D01*
X120745319Y-110504681D02*
X121000000Y-110250000D01*
X118500000Y-119000000D02*
X118500000Y-118250000D01*
%TO.N,GND*%
X119065504Y-109048489D02*
X116750000Y-111363993D01*
X121973987Y-109048489D02*
X119065504Y-109048489D01*
X116750000Y-111363993D02*
X116750000Y-113000000D01*
X124250000Y-111324502D02*
X121973987Y-109048489D01*
%TO.N,+3V3*%
X119500000Y-113000000D02*
X118000000Y-114500000D01*
X112500000Y-118000000D02*
X116000000Y-114500000D01*
X118000000Y-114500000D02*
X116000000Y-114500000D01*
X112500000Y-120750000D02*
X112500000Y-118000000D01*
%TO.N,GND*%
X115533489Y-122487328D02*
X116222672Y-123176511D01*
X128250000Y-121750000D02*
X124000000Y-121750000D01*
X137005000Y-117250000D02*
X140075000Y-120320000D01*
X115250000Y-118750000D02*
X115250000Y-121500000D01*
X129750000Y-118750000D02*
X131250000Y-117250000D01*
X116500000Y-117500000D02*
X115250000Y-118750000D01*
X115533489Y-121783489D02*
X115533489Y-122487328D01*
X122573489Y-123176511D02*
X122750000Y-123000000D01*
X128500000Y-113250000D02*
X126574502Y-111324502D01*
X115250000Y-121500000D02*
X115533489Y-121783489D01*
X129250000Y-114000000D02*
X128500000Y-113250000D01*
X129750000Y-114000000D02*
X129250000Y-114000000D01*
X131250000Y-117250000D02*
X137005000Y-117250000D01*
X126574502Y-111324502D02*
X124250000Y-111324502D01*
X116222672Y-123176511D02*
X122573489Y-123176511D01*
X128250000Y-121750000D02*
X129750000Y-120250000D01*
X124000000Y-121750000D02*
X122750000Y-123000000D01*
X129750000Y-120250000D02*
X129750000Y-118750000D01*
%TO.N,+5V*%
X116000000Y-108500000D02*
X113500000Y-111000000D01*
X126000000Y-108500000D02*
X116000000Y-108500000D01*
%TO.N,/SDO_OUT*%
X124500000Y-119750000D02*
X124500000Y-118363993D01*
X126737492Y-116126501D02*
X139188499Y-116126501D01*
X139188499Y-116126501D02*
X140075000Y-115240000D01*
X124500000Y-118363993D02*
X126737492Y-116126501D01*
%TO.N,/~{CS}_IN*%
X131500000Y-114250000D02*
X137250000Y-114250000D01*
X125500000Y-110698002D02*
X127948002Y-110698002D01*
X137250000Y-114250000D02*
X137500000Y-114500000D01*
X127948002Y-110698002D02*
X131500000Y-114250000D01*
%TO.N,/INT_OUT*%
X142615000Y-117780000D02*
X141895000Y-118500000D01*
X139631161Y-118500000D02*
X137881161Y-116750000D01*
X141895000Y-118500000D02*
X139631161Y-118500000D01*
X127000000Y-116750000D02*
X126750000Y-117000000D01*
X137881161Y-116750000D02*
X127000000Y-116750000D01*
%TO.N,Net-(JP1-Pad3)*%
X114500000Y-117500000D02*
X114420000Y-117580000D01*
X114420000Y-117580000D02*
X114420000Y-122000000D01*
%TD*%
%TA.AperFunction,Conductor*%
%TO.N,GND*%
G36*
X114857199Y-108528002D02*
G01*
X114903692Y-108581658D01*
X114913796Y-108651932D01*
X114884302Y-108716512D01*
X114878175Y-108723093D01*
X114155396Y-109445871D01*
X113435748Y-110165519D01*
X113373436Y-110199545D01*
X113359824Y-110201734D01*
X113332288Y-110204628D01*
X113332286Y-110204628D01*
X113325288Y-110205364D01*
X113153579Y-110263818D01*
X113120608Y-110284102D01*
X113005095Y-110355166D01*
X113005092Y-110355168D01*
X112999088Y-110358862D01*
X112994053Y-110363793D01*
X112994050Y-110363795D01*
X112878724Y-110476731D01*
X112869493Y-110485771D01*
X112771235Y-110638238D01*
X112768826Y-110644858D01*
X112768824Y-110644861D01*
X112726615Y-110760829D01*
X112709197Y-110808685D01*
X112686463Y-110988640D01*
X112704163Y-111169160D01*
X112761418Y-111341273D01*
X112765065Y-111347295D01*
X112765066Y-111347297D01*
X112850510Y-111488382D01*
X112855380Y-111496424D01*
X112860269Y-111501487D01*
X112860270Y-111501488D01*
X112868982Y-111510509D01*
X112981382Y-111626902D01*
X113006305Y-111643211D01*
X113126026Y-111721554D01*
X113133159Y-111726222D01*
X113139763Y-111728678D01*
X113139765Y-111728679D01*
X113296558Y-111786990D01*
X113296560Y-111786990D01*
X113303168Y-111789448D01*
X113386995Y-111800633D01*
X113475980Y-111812507D01*
X113475984Y-111812507D01*
X113482961Y-111813438D01*
X113489972Y-111812800D01*
X113489976Y-111812800D01*
X113632459Y-111799832D01*
X113663600Y-111796998D01*
X113670302Y-111794820D01*
X113670304Y-111794820D01*
X113829409Y-111743124D01*
X113829412Y-111743123D01*
X113836108Y-111740947D01*
X113956532Y-111669160D01*
X113985860Y-111651677D01*
X113985862Y-111651676D01*
X113991912Y-111648069D01*
X114123266Y-111522982D01*
X114223643Y-111371902D01*
X114270884Y-111247540D01*
X114285555Y-111208920D01*
X114285556Y-111208918D01*
X114288055Y-111202338D01*
X114289933Y-111188978D01*
X114297177Y-111137435D01*
X114326466Y-111072761D01*
X114332856Y-111065877D01*
X116226328Y-109172405D01*
X116288640Y-109138379D01*
X116315423Y-109135500D01*
X118664406Y-109135500D01*
X118732527Y-109155502D01*
X118779020Y-109209158D01*
X118789124Y-109279432D01*
X118759630Y-109344012D01*
X118753503Y-109350593D01*
X118095900Y-110008195D01*
X117438908Y-110665187D01*
X117376596Y-110699213D01*
X117362986Y-110701402D01*
X117354210Y-110702324D01*
X117332288Y-110704628D01*
X117332286Y-110704628D01*
X117325288Y-110705364D01*
X117153579Y-110763818D01*
X117103116Y-110794863D01*
X117005095Y-110855166D01*
X117005092Y-110855168D01*
X116999088Y-110858862D01*
X116994053Y-110863793D01*
X116994050Y-110863795D01*
X116874525Y-110980843D01*
X116869493Y-110985771D01*
X116771235Y-111138238D01*
X116768826Y-111144858D01*
X116768824Y-111144861D01*
X116712915Y-111298469D01*
X116709197Y-111308685D01*
X116686463Y-111488640D01*
X116704163Y-111669160D01*
X116761418Y-111841273D01*
X116765065Y-111847295D01*
X116765066Y-111847297D01*
X116844914Y-111979142D01*
X116855380Y-111996424D01*
X116981382Y-112126902D01*
X116987278Y-112130760D01*
X117108741Y-112210243D01*
X117133159Y-112226222D01*
X117139763Y-112228678D01*
X117139765Y-112228679D01*
X117296558Y-112286990D01*
X117296560Y-112286990D01*
X117303168Y-112289448D01*
X117386995Y-112300633D01*
X117475980Y-112312507D01*
X117475984Y-112312507D01*
X117482961Y-112313438D01*
X117489972Y-112312800D01*
X117489976Y-112312800D01*
X117632459Y-112299832D01*
X117663600Y-112296998D01*
X117670302Y-112294820D01*
X117670304Y-112294820D01*
X117829409Y-112243124D01*
X117829412Y-112243123D01*
X117836108Y-112240947D01*
X117991912Y-112148069D01*
X118123266Y-112022982D01*
X118223643Y-111871902D01*
X118280448Y-111722364D01*
X118285555Y-111708920D01*
X118285556Y-111708918D01*
X118288055Y-111702338D01*
X118291779Y-111675844D01*
X118297639Y-111634145D01*
X118326927Y-111569471D01*
X118333318Y-111562586D01*
X119725500Y-110170405D01*
X119787812Y-110136379D01*
X119814595Y-110133500D01*
X120021676Y-110133500D01*
X120089797Y-110153502D01*
X120136290Y-110207158D01*
X120146394Y-110277432D01*
X120137315Y-110309536D01*
X120130202Y-110325973D01*
X120128963Y-110333798D01*
X120123259Y-110369808D01*
X120120854Y-110381421D01*
X120109819Y-110424399D01*
X120109819Y-110444746D01*
X120108268Y-110464457D01*
X120105084Y-110484560D01*
X120105830Y-110492452D01*
X120109260Y-110528737D01*
X120109819Y-110540595D01*
X120109819Y-112200190D01*
X120089817Y-112268311D01*
X120036161Y-112314804D01*
X119965887Y-112324908D01*
X119916305Y-112306575D01*
X119897782Y-112294820D01*
X119856666Y-112268727D01*
X119827463Y-112258328D01*
X119692425Y-112210243D01*
X119692420Y-112210242D01*
X119685790Y-112207881D01*
X119678802Y-112207048D01*
X119678799Y-112207047D01*
X119555698Y-112192368D01*
X119505680Y-112186404D01*
X119498677Y-112187140D01*
X119498676Y-112187140D01*
X119332288Y-112204628D01*
X119332286Y-112204629D01*
X119325288Y-112205364D01*
X119153579Y-112263818D01*
X119119633Y-112284702D01*
X119005095Y-112355166D01*
X119005092Y-112355168D01*
X118999088Y-112358862D01*
X118994053Y-112363793D01*
X118994050Y-112363795D01*
X118876436Y-112478972D01*
X118869493Y-112485771D01*
X118771235Y-112638238D01*
X118768826Y-112644858D01*
X118768824Y-112644861D01*
X118748668Y-112700240D01*
X118709197Y-112808685D01*
X118702546Y-112861331D01*
X118674166Y-112926404D01*
X118666636Y-112934631D01*
X117773672Y-113827595D01*
X117711360Y-113861621D01*
X117684577Y-113864500D01*
X116544188Y-113864500D01*
X116476674Y-113844885D01*
X116362615Y-113772502D01*
X116362613Y-113772501D01*
X116356666Y-113768727D01*
X116350033Y-113766365D01*
X116192425Y-113710243D01*
X116192420Y-113710242D01*
X116185790Y-113707881D01*
X116178802Y-113707048D01*
X116178799Y-113707047D01*
X116047183Y-113691353D01*
X116005680Y-113686404D01*
X115998677Y-113687140D01*
X115998676Y-113687140D01*
X115832288Y-113704628D01*
X115832286Y-113704629D01*
X115825288Y-113705364D01*
X115653579Y-113763818D01*
X115639457Y-113772506D01*
X115505095Y-113855166D01*
X115505092Y-113855168D01*
X115499088Y-113858862D01*
X115494053Y-113863793D01*
X115494050Y-113863795D01*
X115374525Y-113980843D01*
X115369493Y-113985771D01*
X115271235Y-114138238D01*
X115268826Y-114144858D01*
X115268824Y-114144861D01*
X115211606Y-114302066D01*
X115209197Y-114308685D01*
X115202546Y-114361331D01*
X115174166Y-114426404D01*
X115166636Y-114434631D01*
X112106517Y-117494750D01*
X112098191Y-117502326D01*
X112091697Y-117506447D01*
X112086274Y-117512222D01*
X112044915Y-117556265D01*
X112042160Y-117559107D01*
X112022361Y-117578906D01*
X112019937Y-117582031D01*
X112019929Y-117582040D01*
X112019863Y-117582126D01*
X112012155Y-117591151D01*
X111981783Y-117623494D01*
X111977965Y-117630438D01*
X111977964Y-117630440D01*
X111971978Y-117641329D01*
X111961127Y-117657847D01*
X111948650Y-117673933D01*
X111931024Y-117714666D01*
X111925807Y-117725314D01*
X111904431Y-117764197D01*
X111902460Y-117771872D01*
X111902458Y-117771878D01*
X111899369Y-117783911D01*
X111892966Y-117802613D01*
X111884883Y-117821292D01*
X111883181Y-117832040D01*
X111877940Y-117865127D01*
X111875535Y-117876740D01*
X111864500Y-117919718D01*
X111864500Y-117940065D01*
X111862949Y-117959776D01*
X111859765Y-117979879D01*
X111860511Y-117987771D01*
X111863941Y-118024056D01*
X111864500Y-118035914D01*
X111864500Y-120206436D01*
X111844411Y-120274691D01*
X111771235Y-120388238D01*
X111768826Y-120394858D01*
X111768824Y-120394861D01*
X111714243Y-120544820D01*
X111709197Y-120558685D01*
X111686463Y-120738640D01*
X111704163Y-120919160D01*
X111761418Y-121091273D01*
X111765065Y-121097295D01*
X111765066Y-121097297D01*
X111831888Y-121207633D01*
X111855380Y-121246424D01*
X111860269Y-121251487D01*
X111860270Y-121251488D01*
X111912403Y-121305473D01*
X111981382Y-121376902D01*
X111987278Y-121380760D01*
X112109945Y-121461031D01*
X112133159Y-121476222D01*
X112139763Y-121478678D01*
X112139765Y-121478679D01*
X112296558Y-121536990D01*
X112296560Y-121536990D01*
X112303168Y-121539448D01*
X112386995Y-121550633D01*
X112475980Y-121562507D01*
X112475984Y-121562507D01*
X112482961Y-121563438D01*
X112489972Y-121562800D01*
X112489976Y-121562800D01*
X112632459Y-121549832D01*
X112663600Y-121546998D01*
X112670302Y-121544820D01*
X112670304Y-121544820D01*
X112829409Y-121493124D01*
X112829412Y-121493123D01*
X112836108Y-121490947D01*
X112932513Y-121433478D01*
X112985860Y-121401677D01*
X112985862Y-121401676D01*
X112991912Y-121398069D01*
X113123266Y-121272982D01*
X113223643Y-121121902D01*
X113271779Y-120995185D01*
X113285555Y-120958920D01*
X113285556Y-120958918D01*
X113288055Y-120952338D01*
X113290785Y-120932916D01*
X113312748Y-120776639D01*
X113312748Y-120776636D01*
X113313299Y-120772717D01*
X113313616Y-120750000D01*
X113293397Y-120569745D01*
X113291080Y-120563091D01*
X113236064Y-120405106D01*
X113236062Y-120405103D01*
X113233745Y-120398448D01*
X113154646Y-120271862D01*
X113135500Y-120205093D01*
X113135500Y-118315422D01*
X113155502Y-118247301D01*
X113172405Y-118226327D01*
X113569405Y-117829327D01*
X113631717Y-117795301D01*
X113702532Y-117800366D01*
X113759368Y-117842913D01*
X113784179Y-117909433D01*
X113784500Y-117918422D01*
X113784500Y-121456436D01*
X113764411Y-121524691D01*
X113691235Y-121638238D01*
X113688826Y-121644858D01*
X113688824Y-121644861D01*
X113636152Y-121789577D01*
X113629197Y-121808685D01*
X113606463Y-121988640D01*
X113624163Y-122169160D01*
X113681418Y-122341273D01*
X113685065Y-122347295D01*
X113685066Y-122347297D01*
X113769536Y-122486774D01*
X113775380Y-122496424D01*
X113901382Y-122626902D01*
X114053159Y-122726222D01*
X114059763Y-122728678D01*
X114059765Y-122728679D01*
X114216558Y-122786990D01*
X114216560Y-122786990D01*
X114223168Y-122789448D01*
X114306995Y-122800633D01*
X114395980Y-122812507D01*
X114395984Y-122812507D01*
X114402961Y-122813438D01*
X114409972Y-122812800D01*
X114409976Y-122812800D01*
X114552459Y-122799832D01*
X114583600Y-122796998D01*
X114590302Y-122794820D01*
X114590304Y-122794820D01*
X114749409Y-122743124D01*
X114749412Y-122743123D01*
X114756108Y-122740947D01*
X114911912Y-122648069D01*
X115043266Y-122522982D01*
X115143643Y-122371902D01*
X115198734Y-122226876D01*
X115205555Y-122208920D01*
X115205556Y-122208918D01*
X115208055Y-122202338D01*
X115210862Y-122182367D01*
X115232748Y-122026639D01*
X115232748Y-122026636D01*
X115233299Y-122022717D01*
X115233616Y-122000000D01*
X115213397Y-121819745D01*
X115211080Y-121813091D01*
X115156064Y-121655106D01*
X115156062Y-121655103D01*
X115153745Y-121648448D01*
X115145398Y-121635089D01*
X115074646Y-121521862D01*
X115055500Y-121455093D01*
X115055500Y-118141518D01*
X115075502Y-118073397D01*
X115094604Y-118050276D01*
X115123266Y-118022982D01*
X115223643Y-117871902D01*
X115288055Y-117702338D01*
X115290038Y-117688226D01*
X115312748Y-117526639D01*
X115312748Y-117526636D01*
X115313299Y-117522717D01*
X115313616Y-117500000D01*
X115293397Y-117319745D01*
X115291080Y-117313091D01*
X115236064Y-117155106D01*
X115236062Y-117155103D01*
X115233745Y-117148448D01*
X115137626Y-116994624D01*
X115132664Y-116989627D01*
X115014778Y-116870915D01*
X115014774Y-116870912D01*
X115009815Y-116865918D01*
X114892403Y-116791406D01*
X114862616Y-116772503D01*
X114862436Y-116772389D01*
X114862434Y-116772387D01*
X114856666Y-116768727D01*
X114857309Y-116767714D01*
X114810037Y-116724608D01*
X114791767Y-116656002D01*
X114813489Y-116588410D01*
X114828632Y-116570100D01*
X116063288Y-115335444D01*
X116125600Y-115301418D01*
X116140963Y-115299058D01*
X116163600Y-115296998D01*
X116170302Y-115294820D01*
X116170304Y-115294820D01*
X116329409Y-115243124D01*
X116329412Y-115243123D01*
X116336108Y-115240947D01*
X116483185Y-115153271D01*
X116547703Y-115135500D01*
X117920980Y-115135500D01*
X117932214Y-115136030D01*
X117939719Y-115137708D01*
X118008012Y-115135562D01*
X118011969Y-115135500D01*
X118039983Y-115135500D01*
X118043908Y-115135004D01*
X118043909Y-115135004D01*
X118044004Y-115134992D01*
X118055849Y-115134059D01*
X118085670Y-115133122D01*
X118092282Y-115132914D01*
X118092283Y-115132914D01*
X118100205Y-115132665D01*
X118119749Y-115126987D01*
X118139112Y-115122977D01*
X118151440Y-115121420D01*
X118151442Y-115121420D01*
X118159299Y-115120427D01*
X118166663Y-115117511D01*
X118166668Y-115117510D01*
X118200556Y-115104093D01*
X118211785Y-115100248D01*
X118228465Y-115095402D01*
X118254393Y-115087869D01*
X118261220Y-115083831D01*
X118261223Y-115083830D01*
X118271906Y-115077512D01*
X118289664Y-115068812D01*
X118301215Y-115064239D01*
X118301221Y-115064235D01*
X118308588Y-115061319D01*
X118344491Y-115035234D01*
X118354410Y-115028719D01*
X118385768Y-115010174D01*
X118385772Y-115010171D01*
X118392598Y-115006134D01*
X118406982Y-114991750D01*
X118422016Y-114978909D01*
X118432073Y-114971602D01*
X118438487Y-114966942D01*
X118466778Y-114932744D01*
X118474767Y-114923965D01*
X119563288Y-113835444D01*
X119625600Y-113801418D01*
X119640963Y-113799058D01*
X119663600Y-113796998D01*
X119670302Y-113794820D01*
X119670304Y-113794820D01*
X119829409Y-113743124D01*
X119829412Y-113743123D01*
X119836108Y-113740947D01*
X119919304Y-113691352D01*
X119988056Y-113673653D01*
X120055466Y-113695935D01*
X120100128Y-113751123D01*
X120109819Y-113799582D01*
X120109819Y-115689258D01*
X120089817Y-115757379D01*
X120072914Y-115778353D01*
X118106517Y-117744750D01*
X118098191Y-117752326D01*
X118091697Y-117756447D01*
X118048336Y-117802622D01*
X118044915Y-117806265D01*
X118042160Y-117809107D01*
X118022361Y-117828906D01*
X118019937Y-117832031D01*
X118019929Y-117832040D01*
X118019863Y-117832126D01*
X118012155Y-117841151D01*
X117981783Y-117873494D01*
X117977965Y-117880438D01*
X117977964Y-117880440D01*
X117971978Y-117891329D01*
X117961127Y-117907847D01*
X117948650Y-117923933D01*
X117931024Y-117964666D01*
X117925807Y-117975314D01*
X117922292Y-117981708D01*
X117904431Y-118014197D01*
X117902460Y-118021872D01*
X117902458Y-118021878D01*
X117899369Y-118033911D01*
X117892966Y-118052613D01*
X117884883Y-118071292D01*
X117883644Y-118079117D01*
X117877940Y-118115127D01*
X117875535Y-118126740D01*
X117864500Y-118169718D01*
X117864500Y-118190065D01*
X117862949Y-118209776D01*
X117859765Y-118229879D01*
X117860511Y-118237771D01*
X117863941Y-118274056D01*
X117864500Y-118285914D01*
X117864500Y-118456436D01*
X117844411Y-118524691D01*
X117771235Y-118638238D01*
X117768826Y-118644858D01*
X117768824Y-118644861D01*
X117711606Y-118802066D01*
X117709197Y-118808685D01*
X117686463Y-118988640D01*
X117704163Y-119169160D01*
X117761418Y-119341273D01*
X117765065Y-119347295D01*
X117765066Y-119347297D01*
X117793872Y-119394861D01*
X117855380Y-119496424D01*
X117981382Y-119626902D01*
X118133159Y-119726222D01*
X118139247Y-119728486D01*
X118190872Y-119776906D01*
X118208177Y-119845761D01*
X118185510Y-119913042D01*
X118171370Y-119929897D01*
X116935748Y-121165519D01*
X116873436Y-121199545D01*
X116859824Y-121201734D01*
X116832288Y-121204628D01*
X116832286Y-121204628D01*
X116825288Y-121205364D01*
X116653579Y-121263818D01*
X116598778Y-121297532D01*
X116505095Y-121355166D01*
X116505092Y-121355168D01*
X116499088Y-121358862D01*
X116494053Y-121363793D01*
X116494050Y-121363795D01*
X116379244Y-121476222D01*
X116369493Y-121485771D01*
X116271235Y-121638238D01*
X116268826Y-121644858D01*
X116268824Y-121644861D01*
X116216152Y-121789577D01*
X116209197Y-121808685D01*
X116186463Y-121988640D01*
X116204163Y-122169160D01*
X116261418Y-122341273D01*
X116265065Y-122347295D01*
X116265066Y-122347297D01*
X116349536Y-122486774D01*
X116355380Y-122496424D01*
X116481382Y-122626902D01*
X116633159Y-122726222D01*
X116639763Y-122728678D01*
X116639765Y-122728679D01*
X116796558Y-122786990D01*
X116796560Y-122786990D01*
X116803168Y-122789448D01*
X116886995Y-122800633D01*
X116975980Y-122812507D01*
X116975984Y-122812507D01*
X116982961Y-122813438D01*
X116989972Y-122812800D01*
X116989976Y-122812800D01*
X117132459Y-122799832D01*
X117163600Y-122796998D01*
X117170302Y-122794820D01*
X117170304Y-122794820D01*
X117329409Y-122743124D01*
X117329412Y-122743123D01*
X117336108Y-122740947D01*
X117491912Y-122648069D01*
X117623266Y-122522982D01*
X117723643Y-122371902D01*
X117778734Y-122226876D01*
X117785555Y-122208920D01*
X117785556Y-122208918D01*
X117788055Y-122202338D01*
X117797177Y-122137435D01*
X117826466Y-122072761D01*
X117832856Y-122065877D01*
X122003892Y-117894841D01*
X122066204Y-117860815D01*
X122137019Y-117865880D01*
X122193855Y-117908427D01*
X122218666Y-117974947D01*
X122218987Y-117983936D01*
X122218987Y-118330091D01*
X122198985Y-118398212D01*
X122182082Y-118419186D01*
X120807428Y-119793839D01*
X119435748Y-121165519D01*
X119373436Y-121199545D01*
X119359824Y-121201734D01*
X119332288Y-121204628D01*
X119332286Y-121204628D01*
X119325288Y-121205364D01*
X119153579Y-121263818D01*
X119098778Y-121297532D01*
X119005095Y-121355166D01*
X119005092Y-121355168D01*
X118999088Y-121358862D01*
X118994053Y-121363793D01*
X118994050Y-121363795D01*
X118879244Y-121476222D01*
X118869493Y-121485771D01*
X118771235Y-121638238D01*
X118768826Y-121644858D01*
X118768824Y-121644861D01*
X118716152Y-121789577D01*
X118709197Y-121808685D01*
X118686463Y-121988640D01*
X118704163Y-122169160D01*
X118761418Y-122341273D01*
X118765065Y-122347295D01*
X118765066Y-122347297D01*
X118849536Y-122486774D01*
X118855380Y-122496424D01*
X118981382Y-122626902D01*
X119133159Y-122726222D01*
X119139763Y-122728678D01*
X119139765Y-122728679D01*
X119296558Y-122786990D01*
X119296560Y-122786990D01*
X119303168Y-122789448D01*
X119386995Y-122800633D01*
X119475980Y-122812507D01*
X119475984Y-122812507D01*
X119482961Y-122813438D01*
X119489972Y-122812800D01*
X119489976Y-122812800D01*
X119632459Y-122799832D01*
X119663600Y-122796998D01*
X119670302Y-122794820D01*
X119670304Y-122794820D01*
X119829409Y-122743124D01*
X119829412Y-122743123D01*
X119836108Y-122740947D01*
X119991912Y-122648069D01*
X120123266Y-122522982D01*
X120223643Y-122371902D01*
X120278734Y-122226876D01*
X120285555Y-122208920D01*
X120285556Y-122208918D01*
X120288055Y-122202338D01*
X120297177Y-122137435D01*
X120326466Y-122072761D01*
X120332856Y-122065877D01*
X121266030Y-121132703D01*
X131390743Y-121132703D01*
X131428268Y-121417734D01*
X131504129Y-121695036D01*
X131505813Y-121698984D01*
X131575509Y-121862382D01*
X131616923Y-121959476D01*
X131652402Y-122018757D01*
X131759765Y-122198147D01*
X131764561Y-122206161D01*
X131944313Y-122430528D01*
X132035553Y-122517111D01*
X132145908Y-122621834D01*
X132152851Y-122628423D01*
X132386317Y-122796186D01*
X132390112Y-122798195D01*
X132390113Y-122798196D01*
X132411869Y-122809715D01*
X132640392Y-122930712D01*
X132910373Y-123029511D01*
X133191264Y-123090755D01*
X133219841Y-123093004D01*
X133414282Y-123108307D01*
X133414291Y-123108307D01*
X133416739Y-123108500D01*
X133572271Y-123108500D01*
X133574407Y-123108354D01*
X133574418Y-123108354D01*
X133782548Y-123094165D01*
X133782554Y-123094164D01*
X133786825Y-123093873D01*
X133791020Y-123093004D01*
X133791022Y-123093004D01*
X133927583Y-123064724D01*
X134068342Y-123035574D01*
X134339343Y-122939607D01*
X134447433Y-122883818D01*
X134591005Y-122809715D01*
X134591006Y-122809715D01*
X134594812Y-122807750D01*
X134598313Y-122805289D01*
X134598317Y-122805287D01*
X134822015Y-122648069D01*
X134830023Y-122642441D01*
X134981706Y-122501488D01*
X135037479Y-122449661D01*
X135037481Y-122449658D01*
X135040622Y-122446740D01*
X135222713Y-122224268D01*
X135372927Y-121979142D01*
X135391596Y-121936614D01*
X135486757Y-121719830D01*
X135488483Y-121715898D01*
X135504392Y-121660051D01*
X135532178Y-121562507D01*
X135567244Y-121439406D01*
X135603576Y-121184121D01*
X135607146Y-121159036D01*
X135607146Y-121159034D01*
X135607751Y-121154784D01*
X135607845Y-121136951D01*
X135609235Y-120871583D01*
X135609235Y-120871576D01*
X135609257Y-120867297D01*
X135571732Y-120582266D01*
X135495871Y-120304964D01*
X135407293Y-120097297D01*
X135384763Y-120044476D01*
X135384761Y-120044472D01*
X135383077Y-120040524D01*
X135235439Y-119793839D01*
X135055687Y-119569472D01*
X134864706Y-119388238D01*
X134850258Y-119374527D01*
X134850255Y-119374525D01*
X134847149Y-119371577D01*
X134613683Y-119203814D01*
X134591843Y-119192250D01*
X134534995Y-119162151D01*
X134359608Y-119069288D01*
X134120115Y-118981646D01*
X134093658Y-118971964D01*
X134093656Y-118971963D01*
X134089627Y-118970489D01*
X133808736Y-118909245D01*
X133777685Y-118906801D01*
X133585718Y-118891693D01*
X133585709Y-118891693D01*
X133583261Y-118891500D01*
X133427729Y-118891500D01*
X133425593Y-118891646D01*
X133425582Y-118891646D01*
X133217452Y-118905835D01*
X133217446Y-118905836D01*
X133213175Y-118906127D01*
X133208980Y-118906996D01*
X133208978Y-118906996D01*
X133145223Y-118920199D01*
X132931658Y-118964426D01*
X132660657Y-119060393D01*
X132656848Y-119062359D01*
X132505966Y-119140235D01*
X132405188Y-119192250D01*
X132401687Y-119194711D01*
X132401683Y-119194713D01*
X132330667Y-119244624D01*
X132169977Y-119357559D01*
X131959378Y-119553260D01*
X131777287Y-119775732D01*
X131627073Y-120020858D01*
X131625347Y-120024791D01*
X131625346Y-120024792D01*
X131516890Y-120271862D01*
X131511517Y-120284102D01*
X131432756Y-120560594D01*
X131392249Y-120845216D01*
X131392227Y-120849505D01*
X131392226Y-120849512D01*
X131390765Y-121128417D01*
X131390743Y-121132703D01*
X121266030Y-121132703D01*
X123247970Y-119150763D01*
X123256296Y-119143187D01*
X123262790Y-119139066D01*
X123309573Y-119089247D01*
X123312327Y-119086406D01*
X123332126Y-119066607D01*
X123334550Y-119063482D01*
X123334558Y-119063473D01*
X123334624Y-119063387D01*
X123342332Y-119054362D01*
X123362583Y-119032797D01*
X123372704Y-119022019D01*
X123382510Y-119004182D01*
X123393360Y-118987666D01*
X123405837Y-118971580D01*
X123423463Y-118930847D01*
X123428680Y-118920199D01*
X123436416Y-118906127D01*
X123450056Y-118881316D01*
X123452027Y-118873641D01*
X123452029Y-118873635D01*
X123455118Y-118861602D01*
X123461521Y-118842900D01*
X123469604Y-118824221D01*
X123476547Y-118780386D01*
X123478954Y-118768764D01*
X123489987Y-118725795D01*
X123489987Y-118705448D01*
X123491538Y-118685737D01*
X123493482Y-118673463D01*
X123494722Y-118665634D01*
X123490546Y-118621457D01*
X123489987Y-118609599D01*
X123489987Y-116761056D01*
X123511039Y-116691329D01*
X123555360Y-116624621D01*
X123578130Y-116590349D01*
X123642542Y-116420785D01*
X123661363Y-116286870D01*
X123667786Y-116241164D01*
X123669813Y-116241449D01*
X123691941Y-116182679D01*
X123748907Y-116140308D01*
X123792575Y-116132499D01*
X124809988Y-116132499D01*
X124821222Y-116133029D01*
X124828727Y-116134707D01*
X124897020Y-116132561D01*
X124900977Y-116132499D01*
X124928991Y-116132499D01*
X124932916Y-116132003D01*
X124932917Y-116132003D01*
X124933012Y-116131991D01*
X124944857Y-116131058D01*
X124974678Y-116130121D01*
X124981290Y-116129913D01*
X124981291Y-116129913D01*
X124989213Y-116129664D01*
X125008757Y-116123986D01*
X125028120Y-116119976D01*
X125040448Y-116118419D01*
X125040450Y-116118419D01*
X125048307Y-116117426D01*
X125055671Y-116114510D01*
X125055676Y-116114509D01*
X125089564Y-116101092D01*
X125100793Y-116097247D01*
X125117473Y-116092401D01*
X125143401Y-116084868D01*
X125150228Y-116080830D01*
X125150231Y-116080829D01*
X125160914Y-116074511D01*
X125178672Y-116065811D01*
X125190223Y-116061238D01*
X125190229Y-116061234D01*
X125197596Y-116058318D01*
X125233499Y-116032233D01*
X125243418Y-116025718D01*
X125274776Y-116007173D01*
X125274780Y-116007170D01*
X125281606Y-116003133D01*
X125295990Y-115988749D01*
X125311024Y-115975908D01*
X125321081Y-115968601D01*
X125327495Y-115963941D01*
X125355786Y-115929743D01*
X125363775Y-115920964D01*
X125436762Y-115847977D01*
X125499074Y-115813951D01*
X125569889Y-115819016D01*
X125616493Y-115849545D01*
X125696303Y-115932190D01*
X125696308Y-115932194D01*
X125701202Y-115937262D01*
X125707098Y-115941120D01*
X125769002Y-115981629D01*
X125815051Y-116035666D01*
X125824574Y-116106021D01*
X125794549Y-116170356D01*
X125789104Y-116176156D01*
X124106517Y-117858743D01*
X124098191Y-117866319D01*
X124091697Y-117870440D01*
X124084811Y-117877773D01*
X124044915Y-117920258D01*
X124042160Y-117923100D01*
X124022361Y-117942899D01*
X124019937Y-117946024D01*
X124019929Y-117946033D01*
X124019863Y-117946119D01*
X124012155Y-117955144D01*
X123981783Y-117987487D01*
X123977965Y-117994431D01*
X123977964Y-117994433D01*
X123971978Y-118005322D01*
X123961127Y-118021840D01*
X123948650Y-118037926D01*
X123931024Y-118078659D01*
X123925807Y-118089307D01*
X123904431Y-118128190D01*
X123902460Y-118135865D01*
X123902458Y-118135871D01*
X123899369Y-118147904D01*
X123892966Y-118166606D01*
X123884883Y-118185285D01*
X123883644Y-118193110D01*
X123877940Y-118229120D01*
X123875535Y-118240733D01*
X123864500Y-118283711D01*
X123864500Y-118304058D01*
X123862949Y-118323769D01*
X123859765Y-118343872D01*
X123860511Y-118351764D01*
X123863941Y-118388049D01*
X123864500Y-118399907D01*
X123864500Y-119206436D01*
X123844411Y-119274691D01*
X123771235Y-119388238D01*
X123768826Y-119394858D01*
X123768824Y-119394861D01*
X123734050Y-119490401D01*
X123709197Y-119558685D01*
X123686463Y-119738640D01*
X123704163Y-119919160D01*
X123761418Y-120091273D01*
X123765065Y-120097295D01*
X123765066Y-120097297D01*
X123840859Y-120222446D01*
X123855380Y-120246424D01*
X123981382Y-120376902D01*
X124133159Y-120476222D01*
X124139763Y-120478678D01*
X124139765Y-120478679D01*
X124296558Y-120536990D01*
X124296560Y-120536990D01*
X124303168Y-120539448D01*
X124386995Y-120550633D01*
X124475980Y-120562507D01*
X124475984Y-120562507D01*
X124482961Y-120563438D01*
X124489972Y-120562800D01*
X124489976Y-120562800D01*
X124644470Y-120548739D01*
X124663600Y-120546998D01*
X124670302Y-120544820D01*
X124670304Y-120544820D01*
X124829409Y-120493124D01*
X124829412Y-120493123D01*
X124836108Y-120490947D01*
X124939013Y-120429603D01*
X124985860Y-120401677D01*
X124985862Y-120401676D01*
X124991912Y-120398069D01*
X125123266Y-120272982D01*
X125223643Y-120121902D01*
X125288055Y-119952338D01*
X125291209Y-119929897D01*
X125312748Y-119776639D01*
X125312748Y-119776636D01*
X125313299Y-119772717D01*
X125313616Y-119750000D01*
X125293397Y-119569745D01*
X125290911Y-119562607D01*
X125236064Y-119405106D01*
X125236062Y-119405103D01*
X125233745Y-119398448D01*
X125154646Y-119271862D01*
X125135500Y-119205093D01*
X125135500Y-118679415D01*
X125155502Y-118611294D01*
X125172401Y-118590324D01*
X126101218Y-117661508D01*
X126163528Y-117627484D01*
X126234344Y-117632549D01*
X126259300Y-117645171D01*
X126314372Y-117681209D01*
X126365477Y-117714651D01*
X126383159Y-117726222D01*
X126389763Y-117728678D01*
X126389765Y-117728679D01*
X126546558Y-117786990D01*
X126546560Y-117786990D01*
X126553168Y-117789448D01*
X126634993Y-117800366D01*
X126725980Y-117812507D01*
X126725984Y-117812507D01*
X126732961Y-117813438D01*
X126739972Y-117812800D01*
X126739976Y-117812800D01*
X126882459Y-117799832D01*
X126913600Y-117796998D01*
X126920302Y-117794820D01*
X126920304Y-117794820D01*
X127079409Y-117743124D01*
X127079412Y-117743123D01*
X127086108Y-117740947D01*
X127209033Y-117667669D01*
X127235860Y-117651677D01*
X127235862Y-117651676D01*
X127241912Y-117648069D01*
X127373266Y-117522982D01*
X127427222Y-117441773D01*
X127481578Y-117396102D01*
X127532169Y-117385500D01*
X137565739Y-117385500D01*
X137633860Y-117405502D01*
X137654834Y-117422405D01*
X139016326Y-118783898D01*
X139050351Y-118846208D01*
X139045286Y-118917023D01*
X139022069Y-118954065D01*
X139022847Y-118954695D01*
X139013104Y-118966727D01*
X138893098Y-119142649D01*
X138888000Y-119151623D01*
X138798338Y-119344783D01*
X138794775Y-119354470D01*
X138739389Y-119554183D01*
X138740912Y-119562607D01*
X138753292Y-119566000D01*
X142743000Y-119566000D01*
X142811121Y-119586002D01*
X142857614Y-119639658D01*
X142869000Y-119692000D01*
X142869000Y-119948000D01*
X142848998Y-120016121D01*
X142795342Y-120062614D01*
X142743000Y-120074000D01*
X138758225Y-120074000D01*
X138744694Y-120077973D01*
X138743257Y-120087966D01*
X138773565Y-120222446D01*
X138776645Y-120232275D01*
X138856770Y-120429603D01*
X138861413Y-120438794D01*
X138972694Y-120620388D01*
X138978777Y-120628699D01*
X139118213Y-120789667D01*
X139125580Y-120796883D01*
X139289434Y-120932916D01*
X139297881Y-120938831D01*
X139414901Y-121007212D01*
X139463625Y-121058850D01*
X139476696Y-121128633D01*
X139449965Y-121194405D01*
X139391918Y-121235284D01*
X139351331Y-121242000D01*
X136954280Y-121242000D01*
X136941618Y-121240604D01*
X136941590Y-121240966D01*
X136932643Y-121240271D01*
X136923882Y-121238315D01*
X136914926Y-121238896D01*
X136871153Y-121241736D01*
X136862995Y-121242000D01*
X136847690Y-121242000D01*
X136843252Y-121242635D01*
X136843244Y-121242636D01*
X136836466Y-121243607D01*
X136826768Y-121244615D01*
X136778673Y-121247736D01*
X136770238Y-121250808D01*
X136764791Y-121251952D01*
X136754340Y-121254574D01*
X136749012Y-121256132D01*
X136740122Y-121257405D01*
X136731953Y-121261119D01*
X136731947Y-121261121D01*
X136696257Y-121277349D01*
X136687224Y-121281041D01*
X136641944Y-121297532D01*
X136634712Y-121302847D01*
X136629806Y-121305473D01*
X136620538Y-121310906D01*
X136615830Y-121313917D01*
X136607657Y-121317633D01*
X136600855Y-121323494D01*
X136571148Y-121349091D01*
X136563516Y-121355168D01*
X136533942Y-121376902D01*
X136524688Y-121383703D01*
X136519235Y-121390838D01*
X136515260Y-121394739D01*
X136507880Y-121402564D01*
X136504220Y-121406760D01*
X136497420Y-121412619D01*
X136492537Y-121420153D01*
X136492536Y-121420154D01*
X136471211Y-121453054D01*
X136465591Y-121461031D01*
X136436329Y-121499320D01*
X136433099Y-121507695D01*
X136430378Y-121512556D01*
X136425501Y-121522119D01*
X136423155Y-121527196D01*
X136418274Y-121534727D01*
X136415702Y-121543327D01*
X136404466Y-121580896D01*
X136401316Y-121590114D01*
X136383972Y-121635089D01*
X136383222Y-121644039D01*
X136381975Y-121649467D01*
X136379972Y-121660051D01*
X136379151Y-121665543D01*
X136376580Y-121674141D01*
X136376537Y-121681180D01*
X136374474Y-121691014D01*
X136340587Y-121815675D01*
X136309426Y-121930309D01*
X136305354Y-121942709D01*
X136281663Y-122003962D01*
X136202391Y-122208920D01*
X136200054Y-122214961D01*
X136194725Y-122226866D01*
X136061818Y-122486774D01*
X136055284Y-122498067D01*
X135909503Y-122722364D01*
X135896206Y-122742822D01*
X135888536Y-122753383D01*
X135704990Y-122980368D01*
X135696268Y-122990079D01*
X135490223Y-123196859D01*
X135480543Y-123205615D01*
X135254223Y-123389959D01*
X135243693Y-123397665D01*
X135148791Y-123459828D01*
X135131124Y-123471400D01*
X135062084Y-123491998D01*
X120914260Y-123491999D01*
X106922242Y-123492000D01*
X106853840Y-123471816D01*
X106735026Y-123395009D01*
X106724320Y-123387263D01*
X106493628Y-123201165D01*
X106483814Y-123192358D01*
X106273892Y-122983128D01*
X106265037Y-122973324D01*
X106236057Y-122937641D01*
X106078184Y-122743252D01*
X106070412Y-122732584D01*
X105908692Y-122484215D01*
X105902072Y-122472779D01*
X105887077Y-122443421D01*
X105767253Y-122208828D01*
X105761877Y-122196782D01*
X105655444Y-121920150D01*
X105651356Y-121907596D01*
X105629406Y-121825859D01*
X105574487Y-121621350D01*
X105571735Y-121608427D01*
X105560787Y-121539448D01*
X105525277Y-121315721D01*
X105523892Y-121302581D01*
X105521520Y-121257405D01*
X105514971Y-121132703D01*
X106390743Y-121132703D01*
X106428268Y-121417734D01*
X106504129Y-121695036D01*
X106505813Y-121698984D01*
X106575509Y-121862382D01*
X106616923Y-121959476D01*
X106652402Y-122018757D01*
X106759765Y-122198147D01*
X106764561Y-122206161D01*
X106944313Y-122430528D01*
X107035553Y-122517111D01*
X107145908Y-122621834D01*
X107152851Y-122628423D01*
X107386317Y-122796186D01*
X107390112Y-122798195D01*
X107390113Y-122798196D01*
X107411869Y-122809715D01*
X107640392Y-122930712D01*
X107910373Y-123029511D01*
X108191264Y-123090755D01*
X108219841Y-123093004D01*
X108414282Y-123108307D01*
X108414291Y-123108307D01*
X108416739Y-123108500D01*
X108572271Y-123108500D01*
X108574407Y-123108354D01*
X108574418Y-123108354D01*
X108782548Y-123094165D01*
X108782554Y-123094164D01*
X108786825Y-123093873D01*
X108791020Y-123093004D01*
X108791022Y-123093004D01*
X108927583Y-123064724D01*
X109068342Y-123035574D01*
X109339343Y-122939607D01*
X109447433Y-122883818D01*
X109591005Y-122809715D01*
X109591006Y-122809715D01*
X109594812Y-122807750D01*
X109598313Y-122805289D01*
X109598317Y-122805287D01*
X109822015Y-122648069D01*
X109830023Y-122642441D01*
X109981706Y-122501488D01*
X110037479Y-122449661D01*
X110037481Y-122449658D01*
X110040622Y-122446740D01*
X110222713Y-122224268D01*
X110372927Y-121979142D01*
X110391596Y-121936614D01*
X110486757Y-121719830D01*
X110488483Y-121715898D01*
X110504392Y-121660051D01*
X110532178Y-121562507D01*
X110567244Y-121439406D01*
X110603576Y-121184121D01*
X110607146Y-121159036D01*
X110607146Y-121159034D01*
X110607751Y-121154784D01*
X110607845Y-121136951D01*
X110609235Y-120871583D01*
X110609235Y-120871576D01*
X110609257Y-120867297D01*
X110571732Y-120582266D01*
X110495871Y-120304964D01*
X110407293Y-120097297D01*
X110384763Y-120044476D01*
X110384761Y-120044472D01*
X110383077Y-120040524D01*
X110235439Y-119793839D01*
X110055687Y-119569472D01*
X109864706Y-119388238D01*
X109850258Y-119374527D01*
X109850255Y-119374525D01*
X109847149Y-119371577D01*
X109613683Y-119203814D01*
X109591843Y-119192250D01*
X109534995Y-119162151D01*
X109359608Y-119069288D01*
X109120115Y-118981646D01*
X109093658Y-118971964D01*
X109093656Y-118971963D01*
X109089627Y-118970489D01*
X108808736Y-118909245D01*
X108777685Y-118906801D01*
X108585718Y-118891693D01*
X108585709Y-118891693D01*
X108583261Y-118891500D01*
X108427729Y-118891500D01*
X108425593Y-118891646D01*
X108425582Y-118891646D01*
X108217452Y-118905835D01*
X108217446Y-118905836D01*
X108213175Y-118906127D01*
X108208980Y-118906996D01*
X108208978Y-118906996D01*
X108145223Y-118920199D01*
X107931658Y-118964426D01*
X107660657Y-119060393D01*
X107656848Y-119062359D01*
X107505966Y-119140235D01*
X107405188Y-119192250D01*
X107401687Y-119194711D01*
X107401683Y-119194713D01*
X107330667Y-119244624D01*
X107169977Y-119357559D01*
X106959378Y-119553260D01*
X106777287Y-119775732D01*
X106627073Y-120020858D01*
X106625347Y-120024791D01*
X106625346Y-120024792D01*
X106516890Y-120271862D01*
X106511517Y-120284102D01*
X106432756Y-120560594D01*
X106392249Y-120845216D01*
X106392227Y-120849505D01*
X106392226Y-120849512D01*
X106390765Y-121128417D01*
X106390743Y-121132703D01*
X105514971Y-121132703D01*
X105510436Y-121046364D01*
X105512009Y-121018850D01*
X105512265Y-121017330D01*
X105512265Y-121017329D01*
X105513071Y-121012539D01*
X105513224Y-121000000D01*
X105509273Y-120972412D01*
X105508000Y-120954549D01*
X105508000Y-111132703D01*
X106390743Y-111132703D01*
X106391302Y-111136947D01*
X106391302Y-111136951D01*
X106400004Y-111203051D01*
X106428268Y-111417734D01*
X106504129Y-111695036D01*
X106505813Y-111698984D01*
X106587409Y-111890281D01*
X106616923Y-111959476D01*
X106681165Y-112066817D01*
X106760874Y-112200000D01*
X106764561Y-112206161D01*
X106944313Y-112430528D01*
X107152851Y-112628423D01*
X107386317Y-112796186D01*
X107390112Y-112798195D01*
X107390113Y-112798196D01*
X107409923Y-112808685D01*
X107640392Y-112930712D01*
X107664699Y-112939607D01*
X107863629Y-113012405D01*
X107910373Y-113029511D01*
X108191264Y-113090755D01*
X108219841Y-113093004D01*
X108414282Y-113108307D01*
X108414291Y-113108307D01*
X108416739Y-113108500D01*
X108572271Y-113108500D01*
X108574407Y-113108354D01*
X108574418Y-113108354D01*
X108782548Y-113094165D01*
X108782554Y-113094164D01*
X108786825Y-113093873D01*
X108791020Y-113093004D01*
X108791022Y-113093004D01*
X108928204Y-113064595D01*
X109068342Y-113035574D01*
X109339343Y-112939607D01*
X109579473Y-112815667D01*
X109591005Y-112809715D01*
X109591006Y-112809715D01*
X109594812Y-112807750D01*
X109598313Y-112805289D01*
X109598317Y-112805287D01*
X109747783Y-112700240D01*
X109830023Y-112642441D01*
X109908403Y-112569606D01*
X110037479Y-112449661D01*
X110037481Y-112449658D01*
X110040622Y-112446740D01*
X110222713Y-112224268D01*
X110372927Y-111979142D01*
X110405985Y-111903835D01*
X110486757Y-111719830D01*
X110488483Y-111715898D01*
X110509189Y-111643211D01*
X110545807Y-111514660D01*
X110567244Y-111439406D01*
X110607751Y-111154784D01*
X110607845Y-111136951D01*
X110609235Y-110871583D01*
X110609235Y-110871576D01*
X110609257Y-110867297D01*
X110608317Y-110860153D01*
X110589690Y-110718671D01*
X110571732Y-110582266D01*
X110495871Y-110304964D01*
X110477352Y-110261547D01*
X110384763Y-110044476D01*
X110384761Y-110044472D01*
X110383077Y-110040524D01*
X110286175Y-109878612D01*
X110237643Y-109797521D01*
X110237640Y-109797517D01*
X110235439Y-109793839D01*
X110055687Y-109569472D01*
X109847149Y-109371577D01*
X109613683Y-109203814D01*
X109591843Y-109192250D01*
X109568654Y-109179972D01*
X109359608Y-109069288D01*
X109089627Y-108970489D01*
X108808736Y-108909245D01*
X108777685Y-108906801D01*
X108585718Y-108891693D01*
X108585709Y-108891693D01*
X108583261Y-108891500D01*
X108427729Y-108891500D01*
X108425593Y-108891646D01*
X108425582Y-108891646D01*
X108217452Y-108905835D01*
X108217446Y-108905836D01*
X108213175Y-108906127D01*
X108208980Y-108906996D01*
X108208978Y-108906996D01*
X108072417Y-108935276D01*
X107931658Y-108964426D01*
X107660657Y-109060393D01*
X107656848Y-109062359D01*
X107475290Y-109156068D01*
X107405188Y-109192250D01*
X107401687Y-109194711D01*
X107401683Y-109194713D01*
X107320605Y-109251696D01*
X107169977Y-109357559D01*
X107154892Y-109371577D01*
X106993738Y-109521331D01*
X106959378Y-109553260D01*
X106777287Y-109775732D01*
X106627073Y-110020858D01*
X106625347Y-110024791D01*
X106625346Y-110024792D01*
X106543977Y-110210157D01*
X106511517Y-110284102D01*
X106510342Y-110288229D01*
X106510341Y-110288230D01*
X106499590Y-110325973D01*
X106432756Y-110560594D01*
X106403308Y-110767512D01*
X106394179Y-110831658D01*
X106392249Y-110845216D01*
X106392227Y-110849505D01*
X106392226Y-110849512D01*
X106390897Y-111103295D01*
X106390743Y-111132703D01*
X105508000Y-111132703D01*
X105508000Y-111053207D01*
X105509746Y-111032303D01*
X105512264Y-111017335D01*
X105513071Y-111012539D01*
X105513224Y-111000000D01*
X105512535Y-110995185D01*
X105512534Y-110995177D01*
X105511147Y-110985494D01*
X105510047Y-110961022D01*
X105510278Y-110956638D01*
X105523891Y-110697415D01*
X105525276Y-110684275D01*
X105526011Y-110679648D01*
X105571734Y-110391571D01*
X105574487Y-110378647D01*
X105578476Y-110363795D01*
X105651356Y-110092401D01*
X105655448Y-110079836D01*
X105662332Y-110061943D01*
X105761872Y-109803227D01*
X105767255Y-109791165D01*
X105770860Y-109784107D01*
X105902072Y-109527217D01*
X105908685Y-109515793D01*
X106051149Y-109296998D01*
X106070410Y-109267418D01*
X106078192Y-109256737D01*
X106174316Y-109138379D01*
X106265040Y-109026670D01*
X106273895Y-109016867D01*
X106318947Y-108971964D01*
X106483813Y-108807641D01*
X106493639Y-108798825D01*
X106724311Y-108612742D01*
X106735020Y-108604994D01*
X106853840Y-108528184D01*
X106922243Y-108508000D01*
X114789078Y-108508000D01*
X114857199Y-108528002D01*
G37*
%TD.AperFunction*%
%TA.AperFunction,Conductor*%
G36*
X122278554Y-111188978D02*
G01*
X122321041Y-111216946D01*
X124079595Y-112975500D01*
X124113621Y-113037812D01*
X124116500Y-113064595D01*
X124116500Y-114203331D01*
X124096411Y-114271586D01*
X124025054Y-114382310D01*
X124025050Y-114382319D01*
X124021235Y-114388238D01*
X124018826Y-114394858D01*
X124018825Y-114394859D01*
X124004349Y-114434631D01*
X123959197Y-114558685D01*
X123936463Y-114738640D01*
X123936554Y-114739572D01*
X123916315Y-114805096D01*
X123862014Y-114850834D01*
X123811280Y-114861499D01*
X122568982Y-114861499D01*
X122545373Y-114859267D01*
X122545008Y-114859197D01*
X122545003Y-114859197D01*
X122537220Y-114857712D01*
X122480986Y-114861250D01*
X122473074Y-114861499D01*
X122457016Y-114861499D01*
X122453082Y-114861996D01*
X122453081Y-114861996D01*
X122441076Y-114863512D01*
X122433200Y-114864256D01*
X122384883Y-114867296D01*
X122384881Y-114867296D01*
X122376972Y-114867794D01*
X122369434Y-114870243D01*
X122369430Y-114870244D01*
X122369079Y-114870358D01*
X122345943Y-114875530D01*
X122345564Y-114875578D01*
X122345559Y-114875579D01*
X122337700Y-114876572D01*
X122330335Y-114879488D01*
X122330331Y-114879489D01*
X122285299Y-114897319D01*
X122277849Y-114900001D01*
X122231805Y-114914961D01*
X122231802Y-114914962D01*
X122224266Y-114917411D01*
X122217579Y-114921654D01*
X122217576Y-114921656D01*
X122217257Y-114921859D01*
X122196127Y-114932625D01*
X122188411Y-114935680D01*
X122187437Y-114933221D01*
X122130639Y-114945742D01*
X122064050Y-114921117D01*
X122021345Y-114864399D01*
X122013278Y-114820039D01*
X122013278Y-112237524D01*
X122034330Y-112167797D01*
X122058937Y-112130760D01*
X122101421Y-112066817D01*
X122165833Y-111897253D01*
X122172854Y-111847297D01*
X122190526Y-111721554D01*
X122190526Y-111721551D01*
X122191077Y-111717632D01*
X122191230Y-111706653D01*
X122191339Y-111698877D01*
X122191339Y-111698872D01*
X122191394Y-111694915D01*
X122171175Y-111514660D01*
X122161700Y-111487450D01*
X122112956Y-111347478D01*
X122109442Y-111276569D01*
X122144824Y-111215016D01*
X122207866Y-111182364D01*
X122278554Y-111188978D01*
G37*
%TD.AperFunction*%
%TA.AperFunction,Conductor*%
G36*
X135131124Y-108528600D02*
G01*
X135243687Y-108602331D01*
X135254212Y-108610032D01*
X135375617Y-108708920D01*
X135480543Y-108794385D01*
X135490219Y-108803137D01*
X135564590Y-108877773D01*
X135696268Y-109009921D01*
X135704990Y-109019632D01*
X135888536Y-109246617D01*
X135896206Y-109257178D01*
X135970560Y-109371577D01*
X136055281Y-109501928D01*
X136061815Y-109513220D01*
X136194725Y-109773134D01*
X136200052Y-109785036D01*
X136204702Y-109797057D01*
X136305354Y-110057291D01*
X136309426Y-110069692D01*
X136374433Y-110308838D01*
X136375719Y-110315154D01*
X136375691Y-110319652D01*
X136378158Y-110328285D01*
X136379223Y-110336056D01*
X136380783Y-110343699D01*
X136381314Y-110352656D01*
X136384337Y-110361103D01*
X136384338Y-110361110D01*
X136398862Y-110401698D01*
X136401370Y-110409499D01*
X136415679Y-110459565D01*
X136420470Y-110467158D01*
X136423668Y-110474308D01*
X136427315Y-110481214D01*
X136430338Y-110489663D01*
X136460941Y-110531803D01*
X136465538Y-110538589D01*
X136482102Y-110564841D01*
X136493327Y-110582631D01*
X136500052Y-110588570D01*
X136505113Y-110594517D01*
X136510570Y-110600141D01*
X136515845Y-110607404D01*
X136548059Y-110632312D01*
X136557028Y-110639247D01*
X136563364Y-110644485D01*
X136602395Y-110678956D01*
X136610521Y-110682771D01*
X136617047Y-110687058D01*
X136623860Y-110690923D01*
X136630962Y-110696414D01*
X136639316Y-110699690D01*
X136639318Y-110699691D01*
X136643682Y-110701402D01*
X136679441Y-110715424D01*
X136686968Y-110718663D01*
X136734115Y-110740799D01*
X136742982Y-110742179D01*
X136750454Y-110744464D01*
X136758076Y-110746260D01*
X136766432Y-110749537D01*
X136818283Y-110754175D01*
X136826442Y-110755174D01*
X136839778Y-110757251D01*
X136839782Y-110757251D01*
X136844590Y-110758000D01*
X136855406Y-110758000D01*
X136866633Y-110758501D01*
X136911368Y-110762503D01*
X136920168Y-110760762D01*
X136920177Y-110760762D01*
X136922030Y-110760395D01*
X136946478Y-110758000D01*
X138788727Y-110758000D01*
X138856848Y-110778002D01*
X138903341Y-110831658D01*
X138913445Y-110901932D01*
X138883951Y-110966512D01*
X138875057Y-110974796D01*
X138875269Y-110975008D01*
X138868919Y-110981358D01*
X138861739Y-110986739D01*
X138774385Y-111103295D01*
X138723255Y-111239684D01*
X138716500Y-111301866D01*
X138716500Y-113098134D01*
X138723255Y-113160316D01*
X138774385Y-113296705D01*
X138779770Y-113303890D01*
X138786557Y-113312946D01*
X138811403Y-113379453D01*
X138796349Y-113448835D01*
X138774824Y-113477605D01*
X138286912Y-113965516D01*
X138224600Y-113999541D01*
X138153784Y-113994476D01*
X138108411Y-113965204D01*
X138014778Y-113870915D01*
X138014774Y-113870912D01*
X138009815Y-113865918D01*
X137998697Y-113858862D01*
X137908179Y-113801418D01*
X137856666Y-113768727D01*
X137807228Y-113751123D01*
X137692425Y-113710243D01*
X137692420Y-113710242D01*
X137685790Y-113707881D01*
X137678802Y-113707048D01*
X137678799Y-113707047D01*
X137582027Y-113695508D01*
X137546910Y-113686033D01*
X137546153Y-113685706D01*
X137535343Y-113681027D01*
X137524686Y-113675807D01*
X137498570Y-113661450D01*
X137485803Y-113654431D01*
X137478128Y-113652460D01*
X137478122Y-113652458D01*
X137466089Y-113649369D01*
X137447387Y-113642966D01*
X137428708Y-113634883D01*
X137394872Y-113629524D01*
X137384873Y-113627940D01*
X137373260Y-113625535D01*
X137330282Y-113614500D01*
X137309935Y-113614500D01*
X137290224Y-113612949D01*
X137277950Y-113611005D01*
X137270121Y-113609765D01*
X137262229Y-113610511D01*
X137225944Y-113613941D01*
X137214086Y-113614500D01*
X131815422Y-113614500D01*
X131747301Y-113594498D01*
X131726327Y-113577595D01*
X130104257Y-111955524D01*
X129281436Y-111132703D01*
X131390743Y-111132703D01*
X131391302Y-111136947D01*
X131391302Y-111136951D01*
X131400004Y-111203051D01*
X131428268Y-111417734D01*
X131504129Y-111695036D01*
X131505813Y-111698984D01*
X131587409Y-111890281D01*
X131616923Y-111959476D01*
X131681165Y-112066817D01*
X131760874Y-112200000D01*
X131764561Y-112206161D01*
X131944313Y-112430528D01*
X132152851Y-112628423D01*
X132386317Y-112796186D01*
X132390112Y-112798195D01*
X132390113Y-112798196D01*
X132409923Y-112808685D01*
X132640392Y-112930712D01*
X132664699Y-112939607D01*
X132863629Y-113012405D01*
X132910373Y-113029511D01*
X133191264Y-113090755D01*
X133219841Y-113093004D01*
X133414282Y-113108307D01*
X133414291Y-113108307D01*
X133416739Y-113108500D01*
X133572271Y-113108500D01*
X133574407Y-113108354D01*
X133574418Y-113108354D01*
X133782548Y-113094165D01*
X133782554Y-113094164D01*
X133786825Y-113093873D01*
X133791020Y-113093004D01*
X133791022Y-113093004D01*
X133928204Y-113064595D01*
X134068342Y-113035574D01*
X134339343Y-112939607D01*
X134579473Y-112815667D01*
X134591005Y-112809715D01*
X134591006Y-112809715D01*
X134594812Y-112807750D01*
X134598313Y-112805289D01*
X134598317Y-112805287D01*
X134747783Y-112700240D01*
X134830023Y-112642441D01*
X134908403Y-112569606D01*
X135037479Y-112449661D01*
X135037481Y-112449658D01*
X135040622Y-112446740D01*
X135222713Y-112224268D01*
X135372927Y-111979142D01*
X135405985Y-111903835D01*
X135486757Y-111719830D01*
X135488483Y-111715898D01*
X135509189Y-111643211D01*
X135545807Y-111514660D01*
X135567244Y-111439406D01*
X135607751Y-111154784D01*
X135607845Y-111136951D01*
X135609235Y-110871583D01*
X135609235Y-110871576D01*
X135609257Y-110867297D01*
X135608317Y-110860153D01*
X135589690Y-110718671D01*
X135571732Y-110582266D01*
X135495871Y-110304964D01*
X135477352Y-110261547D01*
X135384763Y-110044476D01*
X135384761Y-110044472D01*
X135383077Y-110040524D01*
X135286175Y-109878612D01*
X135237643Y-109797521D01*
X135237640Y-109797517D01*
X135235439Y-109793839D01*
X135055687Y-109569472D01*
X134847149Y-109371577D01*
X134613683Y-109203814D01*
X134591843Y-109192250D01*
X134568654Y-109179972D01*
X134359608Y-109069288D01*
X134089627Y-108970489D01*
X133808736Y-108909245D01*
X133777685Y-108906801D01*
X133585718Y-108891693D01*
X133585709Y-108891693D01*
X133583261Y-108891500D01*
X133427729Y-108891500D01*
X133425593Y-108891646D01*
X133425582Y-108891646D01*
X133217452Y-108905835D01*
X133217446Y-108905836D01*
X133213175Y-108906127D01*
X133208980Y-108906996D01*
X133208978Y-108906996D01*
X133072417Y-108935276D01*
X132931658Y-108964426D01*
X132660657Y-109060393D01*
X132656848Y-109062359D01*
X132475290Y-109156068D01*
X132405188Y-109192250D01*
X132401687Y-109194711D01*
X132401683Y-109194713D01*
X132320605Y-109251696D01*
X132169977Y-109357559D01*
X132154892Y-109371577D01*
X131993738Y-109521331D01*
X131959378Y-109553260D01*
X131777287Y-109775732D01*
X131627073Y-110020858D01*
X131625347Y-110024791D01*
X131625346Y-110024792D01*
X131543977Y-110210157D01*
X131511517Y-110284102D01*
X131510342Y-110288229D01*
X131510341Y-110288230D01*
X131499590Y-110325973D01*
X131432756Y-110560594D01*
X131403308Y-110767512D01*
X131394179Y-110831658D01*
X131392249Y-110845216D01*
X131392227Y-110849505D01*
X131392226Y-110849512D01*
X131390897Y-111103295D01*
X131390743Y-111132703D01*
X129281436Y-111132703D01*
X128453252Y-110304519D01*
X128445676Y-110296193D01*
X128441555Y-110289699D01*
X128391736Y-110242916D01*
X128388895Y-110240162D01*
X128369096Y-110220363D01*
X128365971Y-110217939D01*
X128365962Y-110217931D01*
X128365876Y-110217865D01*
X128356851Y-110210157D01*
X128330287Y-110185212D01*
X128324508Y-110179785D01*
X128306671Y-110169979D01*
X128290155Y-110159129D01*
X128274069Y-110146652D01*
X128233336Y-110129026D01*
X128222688Y-110123809D01*
X128211060Y-110117417D01*
X128183805Y-110102433D01*
X128176130Y-110100462D01*
X128176124Y-110100460D01*
X128164091Y-110097371D01*
X128145389Y-110090968D01*
X128126710Y-110082885D01*
X128092874Y-110077526D01*
X128082875Y-110075942D01*
X128071262Y-110073537D01*
X128028284Y-110062502D01*
X128007937Y-110062502D01*
X127988226Y-110060951D01*
X127975952Y-110059007D01*
X127968123Y-110057767D01*
X127960231Y-110058513D01*
X127923946Y-110061943D01*
X127912088Y-110062502D01*
X126044188Y-110062502D01*
X125976674Y-110042887D01*
X125862615Y-109970504D01*
X125862613Y-109970503D01*
X125856666Y-109966729D01*
X125842880Y-109961820D01*
X125692425Y-109908245D01*
X125692420Y-109908244D01*
X125685790Y-109905883D01*
X125678802Y-109905050D01*
X125678799Y-109905049D01*
X125555698Y-109890370D01*
X125505680Y-109884406D01*
X125498677Y-109885142D01*
X125498676Y-109885142D01*
X125332288Y-109902630D01*
X125332286Y-109902631D01*
X125325288Y-109903366D01*
X125153579Y-109961820D01*
X125134610Y-109973490D01*
X125005095Y-110053168D01*
X125005092Y-110053170D01*
X124999088Y-110056864D01*
X124994053Y-110061795D01*
X124994050Y-110061797D01*
X124874761Y-110178614D01*
X124869493Y-110183773D01*
X124771235Y-110336240D01*
X124768826Y-110342860D01*
X124768824Y-110342863D01*
X124716810Y-110485771D01*
X124709197Y-110506687D01*
X124686463Y-110686642D01*
X124704163Y-110867162D01*
X124761418Y-111039275D01*
X124765065Y-111045297D01*
X124765066Y-111045299D01*
X124849292Y-111184373D01*
X124855380Y-111194426D01*
X124860269Y-111199489D01*
X124860270Y-111199490D01*
X124877127Y-111216946D01*
X124981382Y-111324904D01*
X125133159Y-111424224D01*
X125139763Y-111426680D01*
X125139765Y-111426681D01*
X125296558Y-111484992D01*
X125296560Y-111484992D01*
X125303168Y-111487450D01*
X125370424Y-111496424D01*
X125475980Y-111510509D01*
X125475984Y-111510509D01*
X125482961Y-111511440D01*
X125489972Y-111510802D01*
X125489976Y-111510802D01*
X125647953Y-111496424D01*
X125663600Y-111495000D01*
X125670302Y-111492822D01*
X125670304Y-111492822D01*
X125829409Y-111441126D01*
X125829412Y-111441125D01*
X125836108Y-111438949D01*
X125983185Y-111351273D01*
X126047703Y-111333502D01*
X127632580Y-111333502D01*
X127700701Y-111353504D01*
X127721675Y-111370407D01*
X130250672Y-113899405D01*
X130284698Y-113961717D01*
X130279633Y-114032533D01*
X130237086Y-114089368D01*
X130170566Y-114114179D01*
X130161577Y-114114500D01*
X128441406Y-114114500D01*
X128373285Y-114094498D01*
X128326792Y-114040842D01*
X128316191Y-114002545D01*
X128300866Y-113865918D01*
X128296398Y-113826089D01*
X128294081Y-113819435D01*
X128239065Y-113661450D01*
X128239063Y-113661447D01*
X128236746Y-113654792D01*
X128231817Y-113646904D01*
X128144360Y-113506942D01*
X128140627Y-113500968D01*
X128135665Y-113495971D01*
X128017779Y-113377259D01*
X128017775Y-113377256D01*
X128012816Y-113372262D01*
X127859667Y-113275071D01*
X127796766Y-113252673D01*
X127695426Y-113216587D01*
X127695421Y-113216586D01*
X127688791Y-113214225D01*
X127681805Y-113213392D01*
X127681801Y-113213391D01*
X127621690Y-113206224D01*
X127596506Y-113203221D01*
X127561394Y-113193747D01*
X127531982Y-113181020D01*
X127521343Y-113175807D01*
X127496466Y-113162131D01*
X127482460Y-113154431D01*
X127474785Y-113152460D01*
X127474779Y-113152458D01*
X127462746Y-113149369D01*
X127444044Y-113142966D01*
X127425365Y-113134883D01*
X127385570Y-113128580D01*
X127381530Y-113127940D01*
X127369917Y-113125535D01*
X127326939Y-113114500D01*
X127306592Y-113114500D01*
X127286881Y-113112949D01*
X127274607Y-113111005D01*
X127266778Y-113109765D01*
X127258886Y-113110511D01*
X127222601Y-113113941D01*
X127210743Y-113114500D01*
X126079032Y-113114500D01*
X126067793Y-113113970D01*
X126060281Y-113112291D01*
X126052356Y-113112540D01*
X126052355Y-113112540D01*
X125991970Y-113114438D01*
X125988012Y-113114500D01*
X125960017Y-113114500D01*
X125956083Y-113114997D01*
X125956081Y-113114997D01*
X125955994Y-113115008D01*
X125944160Y-113115940D01*
X125899795Y-113117335D01*
X125892182Y-113119547D01*
X125892181Y-113119547D01*
X125880252Y-113123013D01*
X125860888Y-113127023D01*
X125848560Y-113128580D01*
X125848558Y-113128580D01*
X125840701Y-113129573D01*
X125833337Y-113132489D01*
X125833332Y-113132490D01*
X125799444Y-113145907D01*
X125788215Y-113149752D01*
X125778895Y-113152460D01*
X125745607Y-113162131D01*
X125738780Y-113166169D01*
X125738777Y-113166170D01*
X125728094Y-113172488D01*
X125710336Y-113181188D01*
X125698785Y-113185761D01*
X125698779Y-113185765D01*
X125691412Y-113188681D01*
X125657402Y-113213391D01*
X125655512Y-113214764D01*
X125645590Y-113221281D01*
X125614232Y-113239826D01*
X125614228Y-113239829D01*
X125607402Y-113243866D01*
X125598595Y-113252673D01*
X125536283Y-113286699D01*
X125465468Y-113281634D01*
X125408632Y-113239087D01*
X125383821Y-113172567D01*
X125383500Y-113163578D01*
X125383500Y-112828767D01*
X125384027Y-112817584D01*
X125385702Y-112810091D01*
X125383562Y-112742014D01*
X125383500Y-112738055D01*
X125383500Y-112710144D01*
X125382995Y-112706144D01*
X125382062Y-112694301D01*
X125380922Y-112658030D01*
X125380673Y-112650111D01*
X125375021Y-112630657D01*
X125371013Y-112611300D01*
X125369468Y-112599070D01*
X125369468Y-112599069D01*
X125368474Y-112591203D01*
X125365555Y-112583830D01*
X125352196Y-112550088D01*
X125348351Y-112538858D01*
X125338229Y-112504017D01*
X125338229Y-112504016D01*
X125336018Y-112496407D01*
X125331985Y-112489588D01*
X125331983Y-112489583D01*
X125325707Y-112478972D01*
X125317012Y-112461224D01*
X125309552Y-112442383D01*
X125283564Y-112406613D01*
X125277048Y-112396693D01*
X125258580Y-112365465D01*
X125258578Y-112365462D01*
X125254542Y-112358638D01*
X125240221Y-112344317D01*
X125227380Y-112329283D01*
X125220131Y-112319306D01*
X125215472Y-112312893D01*
X125181395Y-112284702D01*
X125172616Y-112276712D01*
X122246500Y-109350595D01*
X122212474Y-109288283D01*
X122217539Y-109217467D01*
X122260086Y-109160632D01*
X122326606Y-109135821D01*
X122335595Y-109135500D01*
X125456959Y-109135500D01*
X125525952Y-109156068D01*
X125633159Y-109226222D01*
X125639763Y-109228678D01*
X125639765Y-109228679D01*
X125796558Y-109286990D01*
X125796560Y-109286990D01*
X125803168Y-109289448D01*
X125886995Y-109300633D01*
X125975980Y-109312507D01*
X125975984Y-109312507D01*
X125982961Y-109313438D01*
X125989972Y-109312800D01*
X125989976Y-109312800D01*
X126132459Y-109299832D01*
X126163600Y-109296998D01*
X126170302Y-109294820D01*
X126170304Y-109294820D01*
X126329409Y-109243124D01*
X126329412Y-109243123D01*
X126336108Y-109240947D01*
X126451088Y-109172405D01*
X126485860Y-109151677D01*
X126485862Y-109151676D01*
X126491912Y-109148069D01*
X126623266Y-109022982D01*
X126723643Y-108871902D01*
X126788055Y-108702338D01*
X126800124Y-108616465D01*
X126829413Y-108551791D01*
X126889017Y-108513218D01*
X126924898Y-108508001D01*
X135062085Y-108508001D01*
X135131124Y-108528600D01*
G37*
%TD.AperFunction*%
%TD*%
M02*
