%TF.GenerationSoftware,KiCad,Pcbnew,(6.0.0)*%
%TF.CreationDate,2022-02-10T21:19:41-08:00*%
%TF.ProjectId,elevation-imu,656c6576-6174-4696-9f6e-2d696d752e6b,rev?*%
%TF.SameCoordinates,Original*%
%TF.FileFunction,Soldermask,Top*%
%TF.FilePolarity,Negative*%
%FSLAX46Y46*%
G04 Gerber Fmt 4.6, Leading zero omitted, Abs format (unit mm)*
G04 Created by KiCad (PCBNEW (6.0.0)) date 2022-02-10 21:19:41*
%MOMM*%
%LPD*%
G01*
G04 APERTURE LIST*
G04 Aperture macros list*
%AMRoundRect*
0 Rectangle with rounded corners*
0 $1 Rounding radius*
0 $2 $3 $4 $5 $6 $7 $8 $9 X,Y pos of 4 corners*
0 Add a 4 corners polygon primitive as box body*
4,1,4,$2,$3,$4,$5,$6,$7,$8,$9,$2,$3,0*
0 Add four circle primitives for the rounded corners*
1,1,$1+$1,$2,$3*
1,1,$1+$1,$4,$5*
1,1,$1+$1,$6,$7*
1,1,$1+$1,$8,$9*
0 Add four rect primitives between the rounded corners*
20,1,$1+$1,$2,$3,$4,$5,0*
20,1,$1+$1,$4,$5,$6,$7,0*
20,1,$1+$1,$6,$7,$8,$9,0*
20,1,$1+$1,$8,$9,$2,$3,0*%
G04 Aperture macros list end*
%ADD10R,1.000000X1.500000*%
%ADD11RoundRect,0.250000X0.325000X0.650000X-0.325000X0.650000X-0.325000X-0.650000X0.325000X-0.650000X0*%
%ADD12RoundRect,0.200000X-0.200000X-0.275000X0.200000X-0.275000X0.200000X0.275000X-0.200000X0.275000X0*%
%ADD13RoundRect,0.200000X0.275000X-0.200000X0.275000X0.200000X-0.275000X0.200000X-0.275000X-0.200000X0*%
%ADD14R,0.700000X0.450000*%
%ADD15R,0.675000X0.250000*%
%ADD16R,0.250000X0.675000*%
%ADD17R,1.700000X1.700000*%
%ADD18O,1.700000X1.700000*%
%ADD19RoundRect,0.100000X-0.100000X0.637500X-0.100000X-0.637500X0.100000X-0.637500X0.100000X0.637500X0*%
%ADD20RoundRect,0.225000X-0.225000X-0.250000X0.225000X-0.250000X0.225000X0.250000X-0.225000X0.250000X0*%
%ADD21R,0.450000X0.700000*%
%ADD22C,3.200000*%
%ADD23RoundRect,0.225000X0.250000X-0.225000X0.250000X0.225000X-0.250000X0.225000X-0.250000X-0.225000X0*%
%ADD24RoundRect,0.200000X0.200000X0.275000X-0.200000X0.275000X-0.200000X-0.275000X0.200000X-0.275000X0*%
%ADD25RoundRect,0.225000X-0.250000X0.225000X-0.250000X-0.225000X0.250000X-0.225000X0.250000X0.225000X0*%
%ADD26RoundRect,0.200000X-0.275000X0.200000X-0.275000X-0.200000X0.275000X-0.200000X0.275000X0.200000X0*%
%ADD27RoundRect,0.150000X0.150000X-0.512500X0.150000X0.512500X-0.150000X0.512500X-0.150000X-0.512500X0*%
%ADD28RoundRect,0.250000X-0.650000X0.325000X-0.650000X-0.325000X0.650000X-0.325000X0.650000X0.325000X0*%
G04 APERTURE END LIST*
D10*
%TO.C,JP1*%
X118300000Y-122000000D03*
X117000000Y-122000000D03*
X115700000Y-122000000D03*
%TD*%
D11*
%TO.C,C2*%
X120475000Y-113500000D03*
X117525000Y-113500000D03*
%TD*%
D12*
%TO.C,R5*%
X112175000Y-118500000D03*
X113825000Y-118500000D03*
%TD*%
D13*
%TO.C,R3*%
X120000000Y-110825000D03*
X120000000Y-109175000D03*
%TD*%
D14*
%TO.C,Q1*%
X124050000Y-109300000D03*
X124050000Y-110600000D03*
X126050000Y-109950000D03*
%TD*%
D13*
%TO.C,R4*%
X115000000Y-110825000D03*
X115000000Y-109175000D03*
%TD*%
D15*
%TO.C,U1*%
X120262500Y-117250000D03*
X120262500Y-116750000D03*
X120262500Y-116250000D03*
X120262500Y-115750000D03*
D16*
X119500000Y-115487500D03*
X119000000Y-115487500D03*
X118500000Y-115487500D03*
D15*
X117737500Y-115750000D03*
X117737500Y-116250000D03*
X117737500Y-116750000D03*
X117737500Y-117250000D03*
D16*
X118500000Y-117512500D03*
X119000000Y-117512500D03*
X119500000Y-117512500D03*
%TD*%
D17*
%TO.C,J1*%
X140075000Y-112200000D03*
D18*
X142615000Y-112200000D03*
X140075000Y-114740000D03*
X142615000Y-114740000D03*
X140075000Y-117280000D03*
X142615000Y-117280000D03*
X140075000Y-119820000D03*
X142615000Y-119820000D03*
%TD*%
D19*
%TO.C,U2*%
X127925000Y-112637500D03*
X127275000Y-112637500D03*
X126625000Y-112637500D03*
X125975000Y-112637500D03*
X125325000Y-112637500D03*
X124675000Y-112637500D03*
X124025000Y-112637500D03*
X123375000Y-112637500D03*
X122725000Y-112637500D03*
X122075000Y-112637500D03*
X122075000Y-118362500D03*
X122725000Y-118362500D03*
X123375000Y-118362500D03*
X124025000Y-118362500D03*
X124675000Y-118362500D03*
X125325000Y-118362500D03*
X125975000Y-118362500D03*
X126625000Y-118362500D03*
X127275000Y-118362500D03*
X127925000Y-118362500D03*
%TD*%
D20*
%TO.C,C5*%
X127225000Y-122500000D03*
X128775000Y-122500000D03*
%TD*%
D21*
%TO.C,Q3*%
X112350000Y-117000000D03*
X113650000Y-117000000D03*
X113000000Y-115000000D03*
%TD*%
D22*
%TO.C,H4*%
X133500000Y-121000000D03*
%TD*%
%TO.C,H2*%
X108500000Y-111000000D03*
%TD*%
D11*
%TO.C,C3*%
X134475000Y-116000000D03*
X131525000Y-116000000D03*
%TD*%
D23*
%TO.C,C4*%
X129500000Y-118775000D03*
X129500000Y-117225000D03*
%TD*%
D22*
%TO.C,H1*%
X133500000Y-111000000D03*
%TD*%
D24*
%TO.C,R6*%
X114325000Y-113000000D03*
X112675000Y-113000000D03*
%TD*%
D25*
%TO.C,C7*%
X122000000Y-121725000D03*
X122000000Y-123275000D03*
%TD*%
D26*
%TO.C,R2*%
X127550000Y-109125000D03*
X127550000Y-110775000D03*
%TD*%
%TO.C,R1*%
X122550000Y-109125000D03*
X122550000Y-110775000D03*
%TD*%
D14*
%TO.C,Q2*%
X118500000Y-110650000D03*
X118500000Y-109350000D03*
X116500000Y-110000000D03*
%TD*%
D27*
%TO.C,U3*%
X123550000Y-122637500D03*
X124500000Y-122637500D03*
X125450000Y-122637500D03*
X125450000Y-120362500D03*
X123550000Y-120362500D03*
%TD*%
D22*
%TO.C,H3*%
X108500000Y-121000000D03*
%TD*%
D28*
%TO.C,C1*%
X116000000Y-115525000D03*
X116000000Y-118475000D03*
%TD*%
D20*
%TO.C,C6*%
X127225000Y-121000000D03*
X128775000Y-121000000D03*
%TD*%
M02*
