%TF.GenerationSoftware,KiCad,Pcbnew,(6.0.0)*%
%TF.CreationDate,2022-01-22T14:10:52-08:00*%
%TF.ProjectId,elevation-imu,656c6576-6174-4696-9f6e-2d696d752e6b,rev?*%
%TF.SameCoordinates,Original*%
%TF.FileFunction,Legend,Bot*%
%TF.FilePolarity,Positive*%
%FSLAX46Y46*%
G04 Gerber Fmt 4.6, Leading zero omitted, Abs format (unit mm)*
G04 Created by KiCad (PCBNEW (6.0.0)) date 2022-01-22 14:10:52*
%MOMM*%
%LPD*%
G01*
G04 APERTURE LIST*
%ADD10C,0.150000*%
G04 APERTURE END LIST*
D10*
X133321428Y-117452380D02*
X133321428Y-116452380D01*
X133321428Y-116928571D02*
X132750000Y-116928571D01*
X132750000Y-117452380D02*
X132750000Y-116452380D01*
X131845238Y-117452380D02*
X131845238Y-116928571D01*
X131892857Y-116833333D01*
X131988095Y-116785714D01*
X132178571Y-116785714D01*
X132273809Y-116833333D01*
X131845238Y-117404761D02*
X131940476Y-117452380D01*
X132178571Y-117452380D01*
X132273809Y-117404761D01*
X132321428Y-117309523D01*
X132321428Y-117214285D01*
X132273809Y-117119047D01*
X132178571Y-117071428D01*
X131940476Y-117071428D01*
X131845238Y-117023809D01*
X131369047Y-116785714D02*
X131369047Y-117452380D01*
X131369047Y-116880952D02*
X131321428Y-116833333D01*
X131226190Y-116785714D01*
X131083333Y-116785714D01*
X130988095Y-116833333D01*
X130940476Y-116928571D01*
X130940476Y-117452380D01*
X130511904Y-117404761D02*
X130416666Y-117452380D01*
X130226190Y-117452380D01*
X130130952Y-117404761D01*
X130083333Y-117309523D01*
X130083333Y-117261904D01*
X130130952Y-117166666D01*
X130226190Y-117119047D01*
X130369047Y-117119047D01*
X130464285Y-117071428D01*
X130511904Y-116976190D01*
X130511904Y-116928571D01*
X130464285Y-116833333D01*
X130369047Y-116785714D01*
X130226190Y-116785714D01*
X130130952Y-116833333D01*
X128369047Y-116500000D02*
X128464285Y-116452380D01*
X128607142Y-116452380D01*
X128750000Y-116500000D01*
X128845238Y-116595238D01*
X128892857Y-116690476D01*
X128940476Y-116880952D01*
X128940476Y-117023809D01*
X128892857Y-117214285D01*
X128845238Y-117309523D01*
X128750000Y-117404761D01*
X128607142Y-117452380D01*
X128511904Y-117452380D01*
X128369047Y-117404761D01*
X128321428Y-117357142D01*
X128321428Y-117023809D01*
X128511904Y-117023809D01*
X127464285Y-117452380D02*
X127464285Y-116928571D01*
X127511904Y-116833333D01*
X127607142Y-116785714D01*
X127797619Y-116785714D01*
X127892857Y-116833333D01*
X127464285Y-117404761D02*
X127559523Y-117452380D01*
X127797619Y-117452380D01*
X127892857Y-117404761D01*
X127940476Y-117309523D01*
X127940476Y-117214285D01*
X127892857Y-117119047D01*
X127797619Y-117071428D01*
X127559523Y-117071428D01*
X127464285Y-117023809D01*
X126607142Y-117404761D02*
X126702380Y-117452380D01*
X126892857Y-117452380D01*
X126988095Y-117404761D01*
X127035714Y-117309523D01*
X127035714Y-116928571D01*
X126988095Y-116833333D01*
X126892857Y-116785714D01*
X126702380Y-116785714D01*
X126607142Y-116833333D01*
X126559523Y-116928571D01*
X126559523Y-117023809D01*
X127035714Y-117119047D01*
X126130952Y-116785714D02*
X126130952Y-117452380D01*
X126130952Y-116880952D02*
X126083333Y-116833333D01*
X125988095Y-116785714D01*
X125845238Y-116785714D01*
X125750000Y-116833333D01*
X125702380Y-116928571D01*
X125702380Y-117452380D01*
X125273809Y-117404761D02*
X125178571Y-117452380D01*
X124988095Y-117452380D01*
X124892857Y-117404761D01*
X124845238Y-117309523D01*
X124845238Y-117261904D01*
X124892857Y-117166666D01*
X124988095Y-117119047D01*
X125130952Y-117119047D01*
X125226190Y-117071428D01*
X125273809Y-116976190D01*
X125273809Y-116928571D01*
X125226190Y-116833333D01*
X125130952Y-116785714D01*
X124988095Y-116785714D01*
X124892857Y-116833333D01*
X124416666Y-117452380D02*
X124416666Y-116452380D01*
X124416666Y-116833333D02*
X124321428Y-116785714D01*
X124130952Y-116785714D01*
X124035714Y-116833333D01*
X123988095Y-116880952D01*
X123940476Y-116976190D01*
X123940476Y-117261904D01*
X123988095Y-117357142D01*
X124035714Y-117404761D01*
X124130952Y-117452380D01*
X124321428Y-117452380D01*
X124416666Y-117404761D01*
X123083333Y-117452380D02*
X123083333Y-116928571D01*
X123130952Y-116833333D01*
X123226190Y-116785714D01*
X123416666Y-116785714D01*
X123511904Y-116833333D01*
X123083333Y-117404761D02*
X123178571Y-117452380D01*
X123416666Y-117452380D01*
X123511904Y-117404761D01*
X123559523Y-117309523D01*
X123559523Y-117214285D01*
X123511904Y-117119047D01*
X123416666Y-117071428D01*
X123178571Y-117071428D01*
X123083333Y-117023809D01*
X122178571Y-116785714D02*
X122178571Y-117452380D01*
X122607142Y-116785714D02*
X122607142Y-117309523D01*
X122559523Y-117404761D01*
X122464285Y-117452380D01*
X122321428Y-117452380D01*
X122226190Y-117404761D01*
X122178571Y-117357142D01*
X121321428Y-117404761D02*
X121416666Y-117452380D01*
X121607142Y-117452380D01*
X121702380Y-117404761D01*
X121750000Y-117309523D01*
X121750000Y-116928571D01*
X121702380Y-116833333D01*
X121607142Y-116785714D01*
X121416666Y-116785714D01*
X121321428Y-116833333D01*
X121273809Y-116928571D01*
X121273809Y-117023809D01*
X121750000Y-117119047D01*
X120845238Y-117452380D02*
X120845238Y-116785714D01*
X120845238Y-116976190D02*
X120797619Y-116880952D01*
X120750000Y-116833333D01*
X120654761Y-116785714D01*
X120559523Y-116785714D01*
X119035714Y-117452380D02*
X119035714Y-116928571D01*
X119083333Y-116833333D01*
X119178571Y-116785714D01*
X119369047Y-116785714D01*
X119464285Y-116833333D01*
X119035714Y-117404761D02*
X119130952Y-117452380D01*
X119369047Y-117452380D01*
X119464285Y-117404761D01*
X119511904Y-117309523D01*
X119511904Y-117214285D01*
X119464285Y-117119047D01*
X119369047Y-117071428D01*
X119130952Y-117071428D01*
X119035714Y-117023809D01*
X118559523Y-116785714D02*
X118559523Y-117452380D01*
X118559523Y-116880952D02*
X118511904Y-116833333D01*
X118416666Y-116785714D01*
X118273809Y-116785714D01*
X118178571Y-116833333D01*
X118130952Y-116928571D01*
X118130952Y-117452380D01*
X117226190Y-117452380D02*
X117226190Y-116452380D01*
X117226190Y-117404761D02*
X117321428Y-117452380D01*
X117511904Y-117452380D01*
X117607142Y-117404761D01*
X117654761Y-117357142D01*
X117702380Y-117261904D01*
X117702380Y-116976190D01*
X117654761Y-116880952D01*
X117607142Y-116833333D01*
X117511904Y-116785714D01*
X117321428Y-116785714D01*
X117226190Y-116833333D01*
X115988095Y-116928571D02*
X115654761Y-116928571D01*
X115511904Y-117452380D02*
X115988095Y-117452380D01*
X115988095Y-116452380D01*
X115511904Y-116452380D01*
X114940476Y-117452380D02*
X115035714Y-117404761D01*
X115083333Y-117309523D01*
X115083333Y-116452380D01*
X114559523Y-117452380D02*
X114559523Y-116785714D01*
X114559523Y-116452380D02*
X114607142Y-116500000D01*
X114559523Y-116547619D01*
X114511904Y-116500000D01*
X114559523Y-116452380D01*
X114559523Y-116547619D01*
X112750000Y-117452380D02*
X113083333Y-116976190D01*
X113321428Y-117452380D02*
X113321428Y-116452380D01*
X112940476Y-116452380D01*
X112845238Y-116500000D01*
X112797619Y-116547619D01*
X112750000Y-116642857D01*
X112750000Y-116785714D01*
X112797619Y-116880952D01*
X112845238Y-116928571D01*
X112940476Y-116976190D01*
X113321428Y-116976190D01*
X111940476Y-117404761D02*
X112035714Y-117452380D01*
X112226190Y-117452380D01*
X112321428Y-117404761D01*
X112369047Y-117309523D01*
X112369047Y-116928571D01*
X112321428Y-116833333D01*
X112226190Y-116785714D01*
X112035714Y-116785714D01*
X111940476Y-116833333D01*
X111892857Y-116928571D01*
X111892857Y-117023809D01*
X112369047Y-117119047D01*
X111083333Y-117404761D02*
X111178571Y-117452380D01*
X111369047Y-117452380D01*
X111464285Y-117404761D01*
X111511904Y-117309523D01*
X111511904Y-116928571D01*
X111464285Y-116833333D01*
X111369047Y-116785714D01*
X111178571Y-116785714D01*
X111083333Y-116833333D01*
X111035714Y-116928571D01*
X111035714Y-117023809D01*
X111511904Y-117119047D01*
X110178571Y-117452380D02*
X110178571Y-116452380D01*
X110178571Y-117404761D02*
X110273809Y-117452380D01*
X110464285Y-117452380D01*
X110559523Y-117404761D01*
X110607142Y-117357142D01*
X110654761Y-117261904D01*
X110654761Y-116976190D01*
X110607142Y-116880952D01*
X110559523Y-116833333D01*
X110464285Y-116785714D01*
X110273809Y-116785714D01*
X110178571Y-116833333D01*
X133511904Y-115702380D02*
X133511904Y-114702380D01*
X133035714Y-115035714D02*
X133035714Y-115702380D01*
X133035714Y-115130952D02*
X132988095Y-115083333D01*
X132892857Y-115035714D01*
X132750000Y-115035714D01*
X132654761Y-115083333D01*
X132607142Y-115178571D01*
X132607142Y-115702380D01*
X132273809Y-115035714D02*
X131892857Y-115035714D01*
X132130952Y-114702380D02*
X132130952Y-115559523D01*
X132083333Y-115654761D01*
X131988095Y-115702380D01*
X131892857Y-115702380D01*
X131178571Y-115654761D02*
X131273809Y-115702380D01*
X131464285Y-115702380D01*
X131559523Y-115654761D01*
X131607142Y-115559523D01*
X131607142Y-115178571D01*
X131559523Y-115083333D01*
X131464285Y-115035714D01*
X131273809Y-115035714D01*
X131178571Y-115083333D01*
X131130952Y-115178571D01*
X131130952Y-115273809D01*
X131607142Y-115369047D01*
X130702380Y-115702380D02*
X130702380Y-115035714D01*
X130702380Y-115226190D02*
X130654761Y-115130952D01*
X130607142Y-115083333D01*
X130511904Y-115035714D01*
X130416666Y-115035714D01*
X130226190Y-115035714D02*
X129845238Y-115035714D01*
X130083333Y-115702380D02*
X130083333Y-114845238D01*
X130035714Y-114750000D01*
X129940476Y-114702380D01*
X129845238Y-114702380D01*
X129130952Y-115654761D02*
X129226190Y-115702380D01*
X129416666Y-115702380D01*
X129511904Y-115654761D01*
X129559523Y-115559523D01*
X129559523Y-115178571D01*
X129511904Y-115083333D01*
X129416666Y-115035714D01*
X129226190Y-115035714D01*
X129130952Y-115083333D01*
X129083333Y-115178571D01*
X129083333Y-115273809D01*
X129559523Y-115369047D01*
X128654761Y-115702380D02*
X128654761Y-115035714D01*
X128654761Y-115226190D02*
X128607142Y-115130952D01*
X128559523Y-115083333D01*
X128464285Y-115035714D01*
X128369047Y-115035714D01*
X127892857Y-115702380D02*
X127988095Y-115654761D01*
X128035714Y-115607142D01*
X128083333Y-115511904D01*
X128083333Y-115226190D01*
X128035714Y-115130952D01*
X127988095Y-115083333D01*
X127892857Y-115035714D01*
X127750000Y-115035714D01*
X127654761Y-115083333D01*
X127607142Y-115130952D01*
X127559523Y-115226190D01*
X127559523Y-115511904D01*
X127607142Y-115607142D01*
X127654761Y-115654761D01*
X127750000Y-115702380D01*
X127892857Y-115702380D01*
X127130952Y-115702380D02*
X127130952Y-115035714D01*
X127130952Y-115130952D02*
X127083333Y-115083333D01*
X126988095Y-115035714D01*
X126845238Y-115035714D01*
X126750000Y-115083333D01*
X126702380Y-115178571D01*
X126702380Y-115702380D01*
X126702380Y-115178571D02*
X126654761Y-115083333D01*
X126559523Y-115035714D01*
X126416666Y-115035714D01*
X126321428Y-115083333D01*
X126273809Y-115178571D01*
X126273809Y-115702380D01*
X125416666Y-115654761D02*
X125511904Y-115702380D01*
X125702380Y-115702380D01*
X125797619Y-115654761D01*
X125845238Y-115559523D01*
X125845238Y-115178571D01*
X125797619Y-115083333D01*
X125702380Y-115035714D01*
X125511904Y-115035714D01*
X125416666Y-115083333D01*
X125369047Y-115178571D01*
X125369047Y-115273809D01*
X125845238Y-115369047D01*
X125083333Y-115035714D02*
X124702380Y-115035714D01*
X124940476Y-114702380D02*
X124940476Y-115559523D01*
X124892857Y-115654761D01*
X124797619Y-115702380D01*
X124702380Y-115702380D01*
X123988095Y-115654761D02*
X124083333Y-115702380D01*
X124273809Y-115702380D01*
X124369047Y-115654761D01*
X124416666Y-115559523D01*
X124416666Y-115178571D01*
X124369047Y-115083333D01*
X124273809Y-115035714D01*
X124083333Y-115035714D01*
X123988095Y-115083333D01*
X123940476Y-115178571D01*
X123940476Y-115273809D01*
X124416666Y-115369047D01*
X123511904Y-115702380D02*
X123511904Y-115035714D01*
X123511904Y-115226190D02*
X123464285Y-115130952D01*
X123416666Y-115083333D01*
X123321428Y-115035714D01*
X123226190Y-115035714D01*
X122130952Y-115178571D02*
X121797619Y-115178571D01*
X121654761Y-115702380D02*
X122130952Y-115702380D01*
X122130952Y-114702380D01*
X121654761Y-114702380D01*
X121083333Y-115702380D02*
X121178571Y-115654761D01*
X121226190Y-115559523D01*
X121226190Y-114702380D01*
X120321428Y-115654761D02*
X120416666Y-115702380D01*
X120607142Y-115702380D01*
X120702380Y-115654761D01*
X120750000Y-115559523D01*
X120750000Y-115178571D01*
X120702380Y-115083333D01*
X120607142Y-115035714D01*
X120416666Y-115035714D01*
X120321428Y-115083333D01*
X120273809Y-115178571D01*
X120273809Y-115273809D01*
X120750000Y-115369047D01*
X119940476Y-115035714D02*
X119702380Y-115702380D01*
X119464285Y-115035714D01*
X118654761Y-115702380D02*
X118654761Y-115178571D01*
X118702380Y-115083333D01*
X118797619Y-115035714D01*
X118988095Y-115035714D01*
X119083333Y-115083333D01*
X118654761Y-115654761D02*
X118750000Y-115702380D01*
X118988095Y-115702380D01*
X119083333Y-115654761D01*
X119130952Y-115559523D01*
X119130952Y-115464285D01*
X119083333Y-115369047D01*
X118988095Y-115321428D01*
X118750000Y-115321428D01*
X118654761Y-115273809D01*
X118321428Y-115035714D02*
X117940476Y-115035714D01*
X118178571Y-114702380D02*
X118178571Y-115559523D01*
X118130952Y-115654761D01*
X118035714Y-115702380D01*
X117940476Y-115702380D01*
X117607142Y-115702380D02*
X117607142Y-115035714D01*
X117607142Y-114702380D02*
X117654761Y-114750000D01*
X117607142Y-114797619D01*
X117559523Y-114750000D01*
X117607142Y-114702380D01*
X117607142Y-114797619D01*
X116988095Y-115702380D02*
X117083333Y-115654761D01*
X117130952Y-115607142D01*
X117178571Y-115511904D01*
X117178571Y-115226190D01*
X117130952Y-115130952D01*
X117083333Y-115083333D01*
X116988095Y-115035714D01*
X116845238Y-115035714D01*
X116750000Y-115083333D01*
X116702380Y-115130952D01*
X116654761Y-115226190D01*
X116654761Y-115511904D01*
X116702380Y-115607142D01*
X116750000Y-115654761D01*
X116845238Y-115702380D01*
X116988095Y-115702380D01*
X116226190Y-115035714D02*
X116226190Y-115702380D01*
X116226190Y-115130952D02*
X116178571Y-115083333D01*
X116083333Y-115035714D01*
X115940476Y-115035714D01*
X115845238Y-115083333D01*
X115797619Y-115178571D01*
X115797619Y-115702380D01*
X114607142Y-115654761D02*
X114464285Y-115702380D01*
X114226190Y-115702380D01*
X114130952Y-115654761D01*
X114083333Y-115607142D01*
X114035714Y-115511904D01*
X114035714Y-115416666D01*
X114083333Y-115321428D01*
X114130952Y-115273809D01*
X114226190Y-115226190D01*
X114416666Y-115178571D01*
X114511904Y-115130952D01*
X114559523Y-115083333D01*
X114607142Y-114988095D01*
X114607142Y-114892857D01*
X114559523Y-114797619D01*
X114511904Y-114750000D01*
X114416666Y-114702380D01*
X114178571Y-114702380D01*
X114035714Y-114750000D01*
X113226190Y-115654761D02*
X113321428Y-115702380D01*
X113511904Y-115702380D01*
X113607142Y-115654761D01*
X113654761Y-115559523D01*
X113654761Y-115178571D01*
X113607142Y-115083333D01*
X113511904Y-115035714D01*
X113321428Y-115035714D01*
X113226190Y-115083333D01*
X113178571Y-115178571D01*
X113178571Y-115273809D01*
X113654761Y-115369047D01*
X112750000Y-115035714D02*
X112750000Y-115702380D01*
X112750000Y-115130952D02*
X112702380Y-115083333D01*
X112607142Y-115035714D01*
X112464285Y-115035714D01*
X112369047Y-115083333D01*
X112321428Y-115178571D01*
X112321428Y-115702380D01*
X111892857Y-115654761D02*
X111797619Y-115702380D01*
X111607142Y-115702380D01*
X111511904Y-115654761D01*
X111464285Y-115559523D01*
X111464285Y-115511904D01*
X111511904Y-115416666D01*
X111607142Y-115369047D01*
X111750000Y-115369047D01*
X111845238Y-115321428D01*
X111892857Y-115226190D01*
X111892857Y-115178571D01*
X111845238Y-115083333D01*
X111750000Y-115035714D01*
X111607142Y-115035714D01*
X111511904Y-115083333D01*
X110892857Y-115702380D02*
X110988095Y-115654761D01*
X111035714Y-115607142D01*
X111083333Y-115511904D01*
X111083333Y-115226190D01*
X111035714Y-115130952D01*
X110988095Y-115083333D01*
X110892857Y-115035714D01*
X110750000Y-115035714D01*
X110654761Y-115083333D01*
X110607142Y-115130952D01*
X110559523Y-115226190D01*
X110559523Y-115511904D01*
X110607142Y-115607142D01*
X110654761Y-115654761D01*
X110750000Y-115702380D01*
X110892857Y-115702380D01*
X110130952Y-115702380D02*
X110130952Y-115035714D01*
X110130952Y-115226190D02*
X110083333Y-115130952D01*
X110035714Y-115083333D01*
X109940476Y-115035714D01*
X109845238Y-115035714D01*
%TO.C,G1*%
G36*
X122961419Y-109215004D02*
G01*
X123310878Y-109291597D01*
X123618958Y-109420501D01*
X123875294Y-109600472D01*
X124050615Y-109796420D01*
X124170983Y-110034738D01*
X124225717Y-110313250D01*
X124230577Y-110405353D01*
X124213351Y-110648313D01*
X124145713Y-110858126D01*
X124022832Y-111039300D01*
X123839878Y-111196347D01*
X123592023Y-111333777D01*
X123274436Y-111456099D01*
X122882288Y-111567825D01*
X122617163Y-111637592D01*
X122373904Y-111712723D01*
X122195672Y-111785444D01*
X122075036Y-111860558D01*
X122004562Y-111942871D01*
X121976818Y-112037188D01*
X121984371Y-112148314D01*
X122011765Y-112239799D01*
X122086919Y-112343089D01*
X122211954Y-112414147D01*
X122396053Y-112457529D01*
X122648399Y-112477792D01*
X122831657Y-112479425D01*
X123166791Y-112449085D01*
X123473233Y-112368855D01*
X123777367Y-112233015D01*
X124022070Y-112103077D01*
X124158841Y-112418546D01*
X124183871Y-112476318D01*
X124243168Y-112613510D01*
X124286828Y-112715002D01*
X124306811Y-112762128D01*
X124307282Y-112764160D01*
X124275845Y-112800735D01*
X124189114Y-112856580D01*
X124064485Y-112922967D01*
X123919354Y-112991169D01*
X123771115Y-113052457D01*
X123637165Y-113098105D01*
X123550359Y-113121369D01*
X123359097Y-113165284D01*
X123179328Y-113198940D01*
X123054100Y-113213257D01*
X122801978Y-113222029D01*
X122529587Y-113212457D01*
X122269836Y-113186129D01*
X122055634Y-113144637D01*
X121854955Y-113073698D01*
X121609847Y-112939009D01*
X121398373Y-112768647D01*
X121235844Y-112575492D01*
X121137572Y-112372424D01*
X121103594Y-112204624D01*
X121093000Y-111980787D01*
X121114285Y-111764269D01*
X121166230Y-111588402D01*
X121173726Y-111572564D01*
X121266747Y-111420584D01*
X121392877Y-111289970D01*
X121561385Y-111175425D01*
X121781543Y-111071649D01*
X122062620Y-110973344D01*
X122413885Y-110875210D01*
X122551319Y-110839617D01*
X122813445Y-110767856D01*
X123010593Y-110705278D01*
X123151750Y-110646782D01*
X123245899Y-110587267D01*
X123302025Y-110521632D01*
X123329112Y-110444777D01*
X123336144Y-110351601D01*
X123335468Y-110331168D01*
X123288456Y-110182882D01*
X123176328Y-110058523D01*
X123011608Y-109972712D01*
X123000599Y-109969384D01*
X122877440Y-109949765D01*
X122699945Y-109940990D01*
X122489954Y-109944251D01*
X122366645Y-109951163D01*
X122172563Y-109972664D01*
X122009927Y-110010076D01*
X121847179Y-110069550D01*
X121841722Y-110071833D01*
X121708661Y-110126572D01*
X121604709Y-110167687D01*
X121551957Y-110186432D01*
X121542167Y-110181910D01*
X121501801Y-110125690D01*
X121444857Y-110018556D01*
X121380366Y-109876801D01*
X121245219Y-109558618D01*
X121331170Y-109489019D01*
X121406286Y-109444879D01*
X121533822Y-109389274D01*
X121681915Y-109337145D01*
X121768439Y-109311532D01*
X122179834Y-109223727D01*
X122580949Y-109191965D01*
X122961419Y-109215004D01*
G37*
G36*
X115675839Y-109215004D02*
G01*
X116025298Y-109291597D01*
X116333378Y-109420501D01*
X116589714Y-109600472D01*
X116765035Y-109796420D01*
X116885403Y-110034738D01*
X116940137Y-110313250D01*
X116944997Y-110405353D01*
X116927771Y-110648313D01*
X116860133Y-110858126D01*
X116737252Y-111039300D01*
X116554298Y-111196347D01*
X116306443Y-111333777D01*
X115988856Y-111456099D01*
X115596708Y-111567825D01*
X115331583Y-111637592D01*
X115088324Y-111712723D01*
X114910092Y-111785444D01*
X114789456Y-111860558D01*
X114718982Y-111942871D01*
X114691238Y-112037188D01*
X114698791Y-112148314D01*
X114726186Y-112239799D01*
X114801339Y-112343089D01*
X114926374Y-112414147D01*
X115110473Y-112457529D01*
X115362819Y-112477792D01*
X115546077Y-112479425D01*
X115881211Y-112449085D01*
X116187653Y-112368855D01*
X116491787Y-112233015D01*
X116736490Y-112103077D01*
X116873261Y-112418546D01*
X116898291Y-112476318D01*
X116957588Y-112613510D01*
X117001248Y-112715002D01*
X117021231Y-112762128D01*
X117021702Y-112764160D01*
X116990265Y-112800735D01*
X116903535Y-112856580D01*
X116778905Y-112922967D01*
X116633774Y-112991169D01*
X116485535Y-113052457D01*
X116351585Y-113098105D01*
X116264779Y-113121369D01*
X116073517Y-113165284D01*
X115893748Y-113198940D01*
X115768520Y-113213257D01*
X115516398Y-113222029D01*
X115244007Y-113212457D01*
X114984256Y-113186129D01*
X114770054Y-113144637D01*
X114569375Y-113073698D01*
X114324267Y-112939009D01*
X114112793Y-112768647D01*
X113950264Y-112575492D01*
X113851992Y-112372424D01*
X113818014Y-112204624D01*
X113807420Y-111980787D01*
X113828705Y-111764269D01*
X113880650Y-111588402D01*
X113888146Y-111572564D01*
X113981167Y-111420584D01*
X114107297Y-111289970D01*
X114275805Y-111175425D01*
X114495963Y-111071649D01*
X114777040Y-110973344D01*
X115128305Y-110875210D01*
X115265740Y-110839617D01*
X115527865Y-110767856D01*
X115725013Y-110705278D01*
X115866170Y-110646782D01*
X115960319Y-110587267D01*
X116016445Y-110521632D01*
X116043532Y-110444777D01*
X116050564Y-110351601D01*
X116049888Y-110331168D01*
X116002876Y-110182882D01*
X115890748Y-110058523D01*
X115726028Y-109972712D01*
X115715019Y-109969384D01*
X115591861Y-109949765D01*
X115414365Y-109940990D01*
X115204374Y-109944251D01*
X115081065Y-109951163D01*
X114886983Y-109972664D01*
X114724347Y-110010076D01*
X114561599Y-110069550D01*
X114556142Y-110071833D01*
X114423081Y-110126572D01*
X114319129Y-110167687D01*
X114266377Y-110186432D01*
X114256587Y-110181910D01*
X114216221Y-110125690D01*
X114159277Y-110018556D01*
X114094786Y-109876801D01*
X113959639Y-109558618D01*
X114045590Y-109489019D01*
X114120706Y-109444879D01*
X114248242Y-109389274D01*
X114396335Y-109337145D01*
X114482860Y-109311532D01*
X114894254Y-109223727D01*
X115295369Y-109191965D01*
X115675839Y-109215004D01*
G37*
G36*
X120453762Y-113160972D02*
G01*
X117473332Y-113160972D01*
X117447962Y-112424452D01*
X119577900Y-112446856D01*
X119577900Y-111528684D01*
X117746552Y-111528684D01*
X117746550Y-111180330D01*
X117746548Y-110831975D01*
X118662224Y-110846187D01*
X119577900Y-110860398D01*
X119577900Y-109976019D01*
X117558315Y-109976019D01*
X117532998Y-109791309D01*
X117528579Y-109756408D01*
X117513691Y-109588836D01*
X117507680Y-109433002D01*
X117507680Y-109259405D01*
X120453762Y-109259405D01*
X120453762Y-113160972D01*
G37*
G36*
X127590047Y-113160281D02*
G01*
X127417510Y-113159852D01*
X127076179Y-113156421D01*
X126801625Y-113149253D01*
X126584956Y-113137943D01*
X126417276Y-113122090D01*
X126289693Y-113101289D01*
X125904300Y-112985197D01*
X125559704Y-112809425D01*
X125267419Y-112580851D01*
X125032057Y-112304903D01*
X124858232Y-111987006D01*
X124750554Y-111632586D01*
X124713636Y-111247070D01*
X124713638Y-111243777D01*
X124716550Y-111210188D01*
X125629310Y-111210188D01*
X125632580Y-111314204D01*
X125687015Y-111621549D01*
X125807432Y-111885872D01*
X125992504Y-112104863D01*
X126240907Y-112276211D01*
X126285370Y-112299054D01*
X126361717Y-112333209D01*
X126440834Y-112357346D01*
X126538091Y-112373652D01*
X126668858Y-112384317D01*
X126848503Y-112391530D01*
X127092398Y-112397480D01*
X127739342Y-112411397D01*
X127739342Y-109990293D01*
X127390987Y-110003551D01*
X127269395Y-110008191D01*
X126999512Y-110018922D01*
X126793196Y-110028653D01*
X126638854Y-110038831D01*
X126524889Y-110050902D01*
X126439707Y-110066314D01*
X126371712Y-110086514D01*
X126309311Y-110112948D01*
X126240907Y-110147063D01*
X126151442Y-110197418D01*
X125925687Y-110381254D01*
X125762223Y-110613396D01*
X125662836Y-110890742D01*
X125629310Y-111210188D01*
X124716550Y-111210188D01*
X124749293Y-110832513D01*
X124853149Y-110460524D01*
X125022185Y-110131507D01*
X125253380Y-109849158D01*
X125543711Y-109617174D01*
X125890156Y-109439251D01*
X126289693Y-109319088D01*
X126341127Y-109309356D01*
X126485151Y-109290769D01*
X126673162Y-109276952D01*
X126914052Y-109267504D01*
X127216716Y-109262020D01*
X127590047Y-109260096D01*
X128615204Y-109259405D01*
X128615204Y-113160972D01*
X127590047Y-113160281D01*
G37*
%TD*%
M02*
