%TF.GenerationSoftware,KiCad,Pcbnew,(6.0.0)*%
%TF.CreationDate,2022-01-20T20:45:04-08:00*%
%TF.ProjectId,dish-controller,64697368-2d63-46f6-9e74-726f6c6c6572,rev?*%
%TF.SameCoordinates,Original*%
%TF.FileFunction,Copper,L2,Inr*%
%TF.FilePolarity,Positive*%
%FSLAX46Y46*%
G04 Gerber Fmt 4.6, Leading zero omitted, Abs format (unit mm)*
G04 Created by KiCad (PCBNEW (6.0.0)) date 2022-01-20 20:45:04*
%MOMM*%
%LPD*%
G01*
G04 APERTURE LIST*
G04 Aperture macros list*
%AMRoundRect*
0 Rectangle with rounded corners*
0 $1 Rounding radius*
0 $2 $3 $4 $5 $6 $7 $8 $9 X,Y pos of 4 corners*
0 Add a 4 corners polygon primitive as box body*
4,1,4,$2,$3,$4,$5,$6,$7,$8,$9,$2,$3,0*
0 Add four circle primitives for the rounded corners*
1,1,$1+$1,$2,$3*
1,1,$1+$1,$4,$5*
1,1,$1+$1,$6,$7*
1,1,$1+$1,$8,$9*
0 Add four rect primitives between the rounded corners*
20,1,$1+$1,$2,$3,$4,$5,0*
20,1,$1+$1,$4,$5,$6,$7,0*
20,1,$1+$1,$6,$7,$8,$9,0*
20,1,$1+$1,$8,$9,$2,$3,0*%
G04 Aperture macros list end*
%TA.AperFunction,ComponentPad*%
%ADD10R,1.700000X1.700000*%
%TD*%
%TA.AperFunction,ComponentPad*%
%ADD11O,1.700000X1.700000*%
%TD*%
%TA.AperFunction,ComponentPad*%
%ADD12C,1.700000*%
%TD*%
%TA.AperFunction,ComponentPad*%
%ADD13C,1.500000*%
%TD*%
%TA.AperFunction,ComponentPad*%
%ADD14R,2.600000X2.600000*%
%TD*%
%TA.AperFunction,ComponentPad*%
%ADD15C,2.600000*%
%TD*%
%TA.AperFunction,ComponentPad*%
%ADD16RoundRect,0.250001X0.499999X0.499999X-0.499999X0.499999X-0.499999X-0.499999X0.499999X-0.499999X0*%
%TD*%
%TA.AperFunction,ComponentPad*%
%ADD17R,1.600000X1.600000*%
%TD*%
%TA.AperFunction,ComponentPad*%
%ADD18C,1.600000*%
%TD*%
%TA.AperFunction,ComponentPad*%
%ADD19C,2.000000*%
%TD*%
%TA.AperFunction,ViaPad*%
%ADD20C,0.800000*%
%TD*%
%TA.AperFunction,Conductor*%
%ADD21C,0.200000*%
%TD*%
%TA.AperFunction,Conductor*%
%ADD22C,0.400000*%
%TD*%
%TA.AperFunction,Conductor*%
%ADD23C,1.000000*%
%TD*%
G04 APERTURE END LIST*
D10*
%TO.N,+5V*%
%TO.C,J7*%
X105425000Y-104000000D03*
D11*
%TO.N,+3V3*%
X107965000Y-104000000D03*
%TO.N,/GPIO_2*%
X110505000Y-104000000D03*
%TO.N,/GPIO_3*%
X113045000Y-104000000D03*
%TO.N,GND*%
X115585000Y-104000000D03*
%TD*%
D12*
%TO.N,+3V3*%
%TO.C,U1*%
X96920000Y-94260000D03*
%TO.N,+5V*%
X96920000Y-96800000D03*
%TO.N,/GPIO_2*%
X99460000Y-94260000D03*
%TO.N,+5V*%
X99460000Y-96800000D03*
%TO.N,/GPIO_3*%
X102000000Y-94260000D03*
%TO.N,GND*%
X102000000Y-96800000D03*
%TO.N,/STB1*%
X104540000Y-94260000D03*
%TO.N,unconnected-(U1-Pad8)*%
X104540000Y-96800000D03*
%TO.N,GND*%
X107080000Y-94260000D03*
%TO.N,Net-(D3-Pad2)*%
X107080000Y-96800000D03*
%TO.N,/STB2*%
X109620000Y-94260000D03*
%TO.N,Net-(D4-Pad2)*%
X109620000Y-96800000D03*
%TO.N,/IN11*%
X112160000Y-94260000D03*
%TO.N,GND*%
X112160000Y-96800000D03*
%TO.N,/IN21*%
X114700000Y-94260000D03*
%TO.N,/EPWM1*%
X114700000Y-96800000D03*
%TO.N,unconnected-(U1-Pad17)*%
X117240000Y-94260000D03*
%TO.N,/EPWM2*%
X117240000Y-96800000D03*
%TO.N,/SDI*%
X119780000Y-94260000D03*
%TO.N,GND*%
X119780000Y-96800000D03*
%TO.N,/SDO*%
X122320000Y-94260000D03*
%TO.N,unconnected-(U1-Pad22)*%
X122320000Y-96800000D03*
%TO.N,/CLK*%
X124860000Y-94260000D03*
%TO.N,/~{CS}1*%
X124860000Y-96800000D03*
%TO.N,GND*%
X127400000Y-94260000D03*
%TO.N,/~{CS}2*%
X127400000Y-96800000D03*
%TO.N,unconnected-(U1-Pad27)*%
X129940000Y-94260000D03*
%TO.N,unconnected-(U1-Pad28)*%
X129940000Y-96800000D03*
%TO.N,/IN12*%
X132480000Y-94260000D03*
%TO.N,GND*%
X132480000Y-96800000D03*
%TO.N,/IN22*%
X135020000Y-94260000D03*
%TO.N,/PWM2*%
X135020000Y-96800000D03*
%TO.N,/A11*%
X137560000Y-94260000D03*
%TO.N,GND*%
X137560000Y-96800000D03*
%TO.N,/A21*%
X140100000Y-94260000D03*
%TO.N,/PWM1*%
X140100000Y-96800000D03*
%TO.N,/A12*%
X142640000Y-94260000D03*
%TO.N,/E_~{EN}*%
X142640000Y-96800000D03*
%TO.N,GND*%
X145180000Y-94260000D03*
%TO.N,/A22*%
X145180000Y-96800000D03*
%TD*%
D13*
%TO.N,/A12*%
%TO.C,U4*%
X49000000Y-67500000D03*
%TO.N,GND*%
X50000000Y-63500000D03*
X51000000Y-67500000D03*
X52000000Y-63500000D03*
X53000000Y-67500000D03*
%TO.N,+12V*%
X54000000Y-63500000D03*
%TO.N,/STB2*%
X55000000Y-67500000D03*
%TO.N,/IN12*%
X56000000Y-63500000D03*
%TO.N,/IN22*%
X57000000Y-67500000D03*
%TO.N,/EL-2*%
X58000000Y-63500000D03*
%TO.N,GND*%
X59000000Y-67500000D03*
%TO.N,/EL-1*%
X60000000Y-63500000D03*
%TO.N,GND*%
X61000000Y-67500000D03*
%TO.N,/EL-2*%
X62000000Y-63500000D03*
%TO.N,GND*%
X63000000Y-67500000D03*
%TO.N,/EL-1*%
X64000000Y-63500000D03*
%TO.N,GND*%
X65000000Y-67500000D03*
X66000000Y-63500000D03*
X67000000Y-67500000D03*
%TO.N,+12V*%
X68000000Y-63500000D03*
%TO.N,GND*%
X69000000Y-67500000D03*
%TO.N,/PWM2*%
X70000000Y-63500000D03*
%TO.N,Net-(R10-Pad2)*%
X71000000Y-67500000D03*
%TO.N,Net-(C5-Pad2)*%
X72000000Y-63500000D03*
%TO.N,/A22*%
X73000000Y-67500000D03*
%TD*%
%TO.N,/A11*%
%TO.C,U3*%
X49000000Y-92000000D03*
%TO.N,GND*%
X50000000Y-88000000D03*
X51000000Y-92000000D03*
X52000000Y-88000000D03*
X53000000Y-92000000D03*
%TO.N,+12V*%
X54000000Y-88000000D03*
%TO.N,/STB1*%
X55000000Y-92000000D03*
%TO.N,/IN11*%
X56000000Y-88000000D03*
%TO.N,/IN21*%
X57000000Y-92000000D03*
%TO.N,/AZ-2*%
X58000000Y-88000000D03*
%TO.N,GND*%
X59000000Y-92000000D03*
%TO.N,/AZ-1*%
X60000000Y-88000000D03*
%TO.N,GND*%
X61000000Y-92000000D03*
%TO.N,/AZ-2*%
X62000000Y-88000000D03*
%TO.N,GND*%
X63000000Y-92000000D03*
%TO.N,/AZ-1*%
X64000000Y-88000000D03*
%TO.N,GND*%
X65000000Y-92000000D03*
X66000000Y-88000000D03*
X67000000Y-92000000D03*
%TO.N,+12V*%
X68000000Y-88000000D03*
%TO.N,GND*%
X69000000Y-92000000D03*
%TO.N,/PWM1*%
X70000000Y-88000000D03*
%TO.N,Net-(R9-Pad2)*%
X71000000Y-92000000D03*
%TO.N,Net-(C4-Pad2)*%
X72000000Y-88000000D03*
%TO.N,/A21*%
X73000000Y-92000000D03*
%TD*%
D14*
%TO.N,/EL-2*%
%TO.C,J6*%
X26700000Y-58460000D03*
D15*
%TO.N,/EL-1*%
X26700000Y-63540000D03*
%TD*%
D14*
%TO.N,/AZ-2*%
%TO.C,J5*%
X26700000Y-86460000D03*
D15*
%TO.N,/AZ-1*%
X26700000Y-91540000D03*
%TD*%
D16*
%TO.N,+5V*%
%TO.C,J4*%
X37000000Y-49500000D03*
D13*
%TO.N,/SDI_OUT*%
X34000000Y-49500000D03*
%TO.N,/SDO_IN1*%
X31000000Y-49500000D03*
%TO.N,/CLK_OUT*%
X28000000Y-49500000D03*
%TO.N,/~{CS}1_OUT*%
X37000000Y-46500000D03*
%TO.N,/EPWM1_IN*%
X34000000Y-46500000D03*
%TO.N,GND*%
X31000000Y-46500000D03*
X28000000Y-46500000D03*
%TD*%
D16*
%TO.N,+5V*%
%TO.C,J3*%
X37000000Y-104460000D03*
D13*
%TO.N,/SDI_OUT*%
X34000000Y-104460000D03*
%TO.N,/SDO_IN2*%
X31000000Y-104460000D03*
%TO.N,/CLK_OUT*%
X28000000Y-104460000D03*
%TO.N,/~{CS}2_OUT*%
X37000000Y-101460000D03*
%TO.N,/EPWM2_IN*%
X34000000Y-101460000D03*
%TO.N,GND*%
X31000000Y-101460000D03*
X28000000Y-101460000D03*
%TD*%
D14*
%TO.N,+5V*%
%TO.C,J2*%
X81000000Y-106000000D03*
D15*
%TO.N,GND*%
X81000000Y-100920000D03*
%TD*%
D14*
%TO.N,+12V*%
%TO.C,J1*%
X52300000Y-106545000D03*
D15*
%TO.N,GND*%
X52300000Y-101465000D03*
%TD*%
D17*
%TO.N,+12V*%
%TO.C,C3*%
X81000000Y-60347349D03*
D18*
%TO.N,GND*%
X81000000Y-63847349D03*
%TD*%
D17*
%TO.N,+5V*%
%TO.C,C2*%
X137000000Y-105652651D03*
D18*
%TO.N,GND*%
X137000000Y-102152651D03*
%TD*%
%TO.N,GND*%
%TO.C,C1*%
X81500000Y-88347349D03*
D17*
%TO.N,+12V*%
X81500000Y-84847349D03*
%TD*%
D19*
%TO.N,/SDI*%
%TO.C,TP3*%
X119500000Y-89770000D03*
X119500000Y-87230000D03*
%TD*%
%TO.N,/IN11*%
%TO.C,TP1*%
X41000000Y-96000000D03*
X38460000Y-96000000D03*
%TD*%
%TO.N,/CLK*%
%TO.C,TP5*%
X126500000Y-89770000D03*
X126500000Y-87230000D03*
%TD*%
%TO.N,/~{CS}1*%
%TO.C,TP8*%
X130000000Y-89770000D03*
X130000000Y-87230000D03*
%TD*%
%TO.N,/IN21*%
%TO.C,TP2*%
X57230000Y-96000000D03*
X59770000Y-96000000D03*
%TD*%
%TO.N,/SDO*%
%TO.C,TP4*%
X123000000Y-89770000D03*
X123000000Y-87230000D03*
%TD*%
%TO.N,/IN22*%
%TO.C,TP7*%
X64270000Y-49500000D03*
X61730000Y-49500000D03*
%TD*%
%TO.N,/IN12*%
%TO.C,TP6*%
X56270000Y-49500000D03*
X53730000Y-49500000D03*
%TD*%
%TO.N,/~{CS}2*%
%TO.C,TP9*%
X133500000Y-89770000D03*
X133500000Y-87230000D03*
%TD*%
D20*
%TO.N,/PWM1*%
X91500000Y-101500000D03*
X88000000Y-85500000D03*
%TO.N,+12V*%
X122500000Y-102000000D03*
%TO.N,/EPWM2*%
X132000000Y-57000000D03*
%TO.N,/EPWM1*%
X124500000Y-57500000D03*
%TO.N,+12V*%
X123500002Y-109000000D03*
%TO.N,GND*%
X138500000Y-81000000D03*
X133500000Y-80500000D03*
X131000000Y-79000000D03*
X126500000Y-76000000D03*
X139500000Y-84500000D03*
X146500000Y-82000000D03*
X101000000Y-54500000D03*
X106000000Y-58000000D03*
X112000000Y-63500000D03*
%TO.N,+5V*%
X145050000Y-71050000D03*
%TO.N,GND*%
X138000000Y-66500000D03*
%TO.N,+5V*%
X137500000Y-61000000D03*
X115000000Y-53000000D03*
X122000000Y-53000000D03*
X130500000Y-53000000D03*
X108000000Y-53000000D03*
%TO.N,/E_~{EN}*%
X140500000Y-68500000D03*
%TO.N,GND*%
X90780634Y-104459297D03*
%TO.N,/A21*%
X93500000Y-91000000D03*
%TO.N,/STB1*%
X105965686Y-99448522D03*
%TO.N,/A11*%
X139500000Y-99500000D03*
%TO.N,GND*%
X127065332Y-63065332D03*
%TO.N,/A22*%
X89500000Y-60500000D03*
%TO.N,GND*%
X90000000Y-57500000D03*
X87684667Y-60815333D03*
%TO.N,Net-(C5-Pad2)*%
X71500000Y-53600990D03*
%TO.N,GND*%
X75000000Y-53600990D03*
%TO.N,/A12*%
X96878053Y-51378053D03*
%TO.N,/STB2*%
X92000000Y-59500000D03*
%TO.N,/IN22*%
X95179745Y-54820255D03*
%TO.N,/IN12*%
X106500000Y-67500000D03*
%TO.N,/IN22*%
X125000000Y-67500000D03*
%TO.N,+3V3*%
X135700500Y-88091783D03*
X117498150Y-90875425D03*
%TO.N,/IN11*%
X48000000Y-95000000D03*
%TO.N,/CLK_OUT*%
X135500000Y-60000000D03*
%TO.N,/SDO_IN1*%
X144000000Y-65000000D03*
%TO.N,/SDO*%
X114500000Y-58000000D03*
X110000000Y-58000000D03*
%TO.N,+3V3*%
X107000000Y-54000000D03*
X96000000Y-58500000D03*
%TO.N,/SDO_IN2*%
X145000000Y-63000000D03*
%TO.N,GND*%
X137000000Y-63500000D03*
X147000000Y-70500000D03*
%TO.N,/EPWM2_IN*%
X148500000Y-64000000D03*
X101200500Y-69000000D03*
X135000000Y-70000000D03*
X34000000Y-54000000D03*
%TO.N,/SDI_OUT*%
X142000000Y-53500000D03*
X142524500Y-63500000D03*
%TO.N,Net-(D3-Pad2)*%
X28000000Y-51000000D03*
%TO.N,Net-(D4-Pad2)*%
X29565332Y-51434668D03*
%TO.N,GND*%
X28500000Y-74500000D03*
%TO.N,/~{CS}1_OUT*%
X144065332Y-53434668D03*
X143500000Y-63000000D03*
%TO.N,/SDO_IN2*%
X32152869Y-51600989D03*
%TO.N,GND*%
X78184667Y-83315333D03*
%TD*%
D21*
%TO.N,/A11*%
X106403452Y-100000000D02*
X136402293Y-100000000D01*
X106255430Y-100148022D02*
X106403452Y-100000000D01*
X105675942Y-100148022D02*
X106255430Y-100148022D01*
X102823964Y-103000000D02*
X105675942Y-100148022D01*
X59000000Y-103000000D02*
X102823964Y-103000000D01*
D22*
%TO.N,/A22*%
X89000479Y-96793154D02*
X89000479Y-60999521D01*
X89000479Y-60999521D02*
X89500000Y-60500000D01*
X90856347Y-98649022D02*
X89000479Y-96793154D01*
X143330978Y-98649022D02*
X90856347Y-98649022D01*
X145180000Y-96800000D02*
X143330978Y-98649022D01*
D21*
%TO.N,/A11*%
X139000000Y-100000000D02*
X139500000Y-99500000D01*
X136500000Y-100000000D02*
X139000000Y-100000000D01*
D22*
%TO.N,/A21*%
X95149531Y-98049511D02*
X95099521Y-97999501D01*
X138850489Y-95509511D02*
X138850489Y-97276587D01*
X138077565Y-98049511D02*
X95149531Y-98049511D01*
X138850489Y-97276587D02*
X138077565Y-98049511D01*
X140100000Y-94260000D02*
X138850489Y-95509511D01*
X95099521Y-97999501D02*
X95099521Y-92599521D01*
X95099521Y-92599521D02*
X93500000Y-91000000D01*
D21*
%TO.N,/STB1*%
X84600489Y-99600489D02*
X105813719Y-99600489D01*
X82500000Y-97500000D02*
X84600489Y-99600489D01*
X54250000Y-96750000D02*
X55000000Y-97500000D01*
X54250000Y-92750000D02*
X54250000Y-96750000D01*
X55000000Y-92000000D02*
X54250000Y-92750000D01*
X55000000Y-97500000D02*
X82500000Y-97500000D01*
X105813719Y-99600489D02*
X105965686Y-99448522D01*
D22*
%TO.N,/PWM2*%
X133729511Y-95509511D02*
X135020000Y-96800000D01*
X132000000Y-86500000D02*
X132000000Y-91500000D01*
X112000000Y-66500000D02*
X132000000Y-86500000D01*
X132000000Y-91500000D02*
X133729511Y-93229511D01*
X133729511Y-93229511D02*
X133729511Y-95509511D01*
X102000000Y-66500000D02*
X112000000Y-66500000D01*
D23*
%TO.N,+5V*%
X37460000Y-104000000D02*
X37000000Y-104460000D01*
X55000000Y-104000000D02*
X37460000Y-104000000D01*
X57000000Y-106000000D02*
X55000000Y-104000000D01*
X81000000Y-106000000D02*
X57000000Y-106000000D01*
D21*
%TO.N,/A11*%
X49000000Y-92000000D02*
X49000000Y-93060660D01*
X49000000Y-93060660D02*
X58939340Y-103000000D01*
D22*
%TO.N,+5V*%
X145050000Y-68050000D02*
X145050000Y-71050000D01*
X137500000Y-60500000D02*
X145050000Y-68050000D01*
X115000000Y-53000000D02*
X108000000Y-53000000D01*
X137500000Y-60500000D02*
X137500000Y-61000000D01*
X130000000Y-53000000D02*
X137500000Y-60500000D01*
X130000000Y-53000000D02*
X130500000Y-53000000D01*
X122000000Y-53000000D02*
X130000000Y-53000000D01*
X115000000Y-53000000D02*
X122000000Y-53000000D01*
%TO.N,/E_~{EN}*%
X141349511Y-95509511D02*
X142640000Y-96800000D01*
X141349511Y-69349511D02*
X141349511Y-95509511D01*
X140500000Y-68500000D02*
X141349511Y-69349511D01*
D21*
%TO.N,/PWM2*%
X70000000Y-53000000D02*
X70500000Y-52500000D01*
X70000000Y-63500000D02*
X70000000Y-53000000D01*
D22*
X88000000Y-52500000D02*
X70500000Y-52500000D01*
X102000000Y-66500000D02*
X88000000Y-52500000D01*
D21*
%TO.N,/IN11*%
X47000000Y-96000000D02*
X41000000Y-96000000D01*
X48000000Y-95000000D02*
X47000000Y-96000000D01*
%TD*%
%TA.AperFunction,Conductor*%
%TO.N,/AZ-1*%
G36*
X38039282Y-76020002D02*
G01*
X38085775Y-76073658D01*
X38089179Y-76081865D01*
X38090043Y-76084176D01*
X38091104Y-76087592D01*
X38232921Y-76409897D01*
X38410313Y-76714076D01*
X38620999Y-76996219D01*
X38623443Y-76998817D01*
X38623448Y-76998823D01*
X38859820Y-77250093D01*
X38862270Y-77252697D01*
X38864999Y-77255007D01*
X39054652Y-77415560D01*
X39131024Y-77480214D01*
X39423807Y-77675845D01*
X39426989Y-77677484D01*
X39426991Y-77677485D01*
X39733670Y-77835436D01*
X39733675Y-77835438D01*
X39736853Y-77837075D01*
X39740194Y-77838341D01*
X39740199Y-77838343D01*
X39971696Y-77926049D01*
X40066139Y-77961830D01*
X40069603Y-77962710D01*
X40069607Y-77962711D01*
X40403963Y-78047627D01*
X40403971Y-78047629D01*
X40407430Y-78048507D01*
X40579152Y-78071878D01*
X40753347Y-78095585D01*
X40753354Y-78095586D01*
X40756340Y-78095992D01*
X40871081Y-78100500D01*
X41089198Y-78100500D01*
X41230756Y-78092462D01*
X41347992Y-78085805D01*
X41347999Y-78085804D01*
X41351560Y-78085602D01*
X41489883Y-78061834D01*
X41695082Y-78026575D01*
X41695090Y-78026573D01*
X41698600Y-78025970D01*
X41702025Y-78024972D01*
X41702028Y-78024971D01*
X42033221Y-77928436D01*
X42036659Y-77927434D01*
X42361390Y-77791263D01*
X42564556Y-77677485D01*
X42665502Y-77620953D01*
X42665507Y-77620950D01*
X42668619Y-77619207D01*
X42671515Y-77617122D01*
X42671520Y-77617119D01*
X42818239Y-77511496D01*
X42954395Y-77413477D01*
X43128858Y-77255007D01*
X43212405Y-77179118D01*
X43212406Y-77179117D01*
X43215046Y-77176719D01*
X43447219Y-76911977D01*
X43647929Y-76622653D01*
X43814598Y-76312468D01*
X43815925Y-76309142D01*
X43907619Y-76079310D01*
X43951440Y-76023450D01*
X44024649Y-76000000D01*
X67874000Y-76000000D01*
X67942121Y-76020002D01*
X67988614Y-76073658D01*
X68000000Y-76126000D01*
X68000000Y-86621235D01*
X67979998Y-86689356D01*
X67926342Y-86735849D01*
X67884983Y-86746755D01*
X67780629Y-86755885D01*
X67567924Y-86812880D01*
X67474562Y-86856415D01*
X67373334Y-86903618D01*
X67373329Y-86903621D01*
X67368347Y-86905944D01*
X67363840Y-86909100D01*
X67363838Y-86909101D01*
X67192473Y-87029092D01*
X67192470Y-87029094D01*
X67187962Y-87032251D01*
X67089095Y-87131118D01*
X67026783Y-87165144D01*
X66955968Y-87160079D01*
X66910905Y-87131118D01*
X66812038Y-87032251D01*
X66631654Y-86905944D01*
X66432076Y-86812880D01*
X66219371Y-86755885D01*
X66000000Y-86736693D01*
X65780629Y-86755885D01*
X65567924Y-86812880D01*
X65474562Y-86856415D01*
X65373334Y-86903618D01*
X65373329Y-86903621D01*
X65368347Y-86905944D01*
X65363840Y-86909100D01*
X65363838Y-86909101D01*
X65192473Y-87029092D01*
X65192470Y-87029094D01*
X65187962Y-87032251D01*
X65032251Y-87187962D01*
X64905944Y-87368347D01*
X64903621Y-87373329D01*
X64903618Y-87373334D01*
X64856415Y-87474562D01*
X64812880Y-87567924D01*
X64755885Y-87780629D01*
X64736693Y-88000000D01*
X64755885Y-88219371D01*
X64812880Y-88432076D01*
X64815205Y-88437061D01*
X64903618Y-88626666D01*
X64903621Y-88626671D01*
X64905944Y-88631653D01*
X65032251Y-88812038D01*
X65187962Y-88967749D01*
X65368346Y-89094056D01*
X65567924Y-89187120D01*
X65780629Y-89244115D01*
X66000000Y-89263307D01*
X66219371Y-89244115D01*
X66432076Y-89187120D01*
X66631654Y-89094056D01*
X66812038Y-88967749D01*
X66910905Y-88868882D01*
X66973217Y-88834856D01*
X67044032Y-88839921D01*
X67089095Y-88868882D01*
X67187962Y-88967749D01*
X67368346Y-89094056D01*
X67567924Y-89187120D01*
X67780629Y-89244115D01*
X67884982Y-89253245D01*
X67951099Y-89279107D01*
X67992739Y-89336610D01*
X68000000Y-89378765D01*
X68000000Y-90921820D01*
X67979998Y-90989941D01*
X67926342Y-91036434D01*
X67856068Y-91046538D01*
X67801731Y-91025034D01*
X67631654Y-90905944D01*
X67432076Y-90812880D01*
X67219371Y-90755885D01*
X67000000Y-90736693D01*
X66780629Y-90755885D01*
X66567924Y-90812880D01*
X66474562Y-90856415D01*
X66373334Y-90903618D01*
X66373329Y-90903621D01*
X66368347Y-90905944D01*
X66363840Y-90909100D01*
X66363838Y-90909101D01*
X66192473Y-91029092D01*
X66192470Y-91029094D01*
X66187962Y-91032251D01*
X66089095Y-91131118D01*
X66026783Y-91165144D01*
X65955968Y-91160079D01*
X65910905Y-91131118D01*
X65812038Y-91032251D01*
X65751614Y-90989941D01*
X65654327Y-90921820D01*
X65631654Y-90905944D01*
X65432076Y-90812880D01*
X65219371Y-90755885D01*
X65000000Y-90736693D01*
X64780629Y-90755885D01*
X64567924Y-90812880D01*
X64474562Y-90856415D01*
X64373334Y-90903618D01*
X64373329Y-90903621D01*
X64368347Y-90905944D01*
X64363840Y-90909100D01*
X64363838Y-90909101D01*
X64192473Y-91029092D01*
X64192470Y-91029094D01*
X64187962Y-91032251D01*
X64089095Y-91131118D01*
X64026783Y-91165144D01*
X63955968Y-91160079D01*
X63910905Y-91131118D01*
X63812038Y-91032251D01*
X63751614Y-90989941D01*
X63654327Y-90921820D01*
X63631654Y-90905944D01*
X63432076Y-90812880D01*
X63219371Y-90755885D01*
X63000000Y-90736693D01*
X62780629Y-90755885D01*
X62567924Y-90812880D01*
X62474562Y-90856415D01*
X62373334Y-90903618D01*
X62373329Y-90903621D01*
X62368347Y-90905944D01*
X62363840Y-90909100D01*
X62363838Y-90909101D01*
X62192473Y-91029092D01*
X62192470Y-91029094D01*
X62187962Y-91032251D01*
X62089095Y-91131118D01*
X62026783Y-91165144D01*
X61955968Y-91160079D01*
X61910905Y-91131118D01*
X61812038Y-91032251D01*
X61751614Y-90989941D01*
X61654327Y-90921820D01*
X61631654Y-90905944D01*
X61432076Y-90812880D01*
X61219371Y-90755885D01*
X61000000Y-90736693D01*
X60780629Y-90755885D01*
X60567924Y-90812880D01*
X60474562Y-90856415D01*
X60373334Y-90903618D01*
X60373329Y-90903621D01*
X60368347Y-90905944D01*
X60363840Y-90909100D01*
X60363838Y-90909101D01*
X60192473Y-91029092D01*
X60192470Y-91029094D01*
X60187962Y-91032251D01*
X60089095Y-91131118D01*
X60026783Y-91165144D01*
X59955968Y-91160079D01*
X59910905Y-91131118D01*
X59812038Y-91032251D01*
X59751614Y-90989941D01*
X59654327Y-90921820D01*
X59631654Y-90905944D01*
X59432076Y-90812880D01*
X59219371Y-90755885D01*
X59000000Y-90736693D01*
X58780629Y-90755885D01*
X58567924Y-90812880D01*
X58474562Y-90856415D01*
X58373334Y-90903618D01*
X58373329Y-90903621D01*
X58368347Y-90905944D01*
X58363840Y-90909100D01*
X58363838Y-90909101D01*
X58192473Y-91029092D01*
X58192470Y-91029094D01*
X58187962Y-91032251D01*
X58089095Y-91131118D01*
X58026783Y-91165144D01*
X57955968Y-91160079D01*
X57910905Y-91131118D01*
X57812038Y-91032251D01*
X57751614Y-90989941D01*
X57654327Y-90921820D01*
X57631654Y-90905944D01*
X57432076Y-90812880D01*
X57219371Y-90755885D01*
X57000000Y-90736693D01*
X56780629Y-90755885D01*
X56567924Y-90812880D01*
X56474562Y-90856415D01*
X56373334Y-90903618D01*
X56373329Y-90903621D01*
X56368347Y-90905944D01*
X56363840Y-90909100D01*
X56363838Y-90909101D01*
X56192473Y-91029092D01*
X56192470Y-91029094D01*
X56187962Y-91032251D01*
X56089095Y-91131118D01*
X56026783Y-91165144D01*
X55955968Y-91160079D01*
X55910905Y-91131118D01*
X55812038Y-91032251D01*
X55751614Y-90989941D01*
X55654327Y-90921820D01*
X55631654Y-90905944D01*
X55432076Y-90812880D01*
X55219371Y-90755885D01*
X55000000Y-90736693D01*
X54780629Y-90755885D01*
X54567924Y-90812880D01*
X54474562Y-90856415D01*
X54373334Y-90903618D01*
X54373329Y-90903621D01*
X54368347Y-90905944D01*
X54363840Y-90909100D01*
X54363838Y-90909101D01*
X54192473Y-91029092D01*
X54192470Y-91029094D01*
X54187962Y-91032251D01*
X54089095Y-91131118D01*
X54026783Y-91165144D01*
X53955968Y-91160079D01*
X53910905Y-91131118D01*
X53812038Y-91032251D01*
X53751614Y-90989941D01*
X53654327Y-90921820D01*
X53631654Y-90905944D01*
X53432076Y-90812880D01*
X53219371Y-90755885D01*
X53000000Y-90736693D01*
X52780629Y-90755885D01*
X52567924Y-90812880D01*
X52474562Y-90856415D01*
X52373334Y-90903618D01*
X52373329Y-90903621D01*
X52368347Y-90905944D01*
X52363840Y-90909100D01*
X52363838Y-90909101D01*
X52192473Y-91029092D01*
X52192470Y-91029094D01*
X52187962Y-91032251D01*
X52089095Y-91131118D01*
X52026783Y-91165144D01*
X51955968Y-91160079D01*
X51910905Y-91131118D01*
X51812038Y-91032251D01*
X51751614Y-90989941D01*
X51654327Y-90921820D01*
X51631654Y-90905944D01*
X51432076Y-90812880D01*
X51219371Y-90755885D01*
X51000000Y-90736693D01*
X50780629Y-90755885D01*
X50567924Y-90812880D01*
X50474562Y-90856415D01*
X50373334Y-90903618D01*
X50373329Y-90903621D01*
X50368347Y-90905944D01*
X50363840Y-90909100D01*
X50363838Y-90909101D01*
X50192473Y-91029092D01*
X50192470Y-91029094D01*
X50187962Y-91032251D01*
X50089095Y-91131118D01*
X50026783Y-91165144D01*
X49955968Y-91160079D01*
X49910905Y-91131118D01*
X49812038Y-91032251D01*
X49751614Y-90989941D01*
X49654327Y-90921820D01*
X49631654Y-90905944D01*
X49432076Y-90812880D01*
X49219371Y-90755885D01*
X49000000Y-90736693D01*
X48780629Y-90755885D01*
X48567924Y-90812880D01*
X48474562Y-90856415D01*
X48373334Y-90903618D01*
X48373329Y-90903621D01*
X48368347Y-90905944D01*
X48363840Y-90909100D01*
X48363838Y-90909101D01*
X48192473Y-91029092D01*
X48192470Y-91029094D01*
X48187962Y-91032251D01*
X48032251Y-91187962D01*
X47905944Y-91368347D01*
X47903621Y-91373329D01*
X47903618Y-91373334D01*
X47856415Y-91474562D01*
X47812880Y-91567924D01*
X47755885Y-91780629D01*
X47736693Y-92000000D01*
X47755885Y-92219371D01*
X47812880Y-92432076D01*
X47815205Y-92437061D01*
X47903618Y-92626666D01*
X47903621Y-92626671D01*
X47905944Y-92631653D01*
X48032251Y-92812038D01*
X48187962Y-92967749D01*
X48192471Y-92970906D01*
X48192473Y-92970908D01*
X48347495Y-93079456D01*
X48391823Y-93134913D01*
X48400146Y-93166220D01*
X48402485Y-93183987D01*
X48407162Y-93219511D01*
X48468476Y-93367536D01*
X48473503Y-93374087D01*
X48473504Y-93374089D01*
X48541520Y-93462729D01*
X48541526Y-93462735D01*
X48566013Y-93494647D01*
X48572568Y-93499677D01*
X48591379Y-93514112D01*
X48603770Y-93524979D01*
X48863696Y-93784905D01*
X48897722Y-93847217D01*
X48892657Y-93918032D01*
X48850110Y-93974868D01*
X48783590Y-93999679D01*
X48774601Y-94000000D01*
X21626000Y-94000000D01*
X21557879Y-93979998D01*
X21511386Y-93926342D01*
X21500000Y-93874000D01*
X21500000Y-87808134D01*
X24891500Y-87808134D01*
X24898255Y-87870316D01*
X24949385Y-88006705D01*
X25036739Y-88123261D01*
X25153295Y-88210615D01*
X25289684Y-88261745D01*
X25351866Y-88268500D01*
X28048134Y-88268500D01*
X28110316Y-88261745D01*
X28246705Y-88210615D01*
X28363261Y-88123261D01*
X28450615Y-88006705D01*
X28453129Y-88000000D01*
X48736693Y-88000000D01*
X48755885Y-88219371D01*
X48812880Y-88432076D01*
X48815205Y-88437061D01*
X48903618Y-88626666D01*
X48903621Y-88626671D01*
X48905944Y-88631653D01*
X49032251Y-88812038D01*
X49187962Y-88967749D01*
X49368346Y-89094056D01*
X49567924Y-89187120D01*
X49780629Y-89244115D01*
X50000000Y-89263307D01*
X50219371Y-89244115D01*
X50432076Y-89187120D01*
X50631654Y-89094056D01*
X50812038Y-88967749D01*
X50910905Y-88868882D01*
X50973217Y-88834856D01*
X51044032Y-88839921D01*
X51089095Y-88868882D01*
X51187962Y-88967749D01*
X51368346Y-89094056D01*
X51567924Y-89187120D01*
X51780629Y-89244115D01*
X52000000Y-89263307D01*
X52219371Y-89244115D01*
X52432076Y-89187120D01*
X52631654Y-89094056D01*
X52812038Y-88967749D01*
X52910905Y-88868882D01*
X52973217Y-88834856D01*
X53044032Y-88839921D01*
X53089095Y-88868882D01*
X53187962Y-88967749D01*
X53368346Y-89094056D01*
X53567924Y-89187120D01*
X53780629Y-89244115D01*
X54000000Y-89263307D01*
X54219371Y-89244115D01*
X54432076Y-89187120D01*
X54631654Y-89094056D01*
X54812038Y-88967749D01*
X54910905Y-88868882D01*
X54973217Y-88834856D01*
X55044032Y-88839921D01*
X55089095Y-88868882D01*
X55187962Y-88967749D01*
X55368346Y-89094056D01*
X55567924Y-89187120D01*
X55780629Y-89244115D01*
X56000000Y-89263307D01*
X56219371Y-89244115D01*
X56432076Y-89187120D01*
X56631654Y-89094056D01*
X56812038Y-88967749D01*
X56910905Y-88868882D01*
X56973217Y-88834856D01*
X57044032Y-88839921D01*
X57089095Y-88868882D01*
X57187962Y-88967749D01*
X57368346Y-89094056D01*
X57567924Y-89187120D01*
X57780629Y-89244115D01*
X58000000Y-89263307D01*
X58219371Y-89244115D01*
X58432076Y-89187120D01*
X58631654Y-89094056D01*
X58812038Y-88967749D01*
X58967749Y-88812038D01*
X59094056Y-88631653D01*
X59096379Y-88626671D01*
X59096382Y-88626666D01*
X59184795Y-88437061D01*
X59187120Y-88432076D01*
X59244115Y-88219371D01*
X59263307Y-88000000D01*
X60736693Y-88000000D01*
X60755885Y-88219371D01*
X60812880Y-88432076D01*
X60815205Y-88437061D01*
X60903618Y-88626666D01*
X60903621Y-88626671D01*
X60905944Y-88631653D01*
X61032251Y-88812038D01*
X61187962Y-88967749D01*
X61368346Y-89094056D01*
X61567924Y-89187120D01*
X61780629Y-89244115D01*
X62000000Y-89263307D01*
X62219371Y-89244115D01*
X62432076Y-89187120D01*
X62631654Y-89094056D01*
X62812038Y-88967749D01*
X62967749Y-88812038D01*
X63094056Y-88631653D01*
X63096379Y-88626671D01*
X63096382Y-88626666D01*
X63184795Y-88437061D01*
X63187120Y-88432076D01*
X63244115Y-88219371D01*
X63263307Y-88000000D01*
X63244115Y-87780629D01*
X63187120Y-87567924D01*
X63143585Y-87474562D01*
X63096382Y-87373334D01*
X63096379Y-87373329D01*
X63094056Y-87368347D01*
X62967749Y-87187962D01*
X62812038Y-87032251D01*
X62631654Y-86905944D01*
X62432076Y-86812880D01*
X62219371Y-86755885D01*
X62000000Y-86736693D01*
X61780629Y-86755885D01*
X61567924Y-86812880D01*
X61474562Y-86856415D01*
X61373334Y-86903618D01*
X61373329Y-86903621D01*
X61368347Y-86905944D01*
X61363840Y-86909100D01*
X61363838Y-86909101D01*
X61192473Y-87029092D01*
X61192470Y-87029094D01*
X61187962Y-87032251D01*
X61032251Y-87187962D01*
X60905944Y-87368347D01*
X60903621Y-87373329D01*
X60903618Y-87373334D01*
X60856415Y-87474562D01*
X60812880Y-87567924D01*
X60755885Y-87780629D01*
X60736693Y-88000000D01*
X59263307Y-88000000D01*
X59244115Y-87780629D01*
X59187120Y-87567924D01*
X59143585Y-87474562D01*
X59096382Y-87373334D01*
X59096379Y-87373329D01*
X59094056Y-87368347D01*
X58967749Y-87187962D01*
X58812038Y-87032251D01*
X58631654Y-86905944D01*
X58432076Y-86812880D01*
X58219371Y-86755885D01*
X58000000Y-86736693D01*
X57780629Y-86755885D01*
X57567924Y-86812880D01*
X57474562Y-86856415D01*
X57373334Y-86903618D01*
X57373329Y-86903621D01*
X57368347Y-86905944D01*
X57363840Y-86909100D01*
X57363838Y-86909101D01*
X57192473Y-87029092D01*
X57192470Y-87029094D01*
X57187962Y-87032251D01*
X57089095Y-87131118D01*
X57026783Y-87165144D01*
X56955968Y-87160079D01*
X56910905Y-87131118D01*
X56812038Y-87032251D01*
X56631654Y-86905944D01*
X56432076Y-86812880D01*
X56219371Y-86755885D01*
X56000000Y-86736693D01*
X55780629Y-86755885D01*
X55567924Y-86812880D01*
X55474562Y-86856415D01*
X55373334Y-86903618D01*
X55373329Y-86903621D01*
X55368347Y-86905944D01*
X55363840Y-86909100D01*
X55363838Y-86909101D01*
X55192473Y-87029092D01*
X55192470Y-87029094D01*
X55187962Y-87032251D01*
X55089095Y-87131118D01*
X55026783Y-87165144D01*
X54955968Y-87160079D01*
X54910905Y-87131118D01*
X54812038Y-87032251D01*
X54631654Y-86905944D01*
X54432076Y-86812880D01*
X54219371Y-86755885D01*
X54000000Y-86736693D01*
X53780629Y-86755885D01*
X53567924Y-86812880D01*
X53474562Y-86856415D01*
X53373334Y-86903618D01*
X53373329Y-86903621D01*
X53368347Y-86905944D01*
X53363840Y-86909100D01*
X53363838Y-86909101D01*
X53192473Y-87029092D01*
X53192470Y-87029094D01*
X53187962Y-87032251D01*
X53089095Y-87131118D01*
X53026783Y-87165144D01*
X52955968Y-87160079D01*
X52910905Y-87131118D01*
X52812038Y-87032251D01*
X52631654Y-86905944D01*
X52432076Y-86812880D01*
X52219371Y-86755885D01*
X52000000Y-86736693D01*
X51780629Y-86755885D01*
X51567924Y-86812880D01*
X51474562Y-86856415D01*
X51373334Y-86903618D01*
X51373329Y-86903621D01*
X51368347Y-86905944D01*
X51363840Y-86909100D01*
X51363838Y-86909101D01*
X51192473Y-87029092D01*
X51192470Y-87029094D01*
X51187962Y-87032251D01*
X51089095Y-87131118D01*
X51026783Y-87165144D01*
X50955968Y-87160079D01*
X50910905Y-87131118D01*
X50812038Y-87032251D01*
X50631654Y-86905944D01*
X50432076Y-86812880D01*
X50219371Y-86755885D01*
X50000000Y-86736693D01*
X49780629Y-86755885D01*
X49567924Y-86812880D01*
X49474562Y-86856415D01*
X49373334Y-86903618D01*
X49373329Y-86903621D01*
X49368347Y-86905944D01*
X49363840Y-86909100D01*
X49363838Y-86909101D01*
X49192473Y-87029092D01*
X49192470Y-87029094D01*
X49187962Y-87032251D01*
X49032251Y-87187962D01*
X48905944Y-87368347D01*
X48903621Y-87373329D01*
X48903618Y-87373334D01*
X48856415Y-87474562D01*
X48812880Y-87567924D01*
X48755885Y-87780629D01*
X48736693Y-88000000D01*
X28453129Y-88000000D01*
X28501745Y-87870316D01*
X28508500Y-87808134D01*
X28508500Y-85111866D01*
X28501745Y-85049684D01*
X28450615Y-84913295D01*
X28363261Y-84796739D01*
X28246705Y-84709385D01*
X28110316Y-84658255D01*
X28048134Y-84651500D01*
X25351866Y-84651500D01*
X25289684Y-84658255D01*
X25153295Y-84709385D01*
X25036739Y-84796739D01*
X24949385Y-84913295D01*
X24898255Y-85049684D01*
X24891500Y-85111866D01*
X24891500Y-87808134D01*
X21500000Y-87808134D01*
X21500000Y-76126000D01*
X21520002Y-76057879D01*
X21573658Y-76011386D01*
X21626000Y-76000000D01*
X37971161Y-76000000D01*
X38039282Y-76020002D01*
G37*
%TD.AperFunction*%
%TD*%
%TA.AperFunction,Conductor*%
%TO.N,/EL-1*%
G36*
X67942121Y-56020002D02*
G01*
X67988614Y-56073658D01*
X68000000Y-56126000D01*
X68000000Y-62121235D01*
X67979998Y-62189356D01*
X67926342Y-62235849D01*
X67884983Y-62246755D01*
X67780629Y-62255885D01*
X67567924Y-62312880D01*
X67474562Y-62356415D01*
X67373334Y-62403618D01*
X67373329Y-62403621D01*
X67368347Y-62405944D01*
X67363840Y-62409100D01*
X67363838Y-62409101D01*
X67192473Y-62529092D01*
X67192470Y-62529094D01*
X67187962Y-62532251D01*
X67089095Y-62631118D01*
X67026783Y-62665144D01*
X66955968Y-62660079D01*
X66910905Y-62631118D01*
X66812038Y-62532251D01*
X66631654Y-62405944D01*
X66432076Y-62312880D01*
X66219371Y-62255885D01*
X66000000Y-62236693D01*
X65780629Y-62255885D01*
X65567924Y-62312880D01*
X65474562Y-62356415D01*
X65373334Y-62403618D01*
X65373329Y-62403621D01*
X65368347Y-62405944D01*
X65363840Y-62409100D01*
X65363838Y-62409101D01*
X65192473Y-62529092D01*
X65192470Y-62529094D01*
X65187962Y-62532251D01*
X65032251Y-62687962D01*
X64905944Y-62868347D01*
X64903621Y-62873329D01*
X64903618Y-62873334D01*
X64856415Y-62974562D01*
X64812880Y-63067924D01*
X64755885Y-63280629D01*
X64736693Y-63500000D01*
X64755885Y-63719371D01*
X64812880Y-63932076D01*
X64815205Y-63937061D01*
X64903618Y-64126666D01*
X64903621Y-64126671D01*
X64905944Y-64131653D01*
X65032251Y-64312038D01*
X65187962Y-64467749D01*
X65368346Y-64594056D01*
X65567924Y-64687120D01*
X65780629Y-64744115D01*
X66000000Y-64763307D01*
X66219371Y-64744115D01*
X66432076Y-64687120D01*
X66631654Y-64594056D01*
X66812038Y-64467749D01*
X66910905Y-64368882D01*
X66973217Y-64334856D01*
X67044032Y-64339921D01*
X67089095Y-64368882D01*
X67187962Y-64467749D01*
X67368346Y-64594056D01*
X67567924Y-64687120D01*
X67780629Y-64744115D01*
X67884982Y-64753245D01*
X67951099Y-64779107D01*
X67992739Y-64836610D01*
X68000000Y-64878765D01*
X68000000Y-66421820D01*
X67979998Y-66489941D01*
X67926342Y-66536434D01*
X67856068Y-66546538D01*
X67801731Y-66525034D01*
X67631654Y-66405944D01*
X67432076Y-66312880D01*
X67219371Y-66255885D01*
X67000000Y-66236693D01*
X66780629Y-66255885D01*
X66567924Y-66312880D01*
X66474562Y-66356415D01*
X66373334Y-66403618D01*
X66373329Y-66403621D01*
X66368347Y-66405944D01*
X66363840Y-66409100D01*
X66363838Y-66409101D01*
X66192473Y-66529092D01*
X66192470Y-66529094D01*
X66187962Y-66532251D01*
X66089095Y-66631118D01*
X66026783Y-66665144D01*
X65955968Y-66660079D01*
X65910905Y-66631118D01*
X65812038Y-66532251D01*
X65751614Y-66489941D01*
X65654327Y-66421820D01*
X65631654Y-66405944D01*
X65432076Y-66312880D01*
X65219371Y-66255885D01*
X65000000Y-66236693D01*
X64780629Y-66255885D01*
X64567924Y-66312880D01*
X64474562Y-66356415D01*
X64373334Y-66403618D01*
X64373329Y-66403621D01*
X64368347Y-66405944D01*
X64363840Y-66409100D01*
X64363838Y-66409101D01*
X64192473Y-66529092D01*
X64192470Y-66529094D01*
X64187962Y-66532251D01*
X64089095Y-66631118D01*
X64026783Y-66665144D01*
X63955968Y-66660079D01*
X63910905Y-66631118D01*
X63812038Y-66532251D01*
X63751614Y-66489941D01*
X63654327Y-66421820D01*
X63631654Y-66405944D01*
X63432076Y-66312880D01*
X63219371Y-66255885D01*
X63000000Y-66236693D01*
X62780629Y-66255885D01*
X62567924Y-66312880D01*
X62474562Y-66356415D01*
X62373334Y-66403618D01*
X62373329Y-66403621D01*
X62368347Y-66405944D01*
X62363840Y-66409100D01*
X62363838Y-66409101D01*
X62192473Y-66529092D01*
X62192470Y-66529094D01*
X62187962Y-66532251D01*
X62089095Y-66631118D01*
X62026783Y-66665144D01*
X61955968Y-66660079D01*
X61910905Y-66631118D01*
X61812038Y-66532251D01*
X61751614Y-66489941D01*
X61654327Y-66421820D01*
X61631654Y-66405944D01*
X61432076Y-66312880D01*
X61219371Y-66255885D01*
X61000000Y-66236693D01*
X60780629Y-66255885D01*
X60567924Y-66312880D01*
X60474562Y-66356415D01*
X60373334Y-66403618D01*
X60373329Y-66403621D01*
X60368347Y-66405944D01*
X60363840Y-66409100D01*
X60363838Y-66409101D01*
X60192473Y-66529092D01*
X60192470Y-66529094D01*
X60187962Y-66532251D01*
X60089095Y-66631118D01*
X60026783Y-66665144D01*
X59955968Y-66660079D01*
X59910905Y-66631118D01*
X59812038Y-66532251D01*
X59751614Y-66489941D01*
X59654327Y-66421820D01*
X59631654Y-66405944D01*
X59432076Y-66312880D01*
X59219371Y-66255885D01*
X59000000Y-66236693D01*
X58780629Y-66255885D01*
X58567924Y-66312880D01*
X58474562Y-66356415D01*
X58373334Y-66403618D01*
X58373329Y-66403621D01*
X58368347Y-66405944D01*
X58363840Y-66409100D01*
X58363838Y-66409101D01*
X58192473Y-66529092D01*
X58192470Y-66529094D01*
X58187962Y-66532251D01*
X58089095Y-66631118D01*
X58026783Y-66665144D01*
X57955968Y-66660079D01*
X57910905Y-66631118D01*
X57812038Y-66532251D01*
X57751614Y-66489941D01*
X57654327Y-66421820D01*
X57631654Y-66405944D01*
X57432076Y-66312880D01*
X57219371Y-66255885D01*
X57000000Y-66236693D01*
X56780629Y-66255885D01*
X56567924Y-66312880D01*
X56474562Y-66356415D01*
X56373334Y-66403618D01*
X56373329Y-66403621D01*
X56368347Y-66405944D01*
X56363840Y-66409100D01*
X56363838Y-66409101D01*
X56192473Y-66529092D01*
X56192470Y-66529094D01*
X56187962Y-66532251D01*
X56089095Y-66631118D01*
X56026783Y-66665144D01*
X55955968Y-66660079D01*
X55910905Y-66631118D01*
X55812038Y-66532251D01*
X55751614Y-66489941D01*
X55654327Y-66421820D01*
X55631654Y-66405944D01*
X55432076Y-66312880D01*
X55219371Y-66255885D01*
X55000000Y-66236693D01*
X54780629Y-66255885D01*
X54567924Y-66312880D01*
X54474562Y-66356415D01*
X54373334Y-66403618D01*
X54373329Y-66403621D01*
X54368347Y-66405944D01*
X54363840Y-66409100D01*
X54363838Y-66409101D01*
X54192473Y-66529092D01*
X54192470Y-66529094D01*
X54187962Y-66532251D01*
X54089095Y-66631118D01*
X54026783Y-66665144D01*
X53955968Y-66660079D01*
X53910905Y-66631118D01*
X53812038Y-66532251D01*
X53751614Y-66489941D01*
X53654327Y-66421820D01*
X53631654Y-66405944D01*
X53432076Y-66312880D01*
X53219371Y-66255885D01*
X53000000Y-66236693D01*
X52780629Y-66255885D01*
X52567924Y-66312880D01*
X52474562Y-66356415D01*
X52373334Y-66403618D01*
X52373329Y-66403621D01*
X52368347Y-66405944D01*
X52363840Y-66409100D01*
X52363838Y-66409101D01*
X52192473Y-66529092D01*
X52192470Y-66529094D01*
X52187962Y-66532251D01*
X52089095Y-66631118D01*
X52026783Y-66665144D01*
X51955968Y-66660079D01*
X51910905Y-66631118D01*
X51812038Y-66532251D01*
X51751614Y-66489941D01*
X51654327Y-66421820D01*
X51631654Y-66405944D01*
X51432076Y-66312880D01*
X51219371Y-66255885D01*
X51000000Y-66236693D01*
X50780629Y-66255885D01*
X50567924Y-66312880D01*
X50474562Y-66356415D01*
X50373334Y-66403618D01*
X50373329Y-66403621D01*
X50368347Y-66405944D01*
X50363840Y-66409100D01*
X50363838Y-66409101D01*
X50192473Y-66529092D01*
X50192470Y-66529094D01*
X50187962Y-66532251D01*
X50089095Y-66631118D01*
X50026783Y-66665144D01*
X49955968Y-66660079D01*
X49910905Y-66631118D01*
X49812038Y-66532251D01*
X49751614Y-66489941D01*
X49654327Y-66421820D01*
X49631654Y-66405944D01*
X49432076Y-66312880D01*
X49219371Y-66255885D01*
X49000000Y-66236693D01*
X48780629Y-66255885D01*
X48567924Y-66312880D01*
X48474562Y-66356415D01*
X48373334Y-66403618D01*
X48373329Y-66403621D01*
X48368347Y-66405944D01*
X48363840Y-66409100D01*
X48363838Y-66409101D01*
X48192473Y-66529092D01*
X48192470Y-66529094D01*
X48187962Y-66532251D01*
X48032251Y-66687962D01*
X47905944Y-66868347D01*
X47903621Y-66873329D01*
X47903618Y-66873334D01*
X47856415Y-66974562D01*
X47812880Y-67067924D01*
X47755885Y-67280629D01*
X47736693Y-67500000D01*
X47755885Y-67719371D01*
X47812880Y-67932076D01*
X47815205Y-67937061D01*
X47903618Y-68126666D01*
X47903621Y-68126671D01*
X47905944Y-68131653D01*
X48032251Y-68312038D01*
X48187962Y-68467749D01*
X48368346Y-68594056D01*
X48567924Y-68687120D01*
X48780629Y-68744115D01*
X49000000Y-68763307D01*
X49219371Y-68744115D01*
X49432076Y-68687120D01*
X49631654Y-68594056D01*
X49812038Y-68467749D01*
X49910905Y-68368882D01*
X49973217Y-68334856D01*
X50044032Y-68339921D01*
X50089095Y-68368882D01*
X50187962Y-68467749D01*
X50368346Y-68594056D01*
X50567924Y-68687120D01*
X50780629Y-68744115D01*
X51000000Y-68763307D01*
X51219371Y-68744115D01*
X51432076Y-68687120D01*
X51631654Y-68594056D01*
X51812038Y-68467749D01*
X51910905Y-68368882D01*
X51973217Y-68334856D01*
X52044032Y-68339921D01*
X52089095Y-68368882D01*
X52187962Y-68467749D01*
X52368346Y-68594056D01*
X52567924Y-68687120D01*
X52780629Y-68744115D01*
X53000000Y-68763307D01*
X53219371Y-68744115D01*
X53432076Y-68687120D01*
X53631654Y-68594056D01*
X53812038Y-68467749D01*
X53910905Y-68368882D01*
X53973217Y-68334856D01*
X54044032Y-68339921D01*
X54089095Y-68368882D01*
X54187962Y-68467749D01*
X54368346Y-68594056D01*
X54567924Y-68687120D01*
X54780629Y-68744115D01*
X55000000Y-68763307D01*
X55219371Y-68744115D01*
X55432076Y-68687120D01*
X55631654Y-68594056D01*
X55812038Y-68467749D01*
X55910905Y-68368882D01*
X55973217Y-68334856D01*
X56044032Y-68339921D01*
X56089095Y-68368882D01*
X56187962Y-68467749D01*
X56368346Y-68594056D01*
X56567924Y-68687120D01*
X56780629Y-68744115D01*
X57000000Y-68763307D01*
X57219371Y-68744115D01*
X57432076Y-68687120D01*
X57631654Y-68594056D01*
X57812038Y-68467749D01*
X57910905Y-68368882D01*
X57973217Y-68334856D01*
X58044032Y-68339921D01*
X58089095Y-68368882D01*
X58187962Y-68467749D01*
X58368346Y-68594056D01*
X58567924Y-68687120D01*
X58780629Y-68744115D01*
X59000000Y-68763307D01*
X59219371Y-68744115D01*
X59432076Y-68687120D01*
X59631654Y-68594056D01*
X59812038Y-68467749D01*
X59910905Y-68368882D01*
X59973217Y-68334856D01*
X60044032Y-68339921D01*
X60089095Y-68368882D01*
X60187962Y-68467749D01*
X60368346Y-68594056D01*
X60567924Y-68687120D01*
X60780629Y-68744115D01*
X61000000Y-68763307D01*
X61219371Y-68744115D01*
X61432076Y-68687120D01*
X61631654Y-68594056D01*
X61812038Y-68467749D01*
X61910905Y-68368882D01*
X61973217Y-68334856D01*
X62044032Y-68339921D01*
X62089095Y-68368882D01*
X62187962Y-68467749D01*
X62368346Y-68594056D01*
X62567924Y-68687120D01*
X62780629Y-68744115D01*
X63000000Y-68763307D01*
X63219371Y-68744115D01*
X63432076Y-68687120D01*
X63631654Y-68594056D01*
X63812038Y-68467749D01*
X63910905Y-68368882D01*
X63973217Y-68334856D01*
X64044032Y-68339921D01*
X64089095Y-68368882D01*
X64187962Y-68467749D01*
X64368346Y-68594056D01*
X64567924Y-68687120D01*
X64780629Y-68744115D01*
X65000000Y-68763307D01*
X65219371Y-68744115D01*
X65432076Y-68687120D01*
X65631654Y-68594056D01*
X65812038Y-68467749D01*
X65910905Y-68368882D01*
X65973217Y-68334856D01*
X66044032Y-68339921D01*
X66089095Y-68368882D01*
X66187962Y-68467749D01*
X66368346Y-68594056D01*
X66567924Y-68687120D01*
X66780629Y-68744115D01*
X67000000Y-68763307D01*
X67219371Y-68744115D01*
X67432076Y-68687120D01*
X67631654Y-68594056D01*
X67801730Y-68474967D01*
X67869003Y-68452279D01*
X67937863Y-68469564D01*
X67986448Y-68521333D01*
X68000000Y-68578180D01*
X68000000Y-73874000D01*
X67979998Y-73942121D01*
X67926342Y-73988614D01*
X67874000Y-74000000D01*
X44028839Y-74000000D01*
X43960718Y-73979998D01*
X43914225Y-73926342D01*
X43910821Y-73918135D01*
X43909957Y-73915824D01*
X43908896Y-73912408D01*
X43767079Y-73590103D01*
X43589687Y-73285924D01*
X43379001Y-73003781D01*
X43376557Y-73001183D01*
X43376552Y-73001177D01*
X43140180Y-72749907D01*
X43140176Y-72749904D01*
X43137730Y-72747303D01*
X42947809Y-72586523D01*
X42871698Y-72522090D01*
X42871694Y-72522087D01*
X42868976Y-72519786D01*
X42576193Y-72324155D01*
X42573009Y-72322515D01*
X42266330Y-72164564D01*
X42266325Y-72164562D01*
X42263147Y-72162925D01*
X42259806Y-72161659D01*
X42259801Y-72161657D01*
X41937205Y-72039437D01*
X41937206Y-72039437D01*
X41933861Y-72038170D01*
X41930397Y-72037290D01*
X41930393Y-72037289D01*
X41596037Y-71952373D01*
X41596029Y-71952371D01*
X41592570Y-71951493D01*
X41420848Y-71928122D01*
X41246653Y-71904415D01*
X41246646Y-71904414D01*
X41243660Y-71904008D01*
X41128919Y-71899500D01*
X40910802Y-71899500D01*
X40769244Y-71907538D01*
X40652008Y-71914195D01*
X40652001Y-71914196D01*
X40648440Y-71914398D01*
X40510117Y-71938166D01*
X40304918Y-71973425D01*
X40304910Y-71973427D01*
X40301400Y-71974030D01*
X40297975Y-71975028D01*
X40297972Y-71975029D01*
X40084370Y-72037289D01*
X39963341Y-72072566D01*
X39638610Y-72208737D01*
X39484996Y-72294765D01*
X39334498Y-72379047D01*
X39334493Y-72379050D01*
X39331381Y-72380793D01*
X39328485Y-72382878D01*
X39328480Y-72382881D01*
X39181761Y-72488504D01*
X39045605Y-72586523D01*
X39042969Y-72588917D01*
X39042967Y-72588919D01*
X38865733Y-72749907D01*
X38784954Y-72823281D01*
X38552781Y-73088023D01*
X38352071Y-73377347D01*
X38185402Y-73687532D01*
X38184075Y-73690857D01*
X38184075Y-73690858D01*
X38092381Y-73920690D01*
X38048560Y-73976550D01*
X37975351Y-74000000D01*
X29328403Y-74000000D01*
X29260282Y-73979998D01*
X29234770Y-73958313D01*
X29111253Y-73821134D01*
X28956752Y-73708882D01*
X28950724Y-73706198D01*
X28950722Y-73706197D01*
X28788319Y-73633891D01*
X28788318Y-73633891D01*
X28782288Y-73631206D01*
X28688888Y-73611353D01*
X28601944Y-73592872D01*
X28601939Y-73592872D01*
X28595487Y-73591500D01*
X28404513Y-73591500D01*
X28398061Y-73592872D01*
X28398056Y-73592872D01*
X28311112Y-73611353D01*
X28217712Y-73631206D01*
X28211682Y-73633891D01*
X28211681Y-73633891D01*
X28049278Y-73706197D01*
X28049276Y-73706198D01*
X28043248Y-73708882D01*
X27888747Y-73821134D01*
X27765232Y-73958312D01*
X27704787Y-73995550D01*
X27671597Y-74000000D01*
X21626000Y-74000000D01*
X21557879Y-73979998D01*
X21511386Y-73926342D01*
X21500000Y-73874000D01*
X21500000Y-63500000D01*
X48736693Y-63500000D01*
X48755885Y-63719371D01*
X48812880Y-63932076D01*
X48815205Y-63937061D01*
X48903618Y-64126666D01*
X48903621Y-64126671D01*
X48905944Y-64131653D01*
X49032251Y-64312038D01*
X49187962Y-64467749D01*
X49368346Y-64594056D01*
X49567924Y-64687120D01*
X49780629Y-64744115D01*
X50000000Y-64763307D01*
X50219371Y-64744115D01*
X50432076Y-64687120D01*
X50631654Y-64594056D01*
X50812038Y-64467749D01*
X50910905Y-64368882D01*
X50973217Y-64334856D01*
X51044032Y-64339921D01*
X51089095Y-64368882D01*
X51187962Y-64467749D01*
X51368346Y-64594056D01*
X51567924Y-64687120D01*
X51780629Y-64744115D01*
X52000000Y-64763307D01*
X52219371Y-64744115D01*
X52432076Y-64687120D01*
X52631654Y-64594056D01*
X52812038Y-64467749D01*
X52910905Y-64368882D01*
X52973217Y-64334856D01*
X53044032Y-64339921D01*
X53089095Y-64368882D01*
X53187962Y-64467749D01*
X53368346Y-64594056D01*
X53567924Y-64687120D01*
X53780629Y-64744115D01*
X54000000Y-64763307D01*
X54219371Y-64744115D01*
X54432076Y-64687120D01*
X54631654Y-64594056D01*
X54812038Y-64467749D01*
X54910905Y-64368882D01*
X54973217Y-64334856D01*
X55044032Y-64339921D01*
X55089095Y-64368882D01*
X55187962Y-64467749D01*
X55368346Y-64594056D01*
X55567924Y-64687120D01*
X55780629Y-64744115D01*
X56000000Y-64763307D01*
X56219371Y-64744115D01*
X56432076Y-64687120D01*
X56631654Y-64594056D01*
X56812038Y-64467749D01*
X56910905Y-64368882D01*
X56973217Y-64334856D01*
X57044032Y-64339921D01*
X57089095Y-64368882D01*
X57187962Y-64467749D01*
X57368346Y-64594056D01*
X57567924Y-64687120D01*
X57780629Y-64744115D01*
X58000000Y-64763307D01*
X58219371Y-64744115D01*
X58432076Y-64687120D01*
X58631654Y-64594056D01*
X58812038Y-64467749D01*
X58967749Y-64312038D01*
X59094056Y-64131653D01*
X59096379Y-64126671D01*
X59096382Y-64126666D01*
X59184795Y-63937061D01*
X59187120Y-63932076D01*
X59244115Y-63719371D01*
X59263307Y-63500000D01*
X60736693Y-63500000D01*
X60755885Y-63719371D01*
X60812880Y-63932076D01*
X60815205Y-63937061D01*
X60903618Y-64126666D01*
X60903621Y-64126671D01*
X60905944Y-64131653D01*
X61032251Y-64312038D01*
X61187962Y-64467749D01*
X61368346Y-64594056D01*
X61567924Y-64687120D01*
X61780629Y-64744115D01*
X62000000Y-64763307D01*
X62219371Y-64744115D01*
X62432076Y-64687120D01*
X62631654Y-64594056D01*
X62812038Y-64467749D01*
X62967749Y-64312038D01*
X63094056Y-64131653D01*
X63096379Y-64126671D01*
X63096382Y-64126666D01*
X63184795Y-63937061D01*
X63187120Y-63932076D01*
X63244115Y-63719371D01*
X63263307Y-63500000D01*
X63244115Y-63280629D01*
X63187120Y-63067924D01*
X63143585Y-62974562D01*
X63096382Y-62873334D01*
X63096379Y-62873329D01*
X63094056Y-62868347D01*
X62967749Y-62687962D01*
X62812038Y-62532251D01*
X62631654Y-62405944D01*
X62432076Y-62312880D01*
X62219371Y-62255885D01*
X62000000Y-62236693D01*
X61780629Y-62255885D01*
X61567924Y-62312880D01*
X61474562Y-62356415D01*
X61373334Y-62403618D01*
X61373329Y-62403621D01*
X61368347Y-62405944D01*
X61363840Y-62409100D01*
X61363838Y-62409101D01*
X61192473Y-62529092D01*
X61192470Y-62529094D01*
X61187962Y-62532251D01*
X61032251Y-62687962D01*
X60905944Y-62868347D01*
X60903621Y-62873329D01*
X60903618Y-62873334D01*
X60856415Y-62974562D01*
X60812880Y-63067924D01*
X60755885Y-63280629D01*
X60736693Y-63500000D01*
X59263307Y-63500000D01*
X59244115Y-63280629D01*
X59187120Y-63067924D01*
X59143585Y-62974562D01*
X59096382Y-62873334D01*
X59096379Y-62873329D01*
X59094056Y-62868347D01*
X58967749Y-62687962D01*
X58812038Y-62532251D01*
X58631654Y-62405944D01*
X58432076Y-62312880D01*
X58219371Y-62255885D01*
X58000000Y-62236693D01*
X57780629Y-62255885D01*
X57567924Y-62312880D01*
X57474562Y-62356415D01*
X57373334Y-62403618D01*
X57373329Y-62403621D01*
X57368347Y-62405944D01*
X57363840Y-62409100D01*
X57363838Y-62409101D01*
X57192473Y-62529092D01*
X57192470Y-62529094D01*
X57187962Y-62532251D01*
X57089095Y-62631118D01*
X57026783Y-62665144D01*
X56955968Y-62660079D01*
X56910905Y-62631118D01*
X56812038Y-62532251D01*
X56631654Y-62405944D01*
X56432076Y-62312880D01*
X56219371Y-62255885D01*
X56000000Y-62236693D01*
X55780629Y-62255885D01*
X55567924Y-62312880D01*
X55474562Y-62356415D01*
X55373334Y-62403618D01*
X55373329Y-62403621D01*
X55368347Y-62405944D01*
X55363840Y-62409100D01*
X55363838Y-62409101D01*
X55192473Y-62529092D01*
X55192470Y-62529094D01*
X55187962Y-62532251D01*
X55089095Y-62631118D01*
X55026783Y-62665144D01*
X54955968Y-62660079D01*
X54910905Y-62631118D01*
X54812038Y-62532251D01*
X54631654Y-62405944D01*
X54432076Y-62312880D01*
X54219371Y-62255885D01*
X54000000Y-62236693D01*
X53780629Y-62255885D01*
X53567924Y-62312880D01*
X53474562Y-62356415D01*
X53373334Y-62403618D01*
X53373329Y-62403621D01*
X53368347Y-62405944D01*
X53363840Y-62409100D01*
X53363838Y-62409101D01*
X53192473Y-62529092D01*
X53192470Y-62529094D01*
X53187962Y-62532251D01*
X53089095Y-62631118D01*
X53026783Y-62665144D01*
X52955968Y-62660079D01*
X52910905Y-62631118D01*
X52812038Y-62532251D01*
X52631654Y-62405944D01*
X52432076Y-62312880D01*
X52219371Y-62255885D01*
X52000000Y-62236693D01*
X51780629Y-62255885D01*
X51567924Y-62312880D01*
X51474562Y-62356415D01*
X51373334Y-62403618D01*
X51373329Y-62403621D01*
X51368347Y-62405944D01*
X51363840Y-62409100D01*
X51363838Y-62409101D01*
X51192473Y-62529092D01*
X51192470Y-62529094D01*
X51187962Y-62532251D01*
X51089095Y-62631118D01*
X51026783Y-62665144D01*
X50955968Y-62660079D01*
X50910905Y-62631118D01*
X50812038Y-62532251D01*
X50631654Y-62405944D01*
X50432076Y-62312880D01*
X50219371Y-62255885D01*
X50000000Y-62236693D01*
X49780629Y-62255885D01*
X49567924Y-62312880D01*
X49474562Y-62356415D01*
X49373334Y-62403618D01*
X49373329Y-62403621D01*
X49368347Y-62405944D01*
X49363840Y-62409100D01*
X49363838Y-62409101D01*
X49192473Y-62529092D01*
X49192470Y-62529094D01*
X49187962Y-62532251D01*
X49032251Y-62687962D01*
X48905944Y-62868347D01*
X48903621Y-62873329D01*
X48903618Y-62873334D01*
X48856415Y-62974562D01*
X48812880Y-63067924D01*
X48755885Y-63280629D01*
X48736693Y-63500000D01*
X21500000Y-63500000D01*
X21500000Y-59808134D01*
X24891500Y-59808134D01*
X24898255Y-59870316D01*
X24949385Y-60006705D01*
X25036739Y-60123261D01*
X25153295Y-60210615D01*
X25289684Y-60261745D01*
X25351866Y-60268500D01*
X28048134Y-60268500D01*
X28110316Y-60261745D01*
X28246705Y-60210615D01*
X28363261Y-60123261D01*
X28450615Y-60006705D01*
X28501745Y-59870316D01*
X28508500Y-59808134D01*
X28508500Y-57111866D01*
X28501745Y-57049684D01*
X28450615Y-56913295D01*
X28363261Y-56796739D01*
X28246705Y-56709385D01*
X28110316Y-56658255D01*
X28048134Y-56651500D01*
X25351866Y-56651500D01*
X25289684Y-56658255D01*
X25153295Y-56709385D01*
X25036739Y-56796739D01*
X24949385Y-56913295D01*
X24898255Y-57049684D01*
X24891500Y-57111866D01*
X24891500Y-59808134D01*
X21500000Y-59808134D01*
X21500000Y-56126000D01*
X21520002Y-56057879D01*
X21573658Y-56011386D01*
X21626000Y-56000000D01*
X67874000Y-56000000D01*
X67942121Y-56020002D01*
G37*
%TD.AperFunction*%
%TD*%
M02*
