M48
; DRILL file {KiCad (6.0.0)} date Thu Jan 20 20:45:06 2022
; FORMAT={-:-/ absolute / inch / decimal}
; #@! TF.CreationDate,2022-01-20T20:45:06-08:00
; #@! TF.GenerationSoftware,Kicad,Pcbnew,(6.0.0)
; #@! TF.FileFunction,MixedPlating,1,4
FMAT,2
INCH
; #@! TA.AperFunction,Plated,PTH,ViaDrill
T1C0.0157
; #@! TA.AperFunction,Plated,PTH,ComponentDrill
T2C0.0276
; #@! TA.AperFunction,Plated,PTH,ComponentDrill
T3C0.0315
; #@! TA.AperFunction,Plated,PTH,ComponentDrill
T4C0.0394
; #@! TA.AperFunction,Plated,PTH,ComponentDrill
T5C0.0402
; #@! TA.AperFunction,Plated,PTH,ComponentDrill
T6C0.0512
; #@! TA.AperFunction,NonPlated,NPTH,ComponentDrill
T7C0.0394
; #@! TA.AperFunction,NonPlated,NPTH,ComponentDrill
T8C0.1063
; #@! TA.AperFunction,NonPlated,NPTH,ComponentDrill
T9C0.1260
%
G90
G05
T1
X1.1024Y-2.0079
X1.122Y-2.9331
X1.164Y-2.025
X1.2659Y-2.0315
X1.3386Y-2.126
X1.8898Y-3.7402
X2.815Y-2.1103
X2.9528Y-2.1103
X3.0781Y-3.2801
X3.4522Y-2.3943
X3.4646Y-3.3661
X3.5236Y-2.3819
X3.5433Y-2.2638
X3.574Y-4.1126
X3.6024Y-3.9961
X3.622Y-2.3425
X3.6811Y-3.5827
X3.7472Y-2.1583
X3.7795Y-2.3031
X3.8141Y-2.0228
X3.9764Y-2.1457
X3.9843Y-2.7165
X4.1719Y-3.9153
X4.1732Y-2.2835
X4.1929Y-2.6575
X4.2126Y-2.126
X4.252Y-2.0866
X4.3307Y-2.2835
X4.4094Y-2.5
X4.5079Y-2.2835
X4.5276Y-2.0866
X4.6259Y-3.5778
X4.8031Y-2.0866
X4.8228Y-4.0157
X4.8622Y-4.2913
X4.9016Y-2.2638
X4.9213Y-2.6575
X4.9803Y-2.9921
X5.0026Y-2.4829
X5.1378Y-2.0866
X5.1575Y-3.1102
X5.1969Y-2.2441
X5.2559Y-3.1693
X5.315Y-2.7559
X5.3346Y-2.3622
X5.3425Y-3.4682
X5.3937Y-2.5
X5.4134Y-2.4016
X5.4331Y-2.6181
X5.4528Y-3.189
X5.4921Y-3.3268
X5.4921Y-3.9173
X5.5315Y-2.6969
X5.5906Y-2.1063
X5.6112Y-2.5
X5.6496Y-2.4803
X5.6693Y-2.5591
X5.6719Y-2.1037
X5.7087Y-2.4803
X5.7106Y-2.7972
X5.7677Y-3.2283
X5.7874Y-2.7756
X5.8465Y-2.5197
T2
X1.9291Y-2.6575
X1.9291Y-3.622
X1.9685Y-2.5
X1.9685Y-3.4646
X2.0079Y-2.6575
X2.0079Y-3.622
X2.0472Y-2.5
X2.0472Y-3.4646
X2.0866Y-2.6575
X2.0866Y-3.622
X2.126Y-2.5
X2.126Y-3.4646
X2.1654Y-2.6575
X2.1654Y-3.622
X2.2047Y-2.5
X2.2047Y-3.4646
X2.2441Y-2.6575
X2.2441Y-3.622
X2.2835Y-2.5
X2.2835Y-3.4646
X2.3228Y-2.6575
X2.3228Y-3.622
X2.3622Y-2.5
X2.3622Y-3.4646
X2.4016Y-2.6575
X2.4016Y-3.622
X2.4409Y-2.5
X2.4409Y-3.4646
X2.4803Y-2.6575
X2.4803Y-3.622
X2.5197Y-2.5
X2.5197Y-3.4646
X2.5591Y-2.6575
X2.5591Y-3.622
X2.5984Y-2.5
X2.5984Y-3.4646
X2.6378Y-2.6575
X2.6378Y-3.622
X2.6772Y-2.5
X2.6772Y-3.4646
X2.7165Y-2.6575
X2.7165Y-3.622
X2.7559Y-2.5
X2.7559Y-3.4646
X2.7953Y-2.6575
X2.7953Y-3.622
X2.8346Y-2.5
X2.8346Y-3.4646
X2.874Y-2.6575
X2.874Y-3.622
T3
X3.189Y-2.3759
X3.189Y-2.5137
X3.2087Y-3.3404
X3.2087Y-3.4782
X5.3937Y-4.0218
X5.3937Y-4.1596
T4
X1.1024Y-1.8307
X1.1024Y-1.9488
X1.1024Y-3.9945
X1.1024Y-4.1126
X1.2205Y-1.8307
X1.2205Y-1.9488
X1.2205Y-3.9945
X1.2205Y-4.1126
X1.3386Y-1.8307
X1.3386Y-1.9488
X1.3386Y-3.9945
X1.3386Y-4.1126
X1.4567Y-1.8307
X1.4567Y-1.9488
X1.4567Y-3.9945
X1.4567Y-4.1126
X1.5142Y-3.7795
X1.6142Y-3.7795
X2.1154Y-1.9488
X2.2154Y-1.9488
X2.2531Y-3.7795
X2.3531Y-3.7795
X2.4303Y-1.9488
X2.5303Y-1.9488
X4.1506Y-4.0945
X4.2506Y-4.0945
X4.3506Y-4.0945
X4.4506Y-4.0945
X4.5506Y-4.0945
X4.7047Y-3.4343
X4.7047Y-3.5343
X4.8425Y-3.4343
X4.8425Y-3.5343
X4.9803Y-3.4343
X4.9803Y-3.5343
X5.1181Y-3.4343
X5.1181Y-3.5343
X5.2559Y-3.4343
X5.2559Y-3.5343
T5
X3.8157Y-3.711
X3.8157Y-3.811
X3.9157Y-3.711
X3.9157Y-3.811
X4.0157Y-3.711
X4.0157Y-3.811
X4.1157Y-3.711
X4.1157Y-3.811
X4.2157Y-3.711
X4.2157Y-3.811
X4.3157Y-3.711
X4.3157Y-3.811
X4.4157Y-3.711
X4.4157Y-3.811
X4.5157Y-3.711
X4.5157Y-3.811
X4.6157Y-3.711
X4.6157Y-3.811
X4.7157Y-3.711
X4.7157Y-3.811
X4.8157Y-3.711
X4.8157Y-3.811
X4.9157Y-3.711
X4.9157Y-3.811
X5.0157Y-3.711
X5.0157Y-3.811
X5.1157Y-3.711
X5.1157Y-3.811
X5.2157Y-3.711
X5.2157Y-3.811
X5.3157Y-3.711
X5.3157Y-3.811
X5.4157Y-3.711
X5.4157Y-3.811
X5.5157Y-3.711
X5.5157Y-3.811
X5.6157Y-3.711
X5.6157Y-3.811
X5.7157Y-3.711
X5.7157Y-3.811
T6
X1.0512Y-2.3016
X1.0512Y-2.5016
X1.0512Y-3.4039
X1.0512Y-3.6039
X2.0591Y-3.9947
X2.0591Y-4.1947
X3.189Y-3.9732
X3.189Y-4.1732
T7
X0.9843Y-1.7937
X0.9843Y-3.9575
X1.5748Y-1.7937
X1.5748Y-3.9575
T8
X3.624Y-1.8319
X3.624Y-3.761
X5.9075Y-1.8319
X5.9075Y-3.761
T9
X1.6142Y-2.9528
T0
M30
