%TF.GenerationSoftware,KiCad,Pcbnew,(6.0.0)*%
%TF.CreationDate,2022-01-20T20:45:04-08:00*%
%TF.ProjectId,dish-controller,64697368-2d63-46f6-9e74-726f6c6c6572,rev?*%
%TF.SameCoordinates,Original*%
%TF.FileFunction,Legend,Top*%
%TF.FilePolarity,Positive*%
%FSLAX46Y46*%
G04 Gerber Fmt 4.6, Leading zero omitted, Abs format (unit mm)*
G04 Created by KiCad (PCBNEW (6.0.0)) date 2022-01-20 20:45:04*
%MOMM*%
%LPD*%
G01*
G04 APERTURE LIST*
%ADD10C,0.150000*%
%ADD11C,0.300000*%
%ADD12C,0.500000*%
%ADD13C,0.120000*%
G04 APERTURE END LIST*
D10*
X115000000Y-108261904D02*
X114952380Y-108357142D01*
X114952380Y-108500000D01*
X115000000Y-108642857D01*
X115095238Y-108738095D01*
X115190476Y-108785714D01*
X115380952Y-108833333D01*
X115523809Y-108833333D01*
X115714285Y-108785714D01*
X115809523Y-108738095D01*
X115904761Y-108642857D01*
X115952380Y-108500000D01*
X115952380Y-108404761D01*
X115904761Y-108261904D01*
X115857142Y-108214285D01*
X115523809Y-108214285D01*
X115523809Y-108404761D01*
X115952380Y-107785714D02*
X114952380Y-107785714D01*
X115952380Y-107214285D01*
X114952380Y-107214285D01*
X115952380Y-106738095D02*
X114952380Y-106738095D01*
X114952380Y-106500000D01*
X115000000Y-106357142D01*
X115095238Y-106261904D01*
X115190476Y-106214285D01*
X115380952Y-106166666D01*
X115523809Y-106166666D01*
X115714285Y-106214285D01*
X115809523Y-106261904D01*
X115904761Y-106357142D01*
X115952380Y-106500000D01*
X115952380Y-106738095D01*
X113404761Y-108690476D02*
X113452380Y-108547619D01*
X113452380Y-108309523D01*
X113404761Y-108214285D01*
X113357142Y-108166666D01*
X113261904Y-108119047D01*
X113166666Y-108119047D01*
X113071428Y-108166666D01*
X113023809Y-108214285D01*
X112976190Y-108309523D01*
X112928571Y-108500000D01*
X112880952Y-108595238D01*
X112833333Y-108642857D01*
X112738095Y-108690476D01*
X112642857Y-108690476D01*
X112547619Y-108642857D01*
X112500000Y-108595238D01*
X112452380Y-108500000D01*
X112452380Y-108261904D01*
X112500000Y-108119047D01*
X113357142Y-107119047D02*
X113404761Y-107166666D01*
X113452380Y-107309523D01*
X113452380Y-107404761D01*
X113404761Y-107547619D01*
X113309523Y-107642857D01*
X113214285Y-107690476D01*
X113023809Y-107738095D01*
X112880952Y-107738095D01*
X112690476Y-107690476D01*
X112595238Y-107642857D01*
X112500000Y-107547619D01*
X112452380Y-107404761D01*
X112452380Y-107309523D01*
X112500000Y-107166666D01*
X112547619Y-107119047D01*
X113452380Y-106214285D02*
X113452380Y-106690476D01*
X112452380Y-106690476D01*
X110904761Y-108714285D02*
X110952380Y-108571428D01*
X110952380Y-108333333D01*
X110904761Y-108238095D01*
X110857142Y-108190476D01*
X110761904Y-108142857D01*
X110666666Y-108142857D01*
X110571428Y-108190476D01*
X110523809Y-108238095D01*
X110476190Y-108333333D01*
X110428571Y-108523809D01*
X110380952Y-108619047D01*
X110333333Y-108666666D01*
X110238095Y-108714285D01*
X110142857Y-108714285D01*
X110047619Y-108666666D01*
X110000000Y-108619047D01*
X109952380Y-108523809D01*
X109952380Y-108285714D01*
X110000000Y-108142857D01*
X110952380Y-107714285D02*
X109952380Y-107714285D01*
X109952380Y-107476190D01*
X110000000Y-107333333D01*
X110095238Y-107238095D01*
X110190476Y-107190476D01*
X110380952Y-107142857D01*
X110523809Y-107142857D01*
X110714285Y-107190476D01*
X110809523Y-107238095D01*
X110904761Y-107333333D01*
X110952380Y-107476190D01*
X110952380Y-107714285D01*
X110666666Y-106761904D02*
X110666666Y-106285714D01*
X110952380Y-106857142D02*
X109952380Y-106523809D01*
X110952380Y-106190476D01*
X104952380Y-107190476D02*
X104952380Y-107666666D01*
X105428571Y-107714285D01*
X105380952Y-107666666D01*
X105333333Y-107571428D01*
X105333333Y-107333333D01*
X105380952Y-107238095D01*
X105428571Y-107190476D01*
X105523809Y-107142857D01*
X105761904Y-107142857D01*
X105857142Y-107190476D01*
X105904761Y-107238095D01*
X105952380Y-107333333D01*
X105952380Y-107571428D01*
X105904761Y-107666666D01*
X105857142Y-107714285D01*
X104952380Y-106857142D02*
X105952380Y-106523809D01*
X104952380Y-106190476D01*
X107452380Y-108738095D02*
X107452380Y-108119047D01*
X107833333Y-108452380D01*
X107833333Y-108309523D01*
X107880952Y-108214285D01*
X107928571Y-108166666D01*
X108023809Y-108119047D01*
X108261904Y-108119047D01*
X108357142Y-108166666D01*
X108404761Y-108214285D01*
X108452380Y-108309523D01*
X108452380Y-108595238D01*
X108404761Y-108690476D01*
X108357142Y-108738095D01*
X107452380Y-107833333D02*
X108452380Y-107500000D01*
X107452380Y-107166666D01*
X107452380Y-106928571D02*
X107452380Y-106309523D01*
X107833333Y-106642857D01*
X107833333Y-106500000D01*
X107880952Y-106404761D01*
X107928571Y-106357142D01*
X108023809Y-106309523D01*
X108261904Y-106309523D01*
X108357142Y-106357142D01*
X108404761Y-106404761D01*
X108452380Y-106500000D01*
X108452380Y-106785714D01*
X108404761Y-106880952D01*
X108357142Y-106928571D01*
D11*
X179857142Y-95357142D02*
X179857142Y-94690476D01*
X180904761Y-94404761D02*
X180904761Y-95357142D01*
X178904761Y-95357142D01*
X178904761Y-94404761D01*
X178904761Y-93833333D02*
X178904761Y-92690476D01*
X180904761Y-93261904D02*
X178904761Y-93261904D01*
X180904761Y-92023809D02*
X178904761Y-92023809D01*
X179857142Y-92023809D02*
X179857142Y-90880952D01*
X180904761Y-90880952D02*
X178904761Y-90880952D01*
X179857142Y-89928571D02*
X179857142Y-89261904D01*
X180904761Y-88976190D02*
X180904761Y-89928571D01*
X178904761Y-89928571D01*
X178904761Y-88976190D01*
X180904761Y-86976190D02*
X179952380Y-87642857D01*
X180904761Y-88119047D02*
X178904761Y-88119047D01*
X178904761Y-87357142D01*
X179000000Y-87166666D01*
X179095238Y-87071428D01*
X179285714Y-86976190D01*
X179571428Y-86976190D01*
X179761904Y-87071428D01*
X179857142Y-87166666D01*
X179952380Y-87357142D01*
X179952380Y-88119047D01*
X180904761Y-86119047D02*
X178904761Y-86119047D01*
X180904761Y-84976190D01*
X178904761Y-84976190D01*
X179857142Y-84023809D02*
X179857142Y-83357142D01*
X180904761Y-83071428D02*
X180904761Y-84023809D01*
X178904761Y-84023809D01*
X178904761Y-83071428D01*
X178904761Y-82500000D02*
X178904761Y-81357142D01*
X180904761Y-81928571D02*
X178904761Y-81928571D01*
X178971071Y-76464285D02*
X177471071Y-76464285D01*
X177471071Y-76107142D01*
X177542500Y-75892857D01*
X177685357Y-75750000D01*
X177828214Y-75678571D01*
X178113928Y-75607142D01*
X178328214Y-75607142D01*
X178613928Y-75678571D01*
X178756785Y-75750000D01*
X178899642Y-75892857D01*
X178971071Y-76107142D01*
X178971071Y-76464285D01*
X178899642Y-74392857D02*
X178971071Y-74535714D01*
X178971071Y-74821428D01*
X178899642Y-74964285D01*
X178756785Y-75035714D01*
X178185357Y-75035714D01*
X178042500Y-74964285D01*
X177971071Y-74821428D01*
X177971071Y-74535714D01*
X178042500Y-74392857D01*
X178185357Y-74321428D01*
X178328214Y-74321428D01*
X178471071Y-75035714D01*
X178899642Y-73750000D02*
X178971071Y-73607142D01*
X178971071Y-73321428D01*
X178899642Y-73178571D01*
X178756785Y-73107142D01*
X178685357Y-73107142D01*
X178542500Y-73178571D01*
X178471071Y-73321428D01*
X178471071Y-73535714D01*
X178399642Y-73678571D01*
X178256785Y-73750000D01*
X178185357Y-73750000D01*
X178042500Y-73678571D01*
X177971071Y-73535714D01*
X177971071Y-73321428D01*
X178042500Y-73178571D01*
X178971071Y-72464285D02*
X177971071Y-72464285D01*
X177471071Y-72464285D02*
X177542500Y-72535714D01*
X177613928Y-72464285D01*
X177542500Y-72392857D01*
X177471071Y-72464285D01*
X177613928Y-72464285D01*
X177971071Y-71107142D02*
X179185357Y-71107142D01*
X179328214Y-71178571D01*
X179399642Y-71250000D01*
X179471071Y-71392857D01*
X179471071Y-71607142D01*
X179399642Y-71750000D01*
X178899642Y-71107142D02*
X178971071Y-71250000D01*
X178971071Y-71535714D01*
X178899642Y-71678571D01*
X178828214Y-71750000D01*
X178685357Y-71821428D01*
X178256785Y-71821428D01*
X178113928Y-71750000D01*
X178042500Y-71678571D01*
X177971071Y-71535714D01*
X177971071Y-71250000D01*
X178042500Y-71107142D01*
X177971071Y-70392857D02*
X178971071Y-70392857D01*
X178113928Y-70392857D02*
X178042500Y-70321428D01*
X177971071Y-70178571D01*
X177971071Y-69964285D01*
X178042500Y-69821428D01*
X178185357Y-69750000D01*
X178971071Y-69750000D01*
X178899642Y-68464285D02*
X178971071Y-68607142D01*
X178971071Y-68892857D01*
X178899642Y-69035714D01*
X178756785Y-69107142D01*
X178185357Y-69107142D01*
X178042500Y-69035714D01*
X177971071Y-68892857D01*
X177971071Y-68607142D01*
X178042500Y-68464285D01*
X178185357Y-68392857D01*
X178328214Y-68392857D01*
X178471071Y-69107142D01*
X178971071Y-67107142D02*
X177471071Y-67107142D01*
X178899642Y-67107142D02*
X178971071Y-67250000D01*
X178971071Y-67535714D01*
X178899642Y-67678571D01*
X178828214Y-67750000D01*
X178685357Y-67821428D01*
X178256785Y-67821428D01*
X178113928Y-67750000D01*
X178042500Y-67678571D01*
X177971071Y-67535714D01*
X177971071Y-67250000D01*
X178042500Y-67107142D01*
X178971071Y-65250000D02*
X177471071Y-65250000D01*
X178042500Y-65250000D02*
X177971071Y-65107142D01*
X177971071Y-64821428D01*
X178042500Y-64678571D01*
X178113928Y-64607142D01*
X178256785Y-64535714D01*
X178685357Y-64535714D01*
X178828214Y-64607142D01*
X178899642Y-64678571D01*
X178971071Y-64821428D01*
X178971071Y-65107142D01*
X178899642Y-65250000D01*
X177971071Y-64035714D02*
X178971071Y-63678571D01*
X177971071Y-63321428D02*
X178971071Y-63678571D01*
X179328214Y-63821428D01*
X179399642Y-63892857D01*
X179471071Y-64035714D01*
X178971071Y-61607142D02*
X177471071Y-61607142D01*
X178185357Y-61607142D02*
X178185357Y-60750000D01*
X178971071Y-60750000D02*
X177471071Y-60750000D01*
X178971071Y-59392857D02*
X178185357Y-59392857D01*
X178042500Y-59464285D01*
X177971071Y-59607142D01*
X177971071Y-59892857D01*
X178042500Y-60035714D01*
X178899642Y-59392857D02*
X178971071Y-59535714D01*
X178971071Y-59892857D01*
X178899642Y-60035714D01*
X178756785Y-60107142D01*
X178613928Y-60107142D01*
X178471071Y-60035714D01*
X178399642Y-59892857D01*
X178399642Y-59535714D01*
X178328214Y-59392857D01*
X177971071Y-58678571D02*
X178971071Y-58678571D01*
X178113928Y-58678571D02*
X178042500Y-58607142D01*
X177971071Y-58464285D01*
X177971071Y-58250000D01*
X178042500Y-58107142D01*
X178185357Y-58035714D01*
X178971071Y-58035714D01*
X178899642Y-57392857D02*
X178971071Y-57250000D01*
X178971071Y-56964285D01*
X178899642Y-56821428D01*
X178756785Y-56750000D01*
X178685357Y-56750000D01*
X178542500Y-56821428D01*
X178471071Y-56964285D01*
X178471071Y-57178571D01*
X178399642Y-57321428D01*
X178256785Y-57392857D01*
X178185357Y-57392857D01*
X178042500Y-57321428D01*
X177971071Y-57178571D01*
X177971071Y-56964285D01*
X178042500Y-56821428D01*
X177542500Y-54178571D02*
X177471071Y-54321428D01*
X177471071Y-54535714D01*
X177542500Y-54750000D01*
X177685357Y-54892857D01*
X177828214Y-54964285D01*
X178113928Y-55035714D01*
X178328214Y-55035714D01*
X178613928Y-54964285D01*
X178756785Y-54892857D01*
X178899642Y-54750000D01*
X178971071Y-54535714D01*
X178971071Y-54392857D01*
X178899642Y-54178571D01*
X178828214Y-54107142D01*
X178328214Y-54107142D01*
X178328214Y-54392857D01*
X178971071Y-52821428D02*
X178185357Y-52821428D01*
X178042500Y-52892857D01*
X177971071Y-53035714D01*
X177971071Y-53321428D01*
X178042500Y-53464285D01*
X178899642Y-52821428D02*
X178971071Y-52964285D01*
X178971071Y-53321428D01*
X178899642Y-53464285D01*
X178756785Y-53535714D01*
X178613928Y-53535714D01*
X178471071Y-53464285D01*
X178399642Y-53321428D01*
X178399642Y-52964285D01*
X178328214Y-52821428D01*
X178899642Y-51535714D02*
X178971071Y-51678571D01*
X178971071Y-51964285D01*
X178899642Y-52107142D01*
X178756785Y-52178571D01*
X178185357Y-52178571D01*
X178042500Y-52107142D01*
X177971071Y-51964285D01*
X177971071Y-51678571D01*
X178042500Y-51535714D01*
X178185357Y-51464285D01*
X178328214Y-51464285D01*
X178471071Y-52178571D01*
X177971071Y-50821428D02*
X178971071Y-50821428D01*
X178113928Y-50821428D02*
X178042500Y-50750000D01*
X177971071Y-50607142D01*
X177971071Y-50392857D01*
X178042500Y-50250000D01*
X178185357Y-50178571D01*
X178971071Y-50178571D01*
X178899642Y-49535714D02*
X178971071Y-49392857D01*
X178971071Y-49107142D01*
X178899642Y-48964285D01*
X178756785Y-48892857D01*
X178685357Y-48892857D01*
X178542500Y-48964285D01*
X178471071Y-49107142D01*
X178471071Y-49321428D01*
X178399642Y-49464285D01*
X178256785Y-49535714D01*
X178185357Y-49535714D01*
X178042500Y-49464285D01*
X177971071Y-49321428D01*
X177971071Y-49107142D01*
X178042500Y-48964285D01*
X178971071Y-48250000D02*
X177471071Y-48250000D01*
X178042500Y-48250000D02*
X177971071Y-48107142D01*
X177971071Y-47821428D01*
X178042500Y-47678571D01*
X178113928Y-47607142D01*
X178256785Y-47535714D01*
X178685357Y-47535714D01*
X178828214Y-47607142D01*
X178899642Y-47678571D01*
X178971071Y-47821428D01*
X178971071Y-48107142D01*
X178899642Y-48250000D01*
X178971071Y-46250000D02*
X178185357Y-46250000D01*
X178042500Y-46321428D01*
X177971071Y-46464285D01*
X177971071Y-46750000D01*
X178042500Y-46892857D01*
X178899642Y-46250000D02*
X178971071Y-46392857D01*
X178971071Y-46750000D01*
X178899642Y-46892857D01*
X178756785Y-46964285D01*
X178613928Y-46964285D01*
X178471071Y-46892857D01*
X178399642Y-46750000D01*
X178399642Y-46392857D01*
X178328214Y-46250000D01*
X177971071Y-44892857D02*
X178971071Y-44892857D01*
X177971071Y-45535714D02*
X178756785Y-45535714D01*
X178899642Y-45464285D01*
X178971071Y-45321428D01*
X178971071Y-45107142D01*
X178899642Y-44964285D01*
X178828214Y-44892857D01*
X178899642Y-43607142D02*
X178971071Y-43750000D01*
X178971071Y-44035714D01*
X178899642Y-44178571D01*
X178756785Y-44250000D01*
X178185357Y-44250000D01*
X178042500Y-44178571D01*
X177971071Y-44035714D01*
X177971071Y-43750000D01*
X178042500Y-43607142D01*
X178185357Y-43535714D01*
X178328214Y-43535714D01*
X178471071Y-44250000D01*
X178971071Y-42892857D02*
X177971071Y-42892857D01*
X178256785Y-42892857D02*
X178113928Y-42821428D01*
X178042500Y-42750000D01*
X177971071Y-42607142D01*
X177971071Y-42464285D01*
X181386071Y-65321428D02*
X180600357Y-65321428D01*
X180457500Y-65392857D01*
X180386071Y-65535714D01*
X180386071Y-65821428D01*
X180457500Y-65964285D01*
X181314642Y-65321428D02*
X181386071Y-65464285D01*
X181386071Y-65821428D01*
X181314642Y-65964285D01*
X181171785Y-66035714D01*
X181028928Y-66035714D01*
X180886071Y-65964285D01*
X180814642Y-65821428D01*
X180814642Y-65464285D01*
X180743214Y-65321428D01*
X180386071Y-64607142D02*
X181386071Y-64607142D01*
X180528928Y-64607142D02*
X180457500Y-64535714D01*
X180386071Y-64392857D01*
X180386071Y-64178571D01*
X180457500Y-64035714D01*
X180600357Y-63964285D01*
X181386071Y-63964285D01*
X181386071Y-62607142D02*
X179886071Y-62607142D01*
X181314642Y-62607142D02*
X181386071Y-62750000D01*
X181386071Y-63035714D01*
X181314642Y-63178571D01*
X181243214Y-63250000D01*
X181100357Y-63321428D01*
X180671785Y-63321428D01*
X180528928Y-63250000D01*
X180457500Y-63178571D01*
X180386071Y-63035714D01*
X180386071Y-62750000D01*
X180457500Y-62607142D01*
X180600357Y-60750000D02*
X180600357Y-60250000D01*
X181386071Y-60035714D02*
X181386071Y-60750000D01*
X179886071Y-60750000D01*
X179886071Y-60035714D01*
X181386071Y-59178571D02*
X181314642Y-59321428D01*
X181171785Y-59392857D01*
X179886071Y-59392857D01*
X181386071Y-58607142D02*
X180386071Y-58607142D01*
X179886071Y-58607142D02*
X179957500Y-58678571D01*
X180028928Y-58607142D01*
X179957500Y-58535714D01*
X179886071Y-58607142D01*
X180028928Y-58607142D01*
X181386071Y-55892857D02*
X180671785Y-56392857D01*
X181386071Y-56750000D02*
X179886071Y-56750000D01*
X179886071Y-56178571D01*
X179957500Y-56035714D01*
X180028928Y-55964285D01*
X180171785Y-55892857D01*
X180386071Y-55892857D01*
X180528928Y-55964285D01*
X180600357Y-56035714D01*
X180671785Y-56178571D01*
X180671785Y-56750000D01*
X181314642Y-54678571D02*
X181386071Y-54821428D01*
X181386071Y-55107142D01*
X181314642Y-55250000D01*
X181171785Y-55321428D01*
X180600357Y-55321428D01*
X180457500Y-55250000D01*
X180386071Y-55107142D01*
X180386071Y-54821428D01*
X180457500Y-54678571D01*
X180600357Y-54607142D01*
X180743214Y-54607142D01*
X180886071Y-55321428D01*
X181314642Y-53392857D02*
X181386071Y-53535714D01*
X181386071Y-53821428D01*
X181314642Y-53964285D01*
X181171785Y-54035714D01*
X180600357Y-54035714D01*
X180457500Y-53964285D01*
X180386071Y-53821428D01*
X180386071Y-53535714D01*
X180457500Y-53392857D01*
X180600357Y-53321428D01*
X180743214Y-53321428D01*
X180886071Y-54035714D01*
X181386071Y-52035714D02*
X179886071Y-52035714D01*
X181314642Y-52035714D02*
X181386071Y-52178571D01*
X181386071Y-52464285D01*
X181314642Y-52607142D01*
X181243214Y-52678571D01*
X181100357Y-52750000D01*
X180671785Y-52750000D01*
X180528928Y-52678571D01*
X180457500Y-52607142D01*
X180386071Y-52464285D01*
X180386071Y-52178571D01*
X180457500Y-52035714D01*
D12*
X36285714Y-62857142D02*
X36285714Y-61857142D01*
X37857142Y-61428571D02*
X37857142Y-62857142D01*
X34857142Y-62857142D01*
X34857142Y-61428571D01*
X37857142Y-58714285D02*
X37857142Y-60142857D01*
X34857142Y-60142857D01*
X36500000Y-91142857D02*
X36500000Y-89714285D01*
X37357142Y-91428571D02*
X34357142Y-90428571D01*
X37357142Y-89428571D01*
X34357142Y-88714285D02*
X34357142Y-86714285D01*
X37357142Y-88714285D01*
X37357142Y-86714285D01*
D10*
X152809523Y-108952380D02*
X152809523Y-107952380D01*
X153285714Y-108285714D02*
X153285714Y-108952380D01*
X153285714Y-108380952D02*
X153333333Y-108333333D01*
X153428571Y-108285714D01*
X153571428Y-108285714D01*
X153666666Y-108333333D01*
X153714285Y-108428571D01*
X153714285Y-108952380D01*
X154047619Y-108285714D02*
X154428571Y-108285714D01*
X154190476Y-107952380D02*
X154190476Y-108809523D01*
X154238095Y-108904761D01*
X154333333Y-108952380D01*
X154428571Y-108952380D01*
X155142857Y-108904761D02*
X155047619Y-108952380D01*
X154857142Y-108952380D01*
X154761904Y-108904761D01*
X154714285Y-108809523D01*
X154714285Y-108428571D01*
X154761904Y-108333333D01*
X154857142Y-108285714D01*
X155047619Y-108285714D01*
X155142857Y-108333333D01*
X155190476Y-108428571D01*
X155190476Y-108523809D01*
X154714285Y-108619047D01*
X155619047Y-108952380D02*
X155619047Y-108285714D01*
X155619047Y-108476190D02*
X155666666Y-108380952D01*
X155714285Y-108333333D01*
X155809523Y-108285714D01*
X155904761Y-108285714D01*
X156095238Y-108285714D02*
X156476190Y-108285714D01*
X156238095Y-108952380D02*
X156238095Y-108095238D01*
X156285714Y-108000000D01*
X156380952Y-107952380D01*
X156476190Y-107952380D01*
X157190476Y-108904761D02*
X157095238Y-108952380D01*
X156904761Y-108952380D01*
X156809523Y-108904761D01*
X156761904Y-108809523D01*
X156761904Y-108428571D01*
X156809523Y-108333333D01*
X156904761Y-108285714D01*
X157095238Y-108285714D01*
X157190476Y-108333333D01*
X157238095Y-108428571D01*
X157238095Y-108523809D01*
X156761904Y-108619047D01*
X157666666Y-108952380D02*
X157666666Y-108285714D01*
X157666666Y-108476190D02*
X157714285Y-108380952D01*
X157761904Y-108333333D01*
X157857142Y-108285714D01*
X157952380Y-108285714D01*
X158428571Y-108952380D02*
X158333333Y-108904761D01*
X158285714Y-108857142D01*
X158238095Y-108761904D01*
X158238095Y-108476190D01*
X158285714Y-108380952D01*
X158333333Y-108333333D01*
X158428571Y-108285714D01*
X158571428Y-108285714D01*
X158666666Y-108333333D01*
X158714285Y-108380952D01*
X158761904Y-108476190D01*
X158761904Y-108761904D01*
X158714285Y-108857142D01*
X158666666Y-108904761D01*
X158571428Y-108952380D01*
X158428571Y-108952380D01*
X159190476Y-108952380D02*
X159190476Y-108285714D01*
X159190476Y-108380952D02*
X159238095Y-108333333D01*
X159333333Y-108285714D01*
X159476190Y-108285714D01*
X159571428Y-108333333D01*
X159619047Y-108428571D01*
X159619047Y-108952380D01*
X159619047Y-108428571D02*
X159666666Y-108333333D01*
X159761904Y-108285714D01*
X159904761Y-108285714D01*
X160000000Y-108333333D01*
X160047619Y-108428571D01*
X160047619Y-108952380D01*
X160904761Y-108904761D02*
X160809523Y-108952380D01*
X160619047Y-108952380D01*
X160523809Y-108904761D01*
X160476190Y-108809523D01*
X160476190Y-108428571D01*
X160523809Y-108333333D01*
X160619047Y-108285714D01*
X160809523Y-108285714D01*
X160904761Y-108333333D01*
X160952380Y-108428571D01*
X160952380Y-108523809D01*
X160476190Y-108619047D01*
X161238095Y-108285714D02*
X161619047Y-108285714D01*
X161380952Y-107952380D02*
X161380952Y-108809523D01*
X161428571Y-108904761D01*
X161523809Y-108952380D01*
X161619047Y-108952380D01*
X162333333Y-108904761D02*
X162238095Y-108952380D01*
X162047619Y-108952380D01*
X161952380Y-108904761D01*
X161904761Y-108809523D01*
X161904761Y-108428571D01*
X161952380Y-108333333D01*
X162047619Y-108285714D01*
X162238095Y-108285714D01*
X162333333Y-108333333D01*
X162380952Y-108428571D01*
X162380952Y-108523809D01*
X161904761Y-108619047D01*
X162809523Y-108952380D02*
X162809523Y-108285714D01*
X162809523Y-108476190D02*
X162857142Y-108380952D01*
X162904761Y-108333333D01*
X163000000Y-108285714D01*
X163095238Y-108285714D01*
X164190476Y-108952380D02*
X164190476Y-107952380D01*
X164428571Y-107952380D01*
X164571428Y-108000000D01*
X164666666Y-108095238D01*
X164714285Y-108190476D01*
X164761904Y-108380952D01*
X164761904Y-108523809D01*
X164714285Y-108714285D01*
X164666666Y-108809523D01*
X164571428Y-108904761D01*
X164428571Y-108952380D01*
X164190476Y-108952380D01*
X165190476Y-108952380D02*
X165190476Y-108285714D01*
X165190476Y-107952380D02*
X165142857Y-108000000D01*
X165190476Y-108047619D01*
X165238095Y-108000000D01*
X165190476Y-107952380D01*
X165190476Y-108047619D01*
X165619047Y-108904761D02*
X165714285Y-108952380D01*
X165904761Y-108952380D01*
X166000000Y-108904761D01*
X166047619Y-108809523D01*
X166047619Y-108761904D01*
X166000000Y-108666666D01*
X165904761Y-108619047D01*
X165761904Y-108619047D01*
X165666666Y-108571428D01*
X165619047Y-108476190D01*
X165619047Y-108428571D01*
X165666666Y-108333333D01*
X165761904Y-108285714D01*
X165904761Y-108285714D01*
X166000000Y-108333333D01*
X166476190Y-108952380D02*
X166476190Y-107952380D01*
X166904761Y-108952380D02*
X166904761Y-108428571D01*
X166857142Y-108333333D01*
X166761904Y-108285714D01*
X166619047Y-108285714D01*
X166523809Y-108333333D01*
X166476190Y-108380952D01*
X168714285Y-108857142D02*
X168666666Y-108904761D01*
X168523809Y-108952380D01*
X168428571Y-108952380D01*
X168285714Y-108904761D01*
X168190476Y-108809523D01*
X168142857Y-108714285D01*
X168095238Y-108523809D01*
X168095238Y-108380952D01*
X168142857Y-108190476D01*
X168190476Y-108095238D01*
X168285714Y-108000000D01*
X168428571Y-107952380D01*
X168523809Y-107952380D01*
X168666666Y-108000000D01*
X168714285Y-108047619D01*
X169285714Y-108952380D02*
X169190476Y-108904761D01*
X169142857Y-108857142D01*
X169095238Y-108761904D01*
X169095238Y-108476190D01*
X169142857Y-108380952D01*
X169190476Y-108333333D01*
X169285714Y-108285714D01*
X169428571Y-108285714D01*
X169523809Y-108333333D01*
X169571428Y-108380952D01*
X169619047Y-108476190D01*
X169619047Y-108761904D01*
X169571428Y-108857142D01*
X169523809Y-108904761D01*
X169428571Y-108952380D01*
X169285714Y-108952380D01*
X170047619Y-108285714D02*
X170047619Y-108952380D01*
X170047619Y-108380952D02*
X170095238Y-108333333D01*
X170190476Y-108285714D01*
X170333333Y-108285714D01*
X170428571Y-108333333D01*
X170476190Y-108428571D01*
X170476190Y-108952380D01*
X170809523Y-108285714D02*
X171190476Y-108285714D01*
X170952380Y-107952380D02*
X170952380Y-108809523D01*
X171000000Y-108904761D01*
X171095238Y-108952380D01*
X171190476Y-108952380D01*
X171523809Y-108952380D02*
X171523809Y-108285714D01*
X171523809Y-108476190D02*
X171571428Y-108380952D01*
X171619047Y-108333333D01*
X171714285Y-108285714D01*
X171809523Y-108285714D01*
X172285714Y-108952380D02*
X172190476Y-108904761D01*
X172142857Y-108857142D01*
X172095238Y-108761904D01*
X172095238Y-108476190D01*
X172142857Y-108380952D01*
X172190476Y-108333333D01*
X172285714Y-108285714D01*
X172428571Y-108285714D01*
X172523809Y-108333333D01*
X172571428Y-108380952D01*
X172619047Y-108476190D01*
X172619047Y-108761904D01*
X172571428Y-108857142D01*
X172523809Y-108904761D01*
X172428571Y-108952380D01*
X172285714Y-108952380D01*
X173190476Y-108952380D02*
X173095238Y-108904761D01*
X173047619Y-108809523D01*
X173047619Y-107952380D01*
X173714285Y-108952380D02*
X173619047Y-108904761D01*
X173571428Y-108809523D01*
X173571428Y-107952380D01*
X174476190Y-108904761D02*
X174380952Y-108952380D01*
X174190476Y-108952380D01*
X174095238Y-108904761D01*
X174047619Y-108809523D01*
X174047619Y-108428571D01*
X174095238Y-108333333D01*
X174190476Y-108285714D01*
X174380952Y-108285714D01*
X174476190Y-108333333D01*
X174523809Y-108428571D01*
X174523809Y-108523809D01*
X174047619Y-108619047D01*
X174952380Y-108952380D02*
X174952380Y-108285714D01*
X174952380Y-108476190D02*
X175000000Y-108380952D01*
X175047619Y-108333333D01*
X175142857Y-108285714D01*
X175238095Y-108285714D01*
X176904761Y-108952380D02*
X176571428Y-108476190D01*
X176333333Y-108952380D02*
X176333333Y-107952380D01*
X176714285Y-107952380D01*
X176809523Y-108000000D01*
X176857142Y-108047619D01*
X176904761Y-108142857D01*
X176904761Y-108285714D01*
X176857142Y-108380952D01*
X176809523Y-108428571D01*
X176714285Y-108476190D01*
X176333333Y-108476190D01*
X177714285Y-108904761D02*
X177619047Y-108952380D01*
X177428571Y-108952380D01*
X177333333Y-108904761D01*
X177285714Y-108809523D01*
X177285714Y-108428571D01*
X177333333Y-108333333D01*
X177428571Y-108285714D01*
X177619047Y-108285714D01*
X177714285Y-108333333D01*
X177761904Y-108428571D01*
X177761904Y-108523809D01*
X177285714Y-108619047D01*
X178095238Y-108285714D02*
X178333333Y-108952380D01*
X178571428Y-108285714D01*
X179904761Y-107952380D02*
X180000000Y-107952380D01*
X180095238Y-108000000D01*
X180142857Y-108047619D01*
X180190476Y-108142857D01*
X180238095Y-108333333D01*
X180238095Y-108571428D01*
X180190476Y-108761904D01*
X180142857Y-108857142D01*
X180095238Y-108904761D01*
X180000000Y-108952380D01*
X179904761Y-108952380D01*
X179809523Y-108904761D01*
X179761904Y-108857142D01*
X179714285Y-108761904D01*
X179666666Y-108571428D01*
X179666666Y-108333333D01*
X179714285Y-108142857D01*
X179761904Y-108047619D01*
X179809523Y-108000000D01*
X179904761Y-107952380D01*
D11*
X60718809Y-101000000D02*
X60528333Y-100904761D01*
X60242619Y-100904761D01*
X59956904Y-101000000D01*
X59766428Y-101190476D01*
X59671190Y-101380952D01*
X59575952Y-101761904D01*
X59575952Y-102047619D01*
X59671190Y-102428571D01*
X59766428Y-102619047D01*
X59956904Y-102809523D01*
X60242619Y-102904761D01*
X60433095Y-102904761D01*
X60718809Y-102809523D01*
X60814047Y-102714285D01*
X60814047Y-102047619D01*
X60433095Y-102047619D01*
X61671190Y-102904761D02*
X61671190Y-100904761D01*
X62814047Y-102904761D01*
X62814047Y-100904761D01*
X63766428Y-102904761D02*
X63766428Y-100904761D01*
X64242619Y-100904761D01*
X64528333Y-101000000D01*
X64718809Y-101190476D01*
X64814047Y-101380952D01*
X64909285Y-101761904D01*
X64909285Y-102047619D01*
X64814047Y-102428571D01*
X64718809Y-102619047D01*
X64528333Y-102809523D01*
X64242619Y-102904761D01*
X63766428Y-102904761D01*
X89218809Y-100000000D02*
X89028333Y-99904761D01*
X88742619Y-99904761D01*
X88456904Y-100000000D01*
X88266428Y-100190476D01*
X88171190Y-100380952D01*
X88075952Y-100761904D01*
X88075952Y-101047619D01*
X88171190Y-101428571D01*
X88266428Y-101619047D01*
X88456904Y-101809523D01*
X88742619Y-101904761D01*
X88933095Y-101904761D01*
X89218809Y-101809523D01*
X89314047Y-101714285D01*
X89314047Y-101047619D01*
X88933095Y-101047619D01*
X90171190Y-101904761D02*
X90171190Y-99904761D01*
X91314047Y-101904761D01*
X91314047Y-99904761D01*
X92266428Y-101904761D02*
X92266428Y-99904761D01*
X92742619Y-99904761D01*
X93028333Y-100000000D01*
X93218809Y-100190476D01*
X93314047Y-100380952D01*
X93409285Y-100761904D01*
X93409285Y-101047619D01*
X93314047Y-101428571D01*
X93218809Y-101619047D01*
X93028333Y-101809523D01*
X92742619Y-101904761D01*
X92266428Y-101904761D01*
D10*
X151380952Y-107452380D02*
X151047619Y-106976190D01*
X150809523Y-107452380D02*
X150809523Y-106452380D01*
X151190476Y-106452380D01*
X151285714Y-106500000D01*
X151333333Y-106547619D01*
X151380952Y-106642857D01*
X151380952Y-106785714D01*
X151333333Y-106880952D01*
X151285714Y-106928571D01*
X151190476Y-106976190D01*
X150809523Y-106976190D01*
X152238095Y-107452380D02*
X152238095Y-106928571D01*
X152190476Y-106833333D01*
X152095238Y-106785714D01*
X151904761Y-106785714D01*
X151809523Y-106833333D01*
X152238095Y-107404761D02*
X152142857Y-107452380D01*
X151904761Y-107452380D01*
X151809523Y-107404761D01*
X151761904Y-107309523D01*
X151761904Y-107214285D01*
X151809523Y-107119047D01*
X151904761Y-107071428D01*
X152142857Y-107071428D01*
X152238095Y-107023809D01*
X153142857Y-107452380D02*
X153142857Y-106452380D01*
X153142857Y-107404761D02*
X153047619Y-107452380D01*
X152857142Y-107452380D01*
X152761904Y-107404761D01*
X152714285Y-107357142D01*
X152666666Y-107261904D01*
X152666666Y-106976190D01*
X152714285Y-106880952D01*
X152761904Y-106833333D01*
X152857142Y-106785714D01*
X153047619Y-106785714D01*
X153142857Y-106833333D01*
X153619047Y-107452380D02*
X153619047Y-106785714D01*
X153619047Y-106452380D02*
X153571428Y-106500000D01*
X153619047Y-106547619D01*
X153666666Y-106500000D01*
X153619047Y-106452380D01*
X153619047Y-106547619D01*
X154238095Y-107452380D02*
X154142857Y-107404761D01*
X154095238Y-107357142D01*
X154047619Y-107261904D01*
X154047619Y-106976190D01*
X154095238Y-106880952D01*
X154142857Y-106833333D01*
X154238095Y-106785714D01*
X154380952Y-106785714D01*
X154476190Y-106833333D01*
X154523809Y-106880952D01*
X154571428Y-106976190D01*
X154571428Y-107261904D01*
X154523809Y-107357142D01*
X154476190Y-107404761D01*
X154380952Y-107452380D01*
X154238095Y-107452380D01*
X155714285Y-107166666D02*
X156190476Y-107166666D01*
X155619047Y-107452380D02*
X155952380Y-106452380D01*
X156285714Y-107452380D01*
X156571428Y-107404761D02*
X156666666Y-107452380D01*
X156857142Y-107452380D01*
X156952380Y-107404761D01*
X157000000Y-107309523D01*
X157000000Y-107261904D01*
X156952380Y-107166666D01*
X156857142Y-107119047D01*
X156714285Y-107119047D01*
X156619047Y-107071428D01*
X156571428Y-106976190D01*
X156571428Y-106928571D01*
X156619047Y-106833333D01*
X156714285Y-106785714D01*
X156857142Y-106785714D01*
X156952380Y-106833333D01*
X157285714Y-106785714D02*
X157666666Y-106785714D01*
X157428571Y-106452380D02*
X157428571Y-107309523D01*
X157476190Y-107404761D01*
X157571428Y-107452380D01*
X157666666Y-107452380D01*
X158000000Y-107452380D02*
X158000000Y-106785714D01*
X158000000Y-106976190D02*
X158047619Y-106880952D01*
X158095238Y-106833333D01*
X158190476Y-106785714D01*
X158285714Y-106785714D01*
X158761904Y-107452380D02*
X158666666Y-107404761D01*
X158619047Y-107357142D01*
X158571428Y-107261904D01*
X158571428Y-106976190D01*
X158619047Y-106880952D01*
X158666666Y-106833333D01*
X158761904Y-106785714D01*
X158904761Y-106785714D01*
X159000000Y-106833333D01*
X159047619Y-106880952D01*
X159095238Y-106976190D01*
X159095238Y-107261904D01*
X159047619Y-107357142D01*
X159000000Y-107404761D01*
X158904761Y-107452380D01*
X158761904Y-107452380D01*
X159523809Y-106785714D02*
X159523809Y-107452380D01*
X159523809Y-106880952D02*
X159571428Y-106833333D01*
X159666666Y-106785714D01*
X159809523Y-106785714D01*
X159904761Y-106833333D01*
X159952380Y-106928571D01*
X159952380Y-107452380D01*
X160571428Y-107452380D02*
X160476190Y-107404761D01*
X160428571Y-107357142D01*
X160380952Y-107261904D01*
X160380952Y-106976190D01*
X160428571Y-106880952D01*
X160476190Y-106833333D01*
X160571428Y-106785714D01*
X160714285Y-106785714D01*
X160809523Y-106833333D01*
X160857142Y-106880952D01*
X160904761Y-106976190D01*
X160904761Y-107261904D01*
X160857142Y-107357142D01*
X160809523Y-107404761D01*
X160714285Y-107452380D01*
X160571428Y-107452380D01*
X161333333Y-107452380D02*
X161333333Y-106785714D01*
X161333333Y-106880952D02*
X161380952Y-106833333D01*
X161476190Y-106785714D01*
X161619047Y-106785714D01*
X161714285Y-106833333D01*
X161761904Y-106928571D01*
X161761904Y-107452380D01*
X161761904Y-106928571D02*
X161809523Y-106833333D01*
X161904761Y-106785714D01*
X162047619Y-106785714D01*
X162142857Y-106833333D01*
X162190476Y-106928571D01*
X162190476Y-107452380D01*
X162571428Y-106785714D02*
X162809523Y-107452380D01*
X163047619Y-106785714D02*
X162809523Y-107452380D01*
X162714285Y-107690476D01*
X162666666Y-107738095D01*
X162571428Y-107785714D01*
X164619047Y-107452380D02*
X164619047Y-106928571D01*
X164571428Y-106833333D01*
X164476190Y-106785714D01*
X164285714Y-106785714D01*
X164190476Y-106833333D01*
X164619047Y-107404761D02*
X164523809Y-107452380D01*
X164285714Y-107452380D01*
X164190476Y-107404761D01*
X164142857Y-107309523D01*
X164142857Y-107214285D01*
X164190476Y-107119047D01*
X164285714Y-107071428D01*
X164523809Y-107071428D01*
X164619047Y-107023809D01*
X164952380Y-106785714D02*
X165333333Y-106785714D01*
X165095238Y-106452380D02*
X165095238Y-107309523D01*
X165142857Y-107404761D01*
X165238095Y-107452380D01*
X165333333Y-107452380D01*
X166285714Y-106785714D02*
X166666666Y-106785714D01*
X166428571Y-106452380D02*
X166428571Y-107309523D01*
X166476190Y-107404761D01*
X166571428Y-107452380D01*
X166666666Y-107452380D01*
X167000000Y-107452380D02*
X167000000Y-106452380D01*
X167428571Y-107452380D02*
X167428571Y-106928571D01*
X167380952Y-106833333D01*
X167285714Y-106785714D01*
X167142857Y-106785714D01*
X167047619Y-106833333D01*
X167000000Y-106880952D01*
X168285714Y-107404761D02*
X168190476Y-107452380D01*
X168000000Y-107452380D01*
X167904761Y-107404761D01*
X167857142Y-107309523D01*
X167857142Y-106928571D01*
X167904761Y-106833333D01*
X168000000Y-106785714D01*
X168190476Y-106785714D01*
X168285714Y-106833333D01*
X168333333Y-106928571D01*
X168333333Y-107023809D01*
X167857142Y-107119047D01*
X169476190Y-107404761D02*
X169619047Y-107452380D01*
X169857142Y-107452380D01*
X169952380Y-107404761D01*
X170000000Y-107357142D01*
X170047619Y-107261904D01*
X170047619Y-107166666D01*
X170000000Y-107071428D01*
X169952380Y-107023809D01*
X169857142Y-106976190D01*
X169666666Y-106928571D01*
X169571428Y-106880952D01*
X169523809Y-106833333D01*
X169476190Y-106738095D01*
X169476190Y-106642857D01*
X169523809Y-106547619D01*
X169571428Y-106500000D01*
X169666666Y-106452380D01*
X169904761Y-106452380D01*
X170047619Y-106500000D01*
X170476190Y-106785714D02*
X170476190Y-107785714D01*
X170476190Y-106833333D02*
X170571428Y-106785714D01*
X170761904Y-106785714D01*
X170857142Y-106833333D01*
X170904761Y-106880952D01*
X170952380Y-106976190D01*
X170952380Y-107261904D01*
X170904761Y-107357142D01*
X170857142Y-107404761D01*
X170761904Y-107452380D01*
X170571428Y-107452380D01*
X170476190Y-107404761D01*
X171761904Y-107404761D02*
X171666666Y-107452380D01*
X171476190Y-107452380D01*
X171380952Y-107404761D01*
X171333333Y-107309523D01*
X171333333Y-106928571D01*
X171380952Y-106833333D01*
X171476190Y-106785714D01*
X171666666Y-106785714D01*
X171761904Y-106833333D01*
X171809523Y-106928571D01*
X171809523Y-107023809D01*
X171333333Y-107119047D01*
X172619047Y-107404761D02*
X172523809Y-107452380D01*
X172333333Y-107452380D01*
X172238095Y-107404761D01*
X172190476Y-107309523D01*
X172190476Y-106928571D01*
X172238095Y-106833333D01*
X172333333Y-106785714D01*
X172523809Y-106785714D01*
X172619047Y-106833333D01*
X172666666Y-106928571D01*
X172666666Y-107023809D01*
X172190476Y-107119047D01*
X173523809Y-107452380D02*
X173523809Y-106452380D01*
X173523809Y-107404761D02*
X173428571Y-107452380D01*
X173238095Y-107452380D01*
X173142857Y-107404761D01*
X173095238Y-107357142D01*
X173047619Y-107261904D01*
X173047619Y-106976190D01*
X173095238Y-106880952D01*
X173142857Y-106833333D01*
X173238095Y-106785714D01*
X173428571Y-106785714D01*
X173523809Y-106833333D01*
X174904761Y-107452380D02*
X174809523Y-107404761D01*
X174761904Y-107357142D01*
X174714285Y-107261904D01*
X174714285Y-106976190D01*
X174761904Y-106880952D01*
X174809523Y-106833333D01*
X174904761Y-106785714D01*
X175047619Y-106785714D01*
X175142857Y-106833333D01*
X175190476Y-106880952D01*
X175238095Y-106976190D01*
X175238095Y-107261904D01*
X175190476Y-107357142D01*
X175142857Y-107404761D01*
X175047619Y-107452380D01*
X174904761Y-107452380D01*
X175523809Y-106785714D02*
X175904761Y-106785714D01*
X175666666Y-107452380D02*
X175666666Y-106595238D01*
X175714285Y-106500000D01*
X175809523Y-106452380D01*
X175904761Y-106452380D01*
X177476190Y-107452380D02*
X177000000Y-107452380D01*
X177000000Y-106452380D01*
X177809523Y-107452380D02*
X177809523Y-106785714D01*
X177809523Y-106452380D02*
X177761904Y-106500000D01*
X177809523Y-106547619D01*
X177857142Y-106500000D01*
X177809523Y-106452380D01*
X177809523Y-106547619D01*
X178714285Y-106785714D02*
X178714285Y-107595238D01*
X178666666Y-107690476D01*
X178619047Y-107738095D01*
X178523809Y-107785714D01*
X178380952Y-107785714D01*
X178285714Y-107738095D01*
X178714285Y-107404761D02*
X178619047Y-107452380D01*
X178428571Y-107452380D01*
X178333333Y-107404761D01*
X178285714Y-107357142D01*
X178238095Y-107261904D01*
X178238095Y-106976190D01*
X178285714Y-106880952D01*
X178333333Y-106833333D01*
X178428571Y-106785714D01*
X178619047Y-106785714D01*
X178714285Y-106833333D01*
X179190476Y-107452380D02*
X179190476Y-106452380D01*
X179619047Y-107452380D02*
X179619047Y-106928571D01*
X179571428Y-106833333D01*
X179476190Y-106785714D01*
X179333333Y-106785714D01*
X179238095Y-106833333D01*
X179190476Y-106880952D01*
X179952380Y-106785714D02*
X180333333Y-106785714D01*
X180095238Y-106452380D02*
X180095238Y-107309523D01*
X180142857Y-107404761D01*
X180238095Y-107452380D01*
X180333333Y-107452380D01*
D11*
X89123571Y-104904761D02*
X88171190Y-104904761D01*
X88075952Y-105857142D01*
X88171190Y-105761904D01*
X88361666Y-105666666D01*
X88837857Y-105666666D01*
X89028333Y-105761904D01*
X89123571Y-105857142D01*
X89218809Y-106047619D01*
X89218809Y-106523809D01*
X89123571Y-106714285D01*
X89028333Y-106809523D01*
X88837857Y-106904761D01*
X88361666Y-106904761D01*
X88171190Y-106809523D01*
X88075952Y-106714285D01*
X89790238Y-104904761D02*
X90456904Y-106904761D01*
X91123571Y-104904761D01*
X60718809Y-107404761D02*
X59575952Y-107404761D01*
X60147380Y-107404761D02*
X60147380Y-105404761D01*
X59956904Y-105690476D01*
X59766428Y-105880952D01*
X59575952Y-105976190D01*
X61480714Y-105595238D02*
X61575952Y-105500000D01*
X61766428Y-105404761D01*
X62242619Y-105404761D01*
X62433095Y-105500000D01*
X62528333Y-105595238D01*
X62623571Y-105785714D01*
X62623571Y-105976190D01*
X62528333Y-106261904D01*
X61385476Y-107404761D01*
X62623571Y-107404761D01*
X63195000Y-105404761D02*
X63861666Y-107404761D01*
X64528333Y-105404761D01*
D10*
%TO.C,Q8*%
X131929761Y-59047619D02*
X131834523Y-59000000D01*
X131739285Y-58904761D01*
X131596428Y-58761904D01*
X131501190Y-58714285D01*
X131405952Y-58714285D01*
X131453571Y-58952380D02*
X131358333Y-58904761D01*
X131263095Y-58809523D01*
X131215476Y-58619047D01*
X131215476Y-58285714D01*
X131263095Y-58095238D01*
X131358333Y-58000000D01*
X131453571Y-57952380D01*
X131644047Y-57952380D01*
X131739285Y-58000000D01*
X131834523Y-58095238D01*
X131882142Y-58285714D01*
X131882142Y-58619047D01*
X131834523Y-58809523D01*
X131739285Y-58904761D01*
X131644047Y-58952380D01*
X131453571Y-58952380D01*
X132453571Y-58380952D02*
X132358333Y-58333333D01*
X132310714Y-58285714D01*
X132263095Y-58190476D01*
X132263095Y-58142857D01*
X132310714Y-58047619D01*
X132358333Y-58000000D01*
X132453571Y-57952380D01*
X132644047Y-57952380D01*
X132739285Y-58000000D01*
X132786904Y-58047619D01*
X132834523Y-58142857D01*
X132834523Y-58190476D01*
X132786904Y-58285714D01*
X132739285Y-58333333D01*
X132644047Y-58380952D01*
X132453571Y-58380952D01*
X132358333Y-58428571D01*
X132310714Y-58476190D01*
X132263095Y-58571428D01*
X132263095Y-58761904D01*
X132310714Y-58857142D01*
X132358333Y-58904761D01*
X132453571Y-58952380D01*
X132644047Y-58952380D01*
X132739285Y-58904761D01*
X132786904Y-58857142D01*
X132834523Y-58761904D01*
X132834523Y-58571428D01*
X132786904Y-58476190D01*
X132739285Y-58428571D01*
X132644047Y-58380952D01*
%TO.C,Q7*%
X123904761Y-59047619D02*
X123809523Y-59000000D01*
X123714285Y-58904761D01*
X123571428Y-58761904D01*
X123476190Y-58714285D01*
X123380952Y-58714285D01*
X123428571Y-58952380D02*
X123333333Y-58904761D01*
X123238095Y-58809523D01*
X123190476Y-58619047D01*
X123190476Y-58285714D01*
X123238095Y-58095238D01*
X123333333Y-58000000D01*
X123428571Y-57952380D01*
X123619047Y-57952380D01*
X123714285Y-58000000D01*
X123809523Y-58095238D01*
X123857142Y-58285714D01*
X123857142Y-58619047D01*
X123809523Y-58809523D01*
X123714285Y-58904761D01*
X123619047Y-58952380D01*
X123428571Y-58952380D01*
X124190476Y-57952380D02*
X124857142Y-57952380D01*
X124428571Y-58952380D01*
%TO.C,Q6*%
X116867261Y-59047619D02*
X116772023Y-59000000D01*
X116676785Y-58904761D01*
X116533928Y-58761904D01*
X116438690Y-58714285D01*
X116343452Y-58714285D01*
X116391071Y-58952380D02*
X116295833Y-58904761D01*
X116200595Y-58809523D01*
X116152976Y-58619047D01*
X116152976Y-58285714D01*
X116200595Y-58095238D01*
X116295833Y-58000000D01*
X116391071Y-57952380D01*
X116581547Y-57952380D01*
X116676785Y-58000000D01*
X116772023Y-58095238D01*
X116819642Y-58285714D01*
X116819642Y-58619047D01*
X116772023Y-58809523D01*
X116676785Y-58904761D01*
X116581547Y-58952380D01*
X116391071Y-58952380D01*
X117676785Y-57952380D02*
X117486309Y-57952380D01*
X117391071Y-58000000D01*
X117343452Y-58047619D01*
X117248214Y-58190476D01*
X117200595Y-58380952D01*
X117200595Y-58761904D01*
X117248214Y-58857142D01*
X117295833Y-58904761D01*
X117391071Y-58952380D01*
X117581547Y-58952380D01*
X117676785Y-58904761D01*
X117724404Y-58857142D01*
X117772023Y-58761904D01*
X117772023Y-58523809D01*
X117724404Y-58428571D01*
X117676785Y-58380952D01*
X117581547Y-58333333D01*
X117391071Y-58333333D01*
X117295833Y-58380952D01*
X117248214Y-58428571D01*
X117200595Y-58523809D01*
%TO.C,Q5*%
X109929761Y-59047619D02*
X109834523Y-59000000D01*
X109739285Y-58904761D01*
X109596428Y-58761904D01*
X109501190Y-58714285D01*
X109405952Y-58714285D01*
X109453571Y-58952380D02*
X109358333Y-58904761D01*
X109263095Y-58809523D01*
X109215476Y-58619047D01*
X109215476Y-58285714D01*
X109263095Y-58095238D01*
X109358333Y-58000000D01*
X109453571Y-57952380D01*
X109644047Y-57952380D01*
X109739285Y-58000000D01*
X109834523Y-58095238D01*
X109882142Y-58285714D01*
X109882142Y-58619047D01*
X109834523Y-58809523D01*
X109739285Y-58904761D01*
X109644047Y-58952380D01*
X109453571Y-58952380D01*
X110786904Y-57952380D02*
X110310714Y-57952380D01*
X110263095Y-58428571D01*
X110310714Y-58380952D01*
X110405952Y-58333333D01*
X110644047Y-58333333D01*
X110739285Y-58380952D01*
X110786904Y-58428571D01*
X110834523Y-58523809D01*
X110834523Y-58761904D01*
X110786904Y-58857142D01*
X110739285Y-58904761D01*
X110644047Y-58952380D01*
X110405952Y-58952380D01*
X110310714Y-58904761D01*
X110263095Y-58857142D01*
%TO.C,J7*%
X102547380Y-104333333D02*
X103261666Y-104333333D01*
X103404523Y-104380952D01*
X103499761Y-104476190D01*
X103547380Y-104619047D01*
X103547380Y-104714285D01*
X102547380Y-103952380D02*
X102547380Y-103285714D01*
X103547380Y-103714285D01*
D11*
%TO.C,U1*%
X115835714Y-71934761D02*
X115169047Y-70982380D01*
X114692857Y-71934761D02*
X114692857Y-69934761D01*
X115454761Y-69934761D01*
X115645238Y-70030000D01*
X115740476Y-70125238D01*
X115835714Y-70315714D01*
X115835714Y-70601428D01*
X115740476Y-70791904D01*
X115645238Y-70887142D01*
X115454761Y-70982380D01*
X114692857Y-70982380D01*
X117550000Y-71934761D02*
X117550000Y-70887142D01*
X117454761Y-70696666D01*
X117264285Y-70601428D01*
X116883333Y-70601428D01*
X116692857Y-70696666D01*
X117550000Y-71839523D02*
X117359523Y-71934761D01*
X116883333Y-71934761D01*
X116692857Y-71839523D01*
X116597619Y-71649047D01*
X116597619Y-71458571D01*
X116692857Y-71268095D01*
X116883333Y-71172857D01*
X117359523Y-71172857D01*
X117550000Y-71077619D01*
X118407142Y-71839523D02*
X118597619Y-71934761D01*
X118978571Y-71934761D01*
X119169047Y-71839523D01*
X119264285Y-71649047D01*
X119264285Y-71553809D01*
X119169047Y-71363333D01*
X118978571Y-71268095D01*
X118692857Y-71268095D01*
X118502380Y-71172857D01*
X118407142Y-70982380D01*
X118407142Y-70887142D01*
X118502380Y-70696666D01*
X118692857Y-70601428D01*
X118978571Y-70601428D01*
X119169047Y-70696666D01*
X120121428Y-70601428D02*
X120121428Y-72601428D01*
X120121428Y-70696666D02*
X120311904Y-70601428D01*
X120692857Y-70601428D01*
X120883333Y-70696666D01*
X120978571Y-70791904D01*
X121073809Y-70982380D01*
X121073809Y-71553809D01*
X120978571Y-71744285D01*
X120883333Y-71839523D01*
X120692857Y-71934761D01*
X120311904Y-71934761D01*
X120121428Y-71839523D01*
X121930952Y-71934761D02*
X121930952Y-69934761D01*
X121930952Y-70696666D02*
X122121428Y-70601428D01*
X122502380Y-70601428D01*
X122692857Y-70696666D01*
X122788095Y-70791904D01*
X122883333Y-70982380D01*
X122883333Y-71553809D01*
X122788095Y-71744285D01*
X122692857Y-71839523D01*
X122502380Y-71934761D01*
X122121428Y-71934761D01*
X121930952Y-71839523D01*
X124502380Y-71839523D02*
X124311904Y-71934761D01*
X123930952Y-71934761D01*
X123740476Y-71839523D01*
X123645238Y-71649047D01*
X123645238Y-70887142D01*
X123740476Y-70696666D01*
X123930952Y-70601428D01*
X124311904Y-70601428D01*
X124502380Y-70696666D01*
X124597619Y-70887142D01*
X124597619Y-71077619D01*
X123645238Y-71268095D01*
X125454761Y-71934761D02*
X125454761Y-70601428D01*
X125454761Y-70982380D02*
X125550000Y-70791904D01*
X125645238Y-70696666D01*
X125835714Y-70601428D01*
X126026190Y-70601428D01*
X126692857Y-71934761D02*
X126692857Y-70601428D01*
X126692857Y-70982380D02*
X126788095Y-70791904D01*
X126883333Y-70696666D01*
X127073809Y-70601428D01*
X127264285Y-70601428D01*
X127740476Y-70601428D02*
X128216666Y-71934761D01*
X128692857Y-70601428D02*
X128216666Y-71934761D01*
X128026190Y-72410952D01*
X127930952Y-72506190D01*
X127740476Y-72601428D01*
X130978571Y-71934761D02*
X130978571Y-69934761D01*
X131740476Y-69934761D01*
X131930952Y-70030000D01*
X132026190Y-70125238D01*
X132121428Y-70315714D01*
X132121428Y-70601428D01*
X132026190Y-70791904D01*
X131930952Y-70887142D01*
X131740476Y-70982380D01*
X130978571Y-70982380D01*
X132978571Y-71934761D02*
X132978571Y-70601428D01*
X132978571Y-69934761D02*
X132883333Y-70030000D01*
X132978571Y-70125238D01*
X133073809Y-70030000D01*
X132978571Y-69934761D01*
X132978571Y-70125238D01*
X136311904Y-70601428D02*
X136311904Y-71934761D01*
X135835714Y-69839523D02*
X135359523Y-71268095D01*
X136597619Y-71268095D01*
D10*
%TO.C,H1*%
X40238095Y-71252380D02*
X40238095Y-70252380D01*
X40238095Y-70728571D02*
X40809523Y-70728571D01*
X40809523Y-71252380D02*
X40809523Y-70252380D01*
X41809523Y-71252380D02*
X41238095Y-71252380D01*
X41523809Y-71252380D02*
X41523809Y-70252380D01*
X41428571Y-70395238D01*
X41333333Y-70490476D01*
X41238095Y-70538095D01*
%TO.C,U4*%
X60238095Y-60952380D02*
X60238095Y-61761904D01*
X60285714Y-61857142D01*
X60333333Y-61904761D01*
X60428571Y-61952380D01*
X60619047Y-61952380D01*
X60714285Y-61904761D01*
X60761904Y-61857142D01*
X60809523Y-61761904D01*
X60809523Y-60952380D01*
X61714285Y-61285714D02*
X61714285Y-61952380D01*
X61476190Y-60904761D02*
X61238095Y-61619047D01*
X61857142Y-61619047D01*
%TO.C,U3*%
X60238095Y-85452380D02*
X60238095Y-86261904D01*
X60285714Y-86357142D01*
X60333333Y-86404761D01*
X60428571Y-86452380D01*
X60619047Y-86452380D01*
X60714285Y-86404761D01*
X60761904Y-86357142D01*
X60809523Y-86261904D01*
X60809523Y-85452380D01*
X61190476Y-85452380D02*
X61809523Y-85452380D01*
X61476190Y-85833333D01*
X61619047Y-85833333D01*
X61714285Y-85880952D01*
X61761904Y-85928571D01*
X61809523Y-86023809D01*
X61809523Y-86261904D01*
X61761904Y-86357142D01*
X61714285Y-86404761D01*
X61619047Y-86452380D01*
X61333333Y-86452380D01*
X61238095Y-86404761D01*
X61190476Y-86357142D01*
%TO.C,U2*%
X138952380Y-67761904D02*
X139761904Y-67761904D01*
X139857142Y-67714285D01*
X139904761Y-67666666D01*
X139952380Y-67571428D01*
X139952380Y-67380952D01*
X139904761Y-67285714D01*
X139857142Y-67238095D01*
X139761904Y-67190476D01*
X138952380Y-67190476D01*
X139047619Y-66761904D02*
X139000000Y-66714285D01*
X138952380Y-66619047D01*
X138952380Y-66380952D01*
X139000000Y-66285714D01*
X139047619Y-66238095D01*
X139142857Y-66190476D01*
X139238095Y-66190476D01*
X139380952Y-66238095D01*
X139952380Y-66809523D01*
X139952380Y-66190476D01*
%TO.C,J4*%
X54166666Y-52622380D02*
X54166666Y-53336666D01*
X54119047Y-53479523D01*
X54023809Y-53574761D01*
X53880952Y-53622380D01*
X53785714Y-53622380D01*
X55071428Y-52955714D02*
X55071428Y-53622380D01*
X54833333Y-52574761D02*
X54595238Y-53289047D01*
X55214285Y-53289047D01*
%TO.C,J3*%
X32166666Y-107582380D02*
X32166666Y-108296666D01*
X32119047Y-108439523D01*
X32023809Y-108534761D01*
X31880952Y-108582380D01*
X31785714Y-108582380D01*
X32547619Y-107582380D02*
X33166666Y-107582380D01*
X32833333Y-107963333D01*
X32976190Y-107963333D01*
X33071428Y-108010952D01*
X33119047Y-108058571D01*
X33166666Y-108153809D01*
X33166666Y-108391904D01*
X33119047Y-108487142D01*
X33071428Y-108534761D01*
X32976190Y-108582380D01*
X32690476Y-108582380D01*
X32595238Y-108534761D01*
X32547619Y-108487142D01*
%TO.C,C7*%
X145833333Y-71037142D02*
X145785714Y-71084761D01*
X145642857Y-71132380D01*
X145547619Y-71132380D01*
X145404761Y-71084761D01*
X145309523Y-70989523D01*
X145261904Y-70894285D01*
X145214285Y-70703809D01*
X145214285Y-70560952D01*
X145261904Y-70370476D01*
X145309523Y-70275238D01*
X145404761Y-70180000D01*
X145547619Y-70132380D01*
X145642857Y-70132380D01*
X145785714Y-70180000D01*
X145833333Y-70227619D01*
X146166666Y-70132380D02*
X146833333Y-70132380D01*
X146404761Y-71132380D01*
%TO.C,C6*%
X137507142Y-62666666D02*
X137554761Y-62714285D01*
X137602380Y-62857142D01*
X137602380Y-62952380D01*
X137554761Y-63095238D01*
X137459523Y-63190476D01*
X137364285Y-63238095D01*
X137173809Y-63285714D01*
X137030952Y-63285714D01*
X136840476Y-63238095D01*
X136745238Y-63190476D01*
X136650000Y-63095238D01*
X136602380Y-62952380D01*
X136602380Y-62857142D01*
X136650000Y-62714285D01*
X136697619Y-62666666D01*
X136602380Y-61809523D02*
X136602380Y-62000000D01*
X136650000Y-62095238D01*
X136697619Y-62142857D01*
X136840476Y-62238095D01*
X137030952Y-62285714D01*
X137411904Y-62285714D01*
X137507142Y-62238095D01*
X137554761Y-62190476D01*
X137602380Y-62095238D01*
X137602380Y-61904761D01*
X137554761Y-61809523D01*
X137507142Y-61761904D01*
X137411904Y-61714285D01*
X137173809Y-61714285D01*
X137078571Y-61761904D01*
X137030952Y-61809523D01*
X136983333Y-61904761D01*
X136983333Y-62095238D01*
X137030952Y-62190476D01*
X137078571Y-62238095D01*
X137173809Y-62285714D01*
%TO.C,C5*%
X73333333Y-56207142D02*
X73285714Y-56254761D01*
X73142857Y-56302380D01*
X73047619Y-56302380D01*
X72904761Y-56254761D01*
X72809523Y-56159523D01*
X72761904Y-56064285D01*
X72714285Y-55873809D01*
X72714285Y-55730952D01*
X72761904Y-55540476D01*
X72809523Y-55445238D01*
X72904761Y-55350000D01*
X73047619Y-55302380D01*
X73142857Y-55302380D01*
X73285714Y-55350000D01*
X73333333Y-55397619D01*
X74238095Y-55302380D02*
X73761904Y-55302380D01*
X73714285Y-55778571D01*
X73761904Y-55730952D01*
X73857142Y-55683333D01*
X74095238Y-55683333D01*
X74190476Y-55730952D01*
X74238095Y-55778571D01*
X74285714Y-55873809D01*
X74285714Y-56111904D01*
X74238095Y-56207142D01*
X74190476Y-56254761D01*
X74095238Y-56302380D01*
X73857142Y-56302380D01*
X73761904Y-56254761D01*
X73714285Y-56207142D01*
%TO.C,C4*%
X73333333Y-82857142D02*
X73285714Y-82904761D01*
X73142857Y-82952380D01*
X73047619Y-82952380D01*
X72904761Y-82904761D01*
X72809523Y-82809523D01*
X72761904Y-82714285D01*
X72714285Y-82523809D01*
X72714285Y-82380952D01*
X72761904Y-82190476D01*
X72809523Y-82095238D01*
X72904761Y-82000000D01*
X73047619Y-81952380D01*
X73142857Y-81952380D01*
X73285714Y-82000000D01*
X73333333Y-82047619D01*
X74190476Y-82285714D02*
X74190476Y-82952380D01*
X73952380Y-81904761D02*
X73714285Y-82619047D01*
X74333333Y-82619047D01*
%TO.C,C3*%
X86607142Y-62264015D02*
X86654761Y-62311634D01*
X86702380Y-62454491D01*
X86702380Y-62549729D01*
X86654761Y-62692587D01*
X86559523Y-62787825D01*
X86464285Y-62835444D01*
X86273809Y-62883063D01*
X86130952Y-62883063D01*
X85940476Y-62835444D01*
X85845238Y-62787825D01*
X85750000Y-62692587D01*
X85702380Y-62549729D01*
X85702380Y-62454491D01*
X85750000Y-62311634D01*
X85797619Y-62264015D01*
X85702380Y-61930682D02*
X85702380Y-61311634D01*
X86083333Y-61644968D01*
X86083333Y-61502110D01*
X86130952Y-61406872D01*
X86178571Y-61359253D01*
X86273809Y-61311634D01*
X86511904Y-61311634D01*
X86607142Y-61359253D01*
X86654761Y-61406872D01*
X86702380Y-61502110D01*
X86702380Y-61787825D01*
X86654761Y-61883063D01*
X86607142Y-61930682D01*
%TO.C,C2*%
X132107142Y-104069317D02*
X132154761Y-104116936D01*
X132202380Y-104259793D01*
X132202380Y-104355031D01*
X132154761Y-104497889D01*
X132059523Y-104593127D01*
X131964285Y-104640746D01*
X131773809Y-104688365D01*
X131630952Y-104688365D01*
X131440476Y-104640746D01*
X131345238Y-104593127D01*
X131250000Y-104497889D01*
X131202380Y-104355031D01*
X131202380Y-104259793D01*
X131250000Y-104116936D01*
X131297619Y-104069317D01*
X131297619Y-103688365D02*
X131250000Y-103640746D01*
X131202380Y-103545508D01*
X131202380Y-103307412D01*
X131250000Y-103212174D01*
X131297619Y-103164555D01*
X131392857Y-103116936D01*
X131488095Y-103116936D01*
X131630952Y-103164555D01*
X132202380Y-103735984D01*
X132202380Y-103116936D01*
%TO.C,C1*%
X87107142Y-86764015D02*
X87154761Y-86811634D01*
X87202380Y-86954491D01*
X87202380Y-87049729D01*
X87154761Y-87192587D01*
X87059523Y-87287825D01*
X86964285Y-87335444D01*
X86773809Y-87383063D01*
X86630952Y-87383063D01*
X86440476Y-87335444D01*
X86345238Y-87287825D01*
X86250000Y-87192587D01*
X86202380Y-87049729D01*
X86202380Y-86954491D01*
X86250000Y-86811634D01*
X86297619Y-86764015D01*
X87202380Y-85811634D02*
X87202380Y-86383063D01*
X87202380Y-86097349D02*
X86202380Y-86097349D01*
X86345238Y-86192587D01*
X86440476Y-86287825D01*
X86488095Y-86383063D01*
%TO.C,D1*%
X128452380Y-101238095D02*
X127452380Y-101238095D01*
X127452380Y-101000000D01*
X127500000Y-100857142D01*
X127595238Y-100761904D01*
X127690476Y-100714285D01*
X127880952Y-100666666D01*
X128023809Y-100666666D01*
X128214285Y-100714285D01*
X128309523Y-100761904D01*
X128404761Y-100857142D01*
X128452380Y-101000000D01*
X128452380Y-101238095D01*
X128452380Y-99714285D02*
X128452380Y-100285714D01*
X128452380Y-100000000D02*
X127452380Y-100000000D01*
X127595238Y-100095238D01*
X127690476Y-100190476D01*
X127738095Y-100285714D01*
%TO.C,R5*%
X136522380Y-91166666D02*
X136046190Y-91500000D01*
X136522380Y-91738095D02*
X135522380Y-91738095D01*
X135522380Y-91357142D01*
X135570000Y-91261904D01*
X135617619Y-91214285D01*
X135712857Y-91166666D01*
X135855714Y-91166666D01*
X135950952Y-91214285D01*
X135998571Y-91261904D01*
X136046190Y-91357142D01*
X136046190Y-91738095D01*
X135522380Y-90261904D02*
X135522380Y-90738095D01*
X135998571Y-90785714D01*
X135950952Y-90738095D01*
X135903333Y-90642857D01*
X135903333Y-90404761D01*
X135950952Y-90309523D01*
X135998571Y-90261904D01*
X136093809Y-90214285D01*
X136331904Y-90214285D01*
X136427142Y-90261904D01*
X136474761Y-90309523D01*
X136522380Y-90404761D01*
X136522380Y-90642857D01*
X136474761Y-90738095D01*
X136427142Y-90785714D01*
%TO.C,R23*%
X120022380Y-56642857D02*
X119546190Y-56976190D01*
X120022380Y-57214285D02*
X119022380Y-57214285D01*
X119022380Y-56833333D01*
X119070000Y-56738095D01*
X119117619Y-56690476D01*
X119212857Y-56642857D01*
X119355714Y-56642857D01*
X119450952Y-56690476D01*
X119498571Y-56738095D01*
X119546190Y-56833333D01*
X119546190Y-57214285D01*
X119117619Y-56261904D02*
X119070000Y-56214285D01*
X119022380Y-56119047D01*
X119022380Y-55880952D01*
X119070000Y-55785714D01*
X119117619Y-55738095D01*
X119212857Y-55690476D01*
X119308095Y-55690476D01*
X119450952Y-55738095D01*
X120022380Y-56309523D01*
X120022380Y-55690476D01*
X119022380Y-55357142D02*
X119022380Y-54738095D01*
X119403333Y-55071428D01*
X119403333Y-54928571D01*
X119450952Y-54833333D01*
X119498571Y-54785714D01*
X119593809Y-54738095D01*
X119831904Y-54738095D01*
X119927142Y-54785714D01*
X119974761Y-54833333D01*
X120022380Y-54928571D01*
X120022380Y-55214285D01*
X119974761Y-55309523D01*
X119927142Y-55357142D01*
%TO.C,R25*%
X123357142Y-51952380D02*
X123023809Y-51476190D01*
X122785714Y-51952380D02*
X122785714Y-50952380D01*
X123166666Y-50952380D01*
X123261904Y-51000000D01*
X123309523Y-51047619D01*
X123357142Y-51142857D01*
X123357142Y-51285714D01*
X123309523Y-51380952D01*
X123261904Y-51428571D01*
X123166666Y-51476190D01*
X122785714Y-51476190D01*
X123738095Y-51047619D02*
X123785714Y-51000000D01*
X123880952Y-50952380D01*
X124119047Y-50952380D01*
X124214285Y-51000000D01*
X124261904Y-51047619D01*
X124309523Y-51142857D01*
X124309523Y-51238095D01*
X124261904Y-51380952D01*
X123690476Y-51952380D01*
X124309523Y-51952380D01*
X125214285Y-50952380D02*
X124738095Y-50952380D01*
X124690476Y-51428571D01*
X124738095Y-51380952D01*
X124833333Y-51333333D01*
X125071428Y-51333333D01*
X125166666Y-51380952D01*
X125214285Y-51428571D01*
X125261904Y-51523809D01*
X125261904Y-51761904D01*
X125214285Y-51857142D01*
X125166666Y-51904761D01*
X125071428Y-51952380D01*
X124833333Y-51952380D01*
X124738095Y-51904761D01*
X124690476Y-51857142D01*
%TO.C,R19*%
X106022380Y-56642857D02*
X105546190Y-56976190D01*
X106022380Y-57214285D02*
X105022380Y-57214285D01*
X105022380Y-56833333D01*
X105070000Y-56738095D01*
X105117619Y-56690476D01*
X105212857Y-56642857D01*
X105355714Y-56642857D01*
X105450952Y-56690476D01*
X105498571Y-56738095D01*
X105546190Y-56833333D01*
X105546190Y-57214285D01*
X106022380Y-55690476D02*
X106022380Y-56261904D01*
X106022380Y-55976190D02*
X105022380Y-55976190D01*
X105165238Y-56071428D01*
X105260476Y-56166666D01*
X105308095Y-56261904D01*
X106022380Y-55214285D02*
X106022380Y-55023809D01*
X105974761Y-54928571D01*
X105927142Y-54880952D01*
X105784285Y-54785714D01*
X105593809Y-54738095D01*
X105212857Y-54738095D01*
X105117619Y-54785714D01*
X105070000Y-54833333D01*
X105022380Y-54928571D01*
X105022380Y-55119047D01*
X105070000Y-55214285D01*
X105117619Y-55261904D01*
X105212857Y-55309523D01*
X105450952Y-55309523D01*
X105546190Y-55261904D01*
X105593809Y-55214285D01*
X105641428Y-55119047D01*
X105641428Y-54928571D01*
X105593809Y-54833333D01*
X105546190Y-54785714D01*
X105450952Y-54738095D01*
%TO.C,D2*%
X123952380Y-101738095D02*
X122952380Y-101738095D01*
X122952380Y-101500000D01*
X123000000Y-101357142D01*
X123095238Y-101261904D01*
X123190476Y-101214285D01*
X123380952Y-101166666D01*
X123523809Y-101166666D01*
X123714285Y-101214285D01*
X123809523Y-101261904D01*
X123904761Y-101357142D01*
X123952380Y-101500000D01*
X123952380Y-101738095D01*
X123047619Y-100785714D02*
X123000000Y-100738095D01*
X122952380Y-100642857D01*
X122952380Y-100404761D01*
X123000000Y-100309523D01*
X123047619Y-100261904D01*
X123142857Y-100214285D01*
X123238095Y-100214285D01*
X123380952Y-100261904D01*
X123952380Y-100833333D01*
X123952380Y-100214285D01*
%TO.C,R7*%
X98882380Y-90666666D02*
X98406190Y-91000000D01*
X98882380Y-91238095D02*
X97882380Y-91238095D01*
X97882380Y-90857142D01*
X97930000Y-90761904D01*
X97977619Y-90714285D01*
X98072857Y-90666666D01*
X98215714Y-90666666D01*
X98310952Y-90714285D01*
X98358571Y-90761904D01*
X98406190Y-90857142D01*
X98406190Y-91238095D01*
X97882380Y-90333333D02*
X97882380Y-89666666D01*
X98882380Y-90095238D01*
%TO.C,D3*%
X24261904Y-83102380D02*
X24261904Y-82102380D01*
X24500000Y-82102380D01*
X24642857Y-82150000D01*
X24738095Y-82245238D01*
X24785714Y-82340476D01*
X24833333Y-82530952D01*
X24833333Y-82673809D01*
X24785714Y-82864285D01*
X24738095Y-82959523D01*
X24642857Y-83054761D01*
X24500000Y-83102380D01*
X24261904Y-83102380D01*
X25166666Y-82102380D02*
X25785714Y-82102380D01*
X25452380Y-82483333D01*
X25595238Y-82483333D01*
X25690476Y-82530952D01*
X25738095Y-82578571D01*
X25785714Y-82673809D01*
X25785714Y-82911904D01*
X25738095Y-83007142D01*
X25690476Y-83054761D01*
X25595238Y-83102380D01*
X25309523Y-83102380D01*
X25214285Y-83054761D01*
X25166666Y-83007142D01*
%TO.C,R9*%
X69833333Y-95952380D02*
X69500000Y-95476190D01*
X69261904Y-95952380D02*
X69261904Y-94952380D01*
X69642857Y-94952380D01*
X69738095Y-95000000D01*
X69785714Y-95047619D01*
X69833333Y-95142857D01*
X69833333Y-95285714D01*
X69785714Y-95380952D01*
X69738095Y-95428571D01*
X69642857Y-95476190D01*
X69261904Y-95476190D01*
X70309523Y-95952380D02*
X70500000Y-95952380D01*
X70595238Y-95904761D01*
X70642857Y-95857142D01*
X70738095Y-95714285D01*
X70785714Y-95523809D01*
X70785714Y-95142857D01*
X70738095Y-95047619D01*
X70690476Y-95000000D01*
X70595238Y-94952380D01*
X70404761Y-94952380D01*
X70309523Y-95000000D01*
X70261904Y-95047619D01*
X70214285Y-95142857D01*
X70214285Y-95380952D01*
X70261904Y-95476190D01*
X70309523Y-95523809D01*
X70404761Y-95571428D01*
X70595238Y-95571428D01*
X70690476Y-95523809D01*
X70738095Y-95476190D01*
X70785714Y-95380952D01*
%TO.C,R8*%
X145452380Y-88666666D02*
X144976190Y-89000000D01*
X145452380Y-89238095D02*
X144452380Y-89238095D01*
X144452380Y-88857142D01*
X144500000Y-88761904D01*
X144547619Y-88714285D01*
X144642857Y-88666666D01*
X144785714Y-88666666D01*
X144880952Y-88714285D01*
X144928571Y-88761904D01*
X144976190Y-88857142D01*
X144976190Y-89238095D01*
X144880952Y-88095238D02*
X144833333Y-88190476D01*
X144785714Y-88238095D01*
X144690476Y-88285714D01*
X144642857Y-88285714D01*
X144547619Y-88238095D01*
X144500000Y-88190476D01*
X144452380Y-88095238D01*
X144452380Y-87904761D01*
X144500000Y-87809523D01*
X144547619Y-87761904D01*
X144642857Y-87714285D01*
X144690476Y-87714285D01*
X144785714Y-87761904D01*
X144833333Y-87809523D01*
X144880952Y-87904761D01*
X144880952Y-88095238D01*
X144928571Y-88190476D01*
X144976190Y-88238095D01*
X145071428Y-88285714D01*
X145261904Y-88285714D01*
X145357142Y-88238095D01*
X145404761Y-88190476D01*
X145452380Y-88095238D01*
X145452380Y-87904761D01*
X145404761Y-87809523D01*
X145357142Y-87761904D01*
X145261904Y-87714285D01*
X145071428Y-87714285D01*
X144976190Y-87761904D01*
X144928571Y-87809523D01*
X144880952Y-87904761D01*
%TO.C,R26*%
X131656900Y-51952380D02*
X131323567Y-51476190D01*
X131085472Y-51952380D02*
X131085472Y-50952380D01*
X131466424Y-50952380D01*
X131561662Y-51000000D01*
X131609281Y-51047619D01*
X131656900Y-51142857D01*
X131656900Y-51285714D01*
X131609281Y-51380952D01*
X131561662Y-51428571D01*
X131466424Y-51476190D01*
X131085472Y-51476190D01*
X132037853Y-51047619D02*
X132085472Y-51000000D01*
X132180710Y-50952380D01*
X132418805Y-50952380D01*
X132514043Y-51000000D01*
X132561662Y-51047619D01*
X132609281Y-51142857D01*
X132609281Y-51238095D01*
X132561662Y-51380952D01*
X131990234Y-51952380D01*
X132609281Y-51952380D01*
X133466424Y-50952380D02*
X133275948Y-50952380D01*
X133180710Y-51000000D01*
X133133091Y-51047619D01*
X133037853Y-51190476D01*
X132990234Y-51380952D01*
X132990234Y-51761904D01*
X133037853Y-51857142D01*
X133085472Y-51904761D01*
X133180710Y-51952380D01*
X133371186Y-51952380D01*
X133466424Y-51904761D01*
X133514043Y-51857142D01*
X133561662Y-51761904D01*
X133561662Y-51523809D01*
X133514043Y-51428571D01*
X133466424Y-51380952D01*
X133371186Y-51333333D01*
X133180710Y-51333333D01*
X133085472Y-51380952D01*
X133037853Y-51428571D01*
X132990234Y-51523809D01*
%TO.C,R2*%
X121952380Y-101166666D02*
X121476190Y-101500000D01*
X121952380Y-101738095D02*
X120952380Y-101738095D01*
X120952380Y-101357142D01*
X121000000Y-101261904D01*
X121047619Y-101214285D01*
X121142857Y-101166666D01*
X121285714Y-101166666D01*
X121380952Y-101214285D01*
X121428571Y-101261904D01*
X121476190Y-101357142D01*
X121476190Y-101738095D01*
X121047619Y-100785714D02*
X121000000Y-100738095D01*
X120952380Y-100642857D01*
X120952380Y-100404761D01*
X121000000Y-100309523D01*
X121047619Y-100261904D01*
X121142857Y-100214285D01*
X121238095Y-100214285D01*
X121380952Y-100261904D01*
X121952380Y-100833333D01*
X121952380Y-100214285D01*
%TO.C,R4*%
X28833333Y-70882380D02*
X28500000Y-70406190D01*
X28261904Y-70882380D02*
X28261904Y-69882380D01*
X28642857Y-69882380D01*
X28738095Y-69930000D01*
X28785714Y-69977619D01*
X28833333Y-70072857D01*
X28833333Y-70215714D01*
X28785714Y-70310952D01*
X28738095Y-70358571D01*
X28642857Y-70406190D01*
X28261904Y-70406190D01*
X29690476Y-70215714D02*
X29690476Y-70882380D01*
X29452380Y-69834761D02*
X29214285Y-70549047D01*
X29833333Y-70549047D01*
%TO.C,R21*%
X109857142Y-51952380D02*
X109523809Y-51476190D01*
X109285714Y-51952380D02*
X109285714Y-50952380D01*
X109666666Y-50952380D01*
X109761904Y-51000000D01*
X109809523Y-51047619D01*
X109857142Y-51142857D01*
X109857142Y-51285714D01*
X109809523Y-51380952D01*
X109761904Y-51428571D01*
X109666666Y-51476190D01*
X109285714Y-51476190D01*
X110238095Y-51047619D02*
X110285714Y-51000000D01*
X110380952Y-50952380D01*
X110619047Y-50952380D01*
X110714285Y-51000000D01*
X110761904Y-51047619D01*
X110809523Y-51142857D01*
X110809523Y-51238095D01*
X110761904Y-51380952D01*
X110190476Y-51952380D01*
X110809523Y-51952380D01*
X111761904Y-51952380D02*
X111190476Y-51952380D01*
X111476190Y-51952380D02*
X111476190Y-50952380D01*
X111380952Y-51095238D01*
X111285714Y-51190476D01*
X111190476Y-51238095D01*
%TO.C,R24*%
X128084880Y-56642857D02*
X127608690Y-56976190D01*
X128084880Y-57214285D02*
X127084880Y-57214285D01*
X127084880Y-56833333D01*
X127132500Y-56738095D01*
X127180119Y-56690476D01*
X127275357Y-56642857D01*
X127418214Y-56642857D01*
X127513452Y-56690476D01*
X127561071Y-56738095D01*
X127608690Y-56833333D01*
X127608690Y-57214285D01*
X127180119Y-56261904D02*
X127132500Y-56214285D01*
X127084880Y-56119047D01*
X127084880Y-55880952D01*
X127132500Y-55785714D01*
X127180119Y-55738095D01*
X127275357Y-55690476D01*
X127370595Y-55690476D01*
X127513452Y-55738095D01*
X128084880Y-56309523D01*
X128084880Y-55690476D01*
X127418214Y-54833333D02*
X128084880Y-54833333D01*
X127037261Y-55071428D02*
X127751547Y-55309523D01*
X127751547Y-54690476D01*
%TO.C,R6*%
X142952380Y-88666666D02*
X142476190Y-89000000D01*
X142952380Y-89238095D02*
X141952380Y-89238095D01*
X141952380Y-88857142D01*
X142000000Y-88761904D01*
X142047619Y-88714285D01*
X142142857Y-88666666D01*
X142285714Y-88666666D01*
X142380952Y-88714285D01*
X142428571Y-88761904D01*
X142476190Y-88857142D01*
X142476190Y-89238095D01*
X141952380Y-87809523D02*
X141952380Y-88000000D01*
X142000000Y-88095238D01*
X142047619Y-88142857D01*
X142190476Y-88238095D01*
X142380952Y-88285714D01*
X142761904Y-88285714D01*
X142857142Y-88238095D01*
X142904761Y-88190476D01*
X142952380Y-88095238D01*
X142952380Y-87904761D01*
X142904761Y-87809523D01*
X142857142Y-87761904D01*
X142761904Y-87714285D01*
X142523809Y-87714285D01*
X142428571Y-87761904D01*
X142380952Y-87809523D01*
X142333333Y-87904761D01*
X142333333Y-88095238D01*
X142380952Y-88190476D01*
X142428571Y-88238095D01*
X142523809Y-88285714D01*
%TO.C,R1*%
X126452380Y-101166666D02*
X125976190Y-101500000D01*
X126452380Y-101738095D02*
X125452380Y-101738095D01*
X125452380Y-101357142D01*
X125500000Y-101261904D01*
X125547619Y-101214285D01*
X125642857Y-101166666D01*
X125785714Y-101166666D01*
X125880952Y-101214285D01*
X125928571Y-101261904D01*
X125976190Y-101357142D01*
X125976190Y-101738095D01*
X126452380Y-100214285D02*
X126452380Y-100785714D01*
X126452380Y-100500000D02*
X125452380Y-100500000D01*
X125595238Y-100595238D01*
X125690476Y-100690476D01*
X125738095Y-100785714D01*
%TO.C,R3*%
X28833333Y-82952380D02*
X28500000Y-82476190D01*
X28261904Y-82952380D02*
X28261904Y-81952380D01*
X28642857Y-81952380D01*
X28738095Y-82000000D01*
X28785714Y-82047619D01*
X28833333Y-82142857D01*
X28833333Y-82285714D01*
X28785714Y-82380952D01*
X28738095Y-82428571D01*
X28642857Y-82476190D01*
X28261904Y-82476190D01*
X29166666Y-81952380D02*
X29785714Y-81952380D01*
X29452380Y-82333333D01*
X29595238Y-82333333D01*
X29690476Y-82380952D01*
X29738095Y-82428571D01*
X29785714Y-82523809D01*
X29785714Y-82761904D01*
X29738095Y-82857142D01*
X29690476Y-82904761D01*
X29595238Y-82952380D01*
X29309523Y-82952380D01*
X29214285Y-82904761D01*
X29166666Y-82857142D01*
%TO.C,R22*%
X116294642Y-51952380D02*
X115961309Y-51476190D01*
X115723214Y-51952380D02*
X115723214Y-50952380D01*
X116104166Y-50952380D01*
X116199404Y-51000000D01*
X116247023Y-51047619D01*
X116294642Y-51142857D01*
X116294642Y-51285714D01*
X116247023Y-51380952D01*
X116199404Y-51428571D01*
X116104166Y-51476190D01*
X115723214Y-51476190D01*
X116675595Y-51047619D02*
X116723214Y-51000000D01*
X116818452Y-50952380D01*
X117056547Y-50952380D01*
X117151785Y-51000000D01*
X117199404Y-51047619D01*
X117247023Y-51142857D01*
X117247023Y-51238095D01*
X117199404Y-51380952D01*
X116627976Y-51952380D01*
X117247023Y-51952380D01*
X117627976Y-51047619D02*
X117675595Y-51000000D01*
X117770833Y-50952380D01*
X118008928Y-50952380D01*
X118104166Y-51000000D01*
X118151785Y-51047619D01*
X118199404Y-51142857D01*
X118199404Y-51238095D01*
X118151785Y-51380952D01*
X117580357Y-51952380D01*
X118199404Y-51952380D01*
%TO.C,R10*%
X69357142Y-71952380D02*
X69023809Y-71476190D01*
X68785714Y-71952380D02*
X68785714Y-70952380D01*
X69166666Y-70952380D01*
X69261904Y-71000000D01*
X69309523Y-71047619D01*
X69357142Y-71142857D01*
X69357142Y-71285714D01*
X69309523Y-71380952D01*
X69261904Y-71428571D01*
X69166666Y-71476190D01*
X68785714Y-71476190D01*
X70309523Y-71952380D02*
X69738095Y-71952380D01*
X70023809Y-71952380D02*
X70023809Y-70952380D01*
X69928571Y-71095238D01*
X69833333Y-71190476D01*
X69738095Y-71238095D01*
X70928571Y-70952380D02*
X71023809Y-70952380D01*
X71119047Y-71000000D01*
X71166666Y-71047619D01*
X71214285Y-71142857D01*
X71261904Y-71333333D01*
X71261904Y-71571428D01*
X71214285Y-71761904D01*
X71166666Y-71857142D01*
X71119047Y-71904761D01*
X71023809Y-71952380D01*
X70928571Y-71952380D01*
X70833333Y-71904761D01*
X70785714Y-71857142D01*
X70738095Y-71761904D01*
X70690476Y-71571428D01*
X70690476Y-71333333D01*
X70738095Y-71142857D01*
X70785714Y-71047619D01*
X70833333Y-71000000D01*
X70928571Y-70952380D01*
%TO.C,D4*%
X24199404Y-71452380D02*
X24199404Y-70452380D01*
X24437500Y-70452380D01*
X24580357Y-70500000D01*
X24675595Y-70595238D01*
X24723214Y-70690476D01*
X24770833Y-70880952D01*
X24770833Y-71023809D01*
X24723214Y-71214285D01*
X24675595Y-71309523D01*
X24580357Y-71404761D01*
X24437500Y-71452380D01*
X24199404Y-71452380D01*
X25627976Y-70785714D02*
X25627976Y-71452380D01*
X25389880Y-70404761D02*
X25151785Y-71119047D01*
X25770833Y-71119047D01*
%TO.C,R20*%
X112959880Y-56692857D02*
X112483690Y-57026190D01*
X112959880Y-57264285D02*
X111959880Y-57264285D01*
X111959880Y-56883333D01*
X112007500Y-56788095D01*
X112055119Y-56740476D01*
X112150357Y-56692857D01*
X112293214Y-56692857D01*
X112388452Y-56740476D01*
X112436071Y-56788095D01*
X112483690Y-56883333D01*
X112483690Y-57264285D01*
X112055119Y-56311904D02*
X112007500Y-56264285D01*
X111959880Y-56169047D01*
X111959880Y-55930952D01*
X112007500Y-55835714D01*
X112055119Y-55788095D01*
X112150357Y-55740476D01*
X112245595Y-55740476D01*
X112388452Y-55788095D01*
X112959880Y-56359523D01*
X112959880Y-55740476D01*
X111959880Y-55121428D02*
X111959880Y-55026190D01*
X112007500Y-54930952D01*
X112055119Y-54883333D01*
X112150357Y-54835714D01*
X112340833Y-54788095D01*
X112578928Y-54788095D01*
X112769404Y-54835714D01*
X112864642Y-54883333D01*
X112912261Y-54930952D01*
X112959880Y-55026190D01*
X112959880Y-55121428D01*
X112912261Y-55216666D01*
X112864642Y-55264285D01*
X112769404Y-55311904D01*
X112578928Y-55359523D01*
X112340833Y-55359523D01*
X112150357Y-55311904D01*
X112055119Y-55264285D01*
X112007500Y-55216666D01*
X111959880Y-55121428D01*
D13*
%TO.C,Q8*%
X132730000Y-56500000D02*
X132730000Y-57160000D01*
X132730000Y-54840000D02*
X132730000Y-55500000D01*
X132730000Y-54840000D02*
X130700000Y-54840000D01*
X131320000Y-57160000D02*
X132730000Y-57160000D01*
%TO.C,Q7*%
X124730000Y-56500000D02*
X124730000Y-57160000D01*
X124730000Y-54840000D02*
X124730000Y-55500000D01*
X124730000Y-54840000D02*
X122700000Y-54840000D01*
X123320000Y-57160000D02*
X124730000Y-57160000D01*
%TO.C,Q6*%
X117667500Y-56550000D02*
X117667500Y-57210000D01*
X117667500Y-54890000D02*
X117667500Y-55550000D01*
X117667500Y-54890000D02*
X115637500Y-54890000D01*
X116257500Y-57210000D02*
X117667500Y-57210000D01*
%TO.C,Q5*%
X110730000Y-56500000D02*
X110730000Y-57160000D01*
X110730000Y-54840000D02*
X110730000Y-55500000D01*
X110730000Y-54840000D02*
X108700000Y-54840000D01*
X109320000Y-57160000D02*
X110730000Y-57160000D01*
%TO.C,J7*%
X116915000Y-105330000D02*
X116915000Y-102670000D01*
X106695000Y-105330000D02*
X116915000Y-105330000D01*
X106695000Y-102670000D02*
X116915000Y-102670000D01*
X106695000Y-105330000D02*
X106695000Y-102670000D01*
X105425000Y-105330000D02*
X104095000Y-105330000D01*
X104095000Y-105330000D02*
X104095000Y-104000000D01*
%TO.C,U1*%
X88550000Y-46030000D02*
X88550000Y-96030000D01*
X173550000Y-96030000D02*
X173550000Y-46030000D01*
X170550000Y-43030000D02*
X91550000Y-43030000D01*
X91550000Y-99030000D02*
X170550000Y-99030000D01*
X158650000Y-77280000D02*
X176250000Y-77280000D01*
X176250000Y-77280000D02*
X176250000Y-62780000D01*
X176250000Y-62780000D02*
X158650000Y-62780000D01*
X158650000Y-62780000D02*
X158650000Y-77280000D01*
X88550000Y-76880000D02*
X85750000Y-76880000D01*
X85750000Y-76880000D02*
X85750000Y-65880000D01*
X85750000Y-65880000D02*
X88550000Y-65880000D01*
X88550000Y-65880000D02*
X88550000Y-76880000D01*
X154950000Y-96780000D02*
X176250000Y-96780000D01*
X176250000Y-96780000D02*
X176250000Y-80780000D01*
X176250000Y-80780000D02*
X154950000Y-80780000D01*
X154950000Y-80780000D02*
X154950000Y-96780000D01*
X111300000Y-49280000D02*
X117800000Y-49280000D01*
X117800000Y-49280000D02*
X117800000Y-41280000D01*
X117800000Y-41280000D02*
X111300000Y-41280000D01*
X111300000Y-41280000D02*
X111300000Y-49280000D01*
X95650000Y-98070000D02*
X146450000Y-98070000D01*
X146450000Y-98070000D02*
X146450000Y-92990000D01*
X146450000Y-92990000D02*
X95650000Y-92990000D01*
X95650000Y-92990000D02*
X95650000Y-98070000D01*
X95250000Y-48830000D02*
X104250000Y-48830000D01*
X104250000Y-48830000D02*
X104250000Y-41530000D01*
X104250000Y-41530000D02*
X95250000Y-41530000D01*
X95250000Y-41530000D02*
X95250000Y-48830000D01*
X158650000Y-59280000D02*
X176250000Y-59280000D01*
X176250000Y-59280000D02*
X176250000Y-44780000D01*
X176250000Y-44780000D02*
X158650000Y-44780000D01*
X158650000Y-44780000D02*
X158650000Y-59280000D01*
X139050000Y-55430000D02*
X146050000Y-55430000D01*
X146050000Y-55430000D02*
X146050000Y-40780000D01*
X146050000Y-40780000D02*
X139050000Y-40780000D01*
X139050000Y-40780000D02*
X139050000Y-55430000D01*
X124800000Y-49280000D02*
X131300000Y-49280000D01*
X131300000Y-49280000D02*
X131300000Y-41280000D01*
X131300000Y-41280000D02*
X124800000Y-41280000D01*
X124800000Y-41280000D02*
X124800000Y-49280000D01*
X173550000Y-46030000D02*
G75*
G03*
X170550000Y-43030000I-3000001J-1D01*
G01*
X88550000Y-96030000D02*
G75*
G03*
X91550000Y-99030000I3000001J1D01*
G01*
X170550000Y-99030000D02*
G75*
G03*
X173550000Y-96030000I-1J3000001D01*
G01*
X91550000Y-43030000D02*
G75*
G03*
X88550000Y-46030000I1J-3000001D01*
G01*
%TO.C,U4*%
X46350000Y-59300000D02*
X46350000Y-63800000D01*
X75650000Y-59300000D02*
X46350000Y-59300000D01*
X75650000Y-59300000D02*
X75650000Y-63800000D01*
X73000000Y-63800000D02*
X75650000Y-63800000D01*
X46350000Y-63800000D02*
X49000000Y-63800000D01*
%TO.C,U3*%
X46350000Y-83800000D02*
X46350000Y-88300000D01*
X75650000Y-83800000D02*
X46350000Y-83800000D01*
X75650000Y-83800000D02*
X75650000Y-88300000D01*
X73000000Y-88300000D02*
X75650000Y-88300000D01*
X46350000Y-88300000D02*
X49000000Y-88300000D01*
%TO.C,U2*%
X147385000Y-64000000D02*
X147385000Y-61800000D01*
X147385000Y-64000000D02*
X147385000Y-66200000D01*
X140615000Y-64000000D02*
X140615000Y-61800000D01*
X140615000Y-64000000D02*
X140615000Y-67600000D01*
%TO.C,J6*%
X28880000Y-58460000D02*
G75*
G03*
X28880000Y-58460000I-2180000J0D01*
G01*
X28880000Y-63540000D02*
G75*
G03*
X28880000Y-63540000I-2180000J0D01*
G01*
X21900000Y-55860000D02*
X21900000Y-66140000D01*
X24400000Y-55860000D02*
X24400000Y-66140000D01*
X30600000Y-55860000D02*
X30600000Y-66140000D01*
X32660000Y-55860000D02*
X32660000Y-66140000D01*
X21340000Y-55860000D02*
X21340000Y-66140000D01*
X32660000Y-55860000D02*
X21340000Y-55860000D01*
X32660000Y-66140000D02*
X21340000Y-66140000D01*
X28088000Y-60114000D02*
X27981000Y-60007000D01*
X25153000Y-57178000D02*
X25046000Y-57072000D01*
X28354000Y-59848000D02*
X28247000Y-59741000D01*
X25419000Y-56912000D02*
X25312000Y-56806000D01*
X28088000Y-65194000D02*
X27692000Y-64799000D01*
X25426000Y-62533000D02*
X25046000Y-62153000D01*
X28354000Y-64928000D02*
X27974000Y-64548000D01*
X25708000Y-62282000D02*
X25312000Y-61887000D01*
X21840000Y-55620000D02*
X21100000Y-55620000D01*
X21100000Y-55620000D02*
X21100000Y-56120000D01*
%TO.C,J5*%
X28880000Y-86460000D02*
G75*
G03*
X28880000Y-86460000I-2180000J0D01*
G01*
X28880000Y-91540000D02*
G75*
G03*
X28880000Y-91540000I-2180000J0D01*
G01*
X21900000Y-83860000D02*
X21900000Y-94140000D01*
X24400000Y-83860000D02*
X24400000Y-94140000D01*
X30600000Y-83860000D02*
X30600000Y-94140000D01*
X32660000Y-83860000D02*
X32660000Y-94140000D01*
X21340000Y-83860000D02*
X21340000Y-94140000D01*
X32660000Y-83860000D02*
X21340000Y-83860000D01*
X32660000Y-94140000D02*
X21340000Y-94140000D01*
X28088000Y-88114000D02*
X27981000Y-88007000D01*
X25153000Y-85178000D02*
X25046000Y-85072000D01*
X28354000Y-87848000D02*
X28247000Y-87741000D01*
X25419000Y-84912000D02*
X25312000Y-84806000D01*
X28088000Y-93194000D02*
X27692000Y-92799000D01*
X25426000Y-90533000D02*
X25046000Y-90153000D01*
X28354000Y-92928000D02*
X27974000Y-92548000D01*
X25708000Y-90282000D02*
X25312000Y-89887000D01*
X21840000Y-83620000D02*
X21100000Y-83620000D01*
X21100000Y-83620000D02*
X21100000Y-84120000D01*
%TO.C,J4*%
X40435000Y-44800000D02*
X40435000Y-44490000D01*
X40435000Y-44490000D02*
X24565000Y-44490000D01*
X24565000Y-44490000D02*
X24565000Y-44800000D01*
X40435000Y-46320000D02*
X40435000Y-52080000D01*
X40435000Y-52080000D02*
X39015000Y-52080000D01*
X39015000Y-52080000D02*
X39015000Y-51580000D01*
X39015000Y-51580000D02*
X25985000Y-51580000D01*
X25985000Y-51580000D02*
X25985000Y-52080000D01*
X25985000Y-52080000D02*
X24565000Y-52080000D01*
X24565000Y-52080000D02*
X24565000Y-46320000D01*
%TO.C,J3*%
X40435000Y-99760000D02*
X40435000Y-99450000D01*
X40435000Y-99450000D02*
X24565000Y-99450000D01*
X24565000Y-99450000D02*
X24565000Y-99760000D01*
X40435000Y-101280000D02*
X40435000Y-107040000D01*
X40435000Y-107040000D02*
X39015000Y-107040000D01*
X39015000Y-107040000D02*
X39015000Y-106540000D01*
X39015000Y-106540000D02*
X25985000Y-106540000D01*
X25985000Y-106540000D02*
X25985000Y-107040000D01*
X25985000Y-107040000D02*
X24565000Y-107040000D01*
X24565000Y-107040000D02*
X24565000Y-101280000D01*
%TO.C,J2*%
X83180000Y-106000000D02*
G75*
G03*
X83180000Y-106000000I-2180000J0D01*
G01*
X83180000Y-100920000D02*
G75*
G03*
X83180000Y-100920000I-2180000J0D01*
G01*
X85800000Y-108600000D02*
X85800000Y-98320000D01*
X83300000Y-108600000D02*
X83300000Y-98320000D01*
X77100000Y-108600000D02*
X77100000Y-98320000D01*
X75040000Y-108600000D02*
X75040000Y-98320000D01*
X86360000Y-108600000D02*
X86360000Y-98320000D01*
X75040000Y-108600000D02*
X86360000Y-108600000D01*
X75040000Y-98320000D02*
X86360000Y-98320000D01*
X79612000Y-104346000D02*
X79719000Y-104453000D01*
X82547000Y-107282000D02*
X82654000Y-107388000D01*
X79346000Y-104612000D02*
X79453000Y-104719000D01*
X82281000Y-107548000D02*
X82388000Y-107654000D01*
X79612000Y-99266000D02*
X80008000Y-99661000D01*
X82274000Y-101927000D02*
X82654000Y-102307000D01*
X79346000Y-99532000D02*
X79726000Y-99912000D01*
X81992000Y-102178000D02*
X82388000Y-102573000D01*
X85860000Y-108840000D02*
X86600000Y-108840000D01*
X86600000Y-108840000D02*
X86600000Y-108340000D01*
%TO.C,J1*%
X54480000Y-106545000D02*
G75*
G03*
X54480000Y-106545000I-2180000J0D01*
G01*
X54480000Y-101465000D02*
G75*
G03*
X54480000Y-101465000I-2180000J0D01*
G01*
X57100000Y-109145000D02*
X57100000Y-98865000D01*
X54600000Y-109145000D02*
X54600000Y-98865000D01*
X48400000Y-109145000D02*
X48400000Y-98865000D01*
X46340000Y-109145000D02*
X46340000Y-98865000D01*
X57660000Y-109145000D02*
X57660000Y-98865000D01*
X46340000Y-109145000D02*
X57660000Y-109145000D01*
X46340000Y-98865000D02*
X57660000Y-98865000D01*
X50912000Y-104891000D02*
X51019000Y-104998000D01*
X53847000Y-107827000D02*
X53954000Y-107933000D01*
X50646000Y-105157000D02*
X50753000Y-105264000D01*
X53581000Y-108093000D02*
X53688000Y-108199000D01*
X50912000Y-99811000D02*
X51308000Y-100206000D01*
X53574000Y-102472000D02*
X53954000Y-102852000D01*
X50646000Y-100077000D02*
X51026000Y-100457000D01*
X53292000Y-102723000D02*
X53688000Y-103118000D01*
X57160000Y-109385000D02*
X57900000Y-109385000D01*
X57900000Y-109385000D02*
X57900000Y-108885000D01*
%TO.C,C7*%
X146261252Y-69735000D02*
X145738748Y-69735000D01*
X146261252Y-68265000D02*
X145738748Y-68265000D01*
%TO.C,C6*%
X138090000Y-63211252D02*
X138090000Y-61788748D01*
X139910000Y-63211252D02*
X139910000Y-61788748D01*
%TO.C,C5*%
X74211252Y-54910000D02*
X72788748Y-54910000D01*
X74211252Y-53090000D02*
X72788748Y-53090000D01*
%TO.C,C4*%
X74211252Y-85910000D02*
X72788748Y-85910000D01*
X74211252Y-84090000D02*
X72788748Y-84090000D01*
%TO.C,C3*%
X85120000Y-62097349D02*
G75*
G03*
X85120000Y-62097349I-4120000J0D01*
G01*
X85080000Y-62097349D02*
X76920000Y-62097349D01*
X85080000Y-62137349D02*
X76920000Y-62137349D01*
X85080000Y-62177349D02*
X76920000Y-62177349D01*
X85079000Y-62217349D02*
X76921000Y-62217349D01*
X85077000Y-62257349D02*
X76923000Y-62257349D01*
X85076000Y-62297349D02*
X76924000Y-62297349D01*
X85074000Y-62337349D02*
X76926000Y-62337349D01*
X85071000Y-62377349D02*
X76929000Y-62377349D01*
X85068000Y-62417349D02*
X76932000Y-62417349D01*
X85065000Y-62457349D02*
X76935000Y-62457349D01*
X85061000Y-62497349D02*
X76939000Y-62497349D01*
X85057000Y-62537349D02*
X76943000Y-62537349D01*
X85052000Y-62577349D02*
X76948000Y-62577349D01*
X85048000Y-62617349D02*
X76952000Y-62617349D01*
X85042000Y-62657349D02*
X76958000Y-62657349D01*
X85037000Y-62697349D02*
X76963000Y-62697349D01*
X85030000Y-62737349D02*
X76970000Y-62737349D01*
X85024000Y-62777349D02*
X76976000Y-62777349D01*
X85017000Y-62818349D02*
X82040000Y-62818349D01*
X79960000Y-62818349D02*
X76983000Y-62818349D01*
X85010000Y-62858349D02*
X82040000Y-62858349D01*
X79960000Y-62858349D02*
X76990000Y-62858349D01*
X85002000Y-62898349D02*
X82040000Y-62898349D01*
X79960000Y-62898349D02*
X76998000Y-62898349D01*
X84994000Y-62938349D02*
X82040000Y-62938349D01*
X79960000Y-62938349D02*
X77006000Y-62938349D01*
X84985000Y-62978349D02*
X82040000Y-62978349D01*
X79960000Y-62978349D02*
X77015000Y-62978349D01*
X84976000Y-63018349D02*
X82040000Y-63018349D01*
X79960000Y-63018349D02*
X77024000Y-63018349D01*
X84967000Y-63058349D02*
X82040000Y-63058349D01*
X79960000Y-63058349D02*
X77033000Y-63058349D01*
X84957000Y-63098349D02*
X82040000Y-63098349D01*
X79960000Y-63098349D02*
X77043000Y-63098349D01*
X84947000Y-63138349D02*
X82040000Y-63138349D01*
X79960000Y-63138349D02*
X77053000Y-63138349D01*
X84936000Y-63178349D02*
X82040000Y-63178349D01*
X79960000Y-63178349D02*
X77064000Y-63178349D01*
X84925000Y-63218349D02*
X82040000Y-63218349D01*
X79960000Y-63218349D02*
X77075000Y-63218349D01*
X84914000Y-63258349D02*
X82040000Y-63258349D01*
X79960000Y-63258349D02*
X77086000Y-63258349D01*
X84902000Y-63298349D02*
X82040000Y-63298349D01*
X79960000Y-63298349D02*
X77098000Y-63298349D01*
X84889000Y-63338349D02*
X82040000Y-63338349D01*
X79960000Y-63338349D02*
X77111000Y-63338349D01*
X84877000Y-63378349D02*
X82040000Y-63378349D01*
X79960000Y-63378349D02*
X77123000Y-63378349D01*
X84863000Y-63418349D02*
X82040000Y-63418349D01*
X79960000Y-63418349D02*
X77137000Y-63418349D01*
X84850000Y-63458349D02*
X82040000Y-63458349D01*
X79960000Y-63458349D02*
X77150000Y-63458349D01*
X84835000Y-63498349D02*
X82040000Y-63498349D01*
X79960000Y-63498349D02*
X77165000Y-63498349D01*
X84821000Y-63538349D02*
X82040000Y-63538349D01*
X79960000Y-63538349D02*
X77179000Y-63538349D01*
X84805000Y-63578349D02*
X82040000Y-63578349D01*
X79960000Y-63578349D02*
X77195000Y-63578349D01*
X84790000Y-63618349D02*
X82040000Y-63618349D01*
X79960000Y-63618349D02*
X77210000Y-63618349D01*
X84774000Y-63658349D02*
X82040000Y-63658349D01*
X79960000Y-63658349D02*
X77226000Y-63658349D01*
X84757000Y-63698349D02*
X82040000Y-63698349D01*
X79960000Y-63698349D02*
X77243000Y-63698349D01*
X84740000Y-63738349D02*
X82040000Y-63738349D01*
X79960000Y-63738349D02*
X77260000Y-63738349D01*
X84722000Y-63778349D02*
X82040000Y-63778349D01*
X79960000Y-63778349D02*
X77278000Y-63778349D01*
X84704000Y-63818349D02*
X82040000Y-63818349D01*
X79960000Y-63818349D02*
X77296000Y-63818349D01*
X84686000Y-63858349D02*
X82040000Y-63858349D01*
X79960000Y-63858349D02*
X77314000Y-63858349D01*
X84666000Y-63898349D02*
X82040000Y-63898349D01*
X79960000Y-63898349D02*
X77334000Y-63898349D01*
X84647000Y-63938349D02*
X82040000Y-63938349D01*
X79960000Y-63938349D02*
X77353000Y-63938349D01*
X84627000Y-63978349D02*
X82040000Y-63978349D01*
X79960000Y-63978349D02*
X77373000Y-63978349D01*
X84606000Y-64018349D02*
X82040000Y-64018349D01*
X79960000Y-64018349D02*
X77394000Y-64018349D01*
X84584000Y-64058349D02*
X82040000Y-64058349D01*
X79960000Y-64058349D02*
X77416000Y-64058349D01*
X84562000Y-64098349D02*
X82040000Y-64098349D01*
X79960000Y-64098349D02*
X77438000Y-64098349D01*
X84540000Y-64138349D02*
X82040000Y-64138349D01*
X79960000Y-64138349D02*
X77460000Y-64138349D01*
X84517000Y-64178349D02*
X82040000Y-64178349D01*
X79960000Y-64178349D02*
X77483000Y-64178349D01*
X84493000Y-64218349D02*
X82040000Y-64218349D01*
X79960000Y-64218349D02*
X77507000Y-64218349D01*
X84469000Y-64258349D02*
X82040000Y-64258349D01*
X79960000Y-64258349D02*
X77531000Y-64258349D01*
X84444000Y-64298349D02*
X82040000Y-64298349D01*
X79960000Y-64298349D02*
X77556000Y-64298349D01*
X84418000Y-64338349D02*
X82040000Y-64338349D01*
X79960000Y-64338349D02*
X77582000Y-64338349D01*
X84392000Y-64378349D02*
X82040000Y-64378349D01*
X79960000Y-64378349D02*
X77608000Y-64378349D01*
X84365000Y-64418349D02*
X82040000Y-64418349D01*
X79960000Y-64418349D02*
X77635000Y-64418349D01*
X84338000Y-64458349D02*
X82040000Y-64458349D01*
X79960000Y-64458349D02*
X77662000Y-64458349D01*
X84309000Y-64498349D02*
X82040000Y-64498349D01*
X79960000Y-64498349D02*
X77691000Y-64498349D01*
X84280000Y-64538349D02*
X82040000Y-64538349D01*
X79960000Y-64538349D02*
X77720000Y-64538349D01*
X84250000Y-64578349D02*
X82040000Y-64578349D01*
X79960000Y-64578349D02*
X77750000Y-64578349D01*
X84220000Y-64618349D02*
X82040000Y-64618349D01*
X79960000Y-64618349D02*
X77780000Y-64618349D01*
X84189000Y-64658349D02*
X82040000Y-64658349D01*
X79960000Y-64658349D02*
X77811000Y-64658349D01*
X84156000Y-64698349D02*
X82040000Y-64698349D01*
X79960000Y-64698349D02*
X77844000Y-64698349D01*
X84124000Y-64738349D02*
X82040000Y-64738349D01*
X79960000Y-64738349D02*
X77876000Y-64738349D01*
X84090000Y-64778349D02*
X82040000Y-64778349D01*
X79960000Y-64778349D02*
X77910000Y-64778349D01*
X84055000Y-64818349D02*
X82040000Y-64818349D01*
X79960000Y-64818349D02*
X77945000Y-64818349D01*
X84019000Y-64858349D02*
X82040000Y-64858349D01*
X79960000Y-64858349D02*
X77981000Y-64858349D01*
X83983000Y-64898349D02*
X78017000Y-64898349D01*
X83945000Y-64938349D02*
X78055000Y-64938349D01*
X83907000Y-64978349D02*
X78093000Y-64978349D01*
X83867000Y-65018349D02*
X78133000Y-65018349D01*
X83826000Y-65058349D02*
X78174000Y-65058349D01*
X83784000Y-65098349D02*
X78216000Y-65098349D01*
X83741000Y-65138349D02*
X78259000Y-65138349D01*
X83697000Y-65178349D02*
X78303000Y-65178349D01*
X83651000Y-65218349D02*
X78349000Y-65218349D01*
X83604000Y-65258349D02*
X78396000Y-65258349D01*
X83556000Y-65298349D02*
X78444000Y-65298349D01*
X83505000Y-65338349D02*
X78495000Y-65338349D01*
X83454000Y-65378349D02*
X78546000Y-65378349D01*
X83400000Y-65418349D02*
X78600000Y-65418349D01*
X83345000Y-65458349D02*
X78655000Y-65458349D01*
X83287000Y-65498349D02*
X78713000Y-65498349D01*
X83228000Y-65538349D02*
X78772000Y-65538349D01*
X83166000Y-65578349D02*
X78834000Y-65578349D01*
X83102000Y-65618349D02*
X78898000Y-65618349D01*
X83034000Y-65658349D02*
X78966000Y-65658349D01*
X82964000Y-65698349D02*
X79036000Y-65698349D01*
X82890000Y-65738349D02*
X79110000Y-65738349D01*
X82813000Y-65778349D02*
X79187000Y-65778349D01*
X82731000Y-65818349D02*
X79269000Y-65818349D01*
X82645000Y-65858349D02*
X79355000Y-65858349D01*
X82552000Y-65898349D02*
X79448000Y-65898349D01*
X82453000Y-65938349D02*
X79547000Y-65938349D01*
X82346000Y-65978349D02*
X79654000Y-65978349D01*
X82229000Y-66018349D02*
X79771000Y-66018349D01*
X82098000Y-66058349D02*
X79902000Y-66058349D01*
X81948000Y-66098349D02*
X80052000Y-66098349D01*
X81768000Y-66138349D02*
X80232000Y-66138349D01*
X81533000Y-66178349D02*
X80467000Y-66178349D01*
X83315000Y-57687651D02*
X83315000Y-58487651D01*
X83715000Y-58087651D02*
X82915000Y-58087651D01*
%TO.C,C2*%
X141120000Y-103902651D02*
G75*
G03*
X141120000Y-103902651I-4120000J0D01*
G01*
X132920000Y-103902651D02*
X141080000Y-103902651D01*
X132920000Y-103862651D02*
X141080000Y-103862651D01*
X132920000Y-103822651D02*
X141080000Y-103822651D01*
X132921000Y-103782651D02*
X141079000Y-103782651D01*
X132923000Y-103742651D02*
X141077000Y-103742651D01*
X132924000Y-103702651D02*
X141076000Y-103702651D01*
X132926000Y-103662651D02*
X141074000Y-103662651D01*
X132929000Y-103622651D02*
X141071000Y-103622651D01*
X132932000Y-103582651D02*
X141068000Y-103582651D01*
X132935000Y-103542651D02*
X141065000Y-103542651D01*
X132939000Y-103502651D02*
X141061000Y-103502651D01*
X132943000Y-103462651D02*
X141057000Y-103462651D01*
X132948000Y-103422651D02*
X141052000Y-103422651D01*
X132952000Y-103382651D02*
X141048000Y-103382651D01*
X132958000Y-103342651D02*
X141042000Y-103342651D01*
X132963000Y-103302651D02*
X141037000Y-103302651D01*
X132970000Y-103262651D02*
X141030000Y-103262651D01*
X132976000Y-103222651D02*
X141024000Y-103222651D01*
X132983000Y-103181651D02*
X135960000Y-103181651D01*
X138040000Y-103181651D02*
X141017000Y-103181651D01*
X132990000Y-103141651D02*
X135960000Y-103141651D01*
X138040000Y-103141651D02*
X141010000Y-103141651D01*
X132998000Y-103101651D02*
X135960000Y-103101651D01*
X138040000Y-103101651D02*
X141002000Y-103101651D01*
X133006000Y-103061651D02*
X135960000Y-103061651D01*
X138040000Y-103061651D02*
X140994000Y-103061651D01*
X133015000Y-103021651D02*
X135960000Y-103021651D01*
X138040000Y-103021651D02*
X140985000Y-103021651D01*
X133024000Y-102981651D02*
X135960000Y-102981651D01*
X138040000Y-102981651D02*
X140976000Y-102981651D01*
X133033000Y-102941651D02*
X135960000Y-102941651D01*
X138040000Y-102941651D02*
X140967000Y-102941651D01*
X133043000Y-102901651D02*
X135960000Y-102901651D01*
X138040000Y-102901651D02*
X140957000Y-102901651D01*
X133053000Y-102861651D02*
X135960000Y-102861651D01*
X138040000Y-102861651D02*
X140947000Y-102861651D01*
X133064000Y-102821651D02*
X135960000Y-102821651D01*
X138040000Y-102821651D02*
X140936000Y-102821651D01*
X133075000Y-102781651D02*
X135960000Y-102781651D01*
X138040000Y-102781651D02*
X140925000Y-102781651D01*
X133086000Y-102741651D02*
X135960000Y-102741651D01*
X138040000Y-102741651D02*
X140914000Y-102741651D01*
X133098000Y-102701651D02*
X135960000Y-102701651D01*
X138040000Y-102701651D02*
X140902000Y-102701651D01*
X133111000Y-102661651D02*
X135960000Y-102661651D01*
X138040000Y-102661651D02*
X140889000Y-102661651D01*
X133123000Y-102621651D02*
X135960000Y-102621651D01*
X138040000Y-102621651D02*
X140877000Y-102621651D01*
X133137000Y-102581651D02*
X135960000Y-102581651D01*
X138040000Y-102581651D02*
X140863000Y-102581651D01*
X133150000Y-102541651D02*
X135960000Y-102541651D01*
X138040000Y-102541651D02*
X140850000Y-102541651D01*
X133165000Y-102501651D02*
X135960000Y-102501651D01*
X138040000Y-102501651D02*
X140835000Y-102501651D01*
X133179000Y-102461651D02*
X135960000Y-102461651D01*
X138040000Y-102461651D02*
X140821000Y-102461651D01*
X133195000Y-102421651D02*
X135960000Y-102421651D01*
X138040000Y-102421651D02*
X140805000Y-102421651D01*
X133210000Y-102381651D02*
X135960000Y-102381651D01*
X138040000Y-102381651D02*
X140790000Y-102381651D01*
X133226000Y-102341651D02*
X135960000Y-102341651D01*
X138040000Y-102341651D02*
X140774000Y-102341651D01*
X133243000Y-102301651D02*
X135960000Y-102301651D01*
X138040000Y-102301651D02*
X140757000Y-102301651D01*
X133260000Y-102261651D02*
X135960000Y-102261651D01*
X138040000Y-102261651D02*
X140740000Y-102261651D01*
X133278000Y-102221651D02*
X135960000Y-102221651D01*
X138040000Y-102221651D02*
X140722000Y-102221651D01*
X133296000Y-102181651D02*
X135960000Y-102181651D01*
X138040000Y-102181651D02*
X140704000Y-102181651D01*
X133314000Y-102141651D02*
X135960000Y-102141651D01*
X138040000Y-102141651D02*
X140686000Y-102141651D01*
X133334000Y-102101651D02*
X135960000Y-102101651D01*
X138040000Y-102101651D02*
X140666000Y-102101651D01*
X133353000Y-102061651D02*
X135960000Y-102061651D01*
X138040000Y-102061651D02*
X140647000Y-102061651D01*
X133373000Y-102021651D02*
X135960000Y-102021651D01*
X138040000Y-102021651D02*
X140627000Y-102021651D01*
X133394000Y-101981651D02*
X135960000Y-101981651D01*
X138040000Y-101981651D02*
X140606000Y-101981651D01*
X133416000Y-101941651D02*
X135960000Y-101941651D01*
X138040000Y-101941651D02*
X140584000Y-101941651D01*
X133438000Y-101901651D02*
X135960000Y-101901651D01*
X138040000Y-101901651D02*
X140562000Y-101901651D01*
X133460000Y-101861651D02*
X135960000Y-101861651D01*
X138040000Y-101861651D02*
X140540000Y-101861651D01*
X133483000Y-101821651D02*
X135960000Y-101821651D01*
X138040000Y-101821651D02*
X140517000Y-101821651D01*
X133507000Y-101781651D02*
X135960000Y-101781651D01*
X138040000Y-101781651D02*
X140493000Y-101781651D01*
X133531000Y-101741651D02*
X135960000Y-101741651D01*
X138040000Y-101741651D02*
X140469000Y-101741651D01*
X133556000Y-101701651D02*
X135960000Y-101701651D01*
X138040000Y-101701651D02*
X140444000Y-101701651D01*
X133582000Y-101661651D02*
X135960000Y-101661651D01*
X138040000Y-101661651D02*
X140418000Y-101661651D01*
X133608000Y-101621651D02*
X135960000Y-101621651D01*
X138040000Y-101621651D02*
X140392000Y-101621651D01*
X133635000Y-101581651D02*
X135960000Y-101581651D01*
X138040000Y-101581651D02*
X140365000Y-101581651D01*
X133662000Y-101541651D02*
X135960000Y-101541651D01*
X138040000Y-101541651D02*
X140338000Y-101541651D01*
X133691000Y-101501651D02*
X135960000Y-101501651D01*
X138040000Y-101501651D02*
X140309000Y-101501651D01*
X133720000Y-101461651D02*
X135960000Y-101461651D01*
X138040000Y-101461651D02*
X140280000Y-101461651D01*
X133750000Y-101421651D02*
X135960000Y-101421651D01*
X138040000Y-101421651D02*
X140250000Y-101421651D01*
X133780000Y-101381651D02*
X135960000Y-101381651D01*
X138040000Y-101381651D02*
X140220000Y-101381651D01*
X133811000Y-101341651D02*
X135960000Y-101341651D01*
X138040000Y-101341651D02*
X140189000Y-101341651D01*
X133844000Y-101301651D02*
X135960000Y-101301651D01*
X138040000Y-101301651D02*
X140156000Y-101301651D01*
X133876000Y-101261651D02*
X135960000Y-101261651D01*
X138040000Y-101261651D02*
X140124000Y-101261651D01*
X133910000Y-101221651D02*
X135960000Y-101221651D01*
X138040000Y-101221651D02*
X140090000Y-101221651D01*
X133945000Y-101181651D02*
X135960000Y-101181651D01*
X138040000Y-101181651D02*
X140055000Y-101181651D01*
X133981000Y-101141651D02*
X135960000Y-101141651D01*
X138040000Y-101141651D02*
X140019000Y-101141651D01*
X134017000Y-101101651D02*
X139983000Y-101101651D01*
X134055000Y-101061651D02*
X139945000Y-101061651D01*
X134093000Y-101021651D02*
X139907000Y-101021651D01*
X134133000Y-100981651D02*
X139867000Y-100981651D01*
X134174000Y-100941651D02*
X139826000Y-100941651D01*
X134216000Y-100901651D02*
X139784000Y-100901651D01*
X134259000Y-100861651D02*
X139741000Y-100861651D01*
X134303000Y-100821651D02*
X139697000Y-100821651D01*
X134349000Y-100781651D02*
X139651000Y-100781651D01*
X134396000Y-100741651D02*
X139604000Y-100741651D01*
X134444000Y-100701651D02*
X139556000Y-100701651D01*
X134495000Y-100661651D02*
X139505000Y-100661651D01*
X134546000Y-100621651D02*
X139454000Y-100621651D01*
X134600000Y-100581651D02*
X139400000Y-100581651D01*
X134655000Y-100541651D02*
X139345000Y-100541651D01*
X134713000Y-100501651D02*
X139287000Y-100501651D01*
X134772000Y-100461651D02*
X139228000Y-100461651D01*
X134834000Y-100421651D02*
X139166000Y-100421651D01*
X134898000Y-100381651D02*
X139102000Y-100381651D01*
X134966000Y-100341651D02*
X139034000Y-100341651D01*
X135036000Y-100301651D02*
X138964000Y-100301651D01*
X135110000Y-100261651D02*
X138890000Y-100261651D01*
X135187000Y-100221651D02*
X138813000Y-100221651D01*
X135269000Y-100181651D02*
X138731000Y-100181651D01*
X135355000Y-100141651D02*
X138645000Y-100141651D01*
X135448000Y-100101651D02*
X138552000Y-100101651D01*
X135547000Y-100061651D02*
X138453000Y-100061651D01*
X135654000Y-100021651D02*
X138346000Y-100021651D01*
X135771000Y-99981651D02*
X138229000Y-99981651D01*
X135902000Y-99941651D02*
X138098000Y-99941651D01*
X136052000Y-99901651D02*
X137948000Y-99901651D01*
X136232000Y-99861651D02*
X137768000Y-99861651D01*
X136467000Y-99821651D02*
X137533000Y-99821651D01*
X134685000Y-108312349D02*
X134685000Y-107512349D01*
X134285000Y-107912349D02*
X135085000Y-107912349D01*
%TO.C,C1*%
X84215000Y-82587651D02*
X83415000Y-82587651D01*
X83815000Y-82187651D02*
X83815000Y-82987651D01*
X82033000Y-90678349D02*
X80967000Y-90678349D01*
X82268000Y-90638349D02*
X80732000Y-90638349D01*
X82448000Y-90598349D02*
X80552000Y-90598349D01*
X82598000Y-90558349D02*
X80402000Y-90558349D01*
X82729000Y-90518349D02*
X80271000Y-90518349D01*
X82846000Y-90478349D02*
X80154000Y-90478349D01*
X82953000Y-90438349D02*
X80047000Y-90438349D01*
X83052000Y-90398349D02*
X79948000Y-90398349D01*
X83145000Y-90358349D02*
X79855000Y-90358349D01*
X83231000Y-90318349D02*
X79769000Y-90318349D01*
X83313000Y-90278349D02*
X79687000Y-90278349D01*
X83390000Y-90238349D02*
X79610000Y-90238349D01*
X83464000Y-90198349D02*
X79536000Y-90198349D01*
X83534000Y-90158349D02*
X79466000Y-90158349D01*
X83602000Y-90118349D02*
X79398000Y-90118349D01*
X83666000Y-90078349D02*
X79334000Y-90078349D01*
X83728000Y-90038349D02*
X79272000Y-90038349D01*
X83787000Y-89998349D02*
X79213000Y-89998349D01*
X83845000Y-89958349D02*
X79155000Y-89958349D01*
X83900000Y-89918349D02*
X79100000Y-89918349D01*
X83954000Y-89878349D02*
X79046000Y-89878349D01*
X84005000Y-89838349D02*
X78995000Y-89838349D01*
X84056000Y-89798349D02*
X78944000Y-89798349D01*
X84104000Y-89758349D02*
X78896000Y-89758349D01*
X84151000Y-89718349D02*
X78849000Y-89718349D01*
X84197000Y-89678349D02*
X78803000Y-89678349D01*
X84241000Y-89638349D02*
X78759000Y-89638349D01*
X84284000Y-89598349D02*
X78716000Y-89598349D01*
X84326000Y-89558349D02*
X78674000Y-89558349D01*
X84367000Y-89518349D02*
X78633000Y-89518349D01*
X84407000Y-89478349D02*
X78593000Y-89478349D01*
X84445000Y-89438349D02*
X78555000Y-89438349D01*
X84483000Y-89398349D02*
X78517000Y-89398349D01*
X80460000Y-89358349D02*
X78481000Y-89358349D01*
X84519000Y-89358349D02*
X82540000Y-89358349D01*
X80460000Y-89318349D02*
X78445000Y-89318349D01*
X84555000Y-89318349D02*
X82540000Y-89318349D01*
X80460000Y-89278349D02*
X78410000Y-89278349D01*
X84590000Y-89278349D02*
X82540000Y-89278349D01*
X80460000Y-89238349D02*
X78376000Y-89238349D01*
X84624000Y-89238349D02*
X82540000Y-89238349D01*
X80460000Y-89198349D02*
X78344000Y-89198349D01*
X84656000Y-89198349D02*
X82540000Y-89198349D01*
X80460000Y-89158349D02*
X78311000Y-89158349D01*
X84689000Y-89158349D02*
X82540000Y-89158349D01*
X80460000Y-89118349D02*
X78280000Y-89118349D01*
X84720000Y-89118349D02*
X82540000Y-89118349D01*
X80460000Y-89078349D02*
X78250000Y-89078349D01*
X84750000Y-89078349D02*
X82540000Y-89078349D01*
X80460000Y-89038349D02*
X78220000Y-89038349D01*
X84780000Y-89038349D02*
X82540000Y-89038349D01*
X80460000Y-88998349D02*
X78191000Y-88998349D01*
X84809000Y-88998349D02*
X82540000Y-88998349D01*
X80460000Y-88958349D02*
X78162000Y-88958349D01*
X84838000Y-88958349D02*
X82540000Y-88958349D01*
X80460000Y-88918349D02*
X78135000Y-88918349D01*
X84865000Y-88918349D02*
X82540000Y-88918349D01*
X80460000Y-88878349D02*
X78108000Y-88878349D01*
X84892000Y-88878349D02*
X82540000Y-88878349D01*
X80460000Y-88838349D02*
X78082000Y-88838349D01*
X84918000Y-88838349D02*
X82540000Y-88838349D01*
X80460000Y-88798349D02*
X78056000Y-88798349D01*
X84944000Y-88798349D02*
X82540000Y-88798349D01*
X80460000Y-88758349D02*
X78031000Y-88758349D01*
X84969000Y-88758349D02*
X82540000Y-88758349D01*
X80460000Y-88718349D02*
X78007000Y-88718349D01*
X84993000Y-88718349D02*
X82540000Y-88718349D01*
X80460000Y-88678349D02*
X77983000Y-88678349D01*
X85017000Y-88678349D02*
X82540000Y-88678349D01*
X80460000Y-88638349D02*
X77960000Y-88638349D01*
X85040000Y-88638349D02*
X82540000Y-88638349D01*
X80460000Y-88598349D02*
X77938000Y-88598349D01*
X85062000Y-88598349D02*
X82540000Y-88598349D01*
X80460000Y-88558349D02*
X77916000Y-88558349D01*
X85084000Y-88558349D02*
X82540000Y-88558349D01*
X80460000Y-88518349D02*
X77894000Y-88518349D01*
X85106000Y-88518349D02*
X82540000Y-88518349D01*
X80460000Y-88478349D02*
X77873000Y-88478349D01*
X85127000Y-88478349D02*
X82540000Y-88478349D01*
X80460000Y-88438349D02*
X77853000Y-88438349D01*
X85147000Y-88438349D02*
X82540000Y-88438349D01*
X80460000Y-88398349D02*
X77834000Y-88398349D01*
X85166000Y-88398349D02*
X82540000Y-88398349D01*
X80460000Y-88358349D02*
X77814000Y-88358349D01*
X85186000Y-88358349D02*
X82540000Y-88358349D01*
X80460000Y-88318349D02*
X77796000Y-88318349D01*
X85204000Y-88318349D02*
X82540000Y-88318349D01*
X80460000Y-88278349D02*
X77778000Y-88278349D01*
X85222000Y-88278349D02*
X82540000Y-88278349D01*
X80460000Y-88238349D02*
X77760000Y-88238349D01*
X85240000Y-88238349D02*
X82540000Y-88238349D01*
X80460000Y-88198349D02*
X77743000Y-88198349D01*
X85257000Y-88198349D02*
X82540000Y-88198349D01*
X80460000Y-88158349D02*
X77726000Y-88158349D01*
X85274000Y-88158349D02*
X82540000Y-88158349D01*
X80460000Y-88118349D02*
X77710000Y-88118349D01*
X85290000Y-88118349D02*
X82540000Y-88118349D01*
X80460000Y-88078349D02*
X77695000Y-88078349D01*
X85305000Y-88078349D02*
X82540000Y-88078349D01*
X80460000Y-88038349D02*
X77679000Y-88038349D01*
X85321000Y-88038349D02*
X82540000Y-88038349D01*
X80460000Y-87998349D02*
X77665000Y-87998349D01*
X85335000Y-87998349D02*
X82540000Y-87998349D01*
X80460000Y-87958349D02*
X77650000Y-87958349D01*
X85350000Y-87958349D02*
X82540000Y-87958349D01*
X80460000Y-87918349D02*
X77637000Y-87918349D01*
X85363000Y-87918349D02*
X82540000Y-87918349D01*
X80460000Y-87878349D02*
X77623000Y-87878349D01*
X85377000Y-87878349D02*
X82540000Y-87878349D01*
X80460000Y-87838349D02*
X77611000Y-87838349D01*
X85389000Y-87838349D02*
X82540000Y-87838349D01*
X80460000Y-87798349D02*
X77598000Y-87798349D01*
X85402000Y-87798349D02*
X82540000Y-87798349D01*
X80460000Y-87758349D02*
X77586000Y-87758349D01*
X85414000Y-87758349D02*
X82540000Y-87758349D01*
X80460000Y-87718349D02*
X77575000Y-87718349D01*
X85425000Y-87718349D02*
X82540000Y-87718349D01*
X80460000Y-87678349D02*
X77564000Y-87678349D01*
X85436000Y-87678349D02*
X82540000Y-87678349D01*
X80460000Y-87638349D02*
X77553000Y-87638349D01*
X85447000Y-87638349D02*
X82540000Y-87638349D01*
X80460000Y-87598349D02*
X77543000Y-87598349D01*
X85457000Y-87598349D02*
X82540000Y-87598349D01*
X80460000Y-87558349D02*
X77533000Y-87558349D01*
X85467000Y-87558349D02*
X82540000Y-87558349D01*
X80460000Y-87518349D02*
X77524000Y-87518349D01*
X85476000Y-87518349D02*
X82540000Y-87518349D01*
X80460000Y-87478349D02*
X77515000Y-87478349D01*
X85485000Y-87478349D02*
X82540000Y-87478349D01*
X80460000Y-87438349D02*
X77506000Y-87438349D01*
X85494000Y-87438349D02*
X82540000Y-87438349D01*
X80460000Y-87398349D02*
X77498000Y-87398349D01*
X85502000Y-87398349D02*
X82540000Y-87398349D01*
X80460000Y-87358349D02*
X77490000Y-87358349D01*
X85510000Y-87358349D02*
X82540000Y-87358349D01*
X80460000Y-87318349D02*
X77483000Y-87318349D01*
X85517000Y-87318349D02*
X82540000Y-87318349D01*
X85524000Y-87277349D02*
X77476000Y-87277349D01*
X85530000Y-87237349D02*
X77470000Y-87237349D01*
X85537000Y-87197349D02*
X77463000Y-87197349D01*
X85542000Y-87157349D02*
X77458000Y-87157349D01*
X85548000Y-87117349D02*
X77452000Y-87117349D01*
X85552000Y-87077349D02*
X77448000Y-87077349D01*
X85557000Y-87037349D02*
X77443000Y-87037349D01*
X85561000Y-86997349D02*
X77439000Y-86997349D01*
X85565000Y-86957349D02*
X77435000Y-86957349D01*
X85568000Y-86917349D02*
X77432000Y-86917349D01*
X85571000Y-86877349D02*
X77429000Y-86877349D01*
X85574000Y-86837349D02*
X77426000Y-86837349D01*
X85576000Y-86797349D02*
X77424000Y-86797349D01*
X85577000Y-86757349D02*
X77423000Y-86757349D01*
X85579000Y-86717349D02*
X77421000Y-86717349D01*
X85580000Y-86677349D02*
X77420000Y-86677349D01*
X85580000Y-86637349D02*
X77420000Y-86637349D01*
X85580000Y-86597349D02*
X77420000Y-86597349D01*
X85620000Y-86597349D02*
G75*
G03*
X85620000Y-86597349I-4120000J0D01*
G01*
%TO.C,D1*%
X127040000Y-102500000D02*
X127040000Y-105185000D01*
X127040000Y-105185000D02*
X128960000Y-105185000D01*
X128960000Y-105185000D02*
X128960000Y-102500000D01*
%TO.C,R5*%
X136977500Y-91237258D02*
X136977500Y-90762742D01*
X138022500Y-91237258D02*
X138022500Y-90762742D01*
%TO.C,R23*%
X120477500Y-56237258D02*
X120477500Y-55762742D01*
X121522500Y-56237258D02*
X121522500Y-55762742D01*
%TO.C,R25*%
X124237258Y-53522500D02*
X123762742Y-53522500D01*
X124237258Y-52477500D02*
X123762742Y-52477500D01*
%TO.C,R19*%
X106477500Y-56237258D02*
X106477500Y-55762742D01*
X107522500Y-56237258D02*
X107522500Y-55762742D01*
%TO.C,D2*%
X122540000Y-102500000D02*
X122540000Y-105185000D01*
X122540000Y-105185000D02*
X124460000Y-105185000D01*
X124460000Y-105185000D02*
X124460000Y-102500000D01*
%TO.C,TP3*%
X118300000Y-90970000D02*
X120700000Y-90970000D01*
X120700000Y-90970000D02*
X120700000Y-86070000D01*
X120700000Y-86070000D02*
X118300000Y-86070000D01*
X118300000Y-86070000D02*
X118300000Y-90970000D01*
%TO.C,TP1*%
X42200000Y-97200000D02*
X42200000Y-94800000D01*
X42200000Y-94800000D02*
X37300000Y-94800000D01*
X37300000Y-94800000D02*
X37300000Y-97200000D01*
X37300000Y-97200000D02*
X42200000Y-97200000D01*
%TO.C,R7*%
X97522500Y-90262742D02*
X97522500Y-90737258D01*
X96477500Y-90262742D02*
X96477500Y-90737258D01*
%TO.C,D3*%
X24000000Y-81960000D02*
X26685000Y-81960000D01*
X26685000Y-81960000D02*
X26685000Y-80040000D01*
X26685000Y-80040000D02*
X24000000Y-80040000D01*
%TO.C,R9*%
X69762742Y-93477500D02*
X70237258Y-93477500D01*
X69762742Y-94522500D02*
X70237258Y-94522500D01*
%TO.C,TP5*%
X125300000Y-90970000D02*
X127700000Y-90970000D01*
X127700000Y-90970000D02*
X127700000Y-86070000D01*
X127700000Y-86070000D02*
X125300000Y-86070000D01*
X125300000Y-86070000D02*
X125300000Y-90970000D01*
%TO.C,TP8*%
X128800000Y-90970000D02*
X131200000Y-90970000D01*
X131200000Y-90970000D02*
X131200000Y-86070000D01*
X131200000Y-86070000D02*
X128800000Y-86070000D01*
X128800000Y-86070000D02*
X128800000Y-90970000D01*
%TO.C,R8*%
X144477500Y-91237258D02*
X144477500Y-90762742D01*
X145522500Y-91237258D02*
X145522500Y-90762742D01*
%TO.C,R26*%
X132299758Y-53472500D02*
X131825242Y-53472500D01*
X132299758Y-52427500D02*
X131825242Y-52427500D01*
%TO.C,G1*%
G36*
X172070166Y-101473727D02*
G01*
X172481561Y-101561532D01*
X172568085Y-101587145D01*
X172716178Y-101639274D01*
X172843714Y-101694879D01*
X172918830Y-101739019D01*
X173004781Y-101808618D01*
X172869634Y-102126801D01*
X172805143Y-102268556D01*
X172748199Y-102375690D01*
X172707833Y-102431910D01*
X172698043Y-102436432D01*
X172645291Y-102417687D01*
X172541339Y-102376572D01*
X172408278Y-102321833D01*
X172402821Y-102319550D01*
X172240073Y-102260076D01*
X172077437Y-102222664D01*
X171883355Y-102201163D01*
X171760046Y-102194251D01*
X171550055Y-102190990D01*
X171372560Y-102199765D01*
X171249401Y-102219384D01*
X171238392Y-102222712D01*
X171073672Y-102308523D01*
X170961544Y-102432882D01*
X170914532Y-102581168D01*
X170913856Y-102601601D01*
X170920888Y-102694777D01*
X170947975Y-102771632D01*
X171004101Y-102837267D01*
X171098250Y-102896782D01*
X171239407Y-102955278D01*
X171436555Y-103017856D01*
X171698681Y-103089617D01*
X171836115Y-103125210D01*
X172187380Y-103223344D01*
X172468457Y-103321649D01*
X172688615Y-103425425D01*
X172857123Y-103539970D01*
X172983253Y-103670584D01*
X173076274Y-103822564D01*
X173083770Y-103838402D01*
X173135715Y-104014269D01*
X173157000Y-104230787D01*
X173146406Y-104454624D01*
X173112428Y-104622424D01*
X173014156Y-104825492D01*
X172851627Y-105018647D01*
X172640153Y-105189009D01*
X172395045Y-105323698D01*
X172194366Y-105394637D01*
X171980164Y-105436129D01*
X171720413Y-105462457D01*
X171448022Y-105472029D01*
X171195900Y-105463257D01*
X171070672Y-105448940D01*
X170890903Y-105415284D01*
X170699641Y-105371369D01*
X170612835Y-105348105D01*
X170478885Y-105302457D01*
X170330646Y-105241169D01*
X170185515Y-105172967D01*
X170060886Y-105106580D01*
X169974155Y-105050735D01*
X169942718Y-105014160D01*
X169943189Y-105012128D01*
X169963172Y-104965002D01*
X170006832Y-104863510D01*
X170066129Y-104726318D01*
X170091159Y-104668546D01*
X170227930Y-104353077D01*
X170472633Y-104483015D01*
X170776767Y-104618855D01*
X171083209Y-104699085D01*
X171418343Y-104729425D01*
X171601601Y-104727792D01*
X171853947Y-104707529D01*
X172038046Y-104664147D01*
X172163081Y-104593089D01*
X172238235Y-104489799D01*
X172265629Y-104398314D01*
X172273182Y-104287188D01*
X172245438Y-104192871D01*
X172174964Y-104110558D01*
X172054328Y-104035444D01*
X171876096Y-103962723D01*
X171632837Y-103887592D01*
X171367712Y-103817825D01*
X170975564Y-103706099D01*
X170657977Y-103583777D01*
X170410122Y-103446347D01*
X170227168Y-103289300D01*
X170104287Y-103108126D01*
X170036649Y-102898313D01*
X170019423Y-102655353D01*
X170024283Y-102563250D01*
X170079017Y-102284738D01*
X170199385Y-102046420D01*
X170374706Y-101850472D01*
X170631042Y-101670501D01*
X170939122Y-101541597D01*
X171288581Y-101465004D01*
X171669051Y-101441965D01*
X172070166Y-101473727D01*
G37*
G36*
X179355746Y-101473727D02*
G01*
X179767140Y-101561532D01*
X179853665Y-101587145D01*
X180001758Y-101639274D01*
X180129294Y-101694879D01*
X180204410Y-101739019D01*
X180290361Y-101808618D01*
X180155214Y-102126801D01*
X180090723Y-102268556D01*
X180033779Y-102375690D01*
X179993413Y-102431910D01*
X179983623Y-102436432D01*
X179930871Y-102417687D01*
X179826919Y-102376572D01*
X179693858Y-102321833D01*
X179688401Y-102319550D01*
X179525653Y-102260076D01*
X179363017Y-102222664D01*
X179168935Y-102201163D01*
X179045626Y-102194251D01*
X178835635Y-102190990D01*
X178658139Y-102199765D01*
X178534981Y-102219384D01*
X178523972Y-102222712D01*
X178359252Y-102308523D01*
X178247124Y-102432882D01*
X178200112Y-102581168D01*
X178199436Y-102601601D01*
X178206468Y-102694777D01*
X178233555Y-102771632D01*
X178289681Y-102837267D01*
X178383830Y-102896782D01*
X178524987Y-102955278D01*
X178722135Y-103017856D01*
X178984260Y-103089617D01*
X179121695Y-103125210D01*
X179472960Y-103223344D01*
X179754037Y-103321649D01*
X179974195Y-103425425D01*
X180142703Y-103539970D01*
X180268833Y-103670584D01*
X180361854Y-103822564D01*
X180369350Y-103838402D01*
X180421295Y-104014269D01*
X180442580Y-104230787D01*
X180431986Y-104454624D01*
X180398008Y-104622424D01*
X180299736Y-104825492D01*
X180137207Y-105018647D01*
X179925733Y-105189009D01*
X179680625Y-105323698D01*
X179479946Y-105394637D01*
X179265744Y-105436129D01*
X179005993Y-105462457D01*
X178733602Y-105472029D01*
X178481480Y-105463257D01*
X178356252Y-105448940D01*
X178176483Y-105415284D01*
X177985221Y-105371369D01*
X177898415Y-105348105D01*
X177764465Y-105302457D01*
X177616226Y-105241169D01*
X177471095Y-105172967D01*
X177346465Y-105106580D01*
X177259735Y-105050735D01*
X177228298Y-105014160D01*
X177228769Y-105012128D01*
X177248752Y-104965002D01*
X177292412Y-104863510D01*
X177351709Y-104726318D01*
X177376739Y-104668546D01*
X177513510Y-104353077D01*
X177758213Y-104483015D01*
X178062347Y-104618855D01*
X178368789Y-104699085D01*
X178703923Y-104729425D01*
X178887181Y-104727792D01*
X179139527Y-104707529D01*
X179323626Y-104664147D01*
X179448661Y-104593089D01*
X179523814Y-104489799D01*
X179551209Y-104398314D01*
X179558762Y-104287188D01*
X179531018Y-104192871D01*
X179460544Y-104110558D01*
X179339908Y-104035444D01*
X179161676Y-103962723D01*
X178918417Y-103887592D01*
X178653292Y-103817825D01*
X178261144Y-103706099D01*
X177943557Y-103583777D01*
X177695702Y-103446347D01*
X177512748Y-103289300D01*
X177389867Y-103108126D01*
X177322229Y-102898313D01*
X177305003Y-102655353D01*
X177309863Y-102563250D01*
X177364597Y-102284738D01*
X177484965Y-102046420D01*
X177660286Y-101850472D01*
X177916622Y-101670501D01*
X178224702Y-101541597D01*
X178574161Y-101465004D01*
X178954631Y-101441965D01*
X179355746Y-101473727D01*
G37*
G36*
X176742320Y-101683002D02*
G01*
X176736309Y-101838836D01*
X176721421Y-102006408D01*
X176717002Y-102041309D01*
X176691685Y-102226019D01*
X174672100Y-102226019D01*
X174672100Y-103110398D01*
X175587776Y-103096187D01*
X176503452Y-103081975D01*
X176503450Y-103430330D01*
X176503448Y-103778684D01*
X174672100Y-103778684D01*
X174672100Y-104696856D01*
X176802038Y-104674452D01*
X176776668Y-105410972D01*
X173796238Y-105410972D01*
X173796238Y-101509405D01*
X176742320Y-101509405D01*
X176742320Y-101683002D01*
G37*
G36*
X166659953Y-101510096D02*
G01*
X167033284Y-101512020D01*
X167335948Y-101517504D01*
X167576838Y-101526952D01*
X167764849Y-101540769D01*
X167908873Y-101559356D01*
X167960307Y-101569088D01*
X168359844Y-101689251D01*
X168706289Y-101867174D01*
X168996620Y-102099158D01*
X169227815Y-102381507D01*
X169396851Y-102710524D01*
X169500707Y-103082513D01*
X169536362Y-103493777D01*
X169536364Y-103497070D01*
X169499446Y-103882586D01*
X169391768Y-104237006D01*
X169217943Y-104554903D01*
X168982581Y-104830851D01*
X168690296Y-105059425D01*
X168345700Y-105235197D01*
X167960307Y-105351289D01*
X167832724Y-105372090D01*
X167665044Y-105387943D01*
X167448375Y-105399253D01*
X167173821Y-105406421D01*
X166832490Y-105409852D01*
X166659953Y-105410281D01*
X165634796Y-105410972D01*
X165634796Y-104661397D01*
X166510658Y-104661397D01*
X167157602Y-104647480D01*
X167401497Y-104641530D01*
X167581142Y-104634317D01*
X167711909Y-104623652D01*
X167809166Y-104607346D01*
X167888283Y-104583209D01*
X167964630Y-104549054D01*
X168009093Y-104526211D01*
X168257496Y-104354863D01*
X168442568Y-104135872D01*
X168562985Y-103871549D01*
X168617420Y-103564204D01*
X168620690Y-103460188D01*
X168587164Y-103140742D01*
X168487777Y-102863396D01*
X168324313Y-102631254D01*
X168098558Y-102447418D01*
X168009093Y-102397063D01*
X167940689Y-102362948D01*
X167878288Y-102336514D01*
X167810293Y-102316314D01*
X167725111Y-102300902D01*
X167611146Y-102288831D01*
X167456804Y-102278653D01*
X167250488Y-102268922D01*
X166980605Y-102258191D01*
X166859013Y-102253551D01*
X166510658Y-102240293D01*
X166510658Y-104661397D01*
X165634796Y-104661397D01*
X165634796Y-101509405D01*
X166659953Y-101510096D01*
G37*
%TO.C,R2*%
X120977500Y-103737258D02*
X120977500Y-103262742D01*
X122022500Y-103737258D02*
X122022500Y-103262742D01*
%TO.C,R4*%
X29237258Y-69522500D02*
X28762742Y-69522500D01*
X29237258Y-68477500D02*
X28762742Y-68477500D01*
%TO.C,R21*%
X110237258Y-53522500D02*
X109762742Y-53522500D01*
X110237258Y-52477500D02*
X109762742Y-52477500D01*
%TO.C,TP2*%
X56030000Y-94800000D02*
X56030000Y-97200000D01*
X56030000Y-97200000D02*
X60930000Y-97200000D01*
X60930000Y-97200000D02*
X60930000Y-94800000D01*
X60930000Y-94800000D02*
X56030000Y-94800000D01*
%TO.C,R24*%
X128540000Y-56237258D02*
X128540000Y-55762742D01*
X129585000Y-56237258D02*
X129585000Y-55762742D01*
%TO.C,R6*%
X141977500Y-91237258D02*
X141977500Y-90762742D01*
X143022500Y-91237258D02*
X143022500Y-90762742D01*
%TO.C,R1*%
X126522500Y-103262742D02*
X126522500Y-103737258D01*
X125477500Y-103262742D02*
X125477500Y-103737258D01*
%TO.C,R3*%
X28762742Y-80477500D02*
X29237258Y-80477500D01*
X28762742Y-81522500D02*
X29237258Y-81522500D01*
%TO.C,TP4*%
X121800000Y-90970000D02*
X124200000Y-90970000D01*
X124200000Y-90970000D02*
X124200000Y-86070000D01*
X124200000Y-86070000D02*
X121800000Y-86070000D01*
X121800000Y-86070000D02*
X121800000Y-90970000D01*
%TO.C,R22*%
X117174758Y-53572500D02*
X116700242Y-53572500D01*
X117174758Y-52527500D02*
X116700242Y-52527500D01*
%TO.C,TP7*%
X65470000Y-50700000D02*
X65470000Y-48300000D01*
X65470000Y-48300000D02*
X60570000Y-48300000D01*
X60570000Y-48300000D02*
X60570000Y-50700000D01*
X60570000Y-50700000D02*
X65470000Y-50700000D01*
%TO.C,R10*%
X69762742Y-68977500D02*
X70237258Y-68977500D01*
X69762742Y-70022500D02*
X70237258Y-70022500D01*
%TO.C,D4*%
X23937500Y-69960000D02*
X26622500Y-69960000D01*
X26622500Y-69960000D02*
X26622500Y-68040000D01*
X26622500Y-68040000D02*
X23937500Y-68040000D01*
%TO.C,R20*%
X113415000Y-56287258D02*
X113415000Y-55812742D01*
X114460000Y-56287258D02*
X114460000Y-55812742D01*
%TO.C,TP6*%
X57470000Y-50700000D02*
X57470000Y-48300000D01*
X57470000Y-48300000D02*
X52570000Y-48300000D01*
X52570000Y-48300000D02*
X52570000Y-50700000D01*
X52570000Y-50700000D02*
X57470000Y-50700000D01*
%TO.C,TP9*%
X132300000Y-90970000D02*
X134700000Y-90970000D01*
X134700000Y-90970000D02*
X134700000Y-86070000D01*
X134700000Y-86070000D02*
X132300000Y-86070000D01*
X132300000Y-86070000D02*
X132300000Y-90970000D01*
%TD*%
M02*
