%TF.GenerationSoftware,KiCad,Pcbnew,(6.0.0)*%
%TF.CreationDate,2022-01-20T20:45:04-08:00*%
%TF.ProjectId,dish-controller,64697368-2d63-46f6-9e74-726f6c6c6572,rev?*%
%TF.SameCoordinates,Original*%
%TF.FileFunction,Legend,Bot*%
%TF.FilePolarity,Positive*%
%FSLAX46Y46*%
G04 Gerber Fmt 4.6, Leading zero omitted, Abs format (unit mm)*
G04 Created by KiCad (PCBNEW (6.0.0)) date 2022-01-20 20:45:04*
%MOMM*%
%LPD*%
G01*
G04 APERTURE LIST*
%ADD10C,0.300000*%
G04 APERTURE END LIST*
D10*
X54980714Y-96678571D02*
X54980714Y-95178571D01*
X54266428Y-96678571D02*
X54266428Y-95178571D01*
X53409285Y-96678571D01*
X53409285Y-95178571D01*
X52766428Y-95321428D02*
X52695000Y-95250000D01*
X52552142Y-95178571D01*
X52195000Y-95178571D01*
X52052142Y-95250000D01*
X51980714Y-95321428D01*
X51909285Y-95464285D01*
X51909285Y-95607142D01*
X51980714Y-95821428D01*
X52837857Y-96678571D01*
X51909285Y-96678571D01*
X50480714Y-96678571D02*
X51337857Y-96678571D01*
X50909285Y-96678571D02*
X50909285Y-95178571D01*
X51052142Y-95392857D01*
X51195000Y-95535714D01*
X51337857Y-95607142D01*
X41980714Y-93678571D02*
X41980714Y-92178571D01*
X41266428Y-93678571D02*
X41266428Y-92178571D01*
X40409285Y-93678571D01*
X40409285Y-92178571D01*
X38909285Y-93678571D02*
X39766428Y-93678571D01*
X39337857Y-93678571D02*
X39337857Y-92178571D01*
X39480714Y-92392857D01*
X39623571Y-92535714D01*
X39766428Y-92607142D01*
X37480714Y-93678571D02*
X38337857Y-93678571D01*
X37909285Y-93678571D02*
X37909285Y-92178571D01*
X38052142Y-92392857D01*
X38195000Y-92535714D01*
X38337857Y-92607142D01*
X57480714Y-47178571D02*
X57480714Y-45678571D01*
X56766428Y-47178571D02*
X56766428Y-45678571D01*
X55909285Y-47178571D01*
X55909285Y-45678571D01*
X55266428Y-45821428D02*
X55195000Y-45750000D01*
X55052142Y-45678571D01*
X54695000Y-45678571D01*
X54552142Y-45750000D01*
X54480714Y-45821428D01*
X54409285Y-45964285D01*
X54409285Y-46107142D01*
X54480714Y-46321428D01*
X55337857Y-47178571D01*
X54409285Y-47178571D01*
X52980714Y-47178571D02*
X53837857Y-47178571D01*
X53409285Y-47178571D02*
X53409285Y-45678571D01*
X53552142Y-45892857D01*
X53695000Y-46035714D01*
X53837857Y-46107142D01*
X65480714Y-47178571D02*
X65480714Y-45678571D01*
X64766428Y-47178571D02*
X64766428Y-45678571D01*
X63909285Y-47178571D01*
X63909285Y-45678571D01*
X63266428Y-45821428D02*
X63195000Y-45750000D01*
X63052142Y-45678571D01*
X62695000Y-45678571D01*
X62552142Y-45750000D01*
X62480714Y-45821428D01*
X62409285Y-45964285D01*
X62409285Y-46107142D01*
X62480714Y-46321428D01*
X63337857Y-47178571D01*
X62409285Y-47178571D01*
X61837857Y-45821428D02*
X61766428Y-45750000D01*
X61623571Y-45678571D01*
X61266428Y-45678571D01*
X61123571Y-45750000D01*
X61052142Y-45821428D01*
X60980714Y-45964285D01*
X60980714Y-46107142D01*
X61052142Y-46321428D01*
X61909285Y-47178571D01*
X60980714Y-47178571D01*
X132255000Y-80947857D02*
X132255000Y-82447857D01*
X134035714Y-82162142D02*
X134107142Y-82090714D01*
X134178571Y-81876428D01*
X134178571Y-81733571D01*
X134107142Y-81519285D01*
X133964285Y-81376428D01*
X133821428Y-81305000D01*
X133535714Y-81233571D01*
X133321428Y-81233571D01*
X133035714Y-81305000D01*
X132892857Y-81376428D01*
X132750000Y-81519285D01*
X132678571Y-81733571D01*
X132678571Y-81876428D01*
X132750000Y-82090714D01*
X132821428Y-82162142D01*
X132255000Y-82447857D02*
X132255000Y-83876428D01*
X134107142Y-82733571D02*
X134178571Y-82947857D01*
X134178571Y-83305000D01*
X134107142Y-83447857D01*
X134035714Y-83519285D01*
X133892857Y-83590714D01*
X133750000Y-83590714D01*
X133607142Y-83519285D01*
X133535714Y-83447857D01*
X133464285Y-83305000D01*
X133392857Y-83019285D01*
X133321428Y-82876428D01*
X133250000Y-82805000D01*
X133107142Y-82733571D01*
X132964285Y-82733571D01*
X132821428Y-82805000D01*
X132750000Y-82876428D01*
X132678571Y-83019285D01*
X132678571Y-83376428D01*
X132750000Y-83590714D01*
X132821428Y-84162142D02*
X132750000Y-84233571D01*
X132678571Y-84376428D01*
X132678571Y-84733571D01*
X132750000Y-84876428D01*
X132821428Y-84947857D01*
X132964285Y-85019285D01*
X133107142Y-85019285D01*
X133321428Y-84947857D01*
X134178571Y-84090714D01*
X134178571Y-85019285D01*
X128755000Y-80947857D02*
X128755000Y-82447857D01*
X130535714Y-82162142D02*
X130607142Y-82090714D01*
X130678571Y-81876428D01*
X130678571Y-81733571D01*
X130607142Y-81519285D01*
X130464285Y-81376428D01*
X130321428Y-81305000D01*
X130035714Y-81233571D01*
X129821428Y-81233571D01*
X129535714Y-81305000D01*
X129392857Y-81376428D01*
X129250000Y-81519285D01*
X129178571Y-81733571D01*
X129178571Y-81876428D01*
X129250000Y-82090714D01*
X129321428Y-82162142D01*
X128755000Y-82447857D02*
X128755000Y-83876428D01*
X130607142Y-82733571D02*
X130678571Y-82947857D01*
X130678571Y-83305000D01*
X130607142Y-83447857D01*
X130535714Y-83519285D01*
X130392857Y-83590714D01*
X130250000Y-83590714D01*
X130107142Y-83519285D01*
X130035714Y-83447857D01*
X129964285Y-83305000D01*
X129892857Y-83019285D01*
X129821428Y-82876428D01*
X129750000Y-82805000D01*
X129607142Y-82733571D01*
X129464285Y-82733571D01*
X129321428Y-82805000D01*
X129250000Y-82876428D01*
X129178571Y-83019285D01*
X129178571Y-83376428D01*
X129250000Y-83590714D01*
X130678571Y-85019285D02*
X130678571Y-84162142D01*
X130678571Y-84590714D02*
X129178571Y-84590714D01*
X129392857Y-84447857D01*
X129535714Y-84305000D01*
X129607142Y-84162142D01*
X127035714Y-82305000D02*
X127107142Y-82233571D01*
X127178571Y-82019285D01*
X127178571Y-81876428D01*
X127107142Y-81662142D01*
X126964285Y-81519285D01*
X126821428Y-81447857D01*
X126535714Y-81376428D01*
X126321428Y-81376428D01*
X126035714Y-81447857D01*
X125892857Y-81519285D01*
X125750000Y-81662142D01*
X125678571Y-81876428D01*
X125678571Y-82019285D01*
X125750000Y-82233571D01*
X125821428Y-82305000D01*
X127178571Y-83662142D02*
X127178571Y-82947857D01*
X125678571Y-82947857D01*
X127178571Y-84162142D02*
X125678571Y-84162142D01*
X127178571Y-85019285D02*
X126321428Y-84376428D01*
X125678571Y-85019285D02*
X126535714Y-84162142D01*
X123607142Y-81090714D02*
X123678571Y-81305000D01*
X123678571Y-81662142D01*
X123607142Y-81805000D01*
X123535714Y-81876428D01*
X123392857Y-81947857D01*
X123250000Y-81947857D01*
X123107142Y-81876428D01*
X123035714Y-81805000D01*
X122964285Y-81662142D01*
X122892857Y-81376428D01*
X122821428Y-81233571D01*
X122750000Y-81162142D01*
X122607142Y-81090714D01*
X122464285Y-81090714D01*
X122321428Y-81162142D01*
X122250000Y-81233571D01*
X122178571Y-81376428D01*
X122178571Y-81733571D01*
X122250000Y-81947857D01*
X123678571Y-82590714D02*
X122178571Y-82590714D01*
X122178571Y-82947857D01*
X122250000Y-83162142D01*
X122392857Y-83305000D01*
X122535714Y-83376428D01*
X122821428Y-83447857D01*
X123035714Y-83447857D01*
X123321428Y-83376428D01*
X123464285Y-83305000D01*
X123607142Y-83162142D01*
X123678571Y-82947857D01*
X123678571Y-82590714D01*
X122178571Y-84376428D02*
X122178571Y-84662142D01*
X122250000Y-84805000D01*
X122392857Y-84947857D01*
X122678571Y-85019285D01*
X123178571Y-85019285D01*
X123464285Y-84947857D01*
X123607142Y-84805000D01*
X123678571Y-84662142D01*
X123678571Y-84376428D01*
X123607142Y-84233571D01*
X123464285Y-84090714D01*
X123178571Y-84019285D01*
X122678571Y-84019285D01*
X122392857Y-84090714D01*
X122250000Y-84233571D01*
X122178571Y-84376428D01*
X120107142Y-81947857D02*
X120178571Y-82162142D01*
X120178571Y-82519285D01*
X120107142Y-82662142D01*
X120035714Y-82733571D01*
X119892857Y-82805000D01*
X119750000Y-82805000D01*
X119607142Y-82733571D01*
X119535714Y-82662142D01*
X119464285Y-82519285D01*
X119392857Y-82233571D01*
X119321428Y-82090714D01*
X119250000Y-82019285D01*
X119107142Y-81947857D01*
X118964285Y-81947857D01*
X118821428Y-82019285D01*
X118750000Y-82090714D01*
X118678571Y-82233571D01*
X118678571Y-82590714D01*
X118750000Y-82805000D01*
X120178571Y-83447857D02*
X118678571Y-83447857D01*
X118678571Y-83805000D01*
X118750000Y-84019285D01*
X118892857Y-84162142D01*
X119035714Y-84233571D01*
X119321428Y-84305000D01*
X119535714Y-84305000D01*
X119821428Y-84233571D01*
X119964285Y-84162142D01*
X120107142Y-84019285D01*
X120178571Y-83805000D01*
X120178571Y-83447857D01*
X120178571Y-84947857D02*
X118678571Y-84947857D01*
M02*
