M48
; DRILL file {KiCad 7.0.1} date Fri Jun 23 15:30:36 2023
; FORMAT={-:-/ absolute / inch / decimal}
; #@! TF.CreationDate,2023-06-23T15:30:36-04:00
; #@! TF.GenerationSoftware,Kicad,Pcbnew,7.0.1
; #@! TF.FileFunction,MixedPlating,1,2
FMAT,2
INCH
; #@! TA.AperFunction,Plated,PTH,ComponentDrill
T1C0.0118
; #@! TA.AperFunction,Plated,PTH,ViaDrill
T2C0.0157
; #@! TA.AperFunction,Plated,PTH,ComponentDrill
T3C0.0787
%
G90
G05
T1
X5.0352Y-4.5866
X5.1222Y-4.5866
T2
X4.4094Y-4.3307
X4.4094Y-4.4094
X4.4094Y-4.4882
X4.4094Y-4.8819
X4.4094Y-4.9606
X4.4094Y-5.0394
X4.4882Y-4.4882
X4.4882Y-4.8819
X4.4882Y-4.9606
X4.4882Y-5.0394
X4.5669Y-4.4882
X4.5669Y-4.5669
X4.5669Y-4.8031
X4.5669Y-4.8819
X4.5669Y-4.9606
X4.5669Y-5.0394
X4.6457Y-4.4882
X4.6457Y-4.5669
X4.6457Y-4.8031
X4.6457Y-4.8819
X4.6457Y-4.9606
X4.6457Y-5.0394
X4.7244Y-4.4882
X4.7244Y-4.5669
X4.7244Y-4.8031
X4.7244Y-4.8819
X4.7244Y-4.9606
X4.7244Y-5.0394
X4.8031Y-4.4882
X4.8031Y-4.5669
X4.8031Y-4.8031
X4.8031Y-4.8819
X4.8031Y-4.9606
X4.8031Y-5.0394
X4.8819Y-4.4882
X4.8819Y-4.5669
X4.8819Y-4.8031
X4.8819Y-4.8819
X4.8819Y-4.9606
X4.8819Y-5.0394
X4.9606Y-4.4882
X4.9606Y-4.5669
X4.9606Y-4.8031
X4.9606Y-4.8819
X4.9606Y-4.9606
X4.9606Y-5.0394
X5.0394Y-4.8031
X5.0394Y-4.8819
X5.0394Y-4.9606
X5.0394Y-5.0394
X5.1181Y-4.8031
X5.1181Y-4.8819
X5.1181Y-4.9606
X5.1181Y-5.0394
X5.1969Y-4.4882
X5.1969Y-4.8819
X5.1969Y-4.9606
X5.1969Y-5.0394
X5.2756Y-4.3307
X5.2756Y-4.4094
X5.2756Y-4.4882
X5.2756Y-4.8819
X5.2756Y-4.9606
X5.2756Y-5.0394
X5.3543Y-4.3307
X5.3543Y-4.4094
X5.3543Y-4.4882
X5.3543Y-4.8819
X5.3543Y-4.9606
X5.3543Y-5.0394
T3
X4.5276Y-4.3701
X4.7835Y-4.3701
T0
M30
