%TF.GenerationSoftware,KiCad,Pcbnew,7.0.1*%
%TF.CreationDate,2023-06-23T15:30:34-04:00*%
%TF.ProjectId,bias-t,62696173-2d74-42e6-9b69-6361645f7063,1*%
%TF.SameCoordinates,Original*%
%TF.FileFunction,Copper,L2,Bot*%
%TF.FilePolarity,Positive*%
%FSLAX46Y46*%
G04 Gerber Fmt 4.6, Leading zero omitted, Abs format (unit mm)*
G04 Created by KiCad (PCBNEW 7.0.1) date 2023-06-23 15:30:34*
%MOMM*%
%LPD*%
G01*
G04 APERTURE LIST*
%TA.AperFunction,ComponentPad*%
%ADD10R,4.000000X4.000000*%
%TD*%
%TA.AperFunction,ComponentPad*%
%ADD11C,0.610000*%
%TD*%
%TA.AperFunction,SMDPad,CuDef*%
%ADD12R,4.200000X1.350000*%
%TD*%
%TA.AperFunction,ViaPad*%
%ADD13C,0.800000*%
%TD*%
G04 APERTURE END LIST*
D10*
%TO.P,TP1,1,1*%
%TO.N,Net-(D1-A)*%
X121500000Y-111000000D03*
%TD*%
D11*
%TO.P,FL2,2,GND*%
%TO.N,GND*%
X127895000Y-116500000D03*
%TO.P,FL2,4,GND*%
X130105000Y-116500000D03*
%TD*%
D12*
%TO.P,J3,2,Ext*%
%TO.N,GND*%
X112162500Y-116175000D03*
X112162500Y-121825000D03*
%TD*%
D10*
%TO.P,TP2,1,1*%
%TO.N,GND*%
X115000000Y-111000000D03*
%TD*%
D12*
%TO.P,J1,2,Ext*%
%TO.N,GND*%
X134337500Y-121825000D03*
X134337500Y-116175000D03*
%TD*%
D13*
%TO.N,GND*%
X114000000Y-124000000D03*
X124000000Y-114000000D03*
X112000000Y-114000000D03*
X120000000Y-126000000D03*
X118000000Y-126000000D03*
X128000000Y-126000000D03*
X132000000Y-128000000D03*
X130000000Y-122000000D03*
X128000000Y-128000000D03*
X136000000Y-128000000D03*
X136000000Y-126000000D03*
X118000000Y-122000000D03*
X134000000Y-112000000D03*
X126000000Y-116000000D03*
X128000000Y-124000000D03*
X136000000Y-110000000D03*
X116000000Y-128000000D03*
X120000000Y-124000000D03*
X124000000Y-124000000D03*
X134000000Y-124000000D03*
X134000000Y-128000000D03*
X134000000Y-110000000D03*
X134000000Y-114000000D03*
X122000000Y-116000000D03*
X132000000Y-124000000D03*
X124000000Y-126000000D03*
X112000000Y-110000000D03*
X120000000Y-122000000D03*
X114000000Y-126000000D03*
X116000000Y-114000000D03*
X124000000Y-116000000D03*
X128000000Y-122000000D03*
X120000000Y-114000000D03*
X134000000Y-126000000D03*
X130000000Y-126000000D03*
X126000000Y-114000000D03*
X126000000Y-122000000D03*
X112000000Y-126000000D03*
X112000000Y-124000000D03*
X114000000Y-114000000D03*
X118000000Y-128000000D03*
X118000000Y-124000000D03*
X132000000Y-114000000D03*
X116000000Y-124000000D03*
X114000000Y-128000000D03*
X122000000Y-126000000D03*
X112000000Y-112000000D03*
X120000000Y-116000000D03*
X124000000Y-122000000D03*
X122000000Y-114000000D03*
X136000000Y-124000000D03*
X116000000Y-116000000D03*
X126000000Y-124000000D03*
X118000000Y-114000000D03*
X136000000Y-112000000D03*
X130000000Y-128000000D03*
X126000000Y-126000000D03*
X132000000Y-126000000D03*
X122000000Y-122000000D03*
X122000000Y-124000000D03*
X136000000Y-114000000D03*
X126000000Y-128000000D03*
X130000000Y-124000000D03*
X116000000Y-126000000D03*
X124000000Y-128000000D03*
X112000000Y-128000000D03*
X116000000Y-122000000D03*
X122000000Y-128000000D03*
X120000000Y-128000000D03*
X118000000Y-116000000D03*
%TD*%
%TA.AperFunction,Conductor*%
%TO.N,GND*%
G36*
X136437500Y-108017113D02*
G01*
X136482887Y-108062500D01*
X136499500Y-108124500D01*
X136499500Y-114876000D01*
X136482887Y-114938000D01*
X136437500Y-114983387D01*
X136375500Y-115000000D01*
X134587500Y-115000000D01*
X134587500Y-117350000D01*
X136375500Y-117350000D01*
X136437500Y-117366613D01*
X136482887Y-117412000D01*
X136499500Y-117474000D01*
X136499500Y-120526000D01*
X136482887Y-120588000D01*
X136437500Y-120633387D01*
X136375500Y-120650000D01*
X134587500Y-120650000D01*
X134587500Y-123000000D01*
X136375500Y-123000000D01*
X136437500Y-123016613D01*
X136482887Y-123062000D01*
X136499500Y-123124000D01*
X136499500Y-129875500D01*
X136482887Y-129937500D01*
X136437500Y-129982887D01*
X136375500Y-129999500D01*
X110124500Y-129999500D01*
X110062500Y-129982887D01*
X110017113Y-129937500D01*
X110000500Y-129875500D01*
X110000500Y-123124000D01*
X110017113Y-123062000D01*
X110062500Y-123016613D01*
X110124500Y-123000000D01*
X111912500Y-123000000D01*
X111912500Y-122075000D01*
X112412500Y-122075000D01*
X112412500Y-123000000D01*
X114310324Y-123000000D01*
X114369875Y-122993597D01*
X114504589Y-122943352D01*
X114619688Y-122857188D01*
X114705852Y-122742089D01*
X114756097Y-122607375D01*
X114762500Y-122547824D01*
X114762500Y-122075000D01*
X131737500Y-122075000D01*
X131737500Y-122547824D01*
X131743902Y-122607375D01*
X131794147Y-122742089D01*
X131880311Y-122857188D01*
X131995410Y-122943352D01*
X132130124Y-122993597D01*
X132189676Y-123000000D01*
X134087500Y-123000000D01*
X134087500Y-122075000D01*
X131737500Y-122075000D01*
X114762500Y-122075000D01*
X112412500Y-122075000D01*
X111912500Y-122075000D01*
X111912500Y-120650000D01*
X112412500Y-120650000D01*
X112412500Y-121575000D01*
X114762500Y-121575000D01*
X131737500Y-121575000D01*
X134087500Y-121575000D01*
X134087500Y-120650000D01*
X132189676Y-120650000D01*
X132130124Y-120656402D01*
X131995410Y-120706647D01*
X131880311Y-120792811D01*
X131794147Y-120907910D01*
X131743902Y-121042624D01*
X131737500Y-121102176D01*
X131737500Y-121575000D01*
X114762500Y-121575000D01*
X114762500Y-121102176D01*
X114756097Y-121042624D01*
X114705852Y-120907910D01*
X114619688Y-120792811D01*
X114504589Y-120706647D01*
X114369875Y-120656402D01*
X114310324Y-120650000D01*
X112412500Y-120650000D01*
X111912500Y-120650000D01*
X110124500Y-120650000D01*
X110062500Y-120633387D01*
X110017113Y-120588000D01*
X110000500Y-120526000D01*
X110000500Y-117474000D01*
X110017113Y-117412000D01*
X110062500Y-117366613D01*
X110124500Y-117350000D01*
X111912500Y-117350000D01*
X111912500Y-116425000D01*
X112412500Y-116425000D01*
X112412500Y-117350000D01*
X114310324Y-117350000D01*
X114369875Y-117343597D01*
X114504589Y-117293352D01*
X114602190Y-117220287D01*
X127528263Y-117220287D01*
X127528264Y-117220288D01*
X127543508Y-117229867D01*
X127714741Y-117289783D01*
X127895000Y-117310094D01*
X128075258Y-117289783D01*
X128246489Y-117229867D01*
X128261734Y-117220287D01*
X129738263Y-117220287D01*
X129738264Y-117220288D01*
X129753508Y-117229867D01*
X129924741Y-117289783D01*
X130105000Y-117310094D01*
X130285258Y-117289783D01*
X130456489Y-117229867D01*
X130471734Y-117220287D01*
X130105001Y-116853553D01*
X130105000Y-116853553D01*
X129738263Y-117220287D01*
X128261734Y-117220287D01*
X127895001Y-116853553D01*
X127895000Y-116853553D01*
X127528263Y-117220287D01*
X114602190Y-117220287D01*
X114619688Y-117207188D01*
X114705852Y-117092089D01*
X114756097Y-116957375D01*
X114762500Y-116897824D01*
X114762500Y-116499999D01*
X127084905Y-116499999D01*
X127105216Y-116680258D01*
X127165132Y-116851488D01*
X127174711Y-116866734D01*
X127174712Y-116866735D01*
X127541447Y-116500001D01*
X128248553Y-116500001D01*
X128615287Y-116866734D01*
X128624867Y-116851489D01*
X128684783Y-116680258D01*
X128705094Y-116500000D01*
X128705094Y-116499999D01*
X129294905Y-116499999D01*
X129315216Y-116680258D01*
X129375132Y-116851488D01*
X129384711Y-116866734D01*
X129384712Y-116866735D01*
X129751447Y-116500001D01*
X130458553Y-116500001D01*
X130825287Y-116866734D01*
X130834867Y-116851489D01*
X130894783Y-116680258D01*
X130915094Y-116500000D01*
X130906643Y-116425000D01*
X131737500Y-116425000D01*
X131737500Y-116897824D01*
X131743902Y-116957375D01*
X131794147Y-117092089D01*
X131880311Y-117207188D01*
X131995410Y-117293352D01*
X132130124Y-117343597D01*
X132189676Y-117350000D01*
X134087500Y-117350000D01*
X134087500Y-116425000D01*
X131737500Y-116425000D01*
X130906643Y-116425000D01*
X130894783Y-116319741D01*
X130834867Y-116148508D01*
X130825288Y-116133264D01*
X130825287Y-116133263D01*
X130458553Y-116500000D01*
X130458553Y-116500001D01*
X129751447Y-116500001D01*
X129751447Y-116500000D01*
X129384711Y-116133264D01*
X129384709Y-116133264D01*
X129375131Y-116148511D01*
X129315216Y-116319739D01*
X129294905Y-116499999D01*
X128705094Y-116499999D01*
X128684783Y-116319741D01*
X128624867Y-116148508D01*
X128615288Y-116133264D01*
X128615287Y-116133263D01*
X128248553Y-116500000D01*
X128248553Y-116500001D01*
X127541447Y-116500001D01*
X127541447Y-116500000D01*
X127174711Y-116133264D01*
X127174709Y-116133264D01*
X127165131Y-116148511D01*
X127105216Y-116319739D01*
X127084905Y-116499999D01*
X114762500Y-116499999D01*
X114762500Y-116425000D01*
X112412500Y-116425000D01*
X111912500Y-116425000D01*
X111912500Y-115000000D01*
X112412500Y-115000000D01*
X112412500Y-115925000D01*
X114762500Y-115925000D01*
X114762500Y-115779711D01*
X127528264Y-115779711D01*
X127895000Y-116146447D01*
X127895001Y-116146447D01*
X128261735Y-115779712D01*
X128261734Y-115779711D01*
X129738264Y-115779711D01*
X130105000Y-116146447D01*
X130105001Y-116146447D01*
X130326447Y-115925000D01*
X131737500Y-115925000D01*
X134087500Y-115925000D01*
X134087500Y-115000000D01*
X132189676Y-115000000D01*
X132130124Y-115006402D01*
X131995410Y-115056647D01*
X131880311Y-115142811D01*
X131794147Y-115257910D01*
X131743902Y-115392624D01*
X131737500Y-115452176D01*
X131737500Y-115925000D01*
X130326447Y-115925000D01*
X130471735Y-115779712D01*
X130471734Y-115779711D01*
X130456488Y-115770132D01*
X130285258Y-115710216D01*
X130104999Y-115689905D01*
X129924739Y-115710216D01*
X129753511Y-115770131D01*
X129738264Y-115779709D01*
X129738264Y-115779711D01*
X128261734Y-115779711D01*
X128246488Y-115770132D01*
X128075258Y-115710216D01*
X127894999Y-115689905D01*
X127714739Y-115710216D01*
X127543511Y-115770131D01*
X127528264Y-115779709D01*
X127528264Y-115779711D01*
X114762500Y-115779711D01*
X114762500Y-115452176D01*
X114756097Y-115392624D01*
X114705852Y-115257910D01*
X114619688Y-115142811D01*
X114504589Y-115056647D01*
X114369875Y-115006402D01*
X114310324Y-115000000D01*
X112412500Y-115000000D01*
X111912500Y-115000000D01*
X110124500Y-115000000D01*
X110062500Y-114983387D01*
X110017113Y-114938000D01*
X110000500Y-114876000D01*
X110000500Y-111250000D01*
X112500000Y-111250000D01*
X112500000Y-113047824D01*
X112506402Y-113107375D01*
X112556647Y-113242089D01*
X112642811Y-113357188D01*
X112757910Y-113443352D01*
X112892624Y-113493597D01*
X112952176Y-113500000D01*
X114750000Y-113500000D01*
X114750000Y-111250000D01*
X115250000Y-111250000D01*
X115250000Y-113500000D01*
X117047824Y-113500000D01*
X117107375Y-113493597D01*
X117242089Y-113443352D01*
X117357188Y-113357188D01*
X117443352Y-113242089D01*
X117493597Y-113107375D01*
X117499995Y-113047869D01*
X118999500Y-113047869D01*
X119005897Y-113107375D01*
X119005909Y-113107483D01*
X119056204Y-113242331D01*
X119142454Y-113357546D01*
X119257669Y-113443796D01*
X119392517Y-113494091D01*
X119452127Y-113500500D01*
X123547872Y-113500499D01*
X123607483Y-113494091D01*
X123742331Y-113443796D01*
X123857546Y-113357546D01*
X123943796Y-113242331D01*
X123994091Y-113107483D01*
X124000500Y-113047873D01*
X124000499Y-108952128D01*
X123994091Y-108892517D01*
X123943796Y-108757669D01*
X123857546Y-108642454D01*
X123742331Y-108556204D01*
X123607483Y-108505909D01*
X123547873Y-108499500D01*
X123547869Y-108499500D01*
X119452130Y-108499500D01*
X119392515Y-108505909D01*
X119257669Y-108556204D01*
X119142454Y-108642454D01*
X119056204Y-108757668D01*
X119005909Y-108892516D01*
X118999500Y-108952130D01*
X118999500Y-113047869D01*
X117499995Y-113047869D01*
X117500000Y-113047824D01*
X117500000Y-111250000D01*
X115250000Y-111250000D01*
X114750000Y-111250000D01*
X112500000Y-111250000D01*
X110000500Y-111250000D01*
X110000500Y-110750000D01*
X112500000Y-110750000D01*
X114750000Y-110750000D01*
X114750000Y-108500000D01*
X115250000Y-108500000D01*
X115250000Y-110750000D01*
X117500000Y-110750000D01*
X117500000Y-108952176D01*
X117493597Y-108892624D01*
X117443352Y-108757910D01*
X117357188Y-108642811D01*
X117242089Y-108556647D01*
X117107375Y-108506402D01*
X117047824Y-108500000D01*
X115250000Y-108500000D01*
X114750000Y-108500000D01*
X112952176Y-108500000D01*
X112892624Y-108506402D01*
X112757910Y-108556647D01*
X112642811Y-108642811D01*
X112556647Y-108757910D01*
X112506402Y-108892624D01*
X112500000Y-108952176D01*
X112500000Y-110750000D01*
X110000500Y-110750000D01*
X110000500Y-108124500D01*
X110017113Y-108062500D01*
X110062500Y-108017113D01*
X110124500Y-108000500D01*
X136375500Y-108000500D01*
X136437500Y-108017113D01*
G37*
%TD.AperFunction*%
%TD*%
M02*
