%TF.GenerationSoftware,KiCad,Pcbnew,(6.0.0)*%
%TF.CreationDate,2022-01-17T22:08:50-08:00*%
%TF.ProjectId,encoder,656e636f-6465-4722-9e6b-696361645f70,1*%
%TF.SameCoordinates,Original*%
%TF.FileFunction,Legend,Bot*%
%TF.FilePolarity,Positive*%
%FSLAX46Y46*%
G04 Gerber Fmt 4.6, Leading zero omitted, Abs format (unit mm)*
G04 Created by KiCad (PCBNEW (6.0.0)) date 2022-01-17 22:08:50*
%MOMM*%
%LPD*%
G01*
G04 APERTURE LIST*
%ADD10C,0.150000*%
%ADD11C,0.120000*%
G04 APERTURE END LIST*
D10*
X94741904Y-87130000D02*
X94837142Y-87082380D01*
X94980000Y-87082380D01*
X95122857Y-87130000D01*
X95218095Y-87225238D01*
X95265714Y-87320476D01*
X95313333Y-87510952D01*
X95313333Y-87653809D01*
X95265714Y-87844285D01*
X95218095Y-87939523D01*
X95122857Y-88034761D01*
X94980000Y-88082380D01*
X94884761Y-88082380D01*
X94741904Y-88034761D01*
X94694285Y-87987142D01*
X94694285Y-87653809D01*
X94884761Y-87653809D01*
X94265714Y-88082380D02*
X94265714Y-87082380D01*
X93694285Y-88082380D01*
X93694285Y-87082380D01*
X93218095Y-88082380D02*
X93218095Y-87082380D01*
X92980000Y-87082380D01*
X92837142Y-87130000D01*
X92741904Y-87225238D01*
X92694285Y-87320476D01*
X92646666Y-87510952D01*
X92646666Y-87653809D01*
X92694285Y-87844285D01*
X92741904Y-87939523D01*
X92837142Y-88034761D01*
X92980000Y-88082380D01*
X93218095Y-88082380D01*
X95384761Y-85542380D02*
X95384761Y-84542380D01*
X95003809Y-84542380D01*
X94908571Y-84590000D01*
X94860952Y-84637619D01*
X94813333Y-84732857D01*
X94813333Y-84875714D01*
X94860952Y-84970952D01*
X94908571Y-85018571D01*
X95003809Y-85066190D01*
X95384761Y-85066190D01*
X94480000Y-84542380D02*
X94241904Y-85542380D01*
X94051428Y-84828095D01*
X93860952Y-85542380D01*
X93622857Y-84542380D01*
X93241904Y-85542380D02*
X93241904Y-84542380D01*
X92908571Y-85256666D01*
X92575238Y-84542380D01*
X92575238Y-85542380D01*
X94956190Y-81720000D02*
X93956190Y-81720000D01*
X94146666Y-82907142D02*
X94194285Y-82954761D01*
X94337142Y-83002380D01*
X94432380Y-83002380D01*
X94575238Y-82954761D01*
X94670476Y-82859523D01*
X94718095Y-82764285D01*
X94765714Y-82573809D01*
X94765714Y-82430952D01*
X94718095Y-82240476D01*
X94670476Y-82145238D01*
X94575238Y-82050000D01*
X94432380Y-82002380D01*
X94337142Y-82002380D01*
X94194285Y-82050000D01*
X94146666Y-82097619D01*
X93956190Y-81720000D02*
X93003809Y-81720000D01*
X93765714Y-82954761D02*
X93622857Y-83002380D01*
X93384761Y-83002380D01*
X93289523Y-82954761D01*
X93241904Y-82907142D01*
X93194285Y-82811904D01*
X93194285Y-82716666D01*
X93241904Y-82621428D01*
X93289523Y-82573809D01*
X93384761Y-82526190D01*
X93575238Y-82478571D01*
X93670476Y-82430952D01*
X93718095Y-82383333D01*
X93765714Y-82288095D01*
X93765714Y-82192857D01*
X93718095Y-82097619D01*
X93670476Y-82050000D01*
X93575238Y-82002380D01*
X93337142Y-82002380D01*
X93194285Y-82050000D01*
X94575238Y-80367142D02*
X94622857Y-80414761D01*
X94765714Y-80462380D01*
X94860952Y-80462380D01*
X95003809Y-80414761D01*
X95099047Y-80319523D01*
X95146666Y-80224285D01*
X95194285Y-80033809D01*
X95194285Y-79890952D01*
X95146666Y-79700476D01*
X95099047Y-79605238D01*
X95003809Y-79510000D01*
X94860952Y-79462380D01*
X94765714Y-79462380D01*
X94622857Y-79510000D01*
X94575238Y-79557619D01*
X93670476Y-80462380D02*
X94146666Y-80462380D01*
X94146666Y-79462380D01*
X93337142Y-80462380D02*
X93337142Y-79462380D01*
X92765714Y-80462380D02*
X93194285Y-79890952D01*
X92765714Y-79462380D02*
X93337142Y-80033809D01*
X95289523Y-77874761D02*
X95146666Y-77922380D01*
X94908571Y-77922380D01*
X94813333Y-77874761D01*
X94765714Y-77827142D01*
X94718095Y-77731904D01*
X94718095Y-77636666D01*
X94765714Y-77541428D01*
X94813333Y-77493809D01*
X94908571Y-77446190D01*
X95099047Y-77398571D01*
X95194285Y-77350952D01*
X95241904Y-77303333D01*
X95289523Y-77208095D01*
X95289523Y-77112857D01*
X95241904Y-77017619D01*
X95194285Y-76970000D01*
X95099047Y-76922380D01*
X94860952Y-76922380D01*
X94718095Y-76970000D01*
X94289523Y-77922380D02*
X94289523Y-76922380D01*
X94051428Y-76922380D01*
X93908571Y-76970000D01*
X93813333Y-77065238D01*
X93765714Y-77160476D01*
X93718095Y-77350952D01*
X93718095Y-77493809D01*
X93765714Y-77684285D01*
X93813333Y-77779523D01*
X93908571Y-77874761D01*
X94051428Y-77922380D01*
X94289523Y-77922380D01*
X93099047Y-76922380D02*
X92908571Y-76922380D01*
X92813333Y-76970000D01*
X92718095Y-77065238D01*
X92670476Y-77255714D01*
X92670476Y-77589047D01*
X92718095Y-77779523D01*
X92813333Y-77874761D01*
X92908571Y-77922380D01*
X93099047Y-77922380D01*
X93194285Y-77874761D01*
X93289523Y-77779523D01*
X93337142Y-77589047D01*
X93337142Y-77255714D01*
X93289523Y-77065238D01*
X93194285Y-76970000D01*
X93099047Y-76922380D01*
X95003809Y-75334761D02*
X94860952Y-75382380D01*
X94622857Y-75382380D01*
X94527619Y-75334761D01*
X94480000Y-75287142D01*
X94432380Y-75191904D01*
X94432380Y-75096666D01*
X94480000Y-75001428D01*
X94527619Y-74953809D01*
X94622857Y-74906190D01*
X94813333Y-74858571D01*
X94908571Y-74810952D01*
X94956190Y-74763333D01*
X95003809Y-74668095D01*
X95003809Y-74572857D01*
X94956190Y-74477619D01*
X94908571Y-74430000D01*
X94813333Y-74382380D01*
X94575238Y-74382380D01*
X94432380Y-74430000D01*
X94003809Y-75382380D02*
X94003809Y-74382380D01*
X93765714Y-74382380D01*
X93622857Y-74430000D01*
X93527619Y-74525238D01*
X93480000Y-74620476D01*
X93432380Y-74810952D01*
X93432380Y-74953809D01*
X93480000Y-75144285D01*
X93527619Y-75239523D01*
X93622857Y-75334761D01*
X93765714Y-75382380D01*
X94003809Y-75382380D01*
X93003809Y-75382380D02*
X93003809Y-74382380D01*
X95313333Y-71842380D02*
X94980000Y-72842380D01*
X94646666Y-71842380D01*
X94313333Y-72842380D02*
X94313333Y-71842380D01*
X94075238Y-71842380D01*
X93932380Y-71890000D01*
X93837142Y-71985238D01*
X93789523Y-72080476D01*
X93741904Y-72270952D01*
X93741904Y-72413809D01*
X93789523Y-72604285D01*
X93837142Y-72699523D01*
X93932380Y-72794761D01*
X94075238Y-72842380D01*
X94313333Y-72842380D01*
X93313333Y-72842380D02*
X93313333Y-71842380D01*
X93075238Y-71842380D01*
X92932380Y-71890000D01*
X92837142Y-71985238D01*
X92789523Y-72080476D01*
X92741904Y-72270952D01*
X92741904Y-72413809D01*
X92789523Y-72604285D01*
X92837142Y-72699523D01*
X92932380Y-72794761D01*
X93075238Y-72842380D01*
X93313333Y-72842380D01*
%TO.C,JP1*%
X80752380Y-79666666D02*
X81466666Y-79666666D01*
X81609523Y-79619047D01*
X81704761Y-79523809D01*
X81752380Y-79380952D01*
X81752380Y-79285714D01*
X81752380Y-80142857D02*
X80752380Y-80142857D01*
X80752380Y-80523809D01*
X80800000Y-80619047D01*
X80847619Y-80666666D01*
X80942857Y-80714285D01*
X81085714Y-80714285D01*
X81180952Y-80666666D01*
X81228571Y-80619047D01*
X81276190Y-80523809D01*
X81276190Y-80142857D01*
X81752380Y-81666666D02*
X81752380Y-81095238D01*
X81752380Y-81380952D02*
X80752380Y-81380952D01*
X80895238Y-81285714D01*
X80990476Y-81190476D01*
X81038095Y-81095238D01*
%TO.C,G1*%
G36*
X81711419Y-65275004D02*
G01*
X82060878Y-65351597D01*
X82368958Y-65480501D01*
X82625294Y-65660472D01*
X82800615Y-65856420D01*
X82920983Y-66094738D01*
X82975717Y-66373250D01*
X82980577Y-66465353D01*
X82963351Y-66708313D01*
X82895713Y-66918126D01*
X82772832Y-67099300D01*
X82589878Y-67256347D01*
X82342023Y-67393777D01*
X82024436Y-67516099D01*
X81632288Y-67627825D01*
X81367163Y-67697592D01*
X81123904Y-67772723D01*
X80945672Y-67845444D01*
X80825036Y-67920558D01*
X80754562Y-68002871D01*
X80726818Y-68097188D01*
X80734371Y-68208314D01*
X80761765Y-68299799D01*
X80836919Y-68403089D01*
X80961954Y-68474147D01*
X81146053Y-68517529D01*
X81398399Y-68537792D01*
X81581657Y-68539425D01*
X81916791Y-68509085D01*
X82223233Y-68428855D01*
X82527367Y-68293015D01*
X82772070Y-68163077D01*
X82908841Y-68478546D01*
X82933871Y-68536318D01*
X82993168Y-68673510D01*
X83036828Y-68775002D01*
X83056811Y-68822128D01*
X83057282Y-68824160D01*
X83025845Y-68860735D01*
X82939114Y-68916580D01*
X82814485Y-68982967D01*
X82669354Y-69051169D01*
X82521115Y-69112457D01*
X82387165Y-69158105D01*
X82300359Y-69181369D01*
X82109097Y-69225284D01*
X81929328Y-69258940D01*
X81804100Y-69273257D01*
X81551978Y-69282029D01*
X81279587Y-69272457D01*
X81019836Y-69246129D01*
X80805634Y-69204637D01*
X80604955Y-69133698D01*
X80359847Y-68999009D01*
X80148373Y-68828647D01*
X79985844Y-68635492D01*
X79887572Y-68432424D01*
X79853594Y-68264624D01*
X79843000Y-68040787D01*
X79864285Y-67824269D01*
X79916230Y-67648402D01*
X79923726Y-67632564D01*
X80016747Y-67480584D01*
X80142877Y-67349970D01*
X80311385Y-67235425D01*
X80531543Y-67131649D01*
X80812620Y-67033344D01*
X81163885Y-66935210D01*
X81301319Y-66899617D01*
X81563445Y-66827856D01*
X81760593Y-66765278D01*
X81901750Y-66706782D01*
X81995899Y-66647267D01*
X82052025Y-66581632D01*
X82079112Y-66504777D01*
X82086144Y-66411601D01*
X82085468Y-66391168D01*
X82038456Y-66242882D01*
X81926328Y-66118523D01*
X81761608Y-66032712D01*
X81750599Y-66029384D01*
X81627440Y-66009765D01*
X81449945Y-66000990D01*
X81239954Y-66004251D01*
X81116645Y-66011163D01*
X80922563Y-66032664D01*
X80759927Y-66070076D01*
X80597179Y-66129550D01*
X80591722Y-66131833D01*
X80458661Y-66186572D01*
X80354709Y-66227687D01*
X80301957Y-66246432D01*
X80292167Y-66241910D01*
X80251801Y-66185690D01*
X80194857Y-66078556D01*
X80130366Y-65936801D01*
X79995219Y-65618618D01*
X80081170Y-65549019D01*
X80156286Y-65504879D01*
X80283822Y-65449274D01*
X80431915Y-65397145D01*
X80518439Y-65371532D01*
X80929834Y-65283727D01*
X81330949Y-65251965D01*
X81711419Y-65275004D01*
G37*
G36*
X74425839Y-65275004D02*
G01*
X74775298Y-65351597D01*
X75083378Y-65480501D01*
X75339714Y-65660472D01*
X75515035Y-65856420D01*
X75635403Y-66094738D01*
X75690137Y-66373250D01*
X75694997Y-66465353D01*
X75677771Y-66708313D01*
X75610133Y-66918126D01*
X75487252Y-67099300D01*
X75304298Y-67256347D01*
X75056443Y-67393777D01*
X74738856Y-67516099D01*
X74346708Y-67627825D01*
X74081583Y-67697592D01*
X73838324Y-67772723D01*
X73660092Y-67845444D01*
X73539456Y-67920558D01*
X73468982Y-68002871D01*
X73441238Y-68097188D01*
X73448791Y-68208314D01*
X73476186Y-68299799D01*
X73551339Y-68403089D01*
X73676374Y-68474147D01*
X73860473Y-68517529D01*
X74112819Y-68537792D01*
X74296077Y-68539425D01*
X74631211Y-68509085D01*
X74937653Y-68428855D01*
X75241787Y-68293015D01*
X75486490Y-68163077D01*
X75623261Y-68478546D01*
X75648291Y-68536318D01*
X75707588Y-68673510D01*
X75751248Y-68775002D01*
X75771231Y-68822128D01*
X75771702Y-68824160D01*
X75740265Y-68860735D01*
X75653535Y-68916580D01*
X75528905Y-68982967D01*
X75383774Y-69051169D01*
X75235535Y-69112457D01*
X75101585Y-69158105D01*
X75014779Y-69181369D01*
X74823517Y-69225284D01*
X74643748Y-69258940D01*
X74518520Y-69273257D01*
X74266398Y-69282029D01*
X73994007Y-69272457D01*
X73734256Y-69246129D01*
X73520054Y-69204637D01*
X73319375Y-69133698D01*
X73074267Y-68999009D01*
X72862793Y-68828647D01*
X72700264Y-68635492D01*
X72601992Y-68432424D01*
X72568014Y-68264624D01*
X72557420Y-68040787D01*
X72578705Y-67824269D01*
X72630650Y-67648402D01*
X72638146Y-67632564D01*
X72731167Y-67480584D01*
X72857297Y-67349970D01*
X73025805Y-67235425D01*
X73245963Y-67131649D01*
X73527040Y-67033344D01*
X73878305Y-66935210D01*
X74015740Y-66899617D01*
X74277865Y-66827856D01*
X74475013Y-66765278D01*
X74616170Y-66706782D01*
X74710319Y-66647267D01*
X74766445Y-66581632D01*
X74793532Y-66504777D01*
X74800564Y-66411601D01*
X74799888Y-66391168D01*
X74752876Y-66242882D01*
X74640748Y-66118523D01*
X74476028Y-66032712D01*
X74465019Y-66029384D01*
X74341861Y-66009765D01*
X74164365Y-66000990D01*
X73954374Y-66004251D01*
X73831065Y-66011163D01*
X73636983Y-66032664D01*
X73474347Y-66070076D01*
X73311599Y-66129550D01*
X73306142Y-66131833D01*
X73173081Y-66186572D01*
X73069129Y-66227687D01*
X73016377Y-66246432D01*
X73006587Y-66241910D01*
X72966221Y-66185690D01*
X72909277Y-66078556D01*
X72844786Y-65936801D01*
X72709639Y-65618618D01*
X72795590Y-65549019D01*
X72870706Y-65504879D01*
X72998242Y-65449274D01*
X73146335Y-65397145D01*
X73232860Y-65371532D01*
X73644254Y-65283727D01*
X74045369Y-65251965D01*
X74425839Y-65275004D01*
G37*
G36*
X79203762Y-69220972D02*
G01*
X76223332Y-69220972D01*
X76197962Y-68484452D01*
X78327900Y-68506856D01*
X78327900Y-67588684D01*
X76496552Y-67588684D01*
X76496550Y-67240330D01*
X76496548Y-66891975D01*
X77412224Y-66906187D01*
X78327900Y-66920398D01*
X78327900Y-66036019D01*
X76308315Y-66036019D01*
X76282998Y-65851309D01*
X76278579Y-65816408D01*
X76263691Y-65648836D01*
X76257680Y-65493002D01*
X76257680Y-65319405D01*
X79203762Y-65319405D01*
X79203762Y-69220972D01*
G37*
G36*
X86340047Y-69220281D02*
G01*
X86167510Y-69219852D01*
X85826179Y-69216421D01*
X85551625Y-69209253D01*
X85334956Y-69197943D01*
X85167276Y-69182090D01*
X85039693Y-69161289D01*
X84654300Y-69045197D01*
X84309704Y-68869425D01*
X84017419Y-68640851D01*
X83782057Y-68364903D01*
X83608232Y-68047006D01*
X83500554Y-67692586D01*
X83463636Y-67307070D01*
X83463638Y-67303777D01*
X83466550Y-67270188D01*
X84379310Y-67270188D01*
X84382580Y-67374204D01*
X84437015Y-67681549D01*
X84557432Y-67945872D01*
X84742504Y-68164863D01*
X84990907Y-68336211D01*
X85035370Y-68359054D01*
X85111717Y-68393209D01*
X85190834Y-68417346D01*
X85288091Y-68433652D01*
X85418858Y-68444317D01*
X85598503Y-68451530D01*
X85842398Y-68457480D01*
X86489342Y-68471397D01*
X86489342Y-66050293D01*
X86140987Y-66063551D01*
X86019395Y-66068191D01*
X85749512Y-66078922D01*
X85543196Y-66088653D01*
X85388854Y-66098831D01*
X85274889Y-66110902D01*
X85189707Y-66126314D01*
X85121712Y-66146514D01*
X85059311Y-66172948D01*
X84990907Y-66207063D01*
X84901442Y-66257418D01*
X84675687Y-66441254D01*
X84512223Y-66673396D01*
X84412836Y-66950742D01*
X84379310Y-67270188D01*
X83466550Y-67270188D01*
X83499293Y-66892513D01*
X83603149Y-66520524D01*
X83772185Y-66191507D01*
X84003380Y-65909158D01*
X84293711Y-65677174D01*
X84640156Y-65499251D01*
X85039693Y-65379088D01*
X85091127Y-65369356D01*
X85235151Y-65350769D01*
X85423162Y-65336952D01*
X85664052Y-65327504D01*
X85966716Y-65322020D01*
X86340047Y-65320096D01*
X87365204Y-65319405D01*
X87365204Y-69220972D01*
X86340047Y-69220281D01*
G37*
D11*
%TO.C,JP1*%
X78500000Y-81900000D02*
X80500000Y-81900000D01*
X78500000Y-79100000D02*
X78500000Y-81900000D01*
X80500000Y-79100000D02*
X78500000Y-79100000D01*
X80500000Y-81900000D02*
X80500000Y-79100000D01*
%TD*%
M02*
