%TF.GenerationSoftware,KiCad,Pcbnew,7.0.1*%
%TF.CreationDate,2023-06-22T18:49:49-04:00*%
%TF.ProjectId,injection-t,696e6a65-6374-4696-9f6e-2d742e6b6963,1*%
%TF.SameCoordinates,Original*%
%TF.FileFunction,Legend,Top*%
%TF.FilePolarity,Positive*%
%FSLAX46Y46*%
G04 Gerber Fmt 4.6, Leading zero omitted, Abs format (unit mm)*
G04 Created by KiCad (PCBNEW 7.0.1) date 2023-06-22 18:49:49*
%MOMM*%
%LPD*%
G01*
G04 APERTURE LIST*
%ADD10C,0.120000*%
G04 APERTURE END LIST*
D10*
%TO.C,U1*%
X133737000Y-101189000D02*
X140341000Y-101189000D01*
X133737000Y-105253000D02*
X133737000Y-101189000D01*
X134245000Y-113889000D02*
X134245000Y-115413000D01*
X134245000Y-115413000D02*
X147453000Y-115413000D01*
X144405000Y-101189000D02*
X147453000Y-101189000D01*
X147453000Y-101189000D02*
X147453000Y-102713000D01*
X147453000Y-115413000D02*
X147453000Y-113889000D01*
%TO.C,J1*%
X151127500Y-108450000D02*
X151127500Y-107340000D01*
X154837500Y-108450000D02*
X154837500Y-107340000D01*
X150077500Y-106750000D02*
X150577500Y-106500000D01*
X150577500Y-106500000D02*
X150077500Y-106250000D01*
X150077500Y-106250000D02*
X150077500Y-106750000D01*
X151127500Y-105660000D02*
X151127500Y-104550000D01*
X154837500Y-105660000D02*
X154837500Y-104550000D01*
%TO.C,J3*%
X132372500Y-104550000D02*
X132372500Y-105660000D01*
X128662500Y-104550000D02*
X128662500Y-105660000D01*
X133422500Y-106250000D02*
X132922500Y-106500000D01*
X132922500Y-106500000D02*
X133422500Y-106750000D01*
X133422500Y-106750000D02*
X133422500Y-106250000D01*
X132372500Y-107340000D02*
X132372500Y-108450000D01*
X128662500Y-107340000D02*
X128662500Y-108450000D01*
%TO.C,J2*%
X143700000Y-99872500D02*
X142590000Y-99872500D01*
X143700000Y-96162500D02*
X142590000Y-96162500D01*
X142000000Y-100922500D02*
X141750000Y-100422500D01*
X141750000Y-100422500D02*
X141500000Y-100922500D01*
X141500000Y-100922500D02*
X142000000Y-100922500D01*
X140910000Y-99872500D02*
X139800000Y-99872500D01*
X140910000Y-96162500D02*
X139800000Y-96162500D01*
%TD*%
M02*
