%TF.GenerationSoftware,KiCad,Pcbnew,7.0.1*%
%TF.CreationDate,2023-06-22T18:49:49-04:00*%
%TF.ProjectId,injection-t,696e6a65-6374-4696-9f6e-2d742e6b6963,1*%
%TF.SameCoordinates,Original*%
%TF.FileFunction,Copper,L2,Bot*%
%TF.FilePolarity,Positive*%
%FSLAX46Y46*%
G04 Gerber Fmt 4.6, Leading zero omitted, Abs format (unit mm)*
G04 Created by KiCad (PCBNEW 7.0.1) date 2023-06-22 18:49:49*
%MOMM*%
%LPD*%
G01*
G04 APERTURE LIST*
%TA.AperFunction,ComponentPad*%
%ADD10C,1.016000*%
%TD*%
%TA.AperFunction,SMDPad,CuDef*%
%ADD11R,4.200000X1.350000*%
%TD*%
%TA.AperFunction,SMDPad,CuDef*%
%ADD12R,1.350000X4.200000*%
%TD*%
%TA.AperFunction,ViaPad*%
%ADD13C,0.800000*%
%TD*%
G04 APERTURE END LIST*
D10*
%TO.P,U1,1,GND*%
%TO.N,GND*%
X134753000Y-103602000D03*
X134753000Y-111222000D03*
X136150000Y-102205000D03*
X136150000Y-104872000D03*
X136150000Y-109952000D03*
X136150000Y-112492000D03*
X136150000Y-114397000D03*
X137293000Y-106142000D03*
X137293000Y-108682000D03*
X137420000Y-103602000D03*
X137420000Y-113000000D03*
X138690000Y-102205000D03*
X138690000Y-114397000D03*
X139960000Y-103602000D03*
X139960000Y-113000000D03*
X140849000Y-108301000D03*
X141230000Y-104745000D03*
X141230000Y-114397000D03*
X142500000Y-113000000D03*
X143770000Y-104745000D03*
X143770000Y-114397000D03*
X144405000Y-107793000D03*
X144405000Y-110333000D03*
X145040000Y-113000000D03*
X145548000Y-103602000D03*
X145548000Y-106523000D03*
X145548000Y-111603000D03*
X146310000Y-102205000D03*
X146310000Y-114397000D03*
X146945000Y-105253000D03*
X146945000Y-112873000D03*
%TD*%
D11*
%TO.P,J1,2,Ext*%
%TO.N,GND*%
X152837500Y-109325000D03*
X152837500Y-103675000D03*
%TD*%
%TO.P,J3,2,Ext*%
%TO.N,GND*%
X130662500Y-103675000D03*
X130662500Y-109325000D03*
%TD*%
D12*
%TO.P,J2,2,Ext*%
%TO.N,GND*%
X144575000Y-98162500D03*
X138925000Y-98162500D03*
%TD*%
D13*
%TO.N,GND*%
X132000000Y-114500000D03*
X154000000Y-112500000D03*
X152000000Y-97500000D03*
X136000000Y-97500000D03*
X134000000Y-99500000D03*
X134000000Y-97500000D03*
X150000000Y-97500000D03*
X148000000Y-116500000D03*
X150000000Y-116500000D03*
X136000000Y-116500000D03*
X146000000Y-116500000D03*
X150000000Y-114500000D03*
X152000000Y-112500000D03*
X130000000Y-97500000D03*
X154000000Y-116500000D03*
X154000000Y-101500000D03*
X132000000Y-116500000D03*
X144000000Y-116500000D03*
X132000000Y-112500000D03*
X150000000Y-112500000D03*
X148000000Y-97500000D03*
X154000000Y-97500000D03*
X138000000Y-116500000D03*
X136000000Y-99500000D03*
X134000000Y-116500000D03*
X154000000Y-114500000D03*
X130000000Y-116500000D03*
X152000000Y-116500000D03*
X130000000Y-101500000D03*
X152000000Y-101500000D03*
X150000000Y-99500000D03*
X148000000Y-99500000D03*
X132000000Y-99500000D03*
X130000000Y-99500000D03*
X130000000Y-112500000D03*
X150000000Y-101500000D03*
X132000000Y-101500000D03*
X142000000Y-116500000D03*
X130000000Y-114500000D03*
X154000000Y-99500000D03*
X152000000Y-114500000D03*
X132000000Y-97500000D03*
X152000000Y-99500000D03*
X140000000Y-116500000D03*
%TD*%
%TA.AperFunction,Conductor*%
%TO.N,GND*%
G36*
X137688000Y-96017113D02*
G01*
X137733387Y-96062500D01*
X137750000Y-96124500D01*
X137750000Y-97912500D01*
X140100000Y-97912500D01*
X140100000Y-96124500D01*
X140116613Y-96062500D01*
X140162000Y-96017113D01*
X140224000Y-96000500D01*
X143276000Y-96000500D01*
X143338000Y-96017113D01*
X143383387Y-96062500D01*
X143400000Y-96124500D01*
X143400000Y-97912500D01*
X145750000Y-97912500D01*
X145750000Y-96124500D01*
X145766613Y-96062500D01*
X145812000Y-96017113D01*
X145874000Y-96000500D01*
X154875500Y-96000500D01*
X154937500Y-96017113D01*
X154982887Y-96062500D01*
X154999500Y-96124500D01*
X154999500Y-102376000D01*
X154982887Y-102438000D01*
X154937500Y-102483387D01*
X154875500Y-102500000D01*
X153087500Y-102500000D01*
X153087500Y-104850000D01*
X154875500Y-104850000D01*
X154937500Y-104866613D01*
X154982887Y-104912000D01*
X154999500Y-104974000D01*
X154999500Y-108026000D01*
X154982887Y-108088000D01*
X154937500Y-108133387D01*
X154875500Y-108150000D01*
X153087500Y-108150000D01*
X153087500Y-110500000D01*
X154875500Y-110500000D01*
X154937500Y-110516613D01*
X154982887Y-110562000D01*
X154999500Y-110624000D01*
X154999500Y-117875500D01*
X154982887Y-117937500D01*
X154937500Y-117982887D01*
X154875500Y-117999500D01*
X128872593Y-117999500D01*
X128811000Y-117983121D01*
X128765679Y-117938312D01*
X128748601Y-117876909D01*
X128666198Y-110625409D01*
X128682336Y-110562815D01*
X128727784Y-110516848D01*
X128790190Y-110500000D01*
X130412500Y-110500000D01*
X130412500Y-109575000D01*
X130912500Y-109575000D01*
X130912500Y-110500000D01*
X132810324Y-110500000D01*
X132869875Y-110493597D01*
X133004589Y-110443352D01*
X133119688Y-110357188D01*
X133205852Y-110242089D01*
X133256097Y-110107375D01*
X133262500Y-110047824D01*
X133262500Y-109575000D01*
X150237500Y-109575000D01*
X150237500Y-110047824D01*
X150243902Y-110107375D01*
X150294147Y-110242089D01*
X150380311Y-110357188D01*
X150495410Y-110443352D01*
X150630124Y-110493597D01*
X150689676Y-110500000D01*
X152587500Y-110500000D01*
X152587500Y-109575000D01*
X150237500Y-109575000D01*
X133262500Y-109575000D01*
X130912500Y-109575000D01*
X130412500Y-109575000D01*
X130412500Y-108150000D01*
X130912500Y-108150000D01*
X130912500Y-109075000D01*
X133262500Y-109075000D01*
X150237500Y-109075000D01*
X152587500Y-109075000D01*
X152587500Y-108150000D01*
X150689676Y-108150000D01*
X150630124Y-108156402D01*
X150495410Y-108206647D01*
X150380311Y-108292811D01*
X150294147Y-108407910D01*
X150243902Y-108542624D01*
X150237500Y-108602176D01*
X150237500Y-109075000D01*
X133262500Y-109075000D01*
X133262500Y-108602176D01*
X133256097Y-108542624D01*
X133205852Y-108407910D01*
X133119688Y-108292811D01*
X133004589Y-108206647D01*
X132869875Y-108156402D01*
X132810324Y-108150000D01*
X130912500Y-108150000D01*
X130412500Y-108150000D01*
X128760667Y-108150000D01*
X128699074Y-108133621D01*
X128653753Y-108088812D01*
X128636675Y-108027409D01*
X128601993Y-104975409D01*
X128618131Y-104912815D01*
X128663579Y-104866848D01*
X128725985Y-104850000D01*
X130412500Y-104850000D01*
X130412500Y-103925000D01*
X130912500Y-103925000D01*
X130912500Y-104850000D01*
X132810324Y-104850000D01*
X132869875Y-104843597D01*
X133004589Y-104793352D01*
X133119688Y-104707188D01*
X133205852Y-104592089D01*
X133256097Y-104457375D01*
X133262500Y-104397824D01*
X133262500Y-103925000D01*
X150237500Y-103925000D01*
X150237500Y-104397824D01*
X150243902Y-104457375D01*
X150294147Y-104592089D01*
X150380311Y-104707188D01*
X150495410Y-104793352D01*
X150630124Y-104843597D01*
X150689676Y-104850000D01*
X152587500Y-104850000D01*
X152587500Y-103925000D01*
X150237500Y-103925000D01*
X133262500Y-103925000D01*
X130912500Y-103925000D01*
X130412500Y-103925000D01*
X130412500Y-102500000D01*
X130912500Y-102500000D01*
X130912500Y-103425000D01*
X133262500Y-103425000D01*
X150237500Y-103425000D01*
X152587500Y-103425000D01*
X152587500Y-102500000D01*
X150689676Y-102500000D01*
X150630124Y-102506402D01*
X150495410Y-102556647D01*
X150380311Y-102642811D01*
X150294147Y-102757910D01*
X150243902Y-102892624D01*
X150237500Y-102952176D01*
X150237500Y-103425000D01*
X133262500Y-103425000D01*
X133262500Y-102952176D01*
X133256097Y-102892624D01*
X133205852Y-102757910D01*
X133119688Y-102642811D01*
X133004589Y-102556647D01*
X132869875Y-102506402D01*
X132810324Y-102500000D01*
X130912500Y-102500000D01*
X130412500Y-102500000D01*
X128696463Y-102500000D01*
X128634870Y-102483621D01*
X128589549Y-102438812D01*
X128572471Y-102377409D01*
X128527415Y-98412500D01*
X137750000Y-98412500D01*
X137750000Y-100310324D01*
X137756402Y-100369875D01*
X137806647Y-100504589D01*
X137892811Y-100619688D01*
X138007910Y-100705852D01*
X138142624Y-100756097D01*
X138202176Y-100762500D01*
X138675000Y-100762500D01*
X138675000Y-98412500D01*
X139175000Y-98412500D01*
X139175000Y-100762500D01*
X139647824Y-100762500D01*
X139707375Y-100756097D01*
X139842089Y-100705852D01*
X139957188Y-100619688D01*
X140043352Y-100504589D01*
X140093597Y-100369875D01*
X140100000Y-100310324D01*
X140100000Y-98412500D01*
X143400000Y-98412500D01*
X143400000Y-100310324D01*
X143406402Y-100369875D01*
X143456647Y-100504589D01*
X143542811Y-100619688D01*
X143657910Y-100705852D01*
X143792624Y-100756097D01*
X143852176Y-100762500D01*
X144325000Y-100762500D01*
X144325000Y-98412500D01*
X144825000Y-98412500D01*
X144825000Y-100762500D01*
X145297824Y-100762500D01*
X145357375Y-100756097D01*
X145492089Y-100705852D01*
X145607188Y-100619688D01*
X145693352Y-100504589D01*
X145743597Y-100369875D01*
X145750000Y-100310324D01*
X145750000Y-98412500D01*
X144825000Y-98412500D01*
X144325000Y-98412500D01*
X143400000Y-98412500D01*
X140100000Y-98412500D01*
X139175000Y-98412500D01*
X138675000Y-98412500D01*
X137750000Y-98412500D01*
X128527415Y-98412500D01*
X128501431Y-96125909D01*
X128517569Y-96063315D01*
X128563017Y-96017348D01*
X128625423Y-96000500D01*
X137626000Y-96000500D01*
X137688000Y-96017113D01*
G37*
%TD.AperFunction*%
%TD*%
M02*
