M48
; DRILL file {KiCad 7.0.1} date Thu Jun 22 18:49:52 2023
; FORMAT={-:-/ absolute / inch / decimal}
; #@! TF.CreationDate,2023-06-22T18:49:52-04:00
; #@! TF.GenerationSoftware,Kicad,Pcbnew,7.0.1
; #@! TF.FileFunction,MixedPlating,1,2
FMAT,2
INCH
; #@! TA.AperFunction,Plated,PTH,ViaDrill
T1C0.0157
; #@! TA.AperFunction,Plated,PTH,ComponentDrill
T2C0.0200
%
G90
G05
T1
X5.1181Y-3.8386
X5.1181Y-3.9173
X5.1181Y-3.9961
X5.1181Y-4.4291
X5.1181Y-4.5079
X5.1181Y-4.5866
X5.1969Y-3.8386
X5.1969Y-3.9173
X5.1969Y-3.9961
X5.1969Y-4.4291
X5.1969Y-4.5079
X5.1969Y-4.5866
X5.2756Y-3.8386
X5.2756Y-3.9173
X5.2756Y-4.5866
X5.3543Y-3.8386
X5.3543Y-3.9173
X5.3543Y-4.5866
X5.4331Y-4.5866
X5.5118Y-4.5866
X5.5906Y-4.5866
X5.6693Y-4.5866
X5.748Y-4.5866
X5.8268Y-3.8386
X5.8268Y-3.9173
X5.8268Y-4.5866
X5.9055Y-3.8386
X5.9055Y-3.9173
X5.9055Y-3.9961
X5.9055Y-4.4291
X5.9055Y-4.5079
X5.9055Y-4.5866
X5.9843Y-3.8386
X5.9843Y-3.9173
X5.9843Y-3.9961
X5.9843Y-4.4291
X5.9843Y-4.5079
X5.9843Y-4.5866
X6.063Y-3.8386
X6.063Y-3.9173
X6.063Y-3.9961
X6.063Y-4.4291
X6.063Y-4.5079
X6.063Y-4.5866
T2
X5.3052Y-4.0788
X5.3052Y-4.3788
X5.3602Y-4.0238
X5.3602Y-4.1288
X5.3602Y-4.3288
X5.3602Y-4.4288
X5.3602Y-4.5038
X5.4052Y-4.1788
X5.4052Y-4.2788
X5.4102Y-4.0788
X5.4102Y-4.4488
X5.4602Y-4.0238
X5.4602Y-4.5038
X5.5102Y-4.0788
X5.5102Y-4.4488
X5.5452Y-4.2638
X5.5602Y-4.1238
X5.5602Y-4.5038
X5.6102Y-4.4488
X5.6602Y-4.1238
X5.6602Y-4.5038
X5.6852Y-4.2438
X5.6852Y-4.3438
X5.7102Y-4.4488
X5.7302Y-4.0788
X5.7302Y-4.1938
X5.7302Y-4.3938
X5.7602Y-4.0238
X5.7602Y-4.5038
X5.7852Y-4.1438
X5.7852Y-4.4438
T0
M30
