%TF.GenerationSoftware,KiCad,Pcbnew,7.0.1*%
%TF.CreationDate,2023-06-22T18:49:49-04:00*%
%TF.ProjectId,injection-t,696e6a65-6374-4696-9f6e-2d742e6b6963,1*%
%TF.SameCoordinates,Original*%
%TF.FileFunction,Legend,Bot*%
%TF.FilePolarity,Positive*%
%FSLAX46Y46*%
G04 Gerber Fmt 4.6, Leading zero omitted, Abs format (unit mm)*
G04 Created by KiCad (PCBNEW 7.0.1) date 2023-06-22 18:49:49*
%MOMM*%
%LPD*%
G01*
G04 APERTURE LIST*
%ADD10C,0.300000*%
G04 APERTURE END LIST*
D10*
X144833333Y-106515238D02*
X144833333Y-104515238D01*
X144833333Y-104515238D02*
X144357143Y-104515238D01*
X144357143Y-104515238D02*
X144071428Y-104610476D01*
X144071428Y-104610476D02*
X143880952Y-104800952D01*
X143880952Y-104800952D02*
X143785714Y-104991428D01*
X143785714Y-104991428D02*
X143690476Y-105372380D01*
X143690476Y-105372380D02*
X143690476Y-105658095D01*
X143690476Y-105658095D02*
X143785714Y-106039047D01*
X143785714Y-106039047D02*
X143880952Y-106229523D01*
X143880952Y-106229523D02*
X144071428Y-106420000D01*
X144071428Y-106420000D02*
X144357143Y-106515238D01*
X144357143Y-106515238D02*
X144833333Y-106515238D01*
X142928571Y-106420000D02*
X142642857Y-106515238D01*
X142642857Y-106515238D02*
X142166666Y-106515238D01*
X142166666Y-106515238D02*
X141976190Y-106420000D01*
X141976190Y-106420000D02*
X141880952Y-106324761D01*
X141880952Y-106324761D02*
X141785714Y-106134285D01*
X141785714Y-106134285D02*
X141785714Y-105943809D01*
X141785714Y-105943809D02*
X141880952Y-105753333D01*
X141880952Y-105753333D02*
X141976190Y-105658095D01*
X141976190Y-105658095D02*
X142166666Y-105562857D01*
X142166666Y-105562857D02*
X142547619Y-105467619D01*
X142547619Y-105467619D02*
X142738095Y-105372380D01*
X142738095Y-105372380D02*
X142833333Y-105277142D01*
X142833333Y-105277142D02*
X142928571Y-105086666D01*
X142928571Y-105086666D02*
X142928571Y-104896190D01*
X142928571Y-104896190D02*
X142833333Y-104705714D01*
X142833333Y-104705714D02*
X142738095Y-104610476D01*
X142738095Y-104610476D02*
X142547619Y-104515238D01*
X142547619Y-104515238D02*
X142071428Y-104515238D01*
X142071428Y-104515238D02*
X141785714Y-104610476D01*
X140928571Y-105467619D02*
X140261904Y-105467619D01*
X139976190Y-106515238D02*
X140928571Y-106515238D01*
X140928571Y-106515238D02*
X140928571Y-104515238D01*
X140928571Y-104515238D02*
X139976190Y-104515238D01*
X139214285Y-106420000D02*
X138928571Y-106515238D01*
X138928571Y-106515238D02*
X138452380Y-106515238D01*
X138452380Y-106515238D02*
X138261904Y-106420000D01*
X138261904Y-106420000D02*
X138166666Y-106324761D01*
X138166666Y-106324761D02*
X138071428Y-106134285D01*
X138071428Y-106134285D02*
X138071428Y-105943809D01*
X138071428Y-105943809D02*
X138166666Y-105753333D01*
X138166666Y-105753333D02*
X138261904Y-105658095D01*
X138261904Y-105658095D02*
X138452380Y-105562857D01*
X138452380Y-105562857D02*
X138833333Y-105467619D01*
X138833333Y-105467619D02*
X139023809Y-105372380D01*
X139023809Y-105372380D02*
X139119047Y-105277142D01*
X139119047Y-105277142D02*
X139214285Y-105086666D01*
X139214285Y-105086666D02*
X139214285Y-104896190D01*
X139214285Y-104896190D02*
X139119047Y-104705714D01*
X139119047Y-104705714D02*
X139023809Y-104610476D01*
X139023809Y-104610476D02*
X138833333Y-104515238D01*
X138833333Y-104515238D02*
X138357142Y-104515238D01*
X138357142Y-104515238D02*
X138071428Y-104610476D01*
X148976191Y-109755238D02*
X148976191Y-107755238D01*
X148023810Y-108421904D02*
X148023810Y-109755238D01*
X148023810Y-108612380D02*
X147928572Y-108517142D01*
X147928572Y-108517142D02*
X147738096Y-108421904D01*
X147738096Y-108421904D02*
X147452381Y-108421904D01*
X147452381Y-108421904D02*
X147261905Y-108517142D01*
X147261905Y-108517142D02*
X147166667Y-108707619D01*
X147166667Y-108707619D02*
X147166667Y-109755238D01*
X146214286Y-108421904D02*
X146214286Y-110136190D01*
X146214286Y-110136190D02*
X146309524Y-110326666D01*
X146309524Y-110326666D02*
X146500000Y-110421904D01*
X146500000Y-110421904D02*
X146595238Y-110421904D01*
X146214286Y-107755238D02*
X146309524Y-107850476D01*
X146309524Y-107850476D02*
X146214286Y-107945714D01*
X146214286Y-107945714D02*
X146119048Y-107850476D01*
X146119048Y-107850476D02*
X146214286Y-107755238D01*
X146214286Y-107755238D02*
X146214286Y-107945714D01*
X144500000Y-109660000D02*
X144690476Y-109755238D01*
X144690476Y-109755238D02*
X145071429Y-109755238D01*
X145071429Y-109755238D02*
X145261905Y-109660000D01*
X145261905Y-109660000D02*
X145357143Y-109469523D01*
X145357143Y-109469523D02*
X145357143Y-108707619D01*
X145357143Y-108707619D02*
X145261905Y-108517142D01*
X145261905Y-108517142D02*
X145071429Y-108421904D01*
X145071429Y-108421904D02*
X144690476Y-108421904D01*
X144690476Y-108421904D02*
X144500000Y-108517142D01*
X144500000Y-108517142D02*
X144404762Y-108707619D01*
X144404762Y-108707619D02*
X144404762Y-108898095D01*
X144404762Y-108898095D02*
X145357143Y-109088571D01*
X142690476Y-109660000D02*
X142880952Y-109755238D01*
X142880952Y-109755238D02*
X143261905Y-109755238D01*
X143261905Y-109755238D02*
X143452381Y-109660000D01*
X143452381Y-109660000D02*
X143547619Y-109564761D01*
X143547619Y-109564761D02*
X143642857Y-109374285D01*
X143642857Y-109374285D02*
X143642857Y-108802857D01*
X143642857Y-108802857D02*
X143547619Y-108612380D01*
X143547619Y-108612380D02*
X143452381Y-108517142D01*
X143452381Y-108517142D02*
X143261905Y-108421904D01*
X143261905Y-108421904D02*
X142880952Y-108421904D01*
X142880952Y-108421904D02*
X142690476Y-108517142D01*
X142119047Y-108421904D02*
X141357143Y-108421904D01*
X141833333Y-107755238D02*
X141833333Y-109469523D01*
X141833333Y-109469523D02*
X141738095Y-109660000D01*
X141738095Y-109660000D02*
X141547619Y-109755238D01*
X141547619Y-109755238D02*
X141357143Y-109755238D01*
X140690476Y-109755238D02*
X140690476Y-108421904D01*
X140690476Y-107755238D02*
X140785714Y-107850476D01*
X140785714Y-107850476D02*
X140690476Y-107945714D01*
X140690476Y-107945714D02*
X140595238Y-107850476D01*
X140595238Y-107850476D02*
X140690476Y-107755238D01*
X140690476Y-107755238D02*
X140690476Y-107945714D01*
X139452381Y-109755238D02*
X139642857Y-109660000D01*
X139642857Y-109660000D02*
X139738095Y-109564761D01*
X139738095Y-109564761D02*
X139833333Y-109374285D01*
X139833333Y-109374285D02*
X139833333Y-108802857D01*
X139833333Y-108802857D02*
X139738095Y-108612380D01*
X139738095Y-108612380D02*
X139642857Y-108517142D01*
X139642857Y-108517142D02*
X139452381Y-108421904D01*
X139452381Y-108421904D02*
X139166666Y-108421904D01*
X139166666Y-108421904D02*
X138976190Y-108517142D01*
X138976190Y-108517142D02*
X138880952Y-108612380D01*
X138880952Y-108612380D02*
X138785714Y-108802857D01*
X138785714Y-108802857D02*
X138785714Y-109374285D01*
X138785714Y-109374285D02*
X138880952Y-109564761D01*
X138880952Y-109564761D02*
X138976190Y-109660000D01*
X138976190Y-109660000D02*
X139166666Y-109755238D01*
X139166666Y-109755238D02*
X139452381Y-109755238D01*
X137928571Y-108421904D02*
X137928571Y-109755238D01*
X137928571Y-108612380D02*
X137833333Y-108517142D01*
X137833333Y-108517142D02*
X137642857Y-108421904D01*
X137642857Y-108421904D02*
X137357142Y-108421904D01*
X137357142Y-108421904D02*
X137166666Y-108517142D01*
X137166666Y-108517142D02*
X137071428Y-108707619D01*
X137071428Y-108707619D02*
X137071428Y-109755238D01*
X134880951Y-107755238D02*
X133738094Y-107755238D01*
X134309523Y-109755238D02*
X134309523Y-107755238D01*
M02*
