%TF.GenerationSoftware,KiCad,Pcbnew,7.0.1*%
%TF.CreationDate,2023-06-23T15:29:09-04:00*%
%TF.ProjectId,reference-25mhz,72656665-7265-46e6-9365-2d32356d687a,rev?*%
%TF.SameCoordinates,Original*%
%TF.FileFunction,Copper,L1,Top*%
%TF.FilePolarity,Positive*%
%FSLAX46Y46*%
G04 Gerber Fmt 4.6, Leading zero omitted, Abs format (unit mm)*
G04 Created by KiCad (PCBNEW 7.0.1) date 2023-06-23 15:29:09*
%MOMM*%
%LPD*%
G01*
G04 APERTURE LIST*
G04 Aperture macros list*
%AMRoundRect*
0 Rectangle with rounded corners*
0 $1 Rounding radius*
0 $2 $3 $4 $5 $6 $7 $8 $9 X,Y pos of 4 corners*
0 Add a 4 corners polygon primitive as box body*
4,1,4,$2,$3,$4,$5,$6,$7,$8,$9,$2,$3,0*
0 Add four circle primitives for the rounded corners*
1,1,$1+$1,$2,$3*
1,1,$1+$1,$4,$5*
1,1,$1+$1,$6,$7*
1,1,$1+$1,$8,$9*
0 Add four rect primitives between the rounded corners*
20,1,$1+$1,$2,$3,$4,$5,0*
20,1,$1+$1,$4,$5,$6,$7,0*
20,1,$1+$1,$6,$7,$8,$9,0*
20,1,$1+$1,$8,$9,$2,$3,0*%
G04 Aperture macros list end*
%TA.AperFunction,SMDPad,CuDef*%
%ADD10RoundRect,0.200000X0.200000X0.275000X-0.200000X0.275000X-0.200000X-0.275000X0.200000X-0.275000X0*%
%TD*%
%TA.AperFunction,SMDPad,CuDef*%
%ADD11RoundRect,0.225000X0.250000X-0.225000X0.250000X0.225000X-0.250000X0.225000X-0.250000X-0.225000X0*%
%TD*%
%TA.AperFunction,SMDPad,CuDef*%
%ADD12RoundRect,0.225000X-0.225000X-0.250000X0.225000X-0.250000X0.225000X0.250000X-0.225000X0.250000X0*%
%TD*%
%TA.AperFunction,SMDPad,CuDef*%
%ADD13R,3.600000X1.270000*%
%TD*%
%TA.AperFunction,SMDPad,CuDef*%
%ADD14R,4.200000X1.350000*%
%TD*%
%TA.AperFunction,SMDPad,CuDef*%
%ADD15R,1.500000X1.000000*%
%TD*%
%TA.AperFunction,SMDPad,CuDef*%
%ADD16RoundRect,0.218750X-0.218750X-0.256250X0.218750X-0.256250X0.218750X0.256250X-0.218750X0.256250X0*%
%TD*%
%TA.AperFunction,SMDPad,CuDef*%
%ADD17RoundRect,0.225000X-0.250000X0.225000X-0.250000X-0.225000X0.250000X-0.225000X0.250000X0.225000X0*%
%TD*%
%TA.AperFunction,SMDPad,CuDef*%
%ADD18R,1.016000X1.778000*%
%TD*%
%TA.AperFunction,SMDPad,CuDef*%
%ADD19R,1.778000X1.016000*%
%TD*%
%TA.AperFunction,SMDPad,CuDef*%
%ADD20RoundRect,0.218750X-0.218750X-0.381250X0.218750X-0.381250X0.218750X0.381250X-0.218750X0.381250X0*%
%TD*%
%TA.AperFunction,SMDPad,CuDef*%
%ADD21RoundRect,0.200000X-0.200000X-0.275000X0.200000X-0.275000X0.200000X0.275000X-0.200000X0.275000X0*%
%TD*%
%TA.AperFunction,SMDPad,CuDef*%
%ADD22RoundRect,0.225000X0.225000X0.250000X-0.225000X0.250000X-0.225000X-0.250000X0.225000X-0.250000X0*%
%TD*%
%TA.AperFunction,SMDPad,CuDef*%
%ADD23RoundRect,0.250000X0.650000X-0.325000X0.650000X0.325000X-0.650000X0.325000X-0.650000X-0.325000X0*%
%TD*%
%TA.AperFunction,SMDPad,CuDef*%
%ADD24RoundRect,0.250000X-0.325000X-0.650000X0.325000X-0.650000X0.325000X0.650000X-0.325000X0.650000X0*%
%TD*%
%TA.AperFunction,SMDPad,CuDef*%
%ADD25R,0.400000X0.650000*%
%TD*%
%TA.AperFunction,SMDPad,CuDef*%
%ADD26R,1.000000X1.000000*%
%TD*%
%TA.AperFunction,SMDPad,CuDef*%
%ADD27R,0.600000X0.650000*%
%TD*%
%TA.AperFunction,SMDPad,CuDef*%
%ADD28R,1.000000X0.600000*%
%TD*%
%TA.AperFunction,ComponentPad*%
%ADD29R,2.500000X2.500000*%
%TD*%
%TA.AperFunction,SMDPad,CuDef*%
%ADD30RoundRect,0.200000X-0.275000X0.200000X-0.275000X-0.200000X0.275000X-0.200000X0.275000X0.200000X0*%
%TD*%
%TA.AperFunction,SMDPad,CuDef*%
%ADD31RoundRect,0.150000X-0.587500X-0.150000X0.587500X-0.150000X0.587500X0.150000X-0.587500X0.150000X0*%
%TD*%
%TA.AperFunction,SMDPad,CuDef*%
%ADD32RoundRect,0.250000X0.325000X0.650000X-0.325000X0.650000X-0.325000X-0.650000X0.325000X-0.650000X0*%
%TD*%
%TA.AperFunction,SMDPad,CuDef*%
%ADD33RoundRect,0.250000X-0.650000X0.325000X-0.650000X-0.325000X0.650000X-0.325000X0.650000X0.325000X0*%
%TD*%
%TA.AperFunction,SMDPad,CuDef*%
%ADD34R,0.800000X0.300000*%
%TD*%
%TA.AperFunction,SMDPad,CuDef*%
%ADD35RoundRect,0.150000X-0.150000X0.512500X-0.150000X-0.512500X0.150000X-0.512500X0.150000X0.512500X0*%
%TD*%
%TA.AperFunction,SMDPad,CuDef*%
%ADD36RoundRect,0.250000X0.250000X0.475000X-0.250000X0.475000X-0.250000X-0.475000X0.250000X-0.475000X0*%
%TD*%
%TA.AperFunction,ViaPad*%
%ADD37C,0.600000*%
%TD*%
%TA.AperFunction,Conductor*%
%ADD38C,0.400000*%
%TD*%
%TA.AperFunction,Conductor*%
%ADD39C,0.200000*%
%TD*%
%TA.AperFunction,Conductor*%
%ADD40C,0.800000*%
%TD*%
G04 APERTURE END LIST*
%TA.AperFunction,EtchedComponent*%
%TO.C,JP2*%
G36*
X92050000Y-133100000D02*
G01*
X91450000Y-133100000D01*
X91450000Y-132600000D01*
X92050000Y-132600000D01*
X92050000Y-133100000D01*
G37*
%TD.AperFunction*%
%TD*%
D10*
%TO.P,R5,1*%
%TO.N,Net-(C19-Pad2)*%
X84000000Y-134050000D03*
%TO.P,R5,2*%
%TO.N,GND*%
X82350000Y-134050000D03*
%TD*%
D11*
%TO.P,C24,1*%
%TO.N,GND*%
X89350000Y-143750000D03*
%TO.P,C24,2*%
%TO.N,+5V*%
X89350000Y-142200000D03*
%TD*%
D12*
%TO.P,C7,1*%
%TO.N,Net-(C7-Pad1)*%
X109725000Y-138000000D03*
%TO.P,C7,2*%
%TO.N,Net-(J5-In)*%
X111275000Y-138000000D03*
%TD*%
D13*
%TO.P,J1,1,In*%
%TO.N,Net-(J1-In)*%
X74462500Y-125500000D03*
D14*
%TO.P,J1,2,Ext*%
%TO.N,GND*%
X74662500Y-122675000D03*
X74662500Y-128325000D03*
%TD*%
D12*
%TO.P,C3,1*%
%TO.N,Net-(C3-Pad1)*%
X103475000Y-122000000D03*
%TO.P,C3,2*%
%TO.N,Net-(U1-RFIN)*%
X105025000Y-122000000D03*
%TD*%
D15*
%TO.P,JP2,1,A*%
%TO.N,GND*%
X91750000Y-133500000D03*
%TO.P,JP2,2,C*%
%TO.N,Net-(JP2-C)*%
X91750000Y-132200000D03*
%TO.P,JP2,3,B*%
%TO.N,+3V3*%
X91750000Y-130900000D03*
%TD*%
D16*
%TO.P,L4,1*%
%TO.N,Net-(C26-Pad2)*%
X107937500Y-130700000D03*
%TO.P,L4,2*%
%TO.N,Net-(C27-Pad1)*%
X109512500Y-130700000D03*
%TD*%
D11*
%TO.P,C2,1*%
%TO.N,GND*%
X99000000Y-125025000D03*
%TO.P,C2,2*%
%TO.N,Net-(C2-Pad2)*%
X99000000Y-123475000D03*
%TD*%
D13*
%TO.P,J5,1,In*%
%TO.N,Net-(J5-In)*%
X118537500Y-140000000D03*
D14*
%TO.P,J5,2,Ext*%
%TO.N,GND*%
X118337500Y-142825000D03*
X118337500Y-137175000D03*
%TD*%
D17*
%TO.P,C22,1*%
%TO.N,GND*%
X98550000Y-141575000D03*
%TO.P,C22,2*%
%TO.N,+3V3*%
X98550000Y-143125000D03*
%TD*%
D18*
%TO.P,U1,1,RFIN*%
%TO.N,Net-(U1-RFIN)*%
X106967800Y-121782200D03*
D19*
%TO.P,U1,2,GND*%
%TO.N,GND*%
X104250000Y-124500000D03*
D18*
%TO.P,U1,3,RFOUT*%
%TO.N,Net-(U1-RFOUT)*%
X106967800Y-127217800D03*
D19*
%TO.P,U1,4,GND*%
%TO.N,GND*%
X109685600Y-124500000D03*
%TD*%
D20*
%TO.P,FB1,1*%
%TO.N,Net-(FB1-Pad1)*%
X102937500Y-127250000D03*
%TO.P,FB1,2*%
%TO.N,Net-(U1-RFOUT)*%
X105062500Y-127250000D03*
%TD*%
D21*
%TO.P,R1,1*%
%TO.N,Net-(U4A-D)*%
X91350000Y-122000000D03*
%TO.P,R1,2*%
%TO.N,Net-(C1-Pad1)*%
X93000000Y-122000000D03*
%TD*%
%TO.P,R2,1*%
%TO.N,+5V*%
X99675000Y-127250000D03*
%TO.P,R2,2*%
%TO.N,Net-(FB1-Pad1)*%
X101325000Y-127250000D03*
%TD*%
D22*
%TO.P,C17,1*%
%TO.N,GND*%
X80775000Y-134500000D03*
%TO.P,C17,2*%
%TO.N,+3V3*%
X79225000Y-134500000D03*
%TD*%
D23*
%TO.P,C18,1*%
%TO.N,GND*%
X79700000Y-139275000D03*
%TO.P,C18,2*%
%TO.N,+3V3*%
X79700000Y-136325000D03*
%TD*%
D16*
%TO.P,L2,1*%
%TO.N,Net-(C2-Pad2)*%
X100462500Y-122000000D03*
%TO.P,L2,2*%
%TO.N,Net-(C3-Pad1)*%
X102037500Y-122000000D03*
%TD*%
D22*
%TO.P,C16,1*%
%TO.N,Net-(C16-Pad1)*%
X79775000Y-126500000D03*
%TO.P,C16,2*%
%TO.N,Net-(J1-In)*%
X78225000Y-126500000D03*
%TD*%
D11*
%TO.P,C26,1*%
%TO.N,GND*%
X108025000Y-133750000D03*
%TO.P,C26,2*%
%TO.N,Net-(C26-Pad2)*%
X108025000Y-132200000D03*
%TD*%
D24*
%TO.P,C4,1*%
%TO.N,GND*%
X95025000Y-127750000D03*
%TO.P,C4,2*%
%TO.N,+5V*%
X97975000Y-127750000D03*
%TD*%
D12*
%TO.P,C27,1*%
%TO.N,Net-(C27-Pad1)*%
X110975000Y-130700000D03*
%TO.P,C27,2*%
%TO.N,Net-(J4-In)*%
X112525000Y-130700000D03*
%TD*%
D25*
%TO.P,U5,1*%
%TO.N,Net-(JP3-B)*%
X79200000Y-133000000D03*
%TO.P,U5,2,V-*%
%TO.N,GND*%
X79850000Y-133000000D03*
%TO.P,U5,3,+*%
%TO.N,Net-(D1-A)*%
X80500000Y-133000000D03*
%TO.P,U5,4,-*%
%TO.N,Net-(U5--)*%
X80500000Y-131100000D03*
%TO.P,U5,5,V+*%
%TO.N,+3V3*%
X79200000Y-131100000D03*
%TD*%
D26*
%TO.P,X1,1,GND*%
%TO.N,GND*%
X86625000Y-136300000D03*
D27*
%TO.P,X1,2,NC*%
%TO.N,unconnected-(X1-NC-Pad2)*%
X88275000Y-136125000D03*
%TO.P,X1,3,EN*%
%TO.N,Net-(JP2-C)*%
X89475000Y-136125000D03*
D26*
%TO.P,X1,4,GND*%
%TO.N,GND*%
X91125000Y-136300000D03*
D28*
%TO.P,X1,5,NC*%
%TO.N,unconnected-(X1-NC-Pad5)*%
X91125000Y-137600000D03*
D26*
%TO.P,X1,6,OUT*%
%TO.N,Net-(JP3-A)*%
X91125000Y-138900000D03*
D27*
%TO.P,X1,7,NC*%
%TO.N,unconnected-(X1-NC-Pad7)*%
X89475000Y-139075000D03*
%TO.P,X1,8,NC*%
%TO.N,unconnected-(X1-NC-Pad8)*%
X88275000Y-139075000D03*
D26*
%TO.P,X1,9,V+*%
%TO.N,Net-(#FLG03-pwr)*%
X86625000Y-138900000D03*
D28*
%TO.P,X1,10,NC*%
%TO.N,unconnected-(X1-NC-Pad10)*%
X86625000Y-137600000D03*
%TD*%
D16*
%TO.P,L5,1*%
%TO.N,Net-(C5-Pad2)*%
X103675000Y-138000000D03*
%TO.P,L5,2*%
%TO.N,Net-(C6-Pad2)*%
X105250000Y-138000000D03*
%TD*%
D13*
%TO.P,J2,1,In*%
%TO.N,Net-(J1-In)*%
X74462500Y-140000000D03*
D14*
%TO.P,J2,2,Ext*%
%TO.N,GND*%
X74662500Y-137175000D03*
X74662500Y-142825000D03*
%TD*%
D29*
%TO.P,TP2,1,1*%
%TO.N,GND*%
X80650000Y-143350000D03*
%TD*%
D30*
%TO.P,R3,1*%
%TO.N,Net-(C16-Pad1)*%
X80000000Y-127925000D03*
%TO.P,R3,2*%
%TO.N,Net-(D1-A)*%
X80000000Y-129575000D03*
%TD*%
D16*
%TO.P,L1,1*%
%TO.N,Net-(C1-Pad2)*%
X97462500Y-122000000D03*
%TO.P,L1,2*%
%TO.N,Net-(C2-Pad2)*%
X99037500Y-122000000D03*
%TD*%
D24*
%TO.P,C14,1*%
%TO.N,GND*%
X90325000Y-124000000D03*
%TO.P,C14,2*%
%TO.N,+3V3*%
X93275000Y-124000000D03*
%TD*%
%TO.P,C13,1*%
%TO.N,GND*%
X81925000Y-138400000D03*
%TO.P,C13,2*%
%TO.N,Net-(#FLG03-pwr)*%
X84875000Y-138400000D03*
%TD*%
D30*
%TO.P,JP1,1,A*%
%TO.N,+3V3*%
X94500000Y-135175000D03*
%TO.P,JP1,2,B*%
%TO.N,Net-(#FLG03-pwr)*%
X94500000Y-136825000D03*
%TD*%
D31*
%TO.P,D1,1,K*%
%TO.N,Net-(D1-A)*%
X82000000Y-127600000D03*
%TO.P,D1,2,A*%
X82000000Y-129500000D03*
%TO.P,D1,3,K*%
%TO.N,Net-(C15-Pad1)*%
X83875000Y-128550000D03*
%TD*%
D10*
%TO.P,R6,1*%
%TO.N,Net-(C19-Pad2)*%
X83825000Y-131000000D03*
%TO.P,R6,2*%
%TO.N,Net-(U5--)*%
X82175000Y-131000000D03*
%TD*%
D32*
%TO.P,C19,1*%
%TO.N,GND*%
X88975000Y-134000000D03*
%TO.P,C19,2*%
%TO.N,Net-(C19-Pad2)*%
X86025000Y-134000000D03*
%TD*%
D16*
%TO.P,L6,1*%
%TO.N,Net-(C6-Pad2)*%
X106712500Y-138000000D03*
%TO.P,L6,2*%
%TO.N,Net-(C7-Pad1)*%
X108287500Y-138000000D03*
%TD*%
D33*
%TO.P,C21,1*%
%TO.N,GND*%
X96550000Y-141375000D03*
%TO.P,C21,2*%
%TO.N,+3V3*%
X96550000Y-144325000D03*
%TD*%
D34*
%TO.P,U4,1,C*%
%TO.N,Net-(JP3-C)*%
X90300000Y-125750000D03*
%TO.P,U4,2,D*%
%TO.N,Net-(U4A-D)*%
X90300000Y-126250000D03*
%TO.P,U4,3,~{Q}*%
%TO.N,unconnected-(U4B-~{Q}-Pad3)*%
X90300000Y-126750000D03*
%TO.P,U4,4,GND*%
%TO.N,GND*%
X90300000Y-127250000D03*
%TO.P,U4,5,C*%
X93400000Y-127250000D03*
%TO.P,U4,6,D*%
X93400000Y-126750000D03*
%TO.P,U4,7,~{Q}*%
%TO.N,Net-(U4A-D)*%
X93400000Y-126250000D03*
%TO.P,U4,8,VCC*%
%TO.N,+3V3*%
X93400000Y-125750000D03*
%TD*%
D35*
%TO.P,U6,1,Vin*%
%TO.N,+5V*%
X94450000Y-142075000D03*
%TO.P,U6,2,GND*%
%TO.N,GND*%
X93500000Y-142075000D03*
%TO.P,U6,3,~{SHDN}*%
%TO.N,+5V*%
X92550000Y-142075000D03*
%TO.P,U6,4,NC*%
%TO.N,unconnected-(U6-NC-Pad4)*%
X92550000Y-144350000D03*
%TO.P,U6,5,VOUT*%
%TO.N,+3V3*%
X94450000Y-144350000D03*
%TD*%
D10*
%TO.P,R7,1*%
%TO.N,Net-(C19-Pad2)*%
X83825000Y-132500000D03*
%TO.P,R7,2*%
%TO.N,Net-(D1-A)*%
X82175000Y-132500000D03*
%TD*%
D15*
%TO.P,JP3,1,A*%
%TO.N,Net-(JP3-A)*%
X87500000Y-126550000D03*
%TO.P,JP3,2,C*%
%TO.N,Net-(JP3-C)*%
X87500000Y-125250000D03*
%TO.P,JP3,3,B*%
%TO.N,Net-(JP3-B)*%
X87500000Y-123950000D03*
%TD*%
D32*
%TO.P,C15,1*%
%TO.N,Net-(C15-Pad1)*%
X84475000Y-125000000D03*
%TO.P,C15,2*%
%TO.N,GND*%
X81525000Y-125000000D03*
%TD*%
D21*
%TO.P,R4,1*%
%TO.N,+3V3*%
X82350000Y-135750000D03*
%TO.P,R4,2*%
%TO.N,Net-(C19-Pad2)*%
X84000000Y-135750000D03*
%TD*%
D36*
%TO.P,C20,1*%
%TO.N,GND*%
X87450000Y-131500000D03*
%TO.P,C20,2*%
%TO.N,Net-(C19-Pad2)*%
X85550000Y-131500000D03*
%TD*%
D29*
%TO.P,TP1,1,1*%
%TO.N,+5V*%
X85200000Y-143350000D03*
%TD*%
D11*
%TO.P,C6,1*%
%TO.N,GND*%
X105250000Y-141025000D03*
%TO.P,C6,2*%
%TO.N,Net-(C6-Pad2)*%
X105250000Y-139475000D03*
%TD*%
D12*
%TO.P,C5,1*%
%TO.N,Net-(U1-RFOUT)*%
X100725000Y-138000000D03*
%TO.P,C5,2*%
%TO.N,Net-(C5-Pad2)*%
X102275000Y-138000000D03*
%TD*%
D13*
%TO.P,J4,1,In*%
%TO.N,Net-(J4-In)*%
X118537500Y-125500000D03*
D14*
%TO.P,J4,2,Ext*%
%TO.N,GND*%
X118337500Y-128325000D03*
X118337500Y-122675000D03*
%TD*%
D11*
%TO.P,C23,1*%
%TO.N,GND*%
X90850000Y-143750000D03*
%TO.P,C23,2*%
%TO.N,+5V*%
X90850000Y-142200000D03*
%TD*%
D12*
%TO.P,C1,1*%
%TO.N,Net-(C1-Pad1)*%
X94400000Y-122000000D03*
%TO.P,C1,2*%
%TO.N,Net-(C1-Pad2)*%
X95950000Y-122000000D03*
%TD*%
%TO.P,C25,1*%
%TO.N,Net-(U1-RFOUT)*%
X101950000Y-130700000D03*
%TO.P,C25,2*%
%TO.N,Net-(C25-Pad2)*%
X103500000Y-130700000D03*
%TD*%
D16*
%TO.P,L3,1*%
%TO.N,Net-(C25-Pad2)*%
X104925000Y-130700000D03*
%TO.P,L3,2*%
%TO.N,Net-(C26-Pad2)*%
X106500000Y-130700000D03*
%TD*%
D37*
%TO.N,GND*%
X106000000Y-143000000D03*
X74000000Y-145000000D03*
X117000000Y-120000000D03*
X100000000Y-131000000D03*
X109000000Y-140000000D03*
X112000000Y-141000000D03*
X77000000Y-120000000D03*
X98000000Y-121000000D03*
X115000000Y-132000000D03*
X107000000Y-142000000D03*
X106000000Y-129000000D03*
X100000000Y-137000000D03*
X100000000Y-129000000D03*
X90250000Y-128750000D03*
X96000000Y-130000000D03*
X78000000Y-121000000D03*
X87500000Y-144000000D03*
X103000000Y-134000000D03*
X81000000Y-135500000D03*
X107000000Y-136000000D03*
X111000000Y-128000000D03*
X110000000Y-133000000D03*
X76000000Y-121000000D03*
X103000000Y-136000000D03*
X109000000Y-128000000D03*
X95000000Y-131000000D03*
X114000000Y-141000000D03*
X78000000Y-123000000D03*
X113000000Y-132000000D03*
X115000000Y-138000000D03*
X78000000Y-141000000D03*
X111000000Y-140000000D03*
X115000000Y-130000000D03*
X89000000Y-122000000D03*
X111000000Y-136000000D03*
X102500000Y-125500000D03*
X107000000Y-132000000D03*
X91000000Y-120000000D03*
X105000000Y-136000000D03*
X97000000Y-140000000D03*
X114000000Y-125000000D03*
X111000000Y-124000000D03*
X101000000Y-140000000D03*
X103000000Y-140000000D03*
X108000000Y-137000000D03*
X87500000Y-141000000D03*
X89250000Y-132000000D03*
X92000000Y-121000000D03*
X113000000Y-136000000D03*
X100500000Y-123500000D03*
X102000000Y-137000000D03*
X110000000Y-127000000D03*
X97000000Y-131000000D03*
X94000000Y-130000000D03*
X111000000Y-126000000D03*
X79000000Y-120000000D03*
X112000000Y-125000000D03*
X100500000Y-125500000D03*
X118000000Y-121000000D03*
X102500000Y-123500000D03*
X79000000Y-122000000D03*
X95500000Y-138400000D03*
X74000000Y-133000000D03*
X104000000Y-121000000D03*
X75000000Y-134000000D03*
X112000000Y-137000000D03*
X90000000Y-121000000D03*
X114000000Y-129000000D03*
X103000000Y-120000000D03*
X114000000Y-131000000D03*
X93000000Y-120000000D03*
X75000000Y-120000000D03*
X115000000Y-128000000D03*
X80000000Y-125000000D03*
X80000000Y-123000000D03*
X95000000Y-120000000D03*
X109000000Y-136000000D03*
X87000000Y-120000000D03*
X99000000Y-140000000D03*
X119000000Y-120000000D03*
X105000000Y-132000000D03*
X107000000Y-120000000D03*
X108000000Y-141000000D03*
X110000000Y-137000000D03*
X101500000Y-124500000D03*
X116000000Y-121000000D03*
X108000000Y-129000000D03*
X76000000Y-145000000D03*
X114000000Y-137000000D03*
X101000000Y-142000000D03*
X110000000Y-121000000D03*
X106000000Y-137000000D03*
X96000000Y-134000000D03*
X97000000Y-133000000D03*
X96500000Y-143000000D03*
X101000000Y-130000000D03*
X107000000Y-140000000D03*
X112000000Y-133000000D03*
X74000000Y-135000000D03*
X81000000Y-141000000D03*
X114000000Y-133000000D03*
X113000000Y-120000000D03*
X84000000Y-123000000D03*
X82000000Y-123000000D03*
X110000000Y-129000000D03*
X78000000Y-143000000D03*
X100000000Y-121000000D03*
X97000000Y-135000000D03*
X85000000Y-120000000D03*
X115000000Y-120000000D03*
X86000000Y-140500000D03*
X75000000Y-132000000D03*
X107000000Y-134000000D03*
X83000000Y-120000000D03*
X104000000Y-143000000D03*
X84500000Y-140500000D03*
X104000000Y-133000000D03*
X88000000Y-121000000D03*
X81000000Y-120000000D03*
X105000000Y-120000000D03*
X92800000Y-138700000D03*
X97000000Y-120000000D03*
X106000000Y-133000000D03*
X109000000Y-122000000D03*
X91750000Y-135000000D03*
X102000000Y-141000000D03*
X113000000Y-126000000D03*
X78000000Y-145000000D03*
X94000000Y-121000000D03*
X103000000Y-142000000D03*
X115000000Y-136000000D03*
X102000000Y-133000000D03*
X115000000Y-124000000D03*
X112000000Y-127000000D03*
X100000000Y-133000000D03*
X89000000Y-120000000D03*
X109000000Y-126000000D03*
X89000000Y-141000000D03*
X115000000Y-122000000D03*
X111000000Y-122000000D03*
X111000000Y-132000000D03*
X86000000Y-121000000D03*
X96000000Y-121000000D03*
X105000000Y-142000000D03*
X109000000Y-120000000D03*
X104000000Y-137000000D03*
X101000000Y-120000000D03*
X102000000Y-135000000D03*
X110000000Y-141000000D03*
X113000000Y-140000000D03*
X100000000Y-135000000D03*
X96000000Y-132000000D03*
X103000000Y-132000000D03*
X99000000Y-120000000D03*
X102000000Y-121000000D03*
X74000000Y-131000000D03*
X74000000Y-121000000D03*
X115000000Y-142000000D03*
X79000000Y-124000000D03*
X111000000Y-120000000D03*
X98000000Y-139000000D03*
%TO.N,+3V3*%
X98750000Y-138250000D03*
X96000000Y-137000000D03*
%TO.N,Net-(JP2-C)*%
X92750000Y-137250000D03*
X89000000Y-137250000D03*
%TO.N,Net-(JP3-B)*%
X78750000Y-132250000D03*
X84000000Y-130000000D03*
%TO.N,Net-(U4A-D)*%
X94750000Y-125750000D03*
X91350000Y-125250000D03*
%TD*%
D38*
%TO.N,Net-(C1-Pad1)*%
X93000000Y-122000000D02*
X94400000Y-122000000D01*
%TO.N,Net-(C1-Pad2)*%
X95950000Y-122000000D02*
X97462500Y-122000000D01*
%TO.N,GND*%
X91750000Y-133500000D02*
X91750000Y-135675000D01*
X81925000Y-138400000D02*
X81925000Y-140075000D01*
X81500000Y-134500000D02*
X81500000Y-135000000D01*
X81500000Y-135000000D02*
X81000000Y-135500000D01*
X89350000Y-143750000D02*
X87750000Y-143750000D01*
D39*
X90300000Y-128700000D02*
X90250000Y-128750000D01*
D38*
X96362500Y-143137500D02*
X96500000Y-143000000D01*
X88975000Y-132275000D02*
X89250000Y-132000000D01*
X91750000Y-135675000D02*
X91125000Y-136300000D01*
X86625000Y-136300000D02*
X86675000Y-136300000D01*
X94072183Y-143137500D02*
X96362500Y-143137500D01*
X79850000Y-133000000D02*
X79850000Y-133575000D01*
X91750000Y-135675000D02*
X91750000Y-135000000D01*
X87750000Y-143750000D02*
X87500000Y-144000000D01*
D39*
X93400000Y-126750000D02*
X93400000Y-127250000D01*
D38*
X93500000Y-142565317D02*
X94072183Y-143137500D01*
X80775000Y-134500000D02*
X81500000Y-134500000D01*
X81900000Y-134500000D02*
X82350000Y-134050000D01*
D39*
X90300000Y-127250000D02*
X90300000Y-128700000D01*
D38*
X93500000Y-142075000D02*
X93500000Y-142565317D01*
X81500000Y-134500000D02*
X81900000Y-134500000D01*
X79850000Y-133575000D02*
X80775000Y-134500000D01*
X81925000Y-140075000D02*
X81000000Y-141000000D01*
X90850000Y-143750000D02*
X89350000Y-143750000D01*
X86675000Y-136300000D02*
X88975000Y-134000000D01*
X88975000Y-134000000D02*
X88975000Y-132275000D01*
%TO.N,Net-(C2-Pad2)*%
X99037500Y-122000000D02*
X99500000Y-122000000D01*
X99000000Y-123475000D02*
X99000000Y-122037500D01*
X99000000Y-122037500D02*
X99037500Y-122000000D01*
X99500000Y-122000000D02*
X100462500Y-122000000D01*
%TO.N,Net-(C3-Pad1)*%
X102037500Y-122000000D02*
X103475000Y-122000000D01*
%TO.N,Net-(U1-RFIN)*%
X105025000Y-122000000D02*
X106750000Y-122000000D01*
X106750000Y-122000000D02*
X106967800Y-121782200D01*
%TO.N,+5V*%
X94500000Y-142025000D02*
X94450000Y-142075000D01*
D40*
X90850000Y-142200000D02*
X92425000Y-142200000D01*
X89350000Y-142200000D02*
X90850000Y-142200000D01*
D38*
X99675000Y-127250000D02*
X98475000Y-127250000D01*
X92500000Y-140500000D02*
X94500000Y-140500000D01*
X98475000Y-127250000D02*
X97975000Y-127750000D01*
D40*
X85200000Y-143350000D02*
X86350000Y-142200000D01*
X86350000Y-142200000D02*
X89350000Y-142200000D01*
D38*
X94500000Y-140500000D02*
X94500000Y-142025000D01*
X98500000Y-128275000D02*
X97975000Y-127750000D01*
D40*
X92425000Y-142200000D02*
X92550000Y-142075000D01*
D38*
X94500000Y-140500000D02*
X98500000Y-136500000D01*
X92425000Y-142200000D02*
X92500000Y-142125000D01*
X92500000Y-142125000D02*
X92500000Y-140500000D01*
X98500000Y-136500000D02*
X98500000Y-128275000D01*
%TO.N,Net-(U1-RFOUT)*%
X103112500Y-129200000D02*
X102200000Y-129200000D01*
X106935600Y-127250000D02*
X106967800Y-127217800D01*
X105062500Y-127250000D02*
X103112500Y-129200000D01*
X100725000Y-131925000D02*
X100725000Y-138000000D01*
X105062500Y-127250000D02*
X106935600Y-127250000D01*
X101950000Y-129450000D02*
X101950000Y-130700000D01*
X102200000Y-129200000D02*
X101950000Y-129450000D01*
X101950000Y-130700000D02*
X100725000Y-131925000D01*
%TO.N,Net-(J5-In)*%
X115275000Y-140275000D02*
X118262500Y-140275000D01*
X113000000Y-138000000D02*
X115275000Y-140275000D01*
X118262500Y-140275000D02*
X118537500Y-140000000D01*
X111275000Y-138000000D02*
X113000000Y-138000000D01*
%TO.N,Net-(C5-Pad2)*%
X102275000Y-138000000D02*
X103675000Y-138000000D01*
%TO.N,Net-(C6-Pad2)*%
X105250000Y-138000000D02*
X105250000Y-139475000D01*
X106712500Y-138000000D02*
X105250000Y-138000000D01*
%TO.N,Net-(J4-In)*%
X115400000Y-125500000D02*
X112525000Y-128375000D01*
X117700000Y-125500000D02*
X115400000Y-125500000D01*
X112525000Y-128375000D02*
X112525000Y-130700000D01*
%TO.N,Net-(C7-Pad1)*%
X108287500Y-138000000D02*
X109725000Y-138000000D01*
%TO.N,Net-(#FLG03-pwr)*%
X86125000Y-138400000D02*
X86625000Y-138900000D01*
X84875000Y-138400000D02*
X86125000Y-138400000D01*
X87525000Y-139800000D02*
X93115000Y-139800000D01*
X86625000Y-138900000D02*
X87525000Y-139800000D01*
X94500000Y-138415000D02*
X94500000Y-136700000D01*
X93115000Y-139800000D02*
X94500000Y-138415000D01*
%TO.N,+3V3*%
X94450000Y-145050000D02*
X94450000Y-144350000D01*
X78000000Y-131250000D02*
X78000000Y-134000000D01*
X78000000Y-134000000D02*
X78500000Y-134500000D01*
X99700000Y-139200000D02*
X98750000Y-138250000D01*
X93275000Y-125625000D02*
X93350000Y-125700000D01*
X81744239Y-136325000D02*
X83000000Y-137580761D01*
X93275000Y-125000000D02*
X93275000Y-125275000D01*
X93400000Y-125600000D02*
X93400000Y-125700000D01*
X96550000Y-144325000D02*
X94475000Y-144325000D01*
X98550000Y-143125000D02*
X99700000Y-141975000D01*
X99700000Y-141975000D02*
X99700000Y-139200000D01*
X79700000Y-136325000D02*
X79700000Y-134975000D01*
X91625000Y-126637500D02*
X91625000Y-130900000D01*
X91625000Y-130900000D02*
X92500000Y-130900000D01*
X79200000Y-131100000D02*
X78150000Y-131100000D01*
X93275000Y-124000000D02*
X93275000Y-125000000D01*
X94475000Y-144325000D02*
X94450000Y-144350000D01*
X79700000Y-134975000D02*
X79225000Y-134500000D01*
X93275000Y-124000000D02*
X93275000Y-124987500D01*
X93350000Y-125700000D02*
X93400000Y-125700000D01*
X94500000Y-135500000D02*
X96000000Y-137000000D01*
X79700000Y-136325000D02*
X81525000Y-136325000D01*
X94087500Y-145412500D02*
X94450000Y-145050000D01*
X81525000Y-136325000D02*
X82350000Y-135500000D01*
X97750000Y-143125000D02*
X96550000Y-144325000D01*
X83662500Y-145412500D02*
X94087500Y-145412500D01*
X94500000Y-135175000D02*
X94500000Y-135500000D01*
X93275000Y-125000000D02*
X93275000Y-125625000D01*
X79700000Y-136325000D02*
X81744239Y-136325000D01*
X98550000Y-143125000D02*
X97750000Y-143125000D01*
X78500000Y-134500000D02*
X79225000Y-134500000D01*
X83000000Y-144750000D02*
X83662500Y-145412500D01*
X83000000Y-137580761D02*
X83000000Y-144750000D01*
X92500000Y-130900000D02*
X94500000Y-132900000D01*
X94500000Y-135050000D02*
X94275000Y-135275000D01*
X94500000Y-132900000D02*
X94500000Y-135050000D01*
X93275000Y-124987500D02*
X91625000Y-126637500D01*
X78150000Y-131100000D02*
X78000000Y-131250000D01*
%TO.N,Net-(C15-Pad1)*%
X84475000Y-125000000D02*
X84475000Y-127950000D01*
X84475000Y-127950000D02*
X83875000Y-128550000D01*
%TO.N,Net-(C16-Pad1)*%
X79775000Y-126500000D02*
X79775000Y-127950000D01*
%TO.N,Net-(J1-In)*%
X78225000Y-129775000D02*
X76500000Y-131500000D01*
X77225000Y-125500000D02*
X78225000Y-126500000D01*
X77400500Y-138227000D02*
X75627500Y-140000000D01*
X77400500Y-135650500D02*
X77400500Y-138227000D01*
X78225000Y-126500000D02*
X78225000Y-129775000D01*
X74462500Y-125500000D02*
X77225000Y-125500000D01*
X76500000Y-131500000D02*
X76500000Y-134750000D01*
X76500000Y-134750000D02*
X77400500Y-135650500D01*
X75627500Y-140000000D02*
X74462500Y-140000000D01*
%TO.N,Net-(C19-Pad2)*%
X86025000Y-134000000D02*
X84050000Y-134000000D01*
X84000000Y-134050000D02*
X84000000Y-135500000D01*
X85550000Y-131500000D02*
X84325000Y-131500000D01*
X83825000Y-133875000D02*
X84000000Y-134050000D01*
X83825000Y-131000000D02*
X83825000Y-132500000D01*
X84325000Y-131500000D02*
X83825000Y-131000000D01*
X83825000Y-132500000D02*
X83825000Y-133875000D01*
X84050000Y-134000000D02*
X84000000Y-134050000D01*
%TO.N,Net-(D1-A)*%
X82000000Y-129500000D02*
X80325000Y-129500000D01*
X82175000Y-132500000D02*
X81000000Y-132500000D01*
X79900000Y-129925000D02*
X80000000Y-129825000D01*
X80500000Y-133000000D02*
X80500000Y-132275000D01*
X82000000Y-127600000D02*
X82000000Y-129500000D01*
X80325000Y-129500000D02*
X80000000Y-129825000D01*
X81000000Y-132500000D02*
X80500000Y-133000000D01*
X80500000Y-132275000D02*
X79900000Y-131675000D01*
X79900000Y-131675000D02*
X79900000Y-129925000D01*
%TO.N,Net-(FB1-Pad1)*%
X102937500Y-127250000D02*
X101325000Y-127250000D01*
D39*
%TO.N,Net-(JP2-C)*%
X92300000Y-132200000D02*
X93250000Y-133150000D01*
X93250000Y-133150000D02*
X93250000Y-136750000D01*
X91750000Y-132200000D02*
X92300000Y-132200000D01*
X89475000Y-136125000D02*
X89475000Y-136775000D01*
X89475000Y-136775000D02*
X89000000Y-137250000D01*
X93250000Y-136750000D02*
X92750000Y-137250000D01*
D38*
%TO.N,Net-(JP3-A)*%
X90225000Y-130515000D02*
X90225000Y-138550000D01*
X90225000Y-138550000D02*
X90575000Y-138900000D01*
X87500000Y-126550000D02*
X87500000Y-127790000D01*
X90575000Y-138900000D02*
X91125000Y-138900000D01*
X87500000Y-127790000D02*
X90225000Y-130515000D01*
D39*
%TO.N,Net-(JP3-C)*%
X89250000Y-125750000D02*
X88750000Y-125250000D01*
X90300000Y-125750000D02*
X89250000Y-125750000D01*
X88750000Y-125250000D02*
X87500000Y-125250000D01*
D38*
%TO.N,Net-(JP3-B)*%
X86350000Y-123950000D02*
X86250000Y-124050000D01*
X87500000Y-123950000D02*
X86350000Y-123950000D01*
X79200000Y-132700000D02*
X78750000Y-132250000D01*
X86250000Y-124050000D02*
X86250000Y-127750000D01*
X86250000Y-127750000D02*
X84000000Y-130000000D01*
X79200000Y-133000000D02*
X79200000Y-132700000D01*
D39*
%TO.N,Net-(U4A-D)*%
X90300000Y-126250000D02*
X90950000Y-126250000D01*
X90950000Y-126250000D02*
X91350000Y-125850000D01*
X93400000Y-126250000D02*
X94250000Y-126250000D01*
X94250000Y-126250000D02*
X94750000Y-125750000D01*
X91350000Y-125250000D02*
X91350000Y-122000000D01*
X91350000Y-125850000D02*
X91350000Y-125250000D01*
D38*
%TO.N,Net-(U5--)*%
X80600000Y-131000000D02*
X80500000Y-131100000D01*
X82175000Y-131000000D02*
X80600000Y-131000000D01*
%TO.N,Net-(C25-Pad2)*%
X104810050Y-130700000D02*
X104867525Y-130642525D01*
X103500000Y-130700000D02*
X104810050Y-130700000D01*
%TO.N,Net-(C26-Pad2)*%
X106500000Y-130700000D02*
X107937500Y-130700000D01*
X108025000Y-130787500D02*
X107937500Y-130700000D01*
X108025000Y-132200000D02*
X108025000Y-130787500D01*
%TO.N,Net-(C27-Pad1)*%
X110975000Y-130700000D02*
X109512500Y-130700000D01*
%TD*%
%TA.AperFunction,Conductor*%
%TO.N,GND*%
G36*
X112705934Y-138709939D02*
G01*
X112746162Y-138736819D01*
X114762058Y-140752715D01*
X114767178Y-140758153D01*
X114807071Y-140803183D01*
X114856577Y-140837355D01*
X114862597Y-140841785D01*
X114909941Y-140878877D01*
X114909942Y-140878877D01*
X114909943Y-140878878D01*
X114919184Y-140883037D01*
X114938730Y-140894061D01*
X114947070Y-140899818D01*
X115003313Y-140921147D01*
X115010217Y-140924007D01*
X115065069Y-140948695D01*
X115075044Y-140950522D01*
X115096656Y-140956547D01*
X115106128Y-140960140D01*
X115165841Y-140967390D01*
X115173185Y-140968507D01*
X115232394Y-140979358D01*
X115289102Y-140975927D01*
X115292434Y-140975726D01*
X115299921Y-140975500D01*
X116315912Y-140975500D01*
X116355071Y-140981846D01*
X116390221Y-141000232D01*
X116495169Y-141078796D01*
X116630017Y-141129091D01*
X116689627Y-141135500D01*
X120375500Y-141135499D01*
X120437500Y-141152112D01*
X120482887Y-141197499D01*
X120499500Y-141259499D01*
X120499500Y-141526000D01*
X120482887Y-141588000D01*
X120437500Y-141633387D01*
X120375500Y-141650000D01*
X118587500Y-141650000D01*
X118587500Y-144000000D01*
X120375500Y-144000000D01*
X120437500Y-144016613D01*
X120482887Y-144062000D01*
X120499500Y-144124000D01*
X120499500Y-145875500D01*
X120482887Y-145937500D01*
X120437500Y-145982887D01*
X120375500Y-145999500D01*
X94790518Y-145999500D01*
X94734223Y-145985985D01*
X94690200Y-145948385D01*
X94668045Y-145894898D01*
X94672587Y-145837182D01*
X94702837Y-145787819D01*
X94702837Y-145787818D01*
X94927731Y-145562924D01*
X94933151Y-145557822D01*
X94978183Y-145517929D01*
X95012358Y-145468416D01*
X95016779Y-145462407D01*
X95053877Y-145415057D01*
X95058033Y-145405820D01*
X95069058Y-145386273D01*
X95074818Y-145377930D01*
X95096154Y-145321668D01*
X95099014Y-145314766D01*
X95129876Y-145246198D01*
X95131344Y-145246859D01*
X95136288Y-145233576D01*
X95161169Y-145191505D01*
X95199822Y-145150989D01*
X95252359Y-145131608D01*
X95308065Y-145137316D01*
X95355580Y-145166949D01*
X95431342Y-145242711D01*
X95438067Y-145246859D01*
X95580666Y-145334814D01*
X95692016Y-145371712D01*
X95747202Y-145389999D01*
X95757702Y-145391071D01*
X95849991Y-145400500D01*
X97250008Y-145400499D01*
X97352797Y-145389999D01*
X97519334Y-145334814D01*
X97668656Y-145242712D01*
X97792712Y-145118656D01*
X97884814Y-144969334D01*
X97939999Y-144802797D01*
X97950500Y-144700009D01*
X97950499Y-144170199D01*
X97964096Y-144113745D01*
X98001906Y-144069671D01*
X98055637Y-144047644D01*
X98113499Y-144052494D01*
X98152292Y-144065349D01*
X98251655Y-144075500D01*
X98848344Y-144075499D01*
X98947708Y-144065349D01*
X99108697Y-144012003D01*
X99155091Y-143983387D01*
X99253044Y-143922968D01*
X99372968Y-143803044D01*
X99462002Y-143658699D01*
X99473335Y-143624500D01*
X99515349Y-143497708D01*
X99525500Y-143398345D01*
X99525499Y-143191517D01*
X99534938Y-143144066D01*
X99561816Y-143103839D01*
X99590655Y-143075000D01*
X115737500Y-143075000D01*
X115737500Y-143547824D01*
X115743902Y-143607375D01*
X115794147Y-143742089D01*
X115880311Y-143857188D01*
X115995410Y-143943352D01*
X116130124Y-143993597D01*
X116189676Y-144000000D01*
X118087500Y-144000000D01*
X118087500Y-143075000D01*
X115737500Y-143075000D01*
X99590655Y-143075000D01*
X100090654Y-142575000D01*
X115737500Y-142575000D01*
X118087500Y-142575000D01*
X118087500Y-141650000D01*
X116189676Y-141650000D01*
X116130124Y-141656402D01*
X115995410Y-141706647D01*
X115880311Y-141792811D01*
X115794147Y-141907910D01*
X115743902Y-142042624D01*
X115737500Y-142102176D01*
X115737500Y-142575000D01*
X100090654Y-142575000D01*
X100177723Y-142487931D01*
X100183142Y-142482829D01*
X100228183Y-142442929D01*
X100262361Y-142393410D01*
X100266790Y-142387394D01*
X100303875Y-142340060D01*
X100303875Y-142340059D01*
X100303878Y-142340056D01*
X100308037Y-142330814D01*
X100319061Y-142311268D01*
X100324818Y-142302930D01*
X100346152Y-142246674D01*
X100348994Y-142239811D01*
X100373695Y-142184931D01*
X100375522Y-142174956D01*
X100381549Y-142153339D01*
X100385140Y-142143872D01*
X100392387Y-142084179D01*
X100393514Y-142076777D01*
X100404358Y-142017606D01*
X100400726Y-141957566D01*
X100400500Y-141950079D01*
X100400500Y-141275000D01*
X104275001Y-141275000D01*
X104275001Y-141298315D01*
X104285143Y-141397605D01*
X104338453Y-141558486D01*
X104427426Y-141702732D01*
X104547267Y-141822573D01*
X104691513Y-141911546D01*
X104852393Y-141964856D01*
X104951685Y-141975000D01*
X105000000Y-141975000D01*
X105000000Y-141275000D01*
X105500000Y-141275000D01*
X105500000Y-141974999D01*
X105548315Y-141974999D01*
X105647605Y-141964856D01*
X105808486Y-141911546D01*
X105952732Y-141822573D01*
X106072573Y-141702732D01*
X106161546Y-141558486D01*
X106214856Y-141397606D01*
X106225000Y-141298315D01*
X106225000Y-141275000D01*
X105500000Y-141275000D01*
X105000000Y-141275000D01*
X104275001Y-141275000D01*
X100400500Y-141275000D01*
X100400500Y-139224921D01*
X100400726Y-139217434D01*
X100401680Y-139201655D01*
X100404358Y-139157394D01*
X100397844Y-139121849D01*
X100399878Y-139068010D01*
X100424556Y-139020113D01*
X100467220Y-138987205D01*
X100519809Y-138975499D01*
X100998344Y-138975499D01*
X100998345Y-138975499D01*
X101086939Y-138966449D01*
X101097708Y-138965349D01*
X101258697Y-138912003D01*
X101327939Y-138869294D01*
X101335711Y-138864500D01*
X101403044Y-138822968D01*
X101412317Y-138813695D01*
X101467905Y-138781599D01*
X101532095Y-138781599D01*
X101587683Y-138813695D01*
X101596957Y-138822969D01*
X101741300Y-138912002D01*
X101741302Y-138912002D01*
X101741303Y-138912003D01*
X101902292Y-138965349D01*
X102001655Y-138975500D01*
X102548344Y-138975499D01*
X102647708Y-138965349D01*
X102808697Y-138912003D01*
X102913916Y-138847102D01*
X102979012Y-138828641D01*
X103044108Y-138847102D01*
X103097142Y-138879814D01*
X103150213Y-138912549D01*
X103309814Y-138965436D01*
X103408326Y-138975500D01*
X103941674Y-138975500D01*
X104040185Y-138965436D01*
X104131377Y-138935217D01*
X104198974Y-138932266D01*
X104258059Y-138965242D01*
X104291036Y-139024327D01*
X104288085Y-139091927D01*
X104284650Y-139102290D01*
X104274500Y-139201655D01*
X104274500Y-139748344D01*
X104284650Y-139847707D01*
X104337997Y-140008699D01*
X104427031Y-140153044D01*
X104436659Y-140162672D01*
X104468753Y-140218258D01*
X104468753Y-140282445D01*
X104436661Y-140338032D01*
X104427426Y-140347266D01*
X104338453Y-140491513D01*
X104285143Y-140652393D01*
X104275000Y-140751685D01*
X104275000Y-140775000D01*
X106224999Y-140775000D01*
X106224999Y-140751685D01*
X106214856Y-140652394D01*
X106161546Y-140491513D01*
X106072574Y-140347269D01*
X106063341Y-140338036D01*
X106031245Y-140282448D01*
X106031245Y-140218258D01*
X106063339Y-140162672D01*
X106072968Y-140153044D01*
X106162003Y-140008697D01*
X106215349Y-139847708D01*
X106225500Y-139748345D01*
X106225499Y-139201656D01*
X106215349Y-139102292D01*
X106215348Y-139102289D01*
X106215298Y-139101799D01*
X106221829Y-139047634D01*
X106250975Y-139001516D01*
X106297094Y-138972370D01*
X106351258Y-138965839D01*
X106445826Y-138975500D01*
X106979174Y-138975500D01*
X107077685Y-138965436D01*
X107078270Y-138965242D01*
X107237287Y-138912549D01*
X107380391Y-138824281D01*
X107412317Y-138792354D01*
X107467906Y-138760259D01*
X107532094Y-138760259D01*
X107587682Y-138792354D01*
X107619606Y-138824279D01*
X107619608Y-138824280D01*
X107619609Y-138824281D01*
X107762713Y-138912549D01*
X107801166Y-138925291D01*
X107922314Y-138965436D01*
X108020826Y-138975500D01*
X108554174Y-138975500D01*
X108652685Y-138965436D01*
X108725513Y-138941303D01*
X108812287Y-138912549D01*
X108937142Y-138835537D01*
X109002237Y-138817076D01*
X109067334Y-138835538D01*
X109191300Y-138912002D01*
X109191302Y-138912002D01*
X109191303Y-138912003D01*
X109352292Y-138965349D01*
X109451655Y-138975500D01*
X109998344Y-138975499D01*
X110097708Y-138965349D01*
X110258697Y-138912003D01*
X110327939Y-138869294D01*
X110335711Y-138864500D01*
X110403044Y-138822968D01*
X110412317Y-138813695D01*
X110467905Y-138781599D01*
X110532095Y-138781599D01*
X110587683Y-138813695D01*
X110596957Y-138822969D01*
X110741300Y-138912002D01*
X110741302Y-138912002D01*
X110741303Y-138912003D01*
X110902292Y-138965349D01*
X111001655Y-138975500D01*
X111548344Y-138975499D01*
X111647708Y-138965349D01*
X111808697Y-138912003D01*
X111877939Y-138869294D01*
X111953044Y-138822968D01*
X112039194Y-138736819D01*
X112079422Y-138709939D01*
X112126875Y-138700500D01*
X112658481Y-138700500D01*
X112705934Y-138709939D01*
G37*
%TD.AperFunction*%
%TA.AperFunction,Conductor*%
G36*
X78303595Y-136844586D02*
G01*
X78342705Y-136901492D01*
X78355630Y-136940497D01*
X78365186Y-136969334D01*
X78457288Y-137118657D01*
X78581342Y-137242711D01*
X78614530Y-137263181D01*
X78730666Y-137334814D01*
X78837943Y-137370362D01*
X78897202Y-137389999D01*
X78907702Y-137391071D01*
X78999991Y-137400500D01*
X80400008Y-137400499D01*
X80502797Y-137389999D01*
X80669334Y-137334814D01*
X80728966Y-137298032D01*
X80786129Y-137279827D01*
X80845153Y-137290589D01*
X80892215Y-137327801D01*
X80916298Y-137382752D01*
X80911765Y-137442577D01*
X80860493Y-137597303D01*
X80850000Y-137700021D01*
X80850000Y-138155034D01*
X80832935Y-138217811D01*
X80786435Y-138263309D01*
X80723302Y-138279005D01*
X80683825Y-138267345D01*
X80682879Y-138270201D01*
X80502696Y-138210493D01*
X80399979Y-138200000D01*
X79950000Y-138200000D01*
X79950000Y-140349999D01*
X80399979Y-140349999D01*
X80502695Y-140339506D01*
X80669122Y-140284357D01*
X80818345Y-140192316D01*
X80942316Y-140068345D01*
X81034358Y-139919121D01*
X81077699Y-139788325D01*
X81106458Y-139740931D01*
X81152994Y-139710806D01*
X81208008Y-139703970D01*
X81260502Y-139721789D01*
X81280880Y-139734358D01*
X81447303Y-139789506D01*
X81550021Y-139800000D01*
X81675000Y-139800000D01*
X81675000Y-138274000D01*
X81691613Y-138212000D01*
X81737000Y-138166613D01*
X81799000Y-138150000D01*
X82051000Y-138150000D01*
X82113000Y-138166613D01*
X82158387Y-138212000D01*
X82175000Y-138274000D01*
X82175000Y-139799999D01*
X82175500Y-139799999D01*
X82237500Y-139816612D01*
X82282887Y-139861999D01*
X82299500Y-139923999D01*
X82299500Y-141536765D01*
X82285376Y-141594240D01*
X82246220Y-141638621D01*
X82190953Y-141659798D01*
X82132166Y-141652947D01*
X82007375Y-141606402D01*
X81947824Y-141600000D01*
X80900000Y-141600000D01*
X80900000Y-145100000D01*
X81947824Y-145100000D01*
X82007375Y-145093597D01*
X82142088Y-145043352D01*
X82181574Y-145013793D01*
X82233699Y-144991060D01*
X82290490Y-144993985D01*
X82340004Y-145021953D01*
X82371826Y-145069083D01*
X82375180Y-145077925D01*
X82375182Y-145077930D01*
X82380941Y-145086273D01*
X82391961Y-145105813D01*
X82396120Y-145115054D01*
X82396121Y-145115055D01*
X82396122Y-145115057D01*
X82402265Y-145122898D01*
X82433216Y-145162405D01*
X82437651Y-145168432D01*
X82471817Y-145217929D01*
X82516847Y-145257822D01*
X82522283Y-145262940D01*
X82822284Y-145562941D01*
X83047163Y-145787819D01*
X83077413Y-145837182D01*
X83081955Y-145894898D01*
X83059800Y-145948385D01*
X83015777Y-145985985D01*
X82959482Y-145999500D01*
X72624500Y-145999500D01*
X72562500Y-145982887D01*
X72517113Y-145937500D01*
X72500500Y-145875500D01*
X72500500Y-144124000D01*
X72517113Y-144062000D01*
X72562500Y-144016613D01*
X72624500Y-144000000D01*
X74412500Y-144000000D01*
X74412500Y-143075000D01*
X74912500Y-143075000D01*
X74912500Y-144000000D01*
X76810324Y-144000000D01*
X76869875Y-143993597D01*
X77004589Y-143943352D01*
X77119688Y-143857188D01*
X77205852Y-143742089D01*
X77256097Y-143607375D01*
X77256890Y-143600000D01*
X78900000Y-143600000D01*
X78900000Y-144647824D01*
X78906402Y-144707375D01*
X78956647Y-144842089D01*
X79042811Y-144957188D01*
X79157910Y-145043352D01*
X79292624Y-145093597D01*
X79352176Y-145100000D01*
X80400000Y-145100000D01*
X80400000Y-143600000D01*
X78900000Y-143600000D01*
X77256890Y-143600000D01*
X77262500Y-143547824D01*
X77262500Y-143100000D01*
X78900000Y-143100000D01*
X80400000Y-143100000D01*
X80400000Y-141600000D01*
X79352176Y-141600000D01*
X79292624Y-141606402D01*
X79157910Y-141656647D01*
X79042811Y-141742811D01*
X78956647Y-141857910D01*
X78906402Y-141992624D01*
X78900000Y-142052176D01*
X78900000Y-143100000D01*
X77262500Y-143100000D01*
X77262500Y-143075000D01*
X74912500Y-143075000D01*
X74412500Y-143075000D01*
X74412500Y-141650000D01*
X74912500Y-141650000D01*
X74912500Y-142575000D01*
X77262500Y-142575000D01*
X77262500Y-142102176D01*
X77256097Y-142042624D01*
X77205852Y-141907910D01*
X77119688Y-141792811D01*
X77004589Y-141706647D01*
X76869875Y-141656402D01*
X76810324Y-141650000D01*
X74912500Y-141650000D01*
X74412500Y-141650000D01*
X72624500Y-141650000D01*
X72562500Y-141633387D01*
X72517113Y-141588000D01*
X72500500Y-141526000D01*
X72500500Y-141259500D01*
X72517113Y-141197500D01*
X72562500Y-141152113D01*
X72624500Y-141135500D01*
X76309249Y-141135499D01*
X76310372Y-141135499D01*
X76369983Y-141129091D01*
X76504831Y-141078796D01*
X76620046Y-140992546D01*
X76706296Y-140877331D01*
X76756591Y-140742483D01*
X76763000Y-140682873D01*
X76762999Y-139906517D01*
X76772438Y-139859065D01*
X76799315Y-139818840D01*
X77093155Y-139525000D01*
X78300001Y-139525000D01*
X78300001Y-139649979D01*
X78310493Y-139752695D01*
X78365642Y-139919122D01*
X78457683Y-140068345D01*
X78581654Y-140192316D01*
X78730877Y-140284357D01*
X78897303Y-140339506D01*
X79000021Y-140350000D01*
X79450000Y-140350000D01*
X79450000Y-139525000D01*
X78300001Y-139525000D01*
X77093155Y-139525000D01*
X77593155Y-139025000D01*
X78300000Y-139025000D01*
X79450000Y-139025000D01*
X79450000Y-138200001D01*
X79000021Y-138200001D01*
X78897304Y-138210493D01*
X78730877Y-138265642D01*
X78581654Y-138357683D01*
X78457683Y-138481654D01*
X78365642Y-138630877D01*
X78310493Y-138797303D01*
X78300000Y-138900021D01*
X78300000Y-139025000D01*
X77593155Y-139025000D01*
X77878231Y-138739924D01*
X77883650Y-138734823D01*
X77928683Y-138694929D01*
X77962877Y-138645389D01*
X77967270Y-138639419D01*
X78004378Y-138592056D01*
X78008535Y-138582818D01*
X78019561Y-138563268D01*
X78025318Y-138554930D01*
X78046652Y-138498674D01*
X78049494Y-138491811D01*
X78074195Y-138436931D01*
X78076022Y-138426956D01*
X78082049Y-138405339D01*
X78085640Y-138395872D01*
X78092887Y-138336179D01*
X78094014Y-138328777D01*
X78097171Y-138311550D01*
X78104858Y-138269606D01*
X78101226Y-138209566D01*
X78101000Y-138202079D01*
X78101000Y-136940497D01*
X78120226Y-136874176D01*
X78171942Y-136828422D01*
X78240111Y-136817421D01*
X78303595Y-136844586D01*
G37*
%TD.AperFunction*%
%TA.AperFunction,Conductor*%
G36*
X93596624Y-142291176D02*
G01*
X93635489Y-142335494D01*
X93649500Y-142392751D01*
X93649500Y-142653192D01*
X93652402Y-142690072D01*
X93698255Y-142847897D01*
X93732732Y-142906194D01*
X93750000Y-142969315D01*
X93750000Y-143234796D01*
X93776248Y-143259060D01*
X93810969Y-143314896D01*
X93812262Y-143380634D01*
X93788966Y-143421603D01*
X93789893Y-143422152D01*
X93698255Y-143577102D01*
X93652402Y-143734927D01*
X93649500Y-143771808D01*
X93649500Y-144588000D01*
X93632887Y-144650000D01*
X93587500Y-144695387D01*
X93525500Y-144712000D01*
X93474500Y-144712000D01*
X93412500Y-144695387D01*
X93367113Y-144650000D01*
X93350500Y-144588000D01*
X93350500Y-143771808D01*
X93348161Y-143742089D01*
X93347598Y-143734931D01*
X93301744Y-143577102D01*
X93218081Y-143435635D01*
X93218080Y-143435634D01*
X93210107Y-143422152D01*
X93211033Y-143421603D01*
X93187738Y-143380638D01*
X93189029Y-143314897D01*
X93223752Y-143259059D01*
X93250000Y-143234796D01*
X93250000Y-142969315D01*
X93267268Y-142906194D01*
X93268055Y-142904862D01*
X93301744Y-142847898D01*
X93347598Y-142690069D01*
X93350500Y-142653194D01*
X93350500Y-142517223D01*
X93364015Y-142460928D01*
X93395320Y-142399488D01*
X93405725Y-142360657D01*
X93434078Y-142308978D01*
X93483090Y-142276229D01*
X93541685Y-142269812D01*
X93596624Y-142291176D01*
G37*
%TD.AperFunction*%
%TA.AperFunction,Conductor*%
G36*
X88361633Y-143114097D02*
G01*
X88405707Y-143151907D01*
X88427734Y-143205637D01*
X88422883Y-143263504D01*
X88385143Y-143377393D01*
X88375000Y-143476685D01*
X88375000Y-143500000D01*
X90976000Y-143500000D01*
X91038000Y-143516613D01*
X91083387Y-143562000D01*
X91100000Y-143624000D01*
X91100000Y-143876000D01*
X91083387Y-143938000D01*
X91038000Y-143983387D01*
X90976000Y-144000000D01*
X88375001Y-144000000D01*
X88375001Y-144023315D01*
X88385143Y-144122605D01*
X88438453Y-144283486D01*
X88527426Y-144427732D01*
X88600013Y-144500319D01*
X88630263Y-144549682D01*
X88634805Y-144607398D01*
X88612650Y-144660885D01*
X88568627Y-144698485D01*
X88512332Y-144712000D01*
X87074500Y-144712000D01*
X87012500Y-144695387D01*
X86967113Y-144650000D01*
X86950500Y-144588000D01*
X86950500Y-143922968D01*
X86950499Y-143224499D01*
X86967112Y-143162500D01*
X87012499Y-143117113D01*
X87074499Y-143100500D01*
X88305177Y-143100500D01*
X88361633Y-143114097D01*
G37*
%TD.AperFunction*%
%TA.AperFunction,Conductor*%
G36*
X97870362Y-138219567D02*
G01*
X97926355Y-138259296D01*
X97952628Y-138322725D01*
X97964374Y-138426966D01*
X97964632Y-138429255D01*
X98024211Y-138599522D01*
X98024212Y-138599523D01*
X98120185Y-138752264D01*
X98247735Y-138879814D01*
X98247737Y-138879815D01*
X98247738Y-138879816D01*
X98400478Y-138975789D01*
X98503984Y-139012007D01*
X98550710Y-139041367D01*
X98963181Y-139453838D01*
X98990061Y-139494066D01*
X98999500Y-139541519D01*
X98999500Y-140503132D01*
X98980721Y-140568740D01*
X98930074Y-140614477D01*
X98862896Y-140626490D01*
X98848313Y-140625000D01*
X98800000Y-140625000D01*
X98800000Y-141701000D01*
X98783387Y-141763000D01*
X98738000Y-141808387D01*
X98676000Y-141825000D01*
X97659000Y-141825000D01*
X97597000Y-141808387D01*
X97551613Y-141763000D01*
X97535000Y-141701000D01*
X97535000Y-141625000D01*
X96800000Y-141625000D01*
X96800000Y-142449999D01*
X97134981Y-142449999D01*
X97191276Y-142463514D01*
X97235299Y-142501114D01*
X97257454Y-142554601D01*
X97252912Y-142612317D01*
X97222662Y-142661680D01*
X96671160Y-143213181D01*
X96630932Y-143240061D01*
X96583479Y-143249500D01*
X95849991Y-143249500D01*
X95747203Y-143260000D01*
X95580665Y-143315186D01*
X95431344Y-143407287D01*
X95336999Y-143501632D01*
X95289483Y-143531265D01*
X95233776Y-143536972D01*
X95181239Y-143517590D01*
X95142586Y-143477071D01*
X95118080Y-143435634D01*
X95001865Y-143319419D01*
X95001550Y-143319233D01*
X94993379Y-143310933D01*
X94990788Y-143308342D01*
X94990808Y-143308321D01*
X94956959Y-143273938D01*
X94940669Y-143212500D01*
X94956959Y-143151062D01*
X94990808Y-143116678D01*
X94990788Y-143116658D01*
X94993379Y-143114066D01*
X95001550Y-143105767D01*
X95001865Y-143105581D01*
X95118081Y-142989365D01*
X95201744Y-142847898D01*
X95247598Y-142690069D01*
X95250500Y-142653194D01*
X95250500Y-142402754D01*
X95267566Y-142339975D01*
X95314068Y-142294477D01*
X95377204Y-142278783D01*
X95439596Y-142297215D01*
X95580877Y-142384357D01*
X95747303Y-142439506D01*
X95850021Y-142450000D01*
X96300000Y-142450000D01*
X96300000Y-140300001D01*
X95990017Y-140300001D01*
X95990013Y-140300000D01*
X96800000Y-140300000D01*
X96800000Y-141125000D01*
X97866000Y-141125000D01*
X97928000Y-141141613D01*
X97973387Y-141187000D01*
X97990000Y-141249000D01*
X97990000Y-141325000D01*
X98300000Y-141325000D01*
X98300000Y-140625001D01*
X98251685Y-140625001D01*
X98152394Y-140635143D01*
X97977759Y-140693012D01*
X97976769Y-140690026D01*
X97938961Y-140701337D01*
X97876516Y-140686529D01*
X97829837Y-140642486D01*
X97792315Y-140581653D01*
X97668345Y-140457683D01*
X97519122Y-140365642D01*
X97352696Y-140310493D01*
X97249979Y-140300000D01*
X96800000Y-140300000D01*
X95990013Y-140300000D01*
X95933722Y-140286486D01*
X95889699Y-140248886D01*
X95867544Y-140195399D01*
X95872086Y-140137683D01*
X95902334Y-140088321D01*
X97741729Y-138248926D01*
X97801815Y-138215718D01*
X97870362Y-138219567D01*
G37*
%TD.AperFunction*%
%TA.AperFunction,Conductor*%
G36*
X83883986Y-139430774D02*
G01*
X83930039Y-139474478D01*
X83957288Y-139518657D01*
X84081342Y-139642711D01*
X84137895Y-139677593D01*
X84230666Y-139734814D01*
X84299267Y-139757546D01*
X84397202Y-139789999D01*
X84407703Y-139791071D01*
X84499991Y-139800500D01*
X85250008Y-139800499D01*
X85352797Y-139789999D01*
X85519334Y-139734814D01*
X85580985Y-139696787D01*
X85638760Y-139678542D01*
X85698286Y-139689851D01*
X85745347Y-139728015D01*
X85763822Y-139752695D01*
X85767454Y-139757546D01*
X85882669Y-139843796D01*
X86017517Y-139894091D01*
X86077127Y-139900500D01*
X86583480Y-139900499D01*
X86630933Y-139909938D01*
X86671161Y-139936818D01*
X87012058Y-140277715D01*
X87017178Y-140283153D01*
X87057071Y-140328183D01*
X87106577Y-140362354D01*
X87112596Y-140366785D01*
X87156178Y-140400928D01*
X87159943Y-140403878D01*
X87169190Y-140408039D01*
X87188726Y-140419058D01*
X87197070Y-140424818D01*
X87253334Y-140446155D01*
X87260195Y-140448997D01*
X87315068Y-140473694D01*
X87325036Y-140475520D01*
X87346652Y-140481546D01*
X87356128Y-140485140D01*
X87415856Y-140492392D01*
X87423201Y-140493509D01*
X87482394Y-140504357D01*
X87542422Y-140500726D01*
X87549910Y-140500500D01*
X91675500Y-140500500D01*
X91737500Y-140517113D01*
X91782887Y-140562500D01*
X91799500Y-140624500D01*
X91799500Y-141175500D01*
X91782887Y-141237500D01*
X91737500Y-141282887D01*
X91675500Y-141299500D01*
X91387975Y-141299500D01*
X91348971Y-141293206D01*
X91247708Y-141259650D01*
X91157554Y-141250440D01*
X91148344Y-141249500D01*
X90551655Y-141249500D01*
X90452292Y-141259650D01*
X90351029Y-141293206D01*
X90312025Y-141299500D01*
X89887975Y-141299500D01*
X89848971Y-141293206D01*
X89747708Y-141259650D01*
X89657554Y-141250440D01*
X89648344Y-141249500D01*
X89051655Y-141249500D01*
X88952292Y-141259650D01*
X88851029Y-141293206D01*
X88812025Y-141299500D01*
X86430626Y-141299500D01*
X86411228Y-141297973D01*
X86397388Y-141295781D01*
X86329664Y-141299330D01*
X86323175Y-141299500D01*
X86302802Y-141299500D01*
X86282554Y-141301627D01*
X86276091Y-141302136D01*
X86208352Y-141305687D01*
X86194805Y-141309316D01*
X86175689Y-141312859D01*
X86161743Y-141314325D01*
X86097238Y-141335284D01*
X86091016Y-141337127D01*
X86025514Y-141354678D01*
X86013019Y-141361045D01*
X85995054Y-141368486D01*
X85981719Y-141372819D01*
X85922980Y-141406731D01*
X85917278Y-141409826D01*
X85856848Y-141440617D01*
X85845951Y-141449441D01*
X85829930Y-141460453D01*
X85817785Y-141467465D01*
X85767396Y-141512836D01*
X85762465Y-141517047D01*
X85746620Y-141529879D01*
X85732198Y-141544299D01*
X85727499Y-141548758D01*
X85706522Y-141567647D01*
X85667987Y-141591263D01*
X85623547Y-141599500D01*
X83902129Y-141599500D01*
X83837753Y-141606421D01*
X83770317Y-141594667D01*
X83719394Y-141548924D01*
X83700500Y-141483131D01*
X83700500Y-139539574D01*
X83716754Y-139478200D01*
X83761255Y-139432915D01*
X83822337Y-139415593D01*
X83883986Y-139430774D01*
G37*
%TD.AperFunction*%
%TA.AperFunction,Conductor*%
G36*
X116190468Y-126210512D02*
G01*
X116231398Y-126238930D01*
X116257836Y-126281165D01*
X116293704Y-126377331D01*
X116379954Y-126492546D01*
X116495169Y-126578796D01*
X116630017Y-126629091D01*
X116689627Y-126635500D01*
X120375500Y-126635499D01*
X120437500Y-126652112D01*
X120482887Y-126697499D01*
X120499500Y-126759499D01*
X120499500Y-127026000D01*
X120482887Y-127088000D01*
X120437500Y-127133387D01*
X120375500Y-127150000D01*
X118587500Y-127150000D01*
X118587500Y-129500000D01*
X120375500Y-129500000D01*
X120437500Y-129516613D01*
X120482887Y-129562000D01*
X120499500Y-129624000D01*
X120499500Y-135876000D01*
X120482887Y-135938000D01*
X120437500Y-135983387D01*
X120375500Y-136000000D01*
X118587500Y-136000000D01*
X118587500Y-138350000D01*
X120375500Y-138350000D01*
X120437500Y-138366613D01*
X120482887Y-138412000D01*
X120499500Y-138474000D01*
X120499500Y-138740500D01*
X120482887Y-138802500D01*
X120437500Y-138847887D01*
X120375500Y-138864500D01*
X116689630Y-138864500D01*
X116630015Y-138870909D01*
X116495169Y-138921204D01*
X116379954Y-139007454D01*
X116293704Y-139122668D01*
X116243409Y-139257516D01*
X116237000Y-139317131D01*
X116237000Y-139450500D01*
X116220387Y-139512500D01*
X116175000Y-139557887D01*
X116113000Y-139574500D01*
X115616519Y-139574500D01*
X115569066Y-139565061D01*
X115528838Y-139538181D01*
X113512940Y-137522283D01*
X113507822Y-137516847D01*
X113467929Y-137471817D01*
X113457518Y-137464631D01*
X113425568Y-137442577D01*
X113418432Y-137437651D01*
X113412405Y-137433216D01*
X113401918Y-137425000D01*
X115737500Y-137425000D01*
X115737500Y-137897824D01*
X115743902Y-137957375D01*
X115794147Y-138092089D01*
X115880311Y-138207188D01*
X115995410Y-138293352D01*
X116130124Y-138343597D01*
X116189676Y-138350000D01*
X118087500Y-138350000D01*
X118087500Y-137425000D01*
X115737500Y-137425000D01*
X113401918Y-137425000D01*
X113365054Y-137396120D01*
X113355813Y-137391961D01*
X113336273Y-137380941D01*
X113327930Y-137375182D01*
X113327927Y-137375181D01*
X113327926Y-137375180D01*
X113271701Y-137353856D01*
X113264783Y-137350991D01*
X113209929Y-137326303D01*
X113199952Y-137324475D01*
X113178339Y-137318450D01*
X113168873Y-137314860D01*
X113109172Y-137307610D01*
X113101771Y-137306483D01*
X113042607Y-137295641D01*
X112982566Y-137299274D01*
X112975079Y-137299500D01*
X112126875Y-137299500D01*
X112079422Y-137290061D01*
X112039194Y-137263181D01*
X111953044Y-137177031D01*
X111808699Y-137087997D01*
X111647707Y-137034650D01*
X111558133Y-137025500D01*
X111548344Y-137024500D01*
X111001655Y-137024500D01*
X110902292Y-137034650D01*
X110741300Y-137087997D01*
X110596955Y-137177031D01*
X110587681Y-137186306D01*
X110532094Y-137218400D01*
X110467906Y-137218400D01*
X110412319Y-137186306D01*
X110403044Y-137177031D01*
X110258699Y-137087997D01*
X110097707Y-137034650D01*
X110008133Y-137025500D01*
X109998344Y-137024500D01*
X109451655Y-137024500D01*
X109352292Y-137034650D01*
X109191303Y-137087996D01*
X109067334Y-137164462D01*
X109002237Y-137182923D01*
X108937140Y-137164461D01*
X108812289Y-137087451D01*
X108652685Y-137034563D01*
X108554174Y-137024500D01*
X108020826Y-137024500D01*
X107922314Y-137034563D01*
X107762714Y-137087450D01*
X107619606Y-137175720D01*
X107587681Y-137207646D01*
X107532094Y-137239740D01*
X107467906Y-137239740D01*
X107412319Y-137207646D01*
X107380393Y-137175720D01*
X107308838Y-137131584D01*
X107237287Y-137087451D01*
X107237286Y-137087450D01*
X107237285Y-137087450D01*
X107077685Y-137034563D01*
X106979174Y-137024500D01*
X106445826Y-137024500D01*
X106347314Y-137034563D01*
X106187714Y-137087450D01*
X106046347Y-137174647D01*
X105981250Y-137193108D01*
X105916153Y-137174647D01*
X105910821Y-137171358D01*
X105774787Y-137087451D01*
X105774786Y-137087450D01*
X105774785Y-137087450D01*
X105615185Y-137034563D01*
X105516674Y-137024500D01*
X104983326Y-137024500D01*
X104884814Y-137034563D01*
X104725214Y-137087450D01*
X104582106Y-137175720D01*
X104550181Y-137207646D01*
X104494594Y-137239740D01*
X104430406Y-137239740D01*
X104374819Y-137207646D01*
X104342893Y-137175720D01*
X104271338Y-137131584D01*
X104199787Y-137087451D01*
X104199786Y-137087450D01*
X104199785Y-137087450D01*
X104040185Y-137034563D01*
X103941674Y-137024500D01*
X103408326Y-137024500D01*
X103309814Y-137034563D01*
X103150214Y-137087450D01*
X103044109Y-137152897D01*
X102979012Y-137171358D01*
X102913915Y-137152896D01*
X102808699Y-137087997D01*
X102647707Y-137034650D01*
X102558133Y-137025500D01*
X102548344Y-137024500D01*
X102001655Y-137024500D01*
X101902292Y-137034650D01*
X101741300Y-137087997D01*
X101614597Y-137166150D01*
X101552205Y-137184582D01*
X101489068Y-137168890D01*
X101442567Y-137123391D01*
X101425500Y-137060612D01*
X101425500Y-136925000D01*
X115737500Y-136925000D01*
X118087500Y-136925000D01*
X118087500Y-136000000D01*
X116189676Y-136000000D01*
X116130124Y-136006402D01*
X115995410Y-136056647D01*
X115880311Y-136142811D01*
X115794147Y-136257910D01*
X115743902Y-136392624D01*
X115737500Y-136452176D01*
X115737500Y-136925000D01*
X101425500Y-136925000D01*
X101425500Y-134000000D01*
X107050001Y-134000000D01*
X107050001Y-134023315D01*
X107060143Y-134122605D01*
X107113453Y-134283486D01*
X107202426Y-134427732D01*
X107322267Y-134547573D01*
X107466513Y-134636546D01*
X107627393Y-134689856D01*
X107726685Y-134700000D01*
X107775000Y-134700000D01*
X107775000Y-134000000D01*
X108275000Y-134000000D01*
X108275000Y-134699999D01*
X108323315Y-134699999D01*
X108422605Y-134689856D01*
X108583486Y-134636546D01*
X108727732Y-134547573D01*
X108847573Y-134427732D01*
X108936546Y-134283486D01*
X108989856Y-134122606D01*
X109000000Y-134023315D01*
X109000000Y-134000000D01*
X108275000Y-134000000D01*
X107775000Y-134000000D01*
X107050001Y-134000000D01*
X101425500Y-134000000D01*
X101425500Y-132266519D01*
X101434939Y-132219066D01*
X101461819Y-132178838D01*
X101758265Y-131882391D01*
X101928837Y-131711817D01*
X101969065Y-131684938D01*
X102016518Y-131675499D01*
X102223345Y-131675499D01*
X102273026Y-131670423D01*
X102322708Y-131665349D01*
X102483697Y-131612003D01*
X102510984Y-131595172D01*
X102628038Y-131522972D01*
X102628038Y-131522971D01*
X102628044Y-131522968D01*
X102637317Y-131513694D01*
X102692901Y-131481600D01*
X102757091Y-131481599D01*
X102812680Y-131513693D01*
X102821955Y-131522968D01*
X102966300Y-131612002D01*
X102966302Y-131612002D01*
X102966303Y-131612003D01*
X103127292Y-131665349D01*
X103226655Y-131675500D01*
X103773344Y-131675499D01*
X103872708Y-131665349D01*
X104033697Y-131612003D01*
X104151416Y-131539392D01*
X104216512Y-131520931D01*
X104281609Y-131539393D01*
X104400210Y-131612548D01*
X104559814Y-131665436D01*
X104658326Y-131675500D01*
X105191674Y-131675500D01*
X105290185Y-131665436D01*
X105294350Y-131664056D01*
X105449787Y-131612549D01*
X105592891Y-131524281D01*
X105624818Y-131492353D01*
X105680406Y-131460259D01*
X105744594Y-131460259D01*
X105800182Y-131492354D01*
X105832106Y-131524279D01*
X105832108Y-131524280D01*
X105832109Y-131524281D01*
X105975213Y-131612549D01*
X106055013Y-131638992D01*
X106134814Y-131665436D01*
X106233326Y-131675500D01*
X106766674Y-131675500D01*
X106865185Y-131665436D01*
X106909513Y-131650746D01*
X106977112Y-131647795D01*
X107036197Y-131680771D01*
X107069174Y-131739855D01*
X107066224Y-131807455D01*
X107059650Y-131827292D01*
X107049500Y-131926655D01*
X107049500Y-132473344D01*
X107059650Y-132572707D01*
X107112997Y-132733699D01*
X107202031Y-132878044D01*
X107211659Y-132887672D01*
X107243753Y-132943258D01*
X107243753Y-133007445D01*
X107211661Y-133063032D01*
X107202426Y-133072266D01*
X107113453Y-133216513D01*
X107060143Y-133377393D01*
X107050000Y-133476685D01*
X107050000Y-133500000D01*
X108999999Y-133500000D01*
X108999999Y-133476685D01*
X108989856Y-133377394D01*
X108936546Y-133216513D01*
X108847574Y-133072269D01*
X108838341Y-133063036D01*
X108806245Y-133007448D01*
X108806245Y-132943258D01*
X108838339Y-132887672D01*
X108847968Y-132878044D01*
X108937003Y-132733697D01*
X108990349Y-132572708D01*
X109000500Y-132473345D01*
X109000499Y-131926656D01*
X108990349Y-131827292D01*
X108990349Y-131827290D01*
X108988402Y-131821415D01*
X108985451Y-131753815D01*
X109018428Y-131694730D01*
X109077514Y-131661754D01*
X109133788Y-131664212D01*
X109133804Y-131664056D01*
X109136487Y-131664330D01*
X109145114Y-131664707D01*
X109147314Y-131665436D01*
X109245826Y-131675500D01*
X109779174Y-131675500D01*
X109877685Y-131665436D01*
X109881850Y-131664056D01*
X110037287Y-131612549D01*
X110174641Y-131527827D01*
X110239737Y-131509366D01*
X110304834Y-131527828D01*
X110441300Y-131612002D01*
X110441302Y-131612002D01*
X110441303Y-131612003D01*
X110602292Y-131665349D01*
X110701655Y-131675500D01*
X111248344Y-131675499D01*
X111347708Y-131665349D01*
X111508697Y-131612003D01*
X111535984Y-131595172D01*
X111653038Y-131522972D01*
X111653038Y-131522971D01*
X111653044Y-131522968D01*
X111662317Y-131513694D01*
X111717901Y-131481600D01*
X111782091Y-131481599D01*
X111837680Y-131513693D01*
X111846955Y-131522968D01*
X111991300Y-131612002D01*
X111991302Y-131612002D01*
X111991303Y-131612003D01*
X112152292Y-131665349D01*
X112251655Y-131675500D01*
X112798344Y-131675499D01*
X112897708Y-131665349D01*
X113058697Y-131612003D01*
X113203044Y-131522968D01*
X113322968Y-131403044D01*
X113412003Y-131258697D01*
X113465349Y-131097708D01*
X113475500Y-130998345D01*
X113475499Y-130401656D01*
X113465349Y-130302292D01*
X113412003Y-130141303D01*
X113412002Y-130141302D01*
X113412002Y-130141300D01*
X113322970Y-129996958D01*
X113300000Y-129973988D01*
X113261816Y-129935804D01*
X113234939Y-129895579D01*
X113225500Y-129848126D01*
X113225500Y-128716519D01*
X113234939Y-128669066D01*
X113261819Y-128628838D01*
X113315657Y-128575000D01*
X115737500Y-128575000D01*
X115737500Y-129047824D01*
X115743902Y-129107375D01*
X115794147Y-129242089D01*
X115880311Y-129357188D01*
X115995410Y-129443352D01*
X116130124Y-129493597D01*
X116189676Y-129500000D01*
X118087500Y-129500000D01*
X118087500Y-128575000D01*
X115737500Y-128575000D01*
X113315657Y-128575000D01*
X113815657Y-128075000D01*
X115737500Y-128075000D01*
X118087500Y-128075000D01*
X118087500Y-127150000D01*
X116189676Y-127150000D01*
X116130124Y-127156402D01*
X115995410Y-127206647D01*
X115880311Y-127292811D01*
X115794147Y-127407910D01*
X115743902Y-127542624D01*
X115737500Y-127602176D01*
X115737500Y-128075000D01*
X113815657Y-128075000D01*
X115653838Y-126236819D01*
X115694066Y-126209939D01*
X115741519Y-126200500D01*
X116141655Y-126200500D01*
X116190468Y-126210512D01*
G37*
%TD.AperFunction*%
%TA.AperFunction,Conductor*%
G36*
X93648315Y-137460854D02*
G01*
X93701669Y-137492327D01*
X93763181Y-137553839D01*
X93790061Y-137594067D01*
X93799500Y-137641520D01*
X93799500Y-138073481D01*
X93790061Y-138120934D01*
X93763181Y-138161162D01*
X92861162Y-139063181D01*
X92820934Y-139090061D01*
X92773481Y-139099500D01*
X92249500Y-139099500D01*
X92187500Y-139082887D01*
X92142113Y-139037500D01*
X92125500Y-138975500D01*
X92125499Y-138352130D01*
X92123785Y-138336183D01*
X92119091Y-138292517D01*
X92094110Y-138225539D01*
X92082098Y-138193333D01*
X92074280Y-138150000D01*
X92082098Y-138106667D01*
X92124534Y-137992891D01*
X92125057Y-137993086D01*
X92140758Y-137951395D01*
X92188074Y-137911179D01*
X92248957Y-137898946D01*
X92308135Y-137917766D01*
X92400478Y-137975789D01*
X92570745Y-138035368D01*
X92750000Y-138055565D01*
X92929255Y-138035368D01*
X93099522Y-137975789D01*
X93252262Y-137879816D01*
X93379816Y-137752262D01*
X93475789Y-137599522D01*
X93496948Y-137539050D01*
X93531360Y-137487549D01*
X93586394Y-137459117D01*
X93648315Y-137460854D01*
G37*
%TD.AperFunction*%
%TA.AperFunction,Conductor*%
G36*
X76930934Y-126209939D02*
G01*
X76971162Y-126236819D01*
X77238181Y-126503838D01*
X77265061Y-126544066D01*
X77274500Y-126591518D01*
X77274500Y-126798344D01*
X77284650Y-126897707D01*
X77337997Y-127058699D01*
X77427029Y-127203041D01*
X77427031Y-127203043D01*
X77427032Y-127203044D01*
X77488183Y-127264195D01*
X77515061Y-127304421D01*
X77524500Y-127351874D01*
X77524500Y-129433481D01*
X77515061Y-129480934D01*
X77488181Y-129521162D01*
X76022290Y-130987051D01*
X76016838Y-130992183D01*
X75971816Y-131032070D01*
X75937649Y-131081568D01*
X75933213Y-131087597D01*
X75896121Y-131134942D01*
X75891961Y-131144186D01*
X75880941Y-131163725D01*
X75875182Y-131172069D01*
X75853853Y-131228305D01*
X75850989Y-131235219D01*
X75826303Y-131290070D01*
X75824475Y-131300047D01*
X75818454Y-131321648D01*
X75814859Y-131331128D01*
X75807609Y-131390827D01*
X75806483Y-131398226D01*
X75795641Y-131457391D01*
X75799274Y-131517434D01*
X75799500Y-131524921D01*
X75799500Y-134725079D01*
X75799274Y-134732566D01*
X75795641Y-134792607D01*
X75806483Y-134851771D01*
X75807610Y-134859172D01*
X75814860Y-134918873D01*
X75818450Y-134928339D01*
X75824475Y-134949952D01*
X75826303Y-134959929D01*
X75850991Y-135014783D01*
X75853856Y-135021701D01*
X75875180Y-135077926D01*
X75875182Y-135077930D01*
X75880941Y-135086273D01*
X75891961Y-135105813D01*
X75896120Y-135115054D01*
X75896121Y-135115055D01*
X75896122Y-135115057D01*
X75900955Y-135121226D01*
X75933216Y-135162405D01*
X75937651Y-135168432D01*
X75971817Y-135217929D01*
X76016847Y-135257822D01*
X76022283Y-135262940D01*
X76547662Y-135788319D01*
X76577912Y-135837682D01*
X76582454Y-135895398D01*
X76560299Y-135948885D01*
X76516276Y-135986485D01*
X76459981Y-136000000D01*
X74912500Y-136000000D01*
X74912500Y-138350000D01*
X75987481Y-138350000D01*
X76043776Y-138363515D01*
X76087799Y-138401115D01*
X76109954Y-138454602D01*
X76105412Y-138512318D01*
X76075163Y-138561679D01*
X75936342Y-138700500D01*
X75808661Y-138828181D01*
X75768433Y-138855061D01*
X75720980Y-138864500D01*
X73123707Y-138864500D01*
X72624499Y-138864500D01*
X72562500Y-138847888D01*
X72517113Y-138802501D01*
X72500500Y-138740501D01*
X72500500Y-138474000D01*
X72517113Y-138412000D01*
X72562500Y-138366613D01*
X72624500Y-138350000D01*
X74412500Y-138350000D01*
X74412500Y-136000000D01*
X72624500Y-136000000D01*
X72562500Y-135983387D01*
X72517113Y-135938000D01*
X72500500Y-135876000D01*
X72500500Y-129624000D01*
X72517113Y-129562000D01*
X72562500Y-129516613D01*
X72624500Y-129500000D01*
X74412500Y-129500000D01*
X74412500Y-128575000D01*
X74912500Y-128575000D01*
X74912500Y-129500000D01*
X76810324Y-129500000D01*
X76869875Y-129493597D01*
X77004589Y-129443352D01*
X77119688Y-129357188D01*
X77205852Y-129242089D01*
X77256097Y-129107375D01*
X77262500Y-129047824D01*
X77262500Y-128575000D01*
X74912500Y-128575000D01*
X74412500Y-128575000D01*
X74412500Y-127150000D01*
X74912500Y-127150000D01*
X74912500Y-128075000D01*
X77262500Y-128075000D01*
X77262500Y-127602176D01*
X77256097Y-127542624D01*
X77205852Y-127407910D01*
X77119688Y-127292811D01*
X77004589Y-127206647D01*
X76869875Y-127156402D01*
X76810324Y-127150000D01*
X74912500Y-127150000D01*
X74412500Y-127150000D01*
X72624500Y-127150000D01*
X72562500Y-127133387D01*
X72517113Y-127088000D01*
X72500500Y-127026000D01*
X72500500Y-126759500D01*
X72517113Y-126697500D01*
X72562500Y-126652113D01*
X72624500Y-126635500D01*
X76309249Y-126635499D01*
X76310372Y-126635499D01*
X76369983Y-126629091D01*
X76504831Y-126578796D01*
X76620046Y-126492546D01*
X76706296Y-126377331D01*
X76742164Y-126281163D01*
X76768601Y-126238931D01*
X76809531Y-126210512D01*
X76858344Y-126200500D01*
X76883481Y-126200500D01*
X76930934Y-126209939D01*
G37*
%TD.AperFunction*%
%TA.AperFunction,Conductor*%
G36*
X95416970Y-137549049D02*
G01*
X95497735Y-137629814D01*
X95497737Y-137629815D01*
X95497738Y-137629816D01*
X95650478Y-137725789D01*
X95820745Y-137785368D01*
X95869446Y-137790855D01*
X95927272Y-137797371D01*
X95990701Y-137823644D01*
X96030430Y-137879636D01*
X96034279Y-137948184D01*
X96001069Y-138008272D01*
X95407793Y-138601548D01*
X95354131Y-138633109D01*
X95291893Y-138634613D01*
X95236768Y-138605681D01*
X95202652Y-138553606D01*
X95198144Y-138491513D01*
X95199951Y-138481654D01*
X95204358Y-138457606D01*
X95200726Y-138397566D01*
X95200500Y-138390079D01*
X95200500Y-137641520D01*
X95209936Y-137594073D01*
X95236810Y-137553848D01*
X95241599Y-137549058D01*
X95297187Y-137516957D01*
X95361378Y-137516954D01*
X95416970Y-137549049D01*
G37*
%TD.AperFunction*%
%TA.AperFunction,Conductor*%
G36*
X100587681Y-127978339D02*
G01*
X100689813Y-128080471D01*
X100689815Y-128080472D01*
X100835394Y-128168478D01*
X100997804Y-128219086D01*
X101044857Y-128223361D01*
X101068383Y-128225500D01*
X101068384Y-128225500D01*
X101581616Y-128225500D01*
X101581617Y-128225500D01*
X101599260Y-128223896D01*
X101652196Y-128219086D01*
X101814606Y-128168478D01*
X101960185Y-128080472D01*
X101967810Y-128072846D01*
X102023398Y-128040752D01*
X102087586Y-128040752D01*
X102143173Y-128072846D01*
X102269606Y-128199279D01*
X102269608Y-128199280D01*
X102269609Y-128199281D01*
X102383511Y-128269537D01*
X102384199Y-128269961D01*
X102427903Y-128316016D01*
X102443083Y-128377664D01*
X102425761Y-128438745D01*
X102380476Y-128483246D01*
X102319102Y-128499500D01*
X102224910Y-128499500D01*
X102217423Y-128499274D01*
X102157391Y-128495642D01*
X102098242Y-128506481D01*
X102090843Y-128507608D01*
X102031122Y-128514860D01*
X102021641Y-128518456D01*
X102000036Y-128524479D01*
X101990069Y-128526305D01*
X101935234Y-128550984D01*
X101928318Y-128553848D01*
X101872069Y-128575181D01*
X101863725Y-128580941D01*
X101844183Y-128591963D01*
X101834944Y-128596121D01*
X101787594Y-128633216D01*
X101781566Y-128637652D01*
X101732067Y-128671819D01*
X101692183Y-128716838D01*
X101687051Y-128722290D01*
X101472290Y-128937051D01*
X101466838Y-128942183D01*
X101421816Y-128982070D01*
X101387649Y-129031568D01*
X101383213Y-129037597D01*
X101346121Y-129084942D01*
X101341961Y-129094186D01*
X101330941Y-129113725D01*
X101325182Y-129122069D01*
X101303853Y-129178305D01*
X101300989Y-129185219D01*
X101276303Y-129240070D01*
X101274475Y-129250047D01*
X101268454Y-129271648D01*
X101264859Y-129281128D01*
X101257609Y-129340827D01*
X101256483Y-129348226D01*
X101245641Y-129407391D01*
X101249274Y-129467434D01*
X101249500Y-129474921D01*
X101249500Y-129848126D01*
X101240061Y-129895579D01*
X101213183Y-129935804D01*
X101193247Y-129955741D01*
X101152029Y-129996958D01*
X101062997Y-130141300D01*
X101009650Y-130302292D01*
X100999500Y-130401655D01*
X100999500Y-130608481D01*
X100990061Y-130655934D01*
X100963181Y-130696162D01*
X100247290Y-131412051D01*
X100241838Y-131417183D01*
X100196816Y-131457070D01*
X100162649Y-131506568D01*
X100158213Y-131512597D01*
X100121121Y-131559942D01*
X100116961Y-131569186D01*
X100105941Y-131588725D01*
X100100182Y-131597069D01*
X100078853Y-131653305D01*
X100075989Y-131660219D01*
X100051303Y-131715070D01*
X100049475Y-131725047D01*
X100043454Y-131746648D01*
X100039859Y-131756128D01*
X100032609Y-131815827D01*
X100031483Y-131823226D01*
X100020641Y-131882391D01*
X100024274Y-131942434D01*
X100024500Y-131949921D01*
X100024500Y-137148126D01*
X100015061Y-137195579D01*
X99988183Y-137235804D01*
X99971860Y-137252128D01*
X99927029Y-137296958D01*
X99837997Y-137441300D01*
X99784650Y-137602292D01*
X99774500Y-137701655D01*
X99774500Y-137984481D01*
X99760985Y-138040776D01*
X99723385Y-138084799D01*
X99669898Y-138106954D01*
X99612182Y-138102412D01*
X99562819Y-138072162D01*
X99541367Y-138050710D01*
X99512006Y-138003983D01*
X99511296Y-138001953D01*
X99475789Y-137900478D01*
X99379816Y-137747738D01*
X99379815Y-137747737D01*
X99379814Y-137747735D01*
X99252264Y-137620185D01*
X99146689Y-137553848D01*
X99099522Y-137524211D01*
X98929255Y-137464632D01*
X98929251Y-137464631D01*
X98929250Y-137464631D01*
X98822725Y-137452628D01*
X98759296Y-137426355D01*
X98719567Y-137370362D01*
X98715718Y-137301815D01*
X98748926Y-137241729D01*
X98977731Y-137012924D01*
X98983151Y-137007822D01*
X99028183Y-136967929D01*
X99062358Y-136918416D01*
X99066779Y-136912407D01*
X99103877Y-136865057D01*
X99108033Y-136855820D01*
X99119058Y-136836273D01*
X99124818Y-136827930D01*
X99146154Y-136771668D01*
X99149014Y-136764766D01*
X99173694Y-136709932D01*
X99175519Y-136699971D01*
X99181545Y-136678348D01*
X99185140Y-136668872D01*
X99192389Y-136609165D01*
X99193516Y-136601762D01*
X99197234Y-136581472D01*
X99204357Y-136542606D01*
X99200726Y-136482577D01*
X99200500Y-136475090D01*
X99200500Y-128341479D01*
X99219035Y-128276264D01*
X99269097Y-128230544D01*
X99335723Y-128217988D01*
X99347803Y-128219085D01*
X99347804Y-128219086D01*
X99384656Y-128222434D01*
X99418383Y-128225500D01*
X99418384Y-128225500D01*
X99931616Y-128225500D01*
X99931617Y-128225500D01*
X99949260Y-128223896D01*
X100002196Y-128219086D01*
X100164606Y-128168478D01*
X100310185Y-128080472D01*
X100361200Y-128029457D01*
X100412319Y-127978339D01*
X100467906Y-127946245D01*
X100532094Y-127946245D01*
X100587681Y-127978339D01*
G37*
%TD.AperFunction*%
%TA.AperFunction,Conductor*%
G36*
X105938832Y-122750031D02*
G01*
X105973812Y-122800410D01*
X105999420Y-122869067D01*
X106016004Y-122913531D01*
X106047728Y-122955909D01*
X106102255Y-123028748D01*
X106117171Y-123039914D01*
X106154815Y-123085869D01*
X106166764Y-123144060D01*
X106150276Y-123201131D01*
X106109134Y-123243983D01*
X106051400Y-123280492D01*
X105867647Y-123443282D01*
X105712379Y-123633450D01*
X105711794Y-123634464D01*
X105710268Y-123636035D01*
X105706051Y-123641201D01*
X105705606Y-123640838D01*
X105669573Y-123677957D01*
X105611780Y-123696241D01*
X105552226Y-123684945D01*
X105505142Y-123646770D01*
X105496190Y-123634812D01*
X105381089Y-123548647D01*
X105246375Y-123498402D01*
X105186824Y-123492000D01*
X104500000Y-123492000D01*
X104500000Y-125508000D01*
X105186824Y-125508000D01*
X105246375Y-125501597D01*
X105381089Y-125451352D01*
X105496189Y-125365188D01*
X105507955Y-125349471D01*
X105552786Y-125312368D01*
X105609606Y-125299803D01*
X105665901Y-125314542D01*
X105709270Y-125353338D01*
X105786181Y-125464762D01*
X105956242Y-125641813D01*
X106116558Y-125762284D01*
X106153026Y-125806061D01*
X106166066Y-125861527D01*
X106152925Y-125916968D01*
X106116378Y-125960680D01*
X106102255Y-125971252D01*
X106016004Y-126086468D01*
X105965707Y-126221320D01*
X105962861Y-126247794D01*
X105936813Y-126311480D01*
X105880824Y-126351474D01*
X105812133Y-126355463D01*
X105751891Y-126322218D01*
X105730393Y-126300720D01*
X105635705Y-126242316D01*
X105587287Y-126212451D01*
X105587286Y-126212450D01*
X105587285Y-126212450D01*
X105427685Y-126159563D01*
X105329174Y-126149500D01*
X104795826Y-126149500D01*
X104697314Y-126159563D01*
X104537714Y-126212450D01*
X104394606Y-126300720D01*
X104275720Y-126419606D01*
X104187450Y-126562714D01*
X104134563Y-126722314D01*
X104124500Y-126820826D01*
X104124500Y-127145981D01*
X104115061Y-127193434D01*
X104088181Y-127233662D01*
X104087181Y-127234662D01*
X104037818Y-127264912D01*
X103980102Y-127269454D01*
X103926615Y-127247299D01*
X103889015Y-127203276D01*
X103875500Y-127146981D01*
X103875500Y-126820826D01*
X103865436Y-126722314D01*
X103835290Y-126631342D01*
X103812549Y-126562713D01*
X103724281Y-126419609D01*
X103724280Y-126419608D01*
X103724279Y-126419606D01*
X103605393Y-126300720D01*
X103510705Y-126242316D01*
X103462287Y-126212451D01*
X103462286Y-126212450D01*
X103462285Y-126212450D01*
X103302685Y-126159563D01*
X103204174Y-126149500D01*
X102670826Y-126149500D01*
X102572314Y-126159563D01*
X102412714Y-126212450D01*
X102269606Y-126300720D01*
X102143173Y-126427154D01*
X102087584Y-126459248D01*
X102023396Y-126459247D01*
X101967810Y-126427153D01*
X101960185Y-126419528D01*
X101953002Y-126415186D01*
X101866501Y-126362894D01*
X101814606Y-126331522D01*
X101666241Y-126285290D01*
X101652193Y-126280913D01*
X101581617Y-126274500D01*
X101581616Y-126274500D01*
X101068384Y-126274500D01*
X101068383Y-126274500D01*
X100997806Y-126280913D01*
X100936005Y-126300171D01*
X100835394Y-126331522D01*
X100835392Y-126331522D01*
X100835392Y-126331523D01*
X100689813Y-126419528D01*
X100587681Y-126521661D01*
X100532094Y-126553755D01*
X100467906Y-126553755D01*
X100412319Y-126521661D01*
X100310186Y-126419528D01*
X100204571Y-126355682D01*
X100164606Y-126331522D01*
X100016241Y-126285290D01*
X100002193Y-126280913D01*
X99931617Y-126274500D01*
X99931616Y-126274500D01*
X99418384Y-126274500D01*
X99418383Y-126274500D01*
X99347806Y-126280913D01*
X99286005Y-126300171D01*
X99185394Y-126331522D01*
X99185392Y-126331522D01*
X99185392Y-126331523D01*
X99039815Y-126419527D01*
X98948036Y-126511306D01*
X98892448Y-126543399D01*
X98828261Y-126543399D01*
X98772674Y-126511305D01*
X98768657Y-126507288D01*
X98619334Y-126415186D01*
X98452797Y-126360000D01*
X98350009Y-126349500D01*
X97599991Y-126349500D01*
X97497203Y-126360000D01*
X97330665Y-126415186D01*
X97181342Y-126507288D01*
X97057288Y-126631342D01*
X96965186Y-126780665D01*
X96910000Y-126947202D01*
X96899500Y-127049990D01*
X96899500Y-128450008D01*
X96910000Y-128552796D01*
X96965186Y-128719334D01*
X97057288Y-128868657D01*
X97181342Y-128992711D01*
X97181344Y-128992712D01*
X97330666Y-129084814D01*
X97442016Y-129121712D01*
X97497202Y-129139999D01*
X97599991Y-129150500D01*
X97675500Y-129150500D01*
X97737500Y-129167113D01*
X97782887Y-129212500D01*
X97799500Y-129274500D01*
X97799500Y-136158481D01*
X97790061Y-136205934D01*
X97763181Y-136246162D01*
X97008272Y-137001070D01*
X96948184Y-137034280D01*
X96879636Y-137030431D01*
X96823644Y-136990702D01*
X96797371Y-136927273D01*
X96788054Y-136844586D01*
X96785368Y-136820745D01*
X96725789Y-136650478D01*
X96629816Y-136497738D01*
X96629815Y-136497737D01*
X96629814Y-136497735D01*
X96502264Y-136370185D01*
X96349519Y-136274209D01*
X96246014Y-136237991D01*
X96199288Y-136208631D01*
X95511819Y-135521162D01*
X95484939Y-135480934D01*
X95475500Y-135433481D01*
X95475500Y-134918383D01*
X95469782Y-134855462D01*
X95469086Y-134847804D01*
X95418478Y-134685394D01*
X95330472Y-134539815D01*
X95330471Y-134539813D01*
X95236819Y-134446161D01*
X95209939Y-134405933D01*
X95200500Y-134358480D01*
X95200500Y-132924910D01*
X95200726Y-132917423D01*
X95200793Y-132916303D01*
X95204357Y-132857394D01*
X95193509Y-132798201D01*
X95192392Y-132790856D01*
X95185140Y-132731128D01*
X95181546Y-132721652D01*
X95175520Y-132700036D01*
X95173694Y-132690068D01*
X95148997Y-132635195D01*
X95146155Y-132628334D01*
X95124818Y-132572070D01*
X95119058Y-132563726D01*
X95108039Y-132544190D01*
X95103878Y-132534943D01*
X95100928Y-132531178D01*
X95066785Y-132487596D01*
X95062354Y-132481577D01*
X95028183Y-132432071D01*
X94983153Y-132392178D01*
X94977715Y-132387058D01*
X93036818Y-130446161D01*
X93009938Y-130405933D01*
X93000499Y-130358480D01*
X93000499Y-130352130D01*
X92999115Y-130339257D01*
X92994091Y-130292517D01*
X92943796Y-130157669D01*
X92857546Y-130042454D01*
X92742331Y-129956204D01*
X92607483Y-129905909D01*
X92547873Y-129899500D01*
X92547869Y-129899500D01*
X92449500Y-129899500D01*
X92387500Y-129882887D01*
X92342113Y-129837500D01*
X92325500Y-129775500D01*
X92325500Y-127705873D01*
X92340668Y-127646446D01*
X92382460Y-127601558D01*
X92440654Y-127582189D01*
X92501011Y-127593078D01*
X92548767Y-127631562D01*
X92642810Y-127757188D01*
X92757910Y-127843352D01*
X92892624Y-127893597D01*
X92952176Y-127900000D01*
X93250000Y-127900000D01*
X93250000Y-127224000D01*
X93266613Y-127162000D01*
X93312000Y-127116613D01*
X93374000Y-127100000D01*
X93426000Y-127100000D01*
X93488000Y-127116613D01*
X93533387Y-127162000D01*
X93550000Y-127224000D01*
X93550000Y-127900000D01*
X93826000Y-127900000D01*
X93888000Y-127916613D01*
X93933387Y-127962000D01*
X93950000Y-128024000D01*
X93950000Y-128449978D01*
X93960493Y-128552695D01*
X94015642Y-128719122D01*
X94107683Y-128868345D01*
X94231654Y-128992316D01*
X94380877Y-129084357D01*
X94547303Y-129139506D01*
X94650021Y-129150000D01*
X94775000Y-129150000D01*
X94775000Y-128000000D01*
X95275000Y-128000000D01*
X95275000Y-129149999D01*
X95399979Y-129149999D01*
X95502695Y-129139506D01*
X95669122Y-129084357D01*
X95818345Y-128992316D01*
X95942316Y-128868345D01*
X96034357Y-128719122D01*
X96089506Y-128552696D01*
X96100000Y-128449979D01*
X96100000Y-128000000D01*
X95275000Y-128000000D01*
X94775000Y-128000000D01*
X94775000Y-127624000D01*
X94791613Y-127562000D01*
X94837000Y-127516613D01*
X94899000Y-127500000D01*
X96099999Y-127500000D01*
X96099999Y-127050021D01*
X96089506Y-126947304D01*
X96034357Y-126780877D01*
X95942316Y-126631654D01*
X95818345Y-126507683D01*
X95669122Y-126415642D01*
X95494846Y-126357892D01*
X95447268Y-126328953D01*
X95417153Y-126282111D01*
X95410573Y-126226814D01*
X95428857Y-126174213D01*
X95438062Y-126159564D01*
X95475789Y-126099522D01*
X95535368Y-125929255D01*
X95555565Y-125750000D01*
X95535368Y-125570745D01*
X95475789Y-125400478D01*
X95396946Y-125275000D01*
X98025001Y-125275000D01*
X98025001Y-125298315D01*
X98035143Y-125397605D01*
X98088453Y-125558486D01*
X98177426Y-125702732D01*
X98297267Y-125822573D01*
X98441513Y-125911546D01*
X98602393Y-125964856D01*
X98701685Y-125975000D01*
X98750000Y-125975000D01*
X98750000Y-125275000D01*
X99250000Y-125275000D01*
X99250000Y-125974999D01*
X99298315Y-125974999D01*
X99397605Y-125964856D01*
X99558486Y-125911546D01*
X99702732Y-125822573D01*
X99822573Y-125702732D01*
X99911546Y-125558486D01*
X99964856Y-125397606D01*
X99975000Y-125298315D01*
X99975000Y-125275000D01*
X99250000Y-125275000D01*
X98750000Y-125275000D01*
X98025001Y-125275000D01*
X95396946Y-125275000D01*
X95379816Y-125247738D01*
X95379815Y-125247737D01*
X95379814Y-125247735D01*
X95252264Y-125120185D01*
X95173580Y-125070745D01*
X95099522Y-125024211D01*
X94929255Y-124964632D01*
X94929253Y-124964631D01*
X94929251Y-124964631D01*
X94750000Y-124944434D01*
X94570745Y-124964631D01*
X94487033Y-124993923D01*
X94418988Y-124997885D01*
X94359129Y-124965287D01*
X94325542Y-124905976D01*
X94328375Y-124837875D01*
X94332816Y-124824475D01*
X94339999Y-124802797D01*
X94350500Y-124700009D01*
X94350499Y-123299992D01*
X94348079Y-123276306D01*
X94339999Y-123197203D01*
X94320548Y-123138503D01*
X94315697Y-123080636D01*
X94337724Y-123026906D01*
X94381799Y-122989096D01*
X94438254Y-122975499D01*
X94673345Y-122975499D01*
X94723025Y-122970424D01*
X94772708Y-122965349D01*
X94933697Y-122912003D01*
X95002939Y-122869294D01*
X95075917Y-122824280D01*
X95078044Y-122822968D01*
X95087317Y-122813695D01*
X95142905Y-122781599D01*
X95207095Y-122781599D01*
X95262683Y-122813695D01*
X95271957Y-122822969D01*
X95416300Y-122912002D01*
X95416302Y-122912002D01*
X95416303Y-122912003D01*
X95577292Y-122965349D01*
X95676655Y-122975500D01*
X96223344Y-122975499D01*
X96322708Y-122965349D01*
X96483697Y-122912003D01*
X96483699Y-122912002D01*
X96640380Y-122815360D01*
X96641573Y-122817294D01*
X96678572Y-122795930D01*
X96742766Y-122795930D01*
X96781331Y-122818197D01*
X96782273Y-122816672D01*
X96794608Y-122824280D01*
X96794609Y-122824281D01*
X96937713Y-122912549D01*
X96949694Y-122916519D01*
X97097314Y-122965436D01*
X97195826Y-122975500D01*
X97729174Y-122975500D01*
X97827685Y-122965436D01*
X97827948Y-122965349D01*
X97876748Y-122949177D01*
X97944346Y-122946225D01*
X98003430Y-122979198D01*
X98036409Y-123038280D01*
X98034215Y-123088596D01*
X98036031Y-123088782D01*
X98024500Y-123201655D01*
X98024500Y-123748344D01*
X98034650Y-123847707D01*
X98087997Y-124008699D01*
X98177031Y-124153044D01*
X98186659Y-124162672D01*
X98218753Y-124218258D01*
X98218753Y-124282445D01*
X98186661Y-124338032D01*
X98177426Y-124347266D01*
X98088453Y-124491513D01*
X98035143Y-124652393D01*
X98025000Y-124751685D01*
X98025000Y-124775000D01*
X99974999Y-124775000D01*
X99974999Y-124751685D01*
X99974827Y-124750000D01*
X102861000Y-124750000D01*
X102861000Y-125055824D01*
X102867402Y-125115375D01*
X102917647Y-125250089D01*
X103003811Y-125365188D01*
X103118910Y-125451352D01*
X103253624Y-125501597D01*
X103313176Y-125508000D01*
X104000000Y-125508000D01*
X104000000Y-124750000D01*
X102861000Y-124750000D01*
X99974827Y-124750000D01*
X99964856Y-124652394D01*
X99911546Y-124491513D01*
X99822574Y-124347269D01*
X99813341Y-124338036D01*
X99781245Y-124282448D01*
X99781245Y-124250000D01*
X102861000Y-124250000D01*
X104000000Y-124250000D01*
X104000000Y-123492000D01*
X103313176Y-123492000D01*
X103253624Y-123498402D01*
X103118910Y-123548647D01*
X103003811Y-123634811D01*
X102917647Y-123749910D01*
X102867402Y-123884624D01*
X102861000Y-123944176D01*
X102861000Y-124250000D01*
X99781245Y-124250000D01*
X99781245Y-124218258D01*
X99813339Y-124162672D01*
X99822968Y-124153044D01*
X99912003Y-124008697D01*
X99965349Y-123847708D01*
X99975500Y-123748345D01*
X99975499Y-123201656D01*
X99965349Y-123102292D01*
X99965348Y-123102289D01*
X99965298Y-123101799D01*
X99971829Y-123047634D01*
X100000975Y-123001516D01*
X100047094Y-122972370D01*
X100101258Y-122965839D01*
X100195826Y-122975500D01*
X100729174Y-122975500D01*
X100827685Y-122965436D01*
X100827948Y-122965349D01*
X100987287Y-122912549D01*
X101130391Y-122824281D01*
X101162318Y-122792353D01*
X101217904Y-122760260D01*
X101282092Y-122760259D01*
X101337680Y-122792353D01*
X101369606Y-122824279D01*
X101369608Y-122824280D01*
X101369609Y-122824281D01*
X101512713Y-122912549D01*
X101524694Y-122916519D01*
X101672314Y-122965436D01*
X101770826Y-122975500D01*
X102304174Y-122975500D01*
X102402685Y-122965436D01*
X102402948Y-122965349D01*
X102562287Y-122912549D01*
X102687142Y-122835537D01*
X102752237Y-122817076D01*
X102817334Y-122835538D01*
X102941300Y-122912002D01*
X102941302Y-122912002D01*
X102941303Y-122912003D01*
X103102292Y-122965349D01*
X103201655Y-122975500D01*
X103748344Y-122975499D01*
X103847708Y-122965349D01*
X104008697Y-122912003D01*
X104077939Y-122869294D01*
X104150917Y-122824280D01*
X104153044Y-122822968D01*
X104162317Y-122813695D01*
X104217905Y-122781599D01*
X104282095Y-122781599D01*
X104337683Y-122813695D01*
X104346957Y-122822969D01*
X104491300Y-122912002D01*
X104491302Y-122912002D01*
X104491303Y-122912003D01*
X104652292Y-122965349D01*
X104751655Y-122975500D01*
X105298344Y-122975499D01*
X105397708Y-122965349D01*
X105558697Y-122912003D01*
X105615809Y-122876776D01*
X105703041Y-122822970D01*
X105703041Y-122822969D01*
X105703044Y-122822968D01*
X105769950Y-122756061D01*
X105822694Y-122724767D01*
X105883987Y-122722578D01*
X105938832Y-122750031D01*
G37*
%TD.AperFunction*%
%TA.AperFunction,Conductor*%
G36*
X86907269Y-128198210D02*
G01*
X86960715Y-128241847D01*
X86971814Y-128257926D01*
X86971816Y-128257928D01*
X86971817Y-128257929D01*
X87016847Y-128297822D01*
X87022283Y-128302940D01*
X89488181Y-130768838D01*
X89515061Y-130809066D01*
X89524500Y-130856519D01*
X89524500Y-132480516D01*
X89505722Y-132546124D01*
X89455074Y-132591861D01*
X89387897Y-132603874D01*
X89349978Y-132600000D01*
X89225000Y-132600000D01*
X89225000Y-134126000D01*
X89208387Y-134188000D01*
X89163000Y-134233387D01*
X89101000Y-134250000D01*
X87900001Y-134250000D01*
X87900001Y-134699979D01*
X87910493Y-134802695D01*
X87965642Y-134969122D01*
X88052785Y-135110404D01*
X88071216Y-135172794D01*
X88055524Y-135235930D01*
X88010028Y-135282432D01*
X87947251Y-135299500D01*
X87927132Y-135299500D01*
X87867515Y-135305909D01*
X87732669Y-135356204D01*
X87617454Y-135442454D01*
X87531204Y-135557668D01*
X87485329Y-135680665D01*
X87480909Y-135692517D01*
X87474890Y-135748506D01*
X87474500Y-135752131D01*
X87474500Y-135752691D01*
X87474368Y-135753349D01*
X87473790Y-135758735D01*
X87473308Y-135758683D01*
X87465061Y-135800144D01*
X87438181Y-135840372D01*
X86712681Y-136565872D01*
X86657094Y-136597966D01*
X86592906Y-136597966D01*
X86537319Y-136565872D01*
X86359127Y-136387680D01*
X86327033Y-136332093D01*
X86327033Y-136267905D01*
X86359127Y-136212318D01*
X87256169Y-135315276D01*
X87256168Y-135315275D01*
X87232378Y-135306402D01*
X87172824Y-135300000D01*
X87053033Y-135300000D01*
X86990254Y-135282934D01*
X86944756Y-135236432D01*
X86929062Y-135173296D01*
X86947494Y-135110904D01*
X87004673Y-135018200D01*
X87034814Y-134969334D01*
X87089999Y-134802797D01*
X87100500Y-134700009D01*
X87100499Y-133299992D01*
X87099893Y-133294064D01*
X87089999Y-133197203D01*
X87053482Y-133087003D01*
X87034814Y-133030666D01*
X86957853Y-132905891D01*
X86939393Y-132840343D01*
X86958330Y-132774932D01*
X87008953Y-132729384D01*
X87075995Y-132717437D01*
X87150022Y-132725000D01*
X87200000Y-132725000D01*
X87200000Y-131750000D01*
X87700000Y-131750000D01*
X87700000Y-132724999D01*
X87749979Y-132724999D01*
X87852693Y-132714506D01*
X87916531Y-132693352D01*
X87976356Y-132688818D01*
X88031307Y-132712901D01*
X88068520Y-132759963D01*
X88079282Y-132818987D01*
X88061075Y-132876154D01*
X87965642Y-133030877D01*
X87910493Y-133197303D01*
X87900000Y-133300021D01*
X87900000Y-133750000D01*
X88725000Y-133750000D01*
X88725000Y-132600001D01*
X88600021Y-132600001D01*
X88497302Y-132610493D01*
X88433466Y-132631647D01*
X88373641Y-132636180D01*
X88318691Y-132612097D01*
X88281479Y-132565035D01*
X88270717Y-132506011D01*
X88288924Y-132448844D01*
X88384358Y-132294120D01*
X88439506Y-132127696D01*
X88450000Y-132024979D01*
X88450000Y-131750000D01*
X87700000Y-131750000D01*
X87200000Y-131750000D01*
X87200000Y-130275001D01*
X87150021Y-130275001D01*
X87047304Y-130285493D01*
X86880877Y-130340642D01*
X86731654Y-130432683D01*
X86607683Y-130556654D01*
X86605830Y-130559659D01*
X86560721Y-130602838D01*
X86500289Y-130618559D01*
X86439857Y-130602834D01*
X86394752Y-130559652D01*
X86392903Y-130556654D01*
X86392712Y-130556344D01*
X86392710Y-130556342D01*
X86392709Y-130556340D01*
X86268657Y-130432288D01*
X86119334Y-130340186D01*
X85952797Y-130285000D01*
X85854903Y-130275000D01*
X87700000Y-130275000D01*
X87700000Y-131250000D01*
X88449999Y-131250000D01*
X88449999Y-130975021D01*
X88439506Y-130872304D01*
X88384357Y-130705877D01*
X88292316Y-130556654D01*
X88168345Y-130432683D01*
X88019122Y-130340642D01*
X87852696Y-130285493D01*
X87749979Y-130275000D01*
X87700000Y-130275000D01*
X85854903Y-130275000D01*
X85850008Y-130274500D01*
X85249991Y-130274500D01*
X85147203Y-130285000D01*
X84983469Y-130339257D01*
X84917979Y-130342689D01*
X84859897Y-130312239D01*
X84825469Y-130256423D01*
X84824325Y-130190853D01*
X84856782Y-130133872D01*
X86727723Y-128262931D01*
X86733144Y-128257828D01*
X86776442Y-128219470D01*
X86838775Y-128189894D01*
X86907269Y-128198210D01*
G37*
%TD.AperFunction*%
%TA.AperFunction,Conductor*%
G36*
X91938000Y-133266613D02*
G01*
X91983387Y-133312000D01*
X92000000Y-133374000D01*
X92000000Y-134500000D01*
X92525500Y-134500000D01*
X92587500Y-134516613D01*
X92632887Y-134562000D01*
X92649500Y-134624000D01*
X92649500Y-136349092D01*
X92639154Y-136398679D01*
X92609841Y-136439990D01*
X92566456Y-136466132D01*
X92475751Y-136497872D01*
X92400477Y-136524211D01*
X92314972Y-136577938D01*
X92252478Y-136596895D01*
X92189019Y-136581472D01*
X92142197Y-136535945D01*
X92125000Y-136472944D01*
X92125000Y-135752176D01*
X92118597Y-135692621D01*
X92109723Y-135668829D01*
X92109722Y-135668829D01*
X91212680Y-136565871D01*
X91157093Y-136597965D01*
X91092905Y-136597965D01*
X91037318Y-136565871D01*
X90961819Y-136490372D01*
X90934939Y-136450144D01*
X90925500Y-136402691D01*
X90925500Y-136197309D01*
X90934939Y-136149856D01*
X90961819Y-136109628D01*
X91756169Y-135315276D01*
X91756168Y-135315275D01*
X91732378Y-135306402D01*
X91672824Y-135300000D01*
X91049500Y-135300000D01*
X90987500Y-135283387D01*
X90942113Y-135238000D01*
X90925500Y-135176000D01*
X90925500Y-134624000D01*
X90942113Y-134562000D01*
X90987500Y-134516613D01*
X91049500Y-134500000D01*
X91500000Y-134500000D01*
X91500000Y-133374000D01*
X91516613Y-133312000D01*
X91562000Y-133266613D01*
X91624000Y-133250000D01*
X91876000Y-133250000D01*
X91938000Y-133266613D01*
G37*
%TD.AperFunction*%
%TA.AperFunction,Conductor*%
G36*
X88931599Y-126269439D02*
G01*
X88932076Y-126268289D01*
X89009047Y-126300171D01*
X89093238Y-126335044D01*
X89250000Y-126355682D01*
X89261739Y-126354136D01*
X89326284Y-126362894D01*
X89377486Y-126403159D01*
X89401215Y-126463822D01*
X89403679Y-126486744D01*
X89403679Y-126513249D01*
X89399500Y-126552127D01*
X89399500Y-126947873D01*
X89403931Y-126989094D01*
X89403931Y-127015594D01*
X89400000Y-127052171D01*
X89400000Y-127100000D01*
X89411620Y-127111620D01*
X89417949Y-127113116D01*
X89461712Y-127149689D01*
X89500639Y-127201689D01*
X89524878Y-127264947D01*
X89512256Y-127331504D01*
X89466539Y-127381495D01*
X89401372Y-127400000D01*
X89400000Y-127400000D01*
X89400000Y-127447824D01*
X89406402Y-127507375D01*
X89456647Y-127642089D01*
X89542811Y-127757188D01*
X89657910Y-127843352D01*
X89792624Y-127893597D01*
X89852176Y-127900000D01*
X90150000Y-127900000D01*
X90150000Y-127524500D01*
X90166612Y-127462501D01*
X90211999Y-127417114D01*
X90273998Y-127400500D01*
X90299997Y-127400499D01*
X90325999Y-127400499D01*
X90387999Y-127417111D01*
X90433387Y-127462498D01*
X90450000Y-127524499D01*
X90450000Y-127900000D01*
X90747824Y-127900000D01*
X90787246Y-127895762D01*
X90854682Y-127907516D01*
X90905606Y-127953259D01*
X90924500Y-128019052D01*
X90924500Y-129807885D01*
X90914488Y-129856698D01*
X90886069Y-129897629D01*
X90843834Y-129924066D01*
X90795081Y-129942250D01*
X90758909Y-129955741D01*
X90689218Y-129960724D01*
X90627896Y-129927239D01*
X88411808Y-127711151D01*
X88380512Y-127658405D01*
X88378323Y-127597112D01*
X88405776Y-127542267D01*
X88456154Y-127507288D01*
X88492331Y-127493796D01*
X88607546Y-127407546D01*
X88693796Y-127292331D01*
X88744091Y-127157483D01*
X88750500Y-127097873D01*
X88750499Y-126375080D01*
X88769198Y-126309601D01*
X88819654Y-126263869D01*
X88886652Y-126251678D01*
X88931599Y-126269439D01*
G37*
%TD.AperFunction*%
%TA.AperFunction,Conductor*%
G36*
X120437500Y-119517113D02*
G01*
X120482887Y-119562500D01*
X120499500Y-119624500D01*
X120499500Y-121376000D01*
X120482887Y-121438000D01*
X120437500Y-121483387D01*
X120375500Y-121500000D01*
X118587500Y-121500000D01*
X118587500Y-123850000D01*
X120375500Y-123850000D01*
X120437500Y-123866613D01*
X120482887Y-123912000D01*
X120499500Y-123974000D01*
X120499500Y-124240500D01*
X120482887Y-124302500D01*
X120437500Y-124347887D01*
X120375500Y-124364500D01*
X116689630Y-124364500D01*
X116630015Y-124370909D01*
X116510867Y-124415349D01*
X116495169Y-124421204D01*
X116379954Y-124507454D01*
X116293704Y-124622669D01*
X116257837Y-124718834D01*
X116231399Y-124761069D01*
X116190469Y-124789488D01*
X116141656Y-124799500D01*
X115424921Y-124799500D01*
X115417434Y-124799274D01*
X115357391Y-124795641D01*
X115298226Y-124806483D01*
X115290827Y-124807609D01*
X115231128Y-124814859D01*
X115221648Y-124818454D01*
X115200047Y-124824475D01*
X115190070Y-124826303D01*
X115135219Y-124850989D01*
X115128305Y-124853853D01*
X115072069Y-124875182D01*
X115063725Y-124880941D01*
X115044186Y-124891961D01*
X115034942Y-124896121D01*
X114987597Y-124933213D01*
X114981568Y-124937649D01*
X114932070Y-124971816D01*
X114892183Y-125016838D01*
X114887051Y-125022290D01*
X112047290Y-127862051D01*
X112041838Y-127867183D01*
X111996816Y-127907070D01*
X111962649Y-127956568D01*
X111958213Y-127962597D01*
X111921121Y-128009942D01*
X111916961Y-128019186D01*
X111905941Y-128038725D01*
X111900182Y-128047069D01*
X111878853Y-128103305D01*
X111875989Y-128110219D01*
X111851303Y-128165070D01*
X111849475Y-128175047D01*
X111843454Y-128196648D01*
X111839859Y-128206128D01*
X111832609Y-128265827D01*
X111831483Y-128273226D01*
X111820641Y-128332391D01*
X111824274Y-128392434D01*
X111824500Y-128399921D01*
X111824500Y-129760612D01*
X111807433Y-129823391D01*
X111760932Y-129868890D01*
X111697795Y-129884582D01*
X111635403Y-129866150D01*
X111508699Y-129787997D01*
X111347707Y-129734650D01*
X111258495Y-129725536D01*
X111248344Y-129724500D01*
X110701655Y-129724500D01*
X110602292Y-129734650D01*
X110441303Y-129787996D01*
X110304834Y-129872172D01*
X110239737Y-129890633D01*
X110174640Y-129872171D01*
X110037289Y-129787451D01*
X109877685Y-129734563D01*
X109779174Y-129724500D01*
X109245826Y-129724500D01*
X109147314Y-129734563D01*
X108987714Y-129787450D01*
X108844606Y-129875720D01*
X108812681Y-129907646D01*
X108757094Y-129939740D01*
X108692906Y-129939740D01*
X108637319Y-129907646D01*
X108605393Y-129875720D01*
X108522270Y-129824449D01*
X108462287Y-129787451D01*
X108462286Y-129787450D01*
X108462285Y-129787450D01*
X108302685Y-129734563D01*
X108204174Y-129724500D01*
X107670826Y-129724500D01*
X107572314Y-129734563D01*
X107412711Y-129787451D01*
X107283845Y-129866936D01*
X107218749Y-129885397D01*
X107153652Y-129866936D01*
X107084770Y-129824449D01*
X107024787Y-129787451D01*
X107024786Y-129787450D01*
X107024785Y-129787450D01*
X106865185Y-129734563D01*
X106766674Y-129724500D01*
X106233326Y-129724500D01*
X106134814Y-129734563D01*
X105975214Y-129787450D01*
X105832106Y-129875720D01*
X105800181Y-129907646D01*
X105744594Y-129939740D01*
X105680406Y-129939740D01*
X105624819Y-129907646D01*
X105592893Y-129875720D01*
X105509770Y-129824449D01*
X105449787Y-129787451D01*
X105449786Y-129787450D01*
X105449785Y-129787450D01*
X105290185Y-129734563D01*
X105191674Y-129724500D01*
X104658326Y-129724500D01*
X104559814Y-129734563D01*
X104400214Y-129787450D01*
X104281609Y-129860607D01*
X104216512Y-129879068D01*
X104151415Y-129860606D01*
X104033699Y-129787997D01*
X103872707Y-129734650D01*
X103856297Y-129732974D01*
X103792345Y-129707162D01*
X103752074Y-129651177D01*
X103747939Y-129582337D01*
X103781218Y-129521937D01*
X104916337Y-128386819D01*
X104956566Y-128359939D01*
X105004019Y-128350500D01*
X105329174Y-128350500D01*
X105427685Y-128340436D01*
X105501379Y-128316016D01*
X105587287Y-128287549D01*
X105730391Y-128199281D01*
X105761271Y-128168400D01*
X105814018Y-128137103D01*
X105875311Y-128134914D01*
X105930157Y-128162367D01*
X105965136Y-128212747D01*
X105965709Y-128214283D01*
X106016004Y-128349131D01*
X106102254Y-128464346D01*
X106217469Y-128550596D01*
X106352317Y-128600891D01*
X106411927Y-128607300D01*
X107523672Y-128607299D01*
X107583283Y-128600891D01*
X107718131Y-128550596D01*
X107833346Y-128464346D01*
X107919596Y-128349131D01*
X107969891Y-128214283D01*
X107976300Y-128154673D01*
X107976299Y-126280928D01*
X107969891Y-126221317D01*
X107919596Y-126086469D01*
X107833346Y-125971254D01*
X107818427Y-125960085D01*
X107780785Y-125914132D01*
X107768835Y-125855941D01*
X107785323Y-125798869D01*
X107826461Y-125756019D01*
X107884200Y-125719508D01*
X108067956Y-125556714D01*
X108223218Y-125366553D01*
X108223801Y-125365542D01*
X108225322Y-125363975D01*
X108229549Y-125358799D01*
X108229994Y-125359162D01*
X108266020Y-125322046D01*
X108323814Y-125303759D01*
X108383370Y-125315052D01*
X108430457Y-125353228D01*
X108439410Y-125365188D01*
X108554510Y-125451352D01*
X108689224Y-125501597D01*
X108748776Y-125508000D01*
X109435600Y-125508000D01*
X109435600Y-124750000D01*
X109935600Y-124750000D01*
X109935600Y-125508000D01*
X110622424Y-125508000D01*
X110681975Y-125501597D01*
X110816689Y-125451352D01*
X110931788Y-125365188D01*
X111017952Y-125250089D01*
X111068197Y-125115375D01*
X111074600Y-125055824D01*
X111074600Y-124750000D01*
X109935600Y-124750000D01*
X109435600Y-124750000D01*
X109435600Y-123492000D01*
X109935600Y-123492000D01*
X109935600Y-124250000D01*
X111074600Y-124250000D01*
X111074600Y-123944176D01*
X111068197Y-123884624D01*
X111017952Y-123749910D01*
X110931788Y-123634811D01*
X110816689Y-123548647D01*
X110681975Y-123498402D01*
X110622424Y-123492000D01*
X109935600Y-123492000D01*
X109435600Y-123492000D01*
X108748776Y-123492000D01*
X108689224Y-123498402D01*
X108554510Y-123548647D01*
X108439407Y-123634813D01*
X108427640Y-123650532D01*
X108382809Y-123687632D01*
X108325990Y-123700195D01*
X108269697Y-123685455D01*
X108226326Y-123646658D01*
X108149419Y-123535238D01*
X107979358Y-123358187D01*
X107819040Y-123237715D01*
X107782573Y-123193936D01*
X107769533Y-123138470D01*
X107782675Y-123083028D01*
X107819222Y-123039318D01*
X107833346Y-123028746D01*
X107911010Y-122925000D01*
X115737500Y-122925000D01*
X115737500Y-123397824D01*
X115743902Y-123457375D01*
X115794147Y-123592089D01*
X115880311Y-123707188D01*
X115995410Y-123793352D01*
X116130124Y-123843597D01*
X116189676Y-123850000D01*
X118087500Y-123850000D01*
X118087500Y-122925000D01*
X115737500Y-122925000D01*
X107911010Y-122925000D01*
X107919596Y-122913531D01*
X107969891Y-122778683D01*
X107976300Y-122719073D01*
X107976300Y-122425000D01*
X115737500Y-122425000D01*
X118087500Y-122425000D01*
X118087500Y-121500000D01*
X116189676Y-121500000D01*
X116130124Y-121506402D01*
X115995410Y-121556647D01*
X115880311Y-121642811D01*
X115794147Y-121757910D01*
X115743902Y-121892624D01*
X115737500Y-121952176D01*
X115737500Y-122425000D01*
X107976300Y-122425000D01*
X107976299Y-120845328D01*
X107969891Y-120785717D01*
X107919596Y-120650869D01*
X107833346Y-120535654D01*
X107718131Y-120449404D01*
X107583283Y-120399109D01*
X107523673Y-120392700D01*
X107523669Y-120392700D01*
X106411930Y-120392700D01*
X106352315Y-120399109D01*
X106217469Y-120449404D01*
X106102254Y-120535654D01*
X106016004Y-120650868D01*
X105965709Y-120785716D01*
X105959300Y-120845331D01*
X105959300Y-121133925D01*
X105945785Y-121190220D01*
X105908185Y-121234243D01*
X105854698Y-121256398D01*
X105796982Y-121251856D01*
X105747619Y-121221606D01*
X105703044Y-121177031D01*
X105558699Y-121087997D01*
X105397707Y-121034650D01*
X105308494Y-121025536D01*
X105298344Y-121024500D01*
X104751655Y-121024500D01*
X104652292Y-121034650D01*
X104491300Y-121087997D01*
X104346954Y-121177031D01*
X104337678Y-121186308D01*
X104282089Y-121218401D01*
X104217902Y-121218399D01*
X104162316Y-121186304D01*
X104153042Y-121177030D01*
X104008699Y-121087997D01*
X103847707Y-121034650D01*
X103758494Y-121025536D01*
X103748344Y-121024500D01*
X103201655Y-121024500D01*
X103102292Y-121034650D01*
X102941303Y-121087996D01*
X102817334Y-121164462D01*
X102752237Y-121182923D01*
X102687140Y-121164461D01*
X102562289Y-121087451D01*
X102402685Y-121034563D01*
X102304174Y-121024500D01*
X101770826Y-121024500D01*
X101672314Y-121034563D01*
X101512714Y-121087450D01*
X101369605Y-121175721D01*
X101337679Y-121207647D01*
X101282091Y-121239740D01*
X101217904Y-121239739D01*
X101162317Y-121207645D01*
X101130393Y-121175720D01*
X100988172Y-121087997D01*
X100987287Y-121087451D01*
X100987286Y-121087450D01*
X100987285Y-121087450D01*
X100827685Y-121034563D01*
X100729174Y-121024500D01*
X100195826Y-121024500D01*
X100097314Y-121034563D01*
X99937711Y-121087451D01*
X99815095Y-121163081D01*
X99749999Y-121181542D01*
X99684902Y-121163081D01*
X99563172Y-121087997D01*
X99562287Y-121087451D01*
X99562286Y-121087450D01*
X99562285Y-121087450D01*
X99402685Y-121034563D01*
X99304174Y-121024500D01*
X98770826Y-121024500D01*
X98672314Y-121034563D01*
X98512714Y-121087450D01*
X98369605Y-121175721D01*
X98337679Y-121207647D01*
X98282091Y-121239740D01*
X98217904Y-121239739D01*
X98162317Y-121207645D01*
X98130393Y-121175720D01*
X97988172Y-121087997D01*
X97987287Y-121087451D01*
X97987286Y-121087450D01*
X97987285Y-121087450D01*
X97827685Y-121034563D01*
X97729174Y-121024500D01*
X97195826Y-121024500D01*
X97097314Y-121034563D01*
X96937714Y-121087450D01*
X96782273Y-121183328D01*
X96781331Y-121181802D01*
X96742764Y-121204070D01*
X96678576Y-121204070D01*
X96641573Y-121182705D01*
X96640380Y-121184640D01*
X96483699Y-121087997D01*
X96322707Y-121034650D01*
X96233494Y-121025536D01*
X96223344Y-121024500D01*
X95676655Y-121024500D01*
X95577292Y-121034650D01*
X95416300Y-121087997D01*
X95271954Y-121177031D01*
X95262678Y-121186308D01*
X95207089Y-121218401D01*
X95142902Y-121218399D01*
X95087316Y-121186304D01*
X95078042Y-121177030D01*
X94933699Y-121087997D01*
X94772707Y-121034650D01*
X94683494Y-121025536D01*
X94673344Y-121024500D01*
X94126655Y-121024500D01*
X94027292Y-121034650D01*
X93866300Y-121087997D01*
X93749598Y-121159981D01*
X93685056Y-121178442D01*
X93620351Y-121160560D01*
X93547939Y-121116786D01*
X93489606Y-121081522D01*
X93339189Y-121034651D01*
X93327193Y-121030913D01*
X93256617Y-121024500D01*
X93256616Y-121024500D01*
X92743384Y-121024500D01*
X92743383Y-121024500D01*
X92672806Y-121030913D01*
X92591598Y-121056218D01*
X92510394Y-121081522D01*
X92510392Y-121081522D01*
X92510392Y-121081523D01*
X92364813Y-121169528D01*
X92262681Y-121271661D01*
X92207094Y-121303755D01*
X92142906Y-121303755D01*
X92087319Y-121271661D01*
X91985186Y-121169528D01*
X91897179Y-121116326D01*
X91839606Y-121081522D01*
X91689189Y-121034651D01*
X91677193Y-121030913D01*
X91606617Y-121024500D01*
X91606616Y-121024500D01*
X91093384Y-121024500D01*
X91093383Y-121024500D01*
X91022806Y-121030913D01*
X90941598Y-121056218D01*
X90860394Y-121081522D01*
X90860392Y-121081522D01*
X90860392Y-121081523D01*
X90714813Y-121169528D01*
X90594528Y-121289813D01*
X90506523Y-121435392D01*
X90455913Y-121597806D01*
X90449500Y-121668383D01*
X90449500Y-122331617D01*
X90455913Y-122402193D01*
X90455914Y-122402196D01*
X90506522Y-122564606D01*
X90506523Y-122564607D01*
X90557117Y-122648300D01*
X90575000Y-122712450D01*
X90575000Y-124126000D01*
X90558387Y-124188000D01*
X90513000Y-124233387D01*
X90451000Y-124250000D01*
X89250001Y-124250000D01*
X89250001Y-124625303D01*
X89231302Y-124690784D01*
X89180844Y-124736515D01*
X89113846Y-124748706D01*
X89068334Y-124730720D01*
X89067924Y-124731711D01*
X88906762Y-124664956D01*
X88855014Y-124658143D01*
X88796497Y-124634175D01*
X88757407Y-124584468D01*
X88747912Y-124521948D01*
X88749470Y-124507454D01*
X88750500Y-124497873D01*
X88750499Y-123750000D01*
X89250000Y-123750000D01*
X90075000Y-123750000D01*
X90075000Y-122600001D01*
X89950021Y-122600001D01*
X89847304Y-122610493D01*
X89680877Y-122665642D01*
X89531654Y-122757683D01*
X89407683Y-122881654D01*
X89315642Y-123030877D01*
X89260493Y-123197303D01*
X89250000Y-123300021D01*
X89250000Y-123750000D01*
X88750499Y-123750000D01*
X88750499Y-123402128D01*
X88744091Y-123342517D01*
X88693796Y-123207669D01*
X88607546Y-123092454D01*
X88492331Y-123006204D01*
X88357483Y-122955909D01*
X88297873Y-122949500D01*
X88297869Y-122949500D01*
X86702130Y-122949500D01*
X86642515Y-122955909D01*
X86507669Y-123006204D01*
X86392451Y-123092456D01*
X86303356Y-123211471D01*
X86266189Y-123244490D01*
X86219040Y-123260256D01*
X86204693Y-123261998D01*
X86181128Y-123264860D01*
X86181126Y-123264860D01*
X86181122Y-123264861D01*
X86171641Y-123268456D01*
X86150036Y-123274479D01*
X86140069Y-123276305D01*
X86085234Y-123300984D01*
X86078318Y-123303848D01*
X86022069Y-123325181D01*
X86013725Y-123330941D01*
X85994183Y-123341963D01*
X85984944Y-123346121D01*
X85937594Y-123383216D01*
X85931566Y-123387652D01*
X85882067Y-123421819D01*
X85842183Y-123466838D01*
X85837051Y-123472290D01*
X85772290Y-123537051D01*
X85766838Y-123542183D01*
X85721816Y-123582070D01*
X85687649Y-123631568D01*
X85683213Y-123637597D01*
X85646121Y-123684942D01*
X85641961Y-123694186D01*
X85630941Y-123713725D01*
X85625182Y-123722069D01*
X85603853Y-123778305D01*
X85600988Y-123785221D01*
X85580240Y-123831323D01*
X85543638Y-123878043D01*
X85489517Y-123902402D01*
X85430274Y-123898819D01*
X85379483Y-123868114D01*
X85268657Y-123757288D01*
X85119334Y-123665186D01*
X84952797Y-123610000D01*
X84850009Y-123599500D01*
X84099991Y-123599500D01*
X83997203Y-123610000D01*
X83830665Y-123665186D01*
X83681342Y-123757288D01*
X83557288Y-123881342D01*
X83465186Y-124030665D01*
X83410000Y-124197202D01*
X83399500Y-124299990D01*
X83399500Y-125700008D01*
X83410000Y-125802796D01*
X83465186Y-125969334D01*
X83557288Y-126118657D01*
X83681342Y-126242711D01*
X83715596Y-126263839D01*
X83758777Y-126308946D01*
X83774500Y-126369378D01*
X83774500Y-127608481D01*
X83765061Y-127655934D01*
X83738181Y-127696162D01*
X83721162Y-127713181D01*
X83680934Y-127740061D01*
X83633481Y-127749500D01*
X83362000Y-127749500D01*
X83300000Y-127732887D01*
X83254613Y-127687500D01*
X83238000Y-127625500D01*
X83238000Y-127384308D01*
X83237779Y-127381495D01*
X83235098Y-127347431D01*
X83189244Y-127189602D01*
X83105581Y-127048135D01*
X82989365Y-126931919D01*
X82954661Y-126911395D01*
X82847897Y-126848255D01*
X82690072Y-126802402D01*
X82667944Y-126800660D01*
X82653194Y-126799500D01*
X81346806Y-126799500D01*
X81334514Y-126800467D01*
X81309927Y-126802402D01*
X81152102Y-126848255D01*
X81010636Y-126931918D01*
X80922012Y-127020542D01*
X80865027Y-127053001D01*
X80799457Y-127051855D01*
X80743641Y-127017425D01*
X80713192Y-126959342D01*
X80715706Y-126911395D01*
X80713969Y-126911218D01*
X80719642Y-126855682D01*
X80725500Y-126798345D01*
X80725499Y-126454588D01*
X80739096Y-126398135D01*
X80776906Y-126354060D01*
X80830636Y-126332033D01*
X80888503Y-126336884D01*
X81047304Y-126389506D01*
X81150021Y-126400000D01*
X81275000Y-126400000D01*
X81275000Y-125250000D01*
X81775000Y-125250000D01*
X81775000Y-126399999D01*
X81899979Y-126399999D01*
X82002695Y-126389506D01*
X82169122Y-126334357D01*
X82318345Y-126242316D01*
X82442316Y-126118345D01*
X82534357Y-125969122D01*
X82589506Y-125802696D01*
X82600000Y-125699979D01*
X82600000Y-125250000D01*
X81775000Y-125250000D01*
X81275000Y-125250000D01*
X80450000Y-125250000D01*
X80450000Y-125463100D01*
X80436403Y-125519556D01*
X80398593Y-125563630D01*
X80344863Y-125585657D01*
X80286996Y-125580806D01*
X80147707Y-125534650D01*
X80058494Y-125525536D01*
X80048344Y-125524500D01*
X79501655Y-125524500D01*
X79402292Y-125534650D01*
X79241300Y-125587997D01*
X79096954Y-125677031D01*
X79087678Y-125686308D01*
X79032089Y-125718401D01*
X78967902Y-125718399D01*
X78912316Y-125686304D01*
X78903042Y-125677030D01*
X78758699Y-125587997D01*
X78597707Y-125534650D01*
X78498345Y-125524500D01*
X78291518Y-125524500D01*
X78244065Y-125515061D01*
X78203837Y-125488181D01*
X77978379Y-125262723D01*
X77737940Y-125022283D01*
X77732822Y-125016847D01*
X77692929Y-124971817D01*
X77682518Y-124964631D01*
X77653260Y-124944435D01*
X77643429Y-124937649D01*
X77637405Y-124933216D01*
X77590054Y-124896120D01*
X77580813Y-124891961D01*
X77561273Y-124880941D01*
X77552930Y-124875182D01*
X77552927Y-124875181D01*
X77552926Y-124875180D01*
X77496701Y-124853856D01*
X77489783Y-124850991D01*
X77434929Y-124826303D01*
X77424952Y-124824475D01*
X77403339Y-124818450D01*
X77393873Y-124814860D01*
X77334172Y-124807610D01*
X77326771Y-124806483D01*
X77267607Y-124795641D01*
X77207566Y-124799274D01*
X77200079Y-124799500D01*
X76858345Y-124799500D01*
X76809532Y-124789488D01*
X76768602Y-124761070D01*
X76761672Y-124750000D01*
X80450000Y-124750000D01*
X81275000Y-124750000D01*
X81275000Y-123600001D01*
X81150021Y-123600001D01*
X81047304Y-123610493D01*
X80880877Y-123665642D01*
X80731654Y-123757683D01*
X80607683Y-123881654D01*
X80515642Y-124030877D01*
X80460493Y-124197303D01*
X80450000Y-124300021D01*
X80450000Y-124750000D01*
X76761672Y-124750000D01*
X76742163Y-124718834D01*
X76742163Y-124718833D01*
X76706296Y-124622669D01*
X76620046Y-124507454D01*
X76504831Y-124421204D01*
X76369983Y-124370909D01*
X76310373Y-124364500D01*
X76310369Y-124364500D01*
X76308876Y-124364500D01*
X72624499Y-124364500D01*
X72562500Y-124347888D01*
X72517113Y-124302501D01*
X72500500Y-124240501D01*
X72500500Y-123974000D01*
X72517113Y-123912000D01*
X72562500Y-123866613D01*
X72624500Y-123850000D01*
X74412500Y-123850000D01*
X74412500Y-122925000D01*
X74912500Y-122925000D01*
X74912500Y-123850000D01*
X76810324Y-123850000D01*
X76869875Y-123843597D01*
X77004589Y-123793352D01*
X77119688Y-123707188D01*
X77199930Y-123600000D01*
X81775000Y-123600000D01*
X81775000Y-124750000D01*
X82599999Y-124750000D01*
X82599999Y-124300021D01*
X82589506Y-124197304D01*
X82534357Y-124030877D01*
X82442316Y-123881654D01*
X82318345Y-123757683D01*
X82169122Y-123665642D01*
X82002696Y-123610493D01*
X81899979Y-123600000D01*
X81775000Y-123600000D01*
X77199930Y-123600000D01*
X77205852Y-123592089D01*
X77256097Y-123457375D01*
X77262500Y-123397824D01*
X77262500Y-122925000D01*
X74912500Y-122925000D01*
X74412500Y-122925000D01*
X74412500Y-121500000D01*
X74912500Y-121500000D01*
X74912500Y-122425000D01*
X77262500Y-122425000D01*
X77262500Y-121952176D01*
X77256097Y-121892624D01*
X77205852Y-121757910D01*
X77119688Y-121642811D01*
X77004589Y-121556647D01*
X76869875Y-121506402D01*
X76810324Y-121500000D01*
X74912500Y-121500000D01*
X74412500Y-121500000D01*
X72624500Y-121500000D01*
X72562500Y-121483387D01*
X72517113Y-121438000D01*
X72500500Y-121376000D01*
X72500500Y-119624500D01*
X72517113Y-119562500D01*
X72562500Y-119517113D01*
X72624500Y-119500500D01*
X120375500Y-119500500D01*
X120437500Y-119517113D01*
G37*
%TD.AperFunction*%
%TD*%
M02*
