M48
; DRILL file {KiCad 7.0.1} date Fri Jun 23 15:29:12 2023
; FORMAT={-:-/ absolute / inch / decimal}
; #@! TF.CreationDate,2023-06-23T15:29:12-04:00
; #@! TF.GenerationSoftware,Kicad,Pcbnew,7.0.1
; #@! TF.FileFunction,MixedPlating,1,2
FMAT,2
INCH
; #@! TA.AperFunction,Plated,PTH,ViaDrill
T1C0.0118
; #@! TA.AperFunction,Plated,PTH,ComponentDrill
T2C0.0472
; #@! TA.AperFunction,NonPlated,NPTH,ComponentDrill
T3C0.1000
%
G90
G05
T1
X2.9134Y-4.7638
X2.9134Y-5.1575
X2.9134Y-5.2362
X2.9134Y-5.315
X2.9134Y-5.7087
X2.9528Y-4.7244
X2.9528Y-5.1969
X2.9528Y-5.2756
X2.9921Y-4.7638
X2.9921Y-5.7087
X3.0315Y-4.7244
X3.0709Y-4.7638
X3.0709Y-4.8425
X3.0709Y-5.5512
X3.0709Y-5.6299
X3.0709Y-5.7087
X3.1004Y-5.2067
X3.1102Y-4.7244
X3.1102Y-4.8031
X3.1102Y-4.8819
X3.1496Y-4.8425
X3.1496Y-4.9213
X3.189Y-4.7244
X3.189Y-5.3346
X3.189Y-5.5512
X3.2283Y-4.8425
X3.2677Y-4.7244
X3.3071Y-4.8425
X3.3071Y-5.1181
X3.3268Y-5.5315
X3.3465Y-4.7244
X3.3858Y-4.7638
X3.3858Y-5.5315
X3.4252Y-4.7244
X3.4449Y-5.5512
X3.4449Y-5.6693
X3.4646Y-4.7638
X3.5039Y-4.7244
X3.5039Y-4.8031
X3.5039Y-5.4035
X3.5039Y-5.5512
X3.5138Y-5.1969
X3.5433Y-4.7638
X3.5531Y-5.0689
X3.5827Y-4.7244
X3.5965Y-4.9311
X3.6122Y-5.315
X3.622Y-4.7638
X3.6516Y-5.4035
X3.6535Y-5.4606
X3.6614Y-4.7244
X3.7008Y-4.7638
X3.7008Y-5.1181
X3.7303Y-4.9508
X3.7402Y-4.7244
X3.7402Y-5.1575
X3.7598Y-5.4488
X3.7795Y-4.7638
X3.7795Y-5.1181
X3.7795Y-5.1969
X3.7795Y-5.2756
X3.7795Y-5.3937
X3.7992Y-5.6299
X3.8189Y-4.7244
X3.8189Y-5.1575
X3.8189Y-5.2362
X3.8189Y-5.315
X3.8189Y-5.5118
X3.8583Y-4.7638
X3.8583Y-5.4724
X3.8878Y-5.4429
X3.8976Y-4.7244
X3.8976Y-5.5118
X3.937Y-4.7638
X3.937Y-5.0787
X3.937Y-5.1575
X3.937Y-5.2362
X3.937Y-5.315
X3.937Y-5.3937
X3.9567Y-4.8622
X3.9567Y-4.9409
X3.9764Y-4.7244
X3.9764Y-5.1181
X3.9764Y-5.5118
X3.9764Y-5.5906
X3.9961Y-4.9016
X4.0157Y-4.7638
X4.0157Y-5.2362
X4.0157Y-5.315
X4.0157Y-5.3937
X4.0157Y-5.5512
X4.0354Y-4.8622
X4.0354Y-4.9409
X4.0551Y-4.7244
X4.0551Y-5.1969
X4.0551Y-5.2756
X4.0551Y-5.3543
X4.0551Y-5.5118
X4.0551Y-5.5906
X4.0945Y-4.7638
X4.0945Y-5.2362
X4.0945Y-5.3937
X4.0945Y-5.6299
X4.1339Y-4.7244
X4.1339Y-5.1969
X4.1339Y-5.3543
X4.1339Y-5.5906
X4.1732Y-5.0787
X4.1732Y-5.2362
X4.1732Y-5.3937
X4.1732Y-5.6299
X4.2126Y-4.7244
X4.2126Y-5.1969
X4.2126Y-5.2756
X4.2126Y-5.3543
X4.2126Y-5.5118
X4.2126Y-5.5906
X4.252Y-5.0787
X4.252Y-5.3937
X4.252Y-5.5512
X4.2913Y-4.7244
X4.2913Y-4.8031
X4.2913Y-4.9606
X4.2913Y-5.0394
X4.2913Y-5.3543
X4.2913Y-5.5118
X4.3307Y-4.7638
X4.3307Y-5.0
X4.3307Y-5.0787
X4.3307Y-5.2362
X4.3307Y-5.3937
X4.3307Y-5.5512
X4.3701Y-4.7244
X4.3701Y-4.8031
X4.3701Y-4.8819
X4.3701Y-4.9606
X4.3701Y-5.0394
X4.3701Y-5.1969
X4.3701Y-5.3543
X4.3701Y-5.5118
X4.4094Y-4.9213
X4.4094Y-5.0
X4.4094Y-5.2362
X4.4094Y-5.3937
X4.4094Y-5.5512
X4.4488Y-4.7244
X4.4488Y-4.9606
X4.4488Y-5.1969
X4.4488Y-5.3543
X4.4488Y-5.5118
X4.4882Y-4.9213
X4.4882Y-5.0787
X4.4882Y-5.1575
X4.4882Y-5.2362
X4.4882Y-5.3937
X4.4882Y-5.5512
X4.5276Y-4.7244
X4.5276Y-4.8031
X4.5276Y-4.8819
X4.5276Y-5.0394
X4.5276Y-5.1181
X4.5276Y-5.1969
X4.5276Y-5.3543
X4.5276Y-5.4331
X4.5276Y-5.5906
X4.5669Y-4.7638
X4.6063Y-4.7244
X4.6457Y-4.7638
X4.685Y-4.7244
T2
X3.1752Y-5.6437
X3.3543Y-5.6437
T3
X4.2113Y-4.9016
T0
M30
