%TF.GenerationSoftware,KiCad,Pcbnew,7.0.1*%
%TF.CreationDate,2023-06-22T21:15:45-04:00*%
%TF.ProjectId,lnbf-psu,6c6e6266-2d70-4737-952e-6b696361645f,1*%
%TF.SameCoordinates,Original*%
%TF.FileFunction,Legend,Top*%
%TF.FilePolarity,Positive*%
%FSLAX46Y46*%
G04 Gerber Fmt 4.6, Leading zero omitted, Abs format (unit mm)*
G04 Created by KiCad (PCBNEW 7.0.1) date 2023-06-22 21:15:45*
%MOMM*%
%LPD*%
G01*
G04 APERTURE LIST*
%ADD10C,0.300000*%
%ADD11C,0.150000*%
%ADD12C,0.120000*%
G04 APERTURE END LIST*
D10*
X146355238Y-132771428D02*
X146355238Y-133723809D01*
X146355238Y-133723809D02*
X144355238Y-133723809D01*
X146355238Y-132104761D02*
X144355238Y-132104761D01*
X144355238Y-132104761D02*
X146355238Y-130961904D01*
X146355238Y-130961904D02*
X144355238Y-130961904D01*
X145307619Y-129342856D02*
X145402857Y-129057142D01*
X145402857Y-129057142D02*
X145498095Y-128961904D01*
X145498095Y-128961904D02*
X145688571Y-128866666D01*
X145688571Y-128866666D02*
X145974285Y-128866666D01*
X145974285Y-128866666D02*
X146164761Y-128961904D01*
X146164761Y-128961904D02*
X146260000Y-129057142D01*
X146260000Y-129057142D02*
X146355238Y-129247618D01*
X146355238Y-129247618D02*
X146355238Y-130009523D01*
X146355238Y-130009523D02*
X144355238Y-130009523D01*
X144355238Y-130009523D02*
X144355238Y-129342856D01*
X144355238Y-129342856D02*
X144450476Y-129152380D01*
X144450476Y-129152380D02*
X144545714Y-129057142D01*
X144545714Y-129057142D02*
X144736190Y-128961904D01*
X144736190Y-128961904D02*
X144926666Y-128961904D01*
X144926666Y-128961904D02*
X145117142Y-129057142D01*
X145117142Y-129057142D02*
X145212380Y-129152380D01*
X145212380Y-129152380D02*
X145307619Y-129342856D01*
X145307619Y-129342856D02*
X145307619Y-130009523D01*
X146355238Y-126485713D02*
X144355238Y-126485713D01*
X144355238Y-126485713D02*
X144355238Y-125723808D01*
X144355238Y-125723808D02*
X144450476Y-125533332D01*
X144450476Y-125533332D02*
X144545714Y-125438094D01*
X144545714Y-125438094D02*
X144736190Y-125342856D01*
X144736190Y-125342856D02*
X145021904Y-125342856D01*
X145021904Y-125342856D02*
X145212380Y-125438094D01*
X145212380Y-125438094D02*
X145307619Y-125533332D01*
X145307619Y-125533332D02*
X145402857Y-125723808D01*
X145402857Y-125723808D02*
X145402857Y-126485713D01*
X146260000Y-124580951D02*
X146355238Y-124295237D01*
X146355238Y-124295237D02*
X146355238Y-123819046D01*
X146355238Y-123819046D02*
X146260000Y-123628570D01*
X146260000Y-123628570D02*
X146164761Y-123533332D01*
X146164761Y-123533332D02*
X145974285Y-123438094D01*
X145974285Y-123438094D02*
X145783809Y-123438094D01*
X145783809Y-123438094D02*
X145593333Y-123533332D01*
X145593333Y-123533332D02*
X145498095Y-123628570D01*
X145498095Y-123628570D02*
X145402857Y-123819046D01*
X145402857Y-123819046D02*
X145307619Y-124199999D01*
X145307619Y-124199999D02*
X145212380Y-124390475D01*
X145212380Y-124390475D02*
X145117142Y-124485713D01*
X145117142Y-124485713D02*
X144926666Y-124580951D01*
X144926666Y-124580951D02*
X144736190Y-124580951D01*
X144736190Y-124580951D02*
X144545714Y-124485713D01*
X144545714Y-124485713D02*
X144450476Y-124390475D01*
X144450476Y-124390475D02*
X144355238Y-124199999D01*
X144355238Y-124199999D02*
X144355238Y-123723808D01*
X144355238Y-123723808D02*
X144450476Y-123438094D01*
X144355238Y-122580951D02*
X145974285Y-122580951D01*
X145974285Y-122580951D02*
X146164761Y-122485713D01*
X146164761Y-122485713D02*
X146260000Y-122390475D01*
X146260000Y-122390475D02*
X146355238Y-122199999D01*
X146355238Y-122199999D02*
X146355238Y-121819046D01*
X146355238Y-121819046D02*
X146260000Y-121628570D01*
X146260000Y-121628570D02*
X146164761Y-121533332D01*
X146164761Y-121533332D02*
X145974285Y-121438094D01*
X145974285Y-121438094D02*
X144355238Y-121438094D01*
D11*
%TO.C,D1*%
X144661905Y-99062619D02*
X144661905Y-98062619D01*
X144661905Y-98062619D02*
X144900000Y-98062619D01*
X144900000Y-98062619D02*
X145042857Y-98110238D01*
X145042857Y-98110238D02*
X145138095Y-98205476D01*
X145138095Y-98205476D02*
X145185714Y-98300714D01*
X145185714Y-98300714D02*
X145233333Y-98491190D01*
X145233333Y-98491190D02*
X145233333Y-98634047D01*
X145233333Y-98634047D02*
X145185714Y-98824523D01*
X145185714Y-98824523D02*
X145138095Y-98919761D01*
X145138095Y-98919761D02*
X145042857Y-99015000D01*
X145042857Y-99015000D02*
X144900000Y-99062619D01*
X144900000Y-99062619D02*
X144661905Y-99062619D01*
X146185714Y-99062619D02*
X145614286Y-99062619D01*
X145900000Y-99062619D02*
X145900000Y-98062619D01*
X145900000Y-98062619D02*
X145804762Y-98205476D01*
X145804762Y-98205476D02*
X145709524Y-98300714D01*
X145709524Y-98300714D02*
X145614286Y-98348333D01*
%TO.C,Q5*%
X169504761Y-113157857D02*
X169409523Y-113110238D01*
X169409523Y-113110238D02*
X169314285Y-113015000D01*
X169314285Y-113015000D02*
X169171428Y-112872142D01*
X169171428Y-112872142D02*
X169076190Y-112824523D01*
X169076190Y-112824523D02*
X168980952Y-112824523D01*
X169028571Y-113062619D02*
X168933333Y-113015000D01*
X168933333Y-113015000D02*
X168838095Y-112919761D01*
X168838095Y-112919761D02*
X168790476Y-112729285D01*
X168790476Y-112729285D02*
X168790476Y-112395952D01*
X168790476Y-112395952D02*
X168838095Y-112205476D01*
X168838095Y-112205476D02*
X168933333Y-112110238D01*
X168933333Y-112110238D02*
X169028571Y-112062619D01*
X169028571Y-112062619D02*
X169219047Y-112062619D01*
X169219047Y-112062619D02*
X169314285Y-112110238D01*
X169314285Y-112110238D02*
X169409523Y-112205476D01*
X169409523Y-112205476D02*
X169457142Y-112395952D01*
X169457142Y-112395952D02*
X169457142Y-112729285D01*
X169457142Y-112729285D02*
X169409523Y-112919761D01*
X169409523Y-112919761D02*
X169314285Y-113015000D01*
X169314285Y-113015000D02*
X169219047Y-113062619D01*
X169219047Y-113062619D02*
X169028571Y-113062619D01*
X170361904Y-112062619D02*
X169885714Y-112062619D01*
X169885714Y-112062619D02*
X169838095Y-112538809D01*
X169838095Y-112538809D02*
X169885714Y-112491190D01*
X169885714Y-112491190D02*
X169980952Y-112443571D01*
X169980952Y-112443571D02*
X170219047Y-112443571D01*
X170219047Y-112443571D02*
X170314285Y-112491190D01*
X170314285Y-112491190D02*
X170361904Y-112538809D01*
X170361904Y-112538809D02*
X170409523Y-112634047D01*
X170409523Y-112634047D02*
X170409523Y-112872142D01*
X170409523Y-112872142D02*
X170361904Y-112967380D01*
X170361904Y-112967380D02*
X170314285Y-113015000D01*
X170314285Y-113015000D02*
X170219047Y-113062619D01*
X170219047Y-113062619D02*
X169980952Y-113062619D01*
X169980952Y-113062619D02*
X169885714Y-113015000D01*
X169885714Y-113015000D02*
X169838095Y-112967380D01*
%TO.C,R5*%
X150292619Y-110741666D02*
X149816428Y-111074999D01*
X150292619Y-111313094D02*
X149292619Y-111313094D01*
X149292619Y-111313094D02*
X149292619Y-110932142D01*
X149292619Y-110932142D02*
X149340238Y-110836904D01*
X149340238Y-110836904D02*
X149387857Y-110789285D01*
X149387857Y-110789285D02*
X149483095Y-110741666D01*
X149483095Y-110741666D02*
X149625952Y-110741666D01*
X149625952Y-110741666D02*
X149721190Y-110789285D01*
X149721190Y-110789285D02*
X149768809Y-110836904D01*
X149768809Y-110836904D02*
X149816428Y-110932142D01*
X149816428Y-110932142D02*
X149816428Y-111313094D01*
X149292619Y-109836904D02*
X149292619Y-110313094D01*
X149292619Y-110313094D02*
X149768809Y-110360713D01*
X149768809Y-110360713D02*
X149721190Y-110313094D01*
X149721190Y-110313094D02*
X149673571Y-110217856D01*
X149673571Y-110217856D02*
X149673571Y-109979761D01*
X149673571Y-109979761D02*
X149721190Y-109884523D01*
X149721190Y-109884523D02*
X149768809Y-109836904D01*
X149768809Y-109836904D02*
X149864047Y-109789285D01*
X149864047Y-109789285D02*
X150102142Y-109789285D01*
X150102142Y-109789285D02*
X150197380Y-109836904D01*
X150197380Y-109836904D02*
X150245000Y-109884523D01*
X150245000Y-109884523D02*
X150292619Y-109979761D01*
X150292619Y-109979761D02*
X150292619Y-110217856D01*
X150292619Y-110217856D02*
X150245000Y-110313094D01*
X150245000Y-110313094D02*
X150197380Y-110360713D01*
%TO.C,R3*%
X151062619Y-113566666D02*
X150586428Y-113899999D01*
X151062619Y-114138094D02*
X150062619Y-114138094D01*
X150062619Y-114138094D02*
X150062619Y-113757142D01*
X150062619Y-113757142D02*
X150110238Y-113661904D01*
X150110238Y-113661904D02*
X150157857Y-113614285D01*
X150157857Y-113614285D02*
X150253095Y-113566666D01*
X150253095Y-113566666D02*
X150395952Y-113566666D01*
X150395952Y-113566666D02*
X150491190Y-113614285D01*
X150491190Y-113614285D02*
X150538809Y-113661904D01*
X150538809Y-113661904D02*
X150586428Y-113757142D01*
X150586428Y-113757142D02*
X150586428Y-114138094D01*
X150062619Y-113233332D02*
X150062619Y-112614285D01*
X150062619Y-112614285D02*
X150443571Y-112947618D01*
X150443571Y-112947618D02*
X150443571Y-112804761D01*
X150443571Y-112804761D02*
X150491190Y-112709523D01*
X150491190Y-112709523D02*
X150538809Y-112661904D01*
X150538809Y-112661904D02*
X150634047Y-112614285D01*
X150634047Y-112614285D02*
X150872142Y-112614285D01*
X150872142Y-112614285D02*
X150967380Y-112661904D01*
X150967380Y-112661904D02*
X151015000Y-112709523D01*
X151015000Y-112709523D02*
X151062619Y-112804761D01*
X151062619Y-112804761D02*
X151062619Y-113090475D01*
X151062619Y-113090475D02*
X151015000Y-113185713D01*
X151015000Y-113185713D02*
X150967380Y-113233332D01*
%TO.C,R7*%
X150292619Y-107641666D02*
X149816428Y-107974999D01*
X150292619Y-108213094D02*
X149292619Y-108213094D01*
X149292619Y-108213094D02*
X149292619Y-107832142D01*
X149292619Y-107832142D02*
X149340238Y-107736904D01*
X149340238Y-107736904D02*
X149387857Y-107689285D01*
X149387857Y-107689285D02*
X149483095Y-107641666D01*
X149483095Y-107641666D02*
X149625952Y-107641666D01*
X149625952Y-107641666D02*
X149721190Y-107689285D01*
X149721190Y-107689285D02*
X149768809Y-107736904D01*
X149768809Y-107736904D02*
X149816428Y-107832142D01*
X149816428Y-107832142D02*
X149816428Y-108213094D01*
X149292619Y-107308332D02*
X149292619Y-106641666D01*
X149292619Y-106641666D02*
X150292619Y-107070237D01*
%TO.C,Q4*%
X174557857Y-132295238D02*
X174510238Y-132390476D01*
X174510238Y-132390476D02*
X174415000Y-132485714D01*
X174415000Y-132485714D02*
X174272142Y-132628571D01*
X174272142Y-132628571D02*
X174224523Y-132723809D01*
X174224523Y-132723809D02*
X174224523Y-132819047D01*
X174462619Y-132771428D02*
X174415000Y-132866666D01*
X174415000Y-132866666D02*
X174319761Y-132961904D01*
X174319761Y-132961904D02*
X174129285Y-133009523D01*
X174129285Y-133009523D02*
X173795952Y-133009523D01*
X173795952Y-133009523D02*
X173605476Y-132961904D01*
X173605476Y-132961904D02*
X173510238Y-132866666D01*
X173510238Y-132866666D02*
X173462619Y-132771428D01*
X173462619Y-132771428D02*
X173462619Y-132580952D01*
X173462619Y-132580952D02*
X173510238Y-132485714D01*
X173510238Y-132485714D02*
X173605476Y-132390476D01*
X173605476Y-132390476D02*
X173795952Y-132342857D01*
X173795952Y-132342857D02*
X174129285Y-132342857D01*
X174129285Y-132342857D02*
X174319761Y-132390476D01*
X174319761Y-132390476D02*
X174415000Y-132485714D01*
X174415000Y-132485714D02*
X174462619Y-132580952D01*
X174462619Y-132580952D02*
X174462619Y-132771428D01*
X173795952Y-131485714D02*
X174462619Y-131485714D01*
X173415000Y-131723809D02*
X174129285Y-131961904D01*
X174129285Y-131961904D02*
X174129285Y-131342857D01*
%TO.C,R9*%
X174462619Y-114166666D02*
X173986428Y-114499999D01*
X174462619Y-114738094D02*
X173462619Y-114738094D01*
X173462619Y-114738094D02*
X173462619Y-114357142D01*
X173462619Y-114357142D02*
X173510238Y-114261904D01*
X173510238Y-114261904D02*
X173557857Y-114214285D01*
X173557857Y-114214285D02*
X173653095Y-114166666D01*
X173653095Y-114166666D02*
X173795952Y-114166666D01*
X173795952Y-114166666D02*
X173891190Y-114214285D01*
X173891190Y-114214285D02*
X173938809Y-114261904D01*
X173938809Y-114261904D02*
X173986428Y-114357142D01*
X173986428Y-114357142D02*
X173986428Y-114738094D01*
X174462619Y-113690475D02*
X174462619Y-113499999D01*
X174462619Y-113499999D02*
X174415000Y-113404761D01*
X174415000Y-113404761D02*
X174367380Y-113357142D01*
X174367380Y-113357142D02*
X174224523Y-113261904D01*
X174224523Y-113261904D02*
X174034047Y-113214285D01*
X174034047Y-113214285D02*
X173653095Y-113214285D01*
X173653095Y-113214285D02*
X173557857Y-113261904D01*
X173557857Y-113261904D02*
X173510238Y-113309523D01*
X173510238Y-113309523D02*
X173462619Y-113404761D01*
X173462619Y-113404761D02*
X173462619Y-113595237D01*
X173462619Y-113595237D02*
X173510238Y-113690475D01*
X173510238Y-113690475D02*
X173557857Y-113738094D01*
X173557857Y-113738094D02*
X173653095Y-113785713D01*
X173653095Y-113785713D02*
X173891190Y-113785713D01*
X173891190Y-113785713D02*
X173986428Y-113738094D01*
X173986428Y-113738094D02*
X174034047Y-113690475D01*
X174034047Y-113690475D02*
X174081666Y-113595237D01*
X174081666Y-113595237D02*
X174081666Y-113404761D01*
X174081666Y-113404761D02*
X174034047Y-113309523D01*
X174034047Y-113309523D02*
X173986428Y-113261904D01*
X173986428Y-113261904D02*
X173891190Y-113214285D01*
%TO.C,C4*%
X167033333Y-112767380D02*
X166985714Y-112815000D01*
X166985714Y-112815000D02*
X166842857Y-112862619D01*
X166842857Y-112862619D02*
X166747619Y-112862619D01*
X166747619Y-112862619D02*
X166604762Y-112815000D01*
X166604762Y-112815000D02*
X166509524Y-112719761D01*
X166509524Y-112719761D02*
X166461905Y-112624523D01*
X166461905Y-112624523D02*
X166414286Y-112434047D01*
X166414286Y-112434047D02*
X166414286Y-112291190D01*
X166414286Y-112291190D02*
X166461905Y-112100714D01*
X166461905Y-112100714D02*
X166509524Y-112005476D01*
X166509524Y-112005476D02*
X166604762Y-111910238D01*
X166604762Y-111910238D02*
X166747619Y-111862619D01*
X166747619Y-111862619D02*
X166842857Y-111862619D01*
X166842857Y-111862619D02*
X166985714Y-111910238D01*
X166985714Y-111910238D02*
X167033333Y-111957857D01*
X167890476Y-112195952D02*
X167890476Y-112862619D01*
X167652381Y-111815000D02*
X167414286Y-112529285D01*
X167414286Y-112529285D02*
X168033333Y-112529285D01*
%TO.C,C5*%
X165233333Y-105567380D02*
X165185714Y-105615000D01*
X165185714Y-105615000D02*
X165042857Y-105662619D01*
X165042857Y-105662619D02*
X164947619Y-105662619D01*
X164947619Y-105662619D02*
X164804762Y-105615000D01*
X164804762Y-105615000D02*
X164709524Y-105519761D01*
X164709524Y-105519761D02*
X164661905Y-105424523D01*
X164661905Y-105424523D02*
X164614286Y-105234047D01*
X164614286Y-105234047D02*
X164614286Y-105091190D01*
X164614286Y-105091190D02*
X164661905Y-104900714D01*
X164661905Y-104900714D02*
X164709524Y-104805476D01*
X164709524Y-104805476D02*
X164804762Y-104710238D01*
X164804762Y-104710238D02*
X164947619Y-104662619D01*
X164947619Y-104662619D02*
X165042857Y-104662619D01*
X165042857Y-104662619D02*
X165185714Y-104710238D01*
X165185714Y-104710238D02*
X165233333Y-104757857D01*
X166138095Y-104662619D02*
X165661905Y-104662619D01*
X165661905Y-104662619D02*
X165614286Y-105138809D01*
X165614286Y-105138809D02*
X165661905Y-105091190D01*
X165661905Y-105091190D02*
X165757143Y-105043571D01*
X165757143Y-105043571D02*
X165995238Y-105043571D01*
X165995238Y-105043571D02*
X166090476Y-105091190D01*
X166090476Y-105091190D02*
X166138095Y-105138809D01*
X166138095Y-105138809D02*
X166185714Y-105234047D01*
X166185714Y-105234047D02*
X166185714Y-105472142D01*
X166185714Y-105472142D02*
X166138095Y-105567380D01*
X166138095Y-105567380D02*
X166090476Y-105615000D01*
X166090476Y-105615000D02*
X165995238Y-105662619D01*
X165995238Y-105662619D02*
X165757143Y-105662619D01*
X165757143Y-105662619D02*
X165661905Y-105615000D01*
X165661905Y-105615000D02*
X165614286Y-105567380D01*
%TO.C,R2*%
X149462619Y-113566666D02*
X148986428Y-113899999D01*
X149462619Y-114138094D02*
X148462619Y-114138094D01*
X148462619Y-114138094D02*
X148462619Y-113757142D01*
X148462619Y-113757142D02*
X148510238Y-113661904D01*
X148510238Y-113661904D02*
X148557857Y-113614285D01*
X148557857Y-113614285D02*
X148653095Y-113566666D01*
X148653095Y-113566666D02*
X148795952Y-113566666D01*
X148795952Y-113566666D02*
X148891190Y-113614285D01*
X148891190Y-113614285D02*
X148938809Y-113661904D01*
X148938809Y-113661904D02*
X148986428Y-113757142D01*
X148986428Y-113757142D02*
X148986428Y-114138094D01*
X148557857Y-113185713D02*
X148510238Y-113138094D01*
X148510238Y-113138094D02*
X148462619Y-113042856D01*
X148462619Y-113042856D02*
X148462619Y-112804761D01*
X148462619Y-112804761D02*
X148510238Y-112709523D01*
X148510238Y-112709523D02*
X148557857Y-112661904D01*
X148557857Y-112661904D02*
X148653095Y-112614285D01*
X148653095Y-112614285D02*
X148748333Y-112614285D01*
X148748333Y-112614285D02*
X148891190Y-112661904D01*
X148891190Y-112661904D02*
X149462619Y-113233332D01*
X149462619Y-113233332D02*
X149462619Y-112614285D01*
%TO.C,R11*%
X174262619Y-121442857D02*
X173786428Y-121776190D01*
X174262619Y-122014285D02*
X173262619Y-122014285D01*
X173262619Y-122014285D02*
X173262619Y-121633333D01*
X173262619Y-121633333D02*
X173310238Y-121538095D01*
X173310238Y-121538095D02*
X173357857Y-121490476D01*
X173357857Y-121490476D02*
X173453095Y-121442857D01*
X173453095Y-121442857D02*
X173595952Y-121442857D01*
X173595952Y-121442857D02*
X173691190Y-121490476D01*
X173691190Y-121490476D02*
X173738809Y-121538095D01*
X173738809Y-121538095D02*
X173786428Y-121633333D01*
X173786428Y-121633333D02*
X173786428Y-122014285D01*
X174262619Y-120490476D02*
X174262619Y-121061904D01*
X174262619Y-120776190D02*
X173262619Y-120776190D01*
X173262619Y-120776190D02*
X173405476Y-120871428D01*
X173405476Y-120871428D02*
X173500714Y-120966666D01*
X173500714Y-120966666D02*
X173548333Y-121061904D01*
X174262619Y-119538095D02*
X174262619Y-120109523D01*
X174262619Y-119823809D02*
X173262619Y-119823809D01*
X173262619Y-119823809D02*
X173405476Y-119919047D01*
X173405476Y-119919047D02*
X173500714Y-120014285D01*
X173500714Y-120014285D02*
X173548333Y-120109523D01*
%TO.C,R8*%
X173633333Y-127862619D02*
X173300000Y-127386428D01*
X173061905Y-127862619D02*
X173061905Y-126862619D01*
X173061905Y-126862619D02*
X173442857Y-126862619D01*
X173442857Y-126862619D02*
X173538095Y-126910238D01*
X173538095Y-126910238D02*
X173585714Y-126957857D01*
X173585714Y-126957857D02*
X173633333Y-127053095D01*
X173633333Y-127053095D02*
X173633333Y-127195952D01*
X173633333Y-127195952D02*
X173585714Y-127291190D01*
X173585714Y-127291190D02*
X173538095Y-127338809D01*
X173538095Y-127338809D02*
X173442857Y-127386428D01*
X173442857Y-127386428D02*
X173061905Y-127386428D01*
X174204762Y-127291190D02*
X174109524Y-127243571D01*
X174109524Y-127243571D02*
X174061905Y-127195952D01*
X174061905Y-127195952D02*
X174014286Y-127100714D01*
X174014286Y-127100714D02*
X174014286Y-127053095D01*
X174014286Y-127053095D02*
X174061905Y-126957857D01*
X174061905Y-126957857D02*
X174109524Y-126910238D01*
X174109524Y-126910238D02*
X174204762Y-126862619D01*
X174204762Y-126862619D02*
X174395238Y-126862619D01*
X174395238Y-126862619D02*
X174490476Y-126910238D01*
X174490476Y-126910238D02*
X174538095Y-126957857D01*
X174538095Y-126957857D02*
X174585714Y-127053095D01*
X174585714Y-127053095D02*
X174585714Y-127100714D01*
X174585714Y-127100714D02*
X174538095Y-127195952D01*
X174538095Y-127195952D02*
X174490476Y-127243571D01*
X174490476Y-127243571D02*
X174395238Y-127291190D01*
X174395238Y-127291190D02*
X174204762Y-127291190D01*
X174204762Y-127291190D02*
X174109524Y-127338809D01*
X174109524Y-127338809D02*
X174061905Y-127386428D01*
X174061905Y-127386428D02*
X174014286Y-127481666D01*
X174014286Y-127481666D02*
X174014286Y-127672142D01*
X174014286Y-127672142D02*
X174061905Y-127767380D01*
X174061905Y-127767380D02*
X174109524Y-127815000D01*
X174109524Y-127815000D02*
X174204762Y-127862619D01*
X174204762Y-127862619D02*
X174395238Y-127862619D01*
X174395238Y-127862619D02*
X174490476Y-127815000D01*
X174490476Y-127815000D02*
X174538095Y-127767380D01*
X174538095Y-127767380D02*
X174585714Y-127672142D01*
X174585714Y-127672142D02*
X174585714Y-127481666D01*
X174585714Y-127481666D02*
X174538095Y-127386428D01*
X174538095Y-127386428D02*
X174490476Y-127338809D01*
X174490476Y-127338809D02*
X174395238Y-127291190D01*
%TO.C,Q3*%
X145504761Y-108207857D02*
X145409523Y-108160238D01*
X145409523Y-108160238D02*
X145314285Y-108065000D01*
X145314285Y-108065000D02*
X145171428Y-107922142D01*
X145171428Y-107922142D02*
X145076190Y-107874523D01*
X145076190Y-107874523D02*
X144980952Y-107874523D01*
X145028571Y-108112619D02*
X144933333Y-108065000D01*
X144933333Y-108065000D02*
X144838095Y-107969761D01*
X144838095Y-107969761D02*
X144790476Y-107779285D01*
X144790476Y-107779285D02*
X144790476Y-107445952D01*
X144790476Y-107445952D02*
X144838095Y-107255476D01*
X144838095Y-107255476D02*
X144933333Y-107160238D01*
X144933333Y-107160238D02*
X145028571Y-107112619D01*
X145028571Y-107112619D02*
X145219047Y-107112619D01*
X145219047Y-107112619D02*
X145314285Y-107160238D01*
X145314285Y-107160238D02*
X145409523Y-107255476D01*
X145409523Y-107255476D02*
X145457142Y-107445952D01*
X145457142Y-107445952D02*
X145457142Y-107779285D01*
X145457142Y-107779285D02*
X145409523Y-107969761D01*
X145409523Y-107969761D02*
X145314285Y-108065000D01*
X145314285Y-108065000D02*
X145219047Y-108112619D01*
X145219047Y-108112619D02*
X145028571Y-108112619D01*
X145790476Y-107112619D02*
X146409523Y-107112619D01*
X146409523Y-107112619D02*
X146076190Y-107493571D01*
X146076190Y-107493571D02*
X146219047Y-107493571D01*
X146219047Y-107493571D02*
X146314285Y-107541190D01*
X146314285Y-107541190D02*
X146361904Y-107588809D01*
X146361904Y-107588809D02*
X146409523Y-107684047D01*
X146409523Y-107684047D02*
X146409523Y-107922142D01*
X146409523Y-107922142D02*
X146361904Y-108017380D01*
X146361904Y-108017380D02*
X146314285Y-108065000D01*
X146314285Y-108065000D02*
X146219047Y-108112619D01*
X146219047Y-108112619D02*
X145933333Y-108112619D01*
X145933333Y-108112619D02*
X145838095Y-108065000D01*
X145838095Y-108065000D02*
X145790476Y-108017380D01*
%TO.C,D3*%
X172061905Y-125462619D02*
X172061905Y-124462619D01*
X172061905Y-124462619D02*
X172300000Y-124462619D01*
X172300000Y-124462619D02*
X172442857Y-124510238D01*
X172442857Y-124510238D02*
X172538095Y-124605476D01*
X172538095Y-124605476D02*
X172585714Y-124700714D01*
X172585714Y-124700714D02*
X172633333Y-124891190D01*
X172633333Y-124891190D02*
X172633333Y-125034047D01*
X172633333Y-125034047D02*
X172585714Y-125224523D01*
X172585714Y-125224523D02*
X172538095Y-125319761D01*
X172538095Y-125319761D02*
X172442857Y-125415000D01*
X172442857Y-125415000D02*
X172300000Y-125462619D01*
X172300000Y-125462619D02*
X172061905Y-125462619D01*
X172966667Y-124462619D02*
X173585714Y-124462619D01*
X173585714Y-124462619D02*
X173252381Y-124843571D01*
X173252381Y-124843571D02*
X173395238Y-124843571D01*
X173395238Y-124843571D02*
X173490476Y-124891190D01*
X173490476Y-124891190D02*
X173538095Y-124938809D01*
X173538095Y-124938809D02*
X173585714Y-125034047D01*
X173585714Y-125034047D02*
X173585714Y-125272142D01*
X173585714Y-125272142D02*
X173538095Y-125367380D01*
X173538095Y-125367380D02*
X173490476Y-125415000D01*
X173490476Y-125415000D02*
X173395238Y-125462619D01*
X173395238Y-125462619D02*
X173109524Y-125462619D01*
X173109524Y-125462619D02*
X173014286Y-125415000D01*
X173014286Y-125415000D02*
X172966667Y-125367380D01*
%TO.C,D2*%
X173261905Y-130262619D02*
X173261905Y-129262619D01*
X173261905Y-129262619D02*
X173500000Y-129262619D01*
X173500000Y-129262619D02*
X173642857Y-129310238D01*
X173642857Y-129310238D02*
X173738095Y-129405476D01*
X173738095Y-129405476D02*
X173785714Y-129500714D01*
X173785714Y-129500714D02*
X173833333Y-129691190D01*
X173833333Y-129691190D02*
X173833333Y-129834047D01*
X173833333Y-129834047D02*
X173785714Y-130024523D01*
X173785714Y-130024523D02*
X173738095Y-130119761D01*
X173738095Y-130119761D02*
X173642857Y-130215000D01*
X173642857Y-130215000D02*
X173500000Y-130262619D01*
X173500000Y-130262619D02*
X173261905Y-130262619D01*
X174214286Y-129357857D02*
X174261905Y-129310238D01*
X174261905Y-129310238D02*
X174357143Y-129262619D01*
X174357143Y-129262619D02*
X174595238Y-129262619D01*
X174595238Y-129262619D02*
X174690476Y-129310238D01*
X174690476Y-129310238D02*
X174738095Y-129357857D01*
X174738095Y-129357857D02*
X174785714Y-129453095D01*
X174785714Y-129453095D02*
X174785714Y-129548333D01*
X174785714Y-129548333D02*
X174738095Y-129691190D01*
X174738095Y-129691190D02*
X174166667Y-130262619D01*
X174166667Y-130262619D02*
X174785714Y-130262619D01*
%TO.C,C2*%
X164758333Y-116917380D02*
X164710714Y-116965000D01*
X164710714Y-116965000D02*
X164567857Y-117012619D01*
X164567857Y-117012619D02*
X164472619Y-117012619D01*
X164472619Y-117012619D02*
X164329762Y-116965000D01*
X164329762Y-116965000D02*
X164234524Y-116869761D01*
X164234524Y-116869761D02*
X164186905Y-116774523D01*
X164186905Y-116774523D02*
X164139286Y-116584047D01*
X164139286Y-116584047D02*
X164139286Y-116441190D01*
X164139286Y-116441190D02*
X164186905Y-116250714D01*
X164186905Y-116250714D02*
X164234524Y-116155476D01*
X164234524Y-116155476D02*
X164329762Y-116060238D01*
X164329762Y-116060238D02*
X164472619Y-116012619D01*
X164472619Y-116012619D02*
X164567857Y-116012619D01*
X164567857Y-116012619D02*
X164710714Y-116060238D01*
X164710714Y-116060238D02*
X164758333Y-116107857D01*
X165139286Y-116107857D02*
X165186905Y-116060238D01*
X165186905Y-116060238D02*
X165282143Y-116012619D01*
X165282143Y-116012619D02*
X165520238Y-116012619D01*
X165520238Y-116012619D02*
X165615476Y-116060238D01*
X165615476Y-116060238D02*
X165663095Y-116107857D01*
X165663095Y-116107857D02*
X165710714Y-116203095D01*
X165710714Y-116203095D02*
X165710714Y-116298333D01*
X165710714Y-116298333D02*
X165663095Y-116441190D01*
X165663095Y-116441190D02*
X165091667Y-117012619D01*
X165091667Y-117012619D02*
X165710714Y-117012619D01*
%TO.C,Q6*%
X170307857Y-118595238D02*
X170260238Y-118690476D01*
X170260238Y-118690476D02*
X170165000Y-118785714D01*
X170165000Y-118785714D02*
X170022142Y-118928571D01*
X170022142Y-118928571D02*
X169974523Y-119023809D01*
X169974523Y-119023809D02*
X169974523Y-119119047D01*
X170212619Y-119071428D02*
X170165000Y-119166666D01*
X170165000Y-119166666D02*
X170069761Y-119261904D01*
X170069761Y-119261904D02*
X169879285Y-119309523D01*
X169879285Y-119309523D02*
X169545952Y-119309523D01*
X169545952Y-119309523D02*
X169355476Y-119261904D01*
X169355476Y-119261904D02*
X169260238Y-119166666D01*
X169260238Y-119166666D02*
X169212619Y-119071428D01*
X169212619Y-119071428D02*
X169212619Y-118880952D01*
X169212619Y-118880952D02*
X169260238Y-118785714D01*
X169260238Y-118785714D02*
X169355476Y-118690476D01*
X169355476Y-118690476D02*
X169545952Y-118642857D01*
X169545952Y-118642857D02*
X169879285Y-118642857D01*
X169879285Y-118642857D02*
X170069761Y-118690476D01*
X170069761Y-118690476D02*
X170165000Y-118785714D01*
X170165000Y-118785714D02*
X170212619Y-118880952D01*
X170212619Y-118880952D02*
X170212619Y-119071428D01*
X169212619Y-117785714D02*
X169212619Y-117976190D01*
X169212619Y-117976190D02*
X169260238Y-118071428D01*
X169260238Y-118071428D02*
X169307857Y-118119047D01*
X169307857Y-118119047D02*
X169450714Y-118214285D01*
X169450714Y-118214285D02*
X169641190Y-118261904D01*
X169641190Y-118261904D02*
X170022142Y-118261904D01*
X170022142Y-118261904D02*
X170117380Y-118214285D01*
X170117380Y-118214285D02*
X170165000Y-118166666D01*
X170165000Y-118166666D02*
X170212619Y-118071428D01*
X170212619Y-118071428D02*
X170212619Y-117880952D01*
X170212619Y-117880952D02*
X170165000Y-117785714D01*
X170165000Y-117785714D02*
X170117380Y-117738095D01*
X170117380Y-117738095D02*
X170022142Y-117690476D01*
X170022142Y-117690476D02*
X169784047Y-117690476D01*
X169784047Y-117690476D02*
X169688809Y-117738095D01*
X169688809Y-117738095D02*
X169641190Y-117785714D01*
X169641190Y-117785714D02*
X169593571Y-117880952D01*
X169593571Y-117880952D02*
X169593571Y-118071428D01*
X169593571Y-118071428D02*
X169641190Y-118166666D01*
X169641190Y-118166666D02*
X169688809Y-118214285D01*
X169688809Y-118214285D02*
X169784047Y-118261904D01*
%TO.C,R1*%
X147233333Y-119062619D02*
X146900000Y-118586428D01*
X146661905Y-119062619D02*
X146661905Y-118062619D01*
X146661905Y-118062619D02*
X147042857Y-118062619D01*
X147042857Y-118062619D02*
X147138095Y-118110238D01*
X147138095Y-118110238D02*
X147185714Y-118157857D01*
X147185714Y-118157857D02*
X147233333Y-118253095D01*
X147233333Y-118253095D02*
X147233333Y-118395952D01*
X147233333Y-118395952D02*
X147185714Y-118491190D01*
X147185714Y-118491190D02*
X147138095Y-118538809D01*
X147138095Y-118538809D02*
X147042857Y-118586428D01*
X147042857Y-118586428D02*
X146661905Y-118586428D01*
X148185714Y-119062619D02*
X147614286Y-119062619D01*
X147900000Y-119062619D02*
X147900000Y-118062619D01*
X147900000Y-118062619D02*
X147804762Y-118205476D01*
X147804762Y-118205476D02*
X147709524Y-118300714D01*
X147709524Y-118300714D02*
X147614286Y-118348333D01*
%TO.C,Q1*%
X145367261Y-113632857D02*
X145272023Y-113585238D01*
X145272023Y-113585238D02*
X145176785Y-113490000D01*
X145176785Y-113490000D02*
X145033928Y-113347142D01*
X145033928Y-113347142D02*
X144938690Y-113299523D01*
X144938690Y-113299523D02*
X144843452Y-113299523D01*
X144891071Y-113537619D02*
X144795833Y-113490000D01*
X144795833Y-113490000D02*
X144700595Y-113394761D01*
X144700595Y-113394761D02*
X144652976Y-113204285D01*
X144652976Y-113204285D02*
X144652976Y-112870952D01*
X144652976Y-112870952D02*
X144700595Y-112680476D01*
X144700595Y-112680476D02*
X144795833Y-112585238D01*
X144795833Y-112585238D02*
X144891071Y-112537619D01*
X144891071Y-112537619D02*
X145081547Y-112537619D01*
X145081547Y-112537619D02*
X145176785Y-112585238D01*
X145176785Y-112585238D02*
X145272023Y-112680476D01*
X145272023Y-112680476D02*
X145319642Y-112870952D01*
X145319642Y-112870952D02*
X145319642Y-113204285D01*
X145319642Y-113204285D02*
X145272023Y-113394761D01*
X145272023Y-113394761D02*
X145176785Y-113490000D01*
X145176785Y-113490000D02*
X145081547Y-113537619D01*
X145081547Y-113537619D02*
X144891071Y-113537619D01*
X146272023Y-113537619D02*
X145700595Y-113537619D01*
X145986309Y-113537619D02*
X145986309Y-112537619D01*
X145986309Y-112537619D02*
X145891071Y-112680476D01*
X145891071Y-112680476D02*
X145795833Y-112775714D01*
X145795833Y-112775714D02*
X145700595Y-112823333D01*
%TO.C,R6*%
X144432619Y-104766666D02*
X143956428Y-105099999D01*
X144432619Y-105338094D02*
X143432619Y-105338094D01*
X143432619Y-105338094D02*
X143432619Y-104957142D01*
X143432619Y-104957142D02*
X143480238Y-104861904D01*
X143480238Y-104861904D02*
X143527857Y-104814285D01*
X143527857Y-104814285D02*
X143623095Y-104766666D01*
X143623095Y-104766666D02*
X143765952Y-104766666D01*
X143765952Y-104766666D02*
X143861190Y-104814285D01*
X143861190Y-104814285D02*
X143908809Y-104861904D01*
X143908809Y-104861904D02*
X143956428Y-104957142D01*
X143956428Y-104957142D02*
X143956428Y-105338094D01*
X143432619Y-103909523D02*
X143432619Y-104099999D01*
X143432619Y-104099999D02*
X143480238Y-104195237D01*
X143480238Y-104195237D02*
X143527857Y-104242856D01*
X143527857Y-104242856D02*
X143670714Y-104338094D01*
X143670714Y-104338094D02*
X143861190Y-104385713D01*
X143861190Y-104385713D02*
X144242142Y-104385713D01*
X144242142Y-104385713D02*
X144337380Y-104338094D01*
X144337380Y-104338094D02*
X144385000Y-104290475D01*
X144385000Y-104290475D02*
X144432619Y-104195237D01*
X144432619Y-104195237D02*
X144432619Y-104004761D01*
X144432619Y-104004761D02*
X144385000Y-103909523D01*
X144385000Y-103909523D02*
X144337380Y-103861904D01*
X144337380Y-103861904D02*
X144242142Y-103814285D01*
X144242142Y-103814285D02*
X144004047Y-103814285D01*
X144004047Y-103814285D02*
X143908809Y-103861904D01*
X143908809Y-103861904D02*
X143861190Y-103909523D01*
X143861190Y-103909523D02*
X143813571Y-104004761D01*
X143813571Y-104004761D02*
X143813571Y-104195237D01*
X143813571Y-104195237D02*
X143861190Y-104290475D01*
X143861190Y-104290475D02*
X143908809Y-104338094D01*
X143908809Y-104338094D02*
X144004047Y-104385713D01*
%TO.C,C1*%
X152767380Y-108966666D02*
X152815000Y-109014285D01*
X152815000Y-109014285D02*
X152862619Y-109157142D01*
X152862619Y-109157142D02*
X152862619Y-109252380D01*
X152862619Y-109252380D02*
X152815000Y-109395237D01*
X152815000Y-109395237D02*
X152719761Y-109490475D01*
X152719761Y-109490475D02*
X152624523Y-109538094D01*
X152624523Y-109538094D02*
X152434047Y-109585713D01*
X152434047Y-109585713D02*
X152291190Y-109585713D01*
X152291190Y-109585713D02*
X152100714Y-109538094D01*
X152100714Y-109538094D02*
X152005476Y-109490475D01*
X152005476Y-109490475D02*
X151910238Y-109395237D01*
X151910238Y-109395237D02*
X151862619Y-109252380D01*
X151862619Y-109252380D02*
X151862619Y-109157142D01*
X151862619Y-109157142D02*
X151910238Y-109014285D01*
X151910238Y-109014285D02*
X151957857Y-108966666D01*
X152862619Y-108014285D02*
X152862619Y-108585713D01*
X152862619Y-108299999D02*
X151862619Y-108299999D01*
X151862619Y-108299999D02*
X152005476Y-108395237D01*
X152005476Y-108395237D02*
X152100714Y-108490475D01*
X152100714Y-108490475D02*
X152148333Y-108585713D01*
%TO.C,R4*%
X152662619Y-118566666D02*
X152186428Y-118899999D01*
X152662619Y-119138094D02*
X151662619Y-119138094D01*
X151662619Y-119138094D02*
X151662619Y-118757142D01*
X151662619Y-118757142D02*
X151710238Y-118661904D01*
X151710238Y-118661904D02*
X151757857Y-118614285D01*
X151757857Y-118614285D02*
X151853095Y-118566666D01*
X151853095Y-118566666D02*
X151995952Y-118566666D01*
X151995952Y-118566666D02*
X152091190Y-118614285D01*
X152091190Y-118614285D02*
X152138809Y-118661904D01*
X152138809Y-118661904D02*
X152186428Y-118757142D01*
X152186428Y-118757142D02*
X152186428Y-119138094D01*
X151995952Y-117709523D02*
X152662619Y-117709523D01*
X151615000Y-117947618D02*
X152329285Y-118185713D01*
X152329285Y-118185713D02*
X152329285Y-117566666D01*
%TO.C,C3*%
X167833333Y-106887380D02*
X167785714Y-106935000D01*
X167785714Y-106935000D02*
X167642857Y-106982619D01*
X167642857Y-106982619D02*
X167547619Y-106982619D01*
X167547619Y-106982619D02*
X167404762Y-106935000D01*
X167404762Y-106935000D02*
X167309524Y-106839761D01*
X167309524Y-106839761D02*
X167261905Y-106744523D01*
X167261905Y-106744523D02*
X167214286Y-106554047D01*
X167214286Y-106554047D02*
X167214286Y-106411190D01*
X167214286Y-106411190D02*
X167261905Y-106220714D01*
X167261905Y-106220714D02*
X167309524Y-106125476D01*
X167309524Y-106125476D02*
X167404762Y-106030238D01*
X167404762Y-106030238D02*
X167547619Y-105982619D01*
X167547619Y-105982619D02*
X167642857Y-105982619D01*
X167642857Y-105982619D02*
X167785714Y-106030238D01*
X167785714Y-106030238D02*
X167833333Y-106077857D01*
X168166667Y-105982619D02*
X168785714Y-105982619D01*
X168785714Y-105982619D02*
X168452381Y-106363571D01*
X168452381Y-106363571D02*
X168595238Y-106363571D01*
X168595238Y-106363571D02*
X168690476Y-106411190D01*
X168690476Y-106411190D02*
X168738095Y-106458809D01*
X168738095Y-106458809D02*
X168785714Y-106554047D01*
X168785714Y-106554047D02*
X168785714Y-106792142D01*
X168785714Y-106792142D02*
X168738095Y-106887380D01*
X168738095Y-106887380D02*
X168690476Y-106935000D01*
X168690476Y-106935000D02*
X168595238Y-106982619D01*
X168595238Y-106982619D02*
X168309524Y-106982619D01*
X168309524Y-106982619D02*
X168214286Y-106935000D01*
X168214286Y-106935000D02*
X168166667Y-106887380D01*
D12*
%TO.C,D1*%
X146360000Y-99515000D02*
X144440000Y-99515000D01*
X144440000Y-99515000D02*
X144440000Y-102200000D01*
X146360000Y-102200000D02*
X146360000Y-99515000D01*
%TO.C,J3*%
X174330000Y-111330000D02*
X173000000Y-111330000D01*
X174330000Y-110000000D02*
X174330000Y-111330000D01*
X174330000Y-108730000D02*
X174330000Y-98510000D01*
X174330000Y-108730000D02*
X171670000Y-108730000D01*
X174330000Y-98510000D02*
X171670000Y-98510000D01*
X171670000Y-108730000D02*
X171670000Y-98510000D01*
%TO.C,Q5*%
X168537500Y-113590000D02*
X166862500Y-113590000D01*
X168537500Y-113590000D02*
X169187500Y-113590000D01*
X168537500Y-116710000D02*
X167887500Y-116710000D01*
X168537500Y-116710000D02*
X169187500Y-116710000D01*
%TO.C,R5*%
X148922500Y-110337742D02*
X148922500Y-110812258D01*
X147877500Y-110337742D02*
X147877500Y-110812258D01*
%TO.C,R3*%
X150077500Y-116062258D02*
X150077500Y-115587742D01*
X151122500Y-116062258D02*
X151122500Y-115587742D01*
%TO.C,R7*%
X148922500Y-107237742D02*
X148922500Y-107712258D01*
X147877500Y-107237742D02*
X147877500Y-107712258D01*
%TO.C,J1*%
X170305000Y-93140000D02*
X170305000Y-92400000D01*
X170305000Y-92400000D02*
X169805000Y-92400000D01*
X170065000Y-103960000D02*
X170065000Y-92640000D01*
X170065000Y-103960000D02*
X159785000Y-103960000D01*
X170065000Y-101900000D02*
X159785000Y-101900000D01*
X170065000Y-95700000D02*
X159785000Y-95700000D01*
X170065000Y-93200000D02*
X159785000Y-93200000D01*
X170065000Y-92640000D02*
X159785000Y-92640000D01*
X169013000Y-96719000D02*
X169119000Y-96612000D01*
X168747000Y-96453000D02*
X168853000Y-96346000D01*
X166077000Y-99654000D02*
X166184000Y-99547000D01*
X165811000Y-99388000D02*
X165918000Y-99281000D01*
X163643000Y-97008000D02*
X164038000Y-96612000D01*
X163392000Y-96726000D02*
X163772000Y-96346000D01*
X160997000Y-99654000D02*
X161377000Y-99274000D01*
X160731000Y-99388000D02*
X161126000Y-98992000D01*
X159785000Y-103960000D02*
X159785000Y-92640000D01*
X169645000Y-98000000D02*
G75*
G03*
X169645000Y-98000000I-2180000J0D01*
G01*
X164565000Y-98000000D02*
G75*
G03*
X164565000Y-98000000I-2180000J0D01*
G01*
%TO.C,Q4*%
X171175000Y-131040000D02*
X169500000Y-131040000D01*
X171175000Y-131040000D02*
X171825000Y-131040000D01*
X171175000Y-134160000D02*
X170525000Y-134160000D01*
X171175000Y-134160000D02*
X171825000Y-134160000D01*
%TO.C,R9*%
X172060000Y-113887742D02*
X172060000Y-114362258D01*
X171015000Y-113887742D02*
X171015000Y-114362258D01*
%TO.C,C4*%
X167538748Y-109590000D02*
X168961252Y-109590000D01*
X167538748Y-111410000D02*
X168961252Y-111410000D01*
%TO.C,C5*%
X166250000Y-113010000D02*
X165000000Y-113010000D01*
X165625000Y-113635000D02*
X165625000Y-112385000D01*
X164760000Y-114445563D02*
X164760000Y-111760000D01*
X164760000Y-114445563D02*
X163695563Y-115510000D01*
X164760000Y-106054437D02*
X164760000Y-108740000D01*
X164760000Y-106054437D02*
X163695563Y-104990000D01*
X163695563Y-115510000D02*
X154240000Y-115510000D01*
X163695563Y-104990000D02*
X154240000Y-104990000D01*
X154240000Y-115510000D02*
X154240000Y-111760000D01*
X154240000Y-104990000D02*
X154240000Y-108740000D01*
%TO.C,R2*%
X149522500Y-115562742D02*
X149522500Y-116037258D01*
X148477500Y-115562742D02*
X148477500Y-116037258D01*
%TO.C,R11*%
X171437258Y-121522500D02*
X170962742Y-121522500D01*
X171437258Y-120477500D02*
X170962742Y-120477500D01*
%TO.C,R8*%
X171549758Y-127922500D02*
X171075242Y-127922500D01*
X171549758Y-126877500D02*
X171075242Y-126877500D01*
%TO.C,Q3*%
X145600000Y-108490000D02*
X143925000Y-108490000D01*
X145600000Y-108490000D02*
X146250000Y-108490000D01*
X145600000Y-111610000D02*
X144950000Y-111610000D01*
X145600000Y-111610000D02*
X146250000Y-111610000D01*
%TO.C,D3*%
X172885000Y-124160000D02*
X172885000Y-122240000D01*
X172885000Y-122240000D02*
X170200000Y-122240000D01*
X170200000Y-124160000D02*
X172885000Y-124160000D01*
%TO.C,J2*%
X158385000Y-93140000D02*
X158385000Y-92400000D01*
X158385000Y-92400000D02*
X157885000Y-92400000D01*
X158145000Y-103960000D02*
X158145000Y-92640000D01*
X158145000Y-103960000D02*
X147865000Y-103960000D01*
X158145000Y-101900000D02*
X147865000Y-101900000D01*
X158145000Y-95700000D02*
X147865000Y-95700000D01*
X158145000Y-93200000D02*
X147865000Y-93200000D01*
X158145000Y-92640000D02*
X147865000Y-92640000D01*
X157093000Y-96719000D02*
X157199000Y-96612000D01*
X156827000Y-96453000D02*
X156933000Y-96346000D01*
X154157000Y-99654000D02*
X154264000Y-99547000D01*
X153891000Y-99388000D02*
X153998000Y-99281000D01*
X151723000Y-97008000D02*
X152118000Y-96612000D01*
X151472000Y-96726000D02*
X151852000Y-96346000D01*
X149077000Y-99654000D02*
X149457000Y-99274000D01*
X148811000Y-99388000D02*
X149206000Y-98992000D01*
X147865000Y-103960000D02*
X147865000Y-92640000D01*
X157725000Y-98000000D02*
G75*
G03*
X157725000Y-98000000I-2180000J0D01*
G01*
X152645000Y-98000000D02*
G75*
G03*
X152645000Y-98000000I-2180000J0D01*
G01*
%TO.C,D2*%
X173085000Y-130560000D02*
X173085000Y-128640000D01*
X173085000Y-128640000D02*
X170400000Y-128640000D01*
X170400000Y-130560000D02*
X173085000Y-130560000D01*
%TO.C,C2*%
X164213748Y-117490000D02*
X165636252Y-117490000D01*
X164213748Y-119310000D02*
X165636252Y-119310000D01*
%TO.C,Q6*%
X172600000Y-115990000D02*
X170925000Y-115990000D01*
X172600000Y-115990000D02*
X173250000Y-115990000D01*
X172600000Y-119110000D02*
X171950000Y-119110000D01*
X172600000Y-119110000D02*
X173250000Y-119110000D01*
%TO.C,R1*%
X150037258Y-118747500D02*
X149562742Y-118747500D01*
X150037258Y-117702500D02*
X149562742Y-117702500D01*
%TO.C,Q1*%
X146262500Y-114265000D02*
X144587500Y-114265000D01*
X146262500Y-114265000D02*
X146912500Y-114265000D01*
X146262500Y-117385000D02*
X145612500Y-117385000D01*
X146262500Y-117385000D02*
X146912500Y-117385000D01*
%TO.C,R6*%
X144877500Y-104837258D02*
X144877500Y-104362742D01*
X145922500Y-104837258D02*
X145922500Y-104362742D01*
%TO.C,C1*%
X152935000Y-111538748D02*
X152935000Y-112061252D01*
X151465000Y-111538748D02*
X151465000Y-112061252D01*
%TO.C,R4*%
X151677500Y-116037258D02*
X151677500Y-115562742D01*
X152722500Y-116037258D02*
X152722500Y-115562742D01*
%TO.C,C3*%
X167738748Y-107465000D02*
X168261252Y-107465000D01*
X167738748Y-108935000D02*
X168261252Y-108935000D01*
%TD*%
M02*
