M48
; DRILL file {KiCad 7.0.1} date Thu Jun 22 21:15:47 2023
; FORMAT={-:-/ absolute / inch / decimal}
; #@! TF.CreationDate,2023-06-22T21:15:47-04:00
; #@! TF.GenerationSoftware,Kicad,Pcbnew,7.0.1
; #@! TF.FileFunction,MixedPlating,1,2
FMAT,2
INCH
; #@! TA.AperFunction,Plated,PTH,ViaDrill
T1C0.0157
; #@! TA.AperFunction,Plated,PTH,ComponentDrill
T2C0.0157
; #@! TA.AperFunction,Plated,PTH,ComponentDrill
T3C0.0394
; #@! TA.AperFunction,Plated,PTH,ComponentDrill
T4C0.0472
; #@! TA.AperFunction,Plated,PTH,ComponentDrill
T5C0.0512
; #@! TA.AperFunction,NonPlated,NPTH,ComponentDrill
T6C0.1063
; #@! TA.AperFunction,NonPlated,NPTH,ComponentDrill
T7C0.1378
%
G90
G05
T1
X5.6693Y-4.5177
X5.7087Y-3.6614
X5.7087Y-3.7402
X5.7087Y-4.8819
X5.7087Y-4.9606
X5.7087Y-5.0394
X5.7087Y-5.1181
X5.7579Y-4.2028
X5.7874Y-4.8819
X5.7874Y-4.9606
X5.7874Y-5.0394
X5.7874Y-5.1181
X5.8661Y-4.0157
X5.8661Y-4.0945
X5.8858Y-4.3307
X5.9449Y-4.0157
X5.9449Y-4.0945
X6.0236Y-4.0157
X6.378Y-4.1732
X6.4567Y-4.0945
X6.4567Y-4.1732
X6.4567Y-4.252
X6.4961Y-4.5571
X6.5Y-4.6535
X6.5197Y-4.4567
X6.5354Y-4.0945
X6.5354Y-4.1732
X6.6142Y-4.0945
X6.6142Y-4.1732
X6.6535Y-4.6063
X6.6929Y-4.0945
X6.6929Y-4.1732
X6.7082Y-4.6082
X6.7323Y-3.7402
X6.7323Y-3.8189
X6.7323Y-3.8976
X6.7913Y-4.7146
X6.811Y-3.6614
X6.811Y-3.7402
X6.811Y-3.8189
X6.8583Y-4.8346
T2
X5.9154Y-4.9508
X5.9154Y-5.0295
X5.9154Y-5.1083
X5.9154Y-5.187
X5.9154Y-5.2657
X5.9154Y-5.3445
X5.9154Y-5.4232
X5.9941Y-4.9508
X5.9941Y-5.0295
X5.9941Y-5.1083
X5.9941Y-5.187
X5.9941Y-5.2657
X5.9941Y-5.3445
X5.9941Y-5.4232
X6.0728Y-4.9508
X6.0728Y-5.0295
X6.0728Y-5.1083
X6.0728Y-5.187
X6.0728Y-5.2657
X6.0728Y-5.3445
X6.0728Y-5.4232
X6.1516Y-4.9508
X6.1516Y-5.0295
X6.1516Y-5.1083
X6.1516Y-5.4232
X6.2303Y-4.9508
X6.2303Y-5.0295
X6.2303Y-5.1083
X6.2303Y-5.4232
X6.3091Y-4.9508
X6.3091Y-5.0295
X6.3091Y-5.1083
X6.3091Y-5.4232
X6.3878Y-4.9508
X6.3878Y-5.0295
X6.3878Y-5.1083
X6.3878Y-5.187
X6.3878Y-5.2657
X6.3878Y-5.3445
X6.3878Y-5.4232
X6.4665Y-4.9508
X6.4665Y-5.0295
X6.4665Y-5.1083
X6.4665Y-5.187
X6.4665Y-5.2657
X6.4665Y-5.3445
X6.4665Y-5.4232
X6.5453Y-4.9508
X6.5453Y-5.0295
X6.5453Y-5.1083
X6.5453Y-5.187
X6.5453Y-5.2657
X6.5453Y-5.3445
X6.5453Y-5.4232
T3
X6.811Y-3.9307
X6.811Y-4.0307
X6.811Y-4.1307
X6.811Y-4.2307
X6.811Y-4.3307
T4
X6.1303Y-4.624
X6.2303Y-4.624
X6.3303Y-4.624
T5
X5.9238Y-3.8583
X6.1238Y-3.8583
X6.3931Y-3.8583
X6.5931Y-3.8583
T6
X5.7283Y-5.4134
X6.7913Y-5.4134
T7
X6.2303Y-5.2461
T0
M30
