%TF.GenerationSoftware,KiCad,Pcbnew,(6.0.0)*%
%TF.CreationDate,2022-01-20T20:45:04-08:00*%
%TF.ProjectId,dish-controller,64697368-2d63-46f6-9e74-726f6c6c6572,rev?*%
%TF.SameCoordinates,Original*%
%TF.FileFunction,Soldermask,Bot*%
%TF.FilePolarity,Negative*%
%FSLAX46Y46*%
G04 Gerber Fmt 4.6, Leading zero omitted, Abs format (unit mm)*
G04 Created by KiCad (PCBNEW (6.0.0)) date 2022-01-20 20:45:04*
%MOMM*%
%LPD*%
G01*
G04 APERTURE LIST*
G04 Aperture macros list*
%AMRoundRect*
0 Rectangle with rounded corners*
0 $1 Rounding radius*
0 $2 $3 $4 $5 $6 $7 $8 $9 X,Y pos of 4 corners*
0 Add a 4 corners polygon primitive as box body*
4,1,4,$2,$3,$4,$5,$6,$7,$8,$9,$2,$3,0*
0 Add four circle primitives for the rounded corners*
1,1,$1+$1,$2,$3*
1,1,$1+$1,$4,$5*
1,1,$1+$1,$6,$7*
1,1,$1+$1,$8,$9*
0 Add four rect primitives between the rounded corners*
20,1,$1+$1,$2,$3,$4,$5,0*
20,1,$1+$1,$4,$5,$6,$7,0*
20,1,$1+$1,$6,$7,$8,$9,0*
20,1,$1+$1,$8,$9,$2,$3,0*%
G04 Aperture macros list end*
%ADD10R,1.700000X1.700000*%
%ADD11O,1.700000X1.700000*%
%ADD12C,5.700000*%
%ADD13C,1.700000*%
%ADD14C,3.200000*%
%ADD15C,1.500000*%
%ADD16R,2.600000X2.600000*%
%ADD17C,2.600000*%
%ADD18C,1.000000*%
%ADD19RoundRect,0.250001X0.499999X0.499999X-0.499999X0.499999X-0.499999X-0.499999X0.499999X-0.499999X0*%
%ADD20R,1.600000X1.600000*%
%ADD21C,1.600000*%
%ADD22C,2.000000*%
G04 APERTURE END LIST*
D10*
%TO.C,J7*%
X105425000Y-104000000D03*
D11*
X107965000Y-104000000D03*
X110505000Y-104000000D03*
X113045000Y-104000000D03*
X115585000Y-104000000D03*
%TD*%
D12*
%TO.C,U1*%
X150050000Y-46530000D03*
X92050000Y-46530000D03*
X150050000Y-95530000D03*
X92050000Y-95530000D03*
D13*
X96920000Y-94260000D03*
X96920000Y-96800000D03*
X99460000Y-94260000D03*
X99460000Y-96800000D03*
X102000000Y-94260000D03*
X102000000Y-96800000D03*
X104540000Y-94260000D03*
X104540000Y-96800000D03*
X107080000Y-94260000D03*
X107080000Y-96800000D03*
X109620000Y-94260000D03*
X109620000Y-96800000D03*
X112160000Y-94260000D03*
X112160000Y-96800000D03*
X114700000Y-94260000D03*
X114700000Y-96800000D03*
X117240000Y-94260000D03*
X117240000Y-96800000D03*
X119780000Y-94260000D03*
X119780000Y-96800000D03*
X122320000Y-94260000D03*
X122320000Y-96800000D03*
X124860000Y-94260000D03*
X124860000Y-96800000D03*
X127400000Y-94260000D03*
X127400000Y-96800000D03*
X129940000Y-94260000D03*
X129940000Y-96800000D03*
X132480000Y-94260000D03*
X132480000Y-96800000D03*
X135020000Y-94260000D03*
X135020000Y-96800000D03*
X137560000Y-94260000D03*
X137560000Y-96800000D03*
X140100000Y-94260000D03*
X140100000Y-96800000D03*
X142640000Y-94260000D03*
X142640000Y-96800000D03*
X145180000Y-94260000D03*
X145180000Y-96800000D03*
%TD*%
D14*
%TO.C,H1*%
X41000000Y-75000000D03*
%TD*%
D15*
%TO.C,U4*%
X49000000Y-67500000D03*
X50000000Y-63500000D03*
X51000000Y-67500000D03*
X52000000Y-63500000D03*
X53000000Y-67500000D03*
X54000000Y-63500000D03*
X55000000Y-67500000D03*
X56000000Y-63500000D03*
X57000000Y-67500000D03*
X58000000Y-63500000D03*
X59000000Y-67500000D03*
X60000000Y-63500000D03*
X61000000Y-67500000D03*
X62000000Y-63500000D03*
X63000000Y-67500000D03*
X64000000Y-63500000D03*
X65000000Y-67500000D03*
X66000000Y-63500000D03*
X67000000Y-67500000D03*
X68000000Y-63500000D03*
X69000000Y-67500000D03*
X70000000Y-63500000D03*
X71000000Y-67500000D03*
X72000000Y-63500000D03*
X73000000Y-67500000D03*
%TD*%
%TO.C,U3*%
X49000000Y-92000000D03*
X50000000Y-88000000D03*
X51000000Y-92000000D03*
X52000000Y-88000000D03*
X53000000Y-92000000D03*
X54000000Y-88000000D03*
X55000000Y-92000000D03*
X56000000Y-88000000D03*
X57000000Y-92000000D03*
X58000000Y-88000000D03*
X59000000Y-92000000D03*
X60000000Y-88000000D03*
X61000000Y-92000000D03*
X62000000Y-88000000D03*
X63000000Y-92000000D03*
X64000000Y-88000000D03*
X65000000Y-92000000D03*
X66000000Y-88000000D03*
X67000000Y-92000000D03*
X68000000Y-88000000D03*
X69000000Y-92000000D03*
X70000000Y-88000000D03*
X71000000Y-92000000D03*
X72000000Y-88000000D03*
X73000000Y-92000000D03*
%TD*%
D16*
%TO.C,J6*%
X26700000Y-58460000D03*
D17*
X26700000Y-63540000D03*
%TD*%
D16*
%TO.C,J5*%
X26700000Y-86460000D03*
D17*
X26700000Y-91540000D03*
%TD*%
D18*
%TO.C,J4*%
X40000000Y-45560000D03*
X25000000Y-45560000D03*
D19*
X37000000Y-49500000D03*
D15*
X34000000Y-49500000D03*
X31000000Y-49500000D03*
X28000000Y-49500000D03*
X37000000Y-46500000D03*
X34000000Y-46500000D03*
X31000000Y-46500000D03*
X28000000Y-46500000D03*
%TD*%
D18*
%TO.C,J3*%
X40000000Y-100520000D03*
X25000000Y-100520000D03*
D19*
X37000000Y-104460000D03*
D15*
X34000000Y-104460000D03*
X31000000Y-104460000D03*
X28000000Y-104460000D03*
X37000000Y-101460000D03*
X34000000Y-101460000D03*
X31000000Y-101460000D03*
X28000000Y-101460000D03*
%TD*%
D16*
%TO.C,J2*%
X81000000Y-106000000D03*
D17*
X81000000Y-100920000D03*
%TD*%
D16*
%TO.C,J1*%
X52300000Y-106545000D03*
D17*
X52300000Y-101465000D03*
%TD*%
D20*
%TO.C,C3*%
X81000000Y-60347349D03*
D21*
X81000000Y-63847349D03*
%TD*%
D20*
%TO.C,C2*%
X137000000Y-105652651D03*
D21*
X137000000Y-102152651D03*
%TD*%
%TO.C,C1*%
X81500000Y-88347349D03*
D20*
X81500000Y-84847349D03*
%TD*%
D22*
%TO.C,TP3*%
X119500000Y-89770000D03*
X119500000Y-87230000D03*
%TD*%
%TO.C,TP1*%
X41000000Y-96000000D03*
X38460000Y-96000000D03*
%TD*%
%TO.C,TP5*%
X126500000Y-89770000D03*
X126500000Y-87230000D03*
%TD*%
%TO.C,TP8*%
X130000000Y-89770000D03*
X130000000Y-87230000D03*
%TD*%
%TO.C,TP2*%
X57230000Y-96000000D03*
X59770000Y-96000000D03*
%TD*%
%TO.C,TP4*%
X123000000Y-89770000D03*
X123000000Y-87230000D03*
%TD*%
%TO.C,TP7*%
X64270000Y-49500000D03*
X61730000Y-49500000D03*
%TD*%
%TO.C,TP6*%
X56270000Y-49500000D03*
X53730000Y-49500000D03*
%TD*%
%TO.C,TP9*%
X133500000Y-89770000D03*
X133500000Y-87230000D03*
%TD*%
M02*
