%TF.GenerationSoftware,KiCad,Pcbnew,(6.0.0)*%
%TF.CreationDate,2022-01-20T20:45:04-08:00*%
%TF.ProjectId,dish-controller,64697368-2d63-46f6-9e74-726f6c6c6572,rev?*%
%TF.SameCoordinates,Original*%
%TF.FileFunction,Paste,Top*%
%TF.FilePolarity,Positive*%
%FSLAX46Y46*%
G04 Gerber Fmt 4.6, Leading zero omitted, Abs format (unit mm)*
G04 Created by KiCad (PCBNEW (6.0.0)) date 2022-01-20 20:45:04*
%MOMM*%
%LPD*%
G01*
G04 APERTURE LIST*
G04 Aperture macros list*
%AMRoundRect*
0 Rectangle with rounded corners*
0 $1 Rounding radius*
0 $2 $3 $4 $5 $6 $7 $8 $9 X,Y pos of 4 corners*
0 Add a 4 corners polygon primitive as box body*
4,1,4,$2,$3,$4,$5,$6,$7,$8,$9,$2,$3,0*
0 Add four circle primitives for the rounded corners*
1,1,$1+$1,$2,$3*
1,1,$1+$1,$4,$5*
1,1,$1+$1,$6,$7*
1,1,$1+$1,$8,$9*
0 Add four rect primitives between the rounded corners*
20,1,$1+$1,$2,$3,$4,$5,0*
20,1,$1+$1,$4,$5,$6,$7,0*
20,1,$1+$1,$6,$7,$8,$9,0*
20,1,$1+$1,$8,$9,$2,$3,0*%
G04 Aperture macros list end*
%ADD10R,0.700000X0.450000*%
%ADD11RoundRect,0.100000X0.100000X-0.637500X0.100000X0.637500X-0.100000X0.637500X-0.100000X-0.637500X0*%
%ADD12RoundRect,0.250000X0.250000X0.475000X-0.250000X0.475000X-0.250000X-0.475000X0.250000X-0.475000X0*%
%ADD13RoundRect,0.250000X0.650000X-0.325000X0.650000X0.325000X-0.650000X0.325000X-0.650000X-0.325000X0*%
%ADD14RoundRect,0.250000X0.325000X0.650000X-0.325000X0.650000X-0.325000X-0.650000X0.325000X-0.650000X0*%
%ADD15RoundRect,0.243750X0.456250X-0.243750X0.456250X0.243750X-0.456250X0.243750X-0.456250X-0.243750X0*%
%ADD16RoundRect,0.200000X0.275000X-0.200000X0.275000X0.200000X-0.275000X0.200000X-0.275000X-0.200000X0*%
%ADD17RoundRect,0.200000X0.200000X0.275000X-0.200000X0.275000X-0.200000X-0.275000X0.200000X-0.275000X0*%
%ADD18RoundRect,0.200000X-0.275000X0.200000X-0.275000X-0.200000X0.275000X-0.200000X0.275000X0.200000X0*%
%ADD19RoundRect,0.243750X0.243750X0.456250X-0.243750X0.456250X-0.243750X-0.456250X0.243750X-0.456250X0*%
%ADD20RoundRect,0.200000X-0.200000X-0.275000X0.200000X-0.275000X0.200000X0.275000X-0.200000X0.275000X0*%
G04 APERTURE END LIST*
D10*
%TO.C,Q8*%
X131000000Y-55350000D03*
X131000000Y-56650000D03*
X133000000Y-56000000D03*
%TD*%
%TO.C,Q7*%
X123000000Y-55350000D03*
X123000000Y-56650000D03*
X125000000Y-56000000D03*
%TD*%
%TO.C,Q6*%
X115937500Y-55400000D03*
X115937500Y-56700000D03*
X117937500Y-56050000D03*
%TD*%
%TO.C,Q5*%
X109000000Y-55350000D03*
X109000000Y-56650000D03*
X111000000Y-56000000D03*
%TD*%
D11*
%TO.C,U2*%
X141075000Y-66862500D03*
X141725000Y-66862500D03*
X142375000Y-66862500D03*
X143025000Y-66862500D03*
X143675000Y-66862500D03*
X144325000Y-66862500D03*
X144975000Y-66862500D03*
X145625000Y-66862500D03*
X146275000Y-66862500D03*
X146925000Y-66862500D03*
X146925000Y-61137500D03*
X146275000Y-61137500D03*
X145625000Y-61137500D03*
X144975000Y-61137500D03*
X144325000Y-61137500D03*
X143675000Y-61137500D03*
X143025000Y-61137500D03*
X142375000Y-61137500D03*
X141725000Y-61137500D03*
X141075000Y-61137500D03*
%TD*%
D12*
%TO.C,C7*%
X146950000Y-69000000D03*
X145050000Y-69000000D03*
%TD*%
D13*
%TO.C,C6*%
X139000000Y-63975000D03*
X139000000Y-61025000D03*
%TD*%
D14*
%TO.C,C5*%
X74975000Y-54000000D03*
X72025000Y-54000000D03*
%TD*%
%TO.C,C4*%
X74975000Y-85000000D03*
X72025000Y-85000000D03*
%TD*%
D15*
%TO.C,D1*%
X128000000Y-104437500D03*
X128000000Y-102562500D03*
%TD*%
D16*
%TO.C,R5*%
X137500000Y-91825000D03*
X137500000Y-90175000D03*
%TD*%
%TO.C,R23*%
X121000000Y-56825000D03*
X121000000Y-55175000D03*
%TD*%
D17*
%TO.C,R25*%
X124825000Y-53000000D03*
X123175000Y-53000000D03*
%TD*%
D16*
%TO.C,R19*%
X107000000Y-56825000D03*
X107000000Y-55175000D03*
%TD*%
D15*
%TO.C,D2*%
X123500000Y-104437500D03*
X123500000Y-102562500D03*
%TD*%
D18*
%TO.C,R7*%
X97000000Y-89675000D03*
X97000000Y-91325000D03*
%TD*%
D19*
%TO.C,D3*%
X25937500Y-81000000D03*
X24062500Y-81000000D03*
%TD*%
D20*
%TO.C,R9*%
X69175000Y-94000000D03*
X70825000Y-94000000D03*
%TD*%
D16*
%TO.C,R8*%
X145000000Y-91825000D03*
X145000000Y-90175000D03*
%TD*%
D17*
%TO.C,R26*%
X132887500Y-52950000D03*
X131237500Y-52950000D03*
%TD*%
D16*
%TO.C,R2*%
X121500000Y-104325000D03*
X121500000Y-102675000D03*
%TD*%
D17*
%TO.C,R4*%
X29825000Y-69000000D03*
X28175000Y-69000000D03*
%TD*%
%TO.C,R21*%
X110825000Y-53000000D03*
X109175000Y-53000000D03*
%TD*%
D16*
%TO.C,R24*%
X129062500Y-56825000D03*
X129062500Y-55175000D03*
%TD*%
%TO.C,R6*%
X142500000Y-91825000D03*
X142500000Y-90175000D03*
%TD*%
D18*
%TO.C,R1*%
X126000000Y-102675000D03*
X126000000Y-104325000D03*
%TD*%
D20*
%TO.C,R3*%
X28175000Y-81000000D03*
X29825000Y-81000000D03*
%TD*%
D17*
%TO.C,R22*%
X117762500Y-53050000D03*
X116112500Y-53050000D03*
%TD*%
D20*
%TO.C,R10*%
X69175000Y-69500000D03*
X70825000Y-69500000D03*
%TD*%
D19*
%TO.C,D4*%
X25875000Y-69000000D03*
X24000000Y-69000000D03*
%TD*%
D16*
%TO.C,R20*%
X113937500Y-56875000D03*
X113937500Y-55225000D03*
%TD*%
M02*
