%TF.GenerationSoftware,KiCad,Pcbnew,(6.0.0)*%
%TF.CreationDate,2022-01-20T20:45:04-08:00*%
%TF.ProjectId,dish-controller,64697368-2d63-46f6-9e74-726f6c6c6572,rev?*%
%TF.SameCoordinates,Original*%
%TF.FileFunction,Soldermask,Top*%
%TF.FilePolarity,Negative*%
%FSLAX46Y46*%
G04 Gerber Fmt 4.6, Leading zero omitted, Abs format (unit mm)*
G04 Created by KiCad (PCBNEW (6.0.0)) date 2022-01-20 20:45:04*
%MOMM*%
%LPD*%
G01*
G04 APERTURE LIST*
G04 Aperture macros list*
%AMRoundRect*
0 Rectangle with rounded corners*
0 $1 Rounding radius*
0 $2 $3 $4 $5 $6 $7 $8 $9 X,Y pos of 4 corners*
0 Add a 4 corners polygon primitive as box body*
4,1,4,$2,$3,$4,$5,$6,$7,$8,$9,$2,$3,0*
0 Add four circle primitives for the rounded corners*
1,1,$1+$1,$2,$3*
1,1,$1+$1,$4,$5*
1,1,$1+$1,$6,$7*
1,1,$1+$1,$8,$9*
0 Add four rect primitives between the rounded corners*
20,1,$1+$1,$2,$3,$4,$5,0*
20,1,$1+$1,$4,$5,$6,$7,0*
20,1,$1+$1,$6,$7,$8,$9,0*
20,1,$1+$1,$8,$9,$2,$3,0*%
G04 Aperture macros list end*
%ADD10R,0.700000X0.450000*%
%ADD11R,1.700000X1.700000*%
%ADD12O,1.700000X1.700000*%
%ADD13C,5.700000*%
%ADD14C,1.700000*%
%ADD15C,3.200000*%
%ADD16C,1.500000*%
%ADD17RoundRect,0.100000X0.100000X-0.637500X0.100000X0.637500X-0.100000X0.637500X-0.100000X-0.637500X0*%
%ADD18R,2.600000X2.600000*%
%ADD19C,2.600000*%
%ADD20C,1.000000*%
%ADD21RoundRect,0.250001X0.499999X0.499999X-0.499999X0.499999X-0.499999X-0.499999X0.499999X-0.499999X0*%
%ADD22RoundRect,0.250000X0.250000X0.475000X-0.250000X0.475000X-0.250000X-0.475000X0.250000X-0.475000X0*%
%ADD23RoundRect,0.250000X0.650000X-0.325000X0.650000X0.325000X-0.650000X0.325000X-0.650000X-0.325000X0*%
%ADD24RoundRect,0.250000X0.325000X0.650000X-0.325000X0.650000X-0.325000X-0.650000X0.325000X-0.650000X0*%
%ADD25R,1.600000X1.600000*%
%ADD26C,1.600000*%
%ADD27RoundRect,0.243750X0.456250X-0.243750X0.456250X0.243750X-0.456250X0.243750X-0.456250X-0.243750X0*%
%ADD28RoundRect,0.200000X0.275000X-0.200000X0.275000X0.200000X-0.275000X0.200000X-0.275000X-0.200000X0*%
%ADD29RoundRect,0.200000X0.200000X0.275000X-0.200000X0.275000X-0.200000X-0.275000X0.200000X-0.275000X0*%
%ADD30C,2.000000*%
%ADD31RoundRect,0.200000X-0.275000X0.200000X-0.275000X-0.200000X0.275000X-0.200000X0.275000X0.200000X0*%
%ADD32RoundRect,0.243750X0.243750X0.456250X-0.243750X0.456250X-0.243750X-0.456250X0.243750X-0.456250X0*%
%ADD33RoundRect,0.200000X-0.200000X-0.275000X0.200000X-0.275000X0.200000X0.275000X-0.200000X0.275000X0*%
G04 APERTURE END LIST*
D10*
%TO.C,Q8*%
X131000000Y-55350000D03*
X131000000Y-56650000D03*
X133000000Y-56000000D03*
%TD*%
%TO.C,Q7*%
X123000000Y-55350000D03*
X123000000Y-56650000D03*
X125000000Y-56000000D03*
%TD*%
%TO.C,Q6*%
X115937500Y-55400000D03*
X115937500Y-56700000D03*
X117937500Y-56050000D03*
%TD*%
%TO.C,Q5*%
X109000000Y-55350000D03*
X109000000Y-56650000D03*
X111000000Y-56000000D03*
%TD*%
D11*
%TO.C,J7*%
X105425000Y-104000000D03*
D12*
X107965000Y-104000000D03*
X110505000Y-104000000D03*
X113045000Y-104000000D03*
X115585000Y-104000000D03*
%TD*%
D13*
%TO.C,U1*%
X150050000Y-46530000D03*
X92050000Y-46530000D03*
X150050000Y-95530000D03*
X92050000Y-95530000D03*
D14*
X96920000Y-94260000D03*
X96920000Y-96800000D03*
X99460000Y-94260000D03*
X99460000Y-96800000D03*
X102000000Y-94260000D03*
X102000000Y-96800000D03*
X104540000Y-94260000D03*
X104540000Y-96800000D03*
X107080000Y-94260000D03*
X107080000Y-96800000D03*
X109620000Y-94260000D03*
X109620000Y-96800000D03*
X112160000Y-94260000D03*
X112160000Y-96800000D03*
X114700000Y-94260000D03*
X114700000Y-96800000D03*
X117240000Y-94260000D03*
X117240000Y-96800000D03*
X119780000Y-94260000D03*
X119780000Y-96800000D03*
X122320000Y-94260000D03*
X122320000Y-96800000D03*
X124860000Y-94260000D03*
X124860000Y-96800000D03*
X127400000Y-94260000D03*
X127400000Y-96800000D03*
X129940000Y-94260000D03*
X129940000Y-96800000D03*
X132480000Y-94260000D03*
X132480000Y-96800000D03*
X135020000Y-94260000D03*
X135020000Y-96800000D03*
X137560000Y-94260000D03*
X137560000Y-96800000D03*
X140100000Y-94260000D03*
X140100000Y-96800000D03*
X142640000Y-94260000D03*
X142640000Y-96800000D03*
X145180000Y-94260000D03*
X145180000Y-96800000D03*
%TD*%
D15*
%TO.C,H1*%
X41000000Y-75000000D03*
%TD*%
D16*
%TO.C,U4*%
X49000000Y-67500000D03*
X50000000Y-63500000D03*
X51000000Y-67500000D03*
X52000000Y-63500000D03*
X53000000Y-67500000D03*
X54000000Y-63500000D03*
X55000000Y-67500000D03*
X56000000Y-63500000D03*
X57000000Y-67500000D03*
X58000000Y-63500000D03*
X59000000Y-67500000D03*
X60000000Y-63500000D03*
X61000000Y-67500000D03*
X62000000Y-63500000D03*
X63000000Y-67500000D03*
X64000000Y-63500000D03*
X65000000Y-67500000D03*
X66000000Y-63500000D03*
X67000000Y-67500000D03*
X68000000Y-63500000D03*
X69000000Y-67500000D03*
X70000000Y-63500000D03*
X71000000Y-67500000D03*
X72000000Y-63500000D03*
X73000000Y-67500000D03*
%TD*%
%TO.C,U3*%
X49000000Y-92000000D03*
X50000000Y-88000000D03*
X51000000Y-92000000D03*
X52000000Y-88000000D03*
X53000000Y-92000000D03*
X54000000Y-88000000D03*
X55000000Y-92000000D03*
X56000000Y-88000000D03*
X57000000Y-92000000D03*
X58000000Y-88000000D03*
X59000000Y-92000000D03*
X60000000Y-88000000D03*
X61000000Y-92000000D03*
X62000000Y-88000000D03*
X63000000Y-92000000D03*
X64000000Y-88000000D03*
X65000000Y-92000000D03*
X66000000Y-88000000D03*
X67000000Y-92000000D03*
X68000000Y-88000000D03*
X69000000Y-92000000D03*
X70000000Y-88000000D03*
X71000000Y-92000000D03*
X72000000Y-88000000D03*
X73000000Y-92000000D03*
%TD*%
D17*
%TO.C,U2*%
X141075000Y-66862500D03*
X141725000Y-66862500D03*
X142375000Y-66862500D03*
X143025000Y-66862500D03*
X143675000Y-66862500D03*
X144325000Y-66862500D03*
X144975000Y-66862500D03*
X145625000Y-66862500D03*
X146275000Y-66862500D03*
X146925000Y-66862500D03*
X146925000Y-61137500D03*
X146275000Y-61137500D03*
X145625000Y-61137500D03*
X144975000Y-61137500D03*
X144325000Y-61137500D03*
X143675000Y-61137500D03*
X143025000Y-61137500D03*
X142375000Y-61137500D03*
X141725000Y-61137500D03*
X141075000Y-61137500D03*
%TD*%
D18*
%TO.C,J6*%
X26700000Y-58460000D03*
D19*
X26700000Y-63540000D03*
%TD*%
D18*
%TO.C,J5*%
X26700000Y-86460000D03*
D19*
X26700000Y-91540000D03*
%TD*%
D20*
%TO.C,J4*%
X40000000Y-45560000D03*
X25000000Y-45560000D03*
D21*
X37000000Y-49500000D03*
D16*
X34000000Y-49500000D03*
X31000000Y-49500000D03*
X28000000Y-49500000D03*
X37000000Y-46500000D03*
X34000000Y-46500000D03*
X31000000Y-46500000D03*
X28000000Y-46500000D03*
%TD*%
D20*
%TO.C,J3*%
X40000000Y-100520000D03*
X25000000Y-100520000D03*
D21*
X37000000Y-104460000D03*
D16*
X34000000Y-104460000D03*
X31000000Y-104460000D03*
X28000000Y-104460000D03*
X37000000Y-101460000D03*
X34000000Y-101460000D03*
X31000000Y-101460000D03*
X28000000Y-101460000D03*
%TD*%
D18*
%TO.C,J2*%
X81000000Y-106000000D03*
D19*
X81000000Y-100920000D03*
%TD*%
D18*
%TO.C,J1*%
X52300000Y-106545000D03*
D19*
X52300000Y-101465000D03*
%TD*%
D22*
%TO.C,C7*%
X146950000Y-69000000D03*
X145050000Y-69000000D03*
%TD*%
D23*
%TO.C,C6*%
X139000000Y-63975000D03*
X139000000Y-61025000D03*
%TD*%
D24*
%TO.C,C5*%
X74975000Y-54000000D03*
X72025000Y-54000000D03*
%TD*%
%TO.C,C4*%
X74975000Y-85000000D03*
X72025000Y-85000000D03*
%TD*%
D25*
%TO.C,C3*%
X81000000Y-60347349D03*
D26*
X81000000Y-63847349D03*
%TD*%
D25*
%TO.C,C2*%
X137000000Y-105652651D03*
D26*
X137000000Y-102152651D03*
%TD*%
%TO.C,C1*%
X81500000Y-88347349D03*
D25*
X81500000Y-84847349D03*
%TD*%
D27*
%TO.C,D1*%
X128000000Y-104437500D03*
X128000000Y-102562500D03*
%TD*%
D28*
%TO.C,R5*%
X137500000Y-91825000D03*
X137500000Y-90175000D03*
%TD*%
%TO.C,R23*%
X121000000Y-56825000D03*
X121000000Y-55175000D03*
%TD*%
D29*
%TO.C,R25*%
X124825000Y-53000000D03*
X123175000Y-53000000D03*
%TD*%
D28*
%TO.C,R19*%
X107000000Y-56825000D03*
X107000000Y-55175000D03*
%TD*%
D27*
%TO.C,D2*%
X123500000Y-104437500D03*
X123500000Y-102562500D03*
%TD*%
D30*
%TO.C,TP3*%
X119500000Y-89770000D03*
X119500000Y-87230000D03*
%TD*%
%TO.C,TP1*%
X41000000Y-96000000D03*
X38460000Y-96000000D03*
%TD*%
D31*
%TO.C,R7*%
X97000000Y-89675000D03*
X97000000Y-91325000D03*
%TD*%
D32*
%TO.C,D3*%
X25937500Y-81000000D03*
X24062500Y-81000000D03*
%TD*%
D33*
%TO.C,R9*%
X69175000Y-94000000D03*
X70825000Y-94000000D03*
%TD*%
D30*
%TO.C,TP5*%
X126500000Y-89770000D03*
X126500000Y-87230000D03*
%TD*%
%TO.C,TP8*%
X130000000Y-89770000D03*
X130000000Y-87230000D03*
%TD*%
D28*
%TO.C,R8*%
X145000000Y-91825000D03*
X145000000Y-90175000D03*
%TD*%
D29*
%TO.C,R26*%
X132887500Y-52950000D03*
X131237500Y-52950000D03*
%TD*%
D28*
%TO.C,R2*%
X121500000Y-104325000D03*
X121500000Y-102675000D03*
%TD*%
D29*
%TO.C,R4*%
X29825000Y-69000000D03*
X28175000Y-69000000D03*
%TD*%
%TO.C,R21*%
X110825000Y-53000000D03*
X109175000Y-53000000D03*
%TD*%
D30*
%TO.C,TP2*%
X57230000Y-96000000D03*
X59770000Y-96000000D03*
%TD*%
D28*
%TO.C,R24*%
X129062500Y-56825000D03*
X129062500Y-55175000D03*
%TD*%
%TO.C,R6*%
X142500000Y-91825000D03*
X142500000Y-90175000D03*
%TD*%
D31*
%TO.C,R1*%
X126000000Y-102675000D03*
X126000000Y-104325000D03*
%TD*%
D33*
%TO.C,R3*%
X28175000Y-81000000D03*
X29825000Y-81000000D03*
%TD*%
D30*
%TO.C,TP4*%
X123000000Y-89770000D03*
X123000000Y-87230000D03*
%TD*%
D29*
%TO.C,R22*%
X117762500Y-53050000D03*
X116112500Y-53050000D03*
%TD*%
D30*
%TO.C,TP7*%
X64270000Y-49500000D03*
X61730000Y-49500000D03*
%TD*%
D33*
%TO.C,R10*%
X69175000Y-69500000D03*
X70825000Y-69500000D03*
%TD*%
D32*
%TO.C,D4*%
X25875000Y-69000000D03*
X24000000Y-69000000D03*
%TD*%
D28*
%TO.C,R20*%
X113937500Y-56875000D03*
X113937500Y-55225000D03*
%TD*%
D30*
%TO.C,TP6*%
X56270000Y-49500000D03*
X53730000Y-49500000D03*
%TD*%
%TO.C,TP9*%
X133500000Y-89770000D03*
X133500000Y-87230000D03*
%TD*%
M02*
